solid OpenSCAD_Model
  facet normal 0.999507 0.0313815 0
    outer loop
      vertex 10.5 0 2
      vertex 10.4793 0.6593 0
      vertex 10.4793 0.6593 2
    endloop
  endfacet
  facet normal 0.999507 0.0313815 0
    outer loop
      vertex 10.4793 0.6593 0
      vertex 10.5 0 2
      vertex 10.5 0 0
    endloop
  endfacet
  facet normal 0.995559 0.0941437 0
    outer loop
      vertex 10.4793 0.6593 2
      vertex 10.4172 1.316 0
      vertex 10.4172 1.316 2
    endloop
  endfacet
  facet normal 0.995559 0.0941437 0
    outer loop
      vertex 10.4172 1.316 0
      vertex 10.4793 0.6593 2
      vertex 10.4793 0.6593 0
    endloop
  endfacet
  facet normal 0.987685 0.156453 0
    outer loop
      vertex 10.4172 1.316 2
      vertex 10.314 1.9675 0
      vertex 10.314 1.9675 2
    endloop
  endfacet
  facet normal 0.987685 0.156453 0
    outer loop
      vertex 10.314 1.9675 0
      vertex 10.4172 1.316 2
      vertex 10.4172 1.316 0
    endloop
  endfacet
  facet normal 0.975914 0.218153 0
    outer loop
      vertex 10.314 1.9675 2
      vertex 10.1701 2.61124 0
      vertex 10.1701 2.61124 2
    endloop
  endfacet
  facet normal 0.975914 0.218153 0
    outer loop
      vertex 10.1701 2.61124 0
      vertex 10.314 1.9675 2
      vertex 10.314 1.9675 0
    endloop
  endfacet
  facet normal 0.960302 0.278961 0
    outer loop
      vertex 10.1701 2.61124 2
      vertex 9.98609 3.24468 0
      vertex 9.98609 3.24468 2
    endloop
  endfacet
  facet normal 0.960302 0.278961 0
    outer loop
      vertex 9.98609 3.24468 0
      vertex 10.1701 2.61124 2
      vertex 10.1701 2.61124 0
    endloop
  endfacet
  facet normal 0.940881 0.338737 0
    outer loop
      vertex 9.98609 3.24468 2
      vertex 9.76265 3.86531 0
      vertex 9.76265 3.86531 2
    endloop
  endfacet
  facet normal 0.940881 0.338737 0
    outer loop
      vertex 9.76265 3.86531 0
      vertex 9.98609 3.24468 2
      vertex 9.98609 3.24468 0
    endloop
  endfacet
  facet normal 0.917753 0.397152 0
    outer loop
      vertex 9.76265 3.86531 2
      vertex 9.50068 4.47068 0
      vertex 9.50068 4.47068 2
    endloop
  endfacet
  facet normal 0.917753 0.397152 0
    outer loop
      vertex 9.50068 4.47068 0
      vertex 9.76265 3.86531 2
      vertex 9.76265 3.86531 0
    endloop
  endfacet
  facet normal 0.891009 0.453986 0
    outer loop
      vertex 9.50068 4.47068 2
      vertex 9.20122 5.05841 0
      vertex 9.20122 5.05841 2
    endloop
  endfacet
  facet normal 0.891009 0.453986 0
    outer loop
      vertex 9.20122 5.05841 0
      vertex 9.50068 4.47068 2
      vertex 9.50068 4.47068 0
    endloop
  endfacet
  facet normal 0.860741 0.509043 0
    outer loop
      vertex 9.20122 5.05841 2
      vertex 8.86544 5.62618 0
      vertex 8.86544 5.62618 2
    endloop
  endfacet
  facet normal 0.860741 0.509043 0
    outer loop
      vertex 8.86544 5.62618 0
      vertex 9.20122 5.05841 2
      vertex 9.20122 5.05841 0
    endloop
  endfacet
  facet normal 0.827087 0.562074 0
    outer loop
      vertex 8.86544 5.62618 2
      vertex 8.49468 6.17175 0
      vertex 8.49468 6.17175 2
    endloop
  endfacet
  facet normal 0.827087 0.562074 0
    outer loop
      vertex 8.49468 6.17175 0
      vertex 8.86544 5.62618 2
      vertex 8.86544 5.62618 0
    endloop
  endfacet
  facet normal 0.790151 0.612913 0
    outer loop
      vertex 8.49468 6.17175 2
      vertex 8.09039 6.69295 0
      vertex 8.09039 6.69295 2
    endloop
  endfacet
  facet normal 0.790151 0.612913 0
    outer loop
      vertex 8.09039 6.69295 0
      vertex 8.49468 6.17175 2
      vertex 8.49468 6.17175 0
    endloop
  endfacet
  facet normal 0.750108 0.661315 0
    outer loop
      vertex 8.09039 6.69295 2
      vertex 7.65417 7.18774 0
      vertex 7.65417 7.18774 2
    endloop
  endfacet
  facet normal 0.750108 0.661315 0
    outer loop
      vertex 7.65417 7.18774 0
      vertex 8.09039 6.69295 2
      vertex 8.09039 6.69295 0
    endloop
  endfacet
  facet normal 0.707107 0.707107 0
    outer loop
      vertex 7.65417 7.18774 2
      vertex 7.18774 7.65417 0
      vertex 7.18774 7.65417 2
    endloop
  endfacet
  facet normal 0.707107 0.707107 0
    outer loop
      vertex 7.18774 7.65417 0
      vertex 7.65417 7.18774 2
      vertex 7.65417 7.18774 0
    endloop
  endfacet
  facet normal 0.661315 0.750108 -0
    outer loop
      vertex 7.18774 7.65417 0
      vertex 6.69295 8.09039 2
      vertex 7.18774 7.65417 2
    endloop
  endfacet
  facet normal 0.661315 0.750108 0
    outer loop
      vertex 6.69295 8.09039 2
      vertex 7.18774 7.65417 0
      vertex 6.69295 8.09039 0
    endloop
  endfacet
  facet normal 0.612913 0.790151 -0
    outer loop
      vertex 6.69295 8.09039 0
      vertex 6.17175 8.49468 2
      vertex 6.69295 8.09039 2
    endloop
  endfacet
  facet normal 0.612913 0.790151 0
    outer loop
      vertex 6.17175 8.49468 2
      vertex 6.69295 8.09039 0
      vertex 6.17175 8.49468 0
    endloop
  endfacet
  facet normal 0.562074 0.827087 -0
    outer loop
      vertex 6.17175 8.49468 0
      vertex 5.62618 8.86544 2
      vertex 6.17175 8.49468 2
    endloop
  endfacet
  facet normal 0.562074 0.827087 0
    outer loop
      vertex 5.62618 8.86544 2
      vertex 6.17175 8.49468 0
      vertex 5.62618 8.86544 0
    endloop
  endfacet
  facet normal 0.509043 0.860741 -0
    outer loop
      vertex 5.62618 8.86544 0
      vertex 5.05841 9.20122 2
      vertex 5.62618 8.86544 2
    endloop
  endfacet
  facet normal 0.509043 0.860741 0
    outer loop
      vertex 5.05841 9.20122 2
      vertex 5.62618 8.86544 0
      vertex 5.05841 9.20122 0
    endloop
  endfacet
  facet normal 0.453986 0.891009 -0
    outer loop
      vertex 5.05841 9.20122 0
      vertex 4.47068 9.50068 2
      vertex 5.05841 9.20122 2
    endloop
  endfacet
  facet normal 0.453986 0.891009 0
    outer loop
      vertex 4.47068 9.50068 2
      vertex 5.05841 9.20122 0
      vertex 4.47068 9.50068 0
    endloop
  endfacet
  facet normal 0.397152 0.917753 -0
    outer loop
      vertex 4.47068 9.50068 0
      vertex 3.86531 9.76265 2
      vertex 4.47068 9.50068 2
    endloop
  endfacet
  facet normal 0.397152 0.917753 0
    outer loop
      vertex 3.86531 9.76265 2
      vertex 4.47068 9.50068 0
      vertex 3.86531 9.76265 0
    endloop
  endfacet
  facet normal 0.338737 0.940881 -0
    outer loop
      vertex 3.86531 9.76265 0
      vertex 3.24468 9.98609 2
      vertex 3.86531 9.76265 2
    endloop
  endfacet
  facet normal 0.338737 0.940881 0
    outer loop
      vertex 3.24468 9.98609 2
      vertex 3.86531 9.76265 0
      vertex 3.24468 9.98609 0
    endloop
  endfacet
  facet normal 0.278961 0.960302 -0
    outer loop
      vertex 3.24468 9.98609 0
      vertex 2.61124 10.1701 2
      vertex 3.24468 9.98609 2
    endloop
  endfacet
  facet normal 0.278961 0.960302 0
    outer loop
      vertex 2.61124 10.1701 2
      vertex 3.24468 9.98609 0
      vertex 2.61124 10.1701 0
    endloop
  endfacet
  facet normal 0.218153 0.975914 -0
    outer loop
      vertex 2.61124 10.1701 0
      vertex 1.9675 10.314 2
      vertex 2.61124 10.1701 2
    endloop
  endfacet
  facet normal 0.218153 0.975914 0
    outer loop
      vertex 1.9675 10.314 2
      vertex 2.61124 10.1701 0
      vertex 1.9675 10.314 0
    endloop
  endfacet
  facet normal 0.156453 0.987685 -0
    outer loop
      vertex 1.9675 10.314 0
      vertex 1.316 10.4172 2
      vertex 1.9675 10.314 2
    endloop
  endfacet
  facet normal 0.156453 0.987685 0
    outer loop
      vertex 1.316 10.4172 2
      vertex 1.9675 10.314 0
      vertex 1.316 10.4172 0
    endloop
  endfacet
  facet normal 0.0941437 0.995559 -0
    outer loop
      vertex 1.316 10.4172 0
      vertex 0.6593 10.4793 2
      vertex 1.316 10.4172 2
    endloop
  endfacet
  facet normal 0.0941437 0.995559 0
    outer loop
      vertex 0.6593 10.4793 2
      vertex 1.316 10.4172 0
      vertex 0.6593 10.4793 0
    endloop
  endfacet
  facet normal 0.0313815 0.999507 -0
    outer loop
      vertex 0.6593 10.4793 0
      vertex 0 10.5 2
      vertex 0.6593 10.4793 2
    endloop
  endfacet
  facet normal 0.0313815 0.999507 0
    outer loop
      vertex 0 10.5 2
      vertex 0.6593 10.4793 0
      vertex 0 10.5 0
    endloop
  endfacet
  facet normal -0.0313815 0.999507 0
    outer loop
      vertex 0 10.5 0
      vertex -0.6593 10.4793 2
      vertex 0 10.5 2
    endloop
  endfacet
  facet normal -0.0313815 0.999507 0
    outer loop
      vertex -0.6593 10.4793 2
      vertex 0 10.5 0
      vertex -0.6593 10.4793 0
    endloop
  endfacet
  facet normal -0.0941437 0.995559 0
    outer loop
      vertex -0.6593 10.4793 0
      vertex -1.316 10.4172 2
      vertex -0.6593 10.4793 2
    endloop
  endfacet
  facet normal -0.0941437 0.995559 0
    outer loop
      vertex -1.316 10.4172 2
      vertex -0.6593 10.4793 0
      vertex -1.316 10.4172 0
    endloop
  endfacet
  facet normal -0.156453 0.987685 0
    outer loop
      vertex -1.316 10.4172 0
      vertex -1.9675 10.314 2
      vertex -1.316 10.4172 2
    endloop
  endfacet
  facet normal -0.156453 0.987685 0
    outer loop
      vertex -1.9675 10.314 2
      vertex -1.316 10.4172 0
      vertex -1.9675 10.314 0
    endloop
  endfacet
  facet normal -0.218153 0.975914 0
    outer loop
      vertex -1.9675 10.314 0
      vertex -2.61124 10.1701 2
      vertex -1.9675 10.314 2
    endloop
  endfacet
  facet normal -0.218153 0.975914 0
    outer loop
      vertex -2.61124 10.1701 2
      vertex -1.9675 10.314 0
      vertex -2.61124 10.1701 0
    endloop
  endfacet
  facet normal -0.278961 0.960302 0
    outer loop
      vertex -2.61124 10.1701 0
      vertex -3.24468 9.98609 2
      vertex -2.61124 10.1701 2
    endloop
  endfacet
  facet normal -0.278961 0.960302 0
    outer loop
      vertex -3.24468 9.98609 2
      vertex -2.61124 10.1701 0
      vertex -3.24468 9.98609 0
    endloop
  endfacet
  facet normal -0.338737 0.940881 0
    outer loop
      vertex -3.24468 9.98609 0
      vertex -3.86531 9.76265 2
      vertex -3.24468 9.98609 2
    endloop
  endfacet
  facet normal -0.338737 0.940881 0
    outer loop
      vertex -3.86531 9.76265 2
      vertex -3.24468 9.98609 0
      vertex -3.86531 9.76265 0
    endloop
  endfacet
  facet normal -0.397152 0.917753 0
    outer loop
      vertex -3.86531 9.76265 0
      vertex -4.47068 9.50068 2
      vertex -3.86531 9.76265 2
    endloop
  endfacet
  facet normal -0.397152 0.917753 0
    outer loop
      vertex -4.47068 9.50068 2
      vertex -3.86531 9.76265 0
      vertex -4.47068 9.50068 0
    endloop
  endfacet
  facet normal -0.453986 0.891009 0
    outer loop
      vertex -4.47068 9.50068 0
      vertex -5.05841 9.20122 2
      vertex -4.47068 9.50068 2
    endloop
  endfacet
  facet normal -0.453986 0.891009 0
    outer loop
      vertex -5.05841 9.20122 2
      vertex -4.47068 9.50068 0
      vertex -5.05841 9.20122 0
    endloop
  endfacet
  facet normal -0.509043 0.860741 0
    outer loop
      vertex -5.05841 9.20122 0
      vertex -5.62618 8.86544 2
      vertex -5.05841 9.20122 2
    endloop
  endfacet
  facet normal -0.509043 0.860741 0
    outer loop
      vertex -5.62618 8.86544 2
      vertex -5.05841 9.20122 0
      vertex -5.62618 8.86544 0
    endloop
  endfacet
  facet normal -0.562074 0.827087 0
    outer loop
      vertex -5.62618 8.86544 0
      vertex -6.17175 8.49468 2
      vertex -5.62618 8.86544 2
    endloop
  endfacet
  facet normal -0.562074 0.827087 0
    outer loop
      vertex -6.17175 8.49468 2
      vertex -5.62618 8.86544 0
      vertex -6.17175 8.49468 0
    endloop
  endfacet
  facet normal -0.612913 0.790151 0
    outer loop
      vertex -6.17175 8.49468 0
      vertex -6.69295 8.09039 2
      vertex -6.17175 8.49468 2
    endloop
  endfacet
  facet normal -0.612913 0.790151 0
    outer loop
      vertex -6.69295 8.09039 2
      vertex -6.17175 8.49468 0
      vertex -6.69295 8.09039 0
    endloop
  endfacet
  facet normal -0.661315 0.750108 0
    outer loop
      vertex -6.69295 8.09039 0
      vertex -7.18774 7.65417 2
      vertex -6.69295 8.09039 2
    endloop
  endfacet
  facet normal -0.661315 0.750108 0
    outer loop
      vertex -7.18774 7.65417 2
      vertex -6.69295 8.09039 0
      vertex -7.18774 7.65417 0
    endloop
  endfacet
  facet normal -0.707107 0.707107 0
    outer loop
      vertex -7.65417 7.18774 0
      vertex -7.18774 7.65417 2
      vertex -7.18774 7.65417 0
    endloop
  endfacet
  facet normal -0.707107 0.707107 0
    outer loop
      vertex -7.18774 7.65417 2
      vertex -7.65417 7.18774 0
      vertex -7.65417 7.18774 2
    endloop
  endfacet
  facet normal -0.750108 0.661315 0
    outer loop
      vertex -8.09039 6.69295 0
      vertex -7.65417 7.18774 2
      vertex -7.65417 7.18774 0
    endloop
  endfacet
  facet normal -0.750108 0.661315 0
    outer loop
      vertex -7.65417 7.18774 2
      vertex -8.09039 6.69295 0
      vertex -8.09039 6.69295 2
    endloop
  endfacet
  facet normal -0.790151 0.612913 0
    outer loop
      vertex -8.49468 6.17175 0
      vertex -8.09039 6.69295 2
      vertex -8.09039 6.69295 0
    endloop
  endfacet
  facet normal -0.790151 0.612913 0
    outer loop
      vertex -8.09039 6.69295 2
      vertex -8.49468 6.17175 0
      vertex -8.49468 6.17175 2
    endloop
  endfacet
  facet normal -0.827087 0.562074 0
    outer loop
      vertex -8.86544 5.62618 0
      vertex -8.49468 6.17175 2
      vertex -8.49468 6.17175 0
    endloop
  endfacet
  facet normal -0.827087 0.562074 0
    outer loop
      vertex -8.49468 6.17175 2
      vertex -8.86544 5.62618 0
      vertex -8.86544 5.62618 2
    endloop
  endfacet
  facet normal -0.860741 0.509043 0
    outer loop
      vertex -9.20122 5.05841 0
      vertex -8.86544 5.62618 2
      vertex -8.86544 5.62618 0
    endloop
  endfacet
  facet normal -0.860741 0.509043 0
    outer loop
      vertex -8.86544 5.62618 2
      vertex -9.20122 5.05841 0
      vertex -9.20122 5.05841 2
    endloop
  endfacet
  facet normal -0.891009 0.453986 0
    outer loop
      vertex -9.50068 4.47068 0
      vertex -9.20122 5.05841 2
      vertex -9.20122 5.05841 0
    endloop
  endfacet
  facet normal -0.891009 0.453986 0
    outer loop
      vertex -9.20122 5.05841 2
      vertex -9.50068 4.47068 0
      vertex -9.50068 4.47068 2
    endloop
  endfacet
  facet normal -0.917753 0.397152 0
    outer loop
      vertex -9.76265 3.86531 0
      vertex -9.50068 4.47068 2
      vertex -9.50068 4.47068 0
    endloop
  endfacet
  facet normal -0.917753 0.397152 0
    outer loop
      vertex -9.50068 4.47068 2
      vertex -9.76265 3.86531 0
      vertex -9.76265 3.86531 2
    endloop
  endfacet
  facet normal -0.940881 0.338737 0
    outer loop
      vertex -9.98609 3.24468 0
      vertex -9.76265 3.86531 2
      vertex -9.76265 3.86531 0
    endloop
  endfacet
  facet normal -0.940881 0.338737 0
    outer loop
      vertex -9.76265 3.86531 2
      vertex -9.98609 3.24468 0
      vertex -9.98609 3.24468 2
    endloop
  endfacet
  facet normal -0.960302 0.278961 0
    outer loop
      vertex -10.1701 2.61124 0
      vertex -9.98609 3.24468 2
      vertex -9.98609 3.24468 0
    endloop
  endfacet
  facet normal -0.960302 0.278961 0
    outer loop
      vertex -9.98609 3.24468 2
      vertex -10.1701 2.61124 0
      vertex -10.1701 2.61124 2
    endloop
  endfacet
  facet normal -0.975914 0.218153 0
    outer loop
      vertex -10.314 1.9675 0
      vertex -10.1701 2.61124 2
      vertex -10.1701 2.61124 0
    endloop
  endfacet
  facet normal -0.975914 0.218153 0
    outer loop
      vertex -10.1701 2.61124 2
      vertex -10.314 1.9675 0
      vertex -10.314 1.9675 2
    endloop
  endfacet
  facet normal -0.987685 0.156453 0
    outer loop
      vertex -10.4172 1.316 0
      vertex -10.314 1.9675 2
      vertex -10.314 1.9675 0
    endloop
  endfacet
  facet normal -0.987685 0.156453 0
    outer loop
      vertex -10.314 1.9675 2
      vertex -10.4172 1.316 0
      vertex -10.4172 1.316 2
    endloop
  endfacet
  facet normal -0.995559 0.0941437 0
    outer loop
      vertex -10.4793 0.6593 0
      vertex -10.4172 1.316 2
      vertex -10.4172 1.316 0
    endloop
  endfacet
  facet normal -0.995559 0.0941437 0
    outer loop
      vertex -10.4172 1.316 2
      vertex -10.4793 0.6593 0
      vertex -10.4793 0.6593 2
    endloop
  endfacet
  facet normal -0.999507 0.0313815 0
    outer loop
      vertex -10.5 -0 0
      vertex -10.4793 0.6593 2
      vertex -10.4793 0.6593 0
    endloop
  endfacet
  facet normal -0.999507 0.0313815 0
    outer loop
      vertex -10.4793 0.6593 2
      vertex -10.5 -0 0
      vertex -10.5 -0 2
    endloop
  endfacet
  facet normal -0.999507 -0.0313815 0
    outer loop
      vertex -10.4793 -0.6593 0
      vertex -10.5 -0 2
      vertex -10.5 -0 0
    endloop
  endfacet
  facet normal -0.999507 -0.0313815 0
    outer loop
      vertex -10.5 -0 2
      vertex -10.4793 -0.6593 0
      vertex -10.4793 -0.6593 2
    endloop
  endfacet
  facet normal -0.995559 -0.0941437 0
    outer loop
      vertex -10.4172 -1.316 0
      vertex -10.4793 -0.6593 2
      vertex -10.4793 -0.6593 0
    endloop
  endfacet
  facet normal -0.995559 -0.0941437 0
    outer loop
      vertex -10.4793 -0.6593 2
      vertex -10.4172 -1.316 0
      vertex -10.4172 -1.316 2
    endloop
  endfacet
  facet normal -0.987685 -0.156453 0
    outer loop
      vertex -10.314 -1.9675 0
      vertex -10.4172 -1.316 2
      vertex -10.4172 -1.316 0
    endloop
  endfacet
  facet normal -0.987685 -0.156453 0
    outer loop
      vertex -10.4172 -1.316 2
      vertex -10.314 -1.9675 0
      vertex -10.314 -1.9675 2
    endloop
  endfacet
  facet normal -0.975914 -0.218153 0
    outer loop
      vertex -10.1701 -2.61124 0
      vertex -10.314 -1.9675 2
      vertex -10.314 -1.9675 0
    endloop
  endfacet
  facet normal -0.975914 -0.218153 0
    outer loop
      vertex -10.314 -1.9675 2
      vertex -10.1701 -2.61124 0
      vertex -10.1701 -2.61124 2
    endloop
  endfacet
  facet normal -0.960302 -0.278961 0
    outer loop
      vertex -9.98609 -3.24468 0
      vertex -10.1701 -2.61124 2
      vertex -10.1701 -2.61124 0
    endloop
  endfacet
  facet normal -0.960302 -0.278961 0
    outer loop
      vertex -10.1701 -2.61124 2
      vertex -9.98609 -3.24468 0
      vertex -9.98609 -3.24468 2
    endloop
  endfacet
  facet normal -0.940881 -0.338737 0
    outer loop
      vertex -9.76265 -3.86531 0
      vertex -9.98609 -3.24468 2
      vertex -9.98609 -3.24468 0
    endloop
  endfacet
  facet normal -0.940881 -0.338737 0
    outer loop
      vertex -9.98609 -3.24468 2
      vertex -9.76265 -3.86531 0
      vertex -9.76265 -3.86531 2
    endloop
  endfacet
  facet normal -0.917753 -0.397152 0
    outer loop
      vertex -9.50068 -4.47068 0
      vertex -9.76265 -3.86531 2
      vertex -9.76265 -3.86531 0
    endloop
  endfacet
  facet normal -0.917753 -0.397152 0
    outer loop
      vertex -9.76265 -3.86531 2
      vertex -9.50068 -4.47068 0
      vertex -9.50068 -4.47068 2
    endloop
  endfacet
  facet normal -0.891009 -0.453986 0
    outer loop
      vertex -9.20122 -5.05841 0
      vertex -9.50068 -4.47068 2
      vertex -9.50068 -4.47068 0
    endloop
  endfacet
  facet normal -0.891009 -0.453986 0
    outer loop
      vertex -9.50068 -4.47068 2
      vertex -9.20122 -5.05841 0
      vertex -9.20122 -5.05841 2
    endloop
  endfacet
  facet normal -0.860741 -0.509043 0
    outer loop
      vertex -8.86544 -5.62618 0
      vertex -9.20122 -5.05841 2
      vertex -9.20122 -5.05841 0
    endloop
  endfacet
  facet normal -0.860741 -0.509043 0
    outer loop
      vertex -9.20122 -5.05841 2
      vertex -8.86544 -5.62618 0
      vertex -8.86544 -5.62618 2
    endloop
  endfacet
  facet normal -0.827087 -0.562074 0
    outer loop
      vertex -8.49468 -6.17175 0
      vertex -8.86544 -5.62618 2
      vertex -8.86544 -5.62618 0
    endloop
  endfacet
  facet normal -0.827087 -0.562074 0
    outer loop
      vertex -8.86544 -5.62618 2
      vertex -8.49468 -6.17175 0
      vertex -8.49468 -6.17175 2
    endloop
  endfacet
  facet normal -0.790151 -0.612913 0
    outer loop
      vertex -8.09039 -6.69295 0
      vertex -8.49468 -6.17175 2
      vertex -8.49468 -6.17175 0
    endloop
  endfacet
  facet normal -0.790151 -0.612913 0
    outer loop
      vertex -8.49468 -6.17175 2
      vertex -8.09039 -6.69295 0
      vertex -8.09039 -6.69295 2
    endloop
  endfacet
  facet normal -0.750108 -0.661315 0
    outer loop
      vertex -7.65417 -7.18774 0
      vertex -8.09039 -6.69295 2
      vertex -8.09039 -6.69295 0
    endloop
  endfacet
  facet normal -0.750108 -0.661315 0
    outer loop
      vertex -8.09039 -6.69295 2
      vertex -7.65417 -7.18774 0
      vertex -7.65417 -7.18774 2
    endloop
  endfacet
  facet normal -0.707107 -0.707107 0
    outer loop
      vertex -7.18774 -7.65417 0
      vertex -7.65417 -7.18774 2
      vertex -7.65417 -7.18774 0
    endloop
  endfacet
  facet normal -0.707107 -0.707107 0
    outer loop
      vertex -7.65417 -7.18774 2
      vertex -7.18774 -7.65417 0
      vertex -7.18774 -7.65417 2
    endloop
  endfacet
  facet normal -0.661315 -0.750108 0
    outer loop
      vertex -7.18774 -7.65417 0
      vertex -6.69295 -8.09039 2
      vertex -7.18774 -7.65417 2
    endloop
  endfacet
  facet normal -0.661315 -0.750108 -0
    outer loop
      vertex -6.69295 -8.09039 2
      vertex -7.18774 -7.65417 0
      vertex -6.69295 -8.09039 0
    endloop
  endfacet
  facet normal -0.612913 -0.790151 0
    outer loop
      vertex -6.69295 -8.09039 0
      vertex -6.17175 -8.49468 2
      vertex -6.69295 -8.09039 2
    endloop
  endfacet
  facet normal -0.612913 -0.790151 -0
    outer loop
      vertex -6.17175 -8.49468 2
      vertex -6.69295 -8.09039 0
      vertex -6.17175 -8.49468 0
    endloop
  endfacet
  facet normal -0.562074 -0.827087 0
    outer loop
      vertex -6.17175 -8.49468 0
      vertex -5.62618 -8.86544 2
      vertex -6.17175 -8.49468 2
    endloop
  endfacet
  facet normal -0.562074 -0.827087 -0
    outer loop
      vertex -5.62618 -8.86544 2
      vertex -6.17175 -8.49468 0
      vertex -5.62618 -8.86544 0
    endloop
  endfacet
  facet normal -0.509043 -0.860741 0
    outer loop
      vertex -5.62618 -8.86544 0
      vertex -5.05841 -9.20122 2
      vertex -5.62618 -8.86544 2
    endloop
  endfacet
  facet normal -0.509043 -0.860741 -0
    outer loop
      vertex -5.05841 -9.20122 2
      vertex -5.62618 -8.86544 0
      vertex -5.05841 -9.20122 0
    endloop
  endfacet
  facet normal -0.453986 -0.891009 0
    outer loop
      vertex -5.05841 -9.20122 0
      vertex -4.47068 -9.50068 2
      vertex -5.05841 -9.20122 2
    endloop
  endfacet
  facet normal -0.453986 -0.891009 -0
    outer loop
      vertex -4.47068 -9.50068 2
      vertex -5.05841 -9.20122 0
      vertex -4.47068 -9.50068 0
    endloop
  endfacet
  facet normal -0.397152 -0.917753 0
    outer loop
      vertex -4.47068 -9.50068 0
      vertex -3.86531 -9.76265 2
      vertex -4.47068 -9.50068 2
    endloop
  endfacet
  facet normal -0.397152 -0.917753 -0
    outer loop
      vertex -3.86531 -9.76265 2
      vertex -4.47068 -9.50068 0
      vertex -3.86531 -9.76265 0
    endloop
  endfacet
  facet normal -0.338737 -0.940881 0
    outer loop
      vertex -3.86531 -9.76265 0
      vertex -3.24468 -9.98609 2
      vertex -3.86531 -9.76265 2
    endloop
  endfacet
  facet normal -0.338737 -0.940881 -0
    outer loop
      vertex -3.24468 -9.98609 2
      vertex -3.86531 -9.76265 0
      vertex -3.24468 -9.98609 0
    endloop
  endfacet
  facet normal -0.278961 -0.960302 0
    outer loop
      vertex -3.24468 -9.98609 0
      vertex -2.61124 -10.1701 2
      vertex -3.24468 -9.98609 2
    endloop
  endfacet
  facet normal -0.278961 -0.960302 -0
    outer loop
      vertex -2.61124 -10.1701 2
      vertex -3.24468 -9.98609 0
      vertex -2.61124 -10.1701 0
    endloop
  endfacet
  facet normal -0.218153 -0.975914 0
    outer loop
      vertex -2.61124 -10.1701 0
      vertex -1.9675 -10.314 2
      vertex -2.61124 -10.1701 2
    endloop
  endfacet
  facet normal -0.218153 -0.975914 -0
    outer loop
      vertex -1.9675 -10.314 2
      vertex -2.61124 -10.1701 0
      vertex -1.9675 -10.314 0
    endloop
  endfacet
  facet normal -0.156453 -0.987685 0
    outer loop
      vertex -1.9675 -10.314 0
      vertex -1.316 -10.4172 2
      vertex -1.9675 -10.314 2
    endloop
  endfacet
  facet normal -0.156453 -0.987685 -0
    outer loop
      vertex -1.316 -10.4172 2
      vertex -1.9675 -10.314 0
      vertex -1.316 -10.4172 0
    endloop
  endfacet
  facet normal -0.0941437 -0.995559 0
    outer loop
      vertex -1.316 -10.4172 0
      vertex -0.6593 -10.4793 2
      vertex -1.316 -10.4172 2
    endloop
  endfacet
  facet normal -0.0941437 -0.995559 -0
    outer loop
      vertex -0.6593 -10.4793 2
      vertex -1.316 -10.4172 0
      vertex -0.6593 -10.4793 0
    endloop
  endfacet
  facet normal -0.0313815 -0.999507 0
    outer loop
      vertex -0.6593 -10.4793 0
      vertex -0 -10.5 2
      vertex -0.6593 -10.4793 2
    endloop
  endfacet
  facet normal -0.0313815 -0.999507 -0
    outer loop
      vertex -0 -10.5 2
      vertex -0.6593 -10.4793 0
      vertex -0 -10.5 0
    endloop
  endfacet
  facet normal 0.0313815 -0.999507 0
    outer loop
      vertex -0 -10.5 0
      vertex 0.6593 -10.4793 2
      vertex -0 -10.5 2
    endloop
  endfacet
  facet normal 0.0313815 -0.999507 0
    outer loop
      vertex 0.6593 -10.4793 2
      vertex -0 -10.5 0
      vertex 0.6593 -10.4793 0
    endloop
  endfacet
  facet normal 0.0941437 -0.995559 0
    outer loop
      vertex 0.6593 -10.4793 0
      vertex 1.316 -10.4172 2
      vertex 0.6593 -10.4793 2
    endloop
  endfacet
  facet normal 0.0941437 -0.995559 0
    outer loop
      vertex 1.316 -10.4172 2
      vertex 0.6593 -10.4793 0
      vertex 1.316 -10.4172 0
    endloop
  endfacet
  facet normal 0.156453 -0.987685 0
    outer loop
      vertex 1.316 -10.4172 0
      vertex 1.9675 -10.314 2
      vertex 1.316 -10.4172 2
    endloop
  endfacet
  facet normal 0.156453 -0.987685 0
    outer loop
      vertex 1.9675 -10.314 2
      vertex 1.316 -10.4172 0
      vertex 1.9675 -10.314 0
    endloop
  endfacet
  facet normal 0.218153 -0.975914 0
    outer loop
      vertex 1.9675 -10.314 0
      vertex 2.61124 -10.1701 2
      vertex 1.9675 -10.314 2
    endloop
  endfacet
  facet normal 0.218153 -0.975914 0
    outer loop
      vertex 2.61124 -10.1701 2
      vertex 1.9675 -10.314 0
      vertex 2.61124 -10.1701 0
    endloop
  endfacet
  facet normal 0.278961 -0.960302 0
    outer loop
      vertex 2.61124 -10.1701 0
      vertex 3.24468 -9.98609 2
      vertex 2.61124 -10.1701 2
    endloop
  endfacet
  facet normal 0.278961 -0.960302 0
    outer loop
      vertex 3.24468 -9.98609 2
      vertex 2.61124 -10.1701 0
      vertex 3.24468 -9.98609 0
    endloop
  endfacet
  facet normal 0.338737 -0.940881 0
    outer loop
      vertex 3.24468 -9.98609 0
      vertex 3.86531 -9.76265 2
      vertex 3.24468 -9.98609 2
    endloop
  endfacet
  facet normal 0.338737 -0.940881 0
    outer loop
      vertex 3.86531 -9.76265 2
      vertex 3.24468 -9.98609 0
      vertex 3.86531 -9.76265 0
    endloop
  endfacet
  facet normal 0.397152 -0.917753 0
    outer loop
      vertex 3.86531 -9.76265 0
      vertex 4.47068 -9.50068 2
      vertex 3.86531 -9.76265 2
    endloop
  endfacet
  facet normal 0.397152 -0.917753 0
    outer loop
      vertex 4.47068 -9.50068 2
      vertex 3.86531 -9.76265 0
      vertex 4.47068 -9.50068 0
    endloop
  endfacet
  facet normal 0.453986 -0.891009 0
    outer loop
      vertex 4.47068 -9.50068 0
      vertex 5.05841 -9.20122 2
      vertex 4.47068 -9.50068 2
    endloop
  endfacet
  facet normal 0.453986 -0.891009 0
    outer loop
      vertex 5.05841 -9.20122 2
      vertex 4.47068 -9.50068 0
      vertex 5.05841 -9.20122 0
    endloop
  endfacet
  facet normal 0.509043 -0.860741 0
    outer loop
      vertex 5.05841 -9.20122 0
      vertex 5.62618 -8.86544 2
      vertex 5.05841 -9.20122 2
    endloop
  endfacet
  facet normal 0.509043 -0.860741 0
    outer loop
      vertex 5.62618 -8.86544 2
      vertex 5.05841 -9.20122 0
      vertex 5.62618 -8.86544 0
    endloop
  endfacet
  facet normal 0.562074 -0.827087 0
    outer loop
      vertex 5.62618 -8.86544 0
      vertex 6.17175 -8.49468 2
      vertex 5.62618 -8.86544 2
    endloop
  endfacet
  facet normal 0.562074 -0.827087 0
    outer loop
      vertex 6.17175 -8.49468 2
      vertex 5.62618 -8.86544 0
      vertex 6.17175 -8.49468 0
    endloop
  endfacet
  facet normal 0.612913 -0.790151 0
    outer loop
      vertex 6.17175 -8.49468 0
      vertex 6.69295 -8.09039 2
      vertex 6.17175 -8.49468 2
    endloop
  endfacet
  facet normal 0.612913 -0.790151 0
    outer loop
      vertex 6.69295 -8.09039 2
      vertex 6.17175 -8.49468 0
      vertex 6.69295 -8.09039 0
    endloop
  endfacet
  facet normal 0.661315 -0.750108 0
    outer loop
      vertex 6.69295 -8.09039 0
      vertex 7.18774 -7.65417 2
      vertex 6.69295 -8.09039 2
    endloop
  endfacet
  facet normal 0.661315 -0.750108 0
    outer loop
      vertex 7.18774 -7.65417 2
      vertex 6.69295 -8.09039 0
      vertex 7.18774 -7.65417 0
    endloop
  endfacet
  facet normal 0.707107 -0.707107 0
    outer loop
      vertex 7.18774 -7.65417 2
      vertex 7.65417 -7.18774 0
      vertex 7.65417 -7.18774 2
    endloop
  endfacet
  facet normal 0.707107 -0.707107 0
    outer loop
      vertex 7.65417 -7.18774 0
      vertex 7.18774 -7.65417 2
      vertex 7.18774 -7.65417 0
    endloop
  endfacet
  facet normal 0.750108 -0.661315 0
    outer loop
      vertex 7.65417 -7.18774 2
      vertex 8.09039 -6.69295 0
      vertex 8.09039 -6.69295 2
    endloop
  endfacet
  facet normal 0.750108 -0.661315 0
    outer loop
      vertex 8.09039 -6.69295 0
      vertex 7.65417 -7.18774 2
      vertex 7.65417 -7.18774 0
    endloop
  endfacet
  facet normal 0.790151 -0.612913 0
    outer loop
      vertex 8.09039 -6.69295 2
      vertex 8.49468 -6.17175 0
      vertex 8.49468 -6.17175 2
    endloop
  endfacet
  facet normal 0.790151 -0.612913 0
    outer loop
      vertex 8.49468 -6.17175 0
      vertex 8.09039 -6.69295 2
      vertex 8.09039 -6.69295 0
    endloop
  endfacet
  facet normal 0.827087 -0.562074 0
    outer loop
      vertex 8.49468 -6.17175 2
      vertex 8.86544 -5.62618 0
      vertex 8.86544 -5.62618 2
    endloop
  endfacet
  facet normal 0.827087 -0.562074 0
    outer loop
      vertex 8.86544 -5.62618 0
      vertex 8.49468 -6.17175 2
      vertex 8.49468 -6.17175 0
    endloop
  endfacet
  facet normal 0.860741 -0.509043 0
    outer loop
      vertex 8.86544 -5.62618 2
      vertex 9.20122 -5.05841 0
      vertex 9.20122 -5.05841 2
    endloop
  endfacet
  facet normal 0.860741 -0.509043 0
    outer loop
      vertex 9.20122 -5.05841 0
      vertex 8.86544 -5.62618 2
      vertex 8.86544 -5.62618 0
    endloop
  endfacet
  facet normal 0.891009 -0.453986 0
    outer loop
      vertex 9.20122 -5.05841 2
      vertex 9.50068 -4.47068 0
      vertex 9.50068 -4.47068 2
    endloop
  endfacet
  facet normal 0.891009 -0.453986 0
    outer loop
      vertex 9.50068 -4.47068 0
      vertex 9.20122 -5.05841 2
      vertex 9.20122 -5.05841 0
    endloop
  endfacet
  facet normal 0.917753 -0.397152 0
    outer loop
      vertex 9.50068 -4.47068 2
      vertex 9.76265 -3.86531 0
      vertex 9.76265 -3.86531 2
    endloop
  endfacet
  facet normal 0.917753 -0.397152 0
    outer loop
      vertex 9.76265 -3.86531 0
      vertex 9.50068 -4.47068 2
      vertex 9.50068 -4.47068 0
    endloop
  endfacet
  facet normal 0.940881 -0.338737 0
    outer loop
      vertex 9.76265 -3.86531 2
      vertex 9.98609 -3.24468 0
      vertex 9.98609 -3.24468 2
    endloop
  endfacet
  facet normal 0.940881 -0.338737 0
    outer loop
      vertex 9.98609 -3.24468 0
      vertex 9.76265 -3.86531 2
      vertex 9.76265 -3.86531 0
    endloop
  endfacet
  facet normal 0.960302 -0.278961 0
    outer loop
      vertex 9.98609 -3.24468 2
      vertex 10.1701 -2.61124 0
      vertex 10.1701 -2.61124 2
    endloop
  endfacet
  facet normal 0.960302 -0.278961 0
    outer loop
      vertex 10.1701 -2.61124 0
      vertex 9.98609 -3.24468 2
      vertex 9.98609 -3.24468 0
    endloop
  endfacet
  facet normal 0.975914 -0.218153 0
    outer loop
      vertex 10.1701 -2.61124 2
      vertex 10.314 -1.9675 0
      vertex 10.314 -1.9675 2
    endloop
  endfacet
  facet normal 0.975914 -0.218153 0
    outer loop
      vertex 10.314 -1.9675 0
      vertex 10.1701 -2.61124 2
      vertex 10.1701 -2.61124 0
    endloop
  endfacet
  facet normal 0.987685 -0.156453 0
    outer loop
      vertex 10.314 -1.9675 2
      vertex 10.4172 -1.316 0
      vertex 10.4172 -1.316 2
    endloop
  endfacet
  facet normal 0.987685 -0.156453 0
    outer loop
      vertex 10.4172 -1.316 0
      vertex 10.314 -1.9675 2
      vertex 10.314 -1.9675 0
    endloop
  endfacet
  facet normal 0.995559 -0.0941437 0
    outer loop
      vertex 10.4172 -1.316 2
      vertex 10.4793 -0.6593 0
      vertex 10.4793 -0.6593 2
    endloop
  endfacet
  facet normal 0.995559 -0.0941437 0
    outer loop
      vertex 10.4793 -0.6593 0
      vertex 10.4172 -1.316 2
      vertex 10.4172 -1.316 0
    endloop
  endfacet
  facet normal 0.999507 -0.0313815 0
    outer loop
      vertex 10.4793 -0.6593 2
      vertex 10.5 0 0
      vertex 10.5 0 2
    endloop
  endfacet
  facet normal 0.999507 -0.0313815 0
    outer loop
      vertex 10.5 0 0
      vertex 10.4793 -0.6593 2
      vertex 10.4793 -0.6593 0
    endloop
  endfacet
  facet normal 0 0 -1
    outer loop
      vertex 10.4793 -0.6593 0
      vertex 10.4793 0.6593 0
      vertex 10.5 0 0
    endloop
  endfacet
  facet normal 0 0 -1
    outer loop
      vertex 10.4172 -1.316 0
      vertex 10.4793 0.6593 0
      vertex 10.4793 -0.6593 0
    endloop
  endfacet
  facet normal 0 0 -1
    outer loop
      vertex 10.4172 -1.316 0
      vertex 10.4172 1.316 0
      vertex 10.4793 0.6593 0
    endloop
  endfacet
  facet normal 0 0 -1
    outer loop
      vertex 10.314 -1.9675 0
      vertex 10.4172 1.316 0
      vertex 10.4172 -1.316 0
    endloop
  endfacet
  facet normal 0 0 -1
    outer loop
      vertex 10.314 -1.9675 0
      vertex 10.314 1.9675 0
      vertex 10.4172 1.316 0
    endloop
  endfacet
  facet normal 0 0 -1
    outer loop
      vertex 10.1701 -2.61124 0
      vertex 10.314 1.9675 0
      vertex 10.314 -1.9675 0
    endloop
  endfacet
  facet normal 0 0 -1
    outer loop
      vertex 10.1701 -2.61124 0
      vertex 10.1701 2.61124 0
      vertex 10.314 1.9675 0
    endloop
  endfacet
  facet normal 0 0 -1
    outer loop
      vertex 9.98609 -3.24468 0
      vertex 10.1701 2.61124 0
      vertex 10.1701 -2.61124 0
    endloop
  endfacet
  facet normal 0 0 -1
    outer loop
      vertex 9.98609 -3.24468 0
      vertex 9.98609 3.24468 0
      vertex 10.1701 2.61124 0
    endloop
  endfacet
  facet normal 0 0 -1
    outer loop
      vertex 9.76265 -3.86531 0
      vertex 9.98609 3.24468 0
      vertex 9.98609 -3.24468 0
    endloop
  endfacet
  facet normal 0 0 -1
    outer loop
      vertex 9.76265 -3.86531 0
      vertex 9.76265 3.86531 0
      vertex 9.98609 3.24468 0
    endloop
  endfacet
  facet normal 0 0 -1
    outer loop
      vertex 9.50068 -4.47068 0
      vertex 9.76265 3.86531 0
      vertex 9.76265 -3.86531 0
    endloop
  endfacet
  facet normal 0 0 -1
    outer loop
      vertex 9.50068 -4.47068 0
      vertex 9.50068 4.47068 0
      vertex 9.76265 3.86531 0
    endloop
  endfacet
  facet normal 0 0 -1
    outer loop
      vertex 9.20122 -5.05841 0
      vertex 9.50068 4.47068 0
      vertex 9.50068 -4.47068 0
    endloop
  endfacet
  facet normal 0 0 -1
    outer loop
      vertex 9.20122 -5.05841 0
      vertex 9.20122 5.05841 0
      vertex 9.50068 4.47068 0
    endloop
  endfacet
  facet normal 0 0 -1
    outer loop
      vertex 8.86544 -5.62618 0
      vertex 9.20122 5.05841 0
      vertex 9.20122 -5.05841 0
    endloop
  endfacet
  facet normal 0 0 -1
    outer loop
      vertex 8.86544 -5.62618 0
      vertex 8.86544 5.62618 0
      vertex 9.20122 5.05841 0
    endloop
  endfacet
  facet normal 0 0 -1
    outer loop
      vertex 8.49468 -6.17175 0
      vertex 8.86544 5.62618 0
      vertex 8.86544 -5.62618 0
    endloop
  endfacet
  facet normal 0 0 -1
    outer loop
      vertex 8.49468 -6.17175 0
      vertex 8.49468 6.17175 0
      vertex 8.86544 5.62618 0
    endloop
  endfacet
  facet normal 0 0 -1
    outer loop
      vertex 8.09039 -6.69295 0
      vertex 8.49468 6.17175 0
      vertex 8.49468 -6.17175 0
    endloop
  endfacet
  facet normal 0 0 -1
    outer loop
      vertex 8.09039 -6.69295 0
      vertex 8.09039 6.69295 0
      vertex 8.49468 6.17175 0
    endloop
  endfacet
  facet normal 0 0 -1
    outer loop
      vertex 7.65417 -7.18774 0
      vertex 8.09039 6.69295 0
      vertex 8.09039 -6.69295 0
    endloop
  endfacet
  facet normal 0 0 -1
    outer loop
      vertex 7.65417 -7.18774 0
      vertex 7.65417 7.18774 0
      vertex 8.09039 6.69295 0
    endloop
  endfacet
  facet normal 0 0 -1
    outer loop
      vertex 7.18774 -7.65417 0
      vertex 7.65417 7.18774 0
      vertex 7.65417 -7.18774 0
    endloop
  endfacet
  facet normal 0 0 -1
    outer loop
      vertex 7.18774 -7.65417 0
      vertex 7.18774 7.65417 0
      vertex 7.65417 7.18774 0
    endloop
  endfacet
  facet normal 0 0 -1
    outer loop
      vertex 6.69295 -8.09039 0
      vertex 7.18774 7.65417 0
      vertex 7.18774 -7.65417 0
    endloop
  endfacet
  facet normal 0 0 -1
    outer loop
      vertex 6.69295 -8.09039 0
      vertex 6.69295 8.09039 0
      vertex 7.18774 7.65417 0
    endloop
  endfacet
  facet normal 0 0 -1
    outer loop
      vertex 6.17175 -8.49468 0
      vertex 6.69295 8.09039 0
      vertex 6.69295 -8.09039 0
    endloop
  endfacet
  facet normal 0 0 -1
    outer loop
      vertex 6.17175 -8.49468 0
      vertex 6.17175 8.49468 0
      vertex 6.69295 8.09039 0
    endloop
  endfacet
  facet normal 0 0 -1
    outer loop
      vertex 5.62618 -8.86544 0
      vertex 6.17175 8.49468 0
      vertex 6.17175 -8.49468 0
    endloop
  endfacet
  facet normal 0 0 -1
    outer loop
      vertex 5.62618 -8.86544 0
      vertex 5.62618 8.86544 0
      vertex 6.17175 8.49468 0
    endloop
  endfacet
  facet normal 0 0 -1
    outer loop
      vertex 5.05841 -9.20122 0
      vertex 5.62618 8.86544 0
      vertex 5.62618 -8.86544 0
    endloop
  endfacet
  facet normal 0 0 -1
    outer loop
      vertex 5.05841 -9.20122 0
      vertex 5.05841 9.20122 0
      vertex 5.62618 8.86544 0
    endloop
  endfacet
  facet normal 0 0 -1
    outer loop
      vertex 4.47068 -9.50068 0
      vertex 5.05841 9.20122 0
      vertex 5.05841 -9.20122 0
    endloop
  endfacet
  facet normal 0 0 -1
    outer loop
      vertex 4.47068 -9.50068 0
      vertex 4.47068 9.50068 0
      vertex 5.05841 9.20122 0
    endloop
  endfacet
  facet normal 0 0 -1
    outer loop
      vertex 3.86531 -9.76265 0
      vertex 4.47068 9.50068 0
      vertex 4.47068 -9.50068 0
    endloop
  endfacet
  facet normal 0 0 -1
    outer loop
      vertex 3.86531 -9.76265 0
      vertex 3.86531 9.76265 0
      vertex 4.47068 9.50068 0
    endloop
  endfacet
  facet normal 0 0 -1
    outer loop
      vertex 3.24468 -9.98609 0
      vertex 3.86531 9.76265 0
      vertex 3.86531 -9.76265 0
    endloop
  endfacet
  facet normal 0 0 -1
    outer loop
      vertex 3.24468 -9.98609 0
      vertex 3.24468 9.98609 0
      vertex 3.86531 9.76265 0
    endloop
  endfacet
  facet normal 0 0 -1
    outer loop
      vertex 2.61124 -10.1701 0
      vertex 3.24468 9.98609 0
      vertex 3.24468 -9.98609 0
    endloop
  endfacet
  facet normal 0 0 -1
    outer loop
      vertex 2.61124 -10.1701 0
      vertex 2.61124 10.1701 0
      vertex 3.24468 9.98609 0
    endloop
  endfacet
  facet normal 0 0 -1
    outer loop
      vertex 1.9675 -10.314 0
      vertex 2.61124 10.1701 0
      vertex 2.61124 -10.1701 0
    endloop
  endfacet
  facet normal 0 0 -1
    outer loop
      vertex 1.9675 -10.314 0
      vertex 1.9675 10.314 0
      vertex 2.61124 10.1701 0
    endloop
  endfacet
  facet normal 0 0 -1
    outer loop
      vertex 1.316 -10.4172 0
      vertex 1.9675 10.314 0
      vertex 1.9675 -10.314 0
    endloop
  endfacet
  facet normal 0 0 -1
    outer loop
      vertex 1.316 -10.4172 0
      vertex 1.316 10.4172 0
      vertex 1.9675 10.314 0
    endloop
  endfacet
  facet normal 0 0 -1
    outer loop
      vertex 0.6593 -10.4793 0
      vertex 1.316 10.4172 0
      vertex 1.316 -10.4172 0
    endloop
  endfacet
  facet normal 0 0 -1
    outer loop
      vertex 0.6593 -10.4793 0
      vertex 0.6593 10.4793 0
      vertex 1.316 10.4172 0
    endloop
  endfacet
  facet normal 0 0 -1
    outer loop
      vertex -0 -10.5 0
      vertex 0.6593 10.4793 0
      vertex 0.6593 -10.4793 0
    endloop
  endfacet
  facet normal 0 0 -1
    outer loop
      vertex -0 -10.5 0
      vertex 0 10.5 0
      vertex 0.6593 10.4793 0
    endloop
  endfacet
  facet normal 0 0 -1
    outer loop
      vertex -0.6593 -10.4793 0
      vertex 0 10.5 0
      vertex -0 -10.5 0
    endloop
  endfacet
  facet normal 0 0 -1
    outer loop
      vertex -0.6593 -10.4793 0
      vertex -0.6593 10.4793 0
      vertex 0 10.5 0
    endloop
  endfacet
  facet normal 0 0 -1
    outer loop
      vertex -1.316 -10.4172 0
      vertex -0.6593 10.4793 0
      vertex -0.6593 -10.4793 0
    endloop
  endfacet
  facet normal 0 0 -1
    outer loop
      vertex -1.316 -10.4172 0
      vertex -1.316 10.4172 0
      vertex -0.6593 10.4793 0
    endloop
  endfacet
  facet normal 0 0 -1
    outer loop
      vertex -1.9675 -10.314 0
      vertex -1.316 10.4172 0
      vertex -1.316 -10.4172 0
    endloop
  endfacet
  facet normal 0 0 -1
    outer loop
      vertex -1.9675 -10.314 0
      vertex -1.9675 10.314 0
      vertex -1.316 10.4172 0
    endloop
  endfacet
  facet normal 0 0 -1
    outer loop
      vertex -2.61124 -10.1701 0
      vertex -1.9675 10.314 0
      vertex -1.9675 -10.314 0
    endloop
  endfacet
  facet normal 0 0 -1
    outer loop
      vertex -2.61124 -10.1701 0
      vertex -2.61124 10.1701 0
      vertex -1.9675 10.314 0
    endloop
  endfacet
  facet normal 0 0 -1
    outer loop
      vertex -3.24468 -9.98609 0
      vertex -2.61124 10.1701 0
      vertex -2.61124 -10.1701 0
    endloop
  endfacet
  facet normal 0 0 -1
    outer loop
      vertex -3.24468 -9.98609 0
      vertex -3.24468 9.98609 0
      vertex -2.61124 10.1701 0
    endloop
  endfacet
  facet normal 0 0 -1
    outer loop
      vertex -3.86531 -9.76265 0
      vertex -3.24468 9.98609 0
      vertex -3.24468 -9.98609 0
    endloop
  endfacet
  facet normal 0 0 -1
    outer loop
      vertex -3.86531 -9.76265 0
      vertex -3.86531 9.76265 0
      vertex -3.24468 9.98609 0
    endloop
  endfacet
  facet normal 0 0 -1
    outer loop
      vertex -4.47068 -9.50068 0
      vertex -3.86531 9.76265 0
      vertex -3.86531 -9.76265 0
    endloop
  endfacet
  facet normal 0 0 -1
    outer loop
      vertex -4.47068 -9.50068 0
      vertex -4.47068 9.50068 0
      vertex -3.86531 9.76265 0
    endloop
  endfacet
  facet normal 0 0 -1
    outer loop
      vertex -5.05841 -9.20122 0
      vertex -4.47068 9.50068 0
      vertex -4.47068 -9.50068 0
    endloop
  endfacet
  facet normal 0 0 -1
    outer loop
      vertex -5.05841 -9.20122 0
      vertex -5.05841 9.20122 0
      vertex -4.47068 9.50068 0
    endloop
  endfacet
  facet normal 0 0 -1
    outer loop
      vertex -5.62618 -8.86544 0
      vertex -5.05841 9.20122 0
      vertex -5.05841 -9.20122 0
    endloop
  endfacet
  facet normal 0 0 -1
    outer loop
      vertex -5.62618 -8.86544 0
      vertex -5.62618 8.86544 0
      vertex -5.05841 9.20122 0
    endloop
  endfacet
  facet normal 0 0 -1
    outer loop
      vertex -6.17175 -8.49468 0
      vertex -5.62618 8.86544 0
      vertex -5.62618 -8.86544 0
    endloop
  endfacet
  facet normal 0 0 -1
    outer loop
      vertex -6.17175 -8.49468 0
      vertex -6.17175 8.49468 0
      vertex -5.62618 8.86544 0
    endloop
  endfacet
  facet normal 0 0 -1
    outer loop
      vertex -6.69295 -8.09039 0
      vertex -6.17175 8.49468 0
      vertex -6.17175 -8.49468 0
    endloop
  endfacet
  facet normal 0 0 -1
    outer loop
      vertex -6.69295 -8.09039 0
      vertex -6.69295 8.09039 0
      vertex -6.17175 8.49468 0
    endloop
  endfacet
  facet normal 0 0 -1
    outer loop
      vertex -7.18774 -7.65417 0
      vertex -6.69295 8.09039 0
      vertex -6.69295 -8.09039 0
    endloop
  endfacet
  facet normal 0 0 -1
    outer loop
      vertex -7.18774 -7.65417 0
      vertex -7.18774 7.65417 0
      vertex -6.69295 8.09039 0
    endloop
  endfacet
  facet normal 0 0 -1
    outer loop
      vertex -7.65417 -7.18774 0
      vertex -7.18774 7.65417 0
      vertex -7.18774 -7.65417 0
    endloop
  endfacet
  facet normal 0 0 -1
    outer loop
      vertex -7.65417 -7.18774 0
      vertex -7.65417 7.18774 0
      vertex -7.18774 7.65417 0
    endloop
  endfacet
  facet normal 0 0 -1
    outer loop
      vertex -8.09039 -6.69295 0
      vertex -7.65417 7.18774 0
      vertex -7.65417 -7.18774 0
    endloop
  endfacet
  facet normal 0 0 -1
    outer loop
      vertex -8.09039 -6.69295 0
      vertex -8.09039 6.69295 0
      vertex -7.65417 7.18774 0
    endloop
  endfacet
  facet normal 0 0 -1
    outer loop
      vertex -8.49468 -6.17175 0
      vertex -8.09039 6.69295 0
      vertex -8.09039 -6.69295 0
    endloop
  endfacet
  facet normal 0 0 -1
    outer loop
      vertex -8.49468 -6.17175 0
      vertex -8.49468 6.17175 0
      vertex -8.09039 6.69295 0
    endloop
  endfacet
  facet normal 0 0 -1
    outer loop
      vertex -8.86544 -5.62618 0
      vertex -8.49468 6.17175 0
      vertex -8.49468 -6.17175 0
    endloop
  endfacet
  facet normal 0 0 -1
    outer loop
      vertex -8.86544 -5.62618 0
      vertex -8.86544 5.62618 0
      vertex -8.49468 6.17175 0
    endloop
  endfacet
  facet normal 0 0 -1
    outer loop
      vertex -9.20122 -5.05841 0
      vertex -8.86544 5.62618 0
      vertex -8.86544 -5.62618 0
    endloop
  endfacet
  facet normal 0 0 -1
    outer loop
      vertex -9.20122 -5.05841 0
      vertex -9.20122 5.05841 0
      vertex -8.86544 5.62618 0
    endloop
  endfacet
  facet normal 0 0 -1
    outer loop
      vertex -9.50068 -4.47068 0
      vertex -9.20122 5.05841 0
      vertex -9.20122 -5.05841 0
    endloop
  endfacet
  facet normal 0 0 -1
    outer loop
      vertex -9.50068 -4.47068 0
      vertex -9.50068 4.47068 0
      vertex -9.20122 5.05841 0
    endloop
  endfacet
  facet normal 0 0 -1
    outer loop
      vertex -9.76265 -3.86531 0
      vertex -9.50068 4.47068 0
      vertex -9.50068 -4.47068 0
    endloop
  endfacet
  facet normal 0 0 -1
    outer loop
      vertex -9.76265 -3.86531 0
      vertex -9.76265 3.86531 0
      vertex -9.50068 4.47068 0
    endloop
  endfacet
  facet normal 0 0 -1
    outer loop
      vertex -9.98609 -3.24468 0
      vertex -9.76265 3.86531 0
      vertex -9.76265 -3.86531 0
    endloop
  endfacet
  facet normal 0 0 -1
    outer loop
      vertex -9.98609 -3.24468 0
      vertex -9.98609 3.24468 0
      vertex -9.76265 3.86531 0
    endloop
  endfacet
  facet normal 0 0 -1
    outer loop
      vertex -10.1701 -2.61124 0
      vertex -9.98609 3.24468 0
      vertex -9.98609 -3.24468 0
    endloop
  endfacet
  facet normal 0 0 -1
    outer loop
      vertex -10.1701 -2.61124 0
      vertex -10.1701 2.61124 0
      vertex -9.98609 3.24468 0
    endloop
  endfacet
  facet normal 0 0 -1
    outer loop
      vertex -10.314 -1.9675 0
      vertex -10.1701 2.61124 0
      vertex -10.1701 -2.61124 0
    endloop
  endfacet
  facet normal 0 0 -1
    outer loop
      vertex -10.314 -1.9675 0
      vertex -10.314 1.9675 0
      vertex -10.1701 2.61124 0
    endloop
  endfacet
  facet normal 0 0 -1
    outer loop
      vertex -10.4172 -1.316 0
      vertex -10.314 1.9675 0
      vertex -10.314 -1.9675 0
    endloop
  endfacet
  facet normal 0 0 -1
    outer loop
      vertex -10.4172 -1.316 0
      vertex -10.4172 1.316 0
      vertex -10.314 1.9675 0
    endloop
  endfacet
  facet normal 0 0 -1
    outer loop
      vertex -10.4793 -0.6593 0
      vertex -10.4172 1.316 0
      vertex -10.4172 -1.316 0
    endloop
  endfacet
  facet normal 0 0 -1
    outer loop
      vertex -10.4793 -0.6593 0
      vertex -10.4793 0.6593 0
      vertex -10.4172 1.316 0
    endloop
  endfacet
  facet normal 0 -0 -1
    outer loop
      vertex -10.4793 0.6593 0
      vertex -10.4793 -0.6593 0
      vertex -10.5 -0 0
    endloop
  endfacet
  facet normal 0 0 1
    outer loop
      vertex 10.4793 0.6593 2
      vertex 10.4793 -0.6593 2
      vertex 10.5 0 2
    endloop
  endfacet
  facet normal 0 0 1
    outer loop
      vertex 10.4172 1.316 2
      vertex 10.4793 -0.6593 2
      vertex 10.4793 0.6593 2
    endloop
  endfacet
  facet normal 0 0 1
    outer loop
      vertex 10.4172 1.316 2
      vertex 10.4172 -1.316 2
      vertex 10.4793 -0.6593 2
    endloop
  endfacet
  facet normal 0 0 1
    outer loop
      vertex 10.314 1.9675 2
      vertex 10.4172 -1.316 2
      vertex 10.4172 1.316 2
    endloop
  endfacet
  facet normal 0 0 1
    outer loop
      vertex 10.314 1.9675 2
      vertex 10.314 -1.9675 2
      vertex 10.4172 -1.316 2
    endloop
  endfacet
  facet normal 0 0 1
    outer loop
      vertex 10.1701 2.61124 2
      vertex 10.314 -1.9675 2
      vertex 10.314 1.9675 2
    endloop
  endfacet
  facet normal 0 0 1
    outer loop
      vertex 10.1701 2.61124 2
      vertex 10.1701 -2.61124 2
      vertex 10.314 -1.9675 2
    endloop
  endfacet
  facet normal 0 0 1
    outer loop
      vertex 9.98609 3.24468 2
      vertex 10.1701 -2.61124 2
      vertex 10.1701 2.61124 2
    endloop
  endfacet
  facet normal 0 0 1
    outer loop
      vertex 9.98609 3.24468 2
      vertex 9.98609 -3.24468 2
      vertex 10.1701 -2.61124 2
    endloop
  endfacet
  facet normal 0 0 1
    outer loop
      vertex 9.76265 3.86531 2
      vertex 9.98609 -3.24468 2
      vertex 9.98609 3.24468 2
    endloop
  endfacet
  facet normal 0 0 1
    outer loop
      vertex 9.76265 3.86531 2
      vertex 9.76265 -3.86531 2
      vertex 9.98609 -3.24468 2
    endloop
  endfacet
  facet normal 0 0 1
    outer loop
      vertex 9.50068 4.47068 2
      vertex 9.76265 -3.86531 2
      vertex 9.76265 3.86531 2
    endloop
  endfacet
  facet normal 0 0 1
    outer loop
      vertex 9.50068 4.47068 2
      vertex 9.50068 -4.47068 2
      vertex 9.76265 -3.86531 2
    endloop
  endfacet
  facet normal 0 0 1
    outer loop
      vertex 9.20122 5.05841 2
      vertex 9.50068 -4.47068 2
      vertex 9.50068 4.47068 2
    endloop
  endfacet
  facet normal 0 0 1
    outer loop
      vertex 9.20122 5.05841 2
      vertex 9.20122 -5.05841 2
      vertex 9.50068 -4.47068 2
    endloop
  endfacet
  facet normal 0 0 1
    outer loop
      vertex 8.86544 5.62618 2
      vertex 9.20122 -5.05841 2
      vertex 9.20122 5.05841 2
    endloop
  endfacet
  facet normal 0 0 1
    outer loop
      vertex 8.86544 5.62618 2
      vertex 8.86544 -5.62618 2
      vertex 9.20122 -5.05841 2
    endloop
  endfacet
  facet normal 0 0 1
    outer loop
      vertex 8.49468 6.17175 2
      vertex 8.86544 -5.62618 2
      vertex 8.86544 5.62618 2
    endloop
  endfacet
  facet normal 0 0 1
    outer loop
      vertex 8.49468 6.17175 2
      vertex 8.49468 -6.17175 2
      vertex 8.86544 -5.62618 2
    endloop
  endfacet
  facet normal 0 0 1
    outer loop
      vertex 8.09039 6.69295 2
      vertex 8.49468 -6.17175 2
      vertex 8.49468 6.17175 2
    endloop
  endfacet
  facet normal 0 0 1
    outer loop
      vertex 8.09039 6.69295 2
      vertex 8.09039 -6.69295 2
      vertex 8.49468 -6.17175 2
    endloop
  endfacet
  facet normal 0 0 1
    outer loop
      vertex 7.65417 7.18774 2
      vertex 8.09039 -6.69295 2
      vertex 8.09039 6.69295 2
    endloop
  endfacet
  facet normal 0 0 1
    outer loop
      vertex 7.65417 7.18774 2
      vertex 7.65417 -7.18774 2
      vertex 8.09039 -6.69295 2
    endloop
  endfacet
  facet normal 0 0 1
    outer loop
      vertex 7.18774 7.65417 2
      vertex 7.65417 -7.18774 2
      vertex 7.65417 7.18774 2
    endloop
  endfacet
  facet normal 0 0 1
    outer loop
      vertex 7.18774 7.65417 2
      vertex 7.18774 -7.65417 2
      vertex 7.65417 -7.18774 2
    endloop
  endfacet
  facet normal 0 0 1
    outer loop
      vertex 6.69295 8.09039 2
      vertex 7.18774 -7.65417 2
      vertex 7.18774 7.65417 2
    endloop
  endfacet
  facet normal 0 0 1
    outer loop
      vertex 6.69295 8.09039 2
      vertex 6.69295 -8.09039 2
      vertex 7.18774 -7.65417 2
    endloop
  endfacet
  facet normal 0 0 1
    outer loop
      vertex 6.17175 8.49468 2
      vertex 6.69295 -8.09039 2
      vertex 6.69295 8.09039 2
    endloop
  endfacet
  facet normal 0 0 1
    outer loop
      vertex 6.17175 8.49468 2
      vertex 6.17175 -8.49468 2
      vertex 6.69295 -8.09039 2
    endloop
  endfacet
  facet normal 0 0 1
    outer loop
      vertex 5.62618 8.86544 2
      vertex 6.17175 -8.49468 2
      vertex 6.17175 8.49468 2
    endloop
  endfacet
  facet normal 0 0 1
    outer loop
      vertex 5.62618 8.86544 2
      vertex 5.62618 -8.86544 2
      vertex 6.17175 -8.49468 2
    endloop
  endfacet
  facet normal 0 0 1
    outer loop
      vertex 5.05841 9.20122 2
      vertex 5.62618 -8.86544 2
      vertex 5.62618 8.86544 2
    endloop
  endfacet
  facet normal 0 0 1
    outer loop
      vertex 5.05841 9.20122 2
      vertex 5.05841 -9.20122 2
      vertex 5.62618 -8.86544 2
    endloop
  endfacet
  facet normal 0 0 1
    outer loop
      vertex 4.47068 9.50068 2
      vertex 5.05841 -9.20122 2
      vertex 5.05841 9.20122 2
    endloop
  endfacet
  facet normal 0 0 1
    outer loop
      vertex 4.47068 9.50068 2
      vertex 4.47068 -9.50068 2
      vertex 5.05841 -9.20122 2
    endloop
  endfacet
  facet normal 0 0 1
    outer loop
      vertex 3.86531 9.76265 2
      vertex 4.47068 -9.50068 2
      vertex 4.47068 9.50068 2
    endloop
  endfacet
  facet normal 0 0 1
    outer loop
      vertex 3.86531 9.76265 2
      vertex 3.86531 -9.76265 2
      vertex 4.47068 -9.50068 2
    endloop
  endfacet
  facet normal 0 0 1
    outer loop
      vertex 3.24468 9.98609 2
      vertex 3.86531 -9.76265 2
      vertex 3.86531 9.76265 2
    endloop
  endfacet
  facet normal 0 0 1
    outer loop
      vertex 3.24468 9.98609 2
      vertex 3.24468 -9.98609 2
      vertex 3.86531 -9.76265 2
    endloop
  endfacet
  facet normal 0 0 1
    outer loop
      vertex 2.61124 10.1701 2
      vertex 3.24468 -9.98609 2
      vertex 3.24468 9.98609 2
    endloop
  endfacet
  facet normal 0 0 1
    outer loop
      vertex 2.61124 10.1701 2
      vertex 2.61124 -10.1701 2
      vertex 3.24468 -9.98609 2
    endloop
  endfacet
  facet normal 0 0 1
    outer loop
      vertex 1.9675 10.314 2
      vertex 2.61124 -10.1701 2
      vertex 2.61124 10.1701 2
    endloop
  endfacet
  facet normal 0 0 1
    outer loop
      vertex 1.9675 10.314 2
      vertex 1.9675 -10.314 2
      vertex 2.61124 -10.1701 2
    endloop
  endfacet
  facet normal 0 0 1
    outer loop
      vertex 1.316 10.4172 2
      vertex 1.9675 -10.314 2
      vertex 1.9675 10.314 2
    endloop
  endfacet
  facet normal 0 0 1
    outer loop
      vertex 1.316 10.4172 2
      vertex 1.316 -10.4172 2
      vertex 1.9675 -10.314 2
    endloop
  endfacet
  facet normal 0 0 1
    outer loop
      vertex 0.6593 10.4793 2
      vertex 1.316 -10.4172 2
      vertex 1.316 10.4172 2
    endloop
  endfacet
  facet normal 0 0 1
    outer loop
      vertex 0.6593 10.4793 2
      vertex 0.6593 -10.4793 2
      vertex 1.316 -10.4172 2
    endloop
  endfacet
  facet normal 0 0 1
    outer loop
      vertex 0 10.5 2
      vertex 0.6593 -10.4793 2
      vertex 0.6593 10.4793 2
    endloop
  endfacet
  facet normal 0 0 1
    outer loop
      vertex 0 10.5 2
      vertex -0 -10.5 2
      vertex 0.6593 -10.4793 2
    endloop
  endfacet
  facet normal -0 0 1
    outer loop
      vertex -0.6593 10.4793 2
      vertex -0 -10.5 2
      vertex 0 10.5 2
    endloop
  endfacet
  facet normal 0 0 1
    outer loop
      vertex -0.6593 10.4793 2
      vertex -0.6593 -10.4793 2
      vertex -0 -10.5 2
    endloop
  endfacet
  facet normal -0 0 1
    outer loop
      vertex -1.316 10.4172 2
      vertex -0.6593 -10.4793 2
      vertex -0.6593 10.4793 2
    endloop
  endfacet
  facet normal 0 0 1
    outer loop
      vertex -1.316 10.4172 2
      vertex -1.316 -10.4172 2
      vertex -0.6593 -10.4793 2
    endloop
  endfacet
  facet normal -0 0 1
    outer loop
      vertex -1.9675 10.314 2
      vertex -1.316 -10.4172 2
      vertex -1.316 10.4172 2
    endloop
  endfacet
  facet normal 0 0 1
    outer loop
      vertex -1.9675 10.314 2
      vertex -1.9675 -10.314 2
      vertex -1.316 -10.4172 2
    endloop
  endfacet
  facet normal -0 0 1
    outer loop
      vertex -2.61124 10.1701 2
      vertex -1.9675 -10.314 2
      vertex -1.9675 10.314 2
    endloop
  endfacet
  facet normal 0 0 1
    outer loop
      vertex -2.61124 10.1701 2
      vertex -2.61124 -10.1701 2
      vertex -1.9675 -10.314 2
    endloop
  endfacet
  facet normal -0 0 1
    outer loop
      vertex -3.24468 9.98609 2
      vertex -2.61124 -10.1701 2
      vertex -2.61124 10.1701 2
    endloop
  endfacet
  facet normal 0 0 1
    outer loop
      vertex -3.24468 9.98609 2
      vertex -3.24468 -9.98609 2
      vertex -2.61124 -10.1701 2
    endloop
  endfacet
  facet normal -0 0 1
    outer loop
      vertex -3.86531 9.76265 2
      vertex -3.24468 -9.98609 2
      vertex -3.24468 9.98609 2
    endloop
  endfacet
  facet normal 0 0 1
    outer loop
      vertex -3.86531 9.76265 2
      vertex -3.86531 -9.76265 2
      vertex -3.24468 -9.98609 2
    endloop
  endfacet
  facet normal -0 0 1
    outer loop
      vertex -4.47068 9.50068 2
      vertex -3.86531 -9.76265 2
      vertex -3.86531 9.76265 2
    endloop
  endfacet
  facet normal 0 0 1
    outer loop
      vertex -4.47068 9.50068 2
      vertex -4.47068 -9.50068 2
      vertex -3.86531 -9.76265 2
    endloop
  endfacet
  facet normal -0 0 1
    outer loop
      vertex -5.05841 9.20122 2
      vertex -4.47068 -9.50068 2
      vertex -4.47068 9.50068 2
    endloop
  endfacet
  facet normal 0 0 1
    outer loop
      vertex -5.05841 9.20122 2
      vertex -5.05841 -9.20122 2
      vertex -4.47068 -9.50068 2
    endloop
  endfacet
  facet normal -0 0 1
    outer loop
      vertex -5.62618 8.86544 2
      vertex -5.05841 -9.20122 2
      vertex -5.05841 9.20122 2
    endloop
  endfacet
  facet normal 0 0 1
    outer loop
      vertex -5.62618 8.86544 2
      vertex -5.62618 -8.86544 2
      vertex -5.05841 -9.20122 2
    endloop
  endfacet
  facet normal -0 0 1
    outer loop
      vertex -6.17175 8.49468 2
      vertex -5.62618 -8.86544 2
      vertex -5.62618 8.86544 2
    endloop
  endfacet
  facet normal 0 0 1
    outer loop
      vertex -6.17175 8.49468 2
      vertex -6.17175 -8.49468 2
      vertex -5.62618 -8.86544 2
    endloop
  endfacet
  facet normal -0 0 1
    outer loop
      vertex -6.69295 8.09039 2
      vertex -6.17175 -8.49468 2
      vertex -6.17175 8.49468 2
    endloop
  endfacet
  facet normal 0 0 1
    outer loop
      vertex -6.69295 8.09039 2
      vertex -6.69295 -8.09039 2
      vertex -6.17175 -8.49468 2
    endloop
  endfacet
  facet normal -0 0 1
    outer loop
      vertex -7.18774 7.65417 2
      vertex -6.69295 -8.09039 2
      vertex -6.69295 8.09039 2
    endloop
  endfacet
  facet normal 0 0 1
    outer loop
      vertex -7.18774 7.65417 2
      vertex -7.18774 -7.65417 2
      vertex -6.69295 -8.09039 2
    endloop
  endfacet
  facet normal -0 0 1
    outer loop
      vertex -7.65417 7.18774 2
      vertex -7.18774 -7.65417 2
      vertex -7.18774 7.65417 2
    endloop
  endfacet
  facet normal 0 0 1
    outer loop
      vertex -7.65417 7.18774 2
      vertex -7.65417 -7.18774 2
      vertex -7.18774 -7.65417 2
    endloop
  endfacet
  facet normal -0 0 1
    outer loop
      vertex -8.09039 6.69295 2
      vertex -7.65417 -7.18774 2
      vertex -7.65417 7.18774 2
    endloop
  endfacet
  facet normal 0 0 1
    outer loop
      vertex -8.09039 6.69295 2
      vertex -8.09039 -6.69295 2
      vertex -7.65417 -7.18774 2
    endloop
  endfacet
  facet normal -0 0 1
    outer loop
      vertex -8.49468 6.17175 2
      vertex -8.09039 -6.69295 2
      vertex -8.09039 6.69295 2
    endloop
  endfacet
  facet normal 0 0 1
    outer loop
      vertex -8.49468 6.17175 2
      vertex -8.49468 -6.17175 2
      vertex -8.09039 -6.69295 2
    endloop
  endfacet
  facet normal -0 0 1
    outer loop
      vertex -8.86544 5.62618 2
      vertex -8.49468 -6.17175 2
      vertex -8.49468 6.17175 2
    endloop
  endfacet
  facet normal 0 0 1
    outer loop
      vertex -8.86544 5.62618 2
      vertex -8.86544 -5.62618 2
      vertex -8.49468 -6.17175 2
    endloop
  endfacet
  facet normal -0 0 1
    outer loop
      vertex -9.20122 5.05841 2
      vertex -8.86544 -5.62618 2
      vertex -8.86544 5.62618 2
    endloop
  endfacet
  facet normal 0 0 1
    outer loop
      vertex -9.20122 5.05841 2
      vertex -9.20122 -5.05841 2
      vertex -8.86544 -5.62618 2
    endloop
  endfacet
  facet normal -0 0 1
    outer loop
      vertex -9.50068 4.47068 2
      vertex -9.20122 -5.05841 2
      vertex -9.20122 5.05841 2
    endloop
  endfacet
  facet normal 0 0 1
    outer loop
      vertex -9.50068 4.47068 2
      vertex -9.50068 -4.47068 2
      vertex -9.20122 -5.05841 2
    endloop
  endfacet
  facet normal -0 0 1
    outer loop
      vertex -9.76265 3.86531 2
      vertex -9.50068 -4.47068 2
      vertex -9.50068 4.47068 2
    endloop
  endfacet
  facet normal 0 0 1
    outer loop
      vertex -9.76265 3.86531 2
      vertex -9.76265 -3.86531 2
      vertex -9.50068 -4.47068 2
    endloop
  endfacet
  facet normal -0 0 1
    outer loop
      vertex -9.98609 3.24468 2
      vertex -9.76265 -3.86531 2
      vertex -9.76265 3.86531 2
    endloop
  endfacet
  facet normal 0 0 1
    outer loop
      vertex -9.98609 3.24468 2
      vertex -9.98609 -3.24468 2
      vertex -9.76265 -3.86531 2
    endloop
  endfacet
  facet normal -0 0 1
    outer loop
      vertex -10.1701 2.61124 2
      vertex -9.98609 -3.24468 2
      vertex -9.98609 3.24468 2
    endloop
  endfacet
  facet normal 0 0 1
    outer loop
      vertex -10.1701 2.61124 2
      vertex -10.1701 -2.61124 2
      vertex -9.98609 -3.24468 2
    endloop
  endfacet
  facet normal -0 0 1
    outer loop
      vertex -10.314 1.9675 2
      vertex -10.1701 -2.61124 2
      vertex -10.1701 2.61124 2
    endloop
  endfacet
  facet normal 0 0 1
    outer loop
      vertex -10.314 1.9675 2
      vertex -10.314 -1.9675 2
      vertex -10.1701 -2.61124 2
    endloop
  endfacet
  facet normal -0 0 1
    outer loop
      vertex -10.4172 1.316 2
      vertex -10.314 -1.9675 2
      vertex -10.314 1.9675 2
    endloop
  endfacet
  facet normal 0 0 1
    outer loop
      vertex -10.4172 1.316 2
      vertex -10.4172 -1.316 2
      vertex -10.314 -1.9675 2
    endloop
  endfacet
  facet normal -0 0 1
    outer loop
      vertex -10.4793 0.6593 2
      vertex -10.4172 -1.316 2
      vertex -10.4172 1.316 2
    endloop
  endfacet
  facet normal 0 0 1
    outer loop
      vertex -10.4793 0.6593 2
      vertex -10.4793 -0.6593 2
      vertex -10.4172 -1.316 2
    endloop
  endfacet
  facet normal 0 -0 1
    outer loop
      vertex -10.4793 -0.6593 2
      vertex -10.4793 0.6593 2
      vertex -10.5 -0 2
    endloop
  endfacet
endsolid OpenSCAD_Model
