  0
SECTION
  2
BLOCKS
  0
ENDSEC
  0
SECTION
  2
ENTITIES
  0
LINE
  8
0
 10
300
 20
186
 11
0
 21
186
  0
LINE
  8
0
 10
0
 20
186
 11
0
 21
126
  0
LINE
  8
0
 10
0
 20
126
 11
300
 21
126
  0
LINE
  8
0
 10
300
 20
126
 11
300
 21
186
  0
LINE
  8
0
 10
4.89325
 20
179.303
 11
4.78693
 21
179.313
  0
LINE
  8
0
 10
4.78693
 20
179.313
 11
4.68144
 21
179.33
  0
LINE
  8
0
 10
4.68144
 20
179.33
 11
4.57722
 21
179.353
  0
LINE
  8
0
 10
4.57722
 20
179.353
 11
4.47467
 21
179.383
  0
LINE
  8
0
 10
4.47467
 20
179.383
 11
4.37418
 21
179.419
  0
LINE
  8
0
 10
4.37418
 20
179.419
 11
4.27617
 21
179.462
  0
LINE
  8
0
 10
4.27617
 20
179.462
 11
4.18102
 21
179.51
  0
LINE
  8
0
 10
4.18102
 20
179.51
 11
4.08908
 21
179.565
  0
LINE
  8
0
 10
4.08908
 20
179.565
 11
4.00076
 21
179.625
  0
LINE
  8
0
 10
4.00076
 20
179.625
 11
3.91637
 21
179.69
  0
LINE
  8
0
 10
3.91637
 20
179.69
 11
3.83626
 21
179.761
  0
LINE
  8
0
 10
3.83626
 20
179.761
 11
3.76074
 21
179.836
  0
LINE
  8
0
 10
3.76074
 20
179.836
 11
3.69012
 21
179.916
  0
LINE
  8
0
 10
3.69012
 20
179.916
 11
3.62466
 21
180.001
  0
LINE
  8
0
 10
3.62466
 20
180.001
 11
3.56464
 21
180.089
  0
LINE
  8
0
 10
3.56464
 20
180.089
 11
3.51027
 21
180.181
  0
LINE
  8
0
 10
3.51027
 20
180.181
 11
3.46179
 21
180.276
  0
LINE
  8
0
 10
3.46179
 20
180.276
 11
3.41937
 21
180.374
  0
LINE
  8
0
 10
3.41937
 20
180.374
 11
3.38319
 21
180.475
  0
LINE
  8
0
 10
3.38319
 20
180.475
 11
3.35339
 21
180.577
  0
LINE
  8
0
 10
3.35339
 20
180.577
 11
3.33011
 21
180.681
  0
LINE
  8
0
 10
3.33011
 20
180.681
 11
3.3134
 21
180.787
  0
LINE
  8
0
 10
3.3134
 20
180.787
 11
3.30334
 21
180.893
  0
LINE
  8
0
 10
3.30334
 20
180.893
 11
3.29999
 21
181
  0
LINE
  8
0
 10
3.29999
 20
181
 11
3.30334
 21
181.107
  0
LINE
  8
0
 10
3.30334
 20
181.107
 11
3.3134
 21
181.213
  0
LINE
  8
0
 10
3.3134
 20
181.213
 11
3.33011
 21
181.319
  0
LINE
  8
0
 10
3.33011
 20
181.319
 11
3.35339
 21
181.423
  0
LINE
  8
0
 10
3.35339
 20
181.423
 11
3.38319
 21
181.525
  0
LINE
  8
0
 10
3.38319
 20
181.525
 11
3.41937
 21
181.626
  0
LINE
  8
0
 10
3.41937
 20
181.626
 11
3.46179
 21
181.724
  0
LINE
  8
0
 10
3.46179
 20
181.724
 11
3.51027
 21
181.819
  0
LINE
  8
0
 10
3.51027
 20
181.819
 11
3.56464
 21
181.911
  0
LINE
  8
0
 10
3.56464
 20
181.911
 11
3.62466
 21
181.999
  0
LINE
  8
0
 10
3.62466
 20
181.999
 11
3.69012
 21
182.084
  0
LINE
  8
0
 10
3.69012
 20
182.084
 11
3.76074
 21
182.164
  0
LINE
  8
0
 10
3.76074
 20
182.164
 11
3.83626
 21
182.239
  0
LINE
  8
0
 10
3.83626
 20
182.239
 11
3.91637
 21
182.31
  0
LINE
  8
0
 10
3.91637
 20
182.31
 11
4.00076
 21
182.375
  0
LINE
  8
0
 10
4.00076
 20
182.375
 11
4.08908
 21
182.435
  0
LINE
  8
0
 10
4.08908
 20
182.435
 11
4.18102
 21
182.49
  0
LINE
  8
0
 10
4.18102
 20
182.49
 11
4.27617
 21
182.538
  0
LINE
  8
0
 10
4.27617
 20
182.538
 11
4.37418
 21
182.581
  0
LINE
  8
0
 10
4.37418
 20
182.581
 11
4.47467
 21
182.617
  0
LINE
  8
0
 10
4.47467
 20
182.617
 11
4.57722
 21
182.647
  0
LINE
  8
0
 10
4.57722
 20
182.647
 11
4.68144
 21
182.67
  0
LINE
  8
0
 10
4.68144
 20
182.67
 11
4.78693
 21
182.687
  0
LINE
  8
0
 10
4.78693
 20
182.687
 11
4.89325
 21
182.697
  0
LINE
  8
0
 10
4.89325
 20
182.697
 11
5
 21
182.7
  0
LINE
  8
0
 10
5
 20
182.7
 11
5.10674
 21
182.697
  0
LINE
  8
0
 10
5.10674
 20
182.697
 11
5.21306
 21
182.687
  0
LINE
  8
0
 10
5.21306
 20
182.687
 11
5.31854
 21
182.67
  0
LINE
  8
0
 10
5.31854
 20
182.67
 11
5.42276
 21
182.647
  0
LINE
  8
0
 10
5.42276
 20
182.647
 11
5.52531
 21
182.617
  0
LINE
  8
0
 10
5.52531
 20
182.617
 11
5.62581
 21
182.581
  0
LINE
  8
0
 10
5.62581
 20
182.581
 11
5.72382
 21
182.538
  0
LINE
  8
0
 10
5.72382
 20
182.538
 11
5.81897
 21
182.49
  0
LINE
  8
0
 10
5.81897
 20
182.49
 11
5.9109
 21
182.435
  0
LINE
  8
0
 10
5.9109
 20
182.435
 11
5.99922
 21
182.375
  0
LINE
  8
0
 10
5.99922
 20
182.375
 11
6.08362
 21
182.31
  0
LINE
  8
0
 10
6.08362
 20
182.31
 11
6.16373
 21
182.239
  0
LINE
  8
0
 10
6.16373
 20
182.239
 11
6.23924
 21
182.164
  0
LINE
  8
0
 10
6.23924
 20
182.164
 11
6.30986
 21
182.084
  0
LINE
  8
0
 10
6.30986
 20
182.084
 11
6.37532
 21
181.999
  0
LINE
  8
0
 10
6.37532
 20
181.999
 11
6.43535
 21
181.911
  0
LINE
  8
0
 10
6.43535
 20
181.911
 11
6.48972
 21
181.819
  0
LINE
  8
0
 10
6.48972
 20
181.819
 11
6.53819
 21
181.724
  0
LINE
  8
0
 10
6.53819
 20
181.724
 11
6.58061
 21
181.626
  0
LINE
  8
0
 10
6.58061
 20
181.626
 11
6.61679
 21
181.525
  0
LINE
  8
0
 10
6.61679
 20
181.525
 11
6.64659
 21
181.423
  0
LINE
  8
0
 10
6.64659
 20
181.423
 11
6.66988
 21
181.319
  0
LINE
  8
0
 10
6.66988
 20
181.319
 11
6.68658
 21
181.213
  0
LINE
  8
0
 10
6.68658
 20
181.213
 11
6.69664
 21
181.107
  0
LINE
  8
0
 10
6.69664
 20
181.107
 11
6.7
 21
181
  0
LINE
  8
0
 10
6.7
 20
181
 11
6.69664
 21
180.893
  0
LINE
  8
0
 10
6.69664
 20
180.893
 11
6.68658
 21
180.787
  0
LINE
  8
0
 10
6.68658
 20
180.787
 11
6.66988
 21
180.681
  0
LINE
  8
0
 10
6.66988
 20
180.681
 11
6.64659
 21
180.577
  0
LINE
  8
0
 10
6.64659
 20
180.577
 11
6.61679
 21
180.475
  0
LINE
  8
0
 10
6.61679
 20
180.475
 11
6.58061
 21
180.374
  0
LINE
  8
0
 10
6.58061
 20
180.374
 11
6.53819
 21
180.276
  0
LINE
  8
0
 10
6.53819
 20
180.276
 11
6.48972
 21
180.181
  0
LINE
  8
0
 10
6.48972
 20
180.181
 11
6.43535
 21
180.089
  0
LINE
  8
0
 10
6.43535
 20
180.089
 11
6.37532
 21
180.001
  0
LINE
  8
0
 10
6.37532
 20
180.001
 11
6.30986
 21
179.916
  0
LINE
  8
0
 10
6.30986
 20
179.916
 11
6.23924
 21
179.836
  0
LINE
  8
0
 10
6.23924
 20
179.836
 11
6.16373
 21
179.761
  0
LINE
  8
0
 10
6.16373
 20
179.761
 11
6.08362
 21
179.69
  0
LINE
  8
0
 10
6.08362
 20
179.69
 11
5.99922
 21
179.625
  0
LINE
  8
0
 10
5.99922
 20
179.625
 11
5.9109
 21
179.565
  0
LINE
  8
0
 10
5.9109
 20
179.565
 11
5.81897
 21
179.51
  0
LINE
  8
0
 10
5.81897
 20
179.51
 11
5.72382
 21
179.462
  0
LINE
  8
0
 10
5.72382
 20
179.462
 11
5.62581
 21
179.419
  0
LINE
  8
0
 10
5.62581
 20
179.419
 11
5.52531
 21
179.383
  0
LINE
  8
0
 10
5.52531
 20
179.383
 11
5.42276
 21
179.353
  0
LINE
  8
0
 10
5.42276
 20
179.353
 11
5.31854
 21
179.33
  0
LINE
  8
0
 10
5.31854
 20
179.33
 11
5.21306
 21
179.313
  0
LINE
  8
0
 10
5.21306
 20
179.313
 11
5.10674
 21
179.303
  0
LINE
  8
0
 10
5.10674
 20
179.303
 11
5
 21
179.3
  0
LINE
  8
0
 10
5
 20
179.3
 11
4.89325
 21
179.303
  0
LINE
  8
0
 10
294.893
 20
179.303
 11
294.787
 21
179.313
  0
LINE
  8
0
 10
294.787
 20
179.313
 11
294.681
 21
179.33
  0
LINE
  8
0
 10
294.681
 20
179.33
 11
294.577
 21
179.353
  0
LINE
  8
0
 10
294.577
 20
179.353
 11
294.475
 21
179.383
  0
LINE
  8
0
 10
294.475
 20
179.383
 11
294.374
 21
179.419
  0
LINE
  8
0
 10
294.374
 20
179.419
 11
294.276
 21
179.462
  0
LINE
  8
0
 10
294.276
 20
179.462
 11
294.181
 21
179.51
  0
LINE
  8
0
 10
294.181
 20
179.51
 11
294.089
 21
179.565
  0
LINE
  8
0
 10
294.089
 20
179.565
 11
294.001
 21
179.625
  0
LINE
  8
0
 10
294.001
 20
179.625
 11
293.916
 21
179.69
  0
LINE
  8
0
 10
293.916
 20
179.69
 11
293.836
 21
179.761
  0
LINE
  8
0
 10
293.836
 20
179.761
 11
293.761
 21
179.836
  0
LINE
  8
0
 10
293.761
 20
179.836
 11
293.69
 21
179.916
  0
LINE
  8
0
 10
293.69
 20
179.916
 11
293.625
 21
180.001
  0
LINE
  8
0
 10
293.625
 20
180.001
 11
293.565
 21
180.089
  0
LINE
  8
0
 10
293.565
 20
180.089
 11
293.51
 21
180.181
  0
LINE
  8
0
 10
293.51
 20
180.181
 11
293.462
 21
180.276
  0
LINE
  8
0
 10
293.462
 20
180.276
 11
293.419
 21
180.374
  0
LINE
  8
0
 10
293.419
 20
180.374
 11
293.383
 21
180.475
  0
LINE
  8
0
 10
293.383
 20
180.475
 11
293.353
 21
180.577
  0
LINE
  8
0
 10
293.353
 20
180.577
 11
293.33
 21
180.681
  0
LINE
  8
0
 10
293.33
 20
180.681
 11
293.313
 21
180.787
  0
LINE
  8
0
 10
293.313
 20
180.787
 11
293.303
 21
180.893
  0
LINE
  8
0
 10
293.303
 20
180.893
 11
293.3
 21
181
  0
LINE
  8
0
 10
293.3
 20
181
 11
293.303
 21
181.107
  0
LINE
  8
0
 10
293.303
 20
181.107
 11
293.313
 21
181.213
  0
LINE
  8
0
 10
293.313
 20
181.213
 11
293.33
 21
181.319
  0
LINE
  8
0
 10
293.33
 20
181.319
 11
293.353
 21
181.423
  0
LINE
  8
0
 10
293.353
 20
181.423
 11
293.383
 21
181.525
  0
LINE
  8
0
 10
293.383
 20
181.525
 11
293.419
 21
181.626
  0
LINE
  8
0
 10
293.419
 20
181.626
 11
293.462
 21
181.724
  0
LINE
  8
0
 10
293.462
 20
181.724
 11
293.51
 21
181.819
  0
LINE
  8
0
 10
293.51
 20
181.819
 11
293.565
 21
181.911
  0
LINE
  8
0
 10
293.565
 20
181.911
 11
293.625
 21
181.999
  0
LINE
  8
0
 10
293.625
 20
181.999
 11
293.69
 21
182.084
  0
LINE
  8
0
 10
293.69
 20
182.084
 11
293.761
 21
182.164
  0
LINE
  8
0
 10
293.761
 20
182.164
 11
293.836
 21
182.239
  0
LINE
  8
0
 10
293.836
 20
182.239
 11
293.916
 21
182.31
  0
LINE
  8
0
 10
293.916
 20
182.31
 11
294.001
 21
182.375
  0
LINE
  8
0
 10
294.001
 20
182.375
 11
294.089
 21
182.435
  0
LINE
  8
0
 10
294.089
 20
182.435
 11
294.181
 21
182.49
  0
LINE
  8
0
 10
294.181
 20
182.49
 11
294.276
 21
182.538
  0
LINE
  8
0
 10
294.276
 20
182.538
 11
294.374
 21
182.581
  0
LINE
  8
0
 10
294.374
 20
182.581
 11
294.475
 21
182.617
  0
LINE
  8
0
 10
294.475
 20
182.617
 11
294.577
 21
182.647
  0
LINE
  8
0
 10
294.577
 20
182.647
 11
294.681
 21
182.67
  0
LINE
  8
0
 10
294.681
 20
182.67
 11
294.787
 21
182.687
  0
LINE
  8
0
 10
294.787
 20
182.687
 11
294.893
 21
182.697
  0
LINE
  8
0
 10
294.893
 20
182.697
 11
295
 21
182.7
  0
LINE
  8
0
 10
295
 20
182.7
 11
295.107
 21
182.697
  0
LINE
  8
0
 10
295.107
 20
182.697
 11
295.213
 21
182.687
  0
LINE
  8
0
 10
295.213
 20
182.687
 11
295.319
 21
182.67
  0
LINE
  8
0
 10
295.319
 20
182.67
 11
295.423
 21
182.647
  0
LINE
  8
0
 10
295.423
 20
182.647
 11
295.525
 21
182.617
  0
LINE
  8
0
 10
295.525
 20
182.617
 11
295.626
 21
182.581
  0
LINE
  8
0
 10
295.626
 20
182.581
 11
295.724
 21
182.538
  0
LINE
  8
0
 10
295.724
 20
182.538
 11
295.819
 21
182.49
  0
LINE
  8
0
 10
295.819
 20
182.49
 11
295.911
 21
182.435
  0
LINE
  8
0
 10
295.911
 20
182.435
 11
295.999
 21
182.375
  0
LINE
  8
0
 10
295.999
 20
182.375
 11
296.084
 21
182.31
  0
LINE
  8
0
 10
296.084
 20
182.31
 11
296.164
 21
182.239
  0
LINE
  8
0
 10
296.164
 20
182.239
 11
296.239
 21
182.164
  0
LINE
  8
0
 10
296.239
 20
182.164
 11
296.31
 21
182.084
  0
LINE
  8
0
 10
296.31
 20
182.084
 11
296.375
 21
181.999
  0
LINE
  8
0
 10
296.375
 20
181.999
 11
296.435
 21
181.911
  0
LINE
  8
0
 10
296.435
 20
181.911
 11
296.49
 21
181.819
  0
LINE
  8
0
 10
296.49
 20
181.819
 11
296.538
 21
181.724
  0
LINE
  8
0
 10
296.538
 20
181.724
 11
296.581
 21
181.626
  0
LINE
  8
0
 10
296.581
 20
181.626
 11
296.617
 21
181.525
  0
LINE
  8
0
 10
296.617
 20
181.525
 11
296.647
 21
181.423
  0
LINE
  8
0
 10
296.647
 20
181.423
 11
296.67
 21
181.319
  0
LINE
  8
0
 10
296.67
 20
181.319
 11
296.687
 21
181.213
  0
LINE
  8
0
 10
296.687
 20
181.213
 11
296.697
 21
181.107
  0
LINE
  8
0
 10
296.697
 20
181.107
 11
296.7
 21
181
  0
LINE
  8
0
 10
296.7
 20
181
 11
296.697
 21
180.893
  0
LINE
  8
0
 10
296.697
 20
180.893
 11
296.687
 21
180.787
  0
LINE
  8
0
 10
296.687
 20
180.787
 11
296.67
 21
180.681
  0
LINE
  8
0
 10
296.67
 20
180.681
 11
296.647
 21
180.577
  0
LINE
  8
0
 10
296.647
 20
180.577
 11
296.617
 21
180.475
  0
LINE
  8
0
 10
296.617
 20
180.475
 11
296.581
 21
180.374
  0
LINE
  8
0
 10
296.581
 20
180.374
 11
296.538
 21
180.276
  0
LINE
  8
0
 10
296.538
 20
180.276
 11
296.49
 21
180.181
  0
LINE
  8
0
 10
296.49
 20
180.181
 11
296.435
 21
180.089
  0
LINE
  8
0
 10
296.435
 20
180.089
 11
296.375
 21
180.001
  0
LINE
  8
0
 10
296.375
 20
180.001
 11
296.31
 21
179.916
  0
LINE
  8
0
 10
296.31
 20
179.916
 11
296.239
 21
179.836
  0
LINE
  8
0
 10
296.239
 20
179.836
 11
296.164
 21
179.761
  0
LINE
  8
0
 10
296.164
 20
179.761
 11
296.084
 21
179.69
  0
LINE
  8
0
 10
296.084
 20
179.69
 11
295.999
 21
179.625
  0
LINE
  8
0
 10
295.999
 20
179.625
 11
295.911
 21
179.565
  0
LINE
  8
0
 10
295.911
 20
179.565
 11
295.819
 21
179.51
  0
LINE
  8
0
 10
295.819
 20
179.51
 11
295.724
 21
179.462
  0
LINE
  8
0
 10
295.724
 20
179.462
 11
295.626
 21
179.419
  0
LINE
  8
0
 10
295.626
 20
179.419
 11
295.525
 21
179.383
  0
LINE
  8
0
 10
295.525
 20
179.383
 11
295.423
 21
179.353
  0
LINE
  8
0
 10
295.423
 20
179.353
 11
295.319
 21
179.33
  0
LINE
  8
0
 10
295.319
 20
179.33
 11
295.213
 21
179.313
  0
LINE
  8
0
 10
295.213
 20
179.313
 11
295.107
 21
179.303
  0
LINE
  8
0
 10
295.107
 20
179.303
 11
295
 21
179.3
  0
LINE
  8
0
 10
295
 20
179.3
 11
294.893
 21
179.303
  0
LINE
  8
0
 10
62.8932
 20
161.303
 11
62.7869
 21
161.313
  0
LINE
  8
0
 10
62.7869
 20
161.313
 11
62.6814
 21
161.33
  0
LINE
  8
0
 10
62.6814
 20
161.33
 11
62.5772
 21
161.353
  0
LINE
  8
0
 10
62.5772
 20
161.353
 11
62.4747
 21
161.383
  0
LINE
  8
0
 10
62.4747
 20
161.383
 11
62.3742
 21
161.419
  0
LINE
  8
0
 10
62.3742
 20
161.419
 11
62.2762
 21
161.462
  0
LINE
  8
0
 10
62.2762
 20
161.462
 11
62.181
 21
161.51
  0
LINE
  8
0
 10
62.181
 20
161.51
 11
62.0891
 21
161.565
  0
LINE
  8
0
 10
62.0891
 20
161.565
 11
62.0008
 21
161.625
  0
LINE
  8
0
 10
62.0008
 20
161.625
 11
61.9164
 21
161.69
  0
LINE
  8
0
 10
61.9164
 20
161.69
 11
61.8363
 21
161.761
  0
LINE
  8
0
 10
61.8363
 20
161.761
 11
61.7607
 21
161.836
  0
LINE
  8
0
 10
61.7607
 20
161.836
 11
61.6901
 21
161.916
  0
LINE
  8
0
 10
61.6901
 20
161.916
 11
61.6247
 21
162.001
  0
LINE
  8
0
 10
61.6247
 20
162.001
 11
61.5646
 21
162.089
  0
LINE
  8
0
 10
61.5646
 20
162.089
 11
61.5103
 21
162.181
  0
LINE
  8
0
 10
61.5103
 20
162.181
 11
61.4618
 21
162.276
  0
LINE
  8
0
 10
61.4618
 20
162.276
 11
61.4194
 21
162.374
  0
LINE
  8
0
 10
61.4194
 20
162.374
 11
61.3832
 21
162.475
  0
LINE
  8
0
 10
61.3832
 20
162.475
 11
61.3534
 21
162.577
  0
LINE
  8
0
 10
61.3534
 20
162.577
 11
61.3301
 21
162.681
  0
LINE
  8
0
 10
61.3301
 20
162.681
 11
61.3134
 21
162.787
  0
LINE
  8
0
 10
61.3134
 20
162.787
 11
61.3033
 21
162.893
  0
LINE
  8
0
 10
61.3033
 20
162.893
 11
61.3
 21
163
  0
LINE
  8
0
 10
61.3
 20
163
 11
61.3033
 21
163.107
  0
LINE
  8
0
 10
61.3033
 20
163.107
 11
61.3134
 21
163.213
  0
LINE
  8
0
 10
61.3134
 20
163.213
 11
61.3301
 21
163.319
  0
LINE
  8
0
 10
61.3301
 20
163.319
 11
61.3534
 21
163.423
  0
LINE
  8
0
 10
61.3534
 20
163.423
 11
61.3832
 21
163.525
  0
LINE
  8
0
 10
61.3832
 20
163.525
 11
61.4194
 21
163.626
  0
LINE
  8
0
 10
61.4194
 20
163.626
 11
61.4618
 21
163.724
  0
LINE
  8
0
 10
61.4618
 20
163.724
 11
61.5103
 21
163.819
  0
LINE
  8
0
 10
61.5103
 20
163.819
 11
61.5646
 21
163.911
  0
LINE
  8
0
 10
61.5646
 20
163.911
 11
61.6247
 21
163.999
  0
LINE
  8
0
 10
61.6247
 20
163.999
 11
61.6901
 21
164.084
  0
LINE
  8
0
 10
61.6901
 20
164.084
 11
61.7607
 21
164.164
  0
LINE
  8
0
 10
61.7607
 20
164.164
 11
61.8363
 21
164.239
  0
LINE
  8
0
 10
61.8363
 20
164.239
 11
61.9164
 21
164.31
  0
LINE
  8
0
 10
61.9164
 20
164.31
 11
62.0008
 21
164.375
  0
LINE
  8
0
 10
62.0008
 20
164.375
 11
62.0891
 21
164.435
  0
LINE
  8
0
 10
62.0891
 20
164.435
 11
62.181
 21
164.49
  0
LINE
  8
0
 10
62.181
 20
164.49
 11
62.2762
 21
164.538
  0
LINE
  8
0
 10
62.2762
 20
164.538
 11
62.3742
 21
164.581
  0
LINE
  8
0
 10
62.3742
 20
164.581
 11
62.4747
 21
164.617
  0
LINE
  8
0
 10
62.4747
 20
164.617
 11
62.5772
 21
164.647
  0
LINE
  8
0
 10
62.5772
 20
164.647
 11
62.6814
 21
164.67
  0
LINE
  8
0
 10
62.6814
 20
164.67
 11
62.7869
 21
164.687
  0
LINE
  8
0
 10
62.7869
 20
164.687
 11
62.8932
 21
164.697
  0
LINE
  8
0
 10
62.8932
 20
164.697
 11
63
 21
164.7
  0
LINE
  8
0
 10
63
 20
164.7
 11
63.1067
 21
164.697
  0
LINE
  8
0
 10
63.1067
 20
164.697
 11
63.2131
 21
164.687
  0
LINE
  8
0
 10
63.2131
 20
164.687
 11
63.3185
 21
164.67
  0
LINE
  8
0
 10
63.3185
 20
164.67
 11
63.4228
 21
164.647
  0
LINE
  8
0
 10
63.4228
 20
164.647
 11
63.5253
 21
164.617
  0
LINE
  8
0
 10
63.5253
 20
164.617
 11
63.6258
 21
164.581
  0
LINE
  8
0
 10
63.6258
 20
164.581
 11
63.7238
 21
164.538
  0
LINE
  8
0
 10
63.7238
 20
164.538
 11
63.819
 21
164.49
  0
LINE
  8
0
 10
63.819
 20
164.49
 11
63.9109
 21
164.435
  0
LINE
  8
0
 10
63.9109
 20
164.435
 11
63.9992
 21
164.375
  0
LINE
  8
0
 10
63.9992
 20
164.375
 11
64.0836
 21
164.31
  0
LINE
  8
0
 10
64.0836
 20
164.31
 11
64.1637
 21
164.239
  0
LINE
  8
0
 10
64.1637
 20
164.239
 11
64.2392
 21
164.164
  0
LINE
  8
0
 10
64.2392
 20
164.164
 11
64.3099
 21
164.084
  0
LINE
  8
0
 10
64.3099
 20
164.084
 11
64.3753
 21
163.999
  0
LINE
  8
0
 10
64.3753
 20
163.999
 11
64.4353
 21
163.911
  0
LINE
  8
0
 10
64.4353
 20
163.911
 11
64.4897
 21
163.819
  0
LINE
  8
0
 10
64.4897
 20
163.819
 11
64.5382
 21
163.724
  0
LINE
  8
0
 10
64.5382
 20
163.724
 11
64.5806
 21
163.626
  0
LINE
  8
0
 10
64.5806
 20
163.626
 11
64.6168
 21
163.525
  0
LINE
  8
0
 10
64.6168
 20
163.525
 11
64.6466
 21
163.423
  0
LINE
  8
0
 10
64.6466
 20
163.423
 11
64.6699
 21
163.319
  0
LINE
  8
0
 10
64.6699
 20
163.319
 11
64.6866
 21
163.213
  0
LINE
  8
0
 10
64.6866
 20
163.213
 11
64.6966
 21
163.107
  0
LINE
  8
0
 10
64.6966
 20
163.107
 11
64.7
 21
163
  0
LINE
  8
0
 10
64.7
 20
163
 11
64.6966
 21
162.893
  0
LINE
  8
0
 10
64.6966
 20
162.893
 11
64.6866
 21
162.787
  0
LINE
  8
0
 10
64.6866
 20
162.787
 11
64.6699
 21
162.681
  0
LINE
  8
0
 10
64.6699
 20
162.681
 11
64.6466
 21
162.577
  0
LINE
  8
0
 10
64.6466
 20
162.577
 11
64.6168
 21
162.475
  0
LINE
  8
0
 10
64.6168
 20
162.475
 11
64.5806
 21
162.374
  0
LINE
  8
0
 10
64.5806
 20
162.374
 11
64.5382
 21
162.276
  0
LINE
  8
0
 10
64.5382
 20
162.276
 11
64.4897
 21
162.181
  0
LINE
  8
0
 10
64.4897
 20
162.181
 11
64.4353
 21
162.089
  0
LINE
  8
0
 10
64.4353
 20
162.089
 11
64.3753
 21
162.001
  0
LINE
  8
0
 10
64.3753
 20
162.001
 11
64.3099
 21
161.916
  0
LINE
  8
0
 10
64.3099
 20
161.916
 11
64.2392
 21
161.836
  0
LINE
  8
0
 10
64.2392
 20
161.836
 11
64.1637
 21
161.761
  0
LINE
  8
0
 10
64.1637
 20
161.761
 11
64.0836
 21
161.69
  0
LINE
  8
0
 10
64.0836
 20
161.69
 11
63.9992
 21
161.625
  0
LINE
  8
0
 10
63.9992
 20
161.625
 11
63.9109
 21
161.565
  0
LINE
  8
0
 10
63.9109
 20
161.565
 11
63.819
 21
161.51
  0
LINE
  8
0
 10
63.819
 20
161.51
 11
63.7238
 21
161.462
  0
LINE
  8
0
 10
63.7238
 20
161.462
 11
63.6258
 21
161.419
  0
LINE
  8
0
 10
63.6258
 20
161.419
 11
63.5253
 21
161.383
  0
LINE
  8
0
 10
63.5253
 20
161.383
 11
63.4228
 21
161.353
  0
LINE
  8
0
 10
63.4228
 20
161.353
 11
63.3185
 21
161.33
  0
LINE
  8
0
 10
63.3185
 20
161.33
 11
63.2131
 21
161.313
  0
LINE
  8
0
 10
63.2131
 20
161.313
 11
63.1067
 21
161.303
  0
LINE
  8
0
 10
63.1067
 20
161.303
 11
63
 21
161.3
  0
LINE
  8
0
 10
63
 20
161.3
 11
62.8932
 21
161.303
  0
LINE
  8
0
 10
144.893
 20
161.303
 11
144.787
 21
161.313
  0
LINE
  8
0
 10
144.787
 20
161.313
 11
144.681
 21
161.33
  0
LINE
  8
0
 10
144.681
 20
161.33
 11
144.577
 21
161.353
  0
LINE
  8
0
 10
144.577
 20
161.353
 11
144.475
 21
161.383
  0
LINE
  8
0
 10
144.475
 20
161.383
 11
144.374
 21
161.419
  0
LINE
  8
0
 10
144.374
 20
161.419
 11
144.276
 21
161.462
  0
LINE
  8
0
 10
144.276
 20
161.462
 11
144.181
 21
161.51
  0
LINE
  8
0
 10
144.181
 20
161.51
 11
144.089
 21
161.565
  0
LINE
  8
0
 10
144.089
 20
161.565
 11
144.001
 21
161.625
  0
LINE
  8
0
 10
144.001
 20
161.625
 11
143.916
 21
161.69
  0
LINE
  8
0
 10
143.916
 20
161.69
 11
143.836
 21
161.761
  0
LINE
  8
0
 10
143.836
 20
161.761
 11
143.761
 21
161.836
  0
LINE
  8
0
 10
143.761
 20
161.836
 11
143.69
 21
161.916
  0
LINE
  8
0
 10
143.69
 20
161.916
 11
143.625
 21
162.001
  0
LINE
  8
0
 10
143.625
 20
162.001
 11
143.565
 21
162.089
  0
LINE
  8
0
 10
143.565
 20
162.089
 11
143.51
 21
162.181
  0
LINE
  8
0
 10
143.51
 20
162.181
 11
143.462
 21
162.276
  0
LINE
  8
0
 10
143.462
 20
162.276
 11
143.419
 21
162.374
  0
LINE
  8
0
 10
143.419
 20
162.374
 11
143.383
 21
162.475
  0
LINE
  8
0
 10
143.383
 20
162.475
 11
143.353
 21
162.577
  0
LINE
  8
0
 10
143.353
 20
162.577
 11
143.33
 21
162.681
  0
LINE
  8
0
 10
143.33
 20
162.681
 11
143.313
 21
162.787
  0
LINE
  8
0
 10
143.313
 20
162.787
 11
143.303
 21
162.893
  0
LINE
  8
0
 10
143.303
 20
162.893
 11
143.3
 21
163
  0
LINE
  8
0
 10
143.3
 20
163
 11
143.303
 21
163.107
  0
LINE
  8
0
 10
143.303
 20
163.107
 11
143.313
 21
163.213
  0
LINE
  8
0
 10
143.313
 20
163.213
 11
143.33
 21
163.319
  0
LINE
  8
0
 10
143.33
 20
163.319
 11
143.353
 21
163.423
  0
LINE
  8
0
 10
143.353
 20
163.423
 11
143.383
 21
163.525
  0
LINE
  8
0
 10
143.383
 20
163.525
 11
143.419
 21
163.626
  0
LINE
  8
0
 10
143.419
 20
163.626
 11
143.462
 21
163.724
  0
LINE
  8
0
 10
143.462
 20
163.724
 11
143.51
 21
163.819
  0
LINE
  8
0
 10
143.51
 20
163.819
 11
143.565
 21
163.911
  0
LINE
  8
0
 10
143.565
 20
163.911
 11
143.625
 21
163.999
  0
LINE
  8
0
 10
143.625
 20
163.999
 11
143.69
 21
164.084
  0
LINE
  8
0
 10
143.69
 20
164.084
 11
143.761
 21
164.164
  0
LINE
  8
0
 10
143.761
 20
164.164
 11
143.836
 21
164.239
  0
LINE
  8
0
 10
143.836
 20
164.239
 11
143.916
 21
164.31
  0
LINE
  8
0
 10
143.916
 20
164.31
 11
144.001
 21
164.375
  0
LINE
  8
0
 10
144.001
 20
164.375
 11
144.089
 21
164.435
  0
LINE
  8
0
 10
144.089
 20
164.435
 11
144.181
 21
164.49
  0
LINE
  8
0
 10
144.181
 20
164.49
 11
144.276
 21
164.538
  0
LINE
  8
0
 10
144.276
 20
164.538
 11
144.374
 21
164.581
  0
LINE
  8
0
 10
144.374
 20
164.581
 11
144.475
 21
164.617
  0
LINE
  8
0
 10
144.475
 20
164.617
 11
144.577
 21
164.647
  0
LINE
  8
0
 10
144.577
 20
164.647
 11
144.681
 21
164.67
  0
LINE
  8
0
 10
144.681
 20
164.67
 11
144.787
 21
164.687
  0
LINE
  8
0
 10
144.787
 20
164.687
 11
144.893
 21
164.697
  0
LINE
  8
0
 10
144.893
 20
164.697
 11
145
 21
164.7
  0
LINE
  8
0
 10
145
 20
164.7
 11
145.107
 21
164.697
  0
LINE
  8
0
 10
145.107
 20
164.697
 11
145.213
 21
164.687
  0
LINE
  8
0
 10
145.213
 20
164.687
 11
145.319
 21
164.67
  0
LINE
  8
0
 10
145.319
 20
164.67
 11
145.423
 21
164.647
  0
LINE
  8
0
 10
145.423
 20
164.647
 11
145.525
 21
164.617
  0
LINE
  8
0
 10
145.525
 20
164.617
 11
145.626
 21
164.581
  0
LINE
  8
0
 10
145.626
 20
164.581
 11
145.724
 21
164.538
  0
LINE
  8
0
 10
145.724
 20
164.538
 11
145.819
 21
164.49
  0
LINE
  8
0
 10
145.819
 20
164.49
 11
145.911
 21
164.435
  0
LINE
  8
0
 10
145.911
 20
164.435
 11
145.999
 21
164.375
  0
LINE
  8
0
 10
145.999
 20
164.375
 11
146.084
 21
164.31
  0
LINE
  8
0
 10
146.084
 20
164.31
 11
146.164
 21
164.239
  0
LINE
  8
0
 10
146.164
 20
164.239
 11
146.239
 21
164.164
  0
LINE
  8
0
 10
146.239
 20
164.164
 11
146.31
 21
164.084
  0
LINE
  8
0
 10
146.31
 20
164.084
 11
146.375
 21
163.999
  0
LINE
  8
0
 10
146.375
 20
163.999
 11
146.435
 21
163.911
  0
LINE
  8
0
 10
146.435
 20
163.911
 11
146.49
 21
163.819
  0
LINE
  8
0
 10
146.49
 20
163.819
 11
146.538
 21
163.724
  0
LINE
  8
0
 10
146.538
 20
163.724
 11
146.581
 21
163.626
  0
LINE
  8
0
 10
146.581
 20
163.626
 11
146.617
 21
163.525
  0
LINE
  8
0
 10
146.617
 20
163.525
 11
146.647
 21
163.423
  0
LINE
  8
0
 10
146.647
 20
163.423
 11
146.67
 21
163.319
  0
LINE
  8
0
 10
146.67
 20
163.319
 11
146.687
 21
163.213
  0
LINE
  8
0
 10
146.687
 20
163.213
 11
146.697
 21
163.107
  0
LINE
  8
0
 10
146.697
 20
163.107
 11
146.7
 21
163
  0
LINE
  8
0
 10
146.7
 20
163
 11
146.697
 21
162.893
  0
LINE
  8
0
 10
146.697
 20
162.893
 11
146.687
 21
162.787
  0
LINE
  8
0
 10
146.687
 20
162.787
 11
146.67
 21
162.681
  0
LINE
  8
0
 10
146.67
 20
162.681
 11
146.647
 21
162.577
  0
LINE
  8
0
 10
146.647
 20
162.577
 11
146.617
 21
162.475
  0
LINE
  8
0
 10
146.617
 20
162.475
 11
146.581
 21
162.374
  0
LINE
  8
0
 10
146.581
 20
162.374
 11
146.538
 21
162.276
  0
LINE
  8
0
 10
146.538
 20
162.276
 11
146.49
 21
162.181
  0
LINE
  8
0
 10
146.49
 20
162.181
 11
146.435
 21
162.089
  0
LINE
  8
0
 10
146.435
 20
162.089
 11
146.375
 21
162.001
  0
LINE
  8
0
 10
146.375
 20
162.001
 11
146.31
 21
161.916
  0
LINE
  8
0
 10
146.31
 20
161.916
 11
146.239
 21
161.836
  0
LINE
  8
0
 10
146.239
 20
161.836
 11
146.164
 21
161.761
  0
LINE
  8
0
 10
146.164
 20
161.761
 11
146.084
 21
161.69
  0
LINE
  8
0
 10
146.084
 20
161.69
 11
145.999
 21
161.625
  0
LINE
  8
0
 10
145.999
 20
161.625
 11
145.911
 21
161.565
  0
LINE
  8
0
 10
145.911
 20
161.565
 11
145.819
 21
161.51
  0
LINE
  8
0
 10
145.819
 20
161.51
 11
145.724
 21
161.462
  0
LINE
  8
0
 10
145.724
 20
161.462
 11
145.626
 21
161.419
  0
LINE
  8
0
 10
145.626
 20
161.419
 11
145.525
 21
161.383
  0
LINE
  8
0
 10
145.525
 20
161.383
 11
145.423
 21
161.353
  0
LINE
  8
0
 10
145.423
 20
161.353
 11
145.319
 21
161.33
  0
LINE
  8
0
 10
145.319
 20
161.33
 11
145.213
 21
161.313
  0
LINE
  8
0
 10
145.213
 20
161.313
 11
145.107
 21
161.303
  0
LINE
  8
0
 10
145.107
 20
161.303
 11
145
 21
161.3
  0
LINE
  8
0
 10
145
 20
161.3
 11
144.893
 21
161.303
  0
LINE
  8
0
 10
226.893
 20
161.303
 11
226.787
 21
161.313
  0
LINE
  8
0
 10
226.787
 20
161.313
 11
226.681
 21
161.33
  0
LINE
  8
0
 10
226.681
 20
161.33
 11
226.577
 21
161.353
  0
LINE
  8
0
 10
226.577
 20
161.353
 11
226.475
 21
161.383
  0
LINE
  8
0
 10
226.475
 20
161.383
 11
226.374
 21
161.419
  0
LINE
  8
0
 10
226.374
 20
161.419
 11
226.276
 21
161.462
  0
LINE
  8
0
 10
226.276
 20
161.462
 11
226.181
 21
161.51
  0
LINE
  8
0
 10
226.181
 20
161.51
 11
226.089
 21
161.565
  0
LINE
  8
0
 10
226.089
 20
161.565
 11
226.001
 21
161.625
  0
LINE
  8
0
 10
226.001
 20
161.625
 11
225.916
 21
161.69
  0
LINE
  8
0
 10
225.916
 20
161.69
 11
225.836
 21
161.761
  0
LINE
  8
0
 10
225.836
 20
161.761
 11
225.761
 21
161.836
  0
LINE
  8
0
 10
225.761
 20
161.836
 11
225.69
 21
161.916
  0
LINE
  8
0
 10
225.69
 20
161.916
 11
225.625
 21
162.001
  0
LINE
  8
0
 10
225.625
 20
162.001
 11
225.565
 21
162.089
  0
LINE
  8
0
 10
225.565
 20
162.089
 11
225.51
 21
162.181
  0
LINE
  8
0
 10
225.51
 20
162.181
 11
225.462
 21
162.276
  0
LINE
  8
0
 10
225.462
 20
162.276
 11
225.419
 21
162.374
  0
LINE
  8
0
 10
225.419
 20
162.374
 11
225.383
 21
162.475
  0
LINE
  8
0
 10
225.383
 20
162.475
 11
225.353
 21
162.577
  0
LINE
  8
0
 10
225.353
 20
162.577
 11
225.33
 21
162.681
  0
LINE
  8
0
 10
225.33
 20
162.681
 11
225.313
 21
162.787
  0
LINE
  8
0
 10
225.313
 20
162.787
 11
225.303
 21
162.893
  0
LINE
  8
0
 10
225.303
 20
162.893
 11
225.3
 21
163
  0
LINE
  8
0
 10
225.3
 20
163
 11
225.303
 21
163.107
  0
LINE
  8
0
 10
225.303
 20
163.107
 11
225.313
 21
163.213
  0
LINE
  8
0
 10
225.313
 20
163.213
 11
225.33
 21
163.319
  0
LINE
  8
0
 10
225.33
 20
163.319
 11
225.353
 21
163.423
  0
LINE
  8
0
 10
225.353
 20
163.423
 11
225.383
 21
163.525
  0
LINE
  8
0
 10
225.383
 20
163.525
 11
225.419
 21
163.626
  0
LINE
  8
0
 10
225.419
 20
163.626
 11
225.462
 21
163.724
  0
LINE
  8
0
 10
225.462
 20
163.724
 11
225.51
 21
163.819
  0
LINE
  8
0
 10
225.51
 20
163.819
 11
225.565
 21
163.911
  0
LINE
  8
0
 10
225.565
 20
163.911
 11
225.625
 21
163.999
  0
LINE
  8
0
 10
225.625
 20
163.999
 11
225.69
 21
164.084
  0
LINE
  8
0
 10
225.69
 20
164.084
 11
225.761
 21
164.164
  0
LINE
  8
0
 10
225.761
 20
164.164
 11
225.836
 21
164.239
  0
LINE
  8
0
 10
225.836
 20
164.239
 11
225.916
 21
164.31
  0
LINE
  8
0
 10
225.916
 20
164.31
 11
226.001
 21
164.375
  0
LINE
  8
0
 10
226.001
 20
164.375
 11
226.089
 21
164.435
  0
LINE
  8
0
 10
226.089
 20
164.435
 11
226.181
 21
164.49
  0
LINE
  8
0
 10
226.181
 20
164.49
 11
226.276
 21
164.538
  0
LINE
  8
0
 10
226.276
 20
164.538
 11
226.374
 21
164.581
  0
LINE
  8
0
 10
226.374
 20
164.581
 11
226.475
 21
164.617
  0
LINE
  8
0
 10
226.475
 20
164.617
 11
226.577
 21
164.647
  0
LINE
  8
0
 10
226.577
 20
164.647
 11
226.681
 21
164.67
  0
LINE
  8
0
 10
226.681
 20
164.67
 11
226.787
 21
164.687
  0
LINE
  8
0
 10
226.787
 20
164.687
 11
226.893
 21
164.697
  0
LINE
  8
0
 10
226.893
 20
164.697
 11
227
 21
164.7
  0
LINE
  8
0
 10
227
 20
164.7
 11
227.107
 21
164.697
  0
LINE
  8
0
 10
227.107
 20
164.697
 11
227.213
 21
164.687
  0
LINE
  8
0
 10
227.213
 20
164.687
 11
227.319
 21
164.67
  0
LINE
  8
0
 10
227.319
 20
164.67
 11
227.423
 21
164.647
  0
LINE
  8
0
 10
227.423
 20
164.647
 11
227.525
 21
164.617
  0
LINE
  8
0
 10
227.525
 20
164.617
 11
227.626
 21
164.581
  0
LINE
  8
0
 10
227.626
 20
164.581
 11
227.724
 21
164.538
  0
LINE
  8
0
 10
227.724
 20
164.538
 11
227.819
 21
164.49
  0
LINE
  8
0
 10
227.819
 20
164.49
 11
227.911
 21
164.435
  0
LINE
  8
0
 10
227.911
 20
164.435
 11
227.999
 21
164.375
  0
LINE
  8
0
 10
227.999
 20
164.375
 11
228.084
 21
164.31
  0
LINE
  8
0
 10
228.084
 20
164.31
 11
228.164
 21
164.239
  0
LINE
  8
0
 10
228.164
 20
164.239
 11
228.239
 21
164.164
  0
LINE
  8
0
 10
228.239
 20
164.164
 11
228.31
 21
164.084
  0
LINE
  8
0
 10
228.31
 20
164.084
 11
228.375
 21
163.999
  0
LINE
  8
0
 10
228.375
 20
163.999
 11
228.435
 21
163.911
  0
LINE
  8
0
 10
228.435
 20
163.911
 11
228.49
 21
163.819
  0
LINE
  8
0
 10
228.49
 20
163.819
 11
228.538
 21
163.724
  0
LINE
  8
0
 10
228.538
 20
163.724
 11
228.581
 21
163.626
  0
LINE
  8
0
 10
228.581
 20
163.626
 11
228.617
 21
163.525
  0
LINE
  8
0
 10
228.617
 20
163.525
 11
228.647
 21
163.423
  0
LINE
  8
0
 10
228.647
 20
163.423
 11
228.67
 21
163.319
  0
LINE
  8
0
 10
228.67
 20
163.319
 11
228.687
 21
163.213
  0
LINE
  8
0
 10
228.687
 20
163.213
 11
228.697
 21
163.107
  0
LINE
  8
0
 10
228.697
 20
163.107
 11
228.7
 21
163
  0
LINE
  8
0
 10
228.7
 20
163
 11
228.697
 21
162.893
  0
LINE
  8
0
 10
228.697
 20
162.893
 11
228.687
 21
162.787
  0
LINE
  8
0
 10
228.687
 20
162.787
 11
228.67
 21
162.681
  0
LINE
  8
0
 10
228.67
 20
162.681
 11
228.647
 21
162.577
  0
LINE
  8
0
 10
228.647
 20
162.577
 11
228.617
 21
162.475
  0
LINE
  8
0
 10
228.617
 20
162.475
 11
228.581
 21
162.374
  0
LINE
  8
0
 10
228.581
 20
162.374
 11
228.538
 21
162.276
  0
LINE
  8
0
 10
228.538
 20
162.276
 11
228.49
 21
162.181
  0
LINE
  8
0
 10
228.49
 20
162.181
 11
228.435
 21
162.089
  0
LINE
  8
0
 10
228.435
 20
162.089
 11
228.375
 21
162.001
  0
LINE
  8
0
 10
228.375
 20
162.001
 11
228.31
 21
161.916
  0
LINE
  8
0
 10
228.31
 20
161.916
 11
228.239
 21
161.836
  0
LINE
  8
0
 10
228.239
 20
161.836
 11
228.164
 21
161.761
  0
LINE
  8
0
 10
228.164
 20
161.761
 11
228.084
 21
161.69
  0
LINE
  8
0
 10
228.084
 20
161.69
 11
227.999
 21
161.625
  0
LINE
  8
0
 10
227.999
 20
161.625
 11
227.911
 21
161.565
  0
LINE
  8
0
 10
227.911
 20
161.565
 11
227.819
 21
161.51
  0
LINE
  8
0
 10
227.819
 20
161.51
 11
227.724
 21
161.462
  0
LINE
  8
0
 10
227.724
 20
161.462
 11
227.626
 21
161.419
  0
LINE
  8
0
 10
227.626
 20
161.419
 11
227.525
 21
161.383
  0
LINE
  8
0
 10
227.525
 20
161.383
 11
227.423
 21
161.353
  0
LINE
  8
0
 10
227.423
 20
161.353
 11
227.319
 21
161.33
  0
LINE
  8
0
 10
227.319
 20
161.33
 11
227.213
 21
161.313
  0
LINE
  8
0
 10
227.213
 20
161.313
 11
227.107
 21
161.303
  0
LINE
  8
0
 10
227.107
 20
161.303
 11
227
 21
161.3
  0
LINE
  8
0
 10
227
 20
161.3
 11
226.893
 21
161.303
  0
LINE
  8
0
 10
99.8932
 20
129.303
 11
99.7869
 21
129.313
  0
LINE
  8
0
 10
99.7869
 20
129.313
 11
99.6814
 21
129.33
  0
LINE
  8
0
 10
99.6814
 20
129.33
 11
99.5772
 21
129.353
  0
LINE
  8
0
 10
99.5772
 20
129.353
 11
99.4747
 21
129.383
  0
LINE
  8
0
 10
99.4747
 20
129.383
 11
99.3742
 21
129.419
  0
LINE
  8
0
 10
99.3742
 20
129.419
 11
99.2762
 21
129.462
  0
LINE
  8
0
 10
99.2762
 20
129.462
 11
99.181
 21
129.51
  0
LINE
  8
0
 10
99.181
 20
129.51
 11
99.0891
 21
129.565
  0
LINE
  8
0
 10
99.0891
 20
129.565
 11
99.0008
 21
129.625
  0
LINE
  8
0
 10
99.0008
 20
129.625
 11
98.9164
 21
129.69
  0
LINE
  8
0
 10
98.9164
 20
129.69
 11
98.8363
 21
129.761
  0
LINE
  8
0
 10
98.8363
 20
129.761
 11
98.7607
 21
129.836
  0
LINE
  8
0
 10
98.7607
 20
129.836
 11
98.6901
 21
129.916
  0
LINE
  8
0
 10
98.6901
 20
129.916
 11
98.6247
 21
130.001
  0
LINE
  8
0
 10
98.6247
 20
130.001
 11
98.5646
 21
130.089
  0
LINE
  8
0
 10
98.5646
 20
130.089
 11
98.5103
 21
130.181
  0
LINE
  8
0
 10
98.5103
 20
130.181
 11
98.4618
 21
130.276
  0
LINE
  8
0
 10
98.4618
 20
130.276
 11
98.4194
 21
130.374
  0
LINE
  8
0
 10
98.4194
 20
130.374
 11
98.3832
 21
130.475
  0
LINE
  8
0
 10
98.3832
 20
130.475
 11
98.3534
 21
130.577
  0
LINE
  8
0
 10
98.3534
 20
130.577
 11
98.3301
 21
130.681
  0
LINE
  8
0
 10
98.3301
 20
130.681
 11
98.3134
 21
130.787
  0
LINE
  8
0
 10
98.3134
 20
130.787
 11
98.3033
 21
130.893
  0
LINE
  8
0
 10
98.3033
 20
130.893
 11
98.3
 21
131
  0
LINE
  8
0
 10
98.3
 20
131
 11
98.3033
 21
131.107
  0
LINE
  8
0
 10
98.3033
 20
131.107
 11
98.3134
 21
131.213
  0
LINE
  8
0
 10
98.3134
 20
131.213
 11
98.3301
 21
131.319
  0
LINE
  8
0
 10
98.3301
 20
131.319
 11
98.3534
 21
131.423
  0
LINE
  8
0
 10
98.3534
 20
131.423
 11
98.3832
 21
131.525
  0
LINE
  8
0
 10
98.3832
 20
131.525
 11
98.4194
 21
131.626
  0
LINE
  8
0
 10
98.4194
 20
131.626
 11
98.4618
 21
131.724
  0
LINE
  8
0
 10
98.4618
 20
131.724
 11
98.5103
 21
131.819
  0
LINE
  8
0
 10
98.5103
 20
131.819
 11
98.5646
 21
131.911
  0
LINE
  8
0
 10
98.5646
 20
131.911
 11
98.6247
 21
131.999
  0
LINE
  8
0
 10
98.6247
 20
131.999
 11
98.6901
 21
132.084
  0
LINE
  8
0
 10
98.6901
 20
132.084
 11
98.7607
 21
132.164
  0
LINE
  8
0
 10
98.7607
 20
132.164
 11
98.8363
 21
132.239
  0
LINE
  8
0
 10
98.8363
 20
132.239
 11
98.9164
 21
132.31
  0
LINE
  8
0
 10
98.9164
 20
132.31
 11
99.0008
 21
132.375
  0
LINE
  8
0
 10
99.0008
 20
132.375
 11
99.0891
 21
132.435
  0
LINE
  8
0
 10
99.0891
 20
132.435
 11
99.181
 21
132.49
  0
LINE
  8
0
 10
99.181
 20
132.49
 11
99.2762
 21
132.538
  0
LINE
  8
0
 10
99.2762
 20
132.538
 11
99.3742
 21
132.581
  0
LINE
  8
0
 10
99.3742
 20
132.581
 11
99.4747
 21
132.617
  0
LINE
  8
0
 10
99.4747
 20
132.617
 11
99.5772
 21
132.647
  0
LINE
  8
0
 10
99.5772
 20
132.647
 11
99.6814
 21
132.67
  0
LINE
  8
0
 10
99.6814
 20
132.67
 11
99.7869
 21
132.687
  0
LINE
  8
0
 10
99.7869
 20
132.687
 11
99.8932
 21
132.697
  0
LINE
  8
0
 10
99.8932
 20
132.697
 11
100
 21
132.7
  0
LINE
  8
0
 10
100
 20
132.7
 11
100.107
 21
132.697
  0
LINE
  8
0
 10
100.107
 20
132.697
 11
100.213
 21
132.687
  0
LINE
  8
0
 10
100.213
 20
132.687
 11
100.319
 21
132.67
  0
LINE
  8
0
 10
100.319
 20
132.67
 11
100.423
 21
132.647
  0
LINE
  8
0
 10
100.423
 20
132.647
 11
100.525
 21
132.617
  0
LINE
  8
0
 10
100.525
 20
132.617
 11
100.626
 21
132.581
  0
LINE
  8
0
 10
100.626
 20
132.581
 11
100.724
 21
132.538
  0
LINE
  8
0
 10
100.724
 20
132.538
 11
100.819
 21
132.49
  0
LINE
  8
0
 10
100.819
 20
132.49
 11
100.911
 21
132.435
  0
LINE
  8
0
 10
100.911
 20
132.435
 11
100.999
 21
132.375
  0
LINE
  8
0
 10
100.999
 20
132.375
 11
101.084
 21
132.31
  0
LINE
  8
0
 10
101.084
 20
132.31
 11
101.164
 21
132.239
  0
LINE
  8
0
 10
101.164
 20
132.239
 11
101.239
 21
132.164
  0
LINE
  8
0
 10
101.239
 20
132.164
 11
101.31
 21
132.084
  0
LINE
  8
0
 10
101.31
 20
132.084
 11
101.375
 21
131.999
  0
LINE
  8
0
 10
101.375
 20
131.999
 11
101.435
 21
131.911
  0
LINE
  8
0
 10
101.435
 20
131.911
 11
101.49
 21
131.819
  0
LINE
  8
0
 10
101.49
 20
131.819
 11
101.538
 21
131.724
  0
LINE
  8
0
 10
101.538
 20
131.724
 11
101.581
 21
131.626
  0
LINE
  8
0
 10
101.581
 20
131.626
 11
101.617
 21
131.525
  0
LINE
  8
0
 10
101.617
 20
131.525
 11
101.647
 21
131.423
  0
LINE
  8
0
 10
101.647
 20
131.423
 11
101.67
 21
131.319
  0
LINE
  8
0
 10
101.67
 20
131.319
 11
101.687
 21
131.213
  0
LINE
  8
0
 10
101.687
 20
131.213
 11
101.697
 21
131.107
  0
LINE
  8
0
 10
101.697
 20
131.107
 11
101.7
 21
131
  0
LINE
  8
0
 10
101.7
 20
131
 11
101.697
 21
130.893
  0
LINE
  8
0
 10
101.697
 20
130.893
 11
101.687
 21
130.787
  0
LINE
  8
0
 10
101.687
 20
130.787
 11
101.67
 21
130.681
  0
LINE
  8
0
 10
101.67
 20
130.681
 11
101.647
 21
130.577
  0
LINE
  8
0
 10
101.647
 20
130.577
 11
101.617
 21
130.475
  0
LINE
  8
0
 10
101.617
 20
130.475
 11
101.581
 21
130.374
  0
LINE
  8
0
 10
101.581
 20
130.374
 11
101.538
 21
130.276
  0
LINE
  8
0
 10
101.538
 20
130.276
 11
101.49
 21
130.181
  0
LINE
  8
0
 10
101.49
 20
130.181
 11
101.435
 21
130.089
  0
LINE
  8
0
 10
101.435
 20
130.089
 11
101.375
 21
130.001
  0
LINE
  8
0
 10
101.375
 20
130.001
 11
101.31
 21
129.916
  0
LINE
  8
0
 10
101.31
 20
129.916
 11
101.239
 21
129.836
  0
LINE
  8
0
 10
101.239
 20
129.836
 11
101.164
 21
129.761
  0
LINE
  8
0
 10
101.164
 20
129.761
 11
101.084
 21
129.69
  0
LINE
  8
0
 10
101.084
 20
129.69
 11
100.999
 21
129.625
  0
LINE
  8
0
 10
100.999
 20
129.625
 11
100.911
 21
129.565
  0
LINE
  8
0
 10
100.911
 20
129.565
 11
100.819
 21
129.51
  0
LINE
  8
0
 10
100.819
 20
129.51
 11
100.724
 21
129.462
  0
LINE
  8
0
 10
100.724
 20
129.462
 11
100.626
 21
129.419
  0
LINE
  8
0
 10
100.626
 20
129.419
 11
100.525
 21
129.383
  0
LINE
  8
0
 10
100.525
 20
129.383
 11
100.423
 21
129.353
  0
LINE
  8
0
 10
100.423
 20
129.353
 11
100.319
 21
129.33
  0
LINE
  8
0
 10
100.319
 20
129.33
 11
100.213
 21
129.313
  0
LINE
  8
0
 10
100.213
 20
129.313
 11
100.107
 21
129.303
  0
LINE
  8
0
 10
100.107
 20
129.303
 11
100
 21
129.3
  0
LINE
  8
0
 10
100
 20
129.3
 11
99.8932
 21
129.303
  0
LINE
  8
0
 10
294.893
 20
129.303
 11
294.787
 21
129.313
  0
LINE
  8
0
 10
294.787
 20
129.313
 11
294.681
 21
129.33
  0
LINE
  8
0
 10
294.681
 20
129.33
 11
294.577
 21
129.353
  0
LINE
  8
0
 10
294.577
 20
129.353
 11
294.475
 21
129.383
  0
LINE
  8
0
 10
294.475
 20
129.383
 11
294.374
 21
129.419
  0
LINE
  8
0
 10
294.374
 20
129.419
 11
294.276
 21
129.462
  0
LINE
  8
0
 10
294.276
 20
129.462
 11
294.181
 21
129.51
  0
LINE
  8
0
 10
294.181
 20
129.51
 11
294.089
 21
129.565
  0
LINE
  8
0
 10
294.089
 20
129.565
 11
294.001
 21
129.625
  0
LINE
  8
0
 10
294.001
 20
129.625
 11
293.916
 21
129.69
  0
LINE
  8
0
 10
293.916
 20
129.69
 11
293.836
 21
129.761
  0
LINE
  8
0
 10
293.836
 20
129.761
 11
293.761
 21
129.836
  0
LINE
  8
0
 10
293.761
 20
129.836
 11
293.69
 21
129.916
  0
LINE
  8
0
 10
293.69
 20
129.916
 11
293.625
 21
130.001
  0
LINE
  8
0
 10
293.625
 20
130.001
 11
293.565
 21
130.089
  0
LINE
  8
0
 10
293.565
 20
130.089
 11
293.51
 21
130.181
  0
LINE
  8
0
 10
293.51
 20
130.181
 11
293.462
 21
130.276
  0
LINE
  8
0
 10
293.462
 20
130.276
 11
293.419
 21
130.374
  0
LINE
  8
0
 10
293.419
 20
130.374
 11
293.383
 21
130.475
  0
LINE
  8
0
 10
293.383
 20
130.475
 11
293.353
 21
130.577
  0
LINE
  8
0
 10
293.353
 20
130.577
 11
293.33
 21
130.681
  0
LINE
  8
0
 10
293.33
 20
130.681
 11
293.313
 21
130.787
  0
LINE
  8
0
 10
293.313
 20
130.787
 11
293.303
 21
130.893
  0
LINE
  8
0
 10
293.303
 20
130.893
 11
293.3
 21
131
  0
LINE
  8
0
 10
293.3
 20
131
 11
293.303
 21
131.107
  0
LINE
  8
0
 10
293.303
 20
131.107
 11
293.313
 21
131.213
  0
LINE
  8
0
 10
293.313
 20
131.213
 11
293.33
 21
131.319
  0
LINE
  8
0
 10
293.33
 20
131.319
 11
293.353
 21
131.423
  0
LINE
  8
0
 10
293.353
 20
131.423
 11
293.383
 21
131.525
  0
LINE
  8
0
 10
293.383
 20
131.525
 11
293.419
 21
131.626
  0
LINE
  8
0
 10
293.419
 20
131.626
 11
293.462
 21
131.724
  0
LINE
  8
0
 10
293.462
 20
131.724
 11
293.51
 21
131.819
  0
LINE
  8
0
 10
293.51
 20
131.819
 11
293.565
 21
131.911
  0
LINE
  8
0
 10
293.565
 20
131.911
 11
293.625
 21
131.999
  0
LINE
  8
0
 10
293.625
 20
131.999
 11
293.69
 21
132.084
  0
LINE
  8
0
 10
293.69
 20
132.084
 11
293.761
 21
132.164
  0
LINE
  8
0
 10
293.761
 20
132.164
 11
293.836
 21
132.239
  0
LINE
  8
0
 10
293.836
 20
132.239
 11
293.916
 21
132.31
  0
LINE
  8
0
 10
293.916
 20
132.31
 11
294.001
 21
132.375
  0
LINE
  8
0
 10
294.001
 20
132.375
 11
294.089
 21
132.435
  0
LINE
  8
0
 10
294.089
 20
132.435
 11
294.181
 21
132.49
  0
LINE
  8
0
 10
294.181
 20
132.49
 11
294.276
 21
132.538
  0
LINE
  8
0
 10
294.276
 20
132.538
 11
294.374
 21
132.581
  0
LINE
  8
0
 10
294.374
 20
132.581
 11
294.475
 21
132.617
  0
LINE
  8
0
 10
294.475
 20
132.617
 11
294.577
 21
132.647
  0
LINE
  8
0
 10
294.577
 20
132.647
 11
294.681
 21
132.67
  0
LINE
  8
0
 10
294.681
 20
132.67
 11
294.787
 21
132.687
  0
LINE
  8
0
 10
294.787
 20
132.687
 11
294.893
 21
132.697
  0
LINE
  8
0
 10
294.893
 20
132.697
 11
295
 21
132.7
  0
LINE
  8
0
 10
295
 20
132.7
 11
295.107
 21
132.697
  0
LINE
  8
0
 10
295.107
 20
132.697
 11
295.213
 21
132.687
  0
LINE
  8
0
 10
295.213
 20
132.687
 11
295.319
 21
132.67
  0
LINE
  8
0
 10
295.319
 20
132.67
 11
295.423
 21
132.647
  0
LINE
  8
0
 10
295.423
 20
132.647
 11
295.525
 21
132.617
  0
LINE
  8
0
 10
295.525
 20
132.617
 11
295.626
 21
132.581
  0
LINE
  8
0
 10
295.626
 20
132.581
 11
295.724
 21
132.538
  0
LINE
  8
0
 10
295.724
 20
132.538
 11
295.819
 21
132.49
  0
LINE
  8
0
 10
295.819
 20
132.49
 11
295.911
 21
132.435
  0
LINE
  8
0
 10
295.911
 20
132.435
 11
295.999
 21
132.375
  0
LINE
  8
0
 10
295.999
 20
132.375
 11
296.084
 21
132.31
  0
LINE
  8
0
 10
296.084
 20
132.31
 11
296.164
 21
132.239
  0
LINE
  8
0
 10
296.164
 20
132.239
 11
296.239
 21
132.164
  0
LINE
  8
0
 10
296.239
 20
132.164
 11
296.31
 21
132.084
  0
LINE
  8
0
 10
296.31
 20
132.084
 11
296.375
 21
131.999
  0
LINE
  8
0
 10
296.375
 20
131.999
 11
296.435
 21
131.911
  0
LINE
  8
0
 10
296.435
 20
131.911
 11
296.49
 21
131.819
  0
LINE
  8
0
 10
296.49
 20
131.819
 11
296.538
 21
131.724
  0
LINE
  8
0
 10
296.538
 20
131.724
 11
296.581
 21
131.626
  0
LINE
  8
0
 10
296.581
 20
131.626
 11
296.617
 21
131.525
  0
LINE
  8
0
 10
296.617
 20
131.525
 11
296.647
 21
131.423
  0
LINE
  8
0
 10
296.647
 20
131.423
 11
296.67
 21
131.319
  0
LINE
  8
0
 10
296.67
 20
131.319
 11
296.687
 21
131.213
  0
LINE
  8
0
 10
296.687
 20
131.213
 11
296.697
 21
131.107
  0
LINE
  8
0
 10
296.697
 20
131.107
 11
296.7
 21
131
  0
LINE
  8
0
 10
296.7
 20
131
 11
296.697
 21
130.893
  0
LINE
  8
0
 10
296.697
 20
130.893
 11
296.687
 21
130.787
  0
LINE
  8
0
 10
296.687
 20
130.787
 11
296.67
 21
130.681
  0
LINE
  8
0
 10
296.67
 20
130.681
 11
296.647
 21
130.577
  0
LINE
  8
0
 10
296.647
 20
130.577
 11
296.617
 21
130.475
  0
LINE
  8
0
 10
296.617
 20
130.475
 11
296.581
 21
130.374
  0
LINE
  8
0
 10
296.581
 20
130.374
 11
296.538
 21
130.276
  0
LINE
  8
0
 10
296.538
 20
130.276
 11
296.49
 21
130.181
  0
LINE
  8
0
 10
296.49
 20
130.181
 11
296.435
 21
130.089
  0
LINE
  8
0
 10
296.435
 20
130.089
 11
296.375
 21
130.001
  0
LINE
  8
0
 10
296.375
 20
130.001
 11
296.31
 21
129.916
  0
LINE
  8
0
 10
296.31
 20
129.916
 11
296.239
 21
129.836
  0
LINE
  8
0
 10
296.239
 20
129.836
 11
296.164
 21
129.761
  0
LINE
  8
0
 10
296.164
 20
129.761
 11
296.084
 21
129.69
  0
LINE
  8
0
 10
296.084
 20
129.69
 11
295.999
 21
129.625
  0
LINE
  8
0
 10
295.999
 20
129.625
 11
295.911
 21
129.565
  0
LINE
  8
0
 10
295.911
 20
129.565
 11
295.819
 21
129.51
  0
LINE
  8
0
 10
295.819
 20
129.51
 11
295.724
 21
129.462
  0
LINE
  8
0
 10
295.724
 20
129.462
 11
295.626
 21
129.419
  0
LINE
  8
0
 10
295.626
 20
129.419
 11
295.525
 21
129.383
  0
LINE
  8
0
 10
295.525
 20
129.383
 11
295.423
 21
129.353
  0
LINE
  8
0
 10
295.423
 20
129.353
 11
295.319
 21
129.33
  0
LINE
  8
0
 10
295.319
 20
129.33
 11
295.213
 21
129.313
  0
LINE
  8
0
 10
295.213
 20
129.313
 11
295.107
 21
129.303
  0
LINE
  8
0
 10
295.107
 20
129.303
 11
295
 21
129.3
  0
LINE
  8
0
 10
295
 20
129.3
 11
294.893
 21
129.303
  0
LINE
  8
0
 10
199.893
 20
129.303
 11
199.787
 21
129.313
  0
LINE
  8
0
 10
199.787
 20
129.313
 11
199.681
 21
129.33
  0
LINE
  8
0
 10
199.681
 20
129.33
 11
199.577
 21
129.353
  0
LINE
  8
0
 10
199.577
 20
129.353
 11
199.475
 21
129.383
  0
LINE
  8
0
 10
199.475
 20
129.383
 11
199.374
 21
129.419
  0
LINE
  8
0
 10
199.374
 20
129.419
 11
199.276
 21
129.462
  0
LINE
  8
0
 10
199.276
 20
129.462
 11
199.181
 21
129.51
  0
LINE
  8
0
 10
199.181
 20
129.51
 11
199.089
 21
129.565
  0
LINE
  8
0
 10
199.089
 20
129.565
 11
199.001
 21
129.625
  0
LINE
  8
0
 10
199.001
 20
129.625
 11
198.916
 21
129.69
  0
LINE
  8
0
 10
198.916
 20
129.69
 11
198.836
 21
129.761
  0
LINE
  8
0
 10
198.836
 20
129.761
 11
198.761
 21
129.836
  0
LINE
  8
0
 10
198.761
 20
129.836
 11
198.69
 21
129.916
  0
LINE
  8
0
 10
198.69
 20
129.916
 11
198.625
 21
130.001
  0
LINE
  8
0
 10
198.625
 20
130.001
 11
198.565
 21
130.089
  0
LINE
  8
0
 10
198.565
 20
130.089
 11
198.51
 21
130.181
  0
LINE
  8
0
 10
198.51
 20
130.181
 11
198.462
 21
130.276
  0
LINE
  8
0
 10
198.462
 20
130.276
 11
198.419
 21
130.374
  0
LINE
  8
0
 10
198.419
 20
130.374
 11
198.383
 21
130.475
  0
LINE
  8
0
 10
198.383
 20
130.475
 11
198.353
 21
130.577
  0
LINE
  8
0
 10
198.353
 20
130.577
 11
198.33
 21
130.681
  0
LINE
  8
0
 10
198.33
 20
130.681
 11
198.313
 21
130.787
  0
LINE
  8
0
 10
198.313
 20
130.787
 11
198.303
 21
130.893
  0
LINE
  8
0
 10
198.303
 20
130.893
 11
198.3
 21
131
  0
LINE
  8
0
 10
198.3
 20
131
 11
198.303
 21
131.107
  0
LINE
  8
0
 10
198.303
 20
131.107
 11
198.313
 21
131.213
  0
LINE
  8
0
 10
198.313
 20
131.213
 11
198.33
 21
131.319
  0
LINE
  8
0
 10
198.33
 20
131.319
 11
198.353
 21
131.423
  0
LINE
  8
0
 10
198.353
 20
131.423
 11
198.383
 21
131.525
  0
LINE
  8
0
 10
198.383
 20
131.525
 11
198.419
 21
131.626
  0
LINE
  8
0
 10
198.419
 20
131.626
 11
198.462
 21
131.724
  0
LINE
  8
0
 10
198.462
 20
131.724
 11
198.51
 21
131.819
  0
LINE
  8
0
 10
198.51
 20
131.819
 11
198.565
 21
131.911
  0
LINE
  8
0
 10
198.565
 20
131.911
 11
198.625
 21
131.999
  0
LINE
  8
0
 10
198.625
 20
131.999
 11
198.69
 21
132.084
  0
LINE
  8
0
 10
198.69
 20
132.084
 11
198.761
 21
132.164
  0
LINE
  8
0
 10
198.761
 20
132.164
 11
198.836
 21
132.239
  0
LINE
  8
0
 10
198.836
 20
132.239
 11
198.916
 21
132.31
  0
LINE
  8
0
 10
198.916
 20
132.31
 11
199.001
 21
132.375
  0
LINE
  8
0
 10
199.001
 20
132.375
 11
199.089
 21
132.435
  0
LINE
  8
0
 10
199.089
 20
132.435
 11
199.181
 21
132.49
  0
LINE
  8
0
 10
199.181
 20
132.49
 11
199.276
 21
132.538
  0
LINE
  8
0
 10
199.276
 20
132.538
 11
199.374
 21
132.581
  0
LINE
  8
0
 10
199.374
 20
132.581
 11
199.475
 21
132.617
  0
LINE
  8
0
 10
199.475
 20
132.617
 11
199.577
 21
132.647
  0
LINE
  8
0
 10
199.577
 20
132.647
 11
199.681
 21
132.67
  0
LINE
  8
0
 10
199.681
 20
132.67
 11
199.787
 21
132.687
  0
LINE
  8
0
 10
199.787
 20
132.687
 11
199.893
 21
132.697
  0
LINE
  8
0
 10
199.893
 20
132.697
 11
200
 21
132.7
  0
LINE
  8
0
 10
200
 20
132.7
 11
200.107
 21
132.697
  0
LINE
  8
0
 10
200.107
 20
132.697
 11
200.213
 21
132.687
  0
LINE
  8
0
 10
200.213
 20
132.687
 11
200.319
 21
132.67
  0
LINE
  8
0
 10
200.319
 20
132.67
 11
200.423
 21
132.647
  0
LINE
  8
0
 10
200.423
 20
132.647
 11
200.525
 21
132.617
  0
LINE
  8
0
 10
200.525
 20
132.617
 11
200.626
 21
132.581
  0
LINE
  8
0
 10
200.626
 20
132.581
 11
200.724
 21
132.538
  0
LINE
  8
0
 10
200.724
 20
132.538
 11
200.819
 21
132.49
  0
LINE
  8
0
 10
200.819
 20
132.49
 11
200.911
 21
132.435
  0
LINE
  8
0
 10
200.911
 20
132.435
 11
200.999
 21
132.375
  0
LINE
  8
0
 10
200.999
 20
132.375
 11
201.084
 21
132.31
  0
LINE
  8
0
 10
201.084
 20
132.31
 11
201.164
 21
132.239
  0
LINE
  8
0
 10
201.164
 20
132.239
 11
201.239
 21
132.164
  0
LINE
  8
0
 10
201.239
 20
132.164
 11
201.31
 21
132.084
  0
LINE
  8
0
 10
201.31
 20
132.084
 11
201.375
 21
131.999
  0
LINE
  8
0
 10
201.375
 20
131.999
 11
201.435
 21
131.911
  0
LINE
  8
0
 10
201.435
 20
131.911
 11
201.49
 21
131.819
  0
LINE
  8
0
 10
201.49
 20
131.819
 11
201.538
 21
131.724
  0
LINE
  8
0
 10
201.538
 20
131.724
 11
201.581
 21
131.626
  0
LINE
  8
0
 10
201.581
 20
131.626
 11
201.617
 21
131.525
  0
LINE
  8
0
 10
201.617
 20
131.525
 11
201.647
 21
131.423
  0
LINE
  8
0
 10
201.647
 20
131.423
 11
201.67
 21
131.319
  0
LINE
  8
0
 10
201.67
 20
131.319
 11
201.687
 21
131.213
  0
LINE
  8
0
 10
201.687
 20
131.213
 11
201.697
 21
131.107
  0
LINE
  8
0
 10
201.697
 20
131.107
 11
201.7
 21
131
  0
LINE
  8
0
 10
201.7
 20
131
 11
201.697
 21
130.893
  0
LINE
  8
0
 10
201.697
 20
130.893
 11
201.687
 21
130.787
  0
LINE
  8
0
 10
201.687
 20
130.787
 11
201.67
 21
130.681
  0
LINE
  8
0
 10
201.67
 20
130.681
 11
201.647
 21
130.577
  0
LINE
  8
0
 10
201.647
 20
130.577
 11
201.617
 21
130.475
  0
LINE
  8
0
 10
201.617
 20
130.475
 11
201.581
 21
130.374
  0
LINE
  8
0
 10
201.581
 20
130.374
 11
201.538
 21
130.276
  0
LINE
  8
0
 10
201.538
 20
130.276
 11
201.49
 21
130.181
  0
LINE
  8
0
 10
201.49
 20
130.181
 11
201.435
 21
130.089
  0
LINE
  8
0
 10
201.435
 20
130.089
 11
201.375
 21
130.001
  0
LINE
  8
0
 10
201.375
 20
130.001
 11
201.31
 21
129.916
  0
LINE
  8
0
 10
201.31
 20
129.916
 11
201.239
 21
129.836
  0
LINE
  8
0
 10
201.239
 20
129.836
 11
201.164
 21
129.761
  0
LINE
  8
0
 10
201.164
 20
129.761
 11
201.084
 21
129.69
  0
LINE
  8
0
 10
201.084
 20
129.69
 11
200.999
 21
129.625
  0
LINE
  8
0
 10
200.999
 20
129.625
 11
200.911
 21
129.565
  0
LINE
  8
0
 10
200.911
 20
129.565
 11
200.819
 21
129.51
  0
LINE
  8
0
 10
200.819
 20
129.51
 11
200.724
 21
129.462
  0
LINE
  8
0
 10
200.724
 20
129.462
 11
200.626
 21
129.419
  0
LINE
  8
0
 10
200.626
 20
129.419
 11
200.525
 21
129.383
  0
LINE
  8
0
 10
200.525
 20
129.383
 11
200.423
 21
129.353
  0
LINE
  8
0
 10
200.423
 20
129.353
 11
200.319
 21
129.33
  0
LINE
  8
0
 10
200.319
 20
129.33
 11
200.213
 21
129.313
  0
LINE
  8
0
 10
200.213
 20
129.313
 11
200.107
 21
129.303
  0
LINE
  8
0
 10
200.107
 20
129.303
 11
200
 21
129.3
  0
LINE
  8
0
 10
200
 20
129.3
 11
199.893
 21
129.303
  0
LINE
  8
0
 10
4.89325
 20
129.303
 11
4.78693
 21
129.313
  0
LINE
  8
0
 10
4.78693
 20
129.313
 11
4.68144
 21
129.33
  0
LINE
  8
0
 10
4.68144
 20
129.33
 11
4.57722
 21
129.353
  0
LINE
  8
0
 10
4.57722
 20
129.353
 11
4.47467
 21
129.383
  0
LINE
  8
0
 10
4.47467
 20
129.383
 11
4.37418
 21
129.419
  0
LINE
  8
0
 10
4.37418
 20
129.419
 11
4.27617
 21
129.462
  0
LINE
  8
0
 10
4.27617
 20
129.462
 11
4.18102
 21
129.51
  0
LINE
  8
0
 10
4.18102
 20
129.51
 11
4.08908
 21
129.565
  0
LINE
  8
0
 10
4.08908
 20
129.565
 11
4.00076
 21
129.625
  0
LINE
  8
0
 10
4.00076
 20
129.625
 11
3.91637
 21
129.69
  0
LINE
  8
0
 10
3.91637
 20
129.69
 11
3.83626
 21
129.761
  0
LINE
  8
0
 10
3.83626
 20
129.761
 11
3.76074
 21
129.836
  0
LINE
  8
0
 10
3.76074
 20
129.836
 11
3.69012
 21
129.916
  0
LINE
  8
0
 10
3.69012
 20
129.916
 11
3.62466
 21
130.001
  0
LINE
  8
0
 10
3.62466
 20
130.001
 11
3.56464
 21
130.089
  0
LINE
  8
0
 10
3.56464
 20
130.089
 11
3.51027
 21
130.181
  0
LINE
  8
0
 10
3.51027
 20
130.181
 11
3.46179
 21
130.276
  0
LINE
  8
0
 10
3.46179
 20
130.276
 11
3.41937
 21
130.374
  0
LINE
  8
0
 10
3.41937
 20
130.374
 11
3.38319
 21
130.475
  0
LINE
  8
0
 10
3.38319
 20
130.475
 11
3.35339
 21
130.577
  0
LINE
  8
0
 10
3.35339
 20
130.577
 11
3.33011
 21
130.681
  0
LINE
  8
0
 10
3.33011
 20
130.681
 11
3.3134
 21
130.787
  0
LINE
  8
0
 10
3.3134
 20
130.787
 11
3.30334
 21
130.893
  0
LINE
  8
0
 10
3.30334
 20
130.893
 11
3.29999
 21
131
  0
LINE
  8
0
 10
3.29999
 20
131
 11
3.30334
 21
131.107
  0
LINE
  8
0
 10
3.30334
 20
131.107
 11
3.3134
 21
131.213
  0
LINE
  8
0
 10
3.3134
 20
131.213
 11
3.33011
 21
131.319
  0
LINE
  8
0
 10
3.33011
 20
131.319
 11
3.35339
 21
131.423
  0
LINE
  8
0
 10
3.35339
 20
131.423
 11
3.38319
 21
131.525
  0
LINE
  8
0
 10
3.38319
 20
131.525
 11
3.41937
 21
131.626
  0
LINE
  8
0
 10
3.41937
 20
131.626
 11
3.46179
 21
131.724
  0
LINE
  8
0
 10
3.46179
 20
131.724
 11
3.51027
 21
131.819
  0
LINE
  8
0
 10
3.51027
 20
131.819
 11
3.56464
 21
131.911
  0
LINE
  8
0
 10
3.56464
 20
131.911
 11
3.62466
 21
131.999
  0
LINE
  8
0
 10
3.62466
 20
131.999
 11
3.69012
 21
132.084
  0
LINE
  8
0
 10
3.69012
 20
132.084
 11
3.76074
 21
132.164
  0
LINE
  8
0
 10
3.76074
 20
132.164
 11
3.83626
 21
132.239
  0
LINE
  8
0
 10
3.83626
 20
132.239
 11
3.91637
 21
132.31
  0
LINE
  8
0
 10
3.91637
 20
132.31
 11
4.00076
 21
132.375
  0
LINE
  8
0
 10
4.00076
 20
132.375
 11
4.08908
 21
132.435
  0
LINE
  8
0
 10
4.08908
 20
132.435
 11
4.18102
 21
132.49
  0
LINE
  8
0
 10
4.18102
 20
132.49
 11
4.27617
 21
132.538
  0
LINE
  8
0
 10
4.27617
 20
132.538
 11
4.37418
 21
132.581
  0
LINE
  8
0
 10
4.37418
 20
132.581
 11
4.47467
 21
132.617
  0
LINE
  8
0
 10
4.47467
 20
132.617
 11
4.57722
 21
132.647
  0
LINE
  8
0
 10
4.57722
 20
132.647
 11
4.68144
 21
132.67
  0
LINE
  8
0
 10
4.68144
 20
132.67
 11
4.78693
 21
132.687
  0
LINE
  8
0
 10
4.78693
 20
132.687
 11
4.89325
 21
132.697
  0
LINE
  8
0
 10
4.89325
 20
132.697
 11
5
 21
132.7
  0
LINE
  8
0
 10
5
 20
132.7
 11
5.10674
 21
132.697
  0
LINE
  8
0
 10
5.10674
 20
132.697
 11
5.21306
 21
132.687
  0
LINE
  8
0
 10
5.21306
 20
132.687
 11
5.31854
 21
132.67
  0
LINE
  8
0
 10
5.31854
 20
132.67
 11
5.42276
 21
132.647
  0
LINE
  8
0
 10
5.42276
 20
132.647
 11
5.52531
 21
132.617
  0
LINE
  8
0
 10
5.52531
 20
132.617
 11
5.62581
 21
132.581
  0
LINE
  8
0
 10
5.62581
 20
132.581
 11
5.72382
 21
132.538
  0
LINE
  8
0
 10
5.72382
 20
132.538
 11
5.81897
 21
132.49
  0
LINE
  8
0
 10
5.81897
 20
132.49
 11
5.9109
 21
132.435
  0
LINE
  8
0
 10
5.9109
 20
132.435
 11
5.99922
 21
132.375
  0
LINE
  8
0
 10
5.99922
 20
132.375
 11
6.08362
 21
132.31
  0
LINE
  8
0
 10
6.08362
 20
132.31
 11
6.16373
 21
132.239
  0
LINE
  8
0
 10
6.16373
 20
132.239
 11
6.23924
 21
132.164
  0
LINE
  8
0
 10
6.23924
 20
132.164
 11
6.30986
 21
132.084
  0
LINE
  8
0
 10
6.30986
 20
132.084
 11
6.37532
 21
131.999
  0
LINE
  8
0
 10
6.37532
 20
131.999
 11
6.43535
 21
131.911
  0
LINE
  8
0
 10
6.43535
 20
131.911
 11
6.48972
 21
131.819
  0
LINE
  8
0
 10
6.48972
 20
131.819
 11
6.53819
 21
131.724
  0
LINE
  8
0
 10
6.53819
 20
131.724
 11
6.58061
 21
131.626
  0
LINE
  8
0
 10
6.58061
 20
131.626
 11
6.61679
 21
131.525
  0
LINE
  8
0
 10
6.61679
 20
131.525
 11
6.64659
 21
131.423
  0
LINE
  8
0
 10
6.64659
 20
131.423
 11
6.66988
 21
131.319
  0
LINE
  8
0
 10
6.66988
 20
131.319
 11
6.68658
 21
131.213
  0
LINE
  8
0
 10
6.68658
 20
131.213
 11
6.69664
 21
131.107
  0
LINE
  8
0
 10
6.69664
 20
131.107
 11
6.7
 21
131
  0
LINE
  8
0
 10
6.7
 20
131
 11
6.69664
 21
130.893
  0
LINE
  8
0
 10
6.69664
 20
130.893
 11
6.68658
 21
130.787
  0
LINE
  8
0
 10
6.68658
 20
130.787
 11
6.66988
 21
130.681
  0
LINE
  8
0
 10
6.66988
 20
130.681
 11
6.64659
 21
130.577
  0
LINE
  8
0
 10
6.64659
 20
130.577
 11
6.61679
 21
130.475
  0
LINE
  8
0
 10
6.61679
 20
130.475
 11
6.58061
 21
130.374
  0
LINE
  8
0
 10
6.58061
 20
130.374
 11
6.53819
 21
130.276
  0
LINE
  8
0
 10
6.53819
 20
130.276
 11
6.48972
 21
130.181
  0
LINE
  8
0
 10
6.48972
 20
130.181
 11
6.43535
 21
130.089
  0
LINE
  8
0
 10
6.43535
 20
130.089
 11
6.37532
 21
130.001
  0
LINE
  8
0
 10
6.37532
 20
130.001
 11
6.30986
 21
129.916
  0
LINE
  8
0
 10
6.30986
 20
129.916
 11
6.23924
 21
129.836
  0
LINE
  8
0
 10
6.23924
 20
129.836
 11
6.16373
 21
129.761
  0
LINE
  8
0
 10
6.16373
 20
129.761
 11
6.08362
 21
129.69
  0
LINE
  8
0
 10
6.08362
 20
129.69
 11
5.99922
 21
129.625
  0
LINE
  8
0
 10
5.99922
 20
129.625
 11
5.9109
 21
129.565
  0
LINE
  8
0
 10
5.9109
 20
129.565
 11
5.81897
 21
129.51
  0
LINE
  8
0
 10
5.81897
 20
129.51
 11
5.72382
 21
129.462
  0
LINE
  8
0
 10
5.72382
 20
129.462
 11
5.62581
 21
129.419
  0
LINE
  8
0
 10
5.62581
 20
129.419
 11
5.52531
 21
129.383
  0
LINE
  8
0
 10
5.52531
 20
129.383
 11
5.42276
 21
129.353
  0
LINE
  8
0
 10
5.42276
 20
129.353
 11
5.31854
 21
129.33
  0
LINE
  8
0
 10
5.31854
 20
129.33
 11
5.21306
 21
129.313
  0
LINE
  8
0
 10
5.21306
 20
129.313
 11
5.10674
 21
129.303
  0
LINE
  8
0
 10
5.10674
 20
129.303
 11
5
 21
129.3
  0
LINE
  8
0
 10
5
 20
129.3
 11
4.89325
 21
129.303
  0
LINE
  8
0
 10
300
 20
123
 11
0
 21
123
  0
LINE
  8
0
 10
0
 20
123
 11
0
 21
63
  0
LINE
  8
0
 10
0
 20
63
 11
300
 21
63
  0
LINE
  8
0
 10
300
 20
63
 11
300
 21
123
  0
LINE
  8
0
 10
4.89325
 20
116.303
 11
4.78693
 21
116.313
  0
LINE
  8
0
 10
4.78693
 20
116.313
 11
4.68144
 21
116.33
  0
LINE
  8
0
 10
4.68144
 20
116.33
 11
4.57722
 21
116.353
  0
LINE
  8
0
 10
4.57722
 20
116.353
 11
4.47467
 21
116.383
  0
LINE
  8
0
 10
4.47467
 20
116.383
 11
4.37418
 21
116.419
  0
LINE
  8
0
 10
4.37418
 20
116.419
 11
4.27617
 21
116.462
  0
LINE
  8
0
 10
4.27617
 20
116.462
 11
4.18102
 21
116.51
  0
LINE
  8
0
 10
4.18102
 20
116.51
 11
4.08908
 21
116.565
  0
LINE
  8
0
 10
4.08908
 20
116.565
 11
4.00076
 21
116.625
  0
LINE
  8
0
 10
4.00076
 20
116.625
 11
3.91637
 21
116.69
  0
LINE
  8
0
 10
3.91637
 20
116.69
 11
3.83626
 21
116.761
  0
LINE
  8
0
 10
3.83626
 20
116.761
 11
3.76074
 21
116.836
  0
LINE
  8
0
 10
3.76074
 20
116.836
 11
3.69012
 21
116.916
  0
LINE
  8
0
 10
3.69012
 20
116.916
 11
3.62466
 21
117.001
  0
LINE
  8
0
 10
3.62466
 20
117.001
 11
3.56464
 21
117.089
  0
LINE
  8
0
 10
3.56464
 20
117.089
 11
3.51027
 21
117.181
  0
LINE
  8
0
 10
3.51027
 20
117.181
 11
3.46179
 21
117.276
  0
LINE
  8
0
 10
3.46179
 20
117.276
 11
3.41937
 21
117.374
  0
LINE
  8
0
 10
3.41937
 20
117.374
 11
3.38319
 21
117.475
  0
LINE
  8
0
 10
3.38319
 20
117.475
 11
3.35339
 21
117.577
  0
LINE
  8
0
 10
3.35339
 20
117.577
 11
3.33011
 21
117.681
  0
LINE
  8
0
 10
3.33011
 20
117.681
 11
3.3134
 21
117.787
  0
LINE
  8
0
 10
3.3134
 20
117.787
 11
3.30334
 21
117.893
  0
LINE
  8
0
 10
3.30334
 20
117.893
 11
3.29999
 21
118
  0
LINE
  8
0
 10
3.29999
 20
118
 11
3.30334
 21
118.107
  0
LINE
  8
0
 10
3.30334
 20
118.107
 11
3.3134
 21
118.213
  0
LINE
  8
0
 10
3.3134
 20
118.213
 11
3.33011
 21
118.319
  0
LINE
  8
0
 10
3.33011
 20
118.319
 11
3.35339
 21
118.423
  0
LINE
  8
0
 10
3.35339
 20
118.423
 11
3.38319
 21
118.525
  0
LINE
  8
0
 10
3.38319
 20
118.525
 11
3.41937
 21
118.626
  0
LINE
  8
0
 10
3.41937
 20
118.626
 11
3.46179
 21
118.724
  0
LINE
  8
0
 10
3.46179
 20
118.724
 11
3.51027
 21
118.819
  0
LINE
  8
0
 10
3.51027
 20
118.819
 11
3.56464
 21
118.911
  0
LINE
  8
0
 10
3.56464
 20
118.911
 11
3.62466
 21
118.999
  0
LINE
  8
0
 10
3.62466
 20
118.999
 11
3.69012
 21
119.084
  0
LINE
  8
0
 10
3.69012
 20
119.084
 11
3.76074
 21
119.164
  0
LINE
  8
0
 10
3.76074
 20
119.164
 11
3.83626
 21
119.239
  0
LINE
  8
0
 10
3.83626
 20
119.239
 11
3.91637
 21
119.31
  0
LINE
  8
0
 10
3.91637
 20
119.31
 11
4.00076
 21
119.375
  0
LINE
  8
0
 10
4.00076
 20
119.375
 11
4.08908
 21
119.435
  0
LINE
  8
0
 10
4.08908
 20
119.435
 11
4.18102
 21
119.49
  0
LINE
  8
0
 10
4.18102
 20
119.49
 11
4.27617
 21
119.538
  0
LINE
  8
0
 10
4.27617
 20
119.538
 11
4.37418
 21
119.581
  0
LINE
  8
0
 10
4.37418
 20
119.581
 11
4.47467
 21
119.617
  0
LINE
  8
0
 10
4.47467
 20
119.617
 11
4.57722
 21
119.647
  0
LINE
  8
0
 10
4.57722
 20
119.647
 11
4.68144
 21
119.67
  0
LINE
  8
0
 10
4.68144
 20
119.67
 11
4.78693
 21
119.687
  0
LINE
  8
0
 10
4.78693
 20
119.687
 11
4.89325
 21
119.697
  0
LINE
  8
0
 10
4.89325
 20
119.697
 11
5
 21
119.7
  0
LINE
  8
0
 10
5
 20
119.7
 11
5.10674
 21
119.697
  0
LINE
  8
0
 10
5.10674
 20
119.697
 11
5.21306
 21
119.687
  0
LINE
  8
0
 10
5.21306
 20
119.687
 11
5.31854
 21
119.67
  0
LINE
  8
0
 10
5.31854
 20
119.67
 11
5.42276
 21
119.647
  0
LINE
  8
0
 10
5.42276
 20
119.647
 11
5.52531
 21
119.617
  0
LINE
  8
0
 10
5.52531
 20
119.617
 11
5.62581
 21
119.581
  0
LINE
  8
0
 10
5.62581
 20
119.581
 11
5.72382
 21
119.538
  0
LINE
  8
0
 10
5.72382
 20
119.538
 11
5.81897
 21
119.49
  0
LINE
  8
0
 10
5.81897
 20
119.49
 11
5.9109
 21
119.435
  0
LINE
  8
0
 10
5.9109
 20
119.435
 11
5.99922
 21
119.375
  0
LINE
  8
0
 10
5.99922
 20
119.375
 11
6.08362
 21
119.31
  0
LINE
  8
0
 10
6.08362
 20
119.31
 11
6.16373
 21
119.239
  0
LINE
  8
0
 10
6.16373
 20
119.239
 11
6.23924
 21
119.164
  0
LINE
  8
0
 10
6.23924
 20
119.164
 11
6.30986
 21
119.084
  0
LINE
  8
0
 10
6.30986
 20
119.084
 11
6.37532
 21
118.999
  0
LINE
  8
0
 10
6.37532
 20
118.999
 11
6.43535
 21
118.911
  0
LINE
  8
0
 10
6.43535
 20
118.911
 11
6.48972
 21
118.819
  0
LINE
  8
0
 10
6.48972
 20
118.819
 11
6.53819
 21
118.724
  0
LINE
  8
0
 10
6.53819
 20
118.724
 11
6.58061
 21
118.626
  0
LINE
  8
0
 10
6.58061
 20
118.626
 11
6.61679
 21
118.525
  0
LINE
  8
0
 10
6.61679
 20
118.525
 11
6.64659
 21
118.423
  0
LINE
  8
0
 10
6.64659
 20
118.423
 11
6.66988
 21
118.319
  0
LINE
  8
0
 10
6.66988
 20
118.319
 11
6.68658
 21
118.213
  0
LINE
  8
0
 10
6.68658
 20
118.213
 11
6.69664
 21
118.107
  0
LINE
  8
0
 10
6.69664
 20
118.107
 11
6.7
 21
118
  0
LINE
  8
0
 10
6.7
 20
118
 11
6.69664
 21
117.893
  0
LINE
  8
0
 10
6.69664
 20
117.893
 11
6.68658
 21
117.787
  0
LINE
  8
0
 10
6.68658
 20
117.787
 11
6.66988
 21
117.681
  0
LINE
  8
0
 10
6.66988
 20
117.681
 11
6.64659
 21
117.577
  0
LINE
  8
0
 10
6.64659
 20
117.577
 11
6.61679
 21
117.475
  0
LINE
  8
0
 10
6.61679
 20
117.475
 11
6.58061
 21
117.374
  0
LINE
  8
0
 10
6.58061
 20
117.374
 11
6.53819
 21
117.276
  0
LINE
  8
0
 10
6.53819
 20
117.276
 11
6.48972
 21
117.181
  0
LINE
  8
0
 10
6.48972
 20
117.181
 11
6.43535
 21
117.089
  0
LINE
  8
0
 10
6.43535
 20
117.089
 11
6.37532
 21
117.001
  0
LINE
  8
0
 10
6.37532
 20
117.001
 11
6.30986
 21
116.916
  0
LINE
  8
0
 10
6.30986
 20
116.916
 11
6.23924
 21
116.836
  0
LINE
  8
0
 10
6.23924
 20
116.836
 11
6.16373
 21
116.761
  0
LINE
  8
0
 10
6.16373
 20
116.761
 11
6.08362
 21
116.69
  0
LINE
  8
0
 10
6.08362
 20
116.69
 11
5.99922
 21
116.625
  0
LINE
  8
0
 10
5.99922
 20
116.625
 11
5.9109
 21
116.565
  0
LINE
  8
0
 10
5.9109
 20
116.565
 11
5.81897
 21
116.51
  0
LINE
  8
0
 10
5.81897
 20
116.51
 11
5.72382
 21
116.462
  0
LINE
  8
0
 10
5.72382
 20
116.462
 11
5.62581
 21
116.419
  0
LINE
  8
0
 10
5.62581
 20
116.419
 11
5.52531
 21
116.383
  0
LINE
  8
0
 10
5.52531
 20
116.383
 11
5.42276
 21
116.353
  0
LINE
  8
0
 10
5.42276
 20
116.353
 11
5.31854
 21
116.33
  0
LINE
  8
0
 10
5.31854
 20
116.33
 11
5.21306
 21
116.313
  0
LINE
  8
0
 10
5.21306
 20
116.313
 11
5.10674
 21
116.303
  0
LINE
  8
0
 10
5.10674
 20
116.303
 11
5
 21
116.3
  0
LINE
  8
0
 10
5
 20
116.3
 11
4.89325
 21
116.303
  0
LINE
  8
0
 10
294.893
 20
116.303
 11
294.787
 21
116.313
  0
LINE
  8
0
 10
294.787
 20
116.313
 11
294.681
 21
116.33
  0
LINE
  8
0
 10
294.681
 20
116.33
 11
294.577
 21
116.353
  0
LINE
  8
0
 10
294.577
 20
116.353
 11
294.475
 21
116.383
  0
LINE
  8
0
 10
294.475
 20
116.383
 11
294.374
 21
116.419
  0
LINE
  8
0
 10
294.374
 20
116.419
 11
294.276
 21
116.462
  0
LINE
  8
0
 10
294.276
 20
116.462
 11
294.181
 21
116.51
  0
LINE
  8
0
 10
294.181
 20
116.51
 11
294.089
 21
116.565
  0
LINE
  8
0
 10
294.089
 20
116.565
 11
294.001
 21
116.625
  0
LINE
  8
0
 10
294.001
 20
116.625
 11
293.916
 21
116.69
  0
LINE
  8
0
 10
293.916
 20
116.69
 11
293.836
 21
116.761
  0
LINE
  8
0
 10
293.836
 20
116.761
 11
293.761
 21
116.836
  0
LINE
  8
0
 10
293.761
 20
116.836
 11
293.69
 21
116.916
  0
LINE
  8
0
 10
293.69
 20
116.916
 11
293.625
 21
117.001
  0
LINE
  8
0
 10
293.625
 20
117.001
 11
293.565
 21
117.089
  0
LINE
  8
0
 10
293.565
 20
117.089
 11
293.51
 21
117.181
  0
LINE
  8
0
 10
293.51
 20
117.181
 11
293.462
 21
117.276
  0
LINE
  8
0
 10
293.462
 20
117.276
 11
293.419
 21
117.374
  0
LINE
  8
0
 10
293.419
 20
117.374
 11
293.383
 21
117.475
  0
LINE
  8
0
 10
293.383
 20
117.475
 11
293.353
 21
117.577
  0
LINE
  8
0
 10
293.353
 20
117.577
 11
293.33
 21
117.681
  0
LINE
  8
0
 10
293.33
 20
117.681
 11
293.313
 21
117.787
  0
LINE
  8
0
 10
293.313
 20
117.787
 11
293.303
 21
117.893
  0
LINE
  8
0
 10
293.303
 20
117.893
 11
293.3
 21
118
  0
LINE
  8
0
 10
293.3
 20
118
 11
293.303
 21
118.107
  0
LINE
  8
0
 10
293.303
 20
118.107
 11
293.313
 21
118.213
  0
LINE
  8
0
 10
293.313
 20
118.213
 11
293.33
 21
118.319
  0
LINE
  8
0
 10
293.33
 20
118.319
 11
293.353
 21
118.423
  0
LINE
  8
0
 10
293.353
 20
118.423
 11
293.383
 21
118.525
  0
LINE
  8
0
 10
293.383
 20
118.525
 11
293.419
 21
118.626
  0
LINE
  8
0
 10
293.419
 20
118.626
 11
293.462
 21
118.724
  0
LINE
  8
0
 10
293.462
 20
118.724
 11
293.51
 21
118.819
  0
LINE
  8
0
 10
293.51
 20
118.819
 11
293.565
 21
118.911
  0
LINE
  8
0
 10
293.565
 20
118.911
 11
293.625
 21
118.999
  0
LINE
  8
0
 10
293.625
 20
118.999
 11
293.69
 21
119.084
  0
LINE
  8
0
 10
293.69
 20
119.084
 11
293.761
 21
119.164
  0
LINE
  8
0
 10
293.761
 20
119.164
 11
293.836
 21
119.239
  0
LINE
  8
0
 10
293.836
 20
119.239
 11
293.916
 21
119.31
  0
LINE
  8
0
 10
293.916
 20
119.31
 11
294.001
 21
119.375
  0
LINE
  8
0
 10
294.001
 20
119.375
 11
294.089
 21
119.435
  0
LINE
  8
0
 10
294.089
 20
119.435
 11
294.181
 21
119.49
  0
LINE
  8
0
 10
294.181
 20
119.49
 11
294.276
 21
119.538
  0
LINE
  8
0
 10
294.276
 20
119.538
 11
294.374
 21
119.581
  0
LINE
  8
0
 10
294.374
 20
119.581
 11
294.475
 21
119.617
  0
LINE
  8
0
 10
294.475
 20
119.617
 11
294.577
 21
119.647
  0
LINE
  8
0
 10
294.577
 20
119.647
 11
294.681
 21
119.67
  0
LINE
  8
0
 10
294.681
 20
119.67
 11
294.787
 21
119.687
  0
LINE
  8
0
 10
294.787
 20
119.687
 11
294.893
 21
119.697
  0
LINE
  8
0
 10
294.893
 20
119.697
 11
295
 21
119.7
  0
LINE
  8
0
 10
295
 20
119.7
 11
295.107
 21
119.697
  0
LINE
  8
0
 10
295.107
 20
119.697
 11
295.213
 21
119.687
  0
LINE
  8
0
 10
295.213
 20
119.687
 11
295.319
 21
119.67
  0
LINE
  8
0
 10
295.319
 20
119.67
 11
295.423
 21
119.647
  0
LINE
  8
0
 10
295.423
 20
119.647
 11
295.525
 21
119.617
  0
LINE
  8
0
 10
295.525
 20
119.617
 11
295.626
 21
119.581
  0
LINE
  8
0
 10
295.626
 20
119.581
 11
295.724
 21
119.538
  0
LINE
  8
0
 10
295.724
 20
119.538
 11
295.819
 21
119.49
  0
LINE
  8
0
 10
295.819
 20
119.49
 11
295.911
 21
119.435
  0
LINE
  8
0
 10
295.911
 20
119.435
 11
295.999
 21
119.375
  0
LINE
  8
0
 10
295.999
 20
119.375
 11
296.084
 21
119.31
  0
LINE
  8
0
 10
296.084
 20
119.31
 11
296.164
 21
119.239
  0
LINE
  8
0
 10
296.164
 20
119.239
 11
296.239
 21
119.164
  0
LINE
  8
0
 10
296.239
 20
119.164
 11
296.31
 21
119.084
  0
LINE
  8
0
 10
296.31
 20
119.084
 11
296.375
 21
118.999
  0
LINE
  8
0
 10
296.375
 20
118.999
 11
296.435
 21
118.911
  0
LINE
  8
0
 10
296.435
 20
118.911
 11
296.49
 21
118.819
  0
LINE
  8
0
 10
296.49
 20
118.819
 11
296.538
 21
118.724
  0
LINE
  8
0
 10
296.538
 20
118.724
 11
296.581
 21
118.626
  0
LINE
  8
0
 10
296.581
 20
118.626
 11
296.617
 21
118.525
  0
LINE
  8
0
 10
296.617
 20
118.525
 11
296.647
 21
118.423
  0
LINE
  8
0
 10
296.647
 20
118.423
 11
296.67
 21
118.319
  0
LINE
  8
0
 10
296.67
 20
118.319
 11
296.687
 21
118.213
  0
LINE
  8
0
 10
296.687
 20
118.213
 11
296.697
 21
118.107
  0
LINE
  8
0
 10
296.697
 20
118.107
 11
296.7
 21
118
  0
LINE
  8
0
 10
296.7
 20
118
 11
296.697
 21
117.893
  0
LINE
  8
0
 10
296.697
 20
117.893
 11
296.687
 21
117.787
  0
LINE
  8
0
 10
296.687
 20
117.787
 11
296.67
 21
117.681
  0
LINE
  8
0
 10
296.67
 20
117.681
 11
296.647
 21
117.577
  0
LINE
  8
0
 10
296.647
 20
117.577
 11
296.617
 21
117.475
  0
LINE
  8
0
 10
296.617
 20
117.475
 11
296.581
 21
117.374
  0
LINE
  8
0
 10
296.581
 20
117.374
 11
296.538
 21
117.276
  0
LINE
  8
0
 10
296.538
 20
117.276
 11
296.49
 21
117.181
  0
LINE
  8
0
 10
296.49
 20
117.181
 11
296.435
 21
117.089
  0
LINE
  8
0
 10
296.435
 20
117.089
 11
296.375
 21
117.001
  0
LINE
  8
0
 10
296.375
 20
117.001
 11
296.31
 21
116.916
  0
LINE
  8
0
 10
296.31
 20
116.916
 11
296.239
 21
116.836
  0
LINE
  8
0
 10
296.239
 20
116.836
 11
296.164
 21
116.761
  0
LINE
  8
0
 10
296.164
 20
116.761
 11
296.084
 21
116.69
  0
LINE
  8
0
 10
296.084
 20
116.69
 11
295.999
 21
116.625
  0
LINE
  8
0
 10
295.999
 20
116.625
 11
295.911
 21
116.565
  0
LINE
  8
0
 10
295.911
 20
116.565
 11
295.819
 21
116.51
  0
LINE
  8
0
 10
295.819
 20
116.51
 11
295.724
 21
116.462
  0
LINE
  8
0
 10
295.724
 20
116.462
 11
295.626
 21
116.419
  0
LINE
  8
0
 10
295.626
 20
116.419
 11
295.525
 21
116.383
  0
LINE
  8
0
 10
295.525
 20
116.383
 11
295.423
 21
116.353
  0
LINE
  8
0
 10
295.423
 20
116.353
 11
295.319
 21
116.33
  0
LINE
  8
0
 10
295.319
 20
116.33
 11
295.213
 21
116.313
  0
LINE
  8
0
 10
295.213
 20
116.313
 11
295.107
 21
116.303
  0
LINE
  8
0
 10
295.107
 20
116.303
 11
295
 21
116.3
  0
LINE
  8
0
 10
295
 20
116.3
 11
294.893
 21
116.303
  0
LINE
  8
0
 10
62.8932
 20
98.3033
 11
62.7869
 21
98.3134
  0
LINE
  8
0
 10
62.7869
 20
98.3134
 11
62.6814
 21
98.3301
  0
LINE
  8
0
 10
62.6814
 20
98.3301
 11
62.5772
 21
98.3534
  0
LINE
  8
0
 10
62.5772
 20
98.3534
 11
62.4747
 21
98.3832
  0
LINE
  8
0
 10
62.4747
 20
98.3832
 11
62.3742
 21
98.4194
  0
LINE
  8
0
 10
62.3742
 20
98.4194
 11
62.2762
 21
98.4618
  0
LINE
  8
0
 10
62.2762
 20
98.4618
 11
62.181
 21
98.5103
  0
LINE
  8
0
 10
62.181
 20
98.5103
 11
62.0891
 21
98.5646
  0
LINE
  8
0
 10
62.0891
 20
98.5646
 11
62.0008
 21
98.6247
  0
LINE
  8
0
 10
62.0008
 20
98.6247
 11
61.9164
 21
98.6901
  0
LINE
  8
0
 10
61.9164
 20
98.6901
 11
61.8363
 21
98.7607
  0
LINE
  8
0
 10
61.8363
 20
98.7607
 11
61.7607
 21
98.8363
  0
LINE
  8
0
 10
61.7607
 20
98.8363
 11
61.6901
 21
98.9164
  0
LINE
  8
0
 10
61.6901
 20
98.9164
 11
61.6247
 21
99.0008
  0
LINE
  8
0
 10
61.6247
 20
99.0008
 11
61.5646
 21
99.0891
  0
LINE
  8
0
 10
61.5646
 20
99.0891
 11
61.5103
 21
99.181
  0
LINE
  8
0
 10
61.5103
 20
99.181
 11
61.4618
 21
99.2762
  0
LINE
  8
0
 10
61.4618
 20
99.2762
 11
61.4194
 21
99.3742
  0
LINE
  8
0
 10
61.4194
 20
99.3742
 11
61.3832
 21
99.4747
  0
LINE
  8
0
 10
61.3832
 20
99.4747
 11
61.3534
 21
99.5772
  0
LINE
  8
0
 10
61.3534
 20
99.5772
 11
61.3301
 21
99.6814
  0
LINE
  8
0
 10
61.3301
 20
99.6814
 11
61.3134
 21
99.7869
  0
LINE
  8
0
 10
61.3134
 20
99.7869
 11
61.3033
 21
99.8932
  0
LINE
  8
0
 10
61.3033
 20
99.8932
 11
61.3
 21
100
  0
LINE
  8
0
 10
61.3
 20
100
 11
61.3033
 21
100.107
  0
LINE
  8
0
 10
61.3033
 20
100.107
 11
61.3134
 21
100.213
  0
LINE
  8
0
 10
61.3134
 20
100.213
 11
61.3301
 21
100.319
  0
LINE
  8
0
 10
61.3301
 20
100.319
 11
61.3534
 21
100.423
  0
LINE
  8
0
 10
61.3534
 20
100.423
 11
61.3832
 21
100.525
  0
LINE
  8
0
 10
61.3832
 20
100.525
 11
61.4194
 21
100.626
  0
LINE
  8
0
 10
61.4194
 20
100.626
 11
61.4618
 21
100.724
  0
LINE
  8
0
 10
61.4618
 20
100.724
 11
61.5103
 21
100.819
  0
LINE
  8
0
 10
61.5103
 20
100.819
 11
61.5646
 21
100.911
  0
LINE
  8
0
 10
61.5646
 20
100.911
 11
61.6247
 21
100.999
  0
LINE
  8
0
 10
61.6247
 20
100.999
 11
61.6901
 21
101.084
  0
LINE
  8
0
 10
61.6901
 20
101.084
 11
61.7607
 21
101.164
  0
LINE
  8
0
 10
61.7607
 20
101.164
 11
61.8363
 21
101.239
  0
LINE
  8
0
 10
61.8363
 20
101.239
 11
61.9164
 21
101.31
  0
LINE
  8
0
 10
61.9164
 20
101.31
 11
62.0008
 21
101.375
  0
LINE
  8
0
 10
62.0008
 20
101.375
 11
62.0891
 21
101.435
  0
LINE
  8
0
 10
62.0891
 20
101.435
 11
62.181
 21
101.49
  0
LINE
  8
0
 10
62.181
 20
101.49
 11
62.2762
 21
101.538
  0
LINE
  8
0
 10
62.2762
 20
101.538
 11
62.3742
 21
101.581
  0
LINE
  8
0
 10
62.3742
 20
101.581
 11
62.4747
 21
101.617
  0
LINE
  8
0
 10
62.4747
 20
101.617
 11
62.5772
 21
101.647
  0
LINE
  8
0
 10
62.5772
 20
101.647
 11
62.6814
 21
101.67
  0
LINE
  8
0
 10
62.6814
 20
101.67
 11
62.7869
 21
101.687
  0
LINE
  8
0
 10
62.7869
 20
101.687
 11
62.8932
 21
101.697
  0
LINE
  8
0
 10
62.8932
 20
101.697
 11
63
 21
101.7
  0
LINE
  8
0
 10
63
 20
101.7
 11
63.1067
 21
101.697
  0
LINE
  8
0
 10
63.1067
 20
101.697
 11
63.2131
 21
101.687
  0
LINE
  8
0
 10
63.2131
 20
101.687
 11
63.3185
 21
101.67
  0
LINE
  8
0
 10
63.3185
 20
101.67
 11
63.4228
 21
101.647
  0
LINE
  8
0
 10
63.4228
 20
101.647
 11
63.5253
 21
101.617
  0
LINE
  8
0
 10
63.5253
 20
101.617
 11
63.6258
 21
101.581
  0
LINE
  8
0
 10
63.6258
 20
101.581
 11
63.7238
 21
101.538
  0
LINE
  8
0
 10
63.7238
 20
101.538
 11
63.819
 21
101.49
  0
LINE
  8
0
 10
63.819
 20
101.49
 11
63.9109
 21
101.435
  0
LINE
  8
0
 10
63.9109
 20
101.435
 11
63.9992
 21
101.375
  0
LINE
  8
0
 10
63.9992
 20
101.375
 11
64.0836
 21
101.31
  0
LINE
  8
0
 10
64.0836
 20
101.31
 11
64.1637
 21
101.239
  0
LINE
  8
0
 10
64.1637
 20
101.239
 11
64.2392
 21
101.164
  0
LINE
  8
0
 10
64.2392
 20
101.164
 11
64.3099
 21
101.084
  0
LINE
  8
0
 10
64.3099
 20
101.084
 11
64.3753
 21
100.999
  0
LINE
  8
0
 10
64.3753
 20
100.999
 11
64.4353
 21
100.911
  0
LINE
  8
0
 10
64.4353
 20
100.911
 11
64.4897
 21
100.819
  0
LINE
  8
0
 10
64.4897
 20
100.819
 11
64.5382
 21
100.724
  0
LINE
  8
0
 10
64.5382
 20
100.724
 11
64.5806
 21
100.626
  0
LINE
  8
0
 10
64.5806
 20
100.626
 11
64.6168
 21
100.525
  0
LINE
  8
0
 10
64.6168
 20
100.525
 11
64.6466
 21
100.423
  0
LINE
  8
0
 10
64.6466
 20
100.423
 11
64.6699
 21
100.319
  0
LINE
  8
0
 10
64.6699
 20
100.319
 11
64.6866
 21
100.213
  0
LINE
  8
0
 10
64.6866
 20
100.213
 11
64.6966
 21
100.107
  0
LINE
  8
0
 10
64.6966
 20
100.107
 11
64.7
 21
100
  0
LINE
  8
0
 10
64.7
 20
100
 11
64.6966
 21
99.8932
  0
LINE
  8
0
 10
64.6966
 20
99.8932
 11
64.6866
 21
99.7869
  0
LINE
  8
0
 10
64.6866
 20
99.7869
 11
64.6699
 21
99.6814
  0
LINE
  8
0
 10
64.6699
 20
99.6814
 11
64.6466
 21
99.5772
  0
LINE
  8
0
 10
64.6466
 20
99.5772
 11
64.6168
 21
99.4747
  0
LINE
  8
0
 10
64.6168
 20
99.4747
 11
64.5806
 21
99.3742
  0
LINE
  8
0
 10
64.5806
 20
99.3742
 11
64.5382
 21
99.2762
  0
LINE
  8
0
 10
64.5382
 20
99.2762
 11
64.4897
 21
99.181
  0
LINE
  8
0
 10
64.4897
 20
99.181
 11
64.4353
 21
99.0891
  0
LINE
  8
0
 10
64.4353
 20
99.0891
 11
64.3753
 21
99.0008
  0
LINE
  8
0
 10
64.3753
 20
99.0008
 11
64.3099
 21
98.9164
  0
LINE
  8
0
 10
64.3099
 20
98.9164
 11
64.2392
 21
98.8363
  0
LINE
  8
0
 10
64.2392
 20
98.8363
 11
64.1637
 21
98.7607
  0
LINE
  8
0
 10
64.1637
 20
98.7607
 11
64.0836
 21
98.6901
  0
LINE
  8
0
 10
64.0836
 20
98.6901
 11
63.9992
 21
98.6247
  0
LINE
  8
0
 10
63.9992
 20
98.6247
 11
63.9109
 21
98.5646
  0
LINE
  8
0
 10
63.9109
 20
98.5646
 11
63.819
 21
98.5103
  0
LINE
  8
0
 10
63.819
 20
98.5103
 11
63.7238
 21
98.4618
  0
LINE
  8
0
 10
63.7238
 20
98.4618
 11
63.6258
 21
98.4194
  0
LINE
  8
0
 10
63.6258
 20
98.4194
 11
63.5253
 21
98.3832
  0
LINE
  8
0
 10
63.5253
 20
98.3832
 11
63.4228
 21
98.3534
  0
LINE
  8
0
 10
63.4228
 20
98.3534
 11
63.3185
 21
98.3301
  0
LINE
  8
0
 10
63.3185
 20
98.3301
 11
63.2131
 21
98.3134
  0
LINE
  8
0
 10
63.2131
 20
98.3134
 11
63.1067
 21
98.3033
  0
LINE
  8
0
 10
63.1067
 20
98.3033
 11
63
 21
98.3
  0
LINE
  8
0
 10
63
 20
98.3
 11
62.8932
 21
98.3033
  0
LINE
  8
0
 10
226.893
 20
98.3033
 11
226.787
 21
98.3134
  0
LINE
  8
0
 10
226.787
 20
98.3134
 11
226.681
 21
98.3301
  0
LINE
  8
0
 10
226.681
 20
98.3301
 11
226.577
 21
98.3534
  0
LINE
  8
0
 10
226.577
 20
98.3534
 11
226.475
 21
98.3832
  0
LINE
  8
0
 10
226.475
 20
98.3832
 11
226.374
 21
98.4194
  0
LINE
  8
0
 10
226.374
 20
98.4194
 11
226.276
 21
98.4618
  0
LINE
  8
0
 10
226.276
 20
98.4618
 11
226.181
 21
98.5103
  0
LINE
  8
0
 10
226.181
 20
98.5103
 11
226.089
 21
98.5646
  0
LINE
  8
0
 10
226.089
 20
98.5646
 11
226.001
 21
98.6247
  0
LINE
  8
0
 10
226.001
 20
98.6247
 11
225.916
 21
98.6901
  0
LINE
  8
0
 10
225.916
 20
98.6901
 11
225.836
 21
98.7607
  0
LINE
  8
0
 10
225.836
 20
98.7607
 11
225.761
 21
98.8363
  0
LINE
  8
0
 10
225.761
 20
98.8363
 11
225.69
 21
98.9164
  0
LINE
  8
0
 10
225.69
 20
98.9164
 11
225.625
 21
99.0008
  0
LINE
  8
0
 10
225.625
 20
99.0008
 11
225.565
 21
99.0891
  0
LINE
  8
0
 10
225.565
 20
99.0891
 11
225.51
 21
99.181
  0
LINE
  8
0
 10
225.51
 20
99.181
 11
225.462
 21
99.2762
  0
LINE
  8
0
 10
225.462
 20
99.2762
 11
225.419
 21
99.3742
  0
LINE
  8
0
 10
225.419
 20
99.3742
 11
225.383
 21
99.4747
  0
LINE
  8
0
 10
225.383
 20
99.4747
 11
225.353
 21
99.5772
  0
LINE
  8
0
 10
225.353
 20
99.5772
 11
225.33
 21
99.6814
  0
LINE
  8
0
 10
225.33
 20
99.6814
 11
225.313
 21
99.7869
  0
LINE
  8
0
 10
225.313
 20
99.7869
 11
225.303
 21
99.8932
  0
LINE
  8
0
 10
225.303
 20
99.8932
 11
225.3
 21
100
  0
LINE
  8
0
 10
225.3
 20
100
 11
225.303
 21
100.107
  0
LINE
  8
0
 10
225.303
 20
100.107
 11
225.313
 21
100.213
  0
LINE
  8
0
 10
225.313
 20
100.213
 11
225.33
 21
100.319
  0
LINE
  8
0
 10
225.33
 20
100.319
 11
225.353
 21
100.423
  0
LINE
  8
0
 10
225.353
 20
100.423
 11
225.383
 21
100.525
  0
LINE
  8
0
 10
225.383
 20
100.525
 11
225.419
 21
100.626
  0
LINE
  8
0
 10
225.419
 20
100.626
 11
225.462
 21
100.724
  0
LINE
  8
0
 10
225.462
 20
100.724
 11
225.51
 21
100.819
  0
LINE
  8
0
 10
225.51
 20
100.819
 11
225.565
 21
100.911
  0
LINE
  8
0
 10
225.565
 20
100.911
 11
225.625
 21
100.999
  0
LINE
  8
0
 10
225.625
 20
100.999
 11
225.69
 21
101.084
  0
LINE
  8
0
 10
225.69
 20
101.084
 11
225.761
 21
101.164
  0
LINE
  8
0
 10
225.761
 20
101.164
 11
225.836
 21
101.239
  0
LINE
  8
0
 10
225.836
 20
101.239
 11
225.916
 21
101.31
  0
LINE
  8
0
 10
225.916
 20
101.31
 11
226.001
 21
101.375
  0
LINE
  8
0
 10
226.001
 20
101.375
 11
226.089
 21
101.435
  0
LINE
  8
0
 10
226.089
 20
101.435
 11
226.181
 21
101.49
  0
LINE
  8
0
 10
226.181
 20
101.49
 11
226.276
 21
101.538
  0
LINE
  8
0
 10
226.276
 20
101.538
 11
226.374
 21
101.581
  0
LINE
  8
0
 10
226.374
 20
101.581
 11
226.475
 21
101.617
  0
LINE
  8
0
 10
226.475
 20
101.617
 11
226.577
 21
101.647
  0
LINE
  8
0
 10
226.577
 20
101.647
 11
226.681
 21
101.67
  0
LINE
  8
0
 10
226.681
 20
101.67
 11
226.787
 21
101.687
  0
LINE
  8
0
 10
226.787
 20
101.687
 11
226.893
 21
101.697
  0
LINE
  8
0
 10
226.893
 20
101.697
 11
227
 21
101.7
  0
LINE
  8
0
 10
227
 20
101.7
 11
227.107
 21
101.697
  0
LINE
  8
0
 10
227.107
 20
101.697
 11
227.213
 21
101.687
  0
LINE
  8
0
 10
227.213
 20
101.687
 11
227.319
 21
101.67
  0
LINE
  8
0
 10
227.319
 20
101.67
 11
227.423
 21
101.647
  0
LINE
  8
0
 10
227.423
 20
101.647
 11
227.525
 21
101.617
  0
LINE
  8
0
 10
227.525
 20
101.617
 11
227.626
 21
101.581
  0
LINE
  8
0
 10
227.626
 20
101.581
 11
227.724
 21
101.538
  0
LINE
  8
0
 10
227.724
 20
101.538
 11
227.819
 21
101.49
  0
LINE
  8
0
 10
227.819
 20
101.49
 11
227.911
 21
101.435
  0
LINE
  8
0
 10
227.911
 20
101.435
 11
227.999
 21
101.375
  0
LINE
  8
0
 10
227.999
 20
101.375
 11
228.084
 21
101.31
  0
LINE
  8
0
 10
228.084
 20
101.31
 11
228.164
 21
101.239
  0
LINE
  8
0
 10
228.164
 20
101.239
 11
228.239
 21
101.164
  0
LINE
  8
0
 10
228.239
 20
101.164
 11
228.31
 21
101.084
  0
LINE
  8
0
 10
228.31
 20
101.084
 11
228.375
 21
100.999
  0
LINE
  8
0
 10
228.375
 20
100.999
 11
228.435
 21
100.911
  0
LINE
  8
0
 10
228.435
 20
100.911
 11
228.49
 21
100.819
  0
LINE
  8
0
 10
228.49
 20
100.819
 11
228.538
 21
100.724
  0
LINE
  8
0
 10
228.538
 20
100.724
 11
228.581
 21
100.626
  0
LINE
  8
0
 10
228.581
 20
100.626
 11
228.617
 21
100.525
  0
LINE
  8
0
 10
228.617
 20
100.525
 11
228.647
 21
100.423
  0
LINE
  8
0
 10
228.647
 20
100.423
 11
228.67
 21
100.319
  0
LINE
  8
0
 10
228.67
 20
100.319
 11
228.687
 21
100.213
  0
LINE
  8
0
 10
228.687
 20
100.213
 11
228.697
 21
100.107
  0
LINE
  8
0
 10
228.697
 20
100.107
 11
228.7
 21
100
  0
LINE
  8
0
 10
228.7
 20
100
 11
228.697
 21
99.8932
  0
LINE
  8
0
 10
228.697
 20
99.8932
 11
228.687
 21
99.7869
  0
LINE
  8
0
 10
228.687
 20
99.7869
 11
228.67
 21
99.6814
  0
LINE
  8
0
 10
228.67
 20
99.6814
 11
228.647
 21
99.5772
  0
LINE
  8
0
 10
228.647
 20
99.5772
 11
228.617
 21
99.4747
  0
LINE
  8
0
 10
228.617
 20
99.4747
 11
228.581
 21
99.3742
  0
LINE
  8
0
 10
228.581
 20
99.3742
 11
228.538
 21
99.2762
  0
LINE
  8
0
 10
228.538
 20
99.2762
 11
228.49
 21
99.181
  0
LINE
  8
0
 10
228.49
 20
99.181
 11
228.435
 21
99.0891
  0
LINE
  8
0
 10
228.435
 20
99.0891
 11
228.375
 21
99.0008
  0
LINE
  8
0
 10
228.375
 20
99.0008
 11
228.31
 21
98.9164
  0
LINE
  8
0
 10
228.31
 20
98.9164
 11
228.239
 21
98.8363
  0
LINE
  8
0
 10
228.239
 20
98.8363
 11
228.164
 21
98.7607
  0
LINE
  8
0
 10
228.164
 20
98.7607
 11
228.084
 21
98.6901
  0
LINE
  8
0
 10
228.084
 20
98.6901
 11
227.999
 21
98.6247
  0
LINE
  8
0
 10
227.999
 20
98.6247
 11
227.911
 21
98.5646
  0
LINE
  8
0
 10
227.911
 20
98.5646
 11
227.819
 21
98.5103
  0
LINE
  8
0
 10
227.819
 20
98.5103
 11
227.724
 21
98.4618
  0
LINE
  8
0
 10
227.724
 20
98.4618
 11
227.626
 21
98.4194
  0
LINE
  8
0
 10
227.626
 20
98.4194
 11
227.525
 21
98.3832
  0
LINE
  8
0
 10
227.525
 20
98.3832
 11
227.423
 21
98.3534
  0
LINE
  8
0
 10
227.423
 20
98.3534
 11
227.319
 21
98.3301
  0
LINE
  8
0
 10
227.319
 20
98.3301
 11
227.213
 21
98.3134
  0
LINE
  8
0
 10
227.213
 20
98.3134
 11
227.107
 21
98.3033
  0
LINE
  8
0
 10
227.107
 20
98.3033
 11
227
 21
98.3
  0
LINE
  8
0
 10
227
 20
98.3
 11
226.893
 21
98.3033
  0
LINE
  8
0
 10
144.893
 20
98.3033
 11
144.787
 21
98.3134
  0
LINE
  8
0
 10
144.787
 20
98.3134
 11
144.681
 21
98.3301
  0
LINE
  8
0
 10
144.681
 20
98.3301
 11
144.577
 21
98.3534
  0
LINE
  8
0
 10
144.577
 20
98.3534
 11
144.475
 21
98.3832
  0
LINE
  8
0
 10
144.475
 20
98.3832
 11
144.374
 21
98.4194
  0
LINE
  8
0
 10
144.374
 20
98.4194
 11
144.276
 21
98.4618
  0
LINE
  8
0
 10
144.276
 20
98.4618
 11
144.181
 21
98.5103
  0
LINE
  8
0
 10
144.181
 20
98.5103
 11
144.089
 21
98.5646
  0
LINE
  8
0
 10
144.089
 20
98.5646
 11
144.001
 21
98.6247
  0
LINE
  8
0
 10
144.001
 20
98.6247
 11
143.916
 21
98.6901
  0
LINE
  8
0
 10
143.916
 20
98.6901
 11
143.836
 21
98.7607
  0
LINE
  8
0
 10
143.836
 20
98.7607
 11
143.761
 21
98.8363
  0
LINE
  8
0
 10
143.761
 20
98.8363
 11
143.69
 21
98.9164
  0
LINE
  8
0
 10
143.69
 20
98.9164
 11
143.625
 21
99.0008
  0
LINE
  8
0
 10
143.625
 20
99.0008
 11
143.565
 21
99.0891
  0
LINE
  8
0
 10
143.565
 20
99.0891
 11
143.51
 21
99.181
  0
LINE
  8
0
 10
143.51
 20
99.181
 11
143.462
 21
99.2762
  0
LINE
  8
0
 10
143.462
 20
99.2762
 11
143.419
 21
99.3742
  0
LINE
  8
0
 10
143.419
 20
99.3742
 11
143.383
 21
99.4747
  0
LINE
  8
0
 10
143.383
 20
99.4747
 11
143.353
 21
99.5772
  0
LINE
  8
0
 10
143.353
 20
99.5772
 11
143.33
 21
99.6814
  0
LINE
  8
0
 10
143.33
 20
99.6814
 11
143.313
 21
99.7869
  0
LINE
  8
0
 10
143.313
 20
99.7869
 11
143.303
 21
99.8932
  0
LINE
  8
0
 10
143.303
 20
99.8932
 11
143.3
 21
100
  0
LINE
  8
0
 10
143.3
 20
100
 11
143.303
 21
100.107
  0
LINE
  8
0
 10
143.303
 20
100.107
 11
143.313
 21
100.213
  0
LINE
  8
0
 10
143.313
 20
100.213
 11
143.33
 21
100.319
  0
LINE
  8
0
 10
143.33
 20
100.319
 11
143.353
 21
100.423
  0
LINE
  8
0
 10
143.353
 20
100.423
 11
143.383
 21
100.525
  0
LINE
  8
0
 10
143.383
 20
100.525
 11
143.419
 21
100.626
  0
LINE
  8
0
 10
143.419
 20
100.626
 11
143.462
 21
100.724
  0
LINE
  8
0
 10
143.462
 20
100.724
 11
143.51
 21
100.819
  0
LINE
  8
0
 10
143.51
 20
100.819
 11
143.565
 21
100.911
  0
LINE
  8
0
 10
143.565
 20
100.911
 11
143.625
 21
100.999
  0
LINE
  8
0
 10
143.625
 20
100.999
 11
143.69
 21
101.084
  0
LINE
  8
0
 10
143.69
 20
101.084
 11
143.761
 21
101.164
  0
LINE
  8
0
 10
143.761
 20
101.164
 11
143.836
 21
101.239
  0
LINE
  8
0
 10
143.836
 20
101.239
 11
143.916
 21
101.31
  0
LINE
  8
0
 10
143.916
 20
101.31
 11
144.001
 21
101.375
  0
LINE
  8
0
 10
144.001
 20
101.375
 11
144.089
 21
101.435
  0
LINE
  8
0
 10
144.089
 20
101.435
 11
144.181
 21
101.49
  0
LINE
  8
0
 10
144.181
 20
101.49
 11
144.276
 21
101.538
  0
LINE
  8
0
 10
144.276
 20
101.538
 11
144.374
 21
101.581
  0
LINE
  8
0
 10
144.374
 20
101.581
 11
144.475
 21
101.617
  0
LINE
  8
0
 10
144.475
 20
101.617
 11
144.577
 21
101.647
  0
LINE
  8
0
 10
144.577
 20
101.647
 11
144.681
 21
101.67
  0
LINE
  8
0
 10
144.681
 20
101.67
 11
144.787
 21
101.687
  0
LINE
  8
0
 10
144.787
 20
101.687
 11
144.893
 21
101.697
  0
LINE
  8
0
 10
144.893
 20
101.697
 11
145
 21
101.7
  0
LINE
  8
0
 10
145
 20
101.7
 11
145.107
 21
101.697
  0
LINE
  8
0
 10
145.107
 20
101.697
 11
145.213
 21
101.687
  0
LINE
  8
0
 10
145.213
 20
101.687
 11
145.319
 21
101.67
  0
LINE
  8
0
 10
145.319
 20
101.67
 11
145.423
 21
101.647
  0
LINE
  8
0
 10
145.423
 20
101.647
 11
145.525
 21
101.617
  0
LINE
  8
0
 10
145.525
 20
101.617
 11
145.626
 21
101.581
  0
LINE
  8
0
 10
145.626
 20
101.581
 11
145.724
 21
101.538
  0
LINE
  8
0
 10
145.724
 20
101.538
 11
145.819
 21
101.49
  0
LINE
  8
0
 10
145.819
 20
101.49
 11
145.911
 21
101.435
  0
LINE
  8
0
 10
145.911
 20
101.435
 11
145.999
 21
101.375
  0
LINE
  8
0
 10
145.999
 20
101.375
 11
146.084
 21
101.31
  0
LINE
  8
0
 10
146.084
 20
101.31
 11
146.164
 21
101.239
  0
LINE
  8
0
 10
146.164
 20
101.239
 11
146.239
 21
101.164
  0
LINE
  8
0
 10
146.239
 20
101.164
 11
146.31
 21
101.084
  0
LINE
  8
0
 10
146.31
 20
101.084
 11
146.375
 21
100.999
  0
LINE
  8
0
 10
146.375
 20
100.999
 11
146.435
 21
100.911
  0
LINE
  8
0
 10
146.435
 20
100.911
 11
146.49
 21
100.819
  0
LINE
  8
0
 10
146.49
 20
100.819
 11
146.538
 21
100.724
  0
LINE
  8
0
 10
146.538
 20
100.724
 11
146.581
 21
100.626
  0
LINE
  8
0
 10
146.581
 20
100.626
 11
146.617
 21
100.525
  0
LINE
  8
0
 10
146.617
 20
100.525
 11
146.647
 21
100.423
  0
LINE
  8
0
 10
146.647
 20
100.423
 11
146.67
 21
100.319
  0
LINE
  8
0
 10
146.67
 20
100.319
 11
146.687
 21
100.213
  0
LINE
  8
0
 10
146.687
 20
100.213
 11
146.697
 21
100.107
  0
LINE
  8
0
 10
146.697
 20
100.107
 11
146.7
 21
100
  0
LINE
  8
0
 10
146.7
 20
100
 11
146.697
 21
99.8932
  0
LINE
  8
0
 10
146.697
 20
99.8932
 11
146.687
 21
99.7869
  0
LINE
  8
0
 10
146.687
 20
99.7869
 11
146.67
 21
99.6814
  0
LINE
  8
0
 10
146.67
 20
99.6814
 11
146.647
 21
99.5772
  0
LINE
  8
0
 10
146.647
 20
99.5772
 11
146.617
 21
99.4747
  0
LINE
  8
0
 10
146.617
 20
99.4747
 11
146.581
 21
99.3742
  0
LINE
  8
0
 10
146.581
 20
99.3742
 11
146.538
 21
99.2762
  0
LINE
  8
0
 10
146.538
 20
99.2762
 11
146.49
 21
99.181
  0
LINE
  8
0
 10
146.49
 20
99.181
 11
146.435
 21
99.0891
  0
LINE
  8
0
 10
146.435
 20
99.0891
 11
146.375
 21
99.0008
  0
LINE
  8
0
 10
146.375
 20
99.0008
 11
146.31
 21
98.9164
  0
LINE
  8
0
 10
146.31
 20
98.9164
 11
146.239
 21
98.8363
  0
LINE
  8
0
 10
146.239
 20
98.8363
 11
146.164
 21
98.7607
  0
LINE
  8
0
 10
146.164
 20
98.7607
 11
146.084
 21
98.6901
  0
LINE
  8
0
 10
146.084
 20
98.6901
 11
145.999
 21
98.6247
  0
LINE
  8
0
 10
145.999
 20
98.6247
 11
145.911
 21
98.5646
  0
LINE
  8
0
 10
145.911
 20
98.5646
 11
145.819
 21
98.5103
  0
LINE
  8
0
 10
145.819
 20
98.5103
 11
145.724
 21
98.4618
  0
LINE
  8
0
 10
145.724
 20
98.4618
 11
145.626
 21
98.4194
  0
LINE
  8
0
 10
145.626
 20
98.4194
 11
145.525
 21
98.3832
  0
LINE
  8
0
 10
145.525
 20
98.3832
 11
145.423
 21
98.3534
  0
LINE
  8
0
 10
145.423
 20
98.3534
 11
145.319
 21
98.3301
  0
LINE
  8
0
 10
145.319
 20
98.3301
 11
145.213
 21
98.3134
  0
LINE
  8
0
 10
145.213
 20
98.3134
 11
145.107
 21
98.3033
  0
LINE
  8
0
 10
145.107
 20
98.3033
 11
145
 21
98.3
  0
LINE
  8
0
 10
145
 20
98.3
 11
144.893
 21
98.3033
  0
LINE
  8
0
 10
4.89325
 20
66.3033
 11
4.78693
 21
66.3134
  0
LINE
  8
0
 10
4.78693
 20
66.3134
 11
4.68144
 21
66.3301
  0
LINE
  8
0
 10
4.68144
 20
66.3301
 11
4.57722
 21
66.3534
  0
LINE
  8
0
 10
4.57722
 20
66.3534
 11
4.47467
 21
66.3832
  0
LINE
  8
0
 10
4.47467
 20
66.3832
 11
4.37418
 21
66.4194
  0
LINE
  8
0
 10
4.37418
 20
66.4194
 11
4.27617
 21
66.4618
  0
LINE
  8
0
 10
4.27617
 20
66.4618
 11
4.18102
 21
66.5103
  0
LINE
  8
0
 10
4.18102
 20
66.5103
 11
4.08908
 21
66.5646
  0
LINE
  8
0
 10
4.08908
 20
66.5646
 11
4.00076
 21
66.6247
  0
LINE
  8
0
 10
4.00076
 20
66.6247
 11
3.91637
 21
66.6901
  0
LINE
  8
0
 10
3.91637
 20
66.6901
 11
3.83626
 21
66.7607
  0
LINE
  8
0
 10
3.83626
 20
66.7607
 11
3.76074
 21
66.8363
  0
LINE
  8
0
 10
3.76074
 20
66.8363
 11
3.69012
 21
66.9164
  0
LINE
  8
0
 10
3.69012
 20
66.9164
 11
3.62466
 21
67.0008
  0
LINE
  8
0
 10
3.62466
 20
67.0008
 11
3.56464
 21
67.0891
  0
LINE
  8
0
 10
3.56464
 20
67.0891
 11
3.51027
 21
67.181
  0
LINE
  8
0
 10
3.51027
 20
67.181
 11
3.46179
 21
67.2762
  0
LINE
  8
0
 10
3.46179
 20
67.2762
 11
3.41937
 21
67.3742
  0
LINE
  8
0
 10
3.41937
 20
67.3742
 11
3.38319
 21
67.4747
  0
LINE
  8
0
 10
3.38319
 20
67.4747
 11
3.35339
 21
67.5772
  0
LINE
  8
0
 10
3.35339
 20
67.5772
 11
3.33011
 21
67.6814
  0
LINE
  8
0
 10
3.33011
 20
67.6814
 11
3.3134
 21
67.7869
  0
LINE
  8
0
 10
3.3134
 20
67.7869
 11
3.30334
 21
67.8932
  0
LINE
  8
0
 10
3.30334
 20
67.8932
 11
3.29999
 21
68
  0
LINE
  8
0
 10
3.29999
 20
68
 11
3.30334
 21
68.1067
  0
LINE
  8
0
 10
3.30334
 20
68.1067
 11
3.3134
 21
68.2131
  0
LINE
  8
0
 10
3.3134
 20
68.2131
 11
3.33011
 21
68.3185
  0
LINE
  8
0
 10
3.33011
 20
68.3185
 11
3.35339
 21
68.4228
  0
LINE
  8
0
 10
3.35339
 20
68.4228
 11
3.38319
 21
68.5253
  0
LINE
  8
0
 10
3.38319
 20
68.5253
 11
3.41937
 21
68.6258
  0
LINE
  8
0
 10
3.41937
 20
68.6258
 11
3.46179
 21
68.7238
  0
LINE
  8
0
 10
3.46179
 20
68.7238
 11
3.51027
 21
68.819
  0
LINE
  8
0
 10
3.51027
 20
68.819
 11
3.56464
 21
68.9109
  0
LINE
  8
0
 10
3.56464
 20
68.9109
 11
3.62466
 21
68.9992
  0
LINE
  8
0
 10
3.62466
 20
68.9992
 11
3.69012
 21
69.0836
  0
LINE
  8
0
 10
3.69012
 20
69.0836
 11
3.76074
 21
69.1637
  0
LINE
  8
0
 10
3.76074
 20
69.1637
 11
3.83626
 21
69.2392
  0
LINE
  8
0
 10
3.83626
 20
69.2392
 11
3.91637
 21
69.3099
  0
LINE
  8
0
 10
3.91637
 20
69.3099
 11
4.00076
 21
69.3753
  0
LINE
  8
0
 10
4.00076
 20
69.3753
 11
4.08908
 21
69.4353
  0
LINE
  8
0
 10
4.08908
 20
69.4353
 11
4.18102
 21
69.4897
  0
LINE
  8
0
 10
4.18102
 20
69.4897
 11
4.27617
 21
69.5382
  0
LINE
  8
0
 10
4.27617
 20
69.5382
 11
4.37418
 21
69.5806
  0
LINE
  8
0
 10
4.37418
 20
69.5806
 11
4.47467
 21
69.6168
  0
LINE
  8
0
 10
4.47467
 20
69.6168
 11
4.57722
 21
69.6466
  0
LINE
  8
0
 10
4.57722
 20
69.6466
 11
4.68144
 21
69.6699
  0
LINE
  8
0
 10
4.68144
 20
69.6699
 11
4.78693
 21
69.6866
  0
LINE
  8
0
 10
4.78693
 20
69.6866
 11
4.89325
 21
69.6966
  0
LINE
  8
0
 10
4.89325
 20
69.6966
 11
5
 21
69.7
  0
LINE
  8
0
 10
5
 20
69.7
 11
5.10674
 21
69.6966
  0
LINE
  8
0
 10
5.10674
 20
69.6966
 11
5.21306
 21
69.6866
  0
LINE
  8
0
 10
5.21306
 20
69.6866
 11
5.31854
 21
69.6699
  0
LINE
  8
0
 10
5.31854
 20
69.6699
 11
5.42276
 21
69.6466
  0
LINE
  8
0
 10
5.42276
 20
69.6466
 11
5.52531
 21
69.6168
  0
LINE
  8
0
 10
5.52531
 20
69.6168
 11
5.62581
 21
69.5806
  0
LINE
  8
0
 10
5.62581
 20
69.5806
 11
5.72382
 21
69.5382
  0
LINE
  8
0
 10
5.72382
 20
69.5382
 11
5.81897
 21
69.4897
  0
LINE
  8
0
 10
5.81897
 20
69.4897
 11
5.9109
 21
69.4353
  0
LINE
  8
0
 10
5.9109
 20
69.4353
 11
5.99922
 21
69.3753
  0
LINE
  8
0
 10
5.99922
 20
69.3753
 11
6.08362
 21
69.3099
  0
LINE
  8
0
 10
6.08362
 20
69.3099
 11
6.16373
 21
69.2392
  0
LINE
  8
0
 10
6.16373
 20
69.2392
 11
6.23924
 21
69.1637
  0
LINE
  8
0
 10
6.23924
 20
69.1637
 11
6.30986
 21
69.0836
  0
LINE
  8
0
 10
6.30986
 20
69.0836
 11
6.37532
 21
68.9992
  0
LINE
  8
0
 10
6.37532
 20
68.9992
 11
6.43535
 21
68.9109
  0
LINE
  8
0
 10
6.43535
 20
68.9109
 11
6.48972
 21
68.819
  0
LINE
  8
0
 10
6.48972
 20
68.819
 11
6.53819
 21
68.7238
  0
LINE
  8
0
 10
6.53819
 20
68.7238
 11
6.58061
 21
68.6258
  0
LINE
  8
0
 10
6.58061
 20
68.6258
 11
6.61679
 21
68.5253
  0
LINE
  8
0
 10
6.61679
 20
68.5253
 11
6.64659
 21
68.4228
  0
LINE
  8
0
 10
6.64659
 20
68.4228
 11
6.66988
 21
68.3185
  0
LINE
  8
0
 10
6.66988
 20
68.3185
 11
6.68658
 21
68.2131
  0
LINE
  8
0
 10
6.68658
 20
68.2131
 11
6.69664
 21
68.1067
  0
LINE
  8
0
 10
6.69664
 20
68.1067
 11
6.7
 21
68
  0
LINE
  8
0
 10
6.7
 20
68
 11
6.69664
 21
67.8932
  0
LINE
  8
0
 10
6.69664
 20
67.8932
 11
6.68658
 21
67.7869
  0
LINE
  8
0
 10
6.68658
 20
67.7869
 11
6.66988
 21
67.6814
  0
LINE
  8
0
 10
6.66988
 20
67.6814
 11
6.64659
 21
67.5772
  0
LINE
  8
0
 10
6.64659
 20
67.5772
 11
6.61679
 21
67.4747
  0
LINE
  8
0
 10
6.61679
 20
67.4747
 11
6.58061
 21
67.3742
  0
LINE
  8
0
 10
6.58061
 20
67.3742
 11
6.53819
 21
67.2762
  0
LINE
  8
0
 10
6.53819
 20
67.2762
 11
6.48972
 21
67.181
  0
LINE
  8
0
 10
6.48972
 20
67.181
 11
6.43535
 21
67.0891
  0
LINE
  8
0
 10
6.43535
 20
67.0891
 11
6.37532
 21
67.0008
  0
LINE
  8
0
 10
6.37532
 20
67.0008
 11
6.30986
 21
66.9164
  0
LINE
  8
0
 10
6.30986
 20
66.9164
 11
6.23924
 21
66.8363
  0
LINE
  8
0
 10
6.23924
 20
66.8363
 11
6.16373
 21
66.7607
  0
LINE
  8
0
 10
6.16373
 20
66.7607
 11
6.08362
 21
66.6901
  0
LINE
  8
0
 10
6.08362
 20
66.6901
 11
5.99922
 21
66.6247
  0
LINE
  8
0
 10
5.99922
 20
66.6247
 11
5.9109
 21
66.5646
  0
LINE
  8
0
 10
5.9109
 20
66.5646
 11
5.81897
 21
66.5103
  0
LINE
  8
0
 10
5.81897
 20
66.5103
 11
5.72382
 21
66.4618
  0
LINE
  8
0
 10
5.72382
 20
66.4618
 11
5.62581
 21
66.4194
  0
LINE
  8
0
 10
5.62581
 20
66.4194
 11
5.52531
 21
66.3832
  0
LINE
  8
0
 10
5.52531
 20
66.3832
 11
5.42276
 21
66.3534
  0
LINE
  8
0
 10
5.42276
 20
66.3534
 11
5.31854
 21
66.3301
  0
LINE
  8
0
 10
5.31854
 20
66.3301
 11
5.21306
 21
66.3134
  0
LINE
  8
0
 10
5.21306
 20
66.3134
 11
5.10674
 21
66.3033
  0
LINE
  8
0
 10
5.10674
 20
66.3033
 11
5
 21
66.3
  0
LINE
  8
0
 10
5
 20
66.3
 11
4.89325
 21
66.3033
  0
LINE
  8
0
 10
199.893
 20
66.3033
 11
199.787
 21
66.3134
  0
LINE
  8
0
 10
199.787
 20
66.3134
 11
199.681
 21
66.3301
  0
LINE
  8
0
 10
199.681
 20
66.3301
 11
199.577
 21
66.3534
  0
LINE
  8
0
 10
199.577
 20
66.3534
 11
199.475
 21
66.3832
  0
LINE
  8
0
 10
199.475
 20
66.3832
 11
199.374
 21
66.4194
  0
LINE
  8
0
 10
199.374
 20
66.4194
 11
199.276
 21
66.4618
  0
LINE
  8
0
 10
199.276
 20
66.4618
 11
199.181
 21
66.5103
  0
LINE
  8
0
 10
199.181
 20
66.5103
 11
199.089
 21
66.5646
  0
LINE
  8
0
 10
199.089
 20
66.5646
 11
199.001
 21
66.6247
  0
LINE
  8
0
 10
199.001
 20
66.6247
 11
198.916
 21
66.6901
  0
LINE
  8
0
 10
198.916
 20
66.6901
 11
198.836
 21
66.7607
  0
LINE
  8
0
 10
198.836
 20
66.7607
 11
198.761
 21
66.8363
  0
LINE
  8
0
 10
198.761
 20
66.8363
 11
198.69
 21
66.9164
  0
LINE
  8
0
 10
198.69
 20
66.9164
 11
198.625
 21
67.0008
  0
LINE
  8
0
 10
198.625
 20
67.0008
 11
198.565
 21
67.0891
  0
LINE
  8
0
 10
198.565
 20
67.0891
 11
198.51
 21
67.181
  0
LINE
  8
0
 10
198.51
 20
67.181
 11
198.462
 21
67.2762
  0
LINE
  8
0
 10
198.462
 20
67.2762
 11
198.419
 21
67.3742
  0
LINE
  8
0
 10
198.419
 20
67.3742
 11
198.383
 21
67.4747
  0
LINE
  8
0
 10
198.383
 20
67.4747
 11
198.353
 21
67.5772
  0
LINE
  8
0
 10
198.353
 20
67.5772
 11
198.33
 21
67.6814
  0
LINE
  8
0
 10
198.33
 20
67.6814
 11
198.313
 21
67.7869
  0
LINE
  8
0
 10
198.313
 20
67.7869
 11
198.303
 21
67.8932
  0
LINE
  8
0
 10
198.303
 20
67.8932
 11
198.3
 21
68
  0
LINE
  8
0
 10
198.3
 20
68
 11
198.303
 21
68.1067
  0
LINE
  8
0
 10
198.303
 20
68.1067
 11
198.313
 21
68.2131
  0
LINE
  8
0
 10
198.313
 20
68.2131
 11
198.33
 21
68.3185
  0
LINE
  8
0
 10
198.33
 20
68.3185
 11
198.353
 21
68.4228
  0
LINE
  8
0
 10
198.353
 20
68.4228
 11
198.383
 21
68.5253
  0
LINE
  8
0
 10
198.383
 20
68.5253
 11
198.419
 21
68.6258
  0
LINE
  8
0
 10
198.419
 20
68.6258
 11
198.462
 21
68.7238
  0
LINE
  8
0
 10
198.462
 20
68.7238
 11
198.51
 21
68.819
  0
LINE
  8
0
 10
198.51
 20
68.819
 11
198.565
 21
68.9109
  0
LINE
  8
0
 10
198.565
 20
68.9109
 11
198.625
 21
68.9992
  0
LINE
  8
0
 10
198.625
 20
68.9992
 11
198.69
 21
69.0836
  0
LINE
  8
0
 10
198.69
 20
69.0836
 11
198.761
 21
69.1637
  0
LINE
  8
0
 10
198.761
 20
69.1637
 11
198.836
 21
69.2392
  0
LINE
  8
0
 10
198.836
 20
69.2392
 11
198.916
 21
69.3099
  0
LINE
  8
0
 10
198.916
 20
69.3099
 11
199.001
 21
69.3753
  0
LINE
  8
0
 10
199.001
 20
69.3753
 11
199.089
 21
69.4353
  0
LINE
  8
0
 10
199.089
 20
69.4353
 11
199.181
 21
69.4897
  0
LINE
  8
0
 10
199.181
 20
69.4897
 11
199.276
 21
69.5382
  0
LINE
  8
0
 10
199.276
 20
69.5382
 11
199.374
 21
69.5806
  0
LINE
  8
0
 10
199.374
 20
69.5806
 11
199.475
 21
69.6168
  0
LINE
  8
0
 10
199.475
 20
69.6168
 11
199.577
 21
69.6466
  0
LINE
  8
0
 10
199.577
 20
69.6466
 11
199.681
 21
69.6699
  0
LINE
  8
0
 10
199.681
 20
69.6699
 11
199.787
 21
69.6866
  0
LINE
  8
0
 10
199.787
 20
69.6866
 11
199.893
 21
69.6966
  0
LINE
  8
0
 10
199.893
 20
69.6966
 11
200
 21
69.7
  0
LINE
  8
0
 10
200
 20
69.7
 11
200.107
 21
69.6966
  0
LINE
  8
0
 10
200.107
 20
69.6966
 11
200.213
 21
69.6866
  0
LINE
  8
0
 10
200.213
 20
69.6866
 11
200.319
 21
69.6699
  0
LINE
  8
0
 10
200.319
 20
69.6699
 11
200.423
 21
69.6466
  0
LINE
  8
0
 10
200.423
 20
69.6466
 11
200.525
 21
69.6168
  0
LINE
  8
0
 10
200.525
 20
69.6168
 11
200.626
 21
69.5806
  0
LINE
  8
0
 10
200.626
 20
69.5806
 11
200.724
 21
69.5382
  0
LINE
  8
0
 10
200.724
 20
69.5382
 11
200.819
 21
69.4897
  0
LINE
  8
0
 10
200.819
 20
69.4897
 11
200.911
 21
69.4353
  0
LINE
  8
0
 10
200.911
 20
69.4353
 11
200.999
 21
69.3753
  0
LINE
  8
0
 10
200.999
 20
69.3753
 11
201.084
 21
69.3099
  0
LINE
  8
0
 10
201.084
 20
69.3099
 11
201.164
 21
69.2392
  0
LINE
  8
0
 10
201.164
 20
69.2392
 11
201.239
 21
69.1637
  0
LINE
  8
0
 10
201.239
 20
69.1637
 11
201.31
 21
69.0836
  0
LINE
  8
0
 10
201.31
 20
69.0836
 11
201.375
 21
68.9992
  0
LINE
  8
0
 10
201.375
 20
68.9992
 11
201.435
 21
68.9109
  0
LINE
  8
0
 10
201.435
 20
68.9109
 11
201.49
 21
68.819
  0
LINE
  8
0
 10
201.49
 20
68.819
 11
201.538
 21
68.7238
  0
LINE
  8
0
 10
201.538
 20
68.7238
 11
201.581
 21
68.6258
  0
LINE
  8
0
 10
201.581
 20
68.6258
 11
201.617
 21
68.5253
  0
LINE
  8
0
 10
201.617
 20
68.5253
 11
201.647
 21
68.4228
  0
LINE
  8
0
 10
201.647
 20
68.4228
 11
201.67
 21
68.3185
  0
LINE
  8
0
 10
201.67
 20
68.3185
 11
201.687
 21
68.2131
  0
LINE
  8
0
 10
201.687
 20
68.2131
 11
201.697
 21
68.1067
  0
LINE
  8
0
 10
201.697
 20
68.1067
 11
201.7
 21
68
  0
LINE
  8
0
 10
201.7
 20
68
 11
201.697
 21
67.8932
  0
LINE
  8
0
 10
201.697
 20
67.8932
 11
201.687
 21
67.7869
  0
LINE
  8
0
 10
201.687
 20
67.7869
 11
201.67
 21
67.6814
  0
LINE
  8
0
 10
201.67
 20
67.6814
 11
201.647
 21
67.5772
  0
LINE
  8
0
 10
201.647
 20
67.5772
 11
201.617
 21
67.4747
  0
LINE
  8
0
 10
201.617
 20
67.4747
 11
201.581
 21
67.3742
  0
LINE
  8
0
 10
201.581
 20
67.3742
 11
201.538
 21
67.2762
  0
LINE
  8
0
 10
201.538
 20
67.2762
 11
201.49
 21
67.181
  0
LINE
  8
0
 10
201.49
 20
67.181
 11
201.435
 21
67.0891
  0
LINE
  8
0
 10
201.435
 20
67.0891
 11
201.375
 21
67.0008
  0
LINE
  8
0
 10
201.375
 20
67.0008
 11
201.31
 21
66.9164
  0
LINE
  8
0
 10
201.31
 20
66.9164
 11
201.239
 21
66.8363
  0
LINE
  8
0
 10
201.239
 20
66.8363
 11
201.164
 21
66.7607
  0
LINE
  8
0
 10
201.164
 20
66.7607
 11
201.084
 21
66.6901
  0
LINE
  8
0
 10
201.084
 20
66.6901
 11
200.999
 21
66.6247
  0
LINE
  8
0
 10
200.999
 20
66.6247
 11
200.911
 21
66.5646
  0
LINE
  8
0
 10
200.911
 20
66.5646
 11
200.819
 21
66.5103
  0
LINE
  8
0
 10
200.819
 20
66.5103
 11
200.724
 21
66.4618
  0
LINE
  8
0
 10
200.724
 20
66.4618
 11
200.626
 21
66.4194
  0
LINE
  8
0
 10
200.626
 20
66.4194
 11
200.525
 21
66.3832
  0
LINE
  8
0
 10
200.525
 20
66.3832
 11
200.423
 21
66.3534
  0
LINE
  8
0
 10
200.423
 20
66.3534
 11
200.319
 21
66.3301
  0
LINE
  8
0
 10
200.319
 20
66.3301
 11
200.213
 21
66.3134
  0
LINE
  8
0
 10
200.213
 20
66.3134
 11
200.107
 21
66.3033
  0
LINE
  8
0
 10
200.107
 20
66.3033
 11
200
 21
66.3
  0
LINE
  8
0
 10
200
 20
66.3
 11
199.893
 21
66.3033
  0
LINE
  8
0
 10
294.893
 20
66.3033
 11
294.787
 21
66.3134
  0
LINE
  8
0
 10
294.787
 20
66.3134
 11
294.681
 21
66.3301
  0
LINE
  8
0
 10
294.681
 20
66.3301
 11
294.577
 21
66.3534
  0
LINE
  8
0
 10
294.577
 20
66.3534
 11
294.475
 21
66.3832
  0
LINE
  8
0
 10
294.475
 20
66.3832
 11
294.374
 21
66.4194
  0
LINE
  8
0
 10
294.374
 20
66.4194
 11
294.276
 21
66.4618
  0
LINE
  8
0
 10
294.276
 20
66.4618
 11
294.181
 21
66.5103
  0
LINE
  8
0
 10
294.181
 20
66.5103
 11
294.089
 21
66.5646
  0
LINE
  8
0
 10
294.089
 20
66.5646
 11
294.001
 21
66.6247
  0
LINE
  8
0
 10
294.001
 20
66.6247
 11
293.916
 21
66.6901
  0
LINE
  8
0
 10
293.916
 20
66.6901
 11
293.836
 21
66.7607
  0
LINE
  8
0
 10
293.836
 20
66.7607
 11
293.761
 21
66.8363
  0
LINE
  8
0
 10
293.761
 20
66.8363
 11
293.69
 21
66.9164
  0
LINE
  8
0
 10
293.69
 20
66.9164
 11
293.625
 21
67.0008
  0
LINE
  8
0
 10
293.625
 20
67.0008
 11
293.565
 21
67.0891
  0
LINE
  8
0
 10
293.565
 20
67.0891
 11
293.51
 21
67.181
  0
LINE
  8
0
 10
293.51
 20
67.181
 11
293.462
 21
67.2762
  0
LINE
  8
0
 10
293.462
 20
67.2762
 11
293.419
 21
67.3742
  0
LINE
  8
0
 10
293.419
 20
67.3742
 11
293.383
 21
67.4747
  0
LINE
  8
0
 10
293.383
 20
67.4747
 11
293.353
 21
67.5772
  0
LINE
  8
0
 10
293.353
 20
67.5772
 11
293.33
 21
67.6814
  0
LINE
  8
0
 10
293.33
 20
67.6814
 11
293.313
 21
67.7869
  0
LINE
  8
0
 10
293.313
 20
67.7869
 11
293.303
 21
67.8932
  0
LINE
  8
0
 10
293.303
 20
67.8932
 11
293.3
 21
68
  0
LINE
  8
0
 10
293.3
 20
68
 11
293.303
 21
68.1067
  0
LINE
  8
0
 10
293.303
 20
68.1067
 11
293.313
 21
68.2131
  0
LINE
  8
0
 10
293.313
 20
68.2131
 11
293.33
 21
68.3185
  0
LINE
  8
0
 10
293.33
 20
68.3185
 11
293.353
 21
68.4228
  0
LINE
  8
0
 10
293.353
 20
68.4228
 11
293.383
 21
68.5253
  0
LINE
  8
0
 10
293.383
 20
68.5253
 11
293.419
 21
68.6258
  0
LINE
  8
0
 10
293.419
 20
68.6258
 11
293.462
 21
68.7238
  0
LINE
  8
0
 10
293.462
 20
68.7238
 11
293.51
 21
68.819
  0
LINE
  8
0
 10
293.51
 20
68.819
 11
293.565
 21
68.9109
  0
LINE
  8
0
 10
293.565
 20
68.9109
 11
293.625
 21
68.9992
  0
LINE
  8
0
 10
293.625
 20
68.9992
 11
293.69
 21
69.0836
  0
LINE
  8
0
 10
293.69
 20
69.0836
 11
293.761
 21
69.1637
  0
LINE
  8
0
 10
293.761
 20
69.1637
 11
293.836
 21
69.2392
  0
LINE
  8
0
 10
293.836
 20
69.2392
 11
293.916
 21
69.3099
  0
LINE
  8
0
 10
293.916
 20
69.3099
 11
294.001
 21
69.3753
  0
LINE
  8
0
 10
294.001
 20
69.3753
 11
294.089
 21
69.4353
  0
LINE
  8
0
 10
294.089
 20
69.4353
 11
294.181
 21
69.4897
  0
LINE
  8
0
 10
294.181
 20
69.4897
 11
294.276
 21
69.5382
  0
LINE
  8
0
 10
294.276
 20
69.5382
 11
294.374
 21
69.5806
  0
LINE
  8
0
 10
294.374
 20
69.5806
 11
294.475
 21
69.6168
  0
LINE
  8
0
 10
294.475
 20
69.6168
 11
294.577
 21
69.6466
  0
LINE
  8
0
 10
294.577
 20
69.6466
 11
294.681
 21
69.6699
  0
LINE
  8
0
 10
294.681
 20
69.6699
 11
294.787
 21
69.6866
  0
LINE
  8
0
 10
294.787
 20
69.6866
 11
294.893
 21
69.6966
  0
LINE
  8
0
 10
294.893
 20
69.6966
 11
295
 21
69.7
  0
LINE
  8
0
 10
295
 20
69.7
 11
295.107
 21
69.6966
  0
LINE
  8
0
 10
295.107
 20
69.6966
 11
295.213
 21
69.6866
  0
LINE
  8
0
 10
295.213
 20
69.6866
 11
295.319
 21
69.6699
  0
LINE
  8
0
 10
295.319
 20
69.6699
 11
295.423
 21
69.6466
  0
LINE
  8
0
 10
295.423
 20
69.6466
 11
295.525
 21
69.6168
  0
LINE
  8
0
 10
295.525
 20
69.6168
 11
295.626
 21
69.5806
  0
LINE
  8
0
 10
295.626
 20
69.5806
 11
295.724
 21
69.5382
  0
LINE
  8
0
 10
295.724
 20
69.5382
 11
295.819
 21
69.4897
  0
LINE
  8
0
 10
295.819
 20
69.4897
 11
295.911
 21
69.4353
  0
LINE
  8
0
 10
295.911
 20
69.4353
 11
295.999
 21
69.3753
  0
LINE
  8
0
 10
295.999
 20
69.3753
 11
296.084
 21
69.3099
  0
LINE
  8
0
 10
296.084
 20
69.3099
 11
296.164
 21
69.2392
  0
LINE
  8
0
 10
296.164
 20
69.2392
 11
296.239
 21
69.1637
  0
LINE
  8
0
 10
296.239
 20
69.1637
 11
296.31
 21
69.0836
  0
LINE
  8
0
 10
296.31
 20
69.0836
 11
296.375
 21
68.9992
  0
LINE
  8
0
 10
296.375
 20
68.9992
 11
296.435
 21
68.9109
  0
LINE
  8
0
 10
296.435
 20
68.9109
 11
296.49
 21
68.819
  0
LINE
  8
0
 10
296.49
 20
68.819
 11
296.538
 21
68.7238
  0
LINE
  8
0
 10
296.538
 20
68.7238
 11
296.581
 21
68.6258
  0
LINE
  8
0
 10
296.581
 20
68.6258
 11
296.617
 21
68.5253
  0
LINE
  8
0
 10
296.617
 20
68.5253
 11
296.647
 21
68.4228
  0
LINE
  8
0
 10
296.647
 20
68.4228
 11
296.67
 21
68.3185
  0
LINE
  8
0
 10
296.67
 20
68.3185
 11
296.687
 21
68.2131
  0
LINE
  8
0
 10
296.687
 20
68.2131
 11
296.697
 21
68.1067
  0
LINE
  8
0
 10
296.697
 20
68.1067
 11
296.7
 21
68
  0
LINE
  8
0
 10
296.7
 20
68
 11
296.697
 21
67.8932
  0
LINE
  8
0
 10
296.697
 20
67.8932
 11
296.687
 21
67.7869
  0
LINE
  8
0
 10
296.687
 20
67.7869
 11
296.67
 21
67.6814
  0
LINE
  8
0
 10
296.67
 20
67.6814
 11
296.647
 21
67.5772
  0
LINE
  8
0
 10
296.647
 20
67.5772
 11
296.617
 21
67.4747
  0
LINE
  8
0
 10
296.617
 20
67.4747
 11
296.581
 21
67.3742
  0
LINE
  8
0
 10
296.581
 20
67.3742
 11
296.538
 21
67.2762
  0
LINE
  8
0
 10
296.538
 20
67.2762
 11
296.49
 21
67.181
  0
LINE
  8
0
 10
296.49
 20
67.181
 11
296.435
 21
67.0891
  0
LINE
  8
0
 10
296.435
 20
67.0891
 11
296.375
 21
67.0008
  0
LINE
  8
0
 10
296.375
 20
67.0008
 11
296.31
 21
66.9164
  0
LINE
  8
0
 10
296.31
 20
66.9164
 11
296.239
 21
66.8363
  0
LINE
  8
0
 10
296.239
 20
66.8363
 11
296.164
 21
66.7607
  0
LINE
  8
0
 10
296.164
 20
66.7607
 11
296.084
 21
66.6901
  0
LINE
  8
0
 10
296.084
 20
66.6901
 11
295.999
 21
66.6247
  0
LINE
  8
0
 10
295.999
 20
66.6247
 11
295.911
 21
66.5646
  0
LINE
  8
0
 10
295.911
 20
66.5646
 11
295.819
 21
66.5103
  0
LINE
  8
0
 10
295.819
 20
66.5103
 11
295.724
 21
66.4618
  0
LINE
  8
0
 10
295.724
 20
66.4618
 11
295.626
 21
66.4194
  0
LINE
  8
0
 10
295.626
 20
66.4194
 11
295.525
 21
66.3832
  0
LINE
  8
0
 10
295.525
 20
66.3832
 11
295.423
 21
66.3534
  0
LINE
  8
0
 10
295.423
 20
66.3534
 11
295.319
 21
66.3301
  0
LINE
  8
0
 10
295.319
 20
66.3301
 11
295.213
 21
66.3134
  0
LINE
  8
0
 10
295.213
 20
66.3134
 11
295.107
 21
66.3033
  0
LINE
  8
0
 10
295.107
 20
66.3033
 11
295
 21
66.3
  0
LINE
  8
0
 10
295
 20
66.3
 11
294.893
 21
66.3033
  0
LINE
  8
0
 10
99.8932
 20
66.3033
 11
99.7869
 21
66.3134
  0
LINE
  8
0
 10
99.7869
 20
66.3134
 11
99.6814
 21
66.3301
  0
LINE
  8
0
 10
99.6814
 20
66.3301
 11
99.5772
 21
66.3534
  0
LINE
  8
0
 10
99.5772
 20
66.3534
 11
99.4747
 21
66.3832
  0
LINE
  8
0
 10
99.4747
 20
66.3832
 11
99.3742
 21
66.4194
  0
LINE
  8
0
 10
99.3742
 20
66.4194
 11
99.2762
 21
66.4618
  0
LINE
  8
0
 10
99.2762
 20
66.4618
 11
99.181
 21
66.5103
  0
LINE
  8
0
 10
99.181
 20
66.5103
 11
99.0891
 21
66.5646
  0
LINE
  8
0
 10
99.0891
 20
66.5646
 11
99.0008
 21
66.6247
  0
LINE
  8
0
 10
99.0008
 20
66.6247
 11
98.9164
 21
66.6901
  0
LINE
  8
0
 10
98.9164
 20
66.6901
 11
98.8363
 21
66.7607
  0
LINE
  8
0
 10
98.8363
 20
66.7607
 11
98.7607
 21
66.8363
  0
LINE
  8
0
 10
98.7607
 20
66.8363
 11
98.6901
 21
66.9164
  0
LINE
  8
0
 10
98.6901
 20
66.9164
 11
98.6247
 21
67.0008
  0
LINE
  8
0
 10
98.6247
 20
67.0008
 11
98.5646
 21
67.0891
  0
LINE
  8
0
 10
98.5646
 20
67.0891
 11
98.5103
 21
67.181
  0
LINE
  8
0
 10
98.5103
 20
67.181
 11
98.4618
 21
67.2762
  0
LINE
  8
0
 10
98.4618
 20
67.2762
 11
98.4194
 21
67.3742
  0
LINE
  8
0
 10
98.4194
 20
67.3742
 11
98.3832
 21
67.4747
  0
LINE
  8
0
 10
98.3832
 20
67.4747
 11
98.3534
 21
67.5772
  0
LINE
  8
0
 10
98.3534
 20
67.5772
 11
98.3301
 21
67.6814
  0
LINE
  8
0
 10
98.3301
 20
67.6814
 11
98.3134
 21
67.7869
  0
LINE
  8
0
 10
98.3134
 20
67.7869
 11
98.3033
 21
67.8932
  0
LINE
  8
0
 10
98.3033
 20
67.8932
 11
98.3
 21
68
  0
LINE
  8
0
 10
98.3
 20
68
 11
98.3033
 21
68.1067
  0
LINE
  8
0
 10
98.3033
 20
68.1067
 11
98.3134
 21
68.2131
  0
LINE
  8
0
 10
98.3134
 20
68.2131
 11
98.3301
 21
68.3185
  0
LINE
  8
0
 10
98.3301
 20
68.3185
 11
98.3534
 21
68.4228
  0
LINE
  8
0
 10
98.3534
 20
68.4228
 11
98.3832
 21
68.5253
  0
LINE
  8
0
 10
98.3832
 20
68.5253
 11
98.4194
 21
68.6258
  0
LINE
  8
0
 10
98.4194
 20
68.6258
 11
98.4618
 21
68.7238
  0
LINE
  8
0
 10
98.4618
 20
68.7238
 11
98.5103
 21
68.819
  0
LINE
  8
0
 10
98.5103
 20
68.819
 11
98.5646
 21
68.9109
  0
LINE
  8
0
 10
98.5646
 20
68.9109
 11
98.6247
 21
68.9992
  0
LINE
  8
0
 10
98.6247
 20
68.9992
 11
98.6901
 21
69.0836
  0
LINE
  8
0
 10
98.6901
 20
69.0836
 11
98.7607
 21
69.1637
  0
LINE
  8
0
 10
98.7607
 20
69.1637
 11
98.8363
 21
69.2392
  0
LINE
  8
0
 10
98.8363
 20
69.2392
 11
98.9164
 21
69.3099
  0
LINE
  8
0
 10
98.9164
 20
69.3099
 11
99.0008
 21
69.3753
  0
LINE
  8
0
 10
99.0008
 20
69.3753
 11
99.0891
 21
69.4353
  0
LINE
  8
0
 10
99.0891
 20
69.4353
 11
99.181
 21
69.4897
  0
LINE
  8
0
 10
99.181
 20
69.4897
 11
99.2762
 21
69.5382
  0
LINE
  8
0
 10
99.2762
 20
69.5382
 11
99.3742
 21
69.5806
  0
LINE
  8
0
 10
99.3742
 20
69.5806
 11
99.4747
 21
69.6168
  0
LINE
  8
0
 10
99.4747
 20
69.6168
 11
99.5772
 21
69.6466
  0
LINE
  8
0
 10
99.5772
 20
69.6466
 11
99.6814
 21
69.6699
  0
LINE
  8
0
 10
99.6814
 20
69.6699
 11
99.7869
 21
69.6866
  0
LINE
  8
0
 10
99.7869
 20
69.6866
 11
99.8932
 21
69.6966
  0
LINE
  8
0
 10
99.8932
 20
69.6966
 11
100
 21
69.7
  0
LINE
  8
0
 10
100
 20
69.7
 11
100.107
 21
69.6966
  0
LINE
  8
0
 10
100.107
 20
69.6966
 11
100.213
 21
69.6866
  0
LINE
  8
0
 10
100.213
 20
69.6866
 11
100.319
 21
69.6699
  0
LINE
  8
0
 10
100.319
 20
69.6699
 11
100.423
 21
69.6466
  0
LINE
  8
0
 10
100.423
 20
69.6466
 11
100.525
 21
69.6168
  0
LINE
  8
0
 10
100.525
 20
69.6168
 11
100.626
 21
69.5806
  0
LINE
  8
0
 10
100.626
 20
69.5806
 11
100.724
 21
69.5382
  0
LINE
  8
0
 10
100.724
 20
69.5382
 11
100.819
 21
69.4897
  0
LINE
  8
0
 10
100.819
 20
69.4897
 11
100.911
 21
69.4353
  0
LINE
  8
0
 10
100.911
 20
69.4353
 11
100.999
 21
69.3753
  0
LINE
  8
0
 10
100.999
 20
69.3753
 11
101.084
 21
69.3099
  0
LINE
  8
0
 10
101.084
 20
69.3099
 11
101.164
 21
69.2392
  0
LINE
  8
0
 10
101.164
 20
69.2392
 11
101.239
 21
69.1637
  0
LINE
  8
0
 10
101.239
 20
69.1637
 11
101.31
 21
69.0836
  0
LINE
  8
0
 10
101.31
 20
69.0836
 11
101.375
 21
68.9992
  0
LINE
  8
0
 10
101.375
 20
68.9992
 11
101.435
 21
68.9109
  0
LINE
  8
0
 10
101.435
 20
68.9109
 11
101.49
 21
68.819
  0
LINE
  8
0
 10
101.49
 20
68.819
 11
101.538
 21
68.7238
  0
LINE
  8
0
 10
101.538
 20
68.7238
 11
101.581
 21
68.6258
  0
LINE
  8
0
 10
101.581
 20
68.6258
 11
101.617
 21
68.5253
  0
LINE
  8
0
 10
101.617
 20
68.5253
 11
101.647
 21
68.4228
  0
LINE
  8
0
 10
101.647
 20
68.4228
 11
101.67
 21
68.3185
  0
LINE
  8
0
 10
101.67
 20
68.3185
 11
101.687
 21
68.2131
  0
LINE
  8
0
 10
101.687
 20
68.2131
 11
101.697
 21
68.1067
  0
LINE
  8
0
 10
101.697
 20
68.1067
 11
101.7
 21
68
  0
LINE
  8
0
 10
101.7
 20
68
 11
101.697
 21
67.8932
  0
LINE
  8
0
 10
101.697
 20
67.8932
 11
101.687
 21
67.7869
  0
LINE
  8
0
 10
101.687
 20
67.7869
 11
101.67
 21
67.6814
  0
LINE
  8
0
 10
101.67
 20
67.6814
 11
101.647
 21
67.5772
  0
LINE
  8
0
 10
101.647
 20
67.5772
 11
101.617
 21
67.4747
  0
LINE
  8
0
 10
101.617
 20
67.4747
 11
101.581
 21
67.3742
  0
LINE
  8
0
 10
101.581
 20
67.3742
 11
101.538
 21
67.2762
  0
LINE
  8
0
 10
101.538
 20
67.2762
 11
101.49
 21
67.181
  0
LINE
  8
0
 10
101.49
 20
67.181
 11
101.435
 21
67.0891
  0
LINE
  8
0
 10
101.435
 20
67.0891
 11
101.375
 21
67.0008
  0
LINE
  8
0
 10
101.375
 20
67.0008
 11
101.31
 21
66.9164
  0
LINE
  8
0
 10
101.31
 20
66.9164
 11
101.239
 21
66.8363
  0
LINE
  8
0
 10
101.239
 20
66.8363
 11
101.164
 21
66.7607
  0
LINE
  8
0
 10
101.164
 20
66.7607
 11
101.084
 21
66.6901
  0
LINE
  8
0
 10
101.084
 20
66.6901
 11
100.999
 21
66.6247
  0
LINE
  8
0
 10
100.999
 20
66.6247
 11
100.911
 21
66.5646
  0
LINE
  8
0
 10
100.911
 20
66.5646
 11
100.819
 21
66.5103
  0
LINE
  8
0
 10
100.819
 20
66.5103
 11
100.724
 21
66.4618
  0
LINE
  8
0
 10
100.724
 20
66.4618
 11
100.626
 21
66.4194
  0
LINE
  8
0
 10
100.626
 20
66.4194
 11
100.525
 21
66.3832
  0
LINE
  8
0
 10
100.525
 20
66.3832
 11
100.423
 21
66.3534
  0
LINE
  8
0
 10
100.423
 20
66.3534
 11
100.319
 21
66.3301
  0
LINE
  8
0
 10
100.319
 20
66.3301
 11
100.213
 21
66.3134
  0
LINE
  8
0
 10
100.213
 20
66.3134
 11
100.107
 21
66.3033
  0
LINE
  8
0
 10
100.107
 20
66.3033
 11
100
 21
66.3
  0
LINE
  8
0
 10
100
 20
66.3
 11
99.8932
 21
66.3033
  0
LINE
  8
0
 10
300
 20
60
 11
0
 21
60
  0
LINE
  8
0
 10
0
 20
60
 11
0
 21
0
  0
LINE
  8
0
 10
0
 20
0
 11
300
 21
0
  0
LINE
  8
0
 10
300
 20
0
 11
300
 21
60
  0
LINE
  8
0
 10
294.893
 20
53.3033
 11
294.787
 21
53.3134
  0
LINE
  8
0
 10
294.787
 20
53.3134
 11
294.681
 21
53.3301
  0
LINE
  8
0
 10
294.681
 20
53.3301
 11
294.577
 21
53.3534
  0
LINE
  8
0
 10
294.577
 20
53.3534
 11
294.475
 21
53.3832
  0
LINE
  8
0
 10
294.475
 20
53.3832
 11
294.374
 21
53.4194
  0
LINE
  8
0
 10
294.374
 20
53.4194
 11
294.276
 21
53.4618
  0
LINE
  8
0
 10
294.276
 20
53.4618
 11
294.181
 21
53.5103
  0
LINE
  8
0
 10
294.181
 20
53.5103
 11
294.089
 21
53.5646
  0
LINE
  8
0
 10
294.089
 20
53.5646
 11
294.001
 21
53.6247
  0
LINE
  8
0
 10
294.001
 20
53.6247
 11
293.916
 21
53.6901
  0
LINE
  8
0
 10
293.916
 20
53.6901
 11
293.836
 21
53.7607
  0
LINE
  8
0
 10
293.836
 20
53.7607
 11
293.761
 21
53.8363
  0
LINE
  8
0
 10
293.761
 20
53.8363
 11
293.69
 21
53.9164
  0
LINE
  8
0
 10
293.69
 20
53.9164
 11
293.625
 21
54.0008
  0
LINE
  8
0
 10
293.625
 20
54.0008
 11
293.565
 21
54.0891
  0
LINE
  8
0
 10
293.565
 20
54.0891
 11
293.51
 21
54.181
  0
LINE
  8
0
 10
293.51
 20
54.181
 11
293.462
 21
54.2762
  0
LINE
  8
0
 10
293.462
 20
54.2762
 11
293.419
 21
54.3742
  0
LINE
  8
0
 10
293.419
 20
54.3742
 11
293.383
 21
54.4747
  0
LINE
  8
0
 10
293.383
 20
54.4747
 11
293.353
 21
54.5772
  0
LINE
  8
0
 10
293.353
 20
54.5772
 11
293.33
 21
54.6814
  0
LINE
  8
0
 10
293.33
 20
54.6814
 11
293.313
 21
54.7869
  0
LINE
  8
0
 10
293.313
 20
54.7869
 11
293.303
 21
54.8932
  0
LINE
  8
0
 10
293.303
 20
54.8932
 11
293.3
 21
55
  0
LINE
  8
0
 10
293.3
 20
55
 11
293.303
 21
55.1067
  0
LINE
  8
0
 10
293.303
 20
55.1067
 11
293.313
 21
55.2131
  0
LINE
  8
0
 10
293.313
 20
55.2131
 11
293.33
 21
55.3185
  0
LINE
  8
0
 10
293.33
 20
55.3185
 11
293.353
 21
55.4228
  0
LINE
  8
0
 10
293.353
 20
55.4228
 11
293.383
 21
55.5253
  0
LINE
  8
0
 10
293.383
 20
55.5253
 11
293.419
 21
55.6258
  0
LINE
  8
0
 10
293.419
 20
55.6258
 11
293.462
 21
55.7238
  0
LINE
  8
0
 10
293.462
 20
55.7238
 11
293.51
 21
55.819
  0
LINE
  8
0
 10
293.51
 20
55.819
 11
293.565
 21
55.9109
  0
LINE
  8
0
 10
293.565
 20
55.9109
 11
293.625
 21
55.9992
  0
LINE
  8
0
 10
293.625
 20
55.9992
 11
293.69
 21
56.0836
  0
LINE
  8
0
 10
293.69
 20
56.0836
 11
293.761
 21
56.1637
  0
LINE
  8
0
 10
293.761
 20
56.1637
 11
293.836
 21
56.2392
  0
LINE
  8
0
 10
293.836
 20
56.2392
 11
293.916
 21
56.3099
  0
LINE
  8
0
 10
293.916
 20
56.3099
 11
294.001
 21
56.3753
  0
LINE
  8
0
 10
294.001
 20
56.3753
 11
294.089
 21
56.4353
  0
LINE
  8
0
 10
294.089
 20
56.4353
 11
294.181
 21
56.4897
  0
LINE
  8
0
 10
294.181
 20
56.4897
 11
294.276
 21
56.5382
  0
LINE
  8
0
 10
294.276
 20
56.5382
 11
294.374
 21
56.5806
  0
LINE
  8
0
 10
294.374
 20
56.5806
 11
294.475
 21
56.6168
  0
LINE
  8
0
 10
294.475
 20
56.6168
 11
294.577
 21
56.6466
  0
LINE
  8
0
 10
294.577
 20
56.6466
 11
294.681
 21
56.6699
  0
LINE
  8
0
 10
294.681
 20
56.6699
 11
294.787
 21
56.6866
  0
LINE
  8
0
 10
294.787
 20
56.6866
 11
294.893
 21
56.6966
  0
LINE
  8
0
 10
294.893
 20
56.6966
 11
295
 21
56.7
  0
LINE
  8
0
 10
295
 20
56.7
 11
295.107
 21
56.6966
  0
LINE
  8
0
 10
295.107
 20
56.6966
 11
295.213
 21
56.6866
  0
LINE
  8
0
 10
295.213
 20
56.6866
 11
295.319
 21
56.6699
  0
LINE
  8
0
 10
295.319
 20
56.6699
 11
295.423
 21
56.6466
  0
LINE
  8
0
 10
295.423
 20
56.6466
 11
295.525
 21
56.6168
  0
LINE
  8
0
 10
295.525
 20
56.6168
 11
295.626
 21
56.5806
  0
LINE
  8
0
 10
295.626
 20
56.5806
 11
295.724
 21
56.5382
  0
LINE
  8
0
 10
295.724
 20
56.5382
 11
295.819
 21
56.4897
  0
LINE
  8
0
 10
295.819
 20
56.4897
 11
295.911
 21
56.4353
  0
LINE
  8
0
 10
295.911
 20
56.4353
 11
295.999
 21
56.3753
  0
LINE
  8
0
 10
295.999
 20
56.3753
 11
296.084
 21
56.3099
  0
LINE
  8
0
 10
296.084
 20
56.3099
 11
296.164
 21
56.2392
  0
LINE
  8
0
 10
296.164
 20
56.2392
 11
296.239
 21
56.1637
  0
LINE
  8
0
 10
296.239
 20
56.1637
 11
296.31
 21
56.0836
  0
LINE
  8
0
 10
296.31
 20
56.0836
 11
296.375
 21
55.9992
  0
LINE
  8
0
 10
296.375
 20
55.9992
 11
296.435
 21
55.9109
  0
LINE
  8
0
 10
296.435
 20
55.9109
 11
296.49
 21
55.819
  0
LINE
  8
0
 10
296.49
 20
55.819
 11
296.538
 21
55.7238
  0
LINE
  8
0
 10
296.538
 20
55.7238
 11
296.581
 21
55.6258
  0
LINE
  8
0
 10
296.581
 20
55.6258
 11
296.617
 21
55.5253
  0
LINE
  8
0
 10
296.617
 20
55.5253
 11
296.647
 21
55.4228
  0
LINE
  8
0
 10
296.647
 20
55.4228
 11
296.67
 21
55.3185
  0
LINE
  8
0
 10
296.67
 20
55.3185
 11
296.687
 21
55.2131
  0
LINE
  8
0
 10
296.687
 20
55.2131
 11
296.697
 21
55.1067
  0
LINE
  8
0
 10
296.697
 20
55.1067
 11
296.7
 21
55
  0
LINE
  8
0
 10
296.7
 20
55
 11
296.697
 21
54.8932
  0
LINE
  8
0
 10
296.697
 20
54.8932
 11
296.687
 21
54.7869
  0
LINE
  8
0
 10
296.687
 20
54.7869
 11
296.67
 21
54.6814
  0
LINE
  8
0
 10
296.67
 20
54.6814
 11
296.647
 21
54.5772
  0
LINE
  8
0
 10
296.647
 20
54.5772
 11
296.617
 21
54.4747
  0
LINE
  8
0
 10
296.617
 20
54.4747
 11
296.581
 21
54.3742
  0
LINE
  8
0
 10
296.581
 20
54.3742
 11
296.538
 21
54.2762
  0
LINE
  8
0
 10
296.538
 20
54.2762
 11
296.49
 21
54.181
  0
LINE
  8
0
 10
296.49
 20
54.181
 11
296.435
 21
54.0891
  0
LINE
  8
0
 10
296.435
 20
54.0891
 11
296.375
 21
54.0008
  0
LINE
  8
0
 10
296.375
 20
54.0008
 11
296.31
 21
53.9164
  0
LINE
  8
0
 10
296.31
 20
53.9164
 11
296.239
 21
53.8363
  0
LINE
  8
0
 10
296.239
 20
53.8363
 11
296.164
 21
53.7607
  0
LINE
  8
0
 10
296.164
 20
53.7607
 11
296.084
 21
53.6901
  0
LINE
  8
0
 10
296.084
 20
53.6901
 11
295.999
 21
53.6247
  0
LINE
  8
0
 10
295.999
 20
53.6247
 11
295.911
 21
53.5646
  0
LINE
  8
0
 10
295.911
 20
53.5646
 11
295.819
 21
53.5103
  0
LINE
  8
0
 10
295.819
 20
53.5103
 11
295.724
 21
53.4618
  0
LINE
  8
0
 10
295.724
 20
53.4618
 11
295.626
 21
53.4194
  0
LINE
  8
0
 10
295.626
 20
53.4194
 11
295.525
 21
53.3832
  0
LINE
  8
0
 10
295.525
 20
53.3832
 11
295.423
 21
53.3534
  0
LINE
  8
0
 10
295.423
 20
53.3534
 11
295.319
 21
53.3301
  0
LINE
  8
0
 10
295.319
 20
53.3301
 11
295.213
 21
53.3134
  0
LINE
  8
0
 10
295.213
 20
53.3134
 11
295.107
 21
53.3033
  0
LINE
  8
0
 10
295.107
 20
53.3033
 11
295
 21
53.3
  0
LINE
  8
0
 10
295
 20
53.3
 11
294.893
 21
53.3033
  0
LINE
  8
0
 10
4.89325
 20
53.3033
 11
4.78693
 21
53.3134
  0
LINE
  8
0
 10
4.78693
 20
53.3134
 11
4.68144
 21
53.3301
  0
LINE
  8
0
 10
4.68144
 20
53.3301
 11
4.57722
 21
53.3534
  0
LINE
  8
0
 10
4.57722
 20
53.3534
 11
4.47467
 21
53.3832
  0
LINE
  8
0
 10
4.47467
 20
53.3832
 11
4.37418
 21
53.4194
  0
LINE
  8
0
 10
4.37418
 20
53.4194
 11
4.27617
 21
53.4618
  0
LINE
  8
0
 10
4.27617
 20
53.4618
 11
4.18102
 21
53.5103
  0
LINE
  8
0
 10
4.18102
 20
53.5103
 11
4.08908
 21
53.5646
  0
LINE
  8
0
 10
4.08908
 20
53.5646
 11
4.00076
 21
53.6247
  0
LINE
  8
0
 10
4.00076
 20
53.6247
 11
3.91637
 21
53.6901
  0
LINE
  8
0
 10
3.91637
 20
53.6901
 11
3.83626
 21
53.7607
  0
LINE
  8
0
 10
3.83626
 20
53.7607
 11
3.76074
 21
53.8363
  0
LINE
  8
0
 10
3.76074
 20
53.8363
 11
3.69012
 21
53.9164
  0
LINE
  8
0
 10
3.69012
 20
53.9164
 11
3.62466
 21
54.0008
  0
LINE
  8
0
 10
3.62466
 20
54.0008
 11
3.56464
 21
54.0891
  0
LINE
  8
0
 10
3.56464
 20
54.0891
 11
3.51027
 21
54.181
  0
LINE
  8
0
 10
3.51027
 20
54.181
 11
3.46179
 21
54.2762
  0
LINE
  8
0
 10
3.46179
 20
54.2762
 11
3.41937
 21
54.3742
  0
LINE
  8
0
 10
3.41937
 20
54.3742
 11
3.38319
 21
54.4747
  0
LINE
  8
0
 10
3.38319
 20
54.4747
 11
3.35339
 21
54.5772
  0
LINE
  8
0
 10
3.35339
 20
54.5772
 11
3.33011
 21
54.6814
  0
LINE
  8
0
 10
3.33011
 20
54.6814
 11
3.3134
 21
54.7869
  0
LINE
  8
0
 10
3.3134
 20
54.7869
 11
3.30334
 21
54.8932
  0
LINE
  8
0
 10
3.30334
 20
54.8932
 11
3.29999
 21
55
  0
LINE
  8
0
 10
3.29999
 20
55
 11
3.30334
 21
55.1067
  0
LINE
  8
0
 10
3.30334
 20
55.1067
 11
3.3134
 21
55.2131
  0
LINE
  8
0
 10
3.3134
 20
55.2131
 11
3.33011
 21
55.3185
  0
LINE
  8
0
 10
3.33011
 20
55.3185
 11
3.35339
 21
55.4228
  0
LINE
  8
0
 10
3.35339
 20
55.4228
 11
3.38319
 21
55.5253
  0
LINE
  8
0
 10
3.38319
 20
55.5253
 11
3.41937
 21
55.6258
  0
LINE
  8
0
 10
3.41937
 20
55.6258
 11
3.46179
 21
55.7238
  0
LINE
  8
0
 10
3.46179
 20
55.7238
 11
3.51027
 21
55.819
  0
LINE
  8
0
 10
3.51027
 20
55.819
 11
3.56464
 21
55.9109
  0
LINE
  8
0
 10
3.56464
 20
55.9109
 11
3.62466
 21
55.9992
  0
LINE
  8
0
 10
3.62466
 20
55.9992
 11
3.69012
 21
56.0836
  0
LINE
  8
0
 10
3.69012
 20
56.0836
 11
3.76074
 21
56.1637
  0
LINE
  8
0
 10
3.76074
 20
56.1637
 11
3.83626
 21
56.2392
  0
LINE
  8
0
 10
3.83626
 20
56.2392
 11
3.91637
 21
56.3099
  0
LINE
  8
0
 10
3.91637
 20
56.3099
 11
4.00076
 21
56.3753
  0
LINE
  8
0
 10
4.00076
 20
56.3753
 11
4.08908
 21
56.4353
  0
LINE
  8
0
 10
4.08908
 20
56.4353
 11
4.18102
 21
56.4897
  0
LINE
  8
0
 10
4.18102
 20
56.4897
 11
4.27617
 21
56.5382
  0
LINE
  8
0
 10
4.27617
 20
56.5382
 11
4.37418
 21
56.5806
  0
LINE
  8
0
 10
4.37418
 20
56.5806
 11
4.47467
 21
56.6168
  0
LINE
  8
0
 10
4.47467
 20
56.6168
 11
4.57722
 21
56.6466
  0
LINE
  8
0
 10
4.57722
 20
56.6466
 11
4.68144
 21
56.6699
  0
LINE
  8
0
 10
4.68144
 20
56.6699
 11
4.78693
 21
56.6866
  0
LINE
  8
0
 10
4.78693
 20
56.6866
 11
4.89325
 21
56.6966
  0
LINE
  8
0
 10
4.89325
 20
56.6966
 11
5
 21
56.7
  0
LINE
  8
0
 10
5
 20
56.7
 11
5.10674
 21
56.6966
  0
LINE
  8
0
 10
5.10674
 20
56.6966
 11
5.21306
 21
56.6866
  0
LINE
  8
0
 10
5.21306
 20
56.6866
 11
5.31854
 21
56.6699
  0
LINE
  8
0
 10
5.31854
 20
56.6699
 11
5.42276
 21
56.6466
  0
LINE
  8
0
 10
5.42276
 20
56.6466
 11
5.52531
 21
56.6168
  0
LINE
  8
0
 10
5.52531
 20
56.6168
 11
5.62581
 21
56.5806
  0
LINE
  8
0
 10
5.62581
 20
56.5806
 11
5.72382
 21
56.5382
  0
LINE
  8
0
 10
5.72382
 20
56.5382
 11
5.81897
 21
56.4897
  0
LINE
  8
0
 10
5.81897
 20
56.4897
 11
5.9109
 21
56.4353
  0
LINE
  8
0
 10
5.9109
 20
56.4353
 11
5.99922
 21
56.3753
  0
LINE
  8
0
 10
5.99922
 20
56.3753
 11
6.08362
 21
56.3099
  0
LINE
  8
0
 10
6.08362
 20
56.3099
 11
6.16373
 21
56.2392
  0
LINE
  8
0
 10
6.16373
 20
56.2392
 11
6.23924
 21
56.1637
  0
LINE
  8
0
 10
6.23924
 20
56.1637
 11
6.30986
 21
56.0836
  0
LINE
  8
0
 10
6.30986
 20
56.0836
 11
6.37532
 21
55.9992
  0
LINE
  8
0
 10
6.37532
 20
55.9992
 11
6.43535
 21
55.9109
  0
LINE
  8
0
 10
6.43535
 20
55.9109
 11
6.48972
 21
55.819
  0
LINE
  8
0
 10
6.48972
 20
55.819
 11
6.53819
 21
55.7238
  0
LINE
  8
0
 10
6.53819
 20
55.7238
 11
6.58061
 21
55.6258
  0
LINE
  8
0
 10
6.58061
 20
55.6258
 11
6.61679
 21
55.5253
  0
LINE
  8
0
 10
6.61679
 20
55.5253
 11
6.64659
 21
55.4228
  0
LINE
  8
0
 10
6.64659
 20
55.4228
 11
6.66988
 21
55.3185
  0
LINE
  8
0
 10
6.66988
 20
55.3185
 11
6.68658
 21
55.2131
  0
LINE
  8
0
 10
6.68658
 20
55.2131
 11
6.69664
 21
55.1067
  0
LINE
  8
0
 10
6.69664
 20
55.1067
 11
6.7
 21
55
  0
LINE
  8
0
 10
6.7
 20
55
 11
6.69664
 21
54.8932
  0
LINE
  8
0
 10
6.69664
 20
54.8932
 11
6.68658
 21
54.7869
  0
LINE
  8
0
 10
6.68658
 20
54.7869
 11
6.66988
 21
54.6814
  0
LINE
  8
0
 10
6.66988
 20
54.6814
 11
6.64659
 21
54.5772
  0
LINE
  8
0
 10
6.64659
 20
54.5772
 11
6.61679
 21
54.4747
  0
LINE
  8
0
 10
6.61679
 20
54.4747
 11
6.58061
 21
54.3742
  0
LINE
  8
0
 10
6.58061
 20
54.3742
 11
6.53819
 21
54.2762
  0
LINE
  8
0
 10
6.53819
 20
54.2762
 11
6.48972
 21
54.181
  0
LINE
  8
0
 10
6.48972
 20
54.181
 11
6.43535
 21
54.0891
  0
LINE
  8
0
 10
6.43535
 20
54.0891
 11
6.37532
 21
54.0008
  0
LINE
  8
0
 10
6.37532
 20
54.0008
 11
6.30986
 21
53.9164
  0
LINE
  8
0
 10
6.30986
 20
53.9164
 11
6.23924
 21
53.8363
  0
LINE
  8
0
 10
6.23924
 20
53.8363
 11
6.16373
 21
53.7607
  0
LINE
  8
0
 10
6.16373
 20
53.7607
 11
6.08362
 21
53.6901
  0
LINE
  8
0
 10
6.08362
 20
53.6901
 11
5.99922
 21
53.6247
  0
LINE
  8
0
 10
5.99922
 20
53.6247
 11
5.9109
 21
53.5646
  0
LINE
  8
0
 10
5.9109
 20
53.5646
 11
5.81897
 21
53.5103
  0
LINE
  8
0
 10
5.81897
 20
53.5103
 11
5.72382
 21
53.4618
  0
LINE
  8
0
 10
5.72382
 20
53.4618
 11
5.62581
 21
53.4194
  0
LINE
  8
0
 10
5.62581
 20
53.4194
 11
5.52531
 21
53.3832
  0
LINE
  8
0
 10
5.52531
 20
53.3832
 11
5.42276
 21
53.3534
  0
LINE
  8
0
 10
5.42276
 20
53.3534
 11
5.31854
 21
53.3301
  0
LINE
  8
0
 10
5.31854
 20
53.3301
 11
5.21306
 21
53.3134
  0
LINE
  8
0
 10
5.21306
 20
53.3134
 11
5.10674
 21
53.3033
  0
LINE
  8
0
 10
5.10674
 20
53.3033
 11
5
 21
53.3
  0
LINE
  8
0
 10
5
 20
53.3
 11
4.89325
 21
53.3033
  0
LINE
  8
0
 10
226.893
 20
35.3033
 11
226.787
 21
35.3134
  0
LINE
  8
0
 10
226.787
 20
35.3134
 11
226.681
 21
35.3301
  0
LINE
  8
0
 10
226.681
 20
35.3301
 11
226.577
 21
35.3534
  0
LINE
  8
0
 10
226.577
 20
35.3534
 11
226.475
 21
35.3832
  0
LINE
  8
0
 10
226.475
 20
35.3832
 11
226.374
 21
35.4194
  0
LINE
  8
0
 10
226.374
 20
35.4194
 11
226.276
 21
35.4618
  0
LINE
  8
0
 10
226.276
 20
35.4618
 11
226.181
 21
35.5103
  0
LINE
  8
0
 10
226.181
 20
35.5103
 11
226.089
 21
35.5646
  0
LINE
  8
0
 10
226.089
 20
35.5646
 11
226.001
 21
35.6247
  0
LINE
  8
0
 10
226.001
 20
35.6247
 11
225.916
 21
35.6901
  0
LINE
  8
0
 10
225.916
 20
35.6901
 11
225.836
 21
35.7607
  0
LINE
  8
0
 10
225.836
 20
35.7607
 11
225.761
 21
35.8363
  0
LINE
  8
0
 10
225.761
 20
35.8363
 11
225.69
 21
35.9164
  0
LINE
  8
0
 10
225.69
 20
35.9164
 11
225.625
 21
36.0008
  0
LINE
  8
0
 10
225.625
 20
36.0008
 11
225.565
 21
36.0891
  0
LINE
  8
0
 10
225.565
 20
36.0891
 11
225.51
 21
36.181
  0
LINE
  8
0
 10
225.51
 20
36.181
 11
225.462
 21
36.2762
  0
LINE
  8
0
 10
225.462
 20
36.2762
 11
225.419
 21
36.3742
  0
LINE
  8
0
 10
225.419
 20
36.3742
 11
225.383
 21
36.4747
  0
LINE
  8
0
 10
225.383
 20
36.4747
 11
225.353
 21
36.5772
  0
LINE
  8
0
 10
225.353
 20
36.5772
 11
225.33
 21
36.6814
  0
LINE
  8
0
 10
225.33
 20
36.6814
 11
225.313
 21
36.7869
  0
LINE
  8
0
 10
225.313
 20
36.7869
 11
225.303
 21
36.8932
  0
LINE
  8
0
 10
225.303
 20
36.8932
 11
225.3
 21
37
  0
LINE
  8
0
 10
225.3
 20
37
 11
225.303
 21
37.1067
  0
LINE
  8
0
 10
225.303
 20
37.1067
 11
225.313
 21
37.2131
  0
LINE
  8
0
 10
225.313
 20
37.2131
 11
225.33
 21
37.3185
  0
LINE
  8
0
 10
225.33
 20
37.3185
 11
225.353
 21
37.4228
  0
LINE
  8
0
 10
225.353
 20
37.4228
 11
225.383
 21
37.5253
  0
LINE
  8
0
 10
225.383
 20
37.5253
 11
225.419
 21
37.6258
  0
LINE
  8
0
 10
225.419
 20
37.6258
 11
225.462
 21
37.7238
  0
LINE
  8
0
 10
225.462
 20
37.7238
 11
225.51
 21
37.819
  0
LINE
  8
0
 10
225.51
 20
37.819
 11
225.565
 21
37.9109
  0
LINE
  8
0
 10
225.565
 20
37.9109
 11
225.625
 21
37.9992
  0
LINE
  8
0
 10
225.625
 20
37.9992
 11
225.69
 21
38.0836
  0
LINE
  8
0
 10
225.69
 20
38.0836
 11
225.761
 21
38.1637
  0
LINE
  8
0
 10
225.761
 20
38.1637
 11
225.836
 21
38.2392
  0
LINE
  8
0
 10
225.836
 20
38.2392
 11
225.916
 21
38.3099
  0
LINE
  8
0
 10
225.916
 20
38.3099
 11
226.001
 21
38.3753
  0
LINE
  8
0
 10
226.001
 20
38.3753
 11
226.089
 21
38.4353
  0
LINE
  8
0
 10
226.089
 20
38.4353
 11
226.181
 21
38.4897
  0
LINE
  8
0
 10
226.181
 20
38.4897
 11
226.276
 21
38.5382
  0
LINE
  8
0
 10
226.276
 20
38.5382
 11
226.374
 21
38.5806
  0
LINE
  8
0
 10
226.374
 20
38.5806
 11
226.475
 21
38.6168
  0
LINE
  8
0
 10
226.475
 20
38.6168
 11
226.577
 21
38.6466
  0
LINE
  8
0
 10
226.577
 20
38.6466
 11
226.681
 21
38.6699
  0
LINE
  8
0
 10
226.681
 20
38.6699
 11
226.787
 21
38.6866
  0
LINE
  8
0
 10
226.787
 20
38.6866
 11
226.893
 21
38.6966
  0
LINE
  8
0
 10
226.893
 20
38.6966
 11
227
 21
38.7
  0
LINE
  8
0
 10
227
 20
38.7
 11
227.107
 21
38.6966
  0
LINE
  8
0
 10
227.107
 20
38.6966
 11
227.213
 21
38.6866
  0
LINE
  8
0
 10
227.213
 20
38.6866
 11
227.319
 21
38.6699
  0
LINE
  8
0
 10
227.319
 20
38.6699
 11
227.423
 21
38.6466
  0
LINE
  8
0
 10
227.423
 20
38.6466
 11
227.525
 21
38.6168
  0
LINE
  8
0
 10
227.525
 20
38.6168
 11
227.626
 21
38.5806
  0
LINE
  8
0
 10
227.626
 20
38.5806
 11
227.724
 21
38.5382
  0
LINE
  8
0
 10
227.724
 20
38.5382
 11
227.819
 21
38.4897
  0
LINE
  8
0
 10
227.819
 20
38.4897
 11
227.911
 21
38.4353
  0
LINE
  8
0
 10
227.911
 20
38.4353
 11
227.999
 21
38.3753
  0
LINE
  8
0
 10
227.999
 20
38.3753
 11
228.084
 21
38.3099
  0
LINE
  8
0
 10
228.084
 20
38.3099
 11
228.164
 21
38.2392
  0
LINE
  8
0
 10
228.164
 20
38.2392
 11
228.239
 21
38.1637
  0
LINE
  8
0
 10
228.239
 20
38.1637
 11
228.31
 21
38.0836
  0
LINE
  8
0
 10
228.31
 20
38.0836
 11
228.375
 21
37.9992
  0
LINE
  8
0
 10
228.375
 20
37.9992
 11
228.435
 21
37.9109
  0
LINE
  8
0
 10
228.435
 20
37.9109
 11
228.49
 21
37.819
  0
LINE
  8
0
 10
228.49
 20
37.819
 11
228.538
 21
37.7238
  0
LINE
  8
0
 10
228.538
 20
37.7238
 11
228.581
 21
37.6258
  0
LINE
  8
0
 10
228.581
 20
37.6258
 11
228.617
 21
37.5253
  0
LINE
  8
0
 10
228.617
 20
37.5253
 11
228.647
 21
37.4228
  0
LINE
  8
0
 10
228.647
 20
37.4228
 11
228.67
 21
37.3185
  0
LINE
  8
0
 10
228.67
 20
37.3185
 11
228.687
 21
37.2131
  0
LINE
  8
0
 10
228.687
 20
37.2131
 11
228.697
 21
37.1067
  0
LINE
  8
0
 10
228.697
 20
37.1067
 11
228.7
 21
37
  0
LINE
  8
0
 10
228.7
 20
37
 11
228.697
 21
36.8932
  0
LINE
  8
0
 10
228.697
 20
36.8932
 11
228.687
 21
36.7869
  0
LINE
  8
0
 10
228.687
 20
36.7869
 11
228.67
 21
36.6814
  0
LINE
  8
0
 10
228.67
 20
36.6814
 11
228.647
 21
36.5772
  0
LINE
  8
0
 10
228.647
 20
36.5772
 11
228.617
 21
36.4747
  0
LINE
  8
0
 10
228.617
 20
36.4747
 11
228.581
 21
36.3742
  0
LINE
  8
0
 10
228.581
 20
36.3742
 11
228.538
 21
36.2762
  0
LINE
  8
0
 10
228.538
 20
36.2762
 11
228.49
 21
36.181
  0
LINE
  8
0
 10
228.49
 20
36.181
 11
228.435
 21
36.0891
  0
LINE
  8
0
 10
228.435
 20
36.0891
 11
228.375
 21
36.0008
  0
LINE
  8
0
 10
228.375
 20
36.0008
 11
228.31
 21
35.9164
  0
LINE
  8
0
 10
228.31
 20
35.9164
 11
228.239
 21
35.8363
  0
LINE
  8
0
 10
228.239
 20
35.8363
 11
228.164
 21
35.7607
  0
LINE
  8
0
 10
228.164
 20
35.7607
 11
228.084
 21
35.6901
  0
LINE
  8
0
 10
228.084
 20
35.6901
 11
227.999
 21
35.6247
  0
LINE
  8
0
 10
227.999
 20
35.6247
 11
227.911
 21
35.5646
  0
LINE
  8
0
 10
227.911
 20
35.5646
 11
227.819
 21
35.5103
  0
LINE
  8
0
 10
227.819
 20
35.5103
 11
227.724
 21
35.4618
  0
LINE
  8
0
 10
227.724
 20
35.4618
 11
227.626
 21
35.4194
  0
LINE
  8
0
 10
227.626
 20
35.4194
 11
227.525
 21
35.3832
  0
LINE
  8
0
 10
227.525
 20
35.3832
 11
227.423
 21
35.3534
  0
LINE
  8
0
 10
227.423
 20
35.3534
 11
227.319
 21
35.3301
  0
LINE
  8
0
 10
227.319
 20
35.3301
 11
227.213
 21
35.3134
  0
LINE
  8
0
 10
227.213
 20
35.3134
 11
227.107
 21
35.3033
  0
LINE
  8
0
 10
227.107
 20
35.3033
 11
227
 21
35.3
  0
LINE
  8
0
 10
227
 20
35.3
 11
226.893
 21
35.3033
  0
LINE
  8
0
 10
144.893
 20
35.3033
 11
144.787
 21
35.3134
  0
LINE
  8
0
 10
144.787
 20
35.3134
 11
144.681
 21
35.3301
  0
LINE
  8
0
 10
144.681
 20
35.3301
 11
144.577
 21
35.3534
  0
LINE
  8
0
 10
144.577
 20
35.3534
 11
144.475
 21
35.3832
  0
LINE
  8
0
 10
144.475
 20
35.3832
 11
144.374
 21
35.4194
  0
LINE
  8
0
 10
144.374
 20
35.4194
 11
144.276
 21
35.4618
  0
LINE
  8
0
 10
144.276
 20
35.4618
 11
144.181
 21
35.5103
  0
LINE
  8
0
 10
144.181
 20
35.5103
 11
144.089
 21
35.5646
  0
LINE
  8
0
 10
144.089
 20
35.5646
 11
144.001
 21
35.6247
  0
LINE
  8
0
 10
144.001
 20
35.6247
 11
143.916
 21
35.6901
  0
LINE
  8
0
 10
143.916
 20
35.6901
 11
143.836
 21
35.7607
  0
LINE
  8
0
 10
143.836
 20
35.7607
 11
143.761
 21
35.8363
  0
LINE
  8
0
 10
143.761
 20
35.8363
 11
143.69
 21
35.9164
  0
LINE
  8
0
 10
143.69
 20
35.9164
 11
143.625
 21
36.0008
  0
LINE
  8
0
 10
143.625
 20
36.0008
 11
143.565
 21
36.0891
  0
LINE
  8
0
 10
143.565
 20
36.0891
 11
143.51
 21
36.181
  0
LINE
  8
0
 10
143.51
 20
36.181
 11
143.462
 21
36.2762
  0
LINE
  8
0
 10
143.462
 20
36.2762
 11
143.419
 21
36.3742
  0
LINE
  8
0
 10
143.419
 20
36.3742
 11
143.383
 21
36.4747
  0
LINE
  8
0
 10
143.383
 20
36.4747
 11
143.353
 21
36.5772
  0
LINE
  8
0
 10
143.353
 20
36.5772
 11
143.33
 21
36.6814
  0
LINE
  8
0
 10
143.33
 20
36.6814
 11
143.313
 21
36.7869
  0
LINE
  8
0
 10
143.313
 20
36.7869
 11
143.303
 21
36.8932
  0
LINE
  8
0
 10
143.303
 20
36.8932
 11
143.3
 21
37
  0
LINE
  8
0
 10
143.3
 20
37
 11
143.303
 21
37.1067
  0
LINE
  8
0
 10
143.303
 20
37.1067
 11
143.313
 21
37.2131
  0
LINE
  8
0
 10
143.313
 20
37.2131
 11
143.33
 21
37.3185
  0
LINE
  8
0
 10
143.33
 20
37.3185
 11
143.353
 21
37.4228
  0
LINE
  8
0
 10
143.353
 20
37.4228
 11
143.383
 21
37.5253
  0
LINE
  8
0
 10
143.383
 20
37.5253
 11
143.419
 21
37.6258
  0
LINE
  8
0
 10
143.419
 20
37.6258
 11
143.462
 21
37.7238
  0
LINE
  8
0
 10
143.462
 20
37.7238
 11
143.51
 21
37.819
  0
LINE
  8
0
 10
143.51
 20
37.819
 11
143.565
 21
37.9109
  0
LINE
  8
0
 10
143.565
 20
37.9109
 11
143.625
 21
37.9992
  0
LINE
  8
0
 10
143.625
 20
37.9992
 11
143.69
 21
38.0836
  0
LINE
  8
0
 10
143.69
 20
38.0836
 11
143.761
 21
38.1637
  0
LINE
  8
0
 10
143.761
 20
38.1637
 11
143.836
 21
38.2392
  0
LINE
  8
0
 10
143.836
 20
38.2392
 11
143.916
 21
38.3099
  0
LINE
  8
0
 10
143.916
 20
38.3099
 11
144.001
 21
38.3753
  0
LINE
  8
0
 10
144.001
 20
38.3753
 11
144.089
 21
38.4353
  0
LINE
  8
0
 10
144.089
 20
38.4353
 11
144.181
 21
38.4897
  0
LINE
  8
0
 10
144.181
 20
38.4897
 11
144.276
 21
38.5382
  0
LINE
  8
0
 10
144.276
 20
38.5382
 11
144.374
 21
38.5806
  0
LINE
  8
0
 10
144.374
 20
38.5806
 11
144.475
 21
38.6168
  0
LINE
  8
0
 10
144.475
 20
38.6168
 11
144.577
 21
38.6466
  0
LINE
  8
0
 10
144.577
 20
38.6466
 11
144.681
 21
38.6699
  0
LINE
  8
0
 10
144.681
 20
38.6699
 11
144.787
 21
38.6866
  0
LINE
  8
0
 10
144.787
 20
38.6866
 11
144.893
 21
38.6966
  0
LINE
  8
0
 10
144.893
 20
38.6966
 11
145
 21
38.7
  0
LINE
  8
0
 10
145
 20
38.7
 11
145.107
 21
38.6966
  0
LINE
  8
0
 10
145.107
 20
38.6966
 11
145.213
 21
38.6866
  0
LINE
  8
0
 10
145.213
 20
38.6866
 11
145.319
 21
38.6699
  0
LINE
  8
0
 10
145.319
 20
38.6699
 11
145.423
 21
38.6466
  0
LINE
  8
0
 10
145.423
 20
38.6466
 11
145.525
 21
38.6168
  0
LINE
  8
0
 10
145.525
 20
38.6168
 11
145.626
 21
38.5806
  0
LINE
  8
0
 10
145.626
 20
38.5806
 11
145.724
 21
38.5382
  0
LINE
  8
0
 10
145.724
 20
38.5382
 11
145.819
 21
38.4897
  0
LINE
  8
0
 10
145.819
 20
38.4897
 11
145.911
 21
38.4353
  0
LINE
  8
0
 10
145.911
 20
38.4353
 11
145.999
 21
38.3753
  0
LINE
  8
0
 10
145.999
 20
38.3753
 11
146.084
 21
38.3099
  0
LINE
  8
0
 10
146.084
 20
38.3099
 11
146.164
 21
38.2392
  0
LINE
  8
0
 10
146.164
 20
38.2392
 11
146.239
 21
38.1637
  0
LINE
  8
0
 10
146.239
 20
38.1637
 11
146.31
 21
38.0836
  0
LINE
  8
0
 10
146.31
 20
38.0836
 11
146.375
 21
37.9992
  0
LINE
  8
0
 10
146.375
 20
37.9992
 11
146.435
 21
37.9109
  0
LINE
  8
0
 10
146.435
 20
37.9109
 11
146.49
 21
37.819
  0
LINE
  8
0
 10
146.49
 20
37.819
 11
146.538
 21
37.7238
  0
LINE
  8
0
 10
146.538
 20
37.7238
 11
146.581
 21
37.6258
  0
LINE
  8
0
 10
146.581
 20
37.6258
 11
146.617
 21
37.5253
  0
LINE
  8
0
 10
146.617
 20
37.5253
 11
146.647
 21
37.4228
  0
LINE
  8
0
 10
146.647
 20
37.4228
 11
146.67
 21
37.3185
  0
LINE
  8
0
 10
146.67
 20
37.3185
 11
146.687
 21
37.2131
  0
LINE
  8
0
 10
146.687
 20
37.2131
 11
146.697
 21
37.1067
  0
LINE
  8
0
 10
146.697
 20
37.1067
 11
146.7
 21
37
  0
LINE
  8
0
 10
146.7
 20
37
 11
146.697
 21
36.8932
  0
LINE
  8
0
 10
146.697
 20
36.8932
 11
146.687
 21
36.7869
  0
LINE
  8
0
 10
146.687
 20
36.7869
 11
146.67
 21
36.6814
  0
LINE
  8
0
 10
146.67
 20
36.6814
 11
146.647
 21
36.5772
  0
LINE
  8
0
 10
146.647
 20
36.5772
 11
146.617
 21
36.4747
  0
LINE
  8
0
 10
146.617
 20
36.4747
 11
146.581
 21
36.3742
  0
LINE
  8
0
 10
146.581
 20
36.3742
 11
146.538
 21
36.2762
  0
LINE
  8
0
 10
146.538
 20
36.2762
 11
146.49
 21
36.181
  0
LINE
  8
0
 10
146.49
 20
36.181
 11
146.435
 21
36.0891
  0
LINE
  8
0
 10
146.435
 20
36.0891
 11
146.375
 21
36.0008
  0
LINE
  8
0
 10
146.375
 20
36.0008
 11
146.31
 21
35.9164
  0
LINE
  8
0
 10
146.31
 20
35.9164
 11
146.239
 21
35.8363
  0
LINE
  8
0
 10
146.239
 20
35.8363
 11
146.164
 21
35.7607
  0
LINE
  8
0
 10
146.164
 20
35.7607
 11
146.084
 21
35.6901
  0
LINE
  8
0
 10
146.084
 20
35.6901
 11
145.999
 21
35.6247
  0
LINE
  8
0
 10
145.999
 20
35.6247
 11
145.911
 21
35.5646
  0
LINE
  8
0
 10
145.911
 20
35.5646
 11
145.819
 21
35.5103
  0
LINE
  8
0
 10
145.819
 20
35.5103
 11
145.724
 21
35.4618
  0
LINE
  8
0
 10
145.724
 20
35.4618
 11
145.626
 21
35.4194
  0
LINE
  8
0
 10
145.626
 20
35.4194
 11
145.525
 21
35.3832
  0
LINE
  8
0
 10
145.525
 20
35.3832
 11
145.423
 21
35.3534
  0
LINE
  8
0
 10
145.423
 20
35.3534
 11
145.319
 21
35.3301
  0
LINE
  8
0
 10
145.319
 20
35.3301
 11
145.213
 21
35.3134
  0
LINE
  8
0
 10
145.213
 20
35.3134
 11
145.107
 21
35.3033
  0
LINE
  8
0
 10
145.107
 20
35.3033
 11
145
 21
35.3
  0
LINE
  8
0
 10
145
 20
35.3
 11
144.893
 21
35.3033
  0
LINE
  8
0
 10
62.8932
 20
35.3033
 11
62.7869
 21
35.3134
  0
LINE
  8
0
 10
62.7869
 20
35.3134
 11
62.6814
 21
35.3301
  0
LINE
  8
0
 10
62.6814
 20
35.3301
 11
62.5772
 21
35.3534
  0
LINE
  8
0
 10
62.5772
 20
35.3534
 11
62.4747
 21
35.3832
  0
LINE
  8
0
 10
62.4747
 20
35.3832
 11
62.3742
 21
35.4194
  0
LINE
  8
0
 10
62.3742
 20
35.4194
 11
62.2762
 21
35.4618
  0
LINE
  8
0
 10
62.2762
 20
35.4618
 11
62.181
 21
35.5103
  0
LINE
  8
0
 10
62.181
 20
35.5103
 11
62.0891
 21
35.5646
  0
LINE
  8
0
 10
62.0891
 20
35.5646
 11
62.0008
 21
35.6247
  0
LINE
  8
0
 10
62.0008
 20
35.6247
 11
61.9164
 21
35.6901
  0
LINE
  8
0
 10
61.9164
 20
35.6901
 11
61.8363
 21
35.7607
  0
LINE
  8
0
 10
61.8363
 20
35.7607
 11
61.7607
 21
35.8363
  0
LINE
  8
0
 10
61.7607
 20
35.8363
 11
61.6901
 21
35.9164
  0
LINE
  8
0
 10
61.6901
 20
35.9164
 11
61.6247
 21
36.0008
  0
LINE
  8
0
 10
61.6247
 20
36.0008
 11
61.5646
 21
36.0891
  0
LINE
  8
0
 10
61.5646
 20
36.0891
 11
61.5103
 21
36.181
  0
LINE
  8
0
 10
61.5103
 20
36.181
 11
61.4618
 21
36.2762
  0
LINE
  8
0
 10
61.4618
 20
36.2762
 11
61.4194
 21
36.3742
  0
LINE
  8
0
 10
61.4194
 20
36.3742
 11
61.3832
 21
36.4747
  0
LINE
  8
0
 10
61.3832
 20
36.4747
 11
61.3534
 21
36.5772
  0
LINE
  8
0
 10
61.3534
 20
36.5772
 11
61.3301
 21
36.6814
  0
LINE
  8
0
 10
61.3301
 20
36.6814
 11
61.3134
 21
36.7869
  0
LINE
  8
0
 10
61.3134
 20
36.7869
 11
61.3033
 21
36.8932
  0
LINE
  8
0
 10
61.3033
 20
36.8932
 11
61.3
 21
37
  0
LINE
  8
0
 10
61.3
 20
37
 11
61.3033
 21
37.1067
  0
LINE
  8
0
 10
61.3033
 20
37.1067
 11
61.3134
 21
37.2131
  0
LINE
  8
0
 10
61.3134
 20
37.2131
 11
61.3301
 21
37.3185
  0
LINE
  8
0
 10
61.3301
 20
37.3185
 11
61.3534
 21
37.4228
  0
LINE
  8
0
 10
61.3534
 20
37.4228
 11
61.3832
 21
37.5253
  0
LINE
  8
0
 10
61.3832
 20
37.5253
 11
61.4194
 21
37.6258
  0
LINE
  8
0
 10
61.4194
 20
37.6258
 11
61.4618
 21
37.7238
  0
LINE
  8
0
 10
61.4618
 20
37.7238
 11
61.5103
 21
37.819
  0
LINE
  8
0
 10
61.5103
 20
37.819
 11
61.5646
 21
37.9109
  0
LINE
  8
0
 10
61.5646
 20
37.9109
 11
61.6247
 21
37.9992
  0
LINE
  8
0
 10
61.6247
 20
37.9992
 11
61.6901
 21
38.0836
  0
LINE
  8
0
 10
61.6901
 20
38.0836
 11
61.7607
 21
38.1637
  0
LINE
  8
0
 10
61.7607
 20
38.1637
 11
61.8363
 21
38.2392
  0
LINE
  8
0
 10
61.8363
 20
38.2392
 11
61.9164
 21
38.3099
  0
LINE
  8
0
 10
61.9164
 20
38.3099
 11
62.0008
 21
38.3753
  0
LINE
  8
0
 10
62.0008
 20
38.3753
 11
62.0891
 21
38.4353
  0
LINE
  8
0
 10
62.0891
 20
38.4353
 11
62.181
 21
38.4897
  0
LINE
  8
0
 10
62.181
 20
38.4897
 11
62.2762
 21
38.5382
  0
LINE
  8
0
 10
62.2762
 20
38.5382
 11
62.3742
 21
38.5806
  0
LINE
  8
0
 10
62.3742
 20
38.5806
 11
62.4747
 21
38.6168
  0
LINE
  8
0
 10
62.4747
 20
38.6168
 11
62.5772
 21
38.6466
  0
LINE
  8
0
 10
62.5772
 20
38.6466
 11
62.6814
 21
38.6699
  0
LINE
  8
0
 10
62.6814
 20
38.6699
 11
62.7869
 21
38.6866
  0
LINE
  8
0
 10
62.7869
 20
38.6866
 11
62.8932
 21
38.6966
  0
LINE
  8
0
 10
62.8932
 20
38.6966
 11
63
 21
38.7
  0
LINE
  8
0
 10
63
 20
38.7
 11
63.1067
 21
38.6966
  0
LINE
  8
0
 10
63.1067
 20
38.6966
 11
63.2131
 21
38.6866
  0
LINE
  8
0
 10
63.2131
 20
38.6866
 11
63.3185
 21
38.6699
  0
LINE
  8
0
 10
63.3185
 20
38.6699
 11
63.4228
 21
38.6466
  0
LINE
  8
0
 10
63.4228
 20
38.6466
 11
63.5253
 21
38.6168
  0
LINE
  8
0
 10
63.5253
 20
38.6168
 11
63.6258
 21
38.5806
  0
LINE
  8
0
 10
63.6258
 20
38.5806
 11
63.7238
 21
38.5382
  0
LINE
  8
0
 10
63.7238
 20
38.5382
 11
63.819
 21
38.4897
  0
LINE
  8
0
 10
63.819
 20
38.4897
 11
63.9109
 21
38.4353
  0
LINE
  8
0
 10
63.9109
 20
38.4353
 11
63.9992
 21
38.3753
  0
LINE
  8
0
 10
63.9992
 20
38.3753
 11
64.0836
 21
38.3099
  0
LINE
  8
0
 10
64.0836
 20
38.3099
 11
64.1637
 21
38.2392
  0
LINE
  8
0
 10
64.1637
 20
38.2392
 11
64.2392
 21
38.1637
  0
LINE
  8
0
 10
64.2392
 20
38.1637
 11
64.3099
 21
38.0836
  0
LINE
  8
0
 10
64.3099
 20
38.0836
 11
64.3753
 21
37.9992
  0
LINE
  8
0
 10
64.3753
 20
37.9992
 11
64.4353
 21
37.9109
  0
LINE
  8
0
 10
64.4353
 20
37.9109
 11
64.4897
 21
37.819
  0
LINE
  8
0
 10
64.4897
 20
37.819
 11
64.5382
 21
37.7238
  0
LINE
  8
0
 10
64.5382
 20
37.7238
 11
64.5806
 21
37.6258
  0
LINE
  8
0
 10
64.5806
 20
37.6258
 11
64.6168
 21
37.5253
  0
LINE
  8
0
 10
64.6168
 20
37.5253
 11
64.6466
 21
37.4228
  0
LINE
  8
0
 10
64.6466
 20
37.4228
 11
64.6699
 21
37.3185
  0
LINE
  8
0
 10
64.6699
 20
37.3185
 11
64.6866
 21
37.2131
  0
LINE
  8
0
 10
64.6866
 20
37.2131
 11
64.6966
 21
37.1067
  0
LINE
  8
0
 10
64.6966
 20
37.1067
 11
64.7
 21
37
  0
LINE
  8
0
 10
64.7
 20
37
 11
64.6966
 21
36.8932
  0
LINE
  8
0
 10
64.6966
 20
36.8932
 11
64.6866
 21
36.7869
  0
LINE
  8
0
 10
64.6866
 20
36.7869
 11
64.6699
 21
36.6814
  0
LINE
  8
0
 10
64.6699
 20
36.6814
 11
64.6466
 21
36.5772
  0
LINE
  8
0
 10
64.6466
 20
36.5772
 11
64.6168
 21
36.4747
  0
LINE
  8
0
 10
64.6168
 20
36.4747
 11
64.5806
 21
36.3742
  0
LINE
  8
0
 10
64.5806
 20
36.3742
 11
64.5382
 21
36.2762
  0
LINE
  8
0
 10
64.5382
 20
36.2762
 11
64.4897
 21
36.181
  0
LINE
  8
0
 10
64.4897
 20
36.181
 11
64.4353
 21
36.0891
  0
LINE
  8
0
 10
64.4353
 20
36.0891
 11
64.3753
 21
36.0008
  0
LINE
  8
0
 10
64.3753
 20
36.0008
 11
64.3099
 21
35.9164
  0
LINE
  8
0
 10
64.3099
 20
35.9164
 11
64.2392
 21
35.8363
  0
LINE
  8
0
 10
64.2392
 20
35.8363
 11
64.1637
 21
35.7607
  0
LINE
  8
0
 10
64.1637
 20
35.7607
 11
64.0836
 21
35.6901
  0
LINE
  8
0
 10
64.0836
 20
35.6901
 11
63.9992
 21
35.6247
  0
LINE
  8
0
 10
63.9992
 20
35.6247
 11
63.9109
 21
35.5646
  0
LINE
  8
0
 10
63.9109
 20
35.5646
 11
63.819
 21
35.5103
  0
LINE
  8
0
 10
63.819
 20
35.5103
 11
63.7238
 21
35.4618
  0
LINE
  8
0
 10
63.7238
 20
35.4618
 11
63.6258
 21
35.4194
  0
LINE
  8
0
 10
63.6258
 20
35.4194
 11
63.5253
 21
35.3832
  0
LINE
  8
0
 10
63.5253
 20
35.3832
 11
63.4228
 21
35.3534
  0
LINE
  8
0
 10
63.4228
 20
35.3534
 11
63.3185
 21
35.3301
  0
LINE
  8
0
 10
63.3185
 20
35.3301
 11
63.2131
 21
35.3134
  0
LINE
  8
0
 10
63.2131
 20
35.3134
 11
63.1067
 21
35.3033
  0
LINE
  8
0
 10
63.1067
 20
35.3033
 11
63
 21
35.3
  0
LINE
  8
0
 10
63
 20
35.3
 11
62.8932
 21
35.3033
  0
LINE
  8
0
 10
199.893
 20
3.30334
 11
199.787
 21
3.3134
  0
LINE
  8
0
 10
199.787
 20
3.3134
 11
199.681
 21
3.33011
  0
LINE
  8
0
 10
199.681
 20
3.33011
 11
199.577
 21
3.35339
  0
LINE
  8
0
 10
199.577
 20
3.35339
 11
199.475
 21
3.38319
  0
LINE
  8
0
 10
199.475
 20
3.38319
 11
199.374
 21
3.41937
  0
LINE
  8
0
 10
199.374
 20
3.41937
 11
199.276
 21
3.46179
  0
LINE
  8
0
 10
199.276
 20
3.46179
 11
199.181
 21
3.51027
  0
LINE
  8
0
 10
199.181
 20
3.51027
 11
199.089
 21
3.56464
  0
LINE
  8
0
 10
199.089
 20
3.56464
 11
199.001
 21
3.62466
  0
LINE
  8
0
 10
199.001
 20
3.62466
 11
198.916
 21
3.69012
  0
LINE
  8
0
 10
198.916
 20
3.69012
 11
198.836
 21
3.76074
  0
LINE
  8
0
 10
198.836
 20
3.76074
 11
198.761
 21
3.83626
  0
LINE
  8
0
 10
198.761
 20
3.83626
 11
198.69
 21
3.91637
  0
LINE
  8
0
 10
198.69
 20
3.91637
 11
198.625
 21
4.00076
  0
LINE
  8
0
 10
198.625
 20
4.00076
 11
198.565
 21
4.08908
  0
LINE
  8
0
 10
198.565
 20
4.08908
 11
198.51
 21
4.18102
  0
LINE
  8
0
 10
198.51
 20
4.18102
 11
198.462
 21
4.27617
  0
LINE
  8
0
 10
198.462
 20
4.27617
 11
198.419
 21
4.37418
  0
LINE
  8
0
 10
198.419
 20
4.37418
 11
198.383
 21
4.47467
  0
LINE
  8
0
 10
198.383
 20
4.47467
 11
198.353
 21
4.57722
  0
LINE
  8
0
 10
198.353
 20
4.57722
 11
198.33
 21
4.68144
  0
LINE
  8
0
 10
198.33
 20
4.68144
 11
198.313
 21
4.78693
  0
LINE
  8
0
 10
198.313
 20
4.78693
 11
198.303
 21
4.89325
  0
LINE
  8
0
 10
198.303
 20
4.89325
 11
198.3
 21
5
  0
LINE
  8
0
 10
198.3
 20
5
 11
198.303
 21
5.10674
  0
LINE
  8
0
 10
198.303
 20
5.10674
 11
198.313
 21
5.21306
  0
LINE
  8
0
 10
198.313
 20
5.21306
 11
198.33
 21
5.31854
  0
LINE
  8
0
 10
198.33
 20
5.31854
 11
198.353
 21
5.42276
  0
LINE
  8
0
 10
198.353
 20
5.42276
 11
198.383
 21
5.52531
  0
LINE
  8
0
 10
198.383
 20
5.52531
 11
198.419
 21
5.62581
  0
LINE
  8
0
 10
198.419
 20
5.62581
 11
198.462
 21
5.72382
  0
LINE
  8
0
 10
198.462
 20
5.72382
 11
198.51
 21
5.81897
  0
LINE
  8
0
 10
198.51
 20
5.81897
 11
198.565
 21
5.9109
  0
LINE
  8
0
 10
198.565
 20
5.9109
 11
198.625
 21
5.99922
  0
LINE
  8
0
 10
198.625
 20
5.99922
 11
198.69
 21
6.08362
  0
LINE
  8
0
 10
198.69
 20
6.08362
 11
198.761
 21
6.16373
  0
LINE
  8
0
 10
198.761
 20
6.16373
 11
198.836
 21
6.23924
  0
LINE
  8
0
 10
198.836
 20
6.23924
 11
198.916
 21
6.30986
  0
LINE
  8
0
 10
198.916
 20
6.30986
 11
199.001
 21
6.37532
  0
LINE
  8
0
 10
199.001
 20
6.37532
 11
199.089
 21
6.43535
  0
LINE
  8
0
 10
199.089
 20
6.43535
 11
199.181
 21
6.48972
  0
LINE
  8
0
 10
199.181
 20
6.48972
 11
199.276
 21
6.53819
  0
LINE
  8
0
 10
199.276
 20
6.53819
 11
199.374
 21
6.58061
  0
LINE
  8
0
 10
199.374
 20
6.58061
 11
199.475
 21
6.61679
  0
LINE
  8
0
 10
199.475
 20
6.61679
 11
199.577
 21
6.64659
  0
LINE
  8
0
 10
199.577
 20
6.64659
 11
199.681
 21
6.66988
  0
LINE
  8
0
 10
199.681
 20
6.66988
 11
199.787
 21
6.68658
  0
LINE
  8
0
 10
199.787
 20
6.68658
 11
199.893
 21
6.69664
  0
LINE
  8
0
 10
199.893
 20
6.69664
 11
200
 21
6.7
  0
LINE
  8
0
 10
200
 20
6.7
 11
200.107
 21
6.69664
  0
LINE
  8
0
 10
200.107
 20
6.69664
 11
200.213
 21
6.68658
  0
LINE
  8
0
 10
200.213
 20
6.68658
 11
200.319
 21
6.66988
  0
LINE
  8
0
 10
200.319
 20
6.66988
 11
200.423
 21
6.64659
  0
LINE
  8
0
 10
200.423
 20
6.64659
 11
200.525
 21
6.61679
  0
LINE
  8
0
 10
200.525
 20
6.61679
 11
200.626
 21
6.58061
  0
LINE
  8
0
 10
200.626
 20
6.58061
 11
200.724
 21
6.53819
  0
LINE
  8
0
 10
200.724
 20
6.53819
 11
200.819
 21
6.48972
  0
LINE
  8
0
 10
200.819
 20
6.48972
 11
200.911
 21
6.43535
  0
LINE
  8
0
 10
200.911
 20
6.43535
 11
200.999
 21
6.37532
  0
LINE
  8
0
 10
200.999
 20
6.37532
 11
201.084
 21
6.30986
  0
LINE
  8
0
 10
201.084
 20
6.30986
 11
201.164
 21
6.23924
  0
LINE
  8
0
 10
201.164
 20
6.23924
 11
201.239
 21
6.16373
  0
LINE
  8
0
 10
201.239
 20
6.16373
 11
201.31
 21
6.08362
  0
LINE
  8
0
 10
201.31
 20
6.08362
 11
201.375
 21
5.99922
  0
LINE
  8
0
 10
201.375
 20
5.99922
 11
201.435
 21
5.9109
  0
LINE
  8
0
 10
201.435
 20
5.9109
 11
201.49
 21
5.81897
  0
LINE
  8
0
 10
201.49
 20
5.81897
 11
201.538
 21
5.72382
  0
LINE
  8
0
 10
201.538
 20
5.72382
 11
201.581
 21
5.62581
  0
LINE
  8
0
 10
201.581
 20
5.62581
 11
201.617
 21
5.52531
  0
LINE
  8
0
 10
201.617
 20
5.52531
 11
201.647
 21
5.42276
  0
LINE
  8
0
 10
201.647
 20
5.42276
 11
201.67
 21
5.31854
  0
LINE
  8
0
 10
201.67
 20
5.31854
 11
201.687
 21
5.21306
  0
LINE
  8
0
 10
201.687
 20
5.21306
 11
201.697
 21
5.10674
  0
LINE
  8
0
 10
201.697
 20
5.10674
 11
201.7
 21
5
  0
LINE
  8
0
 10
201.7
 20
5
 11
201.697
 21
4.89325
  0
LINE
  8
0
 10
201.697
 20
4.89325
 11
201.687
 21
4.78693
  0
LINE
  8
0
 10
201.687
 20
4.78693
 11
201.67
 21
4.68144
  0
LINE
  8
0
 10
201.67
 20
4.68144
 11
201.647
 21
4.57722
  0
LINE
  8
0
 10
201.647
 20
4.57722
 11
201.617
 21
4.47467
  0
LINE
  8
0
 10
201.617
 20
4.47467
 11
201.581
 21
4.37418
  0
LINE
  8
0
 10
201.581
 20
4.37418
 11
201.538
 21
4.27617
  0
LINE
  8
0
 10
201.538
 20
4.27617
 11
201.49
 21
4.18102
  0
LINE
  8
0
 10
201.49
 20
4.18102
 11
201.435
 21
4.08908
  0
LINE
  8
0
 10
201.435
 20
4.08908
 11
201.375
 21
4.00076
  0
LINE
  8
0
 10
201.375
 20
4.00076
 11
201.31
 21
3.91637
  0
LINE
  8
0
 10
201.31
 20
3.91637
 11
201.239
 21
3.83626
  0
LINE
  8
0
 10
201.239
 20
3.83626
 11
201.164
 21
3.76074
  0
LINE
  8
0
 10
201.164
 20
3.76074
 11
201.084
 21
3.69012
  0
LINE
  8
0
 10
201.084
 20
3.69012
 11
200.999
 21
3.62466
  0
LINE
  8
0
 10
200.999
 20
3.62466
 11
200.911
 21
3.56464
  0
LINE
  8
0
 10
200.911
 20
3.56464
 11
200.819
 21
3.51027
  0
LINE
  8
0
 10
200.819
 20
3.51027
 11
200.724
 21
3.46179
  0
LINE
  8
0
 10
200.724
 20
3.46179
 11
200.626
 21
3.41937
  0
LINE
  8
0
 10
200.626
 20
3.41937
 11
200.525
 21
3.38319
  0
LINE
  8
0
 10
200.525
 20
3.38319
 11
200.423
 21
3.35339
  0
LINE
  8
0
 10
200.423
 20
3.35339
 11
200.319
 21
3.33011
  0
LINE
  8
0
 10
200.319
 20
3.33011
 11
200.213
 21
3.3134
  0
LINE
  8
0
 10
200.213
 20
3.3134
 11
200.107
 21
3.30334
  0
LINE
  8
0
 10
200.107
 20
3.30334
 11
200
 21
3.29999
  0
LINE
  8
0
 10
200
 20
3.29999
 11
199.893
 21
3.30334
  0
LINE
  8
0
 10
4.89325
 20
3.30334
 11
4.78693
 21
3.3134
  0
LINE
  8
0
 10
4.78693
 20
3.3134
 11
4.68144
 21
3.33011
  0
LINE
  8
0
 10
4.68144
 20
3.33011
 11
4.57722
 21
3.35339
  0
LINE
  8
0
 10
4.57722
 20
3.35339
 11
4.47467
 21
3.38319
  0
LINE
  8
0
 10
4.47467
 20
3.38319
 11
4.37418
 21
3.41937
  0
LINE
  8
0
 10
4.37418
 20
3.41937
 11
4.27617
 21
3.46179
  0
LINE
  8
0
 10
4.27617
 20
3.46179
 11
4.18102
 21
3.51027
  0
LINE
  8
0
 10
4.18102
 20
3.51027
 11
4.08908
 21
3.56464
  0
LINE
  8
0
 10
4.08908
 20
3.56464
 11
4.00076
 21
3.62466
  0
LINE
  8
0
 10
4.00076
 20
3.62466
 11
3.91637
 21
3.69012
  0
LINE
  8
0
 10
3.91637
 20
3.69012
 11
3.83626
 21
3.76074
  0
LINE
  8
0
 10
3.83626
 20
3.76074
 11
3.76074
 21
3.83626
  0
LINE
  8
0
 10
3.76074
 20
3.83626
 11
3.69012
 21
3.91637
  0
LINE
  8
0
 10
3.69012
 20
3.91637
 11
3.62466
 21
4.00076
  0
LINE
  8
0
 10
3.62466
 20
4.00076
 11
3.56464
 21
4.08908
  0
LINE
  8
0
 10
3.56464
 20
4.08908
 11
3.51027
 21
4.18102
  0
LINE
  8
0
 10
3.51027
 20
4.18102
 11
3.46179
 21
4.27617
  0
LINE
  8
0
 10
3.46179
 20
4.27617
 11
3.41937
 21
4.37418
  0
LINE
  8
0
 10
3.41937
 20
4.37418
 11
3.38319
 21
4.47467
  0
LINE
  8
0
 10
3.38319
 20
4.47467
 11
3.35339
 21
4.57722
  0
LINE
  8
0
 10
3.35339
 20
4.57722
 11
3.33011
 21
4.68144
  0
LINE
  8
0
 10
3.33011
 20
4.68144
 11
3.3134
 21
4.78693
  0
LINE
  8
0
 10
3.3134
 20
4.78693
 11
3.30334
 21
4.89325
  0
LINE
  8
0
 10
3.30334
 20
4.89325
 11
3.29999
 21
5
  0
LINE
  8
0
 10
3.29999
 20
5
 11
3.30334
 21
5.10674
  0
LINE
  8
0
 10
3.30334
 20
5.10674
 11
3.3134
 21
5.21306
  0
LINE
  8
0
 10
3.3134
 20
5.21306
 11
3.33011
 21
5.31854
  0
LINE
  8
0
 10
3.33011
 20
5.31854
 11
3.35339
 21
5.42276
  0
LINE
  8
0
 10
3.35339
 20
5.42276
 11
3.38319
 21
5.52531
  0
LINE
  8
0
 10
3.38319
 20
5.52531
 11
3.41937
 21
5.62581
  0
LINE
  8
0
 10
3.41937
 20
5.62581
 11
3.46179
 21
5.72382
  0
LINE
  8
0
 10
3.46179
 20
5.72382
 11
3.51027
 21
5.81897
  0
LINE
  8
0
 10
3.51027
 20
5.81897
 11
3.56464
 21
5.9109
  0
LINE
  8
0
 10
3.56464
 20
5.9109
 11
3.62466
 21
5.99922
  0
LINE
  8
0
 10
3.62466
 20
5.99922
 11
3.69012
 21
6.08362
  0
LINE
  8
0
 10
3.69012
 20
6.08362
 11
3.76074
 21
6.16373
  0
LINE
  8
0
 10
3.76074
 20
6.16373
 11
3.83626
 21
6.23924
  0
LINE
  8
0
 10
3.83626
 20
6.23924
 11
3.91637
 21
6.30986
  0
LINE
  8
0
 10
3.91637
 20
6.30986
 11
4.00076
 21
6.37532
  0
LINE
  8
0
 10
4.00076
 20
6.37532
 11
4.08908
 21
6.43535
  0
LINE
  8
0
 10
4.08908
 20
6.43535
 11
4.18102
 21
6.48972
  0
LINE
  8
0
 10
4.18102
 20
6.48972
 11
4.27617
 21
6.53819
  0
LINE
  8
0
 10
4.27617
 20
6.53819
 11
4.37418
 21
6.58061
  0
LINE
  8
0
 10
4.37418
 20
6.58061
 11
4.47467
 21
6.61679
  0
LINE
  8
0
 10
4.47467
 20
6.61679
 11
4.57722
 21
6.64659
  0
LINE
  8
0
 10
4.57722
 20
6.64659
 11
4.68144
 21
6.66988
  0
LINE
  8
0
 10
4.68144
 20
6.66988
 11
4.78693
 21
6.68658
  0
LINE
  8
0
 10
4.78693
 20
6.68658
 11
4.89325
 21
6.69664
  0
LINE
  8
0
 10
4.89325
 20
6.69664
 11
5
 21
6.7
  0
LINE
  8
0
 10
5
 20
6.7
 11
5.10674
 21
6.69664
  0
LINE
  8
0
 10
5.10674
 20
6.69664
 11
5.21306
 21
6.68658
  0
LINE
  8
0
 10
5.21306
 20
6.68658
 11
5.31854
 21
6.66988
  0
LINE
  8
0
 10
5.31854
 20
6.66988
 11
5.42276
 21
6.64659
  0
LINE
  8
0
 10
5.42276
 20
6.64659
 11
5.52531
 21
6.61679
  0
LINE
  8
0
 10
5.52531
 20
6.61679
 11
5.62581
 21
6.58061
  0
LINE
  8
0
 10
5.62581
 20
6.58061
 11
5.72382
 21
6.53819
  0
LINE
  8
0
 10
5.72382
 20
6.53819
 11
5.81897
 21
6.48972
  0
LINE
  8
0
 10
5.81897
 20
6.48972
 11
5.9109
 21
6.43535
  0
LINE
  8
0
 10
5.9109
 20
6.43535
 11
5.99922
 21
6.37532
  0
LINE
  8
0
 10
5.99922
 20
6.37532
 11
6.08362
 21
6.30986
  0
LINE
  8
0
 10
6.08362
 20
6.30986
 11
6.16373
 21
6.23924
  0
LINE
  8
0
 10
6.16373
 20
6.23924
 11
6.23924
 21
6.16373
  0
LINE
  8
0
 10
6.23924
 20
6.16373
 11
6.30986
 21
6.08362
  0
LINE
  8
0
 10
6.30986
 20
6.08362
 11
6.37532
 21
5.99922
  0
LINE
  8
0
 10
6.37532
 20
5.99922
 11
6.43535
 21
5.9109
  0
LINE
  8
0
 10
6.43535
 20
5.9109
 11
6.48972
 21
5.81897
  0
LINE
  8
0
 10
6.48972
 20
5.81897
 11
6.53819
 21
5.72382
  0
LINE
  8
0
 10
6.53819
 20
5.72382
 11
6.58061
 21
5.62581
  0
LINE
  8
0
 10
6.58061
 20
5.62581
 11
6.61679
 21
5.52531
  0
LINE
  8
0
 10
6.61679
 20
5.52531
 11
6.64659
 21
5.42276
  0
LINE
  8
0
 10
6.64659
 20
5.42276
 11
6.66988
 21
5.31854
  0
LINE
  8
0
 10
6.66988
 20
5.31854
 11
6.68658
 21
5.21306
  0
LINE
  8
0
 10
6.68658
 20
5.21306
 11
6.69664
 21
5.10674
  0
LINE
  8
0
 10
6.69664
 20
5.10674
 11
6.7
 21
5
  0
LINE
  8
0
 10
6.7
 20
5
 11
6.69664
 21
4.89325
  0
LINE
  8
0
 10
6.69664
 20
4.89325
 11
6.68658
 21
4.78693
  0
LINE
  8
0
 10
6.68658
 20
4.78693
 11
6.66988
 21
4.68144
  0
LINE
  8
0
 10
6.66988
 20
4.68144
 11
6.64659
 21
4.57722
  0
LINE
  8
0
 10
6.64659
 20
4.57722
 11
6.61679
 21
4.47467
  0
LINE
  8
0
 10
6.61679
 20
4.47467
 11
6.58061
 21
4.37418
  0
LINE
  8
0
 10
6.58061
 20
4.37418
 11
6.53819
 21
4.27617
  0
LINE
  8
0
 10
6.53819
 20
4.27617
 11
6.48972
 21
4.18102
  0
LINE
  8
0
 10
6.48972
 20
4.18102
 11
6.43535
 21
4.08908
  0
LINE
  8
0
 10
6.43535
 20
4.08908
 11
6.37532
 21
4.00076
  0
LINE
  8
0
 10
6.37532
 20
4.00076
 11
6.30986
 21
3.91637
  0
LINE
  8
0
 10
6.30986
 20
3.91637
 11
6.23924
 21
3.83626
  0
LINE
  8
0
 10
6.23924
 20
3.83626
 11
6.16373
 21
3.76074
  0
LINE
  8
0
 10
6.16373
 20
3.76074
 11
6.08362
 21
3.69012
  0
LINE
  8
0
 10
6.08362
 20
3.69012
 11
5.99922
 21
3.62466
  0
LINE
  8
0
 10
5.99922
 20
3.62466
 11
5.9109
 21
3.56464
  0
LINE
  8
0
 10
5.9109
 20
3.56464
 11
5.81897
 21
3.51027
  0
LINE
  8
0
 10
5.81897
 20
3.51027
 11
5.72382
 21
3.46179
  0
LINE
  8
0
 10
5.72382
 20
3.46179
 11
5.62581
 21
3.41937
  0
LINE
  8
0
 10
5.62581
 20
3.41937
 11
5.52531
 21
3.38319
  0
LINE
  8
0
 10
5.52531
 20
3.38319
 11
5.42276
 21
3.35339
  0
LINE
  8
0
 10
5.42276
 20
3.35339
 11
5.31854
 21
3.33011
  0
LINE
  8
0
 10
5.31854
 20
3.33011
 11
5.21306
 21
3.3134
  0
LINE
  8
0
 10
5.21306
 20
3.3134
 11
5.10674
 21
3.30334
  0
LINE
  8
0
 10
5.10674
 20
3.30334
 11
5
 21
3.29999
  0
LINE
  8
0
 10
5
 20
3.29999
 11
4.89325
 21
3.30334
  0
LINE
  8
0
 10
294.893
 20
3.30334
 11
294.787
 21
3.3134
  0
LINE
  8
0
 10
294.787
 20
3.3134
 11
294.681
 21
3.33011
  0
LINE
  8
0
 10
294.681
 20
3.33011
 11
294.577
 21
3.35339
  0
LINE
  8
0
 10
294.577
 20
3.35339
 11
294.475
 21
3.38319
  0
LINE
  8
0
 10
294.475
 20
3.38319
 11
294.374
 21
3.41937
  0
LINE
  8
0
 10
294.374
 20
3.41937
 11
294.276
 21
3.46179
  0
LINE
  8
0
 10
294.276
 20
3.46179
 11
294.181
 21
3.51027
  0
LINE
  8
0
 10
294.181
 20
3.51027
 11
294.089
 21
3.56464
  0
LINE
  8
0
 10
294.089
 20
3.56464
 11
294.001
 21
3.62466
  0
LINE
  8
0
 10
294.001
 20
3.62466
 11
293.916
 21
3.69012
  0
LINE
  8
0
 10
293.916
 20
3.69012
 11
293.836
 21
3.76074
  0
LINE
  8
0
 10
293.836
 20
3.76074
 11
293.761
 21
3.83626
  0
LINE
  8
0
 10
293.761
 20
3.83626
 11
293.69
 21
3.91637
  0
LINE
  8
0
 10
293.69
 20
3.91637
 11
293.625
 21
4.00076
  0
LINE
  8
0
 10
293.625
 20
4.00076
 11
293.565
 21
4.08908
  0
LINE
  8
0
 10
293.565
 20
4.08908
 11
293.51
 21
4.18102
  0
LINE
  8
0
 10
293.51
 20
4.18102
 11
293.462
 21
4.27617
  0
LINE
  8
0
 10
293.462
 20
4.27617
 11
293.419
 21
4.37418
  0
LINE
  8
0
 10
293.419
 20
4.37418
 11
293.383
 21
4.47467
  0
LINE
  8
0
 10
293.383
 20
4.47467
 11
293.353
 21
4.57722
  0
LINE
  8
0
 10
293.353
 20
4.57722
 11
293.33
 21
4.68144
  0
LINE
  8
0
 10
293.33
 20
4.68144
 11
293.313
 21
4.78693
  0
LINE
  8
0
 10
293.313
 20
4.78693
 11
293.303
 21
4.89325
  0
LINE
  8
0
 10
293.303
 20
4.89325
 11
293.3
 21
5
  0
LINE
  8
0
 10
293.3
 20
5
 11
293.303
 21
5.10674
  0
LINE
  8
0
 10
293.303
 20
5.10674
 11
293.313
 21
5.21306
  0
LINE
  8
0
 10
293.313
 20
5.21306
 11
293.33
 21
5.31854
  0
LINE
  8
0
 10
293.33
 20
5.31854
 11
293.353
 21
5.42276
  0
LINE
  8
0
 10
293.353
 20
5.42276
 11
293.383
 21
5.52531
  0
LINE
  8
0
 10
293.383
 20
5.52531
 11
293.419
 21
5.62581
  0
LINE
  8
0
 10
293.419
 20
5.62581
 11
293.462
 21
5.72382
  0
LINE
  8
0
 10
293.462
 20
5.72382
 11
293.51
 21
5.81897
  0
LINE
  8
0
 10
293.51
 20
5.81897
 11
293.565
 21
5.9109
  0
LINE
  8
0
 10
293.565
 20
5.9109
 11
293.625
 21
5.99922
  0
LINE
  8
0
 10
293.625
 20
5.99922
 11
293.69
 21
6.08362
  0
LINE
  8
0
 10
293.69
 20
6.08362
 11
293.761
 21
6.16373
  0
LINE
  8
0
 10
293.761
 20
6.16373
 11
293.836
 21
6.23924
  0
LINE
  8
0
 10
293.836
 20
6.23924
 11
293.916
 21
6.30986
  0
LINE
  8
0
 10
293.916
 20
6.30986
 11
294.001
 21
6.37532
  0
LINE
  8
0
 10
294.001
 20
6.37532
 11
294.089
 21
6.43535
  0
LINE
  8
0
 10
294.089
 20
6.43535
 11
294.181
 21
6.48972
  0
LINE
  8
0
 10
294.181
 20
6.48972
 11
294.276
 21
6.53819
  0
LINE
  8
0
 10
294.276
 20
6.53819
 11
294.374
 21
6.58061
  0
LINE
  8
0
 10
294.374
 20
6.58061
 11
294.475
 21
6.61679
  0
LINE
  8
0
 10
294.475
 20
6.61679
 11
294.577
 21
6.64659
  0
LINE
  8
0
 10
294.577
 20
6.64659
 11
294.681
 21
6.66988
  0
LINE
  8
0
 10
294.681
 20
6.66988
 11
294.787
 21
6.68658
  0
LINE
  8
0
 10
294.787
 20
6.68658
 11
294.893
 21
6.69664
  0
LINE
  8
0
 10
294.893
 20
6.69664
 11
295
 21
6.7
  0
LINE
  8
0
 10
295
 20
6.7
 11
295.107
 21
6.69664
  0
LINE
  8
0
 10
295.107
 20
6.69664
 11
295.213
 21
6.68658
  0
LINE
  8
0
 10
295.213
 20
6.68658
 11
295.319
 21
6.66988
  0
LINE
  8
0
 10
295.319
 20
6.66988
 11
295.423
 21
6.64659
  0
LINE
  8
0
 10
295.423
 20
6.64659
 11
295.525
 21
6.61679
  0
LINE
  8
0
 10
295.525
 20
6.61679
 11
295.626
 21
6.58061
  0
LINE
  8
0
 10
295.626
 20
6.58061
 11
295.724
 21
6.53819
  0
LINE
  8
0
 10
295.724
 20
6.53819
 11
295.819
 21
6.48972
  0
LINE
  8
0
 10
295.819
 20
6.48972
 11
295.911
 21
6.43535
  0
LINE
  8
0
 10
295.911
 20
6.43535
 11
295.999
 21
6.37532
  0
LINE
  8
0
 10
295.999
 20
6.37532
 11
296.084
 21
6.30986
  0
LINE
  8
0
 10
296.084
 20
6.30986
 11
296.164
 21
6.23924
  0
LINE
  8
0
 10
296.164
 20
6.23924
 11
296.239
 21
6.16373
  0
LINE
  8
0
 10
296.239
 20
6.16373
 11
296.31
 21
6.08362
  0
LINE
  8
0
 10
296.31
 20
6.08362
 11
296.375
 21
5.99922
  0
LINE
  8
0
 10
296.375
 20
5.99922
 11
296.435
 21
5.9109
  0
LINE
  8
0
 10
296.435
 20
5.9109
 11
296.49
 21
5.81897
  0
LINE
  8
0
 10
296.49
 20
5.81897
 11
296.538
 21
5.72382
  0
LINE
  8
0
 10
296.538
 20
5.72382
 11
296.581
 21
5.62581
  0
LINE
  8
0
 10
296.581
 20
5.62581
 11
296.617
 21
5.52531
  0
LINE
  8
0
 10
296.617
 20
5.52531
 11
296.647
 21
5.42276
  0
LINE
  8
0
 10
296.647
 20
5.42276
 11
296.67
 21
5.31854
  0
LINE
  8
0
 10
296.67
 20
5.31854
 11
296.687
 21
5.21306
  0
LINE
  8
0
 10
296.687
 20
5.21306
 11
296.697
 21
5.10674
  0
LINE
  8
0
 10
296.697
 20
5.10674
 11
296.7
 21
5
  0
LINE
  8
0
 10
296.7
 20
5
 11
296.697
 21
4.89325
  0
LINE
  8
0
 10
296.697
 20
4.89325
 11
296.687
 21
4.78693
  0
LINE
  8
0
 10
296.687
 20
4.78693
 11
296.67
 21
4.68144
  0
LINE
  8
0
 10
296.67
 20
4.68144
 11
296.647
 21
4.57722
  0
LINE
  8
0
 10
296.647
 20
4.57722
 11
296.617
 21
4.47467
  0
LINE
  8
0
 10
296.617
 20
4.47467
 11
296.581
 21
4.37418
  0
LINE
  8
0
 10
296.581
 20
4.37418
 11
296.538
 21
4.27617
  0
LINE
  8
0
 10
296.538
 20
4.27617
 11
296.49
 21
4.18102
  0
LINE
  8
0
 10
296.49
 20
4.18102
 11
296.435
 21
4.08908
  0
LINE
  8
0
 10
296.435
 20
4.08908
 11
296.375
 21
4.00076
  0
LINE
  8
0
 10
296.375
 20
4.00076
 11
296.31
 21
3.91637
  0
LINE
  8
0
 10
296.31
 20
3.91637
 11
296.239
 21
3.83626
  0
LINE
  8
0
 10
296.239
 20
3.83626
 11
296.164
 21
3.76074
  0
LINE
  8
0
 10
296.164
 20
3.76074
 11
296.084
 21
3.69012
  0
LINE
  8
0
 10
296.084
 20
3.69012
 11
295.999
 21
3.62466
  0
LINE
  8
0
 10
295.999
 20
3.62466
 11
295.911
 21
3.56464
  0
LINE
  8
0
 10
295.911
 20
3.56464
 11
295.819
 21
3.51027
  0
LINE
  8
0
 10
295.819
 20
3.51027
 11
295.724
 21
3.46179
  0
LINE
  8
0
 10
295.724
 20
3.46179
 11
295.626
 21
3.41937
  0
LINE
  8
0
 10
295.626
 20
3.41937
 11
295.525
 21
3.38319
  0
LINE
  8
0
 10
295.525
 20
3.38319
 11
295.423
 21
3.35339
  0
LINE
  8
0
 10
295.423
 20
3.35339
 11
295.319
 21
3.33011
  0
LINE
  8
0
 10
295.319
 20
3.33011
 11
295.213
 21
3.3134
  0
LINE
  8
0
 10
295.213
 20
3.3134
 11
295.107
 21
3.30334
  0
LINE
  8
0
 10
295.107
 20
3.30334
 11
295
 21
3.29999
  0
LINE
  8
0
 10
295
 20
3.29999
 11
294.893
 21
3.30334
  0
LINE
  8
0
 10
99.8932
 20
3.30334
 11
99.7869
 21
3.3134
  0
LINE
  8
0
 10
99.7869
 20
3.3134
 11
99.6814
 21
3.33011
  0
LINE
  8
0
 10
99.6814
 20
3.33011
 11
99.5772
 21
3.35339
  0
LINE
  8
0
 10
99.5772
 20
3.35339
 11
99.4747
 21
3.38319
  0
LINE
  8
0
 10
99.4747
 20
3.38319
 11
99.3742
 21
3.41937
  0
LINE
  8
0
 10
99.3742
 20
3.41937
 11
99.2762
 21
3.46179
  0
LINE
  8
0
 10
99.2762
 20
3.46179
 11
99.181
 21
3.51027
  0
LINE
  8
0
 10
99.181
 20
3.51027
 11
99.0891
 21
3.56464
  0
LINE
  8
0
 10
99.0891
 20
3.56464
 11
99.0008
 21
3.62466
  0
LINE
  8
0
 10
99.0008
 20
3.62466
 11
98.9164
 21
3.69012
  0
LINE
  8
0
 10
98.9164
 20
3.69012
 11
98.8363
 21
3.76074
  0
LINE
  8
0
 10
98.8363
 20
3.76074
 11
98.7607
 21
3.83626
  0
LINE
  8
0
 10
98.7607
 20
3.83626
 11
98.6901
 21
3.91637
  0
LINE
  8
0
 10
98.6901
 20
3.91637
 11
98.6247
 21
4.00076
  0
LINE
  8
0
 10
98.6247
 20
4.00076
 11
98.5646
 21
4.08908
  0
LINE
  8
0
 10
98.5646
 20
4.08908
 11
98.5103
 21
4.18102
  0
LINE
  8
0
 10
98.5103
 20
4.18102
 11
98.4618
 21
4.27617
  0
LINE
  8
0
 10
98.4618
 20
4.27617
 11
98.4194
 21
4.37418
  0
LINE
  8
0
 10
98.4194
 20
4.37418
 11
98.3832
 21
4.47467
  0
LINE
  8
0
 10
98.3832
 20
4.47467
 11
98.3534
 21
4.57722
  0
LINE
  8
0
 10
98.3534
 20
4.57722
 11
98.3301
 21
4.68144
  0
LINE
  8
0
 10
98.3301
 20
4.68144
 11
98.3134
 21
4.78693
  0
LINE
  8
0
 10
98.3134
 20
4.78693
 11
98.3033
 21
4.89325
  0
LINE
  8
0
 10
98.3033
 20
4.89325
 11
98.3
 21
5
  0
LINE
  8
0
 10
98.3
 20
5
 11
98.3033
 21
5.10674
  0
LINE
  8
0
 10
98.3033
 20
5.10674
 11
98.3134
 21
5.21306
  0
LINE
  8
0
 10
98.3134
 20
5.21306
 11
98.3301
 21
5.31854
  0
LINE
  8
0
 10
98.3301
 20
5.31854
 11
98.3534
 21
5.42276
  0
LINE
  8
0
 10
98.3534
 20
5.42276
 11
98.3832
 21
5.52531
  0
LINE
  8
0
 10
98.3832
 20
5.52531
 11
98.4194
 21
5.62581
  0
LINE
  8
0
 10
98.4194
 20
5.62581
 11
98.4618
 21
5.72382
  0
LINE
  8
0
 10
98.4618
 20
5.72382
 11
98.5103
 21
5.81897
  0
LINE
  8
0
 10
98.5103
 20
5.81897
 11
98.5646
 21
5.9109
  0
LINE
  8
0
 10
98.5646
 20
5.9109
 11
98.6247
 21
5.99922
  0
LINE
  8
0
 10
98.6247
 20
5.99922
 11
98.6901
 21
6.08362
  0
LINE
  8
0
 10
98.6901
 20
6.08362
 11
98.7607
 21
6.16373
  0
LINE
  8
0
 10
98.7607
 20
6.16373
 11
98.8363
 21
6.23924
  0
LINE
  8
0
 10
98.8363
 20
6.23924
 11
98.9164
 21
6.30986
  0
LINE
  8
0
 10
98.9164
 20
6.30986
 11
99.0008
 21
6.37532
  0
LINE
  8
0
 10
99.0008
 20
6.37532
 11
99.0891
 21
6.43535
  0
LINE
  8
0
 10
99.0891
 20
6.43535
 11
99.181
 21
6.48972
  0
LINE
  8
0
 10
99.181
 20
6.48972
 11
99.2762
 21
6.53819
  0
LINE
  8
0
 10
99.2762
 20
6.53819
 11
99.3742
 21
6.58061
  0
LINE
  8
0
 10
99.3742
 20
6.58061
 11
99.4747
 21
6.61679
  0
LINE
  8
0
 10
99.4747
 20
6.61679
 11
99.5772
 21
6.64659
  0
LINE
  8
0
 10
99.5772
 20
6.64659
 11
99.6814
 21
6.66988
  0
LINE
  8
0
 10
99.6814
 20
6.66988
 11
99.7869
 21
6.68658
  0
LINE
  8
0
 10
99.7869
 20
6.68658
 11
99.8932
 21
6.69664
  0
LINE
  8
0
 10
99.8932
 20
6.69664
 11
100
 21
6.7
  0
LINE
  8
0
 10
100
 20
6.7
 11
100.107
 21
6.69664
  0
LINE
  8
0
 10
100.107
 20
6.69664
 11
100.213
 21
6.68658
  0
LINE
  8
0
 10
100.213
 20
6.68658
 11
100.319
 21
6.66988
  0
LINE
  8
0
 10
100.319
 20
6.66988
 11
100.423
 21
6.64659
  0
LINE
  8
0
 10
100.423
 20
6.64659
 11
100.525
 21
6.61679
  0
LINE
  8
0
 10
100.525
 20
6.61679
 11
100.626
 21
6.58061
  0
LINE
  8
0
 10
100.626
 20
6.58061
 11
100.724
 21
6.53819
  0
LINE
  8
0
 10
100.724
 20
6.53819
 11
100.819
 21
6.48972
  0
LINE
  8
0
 10
100.819
 20
6.48972
 11
100.911
 21
6.43535
  0
LINE
  8
0
 10
100.911
 20
6.43535
 11
100.999
 21
6.37532
  0
LINE
  8
0
 10
100.999
 20
6.37532
 11
101.084
 21
6.30986
  0
LINE
  8
0
 10
101.084
 20
6.30986
 11
101.164
 21
6.23924
  0
LINE
  8
0
 10
101.164
 20
6.23924
 11
101.239
 21
6.16373
  0
LINE
  8
0
 10
101.239
 20
6.16373
 11
101.31
 21
6.08362
  0
LINE
  8
0
 10
101.31
 20
6.08362
 11
101.375
 21
5.99922
  0
LINE
  8
0
 10
101.375
 20
5.99922
 11
101.435
 21
5.9109
  0
LINE
  8
0
 10
101.435
 20
5.9109
 11
101.49
 21
5.81897
  0
LINE
  8
0
 10
101.49
 20
5.81897
 11
101.538
 21
5.72382
  0
LINE
  8
0
 10
101.538
 20
5.72382
 11
101.581
 21
5.62581
  0
LINE
  8
0
 10
101.581
 20
5.62581
 11
101.617
 21
5.52531
  0
LINE
  8
0
 10
101.617
 20
5.52531
 11
101.647
 21
5.42276
  0
LINE
  8
0
 10
101.647
 20
5.42276
 11
101.67
 21
5.31854
  0
LINE
  8
0
 10
101.67
 20
5.31854
 11
101.687
 21
5.21306
  0
LINE
  8
0
 10
101.687
 20
5.21306
 11
101.697
 21
5.10674
  0
LINE
  8
0
 10
101.697
 20
5.10674
 11
101.7
 21
5
  0
LINE
  8
0
 10
101.7
 20
5
 11
101.697
 21
4.89325
  0
LINE
  8
0
 10
101.697
 20
4.89325
 11
101.687
 21
4.78693
  0
LINE
  8
0
 10
101.687
 20
4.78693
 11
101.67
 21
4.68144
  0
LINE
  8
0
 10
101.67
 20
4.68144
 11
101.647
 21
4.57722
  0
LINE
  8
0
 10
101.647
 20
4.57722
 11
101.617
 21
4.47467
  0
LINE
  8
0
 10
101.617
 20
4.47467
 11
101.581
 21
4.37418
  0
LINE
  8
0
 10
101.581
 20
4.37418
 11
101.538
 21
4.27617
  0
LINE
  8
0
 10
101.538
 20
4.27617
 11
101.49
 21
4.18102
  0
LINE
  8
0
 10
101.49
 20
4.18102
 11
101.435
 21
4.08908
  0
LINE
  8
0
 10
101.435
 20
4.08908
 11
101.375
 21
4.00076
  0
LINE
  8
0
 10
101.375
 20
4.00076
 11
101.31
 21
3.91637
  0
LINE
  8
0
 10
101.31
 20
3.91637
 11
101.239
 21
3.83626
  0
LINE
  8
0
 10
101.239
 20
3.83626
 11
101.164
 21
3.76074
  0
LINE
  8
0
 10
101.164
 20
3.76074
 11
101.084
 21
3.69012
  0
LINE
  8
0
 10
101.084
 20
3.69012
 11
100.999
 21
3.62466
  0
LINE
  8
0
 10
100.999
 20
3.62466
 11
100.911
 21
3.56464
  0
LINE
  8
0
 10
100.911
 20
3.56464
 11
100.819
 21
3.51027
  0
LINE
  8
0
 10
100.819
 20
3.51027
 11
100.724
 21
3.46179
  0
LINE
  8
0
 10
100.724
 20
3.46179
 11
100.626
 21
3.41937
  0
LINE
  8
0
 10
100.626
 20
3.41937
 11
100.525
 21
3.38319
  0
LINE
  8
0
 10
100.525
 20
3.38319
 11
100.423
 21
3.35339
  0
LINE
  8
0
 10
100.423
 20
3.35339
 11
100.319
 21
3.33011
  0
LINE
  8
0
 10
100.319
 20
3.33011
 11
100.213
 21
3.3134
  0
LINE
  8
0
 10
100.213
 20
3.3134
 11
100.107
 21
3.30334
  0
LINE
  8
0
 10
100.107
 20
3.30334
 11
100
 21
3.29999
  0
LINE
  8
0
 10
100
 20
3.29999
 11
99.8932
 21
3.30334
  0
ENDSEC
  0
SECTION
  2
OBJECTS
  0
DICTIONARY
  0
ENDSEC
  0
EOF
