solid OpenSCAD_Model
  facet normal 0.661311 0.750112 -0
    outer loop
      vertex 5.47638 5.83175 0
      vertex 5.09939 6.16411 4
      vertex 5.47638 5.83175 4
    endloop
  endfacet
  facet normal 0.661311 0.750112 0
    outer loop
      vertex 5.09939 6.16411 4
      vertex 5.47638 5.83175 0
      vertex 5.09939 6.16411 0
    endloop
  endfacet
  facet normal -0.338738 0.940881 0
    outer loop
      vertex -2.47214 7.60845 0
      vertex -2.945 7.43821 4
      vertex -2.47214 7.60845 4
    endloop
  endfacet
  facet normal -0.338738 0.940881 0
    outer loop
      vertex -2.945 7.43821 4
      vertex -2.47214 7.60845 0
      vertex -2.945 7.43821 0
    endloop
  endfacet
  facet normal -0.891007 0.45399 0
    outer loop
      vertex -7.23862 3.40623 0
      vertex -7.01045 3.85403 4
      vertex -7.01045 3.85403 0
    endloop
  endfacet
  facet normal -0.891007 0.45399 0
    outer loop
      vertex -7.01045 3.85403 4
      vertex -7.23862 3.40623 0
      vertex -7.23862 3.40623 4
    endloop
  endfacet
  facet normal 0.397148 0.917755 -0
    outer loop
      vertex 3.40623 7.23862 0
      vertex 2.945 7.43821 4
      vertex 3.40623 7.23862 4
    endloop
  endfacet
  facet normal 0.397148 0.917755 0
    outer loop
      vertex 2.945 7.43821 4
      vertex 3.40623 7.23862 0
      vertex 2.945 7.43821 0
    endloop
  endfacet
  facet normal 0.156435 0.987688 -0
    outer loop
      vertex 1.49905 7.8583 0
      vertex 1.00267 7.93692 4
      vertex 1.49905 7.8583 4
    endloop
  endfacet
  facet normal 0.156435 0.987688 0
    outer loop
      vertex 1.00267 7.93692 4
      vertex 1.49905 7.8583 0
      vertex 1.00267 7.93692 0
    endloop
  endfacet
  facet normal -0.707107 0.707107 0
    outer loop
      vertex -5.83175 5.47638 0
      vertex -5.47638 5.83175 4
      vertex -5.47638 5.83175 0
    endloop
  endfacet
  facet normal -0.707107 0.707107 0
    outer loop
      vertex -5.47638 5.83175 4
      vertex -5.83175 5.47638 0
      vertex -5.83175 5.47638 4
    endloop
  endfacet
  facet normal -0.156435 0.987688 0
    outer loop
      vertex -1.00267 7.93692 0
      vertex -1.49905 7.8583 4
      vertex -1.00267 7.93692 4
    endloop
  endfacet
  facet normal -0.156435 0.987688 0
    outer loop
      vertex -1.49905 7.8583 4
      vertex -1.00267 7.93692 0
      vertex -1.49905 7.8583 0
    endloop
  endfacet
  facet normal 0.397148 -0.917755 0
    outer loop
      vertex 2.945 -7.43821 0
      vertex 3.40623 -7.23862 4
      vertex 2.945 -7.43821 4
    endloop
  endfacet
  facet normal 0.397148 -0.917755 0
    outer loop
      vertex 3.40623 -7.23862 4
      vertex 2.945 -7.43821 0
      vertex 3.40623 -7.23862 0
    endloop
  endfacet
  facet normal -0.707107 -0.707107 0
    outer loop
      vertex -5.47638 -5.83175 0
      vertex -5.83175 -5.47638 4
      vertex -5.83175 -5.47638 0
    endloop
  endfacet
  facet normal -0.707107 -0.707107 0
    outer loop
      vertex -5.83175 -5.47638 4
      vertex -5.47638 -5.83175 0
      vertex -5.47638 -5.83175 4
    endloop
  endfacet
  facet normal 0.827082 0.562082 0
    outer loop
      vertex 6.75462 4.28661 4
      vertex 6.47214 4.70228 0
      vertex 6.47214 4.70228 4
    endloop
  endfacet
  facet normal 0.827082 0.562082 0
    outer loop
      vertex 6.47214 4.70228 0
      vertex 6.75462 4.28661 4
      vertex 6.75462 4.28661 0
    endloop
  endfacet
  facet normal 0.707107 0.707107 0
    outer loop
      vertex 5.83175 5.47638 4
      vertex 5.47638 5.83175 0
      vertex 5.47638 5.83175 4
    endloop
  endfacet
  facet normal 0.707107 0.707107 0
    outer loop
      vertex 5.47638 5.83175 0
      vertex 5.83175 5.47638 4
      vertex 5.83175 5.47638 0
    endloop
  endfacet
  facet normal 0.562082 0.827082 -0
    outer loop
      vertex 4.70228 6.47214 0
      vertex 4.28661 6.75462 4
      vertex 4.70228 6.47214 4
    endloop
  endfacet
  facet normal 0.562082 0.827082 0
    outer loop
      vertex 4.28661 6.75462 4
      vertex 4.70228 6.47214 0
      vertex 4.28661 6.75462 0
    endloop
  endfacet
  facet normal 0.509043 0.860741 -0
    outer loop
      vertex 4.28661 6.75462 0
      vertex 3.85403 7.01045 4
      vertex 4.28661 6.75462 4
    endloop
  endfacet
  facet normal 0.509043 0.860741 0
    outer loop
      vertex 3.85403 7.01045 4
      vertex 4.28661 6.75462 0
      vertex 3.85403 7.01045 0
    endloop
  endfacet
  facet normal 0.338738 0.940881 -0
    outer loop
      vertex 2.945 7.43821 0
      vertex 2.47214 7.60845 4
      vertex 2.945 7.43821 4
    endloop
  endfacet
  facet normal 0.338738 0.940881 0
    outer loop
      vertex 2.47214 7.60845 4
      vertex 2.945 7.43821 0
      vertex 2.47214 7.60845 0
    endloop
  endfacet
  facet normal 0.218143 0.975917 -0
    outer loop
      vertex 1.98952 7.74866 0
      vertex 1.49905 7.8583 4
      vertex 1.98952 7.74866 4
    endloop
  endfacet
  facet normal 0.218143 0.975917 0
    outer loop
      vertex 1.49905 7.8583 4
      vertex 1.98952 7.74866 0
      vertex 1.49905 7.8583 0
    endloop
  endfacet
  facet normal -0.960294 0.278991 0
    outer loop
      vertex -7.74866 1.98952 0
      vertex -7.60845 2.47214 4
      vertex -7.60845 2.47214 0
    endloop
  endfacet
  facet normal -0.960294 0.278991 0
    outer loop
      vertex -7.60845 2.47214 4
      vertex -7.74866 1.98952 0
      vertex -7.74866 1.98952 4
    endloop
  endfacet
  facet normal -0.790154 0.612908 0
    outer loop
      vertex -6.47214 4.70228 0
      vertex -6.16411 5.09939 4
      vertex -6.16411 5.09939 0
    endloop
  endfacet
  facet normal -0.790154 0.612908 0
    outer loop
      vertex -6.16411 5.09939 4
      vertex -6.47214 4.70228 0
      vertex -6.47214 4.70228 4
    endloop
  endfacet
  facet normal -0.509043 0.860741 0
    outer loop
      vertex -3.85403 7.01045 0
      vertex -4.28661 6.75462 4
      vertex -3.85403 7.01045 4
    endloop
  endfacet
  facet normal -0.509043 0.860741 0
    outer loop
      vertex -4.28661 6.75462 4
      vertex -3.85403 7.01045 0
      vertex -4.28661 6.75462 0
    endloop
  endfacet
  facet normal -0.562082 0.827082 0
    outer loop
      vertex -4.28661 6.75462 0
      vertex -4.70228 6.47214 4
      vertex -4.28661 6.75462 4
    endloop
  endfacet
  facet normal -0.562082 0.827082 0
    outer loop
      vertex -4.70228 6.47214 4
      vertex -4.28661 6.75462 0
      vertex -4.70228 6.47214 0
    endloop
  endfacet
  facet normal -0.45399 0.891007 0
    outer loop
      vertex -3.40623 7.23862 0
      vertex -3.85403 7.01045 4
      vertex -3.40623 7.23862 4
    endloop
  endfacet
  facet normal -0.45399 0.891007 0
    outer loop
      vertex -3.85403 7.01045 4
      vertex -3.40623 7.23862 0
      vertex -3.85403 7.01045 0
    endloop
  endfacet
  facet normal 0.750112 -0.661311 0
    outer loop
      vertex 5.83175 -5.47638 4
      vertex 6.16411 -5.09939 0
      vertex 6.16411 -5.09939 4
    endloop
  endfacet
  facet normal 0.750112 -0.661311 0
    outer loop
      vertex 6.16411 -5.09939 0
      vertex 5.83175 -5.47638 4
      vertex 5.83175 -5.47638 0
    endloop
  endfacet
  facet normal 0.278991 -0.960294 0
    outer loop
      vertex 1.98952 -7.74866 0
      vertex 2.47214 -7.60845 4
      vertex 1.98952 -7.74866 4
    endloop
  endfacet
  facet normal 0.278991 -0.960294 0
    outer loop
      vertex 2.47214 -7.60845 4
      vertex 1.98952 -7.74866 0
      vertex 2.47214 -7.60845 0
    endloop
  endfacet
  facet normal 0.45399 -0.891007 0
    outer loop
      vertex 3.40623 -7.23862 0
      vertex 3.85403 -7.01045 4
      vertex 3.40623 -7.23862 4
    endloop
  endfacet
  facet normal 0.45399 -0.891007 0
    outer loop
      vertex 3.85403 -7.01045 4
      vertex 3.40623 -7.23862 0
      vertex 3.85403 -7.01045 0
    endloop
  endfacet
  facet normal -0.0314127 -0.999507 0
    outer loop
      vertex -0.502324 -7.98421 0
      vertex 0 -8 4
      vertex -0.502324 -7.98421 4
    endloop
  endfacet
  facet normal -0.0314127 -0.999507 -0
    outer loop
      vertex 0 -8 4
      vertex -0.502324 -7.98421 0
      vertex 0 -8 0
    endloop
  endfacet
  facet normal 0 0 -1
    outer loop
      vertex 2 -4 0
      vertex 6.75462 -4.28661 0
      vertex 6.47214 -4.70228 0
    endloop
  endfacet
  facet normal 0 0 -1
    outer loop
      vertex 2 -4 0
      vertex 6.47214 -4.70228 0
      vertex 6.16411 -5.09939 0
    endloop
  endfacet
  facet normal 0 0 -1
    outer loop
      vertex 2 -4 0
      vertex 6.16411 -5.09939 0
      vertex 5.83175 -5.47638 0
    endloop
  endfacet
  facet normal 0 0 -1
    outer loop
      vertex 2 -4 0
      vertex 5.83175 -5.47638 0
      vertex 5.47638 -5.83175 0
    endloop
  endfacet
  facet normal 0 0 -1
    outer loop
      vertex 2 -4 0
      vertex 5.47638 -5.83175 0
      vertex 5.09939 -6.16411 0
    endloop
  endfacet
  facet normal 0 0 -1
    outer loop
      vertex 2 -4 0
      vertex 5.09939 -6.16411 0
      vertex 4.70228 -6.47214 0
    endloop
  endfacet
  facet normal 0 0 -1
    outer loop
      vertex 2 -4 0
      vertex 4.70228 -6.47214 0
      vertex 4.28661 -6.75462 0
    endloop
  endfacet
  facet normal 0 0 -1
    outer loop
      vertex 2 -4 0
      vertex 4.28661 -6.75462 0
      vertex 3.85403 -7.01045 0
    endloop
  endfacet
  facet normal 0 0 -1
    outer loop
      vertex 2 -4 0
      vertex 3.85403 -7.01045 0
      vertex 3.40623 -7.23862 0
    endloop
  endfacet
  facet normal 0 0 -1
    outer loop
      vertex 2 -4 0
      vertex 3.40623 -7.23862 0
      vertex 2.945 -7.43821 0
    endloop
  endfacet
  facet normal 0 0 -1
    outer loop
      vertex 2 -4 0
      vertex 2.945 -7.43821 0
      vertex 2.47214 -7.60845 0
    endloop
  endfacet
  facet normal 0 0 -1
    outer loop
      vertex 6.75462 -4.28661 0
      vertex 2 -4 0
      vertex 6.92413 -4 0
    endloop
  endfacet
  facet normal 0 0 -1
    outer loop
      vertex 1.49905 -7.8583 0
      vertex 2 -4 0
      vertex 1.98952 -7.74866 0
    endloop
  endfacet
  facet normal 0 0 -1
    outer loop
      vertex 1.98952 -7.74866 0
      vertex 2 -4 0
      vertex 2.47214 -7.60845 0
    endloop
  endfacet
  facet normal 0 0 -1
    outer loop
      vertex 2 4 0
      vertex 6.75462 4.28661 0
      vertex 6.92413 4 0
    endloop
  endfacet
  facet normal -0 0 -1
    outer loop
      vertex 6.75462 4.28661 0
      vertex 2 4 0
      vertex 6.47214 4.70228 0
    endloop
  endfacet
  facet normal -0 0 -1
    outer loop
      vertex 6.47214 4.70228 0
      vertex 2 4 0
      vertex 6.16411 5.09939 0
    endloop
  endfacet
  facet normal -0 0 -1
    outer loop
      vertex 6.16411 5.09939 0
      vertex 2 4 0
      vertex 5.83175 5.47638 0
    endloop
  endfacet
  facet normal -0 0 -1
    outer loop
      vertex 5.83175 5.47638 0
      vertex 2 4 0
      vertex 5.47638 5.83175 0
    endloop
  endfacet
  facet normal -0 0 -1
    outer loop
      vertex 5.47638 5.83175 0
      vertex 2 4 0
      vertex 5.09939 6.16411 0
    endloop
  endfacet
  facet normal -0 0 -1
    outer loop
      vertex 5.09939 6.16411 0
      vertex 2 4 0
      vertex 4.70228 6.47214 0
    endloop
  endfacet
  facet normal -0 0 -1
    outer loop
      vertex 4.70228 6.47214 0
      vertex 2 4 0
      vertex 4.28661 6.75462 0
    endloop
  endfacet
  facet normal -0 0 -1
    outer loop
      vertex 4.28661 6.75462 0
      vertex 2 4 0
      vertex 3.85403 7.01045 0
    endloop
  endfacet
  facet normal -0 0 -1
    outer loop
      vertex 3.85403 7.01045 0
      vertex 2 4 0
      vertex 3.40623 7.23862 0
    endloop
  endfacet
  facet normal -0 0 -1
    outer loop
      vertex 3.40623 7.23862 0
      vertex 2 4 0
      vertex 2.945 7.43821 0
    endloop
  endfacet
  facet normal -0 0 -1
    outer loop
      vertex 2.945 7.43821 0
      vertex 2 4 0
      vertex 2.47214 7.60845 0
    endloop
  endfacet
  facet normal 0 0 -1
    outer loop
      vertex 2 4 0
      vertex 1.98952 7.74866 0
      vertex 2.47214 7.60845 0
    endloop
  endfacet
  facet normal 0 0 -1
    outer loop
      vertex 1.00267 -7.93692 0
      vertex 2 -4 0
      vertex 1.49905 -7.8583 0
    endloop
  endfacet
  facet normal 0 0 -1
    outer loop
      vertex 0.502324 -7.98421 0
      vertex 2 -4 0
      vertex 1.00267 -7.93692 0
    endloop
  endfacet
  facet normal 0 0 -1
    outer loop
      vertex 2 4 0
      vertex 1.49905 7.8583 0
      vertex 1.98952 7.74866 0
    endloop
  endfacet
  facet normal 0 0 -1
    outer loop
      vertex 0 -8 0
      vertex 2 -4 0
      vertex 0.502324 -7.98421 0
    endloop
  endfacet
  facet normal 0 0 -1
    outer loop
      vertex 2 4 0
      vertex 1.00267 7.93692 0
      vertex 1.49905 7.8583 0
    endloop
  endfacet
  facet normal 0 0 -1
    outer loop
      vertex -0.502324 -7.98421 0
      vertex 2 -4 0
      vertex 0 -8 0
    endloop
  endfacet
  facet normal 0 0 -1
    outer loop
      vertex 2 4 0
      vertex 0.502324 7.98421 0
      vertex 1.00267 7.93692 0
    endloop
  endfacet
  facet normal 0 0 -1
    outer loop
      vertex -1.00267 -7.93692 0
      vertex 2 -4 0
      vertex -0.502324 -7.98421 0
    endloop
  endfacet
  facet normal 0 0 -1
    outer loop
      vertex 2 4 0
      vertex 0 8 0
      vertex 0.502324 7.98421 0
    endloop
  endfacet
  facet normal 0 0 -1
    outer loop
      vertex -1.49905 -7.8583 0
      vertex 2 -4 0
      vertex -1.00267 -7.93692 0
    endloop
  endfacet
  facet normal 0 0 -1
    outer loop
      vertex 2 4 0
      vertex -0.502324 7.98421 0
      vertex 0 8 0
    endloop
  endfacet
  facet normal 0 0 -1
    outer loop
      vertex -1.98952 -7.74866 0
      vertex 2 -4 0
      vertex -1.49905 -7.8583 0
    endloop
  endfacet
  facet normal 0 0 -1
    outer loop
      vertex 2 4 0
      vertex -1.00267 7.93692 0
      vertex -0.502324 7.98421 0
    endloop
  endfacet
  facet normal 0 0 -1
    outer loop
      vertex -2.47214 -7.60845 0
      vertex 2 -4 0
      vertex -1.98952 -7.74866 0
    endloop
  endfacet
  facet normal 0 0 -1
    outer loop
      vertex 2 4 0
      vertex -1.49905 7.8583 0
      vertex -1.00267 7.93692 0
    endloop
  endfacet
  facet normal 0 0 -1
    outer loop
      vertex -2.945 -7.43821 0
      vertex 2 -4 0
      vertex -2.47214 -7.60845 0
    endloop
  endfacet
  facet normal 0 0 -1
    outer loop
      vertex 2 4 0
      vertex -1.98952 7.74866 0
      vertex -1.49905 7.8583 0
    endloop
  endfacet
  facet normal 0 0 -1
    outer loop
      vertex -3.40623 -7.23862 0
      vertex 2 -4 0
      vertex -2.945 -7.43821 0
    endloop
  endfacet
  facet normal 0 0 -1
    outer loop
      vertex 2 4 0
      vertex -2.47214 7.60845 0
      vertex -1.98952 7.74866 0
    endloop
  endfacet
  facet normal 0 0 -1
    outer loop
      vertex -3.85403 -7.01045 0
      vertex 2 -4 0
      vertex -3.40623 -7.23862 0
    endloop
  endfacet
  facet normal 0 0 -1
    outer loop
      vertex 2 4 0
      vertex -2.945 7.43821 0
      vertex -2.47214 7.60845 0
    endloop
  endfacet
  facet normal 0 0 -1
    outer loop
      vertex -4.28661 -6.75462 0
      vertex 2 -4 0
      vertex -3.85403 -7.01045 0
    endloop
  endfacet
  facet normal 0 0 -1
    outer loop
      vertex 2 4 0
      vertex -3.40623 7.23862 0
      vertex -2.945 7.43821 0
    endloop
  endfacet
  facet normal 0 0 -1
    outer loop
      vertex -4.70228 -6.47214 0
      vertex 2 -4 0
      vertex -4.28661 -6.75462 0
    endloop
  endfacet
  facet normal 0 0 -1
    outer loop
      vertex 2 4 0
      vertex -3.85403 7.01045 0
      vertex -3.40623 7.23862 0
    endloop
  endfacet
  facet normal 0 0 -1
    outer loop
      vertex -5.09939 -6.16411 0
      vertex 2 -4 0
      vertex -4.70228 -6.47214 0
    endloop
  endfacet
  facet normal 0 0 -1
    outer loop
      vertex 2 4 0
      vertex -4.28661 6.75462 0
      vertex -3.85403 7.01045 0
    endloop
  endfacet
  facet normal 0 0 -1
    outer loop
      vertex -5.47638 -5.83175 0
      vertex 2 -4 0
      vertex -5.09939 -6.16411 0
    endloop
  endfacet
  facet normal 0 0 -1
    outer loop
      vertex 2 4 0
      vertex -4.70228 6.47214 0
      vertex -4.28661 6.75462 0
    endloop
  endfacet
  facet normal 0 0 -1
    outer loop
      vertex -5.83175 -5.47638 0
      vertex 2 -4 0
      vertex -5.47638 -5.83175 0
    endloop
  endfacet
  facet normal 0 0 -1
    outer loop
      vertex 2 4 0
      vertex -5.09939 6.16411 0
      vertex -4.70228 6.47214 0
    endloop
  endfacet
  facet normal 0 0 -1
    outer loop
      vertex -6.16411 -5.09939 0
      vertex 2 -4 0
      vertex -5.83175 -5.47638 0
    endloop
  endfacet
  facet normal 0 0 -1
    outer loop
      vertex 2 4 0
      vertex -5.47638 5.83175 0
      vertex -5.09939 6.16411 0
    endloop
  endfacet
  facet normal 0 0 -1
    outer loop
      vertex -6.47214 -4.70228 0
      vertex 2 -4 0
      vertex -6.16411 -5.09939 0
    endloop
  endfacet
  facet normal 0 0 -1
    outer loop
      vertex 2 4 0
      vertex -5.83175 5.47638 0
      vertex -5.47638 5.83175 0
    endloop
  endfacet
  facet normal 0 0 -1
    outer loop
      vertex -6.75462 -4.28661 0
      vertex 2 -4 0
      vertex -6.47214 -4.70228 0
    endloop
  endfacet
  facet normal 0 0 -1
    outer loop
      vertex 2 4 0
      vertex -6.16411 5.09939 0
      vertex -5.83175 5.47638 0
    endloop
  endfacet
  facet normal 0 0 -1
    outer loop
      vertex -7.01045 -3.85403 0
      vertex 2 -4 0
      vertex -6.75462 -4.28661 0
    endloop
  endfacet
  facet normal 0 0 -1
    outer loop
      vertex 2 4 0
      vertex -6.47214 4.70228 0
      vertex -6.16411 5.09939 0
    endloop
  endfacet
  facet normal 0 0 -1
    outer loop
      vertex -7.23862 -3.40623 0
      vertex 2 -4 0
      vertex -7.01045 -3.85403 0
    endloop
  endfacet
  facet normal 0 0 -1
    outer loop
      vertex 2 4 0
      vertex -6.75462 4.28661 0
      vertex -6.47214 4.70228 0
    endloop
  endfacet
  facet normal 0 0 -1
    outer loop
      vertex -7.43821 -2.945 0
      vertex 2 -4 0
      vertex -7.23862 -3.40623 0
    endloop
  endfacet
  facet normal -0 0 -1
    outer loop
      vertex 2 4 0
      vertex -7.01045 3.85403 0
      vertex -6.75462 4.28661 0
    endloop
  endfacet
  facet normal 0 0 -1
    outer loop
      vertex -7.60845 -2.47214 0
      vertex 2 -4 0
      vertex -7.43821 -2.945 0
    endloop
  endfacet
  facet normal 0 0 -1
    outer loop
      vertex 2 4 0
      vertex -7.23862 3.40623 0
      vertex -7.01045 3.85403 0
    endloop
  endfacet
  facet normal 0 0 -1
    outer loop
      vertex -7.74866 -1.98952 0
      vertex 2 -4 0
      vertex -7.60845 -2.47214 0
    endloop
  endfacet
  facet normal 0 0 -1
    outer loop
      vertex 2 4 0
      vertex -7.43821 2.945 0
      vertex -7.23862 3.40623 0
    endloop
  endfacet
  facet normal 0 0 -1
    outer loop
      vertex -7.8583 -1.49905 0
      vertex 2 -4 0
      vertex -7.74866 -1.98952 0
    endloop
  endfacet
  facet normal 0 0 -1
    outer loop
      vertex 2 4 0
      vertex -7.60845 2.47214 0
      vertex -7.43821 2.945 0
    endloop
  endfacet
  facet normal 0 0 -1
    outer loop
      vertex -7.93692 -1.00267 0
      vertex 2 -4 0
      vertex -7.8583 -1.49905 0
    endloop
  endfacet
  facet normal 0 0 -1
    outer loop
      vertex 2 4 0
      vertex -7.74866 1.98952 0
      vertex -7.60845 2.47214 0
    endloop
  endfacet
  facet normal 0 0 -1
    outer loop
      vertex -7.98421 -0.502324 0
      vertex 2 -4 0
      vertex -7.93692 -1.00267 0
    endloop
  endfacet
  facet normal 0 0 -1
    outer loop
      vertex 2 4 0
      vertex -7.8583 1.49905 0
      vertex -7.74866 1.98952 0
    endloop
  endfacet
  facet normal 0 0 -1
    outer loop
      vertex -8 0 0
      vertex 2 -4 0
      vertex -7.98421 -0.502324 0
    endloop
  endfacet
  facet normal 0 0 -1
    outer loop
      vertex 2 4 0
      vertex -7.93692 1.00267 0
      vertex -7.8583 1.49905 0
    endloop
  endfacet
  facet normal 0 0 -1
    outer loop
      vertex 2 -4 0
      vertex -8 0 0
      vertex 2 4 0
    endloop
  endfacet
  facet normal 0 0 -1
    outer loop
      vertex 2 4 0
      vertex -7.98421 0.502324 0
      vertex -7.93692 1.00267 0
    endloop
  endfacet
  facet normal 0 0 -1
    outer loop
      vertex 2 4 0
      vertex -8 0 0
      vertex -7.98421 0.502324 0
    endloop
  endfacet
  facet normal -0.827082 -0.562082 0
    outer loop
      vertex -6.47214 -4.70228 0
      vertex -6.75462 -4.28661 4
      vertex -6.75462 -4.28661 0
    endloop
  endfacet
  facet normal -0.827082 -0.562082 0
    outer loop
      vertex -6.75462 -4.28661 4
      vertex -6.47214 -4.70228 0
      vertex -6.47214 -4.70228 4
    endloop
  endfacet
  facet normal 0.750112 0.661311 0
    outer loop
      vertex 6.16411 5.09939 4
      vertex 5.83175 5.47638 0
      vertex 5.83175 5.47638 4
    endloop
  endfacet
  facet normal 0.750112 0.661311 0
    outer loop
      vertex 5.83175 5.47638 0
      vertex 6.16411 5.09939 4
      vertex 6.16411 5.09939 0
    endloop
  endfacet
  facet normal 0.790154 0.612908 0
    outer loop
      vertex 6.47214 4.70228 4
      vertex 6.16411 5.09939 0
      vertex 6.16411 5.09939 4
    endloop
  endfacet
  facet normal 0.790154 0.612908 0
    outer loop
      vertex 6.16411 5.09939 0
      vertex 6.47214 4.70228 4
      vertex 6.47214 4.70228 0
    endloop
  endfacet
  facet normal 0.612908 0.790154 -0
    outer loop
      vertex 5.09939 6.16411 0
      vertex 4.70228 6.47214 4
      vertex 5.09939 6.16411 4
    endloop
  endfacet
  facet normal 0.612908 0.790154 0
    outer loop
      vertex 4.70228 6.47214 4
      vertex 5.09939 6.16411 0
      vertex 4.70228 6.47214 0
    endloop
  endfacet
  facet normal 0.0314127 0.999507 -0
    outer loop
      vertex 0.502324 7.98421 0
      vertex 0 8 4
      vertex 0.502324 7.98421 4
    endloop
  endfacet
  facet normal 0.0314127 0.999507 0
    outer loop
      vertex 0 8 4
      vertex 0.502324 7.98421 0
      vertex 0 8 0
    endloop
  endfacet
  facet normal 0.45399 0.891007 -0
    outer loop
      vertex 3.85403 7.01045 0
      vertex 3.40623 7.23862 4
      vertex 3.85403 7.01045 4
    endloop
  endfacet
  facet normal 0.45399 0.891007 0
    outer loop
      vertex 3.40623 7.23862 4
      vertex 3.85403 7.01045 0
      vertex 3.40623 7.23862 0
    endloop
  endfacet
  facet normal 0.278991 0.960294 -0
    outer loop
      vertex 2.47214 7.60845 0
      vertex 1.98952 7.74866 4
      vertex 2.47214 7.60845 4
    endloop
  endfacet
  facet normal 0.278991 0.960294 0
    outer loop
      vertex 1.98952 7.74866 4
      vertex 2.47214 7.60845 0
      vertex 1.98952 7.74866 0
    endloop
  endfacet
  facet normal -0.999507 0.0314127 0
    outer loop
      vertex -8 0 0
      vertex -7.98421 0.502324 4
      vertex -7.98421 0.502324 0
    endloop
  endfacet
  facet normal -0.999507 0.0314127 0
    outer loop
      vertex -7.98421 0.502324 4
      vertex -8 0 0
      vertex -8 0 4
    endloop
  endfacet
  facet normal -0.940881 0.338738 0
    outer loop
      vertex -7.60845 2.47214 0
      vertex -7.43821 2.945 4
      vertex -7.43821 2.945 0
    endloop
  endfacet
  facet normal -0.940881 0.338738 0
    outer loop
      vertex -7.43821 2.945 4
      vertex -7.60845 2.47214 0
      vertex -7.60845 2.47214 4
    endloop
  endfacet
  facet normal -0.917755 0.397148 0
    outer loop
      vertex -7.43821 2.945 0
      vertex -7.23862 3.40623 4
      vertex -7.23862 3.40623 0
    endloop
  endfacet
  facet normal -0.917755 0.397148 0
    outer loop
      vertex -7.23862 3.40623 4
      vertex -7.43821 2.945 0
      vertex -7.43821 2.945 4
    endloop
  endfacet
  facet normal -0.987688 0.156435 0
    outer loop
      vertex -7.93692 1.00267 0
      vertex -7.8583 1.49905 4
      vertex -7.8583 1.49905 0
    endloop
  endfacet
  facet normal -0.987688 0.156435 0
    outer loop
      vertex -7.8583 1.49905 4
      vertex -7.93692 1.00267 0
      vertex -7.93692 1.00267 4
    endloop
  endfacet
  facet normal -0.827082 0.562082 0
    outer loop
      vertex -6.75462 4.28661 0
      vertex -6.47214 4.70228 4
      vertex -6.47214 4.70228 0
    endloop
  endfacet
  facet normal -0.827082 0.562082 0
    outer loop
      vertex -6.47214 4.70228 4
      vertex -6.75462 4.28661 0
      vertex -6.75462 4.28661 4
    endloop
  endfacet
  facet normal -0.860741 0.509043 0
    outer loop
      vertex -7.01045 3.85403 0
      vertex -6.75462 4.28661 4
      vertex -6.75462 4.28661 0
    endloop
  endfacet
  facet normal -0.860741 0.509043 0
    outer loop
      vertex -6.75462 4.28661 4
      vertex -7.01045 3.85403 0
      vertex -7.01045 3.85403 4
    endloop
  endfacet
  facet normal -0.750112 0.661311 0
    outer loop
      vertex -6.16411 5.09939 0
      vertex -5.83175 5.47638 4
      vertex -5.83175 5.47638 0
    endloop
  endfacet
  facet normal -0.750112 0.661311 0
    outer loop
      vertex -5.83175 5.47638 4
      vertex -6.16411 5.09939 0
      vertex -6.16411 5.09939 4
    endloop
  endfacet
  facet normal -0.218143 0.975917 0
    outer loop
      vertex -1.49905 7.8583 0
      vertex -1.98952 7.74866 4
      vertex -1.49905 7.8583 4
    endloop
  endfacet
  facet normal -0.218143 0.975917 0
    outer loop
      vertex -1.98952 7.74866 4
      vertex -1.49905 7.8583 0
      vertex -1.98952 7.74866 0
    endloop
  endfacet
  facet normal -0.278991 0.960294 0
    outer loop
      vertex -1.98952 7.74866 0
      vertex -2.47214 7.60845 4
      vertex -1.98952 7.74866 4
    endloop
  endfacet
  facet normal -0.278991 0.960294 0
    outer loop
      vertex -2.47214 7.60845 4
      vertex -1.98952 7.74866 0
      vertex -2.47214 7.60845 0
    endloop
  endfacet
  facet normal -0.0314127 0.999507 0
    outer loop
      vertex 0 8 0
      vertex -0.502324 7.98421 4
      vertex 0 8 4
    endloop
  endfacet
  facet normal -0.0314127 0.999507 0
    outer loop
      vertex -0.502324 7.98421 4
      vertex 0 8 0
      vertex -0.502324 7.98421 0
    endloop
  endfacet
  facet normal -0.0941071 0.995562 0
    outer loop
      vertex -0.502324 7.98421 0
      vertex -1.00267 7.93692 4
      vertex -0.502324 7.98421 4
    endloop
  endfacet
  facet normal -0.0941071 0.995562 0
    outer loop
      vertex -1.00267 7.93692 4
      vertex -0.502324 7.98421 0
      vertex -1.00267 7.93692 0
    endloop
  endfacet
  facet normal -0.397148 0.917755 0
    outer loop
      vertex -2.945 7.43821 0
      vertex -3.40623 7.23862 4
      vertex -2.945 7.43821 4
    endloop
  endfacet
  facet normal -0.397148 0.917755 0
    outer loop
      vertex -3.40623 7.23862 4
      vertex -2.945 7.43821 0
      vertex -3.40623 7.23862 0
    endloop
  endfacet
  facet normal -0.612908 0.790154 0
    outer loop
      vertex -4.70228 6.47214 0
      vertex -5.09939 6.16411 4
      vertex -4.70228 6.47214 4
    endloop
  endfacet
  facet normal -0.612908 0.790154 0
    outer loop
      vertex -5.09939 6.16411 4
      vertex -4.70228 6.47214 0
      vertex -5.09939 6.16411 0
    endloop
  endfacet
  facet normal -0.661311 0.750112 0
    outer loop
      vertex -5.09939 6.16411 0
      vertex -5.47638 5.83175 4
      vertex -5.09939 6.16411 4
    endloop
  endfacet
  facet normal -0.661311 0.750112 0
    outer loop
      vertex -5.47638 5.83175 4
      vertex -5.09939 6.16411 0
      vertex -5.47638 5.83175 0
    endloop
  endfacet
  facet normal 0.0314127 -0.999507 0
    outer loop
      vertex 0 -8 0
      vertex 0.502324 -7.98421 4
      vertex 0 -8 4
    endloop
  endfacet
  facet normal 0.0314127 -0.999507 0
    outer loop
      vertex 0.502324 -7.98421 4
      vertex 0 -8 0
      vertex 0.502324 -7.98421 0
    endloop
  endfacet
  facet normal 0.860741 -0.509042 0
    outer loop
      vertex 6.75462 -4.28661 4
      vertex 6.92413 -4 0
      vertex 6.92413 -4 4
    endloop
  endfacet
  facet normal 0.860741 -0.509042 0
    outer loop
      vertex 6.92413 -4 0
      vertex 6.75462 -4.28661 4
      vertex 6.75462 -4.28661 0
    endloop
  endfacet
  facet normal 0.827082 -0.562082 0
    outer loop
      vertex 6.47214 -4.70228 4
      vertex 6.75462 -4.28661 0
      vertex 6.75462 -4.28661 4
    endloop
  endfacet
  facet normal 0.827082 -0.562082 0
    outer loop
      vertex 6.75462 -4.28661 0
      vertex 6.47214 -4.70228 4
      vertex 6.47214 -4.70228 0
    endloop
  endfacet
  facet normal 0.0941071 -0.995562 0
    outer loop
      vertex 0.502324 -7.98421 0
      vertex 1.00267 -7.93692 4
      vertex 0.502324 -7.98421 4
    endloop
  endfacet
  facet normal 0.0941071 -0.995562 0
    outer loop
      vertex 1.00267 -7.93692 4
      vertex 0.502324 -7.98421 0
      vertex 1.00267 -7.93692 0
    endloop
  endfacet
  facet normal 0.156435 -0.987688 0
    outer loop
      vertex 1.00267 -7.93692 0
      vertex 1.49905 -7.8583 4
      vertex 1.00267 -7.93692 4
    endloop
  endfacet
  facet normal 0.156435 -0.987688 0
    outer loop
      vertex 1.49905 -7.8583 4
      vertex 1.00267 -7.93692 0
      vertex 1.49905 -7.8583 0
    endloop
  endfacet
  facet normal 0.338738 -0.940881 0
    outer loop
      vertex 2.47214 -7.60845 0
      vertex 2.945 -7.43821 4
      vertex 2.47214 -7.60845 4
    endloop
  endfacet
  facet normal 0.338738 -0.940881 0
    outer loop
      vertex 2.945 -7.43821 4
      vertex 2.47214 -7.60845 0
      vertex 2.945 -7.43821 0
    endloop
  endfacet
  facet normal 0.661311 -0.750112 0
    outer loop
      vertex 5.09939 -6.16411 0
      vertex 5.47638 -5.83175 4
      vertex 5.09939 -6.16411 4
    endloop
  endfacet
  facet normal 0.661311 -0.750112 0
    outer loop
      vertex 5.47638 -5.83175 4
      vertex 5.09939 -6.16411 0
      vertex 5.47638 -5.83175 0
    endloop
  endfacet
  facet normal 0.612908 -0.790154 0
    outer loop
      vertex 4.70228 -6.47214 0
      vertex 5.09939 -6.16411 4
      vertex 4.70228 -6.47214 4
    endloop
  endfacet
  facet normal 0.612908 -0.790154 0
    outer loop
      vertex 5.09939 -6.16411 4
      vertex 4.70228 -6.47214 0
      vertex 5.09939 -6.16411 0
    endloop
  endfacet
  facet normal 0.707107 -0.707107 0
    outer loop
      vertex 5.47638 -5.83175 4
      vertex 5.83175 -5.47638 0
      vertex 5.83175 -5.47638 4
    endloop
  endfacet
  facet normal 0.707107 -0.707107 0
    outer loop
      vertex 5.83175 -5.47638 0
      vertex 5.47638 -5.83175 4
      vertex 5.47638 -5.83175 0
    endloop
  endfacet
  facet normal 0.509043 -0.860741 0
    outer loop
      vertex 3.85403 -7.01045 0
      vertex 4.28661 -6.75462 4
      vertex 3.85403 -7.01045 4
    endloop
  endfacet
  facet normal 0.509043 -0.860741 0
    outer loop
      vertex 4.28661 -6.75462 4
      vertex 3.85403 -7.01045 0
      vertex 4.28661 -6.75462 0
    endloop
  endfacet
  facet normal 0.562082 -0.827082 0
    outer loop
      vertex 4.28661 -6.75462 0
      vertex 4.70228 -6.47214 4
      vertex 4.28661 -6.75462 4
    endloop
  endfacet
  facet normal 0.562082 -0.827082 0
    outer loop
      vertex 4.70228 -6.47214 4
      vertex 4.28661 -6.75462 0
      vertex 4.70228 -6.47214 0
    endloop
  endfacet
  facet normal -0.156435 -0.987688 0
    outer loop
      vertex -1.49905 -7.8583 0
      vertex -1.00267 -7.93692 4
      vertex -1.49905 -7.8583 4
    endloop
  endfacet
  facet normal -0.156435 -0.987688 -0
    outer loop
      vertex -1.00267 -7.93692 4
      vertex -1.49905 -7.8583 0
      vertex -1.00267 -7.93692 0
    endloop
  endfacet
  facet normal -0.397148 -0.917755 0
    outer loop
      vertex -3.40623 -7.23862 0
      vertex -2.945 -7.43821 4
      vertex -3.40623 -7.23862 4
    endloop
  endfacet
  facet normal -0.397148 -0.917755 -0
    outer loop
      vertex -2.945 -7.43821 4
      vertex -3.40623 -7.23862 0
      vertex -2.945 -7.43821 0
    endloop
  endfacet
  facet normal -0.218143 -0.975917 0
    outer loop
      vertex -1.98952 -7.74866 0
      vertex -1.49905 -7.8583 4
      vertex -1.98952 -7.74866 4
    endloop
  endfacet
  facet normal -0.218143 -0.975917 -0
    outer loop
      vertex -1.49905 -7.8583 4
      vertex -1.98952 -7.74866 0
      vertex -1.49905 -7.8583 0
    endloop
  endfacet
  facet normal -0.0941071 -0.995562 0
    outer loop
      vertex -1.00267 -7.93692 0
      vertex -0.502324 -7.98421 4
      vertex -1.00267 -7.93692 4
    endloop
  endfacet
  facet normal -0.0941071 -0.995562 -0
    outer loop
      vertex -0.502324 -7.98421 4
      vertex -1.00267 -7.93692 0
      vertex -0.502324 -7.98421 0
    endloop
  endfacet
  facet normal -0.278991 -0.960294 0
    outer loop
      vertex -2.47214 -7.60845 0
      vertex -1.98952 -7.74866 4
      vertex -2.47214 -7.60845 4
    endloop
  endfacet
  facet normal -0.278991 -0.960294 -0
    outer loop
      vertex -1.98952 -7.74866 4
      vertex -2.47214 -7.60845 0
      vertex -1.98952 -7.74866 0
    endloop
  endfacet
  facet normal -0.509043 -0.860741 0
    outer loop
      vertex -4.28661 -6.75462 0
      vertex -3.85403 -7.01045 4
      vertex -4.28661 -6.75462 4
    endloop
  endfacet
  facet normal -0.509043 -0.860741 -0
    outer loop
      vertex -3.85403 -7.01045 4
      vertex -4.28661 -6.75462 0
      vertex -3.85403 -7.01045 0
    endloop
  endfacet
  facet normal -0.562082 -0.827082 0
    outer loop
      vertex -4.70228 -6.47214 0
      vertex -4.28661 -6.75462 4
      vertex -4.70228 -6.47214 4
    endloop
  endfacet
  facet normal -0.562082 -0.827082 -0
    outer loop
      vertex -4.28661 -6.75462 4
      vertex -4.70228 -6.47214 0
      vertex -4.28661 -6.75462 0
    endloop
  endfacet
  facet normal -0.45399 -0.891007 0
    outer loop
      vertex -3.85403 -7.01045 0
      vertex -3.40623 -7.23862 4
      vertex -3.85403 -7.01045 4
    endloop
  endfacet
  facet normal -0.45399 -0.891007 -0
    outer loop
      vertex -3.40623 -7.23862 4
      vertex -3.85403 -7.01045 0
      vertex -3.40623 -7.23862 0
    endloop
  endfacet
  facet normal -0.661311 -0.750112 0
    outer loop
      vertex -5.47638 -5.83175 0
      vertex -5.09939 -6.16411 4
      vertex -5.47638 -5.83175 4
    endloop
  endfacet
  facet normal -0.661311 -0.750112 -0
    outer loop
      vertex -5.09939 -6.16411 4
      vertex -5.47638 -5.83175 0
      vertex -5.09939 -6.16411 0
    endloop
  endfacet
  facet normal -0.612908 -0.790154 0
    outer loop
      vertex -5.09939 -6.16411 0
      vertex -4.70228 -6.47214 4
      vertex -5.09939 -6.16411 4
    endloop
  endfacet
  facet normal -0.612908 -0.790154 -0
    outer loop
      vertex -4.70228 -6.47214 4
      vertex -5.09939 -6.16411 0
      vertex -4.70228 -6.47214 0
    endloop
  endfacet
  facet normal -0.940881 -0.338738 0
    outer loop
      vertex -7.43821 -2.945 0
      vertex -7.60845 -2.47214 4
      vertex -7.60845 -2.47214 0
    endloop
  endfacet
  facet normal -0.940881 -0.338738 0
    outer loop
      vertex -7.60845 -2.47214 4
      vertex -7.43821 -2.945 0
      vertex -7.43821 -2.945 4
    endloop
  endfacet
  facet normal -0.975917 -0.218143 0
    outer loop
      vertex -7.74866 -1.98952 0
      vertex -7.8583 -1.49905 4
      vertex -7.8583 -1.49905 0
    endloop
  endfacet
  facet normal -0.975917 -0.218143 0
    outer loop
      vertex -7.8583 -1.49905 4
      vertex -7.74866 -1.98952 0
      vertex -7.74866 -1.98952 4
    endloop
  endfacet
  facet normal -0.960294 -0.278991 0
    outer loop
      vertex -7.60845 -2.47214 0
      vertex -7.74866 -1.98952 4
      vertex -7.74866 -1.98952 0
    endloop
  endfacet
  facet normal -0.960294 -0.278991 0
    outer loop
      vertex -7.74866 -1.98952 4
      vertex -7.60845 -2.47214 0
      vertex -7.60845 -2.47214 4
    endloop
  endfacet
  facet normal -0.987688 -0.156435 0
    outer loop
      vertex -7.8583 -1.49905 0
      vertex -7.93692 -1.00267 4
      vertex -7.93692 -1.00267 0
    endloop
  endfacet
  facet normal -0.987688 -0.156435 0
    outer loop
      vertex -7.93692 -1.00267 4
      vertex -7.8583 -1.49905 0
      vertex -7.8583 -1.49905 4
    endloop
  endfacet
  facet normal -0.999507 -0.0314127 0
    outer loop
      vertex -7.98421 -0.502324 0
      vertex -8 0 4
      vertex -8 0 0
    endloop
  endfacet
  facet normal -0.999507 -0.0314127 0
    outer loop
      vertex -8 0 4
      vertex -7.98421 -0.502324 0
      vertex -7.98421 -0.502324 4
    endloop
  endfacet
  facet normal -0.860741 -0.509043 0
    outer loop
      vertex -6.75462 -4.28661 0
      vertex -7.01045 -3.85403 4
      vertex -7.01045 -3.85403 0
    endloop
  endfacet
  facet normal -0.860741 -0.509043 0
    outer loop
      vertex -7.01045 -3.85403 4
      vertex -6.75462 -4.28661 0
      vertex -6.75462 -4.28661 4
    endloop
  endfacet
  facet normal -0.917755 -0.397148 0
    outer loop
      vertex -7.23862 -3.40623 0
      vertex -7.43821 -2.945 4
      vertex -7.43821 -2.945 0
    endloop
  endfacet
  facet normal -0.917755 -0.397148 0
    outer loop
      vertex -7.43821 -2.945 4
      vertex -7.23862 -3.40623 0
      vertex -7.23862 -3.40623 4
    endloop
  endfacet
  facet normal -0.790154 -0.612908 0
    outer loop
      vertex -6.16411 -5.09939 0
      vertex -6.47214 -4.70228 4
      vertex -6.47214 -4.70228 0
    endloop
  endfacet
  facet normal -0.790154 -0.612908 0
    outer loop
      vertex -6.47214 -4.70228 4
      vertex -6.16411 -5.09939 0
      vertex -6.16411 -5.09939 4
    endloop
  endfacet
  facet normal -0.750112 -0.661311 0
    outer loop
      vertex -5.83175 -5.47638 0
      vertex -6.16411 -5.09939 4
      vertex -6.16411 -5.09939 0
    endloop
  endfacet
  facet normal -0.750112 -0.661311 0
    outer loop
      vertex -6.16411 -5.09939 4
      vertex -5.83175 -5.47638 0
      vertex -5.83175 -5.47638 4
    endloop
  endfacet
  facet normal 0.860741 0.509042 0
    outer loop
      vertex 6.92413 4 4
      vertex 6.75462 4.28661 0
      vertex 6.75462 4.28661 4
    endloop
  endfacet
  facet normal 0.860741 0.509042 0
    outer loop
      vertex 6.75462 4.28661 0
      vertex 6.92413 4 4
      vertex 6.92413 4 0
    endloop
  endfacet
  facet normal 0.0941071 0.995562 -0
    outer loop
      vertex 1.00267 7.93692 0
      vertex 0.502324 7.98421 4
      vertex 1.00267 7.93692 4
    endloop
  endfacet
  facet normal 0.0941071 0.995562 0
    outer loop
      vertex 0.502324 7.98421 4
      vertex 1.00267 7.93692 0
      vertex 0.502324 7.98421 0
    endloop
  endfacet
  facet normal 0 0 1
    outer loop
      vertex 2 4 4
      vertex 6.75462 4.28661 4
      vertex 6.47214 4.70228 4
    endloop
  endfacet
  facet normal 0 0 1
    outer loop
      vertex 2 4 4
      vertex 6.47214 4.70228 4
      vertex 6.16411 5.09939 4
    endloop
  endfacet
  facet normal 0 0 1
    outer loop
      vertex 2 4 4
      vertex 6.16411 5.09939 4
      vertex 5.83175 5.47638 4
    endloop
  endfacet
  facet normal 0 0 1
    outer loop
      vertex 2 4 4
      vertex 5.83175 5.47638 4
      vertex 5.47638 5.83175 4
    endloop
  endfacet
  facet normal 0 0 1
    outer loop
      vertex 2 4 4
      vertex 5.47638 5.83175 4
      vertex 5.09939 6.16411 4
    endloop
  endfacet
  facet normal 0 0 1
    outer loop
      vertex 2 4 4
      vertex 5.09939 6.16411 4
      vertex 4.70228 6.47214 4
    endloop
  endfacet
  facet normal 0 0 1
    outer loop
      vertex 2 4 4
      vertex 4.70228 6.47214 4
      vertex 4.28661 6.75462 4
    endloop
  endfacet
  facet normal 0 0 1
    outer loop
      vertex 2 4 4
      vertex 4.28661 6.75462 4
      vertex 3.85403 7.01045 4
    endloop
  endfacet
  facet normal 0 0 1
    outer loop
      vertex 2 4 4
      vertex 3.85403 7.01045 4
      vertex 3.40623 7.23862 4
    endloop
  endfacet
  facet normal 0 0 1
    outer loop
      vertex 2 4 4
      vertex 3.40623 7.23862 4
      vertex 2.945 7.43821 4
    endloop
  endfacet
  facet normal 0 0 1
    outer loop
      vertex 2 4 4
      vertex 2.945 7.43821 4
      vertex 2.47214 7.60845 4
    endloop
  endfacet
  facet normal 0 0 1
    outer loop
      vertex 6.75462 4.28661 4
      vertex 2 4 4
      vertex 6.92413 4 4
    endloop
  endfacet
  facet normal 0 0 1
    outer loop
      vertex 1.49905 7.8583 4
      vertex 2 4 4
      vertex 1.98952 7.74866 4
    endloop
  endfacet
  facet normal 0 0 1
    outer loop
      vertex 1.98952 7.74866 4
      vertex 2 4 4
      vertex 2.47214 7.60845 4
    endloop
  endfacet
  facet normal -0 0 1
    outer loop
      vertex 2 -4 4
      vertex 6.75462 -4.28661 4
      vertex 6.92413 -4 4
    endloop
  endfacet
  facet normal 0 0 1
    outer loop
      vertex 6.75462 -4.28661 4
      vertex 2 -4 4
      vertex 6.47214 -4.70228 4
    endloop
  endfacet
  facet normal 0 0 1
    outer loop
      vertex 6.47214 -4.70228 4
      vertex 2 -4 4
      vertex 6.16411 -5.09939 4
    endloop
  endfacet
  facet normal 0 0 1
    outer loop
      vertex 6.16411 -5.09939 4
      vertex 2 -4 4
      vertex 5.83175 -5.47638 4
    endloop
  endfacet
  facet normal 0 0 1
    outer loop
      vertex 5.83175 -5.47638 4
      vertex 2 -4 4
      vertex 5.47638 -5.83175 4
    endloop
  endfacet
  facet normal 0 0 1
    outer loop
      vertex 5.47638 -5.83175 4
      vertex 2 -4 4
      vertex 5.09939 -6.16411 4
    endloop
  endfacet
  facet normal 0 0 1
    outer loop
      vertex 5.09939 -6.16411 4
      vertex 2 -4 4
      vertex 4.70228 -6.47214 4
    endloop
  endfacet
  facet normal 0 0 1
    outer loop
      vertex 4.70228 -6.47214 4
      vertex 2 -4 4
      vertex 4.28661 -6.75462 4
    endloop
  endfacet
  facet normal 0 0 1
    outer loop
      vertex 4.28661 -6.75462 4
      vertex 2 -4 4
      vertex 3.85403 -7.01045 4
    endloop
  endfacet
  facet normal 0 0 1
    outer loop
      vertex 3.85403 -7.01045 4
      vertex 2 -4 4
      vertex 3.40623 -7.23862 4
    endloop
  endfacet
  facet normal 0 0 1
    outer loop
      vertex 3.40623 -7.23862 4
      vertex 2 -4 4
      vertex 2.945 -7.43821 4
    endloop
  endfacet
  facet normal 0 0 1
    outer loop
      vertex 2.945 -7.43821 4
      vertex 2 -4 4
      vertex 2.47214 -7.60845 4
    endloop
  endfacet
  facet normal 0 0 1
    outer loop
      vertex 2 -4 4
      vertex 1.98952 -7.74866 4
      vertex 2.47214 -7.60845 4
    endloop
  endfacet
  facet normal 0 0 1
    outer loop
      vertex 1.00267 7.93692 4
      vertex 2 4 4
      vertex 1.49905 7.8583 4
    endloop
  endfacet
  facet normal 0 0 1
    outer loop
      vertex 0.502324 7.98421 4
      vertex 2 4 4
      vertex 1.00267 7.93692 4
    endloop
  endfacet
  facet normal 0 0 1
    outer loop
      vertex 2 -4 4
      vertex 1.49905 -7.8583 4
      vertex 1.98952 -7.74866 4
    endloop
  endfacet
  facet normal 0 0 1
    outer loop
      vertex 0 8 4
      vertex 2 4 4
      vertex 0.502324 7.98421 4
    endloop
  endfacet
  facet normal 0 0 1
    outer loop
      vertex 2 -4 4
      vertex 1.00267 -7.93692 4
      vertex 1.49905 -7.8583 4
    endloop
  endfacet
  facet normal -0 0 1
    outer loop
      vertex -0.502324 7.98421 4
      vertex 2 4 4
      vertex 0 8 4
    endloop
  endfacet
  facet normal 0 0 1
    outer loop
      vertex 2 -4 4
      vertex 0.502324 -7.98421 4
      vertex 1.00267 -7.93692 4
    endloop
  endfacet
  facet normal -0 0 1
    outer loop
      vertex -1.00267 7.93692 4
      vertex 2 4 4
      vertex -0.502324 7.98421 4
    endloop
  endfacet
  facet normal 0 0 1
    outer loop
      vertex 2 -4 4
      vertex 0 -8 4
      vertex 0.502324 -7.98421 4
    endloop
  endfacet
  facet normal -0 0 1
    outer loop
      vertex -1.49905 7.8583 4
      vertex 2 4 4
      vertex -1.00267 7.93692 4
    endloop
  endfacet
  facet normal 0 0 1
    outer loop
      vertex 2 -4 4
      vertex -0.502324 -7.98421 4
      vertex 0 -8 4
    endloop
  endfacet
  facet normal -0 0 1
    outer loop
      vertex -1.98952 7.74866 4
      vertex 2 4 4
      vertex -1.49905 7.8583 4
    endloop
  endfacet
  facet normal 0 0 1
    outer loop
      vertex 2 -4 4
      vertex -1.00267 -7.93692 4
      vertex -0.502324 -7.98421 4
    endloop
  endfacet
  facet normal -0 0 1
    outer loop
      vertex -2.47214 7.60845 4
      vertex 2 4 4
      vertex -1.98952 7.74866 4
    endloop
  endfacet
  facet normal 0 0 1
    outer loop
      vertex 2 -4 4
      vertex -1.49905 -7.8583 4
      vertex -1.00267 -7.93692 4
    endloop
  endfacet
  facet normal -0 0 1
    outer loop
      vertex -2.945 7.43821 4
      vertex 2 4 4
      vertex -2.47214 7.60845 4
    endloop
  endfacet
  facet normal 0 0 1
    outer loop
      vertex 2 -4 4
      vertex -1.98952 -7.74866 4
      vertex -1.49905 -7.8583 4
    endloop
  endfacet
  facet normal -0 0 1
    outer loop
      vertex -3.40623 7.23862 4
      vertex 2 4 4
      vertex -2.945 7.43821 4
    endloop
  endfacet
  facet normal 0 0 1
    outer loop
      vertex 2 -4 4
      vertex -2.47214 -7.60845 4
      vertex -1.98952 -7.74866 4
    endloop
  endfacet
  facet normal -0 0 1
    outer loop
      vertex -3.85403 7.01045 4
      vertex 2 4 4
      vertex -3.40623 7.23862 4
    endloop
  endfacet
  facet normal 0 0 1
    outer loop
      vertex 2 -4 4
      vertex -2.945 -7.43821 4
      vertex -2.47214 -7.60845 4
    endloop
  endfacet
  facet normal -0 0 1
    outer loop
      vertex -4.28661 6.75462 4
      vertex 2 4 4
      vertex -3.85403 7.01045 4
    endloop
  endfacet
  facet normal 0 0 1
    outer loop
      vertex 2 -4 4
      vertex -3.40623 -7.23862 4
      vertex -2.945 -7.43821 4
    endloop
  endfacet
  facet normal -0 0 1
    outer loop
      vertex -4.70228 6.47214 4
      vertex 2 4 4
      vertex -4.28661 6.75462 4
    endloop
  endfacet
  facet normal 0 0 1
    outer loop
      vertex 2 -4 4
      vertex -3.85403 -7.01045 4
      vertex -3.40623 -7.23862 4
    endloop
  endfacet
  facet normal -0 0 1
    outer loop
      vertex -5.09939 6.16411 4
      vertex 2 4 4
      vertex -4.70228 6.47214 4
    endloop
  endfacet
  facet normal 0 0 1
    outer loop
      vertex 2 -4 4
      vertex -4.28661 -6.75462 4
      vertex -3.85403 -7.01045 4
    endloop
  endfacet
  facet normal -0 0 1
    outer loop
      vertex -5.47638 5.83175 4
      vertex 2 4 4
      vertex -5.09939 6.16411 4
    endloop
  endfacet
  facet normal 0 0 1
    outer loop
      vertex 2 -4 4
      vertex -4.70228 -6.47214 4
      vertex -4.28661 -6.75462 4
    endloop
  endfacet
  facet normal -0 0 1
    outer loop
      vertex -5.83175 5.47638 4
      vertex 2 4 4
      vertex -5.47638 5.83175 4
    endloop
  endfacet
  facet normal 0 0 1
    outer loop
      vertex 2 -4 4
      vertex -5.09939 -6.16411 4
      vertex -4.70228 -6.47214 4
    endloop
  endfacet
  facet normal -0 0 1
    outer loop
      vertex -6.16411 5.09939 4
      vertex 2 4 4
      vertex -5.83175 5.47638 4
    endloop
  endfacet
  facet normal 0 0 1
    outer loop
      vertex 2 -4 4
      vertex -5.47638 -5.83175 4
      vertex -5.09939 -6.16411 4
    endloop
  endfacet
  facet normal -0 0 1
    outer loop
      vertex -6.47214 4.70228 4
      vertex 2 4 4
      vertex -6.16411 5.09939 4
    endloop
  endfacet
  facet normal 0 0 1
    outer loop
      vertex 2 -4 4
      vertex -5.83175 -5.47638 4
      vertex -5.47638 -5.83175 4
    endloop
  endfacet
  facet normal -0 0 1
    outer loop
      vertex -6.75462 4.28661 4
      vertex 2 4 4
      vertex -6.47214 4.70228 4
    endloop
  endfacet
  facet normal 0 0 1
    outer loop
      vertex 2 -4 4
      vertex -6.16411 -5.09939 4
      vertex -5.83175 -5.47638 4
    endloop
  endfacet
  facet normal 0 0 1
    outer loop
      vertex -7.01045 3.85403 4
      vertex 2 4 4
      vertex -6.75462 4.28661 4
    endloop
  endfacet
  facet normal 0 0 1
    outer loop
      vertex 2 -4 4
      vertex -6.47214 -4.70228 4
      vertex -6.16411 -5.09939 4
    endloop
  endfacet
  facet normal 0 0 1
    outer loop
      vertex -7.23862 3.40623 4
      vertex 2 4 4
      vertex -7.01045 3.85403 4
    endloop
  endfacet
  facet normal 0 0 1
    outer loop
      vertex 2 -4 4
      vertex -6.75462 -4.28661 4
      vertex -6.47214 -4.70228 4
    endloop
  endfacet
  facet normal 0 0 1
    outer loop
      vertex -7.43821 2.945 4
      vertex 2 4 4
      vertex -7.23862 3.40623 4
    endloop
  endfacet
  facet normal 0 0 1
    outer loop
      vertex 2 -4 4
      vertex -7.01045 -3.85403 4
      vertex -6.75462 -4.28661 4
    endloop
  endfacet
  facet normal 0 0 1
    outer loop
      vertex -7.60845 2.47214 4
      vertex 2 4 4
      vertex -7.43821 2.945 4
    endloop
  endfacet
  facet normal 0 0 1
    outer loop
      vertex 2 -4 4
      vertex -7.23862 -3.40623 4
      vertex -7.01045 -3.85403 4
    endloop
  endfacet
  facet normal 0 0 1
    outer loop
      vertex -7.74866 1.98952 4
      vertex 2 4 4
      vertex -7.60845 2.47214 4
    endloop
  endfacet
  facet normal 0 0 1
    outer loop
      vertex 2 -4 4
      vertex -7.43821 -2.945 4
      vertex -7.23862 -3.40623 4
    endloop
  endfacet
  facet normal 0 0 1
    outer loop
      vertex -7.8583 1.49905 4
      vertex 2 4 4
      vertex -7.74866 1.98952 4
    endloop
  endfacet
  facet normal 0 0 1
    outer loop
      vertex 2 -4 4
      vertex -7.60845 -2.47214 4
      vertex -7.43821 -2.945 4
    endloop
  endfacet
  facet normal 0 0 1
    outer loop
      vertex -7.93692 1.00267 4
      vertex 2 4 4
      vertex -7.8583 1.49905 4
    endloop
  endfacet
  facet normal 0 0 1
    outer loop
      vertex 2 -4 4
      vertex -7.74866 -1.98952 4
      vertex -7.60845 -2.47214 4
    endloop
  endfacet
  facet normal 0 0 1
    outer loop
      vertex -7.98421 0.502324 4
      vertex 2 4 4
      vertex -7.93692 1.00267 4
    endloop
  endfacet
  facet normal 0 0 1
    outer loop
      vertex 2 -4 4
      vertex -7.8583 -1.49905 4
      vertex -7.74866 -1.98952 4
    endloop
  endfacet
  facet normal 0 0 1
    outer loop
      vertex -8 0 4
      vertex 2 4 4
      vertex -7.98421 0.502324 4
    endloop
  endfacet
  facet normal 0 0 1
    outer loop
      vertex 2 -4 4
      vertex -7.93692 -1.00267 4
      vertex -7.8583 -1.49905 4
    endloop
  endfacet
  facet normal 0 0 1
    outer loop
      vertex 2 4 4
      vertex -8 0 4
      vertex 2 -4 4
    endloop
  endfacet
  facet normal 0 0 1
    outer loop
      vertex 2 -4 4
      vertex -7.98421 -0.502324 4
      vertex -7.93692 -1.00267 4
    endloop
  endfacet
  facet normal 0 0 1
    outer loop
      vertex 2 -4 4
      vertex -8 0 4
      vertex -7.98421 -0.502324 4
    endloop
  endfacet
  facet normal -0.995562 0.0941071 0
    outer loop
      vertex -7.98421 0.502324 0
      vertex -7.93692 1.00267 4
      vertex -7.93692 1.00267 0
    endloop
  endfacet
  facet normal -0.995562 0.0941071 0
    outer loop
      vertex -7.93692 1.00267 4
      vertex -7.98421 0.502324 0
      vertex -7.98421 0.502324 4
    endloop
  endfacet
  facet normal -0.975917 0.218143 0
    outer loop
      vertex -7.8583 1.49905 0
      vertex -7.74866 1.98952 4
      vertex -7.74866 1.98952 0
    endloop
  endfacet
  facet normal -0.975917 0.218143 0
    outer loop
      vertex -7.74866 1.98952 4
      vertex -7.8583 1.49905 0
      vertex -7.8583 1.49905 4
    endloop
  endfacet
  facet normal 0.218143 -0.975917 0
    outer loop
      vertex 1.49905 -7.8583 0
      vertex 1.98952 -7.74866 4
      vertex 1.49905 -7.8583 4
    endloop
  endfacet
  facet normal 0.218143 -0.975917 0
    outer loop
      vertex 1.98952 -7.74866 4
      vertex 1.49905 -7.8583 0
      vertex 1.98952 -7.74866 0
    endloop
  endfacet
  facet normal -0.338738 -0.940881 0
    outer loop
      vertex -2.945 -7.43821 0
      vertex -2.47214 -7.60845 4
      vertex -2.945 -7.43821 4
    endloop
  endfacet
  facet normal -0.338738 -0.940881 -0
    outer loop
      vertex -2.47214 -7.60845 4
      vertex -2.945 -7.43821 0
      vertex -2.47214 -7.60845 0
    endloop
  endfacet
  facet normal -0.995562 -0.0941071 0
    outer loop
      vertex -7.93692 -1.00267 0
      vertex -7.98421 -0.502324 4
      vertex -7.98421 -0.502324 0
    endloop
  endfacet
  facet normal -0.995562 -0.0941071 0
    outer loop
      vertex -7.98421 -0.502324 4
      vertex -7.93692 -1.00267 0
      vertex -7.93692 -1.00267 4
    endloop
  endfacet
  facet normal -0.891007 -0.45399 0
    outer loop
      vertex -7.01045 -3.85403 0
      vertex -7.23862 -3.40623 4
      vertex -7.23862 -3.40623 0
    endloop
  endfacet
  facet normal -0.891007 -0.45399 0
    outer loop
      vertex -7.23862 -3.40623 4
      vertex -7.01045 -3.85403 0
      vertex -7.01045 -3.85403 4
    endloop
  endfacet
  facet normal 0.790154 -0.612908 0
    outer loop
      vertex 6.16411 -5.09939 4
      vertex 6.47214 -4.70228 0
      vertex 6.47214 -4.70228 4
    endloop
  endfacet
  facet normal 0.790154 -0.612908 0
    outer loop
      vertex 6.47214 -4.70228 0
      vertex 6.16411 -5.09939 4
      vertex 6.16411 -5.09939 0
    endloop
  endfacet
  facet normal 1 -0 0
    outer loop
      vertex 2 -4 4
      vertex 2 4 0
      vertex 2 4 4
    endloop
  endfacet
  facet normal 1 0 0
    outer loop
      vertex 2 4 0
      vertex 2 -4 4
      vertex 2 -4 0
    endloop
  endfacet
  facet normal 0 -1 0
    outer loop
      vertex 2 4 0
      vertex 6.92413 4 4
      vertex 2 4 4
    endloop
  endfacet
  facet normal 0 -1 -0
    outer loop
      vertex 6.92413 4 4
      vertex 2 4 0
      vertex 6.92413 4 0
    endloop
  endfacet
  facet normal 0 1 -0
    outer loop
      vertex 6.92413 -4 0
      vertex 2 -4 4
      vertex 6.92413 -4 4
    endloop
  endfacet
  facet normal 0 1 0
    outer loop
      vertex 2 -4 4
      vertex 6.92413 -4 0
      vertex 2 -4 0
    endloop
  endfacet
endsolid OpenSCAD_Model
