solid OpenSCAD_Model
  facet normal -0.338738 0.940881 0
    outer loop
      vertex -2.47214 7.60845 0
      vertex -2.945 7.43821 100
      vertex -2.47214 7.60845 100
    endloop
  endfacet
  facet normal -0.338738 0.940881 0
    outer loop
      vertex -2.945 7.43821 100
      vertex -2.47214 7.60845 0
      vertex -2.945 7.43821 0
    endloop
  endfacet
  facet normal -0.891003 0.453998 0
    outer loop
      vertex -7.23862 3.40623 0
      vertex -7.01045 3.85403 100
      vertex -7.01045 3.85403 0
    endloop
  endfacet
  facet normal -0.891003 0.453998 0
    outer loop
      vertex -7.01045 3.85403 100
      vertex -7.23862 3.40623 0
      vertex -7.23862 3.40623 100
    endloop
  endfacet
  facet normal -0.917756 -0.397144 0
    outer loop
      vertex -7.23862 -3.40623 0
      vertex -7.43821 -2.945 100
      vertex -7.43821 -2.945 0
    endloop
  endfacet
  facet normal -0.917756 -0.397144 0
    outer loop
      vertex -7.43821 -2.945 100
      vertex -7.23862 -3.40623 0
      vertex -7.23862 -3.40623 100
    endloop
  endfacet
  facet normal -0.995563 0.0940953 0
    outer loop
      vertex -7.98421 0.502324 0
      vertex -7.93692 1.00267 100
      vertex -7.93692 1.00267 0
    endloop
  endfacet
  facet normal -0.995563 0.0940953 0
    outer loop
      vertex -7.93692 1.00267 100
      vertex -7.98421 0.502324 0
      vertex -7.98421 0.502324 100
    endloop
  endfacet
  facet normal -0.562071 0.827089 0
    outer loop
      vertex -4.28661 6.75462 0
      vertex -4.70228 6.47214 100
      vertex -4.28661 6.75462 100
    endloop
  endfacet
  facet normal -0.562071 0.827089 0
    outer loop
      vertex -4.70228 6.47214 100
      vertex -4.28661 6.75462 0
      vertex -4.70228 6.47214 0
    endloop
  endfacet
  facet normal -0.0940953 -0.995563 0
    outer loop
      vertex -1.00267 -7.93692 0
      vertex -0.502324 -7.98421 100
      vertex -1.00267 -7.93692 100
    endloop
  endfacet
  facet normal -0.0940953 -0.995563 -0
    outer loop
      vertex -0.502324 -7.98421 100
      vertex -1.00267 -7.93692 0
      vertex -0.502324 -7.98421 0
    endloop
  endfacet
  facet normal -0.960296 0.278984 0
    outer loop
      vertex -7.74866 1.98952 0
      vertex -7.60845 2.47214 100
      vertex -7.60845 2.47214 0
    endloop
  endfacet
  facet normal -0.960296 0.278984 0
    outer loop
      vertex -7.60845 2.47214 100
      vertex -7.74866 1.98952 0
      vertex -7.74866 1.98952 100
    endloop
  endfacet
  facet normal -0.987688 0.156437 0
    outer loop
      vertex -7.93692 1.00267 0
      vertex -7.8583 1.49905 100
      vertex -7.8583 1.49905 0
    endloop
  endfacet
  facet normal -0.987688 0.156437 0
    outer loop
      vertex -7.8583 1.49905 100
      vertex -7.93692 1.00267 0
      vertex -7.93692 1.00267 100
    endloop
  endfacet
  facet normal -0.707107 0.707107 0
    outer loop
      vertex -5.83175 5.47638 0
      vertex -5.47638 5.83175 100
      vertex -5.47638 5.83175 0
    endloop
  endfacet
  facet normal -0.707107 0.707107 0
    outer loop
      vertex -5.47638 5.83175 100
      vertex -5.83175 5.47638 0
      vertex -5.83175 5.47638 100
    endloop
  endfacet
  facet normal -0.860739 0.509046 0
    outer loop
      vertex -7.01045 3.85403 0
      vertex -6.75462 4.28661 100
      vertex -6.75462 4.28661 0
    endloop
  endfacet
  facet normal -0.860739 0.509046 0
    outer loop
      vertex -6.75462 4.28661 100
      vertex -7.01045 3.85403 0
      vertex -7.01045 3.85403 100
    endloop
  endfacet
  facet normal -0.0940953 0.995563 0
    outer loop
      vertex -0.502324 7.98421 0
      vertex -1.00267 7.93692 100
      vertex -0.502324 7.98421 100
    endloop
  endfacet
  facet normal -0.0940953 0.995563 0
    outer loop
      vertex -1.00267 7.93692 100
      vertex -0.502324 7.98421 0
      vertex -1.00267 7.93692 0
    endloop
  endfacet
  facet normal -0.278984 0.960296 0
    outer loop
      vertex -1.98952 7.74866 0
      vertex -2.47214 7.60845 100
      vertex -1.98952 7.74866 100
    endloop
  endfacet
  facet normal -0.278984 0.960296 0
    outer loop
      vertex -2.47214 7.60845 100
      vertex -1.98952 7.74866 0
      vertex -2.47214 7.60845 0
    endloop
  endfacet
  facet normal -0.156437 0.987688 0
    outer loop
      vertex -1.00267 7.93692 0
      vertex -1.49905 7.8583 100
      vertex -1.00267 7.93692 100
    endloop
  endfacet
  facet normal -0.156437 0.987688 0
    outer loop
      vertex -1.49905 7.8583 100
      vertex -1.00267 7.93692 0
      vertex -1.49905 7.8583 0
    endloop
  endfacet
  facet normal -0.453998 0.891003 0
    outer loop
      vertex -3.40623 7.23862 0
      vertex -3.85403 7.01045 100
      vertex -3.40623 7.23862 100
    endloop
  endfacet
  facet normal -0.453998 0.891003 0
    outer loop
      vertex -3.85403 7.01045 100
      vertex -3.40623 7.23862 0
      vertex -3.85403 7.01045 0
    endloop
  endfacet
  facet normal -0.509046 0.860739 0
    outer loop
      vertex -3.85403 7.01045 0
      vertex -4.28661 6.75462 100
      vertex -3.85403 7.01045 100
    endloop
  endfacet
  facet normal -0.509046 0.860739 0
    outer loop
      vertex -4.28661 6.75462 100
      vertex -3.85403 7.01045 0
      vertex -4.28661 6.75462 0
    endloop
  endfacet
  facet normal -0.278984 -0.960296 0
    outer loop
      vertex -2.47214 -7.60845 0
      vertex -1.98952 -7.74866 100
      vertex -2.47214 -7.60845 100
    endloop
  endfacet
  facet normal -0.278984 -0.960296 -0
    outer loop
      vertex -1.98952 -7.74866 100
      vertex -2.47214 -7.60845 0
      vertex -1.98952 -7.74866 0
    endloop
  endfacet
  facet normal -0.453998 -0.891003 0
    outer loop
      vertex -3.85403 -7.01045 0
      vertex -3.40623 -7.23862 100
      vertex -3.85403 -7.01045 100
    endloop
  endfacet
  facet normal -0.453998 -0.891003 -0
    outer loop
      vertex -3.40623 -7.23862 100
      vertex -3.85403 -7.01045 0
      vertex -3.40623 -7.23862 0
    endloop
  endfacet
  facet normal -0.707107 -0.707107 0
    outer loop
      vertex -5.47638 -5.83175 0
      vertex -5.83175 -5.47638 100
      vertex -5.83175 -5.47638 0
    endloop
  endfacet
  facet normal -0.707107 -0.707107 0
    outer loop
      vertex -5.83175 -5.47638 100
      vertex -5.47638 -5.83175 0
      vertex -5.47638 -5.83175 100
    endloop
  endfacet
  facet normal 0 0 -1
    outer loop
      vertex 0 -8 0
      vertex -0.477207 -7.585 0
      vertex 0 -7.6 0
    endloop
  endfacet
  facet normal 0 0 -1
    outer loop
      vertex -0.502324 -7.98421 0
      vertex -0.477207 -7.585 0
      vertex 0 -8 0
    endloop
  endfacet
  facet normal 0 0 -1
    outer loop
      vertex -0.502324 -7.98421 0
      vertex -0.952532 -7.54007 0
      vertex -0.477207 -7.585 0
    endloop
  endfacet
  facet normal 0 0 -1
    outer loop
      vertex -1.00267 -7.93692 0
      vertex -0.952532 -7.54007 0
      vertex -0.502324 -7.98421 0
    endloop
  endfacet
  facet normal 0 0 -1
    outer loop
      vertex -1.00267 -7.93692 0
      vertex -1.4241 -7.46538 0
      vertex -0.952532 -7.54007 0
    endloop
  endfacet
  facet normal 0 0 -1
    outer loop
      vertex -1.49905 -7.8583 0
      vertex -1.4241 -7.46538 0
      vertex -1.00267 -7.93692 0
    endloop
  endfacet
  facet normal 0 0 -1
    outer loop
      vertex -1.49905 -7.8583 0
      vertex -1.89004 -7.36123 0
      vertex -1.4241 -7.46538 0
    endloop
  endfacet
  facet normal 0 0 -1
    outer loop
      vertex -1.98952 -7.74866 0
      vertex -1.89004 -7.36123 0
      vertex -1.49905 -7.8583 0
    endloop
  endfacet
  facet normal 0 0 -1
    outer loop
      vertex -1.98952 -7.74866 0
      vertex -2.34853 -7.22803 0
      vertex -1.89004 -7.36123 0
    endloop
  endfacet
  facet normal 0 0 -1
    outer loop
      vertex -2.47214 -7.60845 0
      vertex -2.34853 -7.22803 0
      vertex -1.98952 -7.74866 0
    endloop
  endfacet
  facet normal 0 0 -1
    outer loop
      vertex -2.47214 -7.60845 0
      vertex -2.79775 -7.0663 0
      vertex -2.34853 -7.22803 0
    endloop
  endfacet
  facet normal 0 0 -1
    outer loop
      vertex -2.945 -7.43821 0
      vertex -2.79775 -7.0663 0
      vertex -2.47214 -7.60845 0
    endloop
  endfacet
  facet normal 0 0 -1
    outer loop
      vertex -2.945 -7.43821 0
      vertex -3.23592 -6.87669 0
      vertex -2.79775 -7.0663 0
    endloop
  endfacet
  facet normal 0 0 -1
    outer loop
      vertex -3.40623 -7.23862 0
      vertex -3.23592 -6.87669 0
      vertex -2.945 -7.43821 0
    endloop
  endfacet
  facet normal 0 0 -1
    outer loop
      vertex -3.40623 -7.23862 0
      vertex -3.66133 -6.65993 0
      vertex -3.23592 -6.87669 0
    endloop
  endfacet
  facet normal 0 0 -1
    outer loop
      vertex -3.85403 -7.01045 0
      vertex -3.66133 -6.65993 0
      vertex -3.40623 -7.23862 0
    endloop
  endfacet
  facet normal 0 0 -1
    outer loop
      vertex -3.85403 -7.01045 0
      vertex -4.07228 -6.41689 0
      vertex -3.66133 -6.65993 0
    endloop
  endfacet
  facet normal 0 0 -1
    outer loop
      vertex -4.28661 -6.75462 0
      vertex -4.07228 -6.41689 0
      vertex -3.85403 -7.01045 0
    endloop
  endfacet
  facet normal 0 0 -1
    outer loop
      vertex -4.28661 -6.75462 0
      vertex -4.46717 -6.14853 0
      vertex -4.07228 -6.41689 0
    endloop
  endfacet
  facet normal 0 0 -1
    outer loop
      vertex -4.70228 -6.47214 0
      vertex -4.46717 -6.14853 0
      vertex -4.28661 -6.75462 0
    endloop
  endfacet
  facet normal 0 0 -1
    outer loop
      vertex -4.70228 -6.47214 0
      vertex -4.84442 -5.8559 0
      vertex -4.46717 -6.14853 0
    endloop
  endfacet
  facet normal 0 0 -1
    outer loop
      vertex -5.09939 -6.16411 0
      vertex -4.84442 -5.8559 0
      vertex -4.70228 -6.47214 0
    endloop
  endfacet
  facet normal 0 0 -1
    outer loop
      vertex -5.09939 -6.16411 0
      vertex -5.20256 -5.54016 0
      vertex -4.84442 -5.8559 0
    endloop
  endfacet
  facet normal 0 0 -1
    outer loop
      vertex -5.47638 -5.83175 0
      vertex -5.20256 -5.54016 0
      vertex -5.09939 -6.16411 0
    endloop
  endfacet
  facet normal 0 0 -1
    outer loop
      vertex -5.47638 -5.83175 0
      vertex -5.54016 -5.20256 0
      vertex -5.20256 -5.54016 0
    endloop
  endfacet
  facet normal 0 0 -1
    outer loop
      vertex -5.83175 -5.47638 0
      vertex -5.54016 -5.20256 0
      vertex -5.47638 -5.83175 0
    endloop
  endfacet
  facet normal 0 0 -1
    outer loop
      vertex -5.83175 -5.47638 0
      vertex -5.8559 -4.84442 0
      vertex -5.54016 -5.20256 0
    endloop
  endfacet
  facet normal 0 0 -1
    outer loop
      vertex -6.16411 -5.09939 0
      vertex -5.8559 -4.84442 0
      vertex -5.83175 -5.47638 0
    endloop
  endfacet
  facet normal -0 0 -1
    outer loop
      vertex -5.8559 -4.84442 0
      vertex -6.16411 -5.09939 0
      vertex -6.14853 -4.46717 0
    endloop
  endfacet
  facet normal 0 0 -1
    outer loop
      vertex -6.47214 -4.70228 0
      vertex -6.14853 -4.46717 0
      vertex -6.16411 -5.09939 0
    endloop
  endfacet
  facet normal -0 0 -1
    outer loop
      vertex -6.14853 -4.46717 0
      vertex -6.47214 -4.70228 0
      vertex -6.41689 -4.07228 0
    endloop
  endfacet
  facet normal 0 0 -1
    outer loop
      vertex -6.75462 -4.28661 0
      vertex -6.41689 -4.07228 0
      vertex -6.47214 -4.70228 0
    endloop
  endfacet
  facet normal -0 0 -1
    outer loop
      vertex -6.41689 -4.07228 0
      vertex -6.75462 -4.28661 0
      vertex -6.65993 -3.66133 0
    endloop
  endfacet
  facet normal 0 0 -1
    outer loop
      vertex -7.01045 -3.85403 0
      vertex -6.65993 -3.66133 0
      vertex -6.75462 -4.28661 0
    endloop
  endfacet
  facet normal -0 0 -1
    outer loop
      vertex -6.65993 -3.66133 0
      vertex -7.01045 -3.85403 0
      vertex -6.87669 -3.23592 0
    endloop
  endfacet
  facet normal 0 0 -1
    outer loop
      vertex -7.23862 -3.40623 0
      vertex -6.87669 -3.23592 0
      vertex -7.01045 -3.85403 0
    endloop
  endfacet
  facet normal -0 0 -1
    outer loop
      vertex -6.87669 -3.23592 0
      vertex -7.23862 -3.40623 0
      vertex -7.0663 -2.79775 0
    endloop
  endfacet
  facet normal 0 0 -1
    outer loop
      vertex -7.43821 -2.945 0
      vertex -7.0663 -2.79775 0
      vertex -7.23862 -3.40623 0
    endloop
  endfacet
  facet normal -0 0 -1
    outer loop
      vertex -7.0663 -2.79775 0
      vertex -7.43821 -2.945 0
      vertex -7.22803 -2.34853 0
    endloop
  endfacet
  facet normal 0 0 -1
    outer loop
      vertex -7.60845 -2.47214 0
      vertex -7.22803 -2.34853 0
      vertex -7.43821 -2.945 0
    endloop
  endfacet
  facet normal -0 0 -1
    outer loop
      vertex -7.22803 -2.34853 0
      vertex -7.60845 -2.47214 0
      vertex -7.36123 -1.89004 0
    endloop
  endfacet
  facet normal 0 0 -1
    outer loop
      vertex -7.74866 -1.98952 0
      vertex -7.36123 -1.89004 0
      vertex -7.60845 -2.47214 0
    endloop
  endfacet
  facet normal -0 0 -1
    outer loop
      vertex -7.36123 -1.89004 0
      vertex -7.74866 -1.98952 0
      vertex -7.46538 -1.4241 0
    endloop
  endfacet
  facet normal -0 0 -1
    outer loop
      vertex -7.46538 -1.4241 0
      vertex -7.8583 -1.49905 0
      vertex -7.54007 -0.952532 0
    endloop
  endfacet
  facet normal 0 0 -1
    outer loop
      vertex -7.8583 -1.49905 0
      vertex -7.46538 -1.4241 0
      vertex -7.74866 -1.98952 0
    endloop
  endfacet
  facet normal 0 0 -1
    outer loop
      vertex -0.477207 7.585 0
      vertex 0 8 0
      vertex 0 7.6 0
    endloop
  endfacet
  facet normal 0 0 -1
    outer loop
      vertex -0.477207 7.585 0
      vertex -0.502324 7.98421 0
      vertex 0 8 0
    endloop
  endfacet
  facet normal 0 0 -1
    outer loop
      vertex -0.952532 7.54007 0
      vertex -0.502324 7.98421 0
      vertex -0.477207 7.585 0
    endloop
  endfacet
  facet normal 0 0 -1
    outer loop
      vertex -0.952532 7.54007 0
      vertex -1.00267 7.93692 0
      vertex -0.502324 7.98421 0
    endloop
  endfacet
  facet normal 0 0 -1
    outer loop
      vertex -1.4241 7.46538 0
      vertex -1.00267 7.93692 0
      vertex -0.952532 7.54007 0
    endloop
  endfacet
  facet normal 0 0 -1
    outer loop
      vertex -1.4241 7.46538 0
      vertex -1.49905 7.8583 0
      vertex -1.00267 7.93692 0
    endloop
  endfacet
  facet normal 0 0 -1
    outer loop
      vertex -1.89004 7.36123 0
      vertex -1.49905 7.8583 0
      vertex -1.4241 7.46538 0
    endloop
  endfacet
  facet normal 0 0 -1
    outer loop
      vertex -1.89004 7.36123 0
      vertex -1.98952 7.74866 0
      vertex -1.49905 7.8583 0
    endloop
  endfacet
  facet normal 0 0 -1
    outer loop
      vertex -2.34853 7.22803 0
      vertex -1.98952 7.74866 0
      vertex -1.89004 7.36123 0
    endloop
  endfacet
  facet normal 0 0 -1
    outer loop
      vertex -2.34853 7.22803 0
      vertex -2.47214 7.60845 0
      vertex -1.98952 7.74866 0
    endloop
  endfacet
  facet normal 0 0 -1
    outer loop
      vertex -2.79775 7.0663 0
      vertex -2.47214 7.60845 0
      vertex -2.34853 7.22803 0
    endloop
  endfacet
  facet normal 0 0 -1
    outer loop
      vertex -2.79775 7.0663 0
      vertex -2.945 7.43821 0
      vertex -2.47214 7.60845 0
    endloop
  endfacet
  facet normal 0 0 -1
    outer loop
      vertex -3.23592 6.87669 0
      vertex -2.945 7.43821 0
      vertex -2.79775 7.0663 0
    endloop
  endfacet
  facet normal 0 0 -1
    outer loop
      vertex -3.23592 6.87669 0
      vertex -3.40623 7.23862 0
      vertex -2.945 7.43821 0
    endloop
  endfacet
  facet normal 0 0 -1
    outer loop
      vertex -3.66133 6.65993 0
      vertex -3.40623 7.23862 0
      vertex -3.23592 6.87669 0
    endloop
  endfacet
  facet normal 0 0 -1
    outer loop
      vertex -3.66133 6.65993 0
      vertex -3.85403 7.01045 0
      vertex -3.40623 7.23862 0
    endloop
  endfacet
  facet normal 0 0 -1
    outer loop
      vertex -4.07228 6.41689 0
      vertex -3.85403 7.01045 0
      vertex -3.66133 6.65993 0
    endloop
  endfacet
  facet normal 0 0 -1
    outer loop
      vertex -4.07228 6.41689 0
      vertex -4.28661 6.75462 0
      vertex -3.85403 7.01045 0
    endloop
  endfacet
  facet normal 0 0 -1
    outer loop
      vertex -4.46717 6.14853 0
      vertex -4.28661 6.75462 0
      vertex -4.07228 6.41689 0
    endloop
  endfacet
  facet normal 0 0 -1
    outer loop
      vertex -4.46717 6.14853 0
      vertex -4.70228 6.47214 0
      vertex -4.28661 6.75462 0
    endloop
  endfacet
  facet normal 0 0 -1
    outer loop
      vertex -4.84442 5.8559 0
      vertex -4.70228 6.47214 0
      vertex -4.46717 6.14853 0
    endloop
  endfacet
  facet normal 0 0 -1
    outer loop
      vertex -4.84442 5.8559 0
      vertex -5.09939 6.16411 0
      vertex -4.70228 6.47214 0
    endloop
  endfacet
  facet normal 0 0 -1
    outer loop
      vertex -5.20256 5.54016 0
      vertex -5.09939 6.16411 0
      vertex -4.84442 5.8559 0
    endloop
  endfacet
  facet normal 0 0 -1
    outer loop
      vertex -5.20256 5.54016 0
      vertex -5.47638 5.83175 0
      vertex -5.09939 6.16411 0
    endloop
  endfacet
  facet normal 0 0 -1
    outer loop
      vertex -5.54016 5.20256 0
      vertex -5.47638 5.83175 0
      vertex -5.20256 5.54016 0
    endloop
  endfacet
  facet normal 0 0 -1
    outer loop
      vertex -5.54016 5.20256 0
      vertex -5.83175 5.47638 0
      vertex -5.47638 5.83175 0
    endloop
  endfacet
  facet normal 0 0 -1
    outer loop
      vertex -5.8559 4.84442 0
      vertex -5.83175 5.47638 0
      vertex -5.54016 5.20256 0
    endloop
  endfacet
  facet normal 0 0 -1
    outer loop
      vertex -6.16411 5.09939 0
      vertex -5.8559 4.84442 0
      vertex -6.14853 4.46717 0
    endloop
  endfacet
  facet normal 0 0 -1
    outer loop
      vertex -5.8559 4.84442 0
      vertex -6.16411 5.09939 0
      vertex -5.83175 5.47638 0
    endloop
  endfacet
  facet normal 0 0 -1
    outer loop
      vertex -6.47214 4.70228 0
      vertex -6.14853 4.46717 0
      vertex -6.41689 4.07228 0
    endloop
  endfacet
  facet normal 0 0 -1
    outer loop
      vertex -6.14853 4.46717 0
      vertex -6.47214 4.70228 0
      vertex -6.16411 5.09939 0
    endloop
  endfacet
  facet normal 0 0 -1
    outer loop
      vertex -6.75462 4.28661 0
      vertex -6.41689 4.07228 0
      vertex -6.65993 3.66133 0
    endloop
  endfacet
  facet normal 0 0 -1
    outer loop
      vertex -6.41689 4.07228 0
      vertex -6.75462 4.28661 0
      vertex -6.47214 4.70228 0
    endloop
  endfacet
  facet normal 0 0 -1
    outer loop
      vertex -7.01045 3.85403 0
      vertex -6.65993 3.66133 0
      vertex -6.87669 3.23592 0
    endloop
  endfacet
  facet normal 0 0 -1
    outer loop
      vertex -6.65993 3.66133 0
      vertex -7.01045 3.85403 0
      vertex -6.75462 4.28661 0
    endloop
  endfacet
  facet normal 0 0 -1
    outer loop
      vertex -7.23862 3.40623 0
      vertex -6.87669 3.23592 0
      vertex -7.0663 2.79775 0
    endloop
  endfacet
  facet normal 0 0 -1
    outer loop
      vertex -7.43821 2.945 0
      vertex -7.0663 2.79775 0
      vertex -7.22803 2.34853 0
    endloop
  endfacet
  facet normal 0 0 -1
    outer loop
      vertex -6.87669 3.23592 0
      vertex -7.23862 3.40623 0
      vertex -7.01045 3.85403 0
    endloop
  endfacet
  facet normal 0 0 -1
    outer loop
      vertex -7.60845 2.47214 0
      vertex -7.22803 2.34853 0
      vertex -7.36123 1.89004 0
    endloop
  endfacet
  facet normal 0 0 -1
    outer loop
      vertex -7.0663 2.79775 0
      vertex -7.43821 2.945 0
      vertex -7.23862 3.40623 0
    endloop
  endfacet
  facet normal 0 0 -1
    outer loop
      vertex -7.74866 1.98952 0
      vertex -7.36123 1.89004 0
      vertex -7.46538 1.4241 0
    endloop
  endfacet
  facet normal 0 0 -1
    outer loop
      vertex -7.8583 1.49905 0
      vertex -7.46538 1.4241 0
      vertex -7.54007 0.952532 0
    endloop
  endfacet
  facet normal 0 0 -1
    outer loop
      vertex -7.93692 1.00267 0
      vertex -7.54007 0.952532 0
      vertex -7.585 0.477207 0
    endloop
  endfacet
  facet normal 0 0 -1
    outer loop
      vertex -7.22803 2.34853 0
      vertex -7.60845 2.47214 0
      vertex -7.43821 2.945 0
    endloop
  endfacet
  facet normal 0 0 -1
    outer loop
      vertex -7.98421 0.502324 0
      vertex -7.585 0.477207 0
      vertex -7.6 0 0
    endloop
  endfacet
  facet normal 0 0 -1
    outer loop
      vertex -7.93692 -1.00267 0
      vertex -7.54007 -0.952532 0
      vertex -7.8583 -1.49905 0
    endloop
  endfacet
  facet normal -0 0 -1
    outer loop
      vertex -7.54007 -0.952532 0
      vertex -7.93692 -1.00267 0
      vertex -7.585 -0.477207 0
    endloop
  endfacet
  facet normal 0 0 -1
    outer loop
      vertex -7.36123 1.89004 0
      vertex -7.74866 1.98952 0
      vertex -7.60845 2.47214 0
    endloop
  endfacet
  facet normal 0 0 -1
    outer loop
      vertex -7.98421 -0.502324 0
      vertex -7.585 -0.477207 0
      vertex -7.93692 -1.00267 0
    endloop
  endfacet
  facet normal 0 0 -1
    outer loop
      vertex -7.46538 1.4241 0
      vertex -7.8583 1.49905 0
      vertex -7.74866 1.98952 0
    endloop
  endfacet
  facet normal -0 0 -1
    outer loop
      vertex -7.585 -0.477207 0
      vertex -7.98421 -0.502324 0
      vertex -7.6 0 0
    endloop
  endfacet
  facet normal 0 0 -1
    outer loop
      vertex -7.54007 0.952532 0
      vertex -7.93692 1.00267 0
      vertex -7.8583 1.49905 0
    endloop
  endfacet
  facet normal 0 0 -1
    outer loop
      vertex -8 0 0
      vertex -7.6 0 0
      vertex -7.98421 -0.502324 0
    endloop
  endfacet
  facet normal 0 0 -1
    outer loop
      vertex -7.585 0.477207 0
      vertex -7.98421 0.502324 0
      vertex -7.93692 1.00267 0
    endloop
  endfacet
  facet normal 0 0 -1
    outer loop
      vertex -7.6 0 0
      vertex -8 0 0
      vertex -7.98421 0.502324 0
    endloop
  endfacet
  facet normal -0.827089 -0.562071 0
    outer loop
      vertex -6.47214 -4.70228 0
      vertex -6.75462 -4.28661 100
      vertex -6.75462 -4.28661 0
    endloop
  endfacet
  facet normal -0.827089 -0.562071 0
    outer loop
      vertex -6.75462 -4.28661 100
      vertex -6.47214 -4.70228 0
      vertex -6.47214 -4.70228 100
    endloop
  endfacet
  facet normal -0.999506 0.0314184 0
    outer loop
      vertex -8 0 0
      vertex -7.98421 0.502324 100
      vertex -7.98421 0.502324 0
    endloop
  endfacet
  facet normal -0.999506 0.0314184 0
    outer loop
      vertex -7.98421 0.502324 100
      vertex -8 0 0
      vertex -8 0 100
    endloop
  endfacet
  facet normal 0 0 1
    outer loop
      vertex 0 8 100
      vertex -0.477207 7.585 100
      vertex 0 7.6 100
    endloop
  endfacet
  facet normal -0 0 1
    outer loop
      vertex -0.502324 7.98421 100
      vertex -0.477207 7.585 100
      vertex 0 8 100
    endloop
  endfacet
  facet normal 0 0 1
    outer loop
      vertex -0.502324 7.98421 100
      vertex -0.952532 7.54007 100
      vertex -0.477207 7.585 100
    endloop
  endfacet
  facet normal -0 0 1
    outer loop
      vertex -1.00267 7.93692 100
      vertex -0.952532 7.54007 100
      vertex -0.502324 7.98421 100
    endloop
  endfacet
  facet normal 0 0 1
    outer loop
      vertex -1.00267 7.93692 100
      vertex -1.4241 7.46538 100
      vertex -0.952532 7.54007 100
    endloop
  endfacet
  facet normal -0 0 1
    outer loop
      vertex -1.49905 7.8583 100
      vertex -1.4241 7.46538 100
      vertex -1.00267 7.93692 100
    endloop
  endfacet
  facet normal 0 0 1
    outer loop
      vertex -1.49905 7.8583 100
      vertex -1.89004 7.36123 100
      vertex -1.4241 7.46538 100
    endloop
  endfacet
  facet normal -0 0 1
    outer loop
      vertex -1.98952 7.74866 100
      vertex -1.89004 7.36123 100
      vertex -1.49905 7.8583 100
    endloop
  endfacet
  facet normal 0 0 1
    outer loop
      vertex -1.98952 7.74866 100
      vertex -2.34853 7.22803 100
      vertex -1.89004 7.36123 100
    endloop
  endfacet
  facet normal -0 0 1
    outer loop
      vertex -2.47214 7.60845 100
      vertex -2.34853 7.22803 100
      vertex -1.98952 7.74866 100
    endloop
  endfacet
  facet normal 0 0 1
    outer loop
      vertex -2.47214 7.60845 100
      vertex -2.79775 7.0663 100
      vertex -2.34853 7.22803 100
    endloop
  endfacet
  facet normal -0 0 1
    outer loop
      vertex -2.945 7.43821 100
      vertex -2.79775 7.0663 100
      vertex -2.47214 7.60845 100
    endloop
  endfacet
  facet normal 0 0 1
    outer loop
      vertex -2.945 7.43821 100
      vertex -3.23592 6.87669 100
      vertex -2.79775 7.0663 100
    endloop
  endfacet
  facet normal -0 0 1
    outer loop
      vertex -3.40623 7.23862 100
      vertex -3.23592 6.87669 100
      vertex -2.945 7.43821 100
    endloop
  endfacet
  facet normal 0 0 1
    outer loop
      vertex -3.40623 7.23862 100
      vertex -3.66133 6.65993 100
      vertex -3.23592 6.87669 100
    endloop
  endfacet
  facet normal -0 0 1
    outer loop
      vertex -3.85403 7.01045 100
      vertex -3.66133 6.65993 100
      vertex -3.40623 7.23862 100
    endloop
  endfacet
  facet normal 0 0 1
    outer loop
      vertex -3.85403 7.01045 100
      vertex -4.07228 6.41689 100
      vertex -3.66133 6.65993 100
    endloop
  endfacet
  facet normal -0 0 1
    outer loop
      vertex -4.28661 6.75462 100
      vertex -4.07228 6.41689 100
      vertex -3.85403 7.01045 100
    endloop
  endfacet
  facet normal 0 0 1
    outer loop
      vertex -4.28661 6.75462 100
      vertex -4.46717 6.14853 100
      vertex -4.07228 6.41689 100
    endloop
  endfacet
  facet normal -0 0 1
    outer loop
      vertex -4.70228 6.47214 100
      vertex -4.46717 6.14853 100
      vertex -4.28661 6.75462 100
    endloop
  endfacet
  facet normal 0 0 1
    outer loop
      vertex -4.70228 6.47214 100
      vertex -4.84442 5.8559 100
      vertex -4.46717 6.14853 100
    endloop
  endfacet
  facet normal -0 0 1
    outer loop
      vertex -5.09939 6.16411 100
      vertex -4.84442 5.8559 100
      vertex -4.70228 6.47214 100
    endloop
  endfacet
  facet normal 0 0 1
    outer loop
      vertex -5.09939 6.16411 100
      vertex -5.20256 5.54016 100
      vertex -4.84442 5.8559 100
    endloop
  endfacet
  facet normal -0 0 1
    outer loop
      vertex -5.47638 5.83175 100
      vertex -5.20256 5.54016 100
      vertex -5.09939 6.16411 100
    endloop
  endfacet
  facet normal 0 0 1
    outer loop
      vertex -5.47638 5.83175 100
      vertex -5.54016 5.20256 100
      vertex -5.20256 5.54016 100
    endloop
  endfacet
  facet normal -0 0 1
    outer loop
      vertex -5.83175 5.47638 100
      vertex -5.54016 5.20256 100
      vertex -5.47638 5.83175 100
    endloop
  endfacet
  facet normal 0 0 1
    outer loop
      vertex -5.83175 5.47638 100
      vertex -5.8559 4.84442 100
      vertex -5.54016 5.20256 100
    endloop
  endfacet
  facet normal -0 0 1
    outer loop
      vertex -6.16411 5.09939 100
      vertex -5.8559 4.84442 100
      vertex -5.83175 5.47638 100
    endloop
  endfacet
  facet normal 0 0 1
    outer loop
      vertex -5.8559 4.84442 100
      vertex -6.16411 5.09939 100
      vertex -6.14853 4.46717 100
    endloop
  endfacet
  facet normal -0 0 1
    outer loop
      vertex -6.47214 4.70228 100
      vertex -6.14853 4.46717 100
      vertex -6.16411 5.09939 100
    endloop
  endfacet
  facet normal 0 0 1
    outer loop
      vertex -6.14853 4.46717 100
      vertex -6.47214 4.70228 100
      vertex -6.41689 4.07228 100
    endloop
  endfacet
  facet normal -0 0 1
    outer loop
      vertex -6.75462 4.28661 100
      vertex -6.41689 4.07228 100
      vertex -6.47214 4.70228 100
    endloop
  endfacet
  facet normal 0 0 1
    outer loop
      vertex -6.41689 4.07228 100
      vertex -6.75462 4.28661 100
      vertex -6.65993 3.66133 100
    endloop
  endfacet
  facet normal -0 0 1
    outer loop
      vertex -7.01045 3.85403 100
      vertex -6.65993 3.66133 100
      vertex -6.75462 4.28661 100
    endloop
  endfacet
  facet normal 0 0 1
    outer loop
      vertex -6.65993 3.66133 100
      vertex -7.01045 3.85403 100
      vertex -6.87669 3.23592 100
    endloop
  endfacet
  facet normal -0 0 1
    outer loop
      vertex -7.23862 3.40623 100
      vertex -6.87669 3.23592 100
      vertex -7.01045 3.85403 100
    endloop
  endfacet
  facet normal 0 0 1
    outer loop
      vertex -6.87669 3.23592 100
      vertex -7.23862 3.40623 100
      vertex -7.0663 2.79775 100
    endloop
  endfacet
  facet normal -0 0 1
    outer loop
      vertex -7.43821 2.945 100
      vertex -7.0663 2.79775 100
      vertex -7.23862 3.40623 100
    endloop
  endfacet
  facet normal 0 0 1
    outer loop
      vertex -7.0663 2.79775 100
      vertex -7.43821 2.945 100
      vertex -7.22803 2.34853 100
    endloop
  endfacet
  facet normal -0 0 1
    outer loop
      vertex -7.60845 2.47214 100
      vertex -7.22803 2.34853 100
      vertex -7.43821 2.945 100
    endloop
  endfacet
  facet normal 0 0 1
    outer loop
      vertex -7.22803 2.34853 100
      vertex -7.60845 2.47214 100
      vertex -7.36123 1.89004 100
    endloop
  endfacet
  facet normal -0 0 1
    outer loop
      vertex -7.74866 1.98952 100
      vertex -7.36123 1.89004 100
      vertex -7.60845 2.47214 100
    endloop
  endfacet
  facet normal 0 0 1
    outer loop
      vertex -7.36123 1.89004 100
      vertex -7.74866 1.98952 100
      vertex -7.46538 1.4241 100
    endloop
  endfacet
  facet normal 0 0 1
    outer loop
      vertex -7.46538 1.4241 100
      vertex -7.8583 1.49905 100
      vertex -7.54007 0.952532 100
    endloop
  endfacet
  facet normal -0 0 1
    outer loop
      vertex -7.8583 1.49905 100
      vertex -7.46538 1.4241 100
      vertex -7.74866 1.98952 100
    endloop
  endfacet
  facet normal 0 0 1
    outer loop
      vertex -0.477207 -7.585 100
      vertex 0 -8 100
      vertex 0 -7.6 100
    endloop
  endfacet
  facet normal 0 0 1
    outer loop
      vertex -0.477207 -7.585 100
      vertex -0.502324 -7.98421 100
      vertex 0 -8 100
    endloop
  endfacet
  facet normal 0 0 1
    outer loop
      vertex -0.952532 -7.54007 100
      vertex -0.502324 -7.98421 100
      vertex -0.477207 -7.585 100
    endloop
  endfacet
  facet normal 0 0 1
    outer loop
      vertex -0.952532 -7.54007 100
      vertex -1.00267 -7.93692 100
      vertex -0.502324 -7.98421 100
    endloop
  endfacet
  facet normal 0 0 1
    outer loop
      vertex -1.4241 -7.46538 100
      vertex -1.00267 -7.93692 100
      vertex -0.952532 -7.54007 100
    endloop
  endfacet
  facet normal 0 0 1
    outer loop
      vertex -1.4241 -7.46538 100
      vertex -1.49905 -7.8583 100
      vertex -1.00267 -7.93692 100
    endloop
  endfacet
  facet normal 0 0 1
    outer loop
      vertex -1.89004 -7.36123 100
      vertex -1.49905 -7.8583 100
      vertex -1.4241 -7.46538 100
    endloop
  endfacet
  facet normal 0 0 1
    outer loop
      vertex -1.89004 -7.36123 100
      vertex -1.98952 -7.74866 100
      vertex -1.49905 -7.8583 100
    endloop
  endfacet
  facet normal 0 0 1
    outer loop
      vertex -2.34853 -7.22803 100
      vertex -1.98952 -7.74866 100
      vertex -1.89004 -7.36123 100
    endloop
  endfacet
  facet normal 0 0 1
    outer loop
      vertex -2.34853 -7.22803 100
      vertex -2.47214 -7.60845 100
      vertex -1.98952 -7.74866 100
    endloop
  endfacet
  facet normal 0 0 1
    outer loop
      vertex -2.79775 -7.0663 100
      vertex -2.47214 -7.60845 100
      vertex -2.34853 -7.22803 100
    endloop
  endfacet
  facet normal 0 0 1
    outer loop
      vertex -2.79775 -7.0663 100
      vertex -2.945 -7.43821 100
      vertex -2.47214 -7.60845 100
    endloop
  endfacet
  facet normal 0 0 1
    outer loop
      vertex -3.23592 -6.87669 100
      vertex -2.945 -7.43821 100
      vertex -2.79775 -7.0663 100
    endloop
  endfacet
  facet normal 0 0 1
    outer loop
      vertex -3.23592 -6.87669 100
      vertex -3.40623 -7.23862 100
      vertex -2.945 -7.43821 100
    endloop
  endfacet
  facet normal 0 0 1
    outer loop
      vertex -3.66133 -6.65993 100
      vertex -3.40623 -7.23862 100
      vertex -3.23592 -6.87669 100
    endloop
  endfacet
  facet normal 0 0 1
    outer loop
      vertex -3.66133 -6.65993 100
      vertex -3.85403 -7.01045 100
      vertex -3.40623 -7.23862 100
    endloop
  endfacet
  facet normal 0 0 1
    outer loop
      vertex -4.07228 -6.41689 100
      vertex -3.85403 -7.01045 100
      vertex -3.66133 -6.65993 100
    endloop
  endfacet
  facet normal 0 0 1
    outer loop
      vertex -4.07228 -6.41689 100
      vertex -4.28661 -6.75462 100
      vertex -3.85403 -7.01045 100
    endloop
  endfacet
  facet normal 0 0 1
    outer loop
      vertex -4.46717 -6.14853 100
      vertex -4.28661 -6.75462 100
      vertex -4.07228 -6.41689 100
    endloop
  endfacet
  facet normal 0 0 1
    outer loop
      vertex -4.46717 -6.14853 100
      vertex -4.70228 -6.47214 100
      vertex -4.28661 -6.75462 100
    endloop
  endfacet
  facet normal 0 0 1
    outer loop
      vertex -4.84442 -5.8559 100
      vertex -4.70228 -6.47214 100
      vertex -4.46717 -6.14853 100
    endloop
  endfacet
  facet normal 0 0 1
    outer loop
      vertex -4.84442 -5.8559 100
      vertex -5.09939 -6.16411 100
      vertex -4.70228 -6.47214 100
    endloop
  endfacet
  facet normal 0 0 1
    outer loop
      vertex -5.20256 -5.54016 100
      vertex -5.09939 -6.16411 100
      vertex -4.84442 -5.8559 100
    endloop
  endfacet
  facet normal 0 0 1
    outer loop
      vertex -5.20256 -5.54016 100
      vertex -5.47638 -5.83175 100
      vertex -5.09939 -6.16411 100
    endloop
  endfacet
  facet normal 0 0 1
    outer loop
      vertex -5.54016 -5.20256 100
      vertex -5.47638 -5.83175 100
      vertex -5.20256 -5.54016 100
    endloop
  endfacet
  facet normal 0 0 1
    outer loop
      vertex -5.54016 -5.20256 100
      vertex -5.83175 -5.47638 100
      vertex -5.47638 -5.83175 100
    endloop
  endfacet
  facet normal 0 0 1
    outer loop
      vertex -5.8559 -4.84442 100
      vertex -5.83175 -5.47638 100
      vertex -5.54016 -5.20256 100
    endloop
  endfacet
  facet normal 0 0 1
    outer loop
      vertex -6.16411 -5.09939 100
      vertex -5.8559 -4.84442 100
      vertex -6.14853 -4.46717 100
    endloop
  endfacet
  facet normal 0 0 1
    outer loop
      vertex -5.8559 -4.84442 100
      vertex -6.16411 -5.09939 100
      vertex -5.83175 -5.47638 100
    endloop
  endfacet
  facet normal 0 0 1
    outer loop
      vertex -6.47214 -4.70228 100
      vertex -6.14853 -4.46717 100
      vertex -6.41689 -4.07228 100
    endloop
  endfacet
  facet normal 0 0 1
    outer loop
      vertex -6.14853 -4.46717 100
      vertex -6.47214 -4.70228 100
      vertex -6.16411 -5.09939 100
    endloop
  endfacet
  facet normal 0 0 1
    outer loop
      vertex -6.75462 -4.28661 100
      vertex -6.41689 -4.07228 100
      vertex -6.65993 -3.66133 100
    endloop
  endfacet
  facet normal 0 0 1
    outer loop
      vertex -6.41689 -4.07228 100
      vertex -6.75462 -4.28661 100
      vertex -6.47214 -4.70228 100
    endloop
  endfacet
  facet normal 0 0 1
    outer loop
      vertex -7.01045 -3.85403 100
      vertex -6.65993 -3.66133 100
      vertex -6.87669 -3.23592 100
    endloop
  endfacet
  facet normal 0 0 1
    outer loop
      vertex -6.65993 -3.66133 100
      vertex -7.01045 -3.85403 100
      vertex -6.75462 -4.28661 100
    endloop
  endfacet
  facet normal 0 0 1
    outer loop
      vertex -7.23862 -3.40623 100
      vertex -6.87669 -3.23592 100
      vertex -7.0663 -2.79775 100
    endloop
  endfacet
  facet normal 0 0 1
    outer loop
      vertex -7.43821 -2.945 100
      vertex -7.0663 -2.79775 100
      vertex -7.22803 -2.34853 100
    endloop
  endfacet
  facet normal 0 0 1
    outer loop
      vertex -6.87669 -3.23592 100
      vertex -7.23862 -3.40623 100
      vertex -7.01045 -3.85403 100
    endloop
  endfacet
  facet normal 0 0 1
    outer loop
      vertex -7.60845 -2.47214 100
      vertex -7.22803 -2.34853 100
      vertex -7.36123 -1.89004 100
    endloop
  endfacet
  facet normal 0 0 1
    outer loop
      vertex -7.0663 -2.79775 100
      vertex -7.43821 -2.945 100
      vertex -7.23862 -3.40623 100
    endloop
  endfacet
  facet normal 0 0 1
    outer loop
      vertex -7.74866 -1.98952 100
      vertex -7.36123 -1.89004 100
      vertex -7.46538 -1.4241 100
    endloop
  endfacet
  facet normal 0 0 1
    outer loop
      vertex -7.8583 -1.49905 100
      vertex -7.46538 -1.4241 100
      vertex -7.54007 -0.952532 100
    endloop
  endfacet
  facet normal 0 0 1
    outer loop
      vertex -7.93692 -1.00267 100
      vertex -7.54007 -0.952532 100
      vertex -7.585 -0.477207 100
    endloop
  endfacet
  facet normal 0 0 1
    outer loop
      vertex -7.22803 -2.34853 100
      vertex -7.60845 -2.47214 100
      vertex -7.43821 -2.945 100
    endloop
  endfacet
  facet normal 0 0 1
    outer loop
      vertex -7.98421 -0.502324 100
      vertex -7.585 -0.477207 100
      vertex -7.6 0 100
    endloop
  endfacet
  facet normal -0 0 1
    outer loop
      vertex -7.93692 1.00267 100
      vertex -7.54007 0.952532 100
      vertex -7.8583 1.49905 100
    endloop
  endfacet
  facet normal 0 0 1
    outer loop
      vertex -7.54007 0.952532 100
      vertex -7.93692 1.00267 100
      vertex -7.585 0.477207 100
    endloop
  endfacet
  facet normal 0 0 1
    outer loop
      vertex -7.36123 -1.89004 100
      vertex -7.74866 -1.98952 100
      vertex -7.60845 -2.47214 100
    endloop
  endfacet
  facet normal -0 0 1
    outer loop
      vertex -7.98421 0.502324 100
      vertex -7.585 0.477207 100
      vertex -7.93692 1.00267 100
    endloop
  endfacet
  facet normal 0 0 1
    outer loop
      vertex -7.46538 -1.4241 100
      vertex -7.8583 -1.49905 100
      vertex -7.74866 -1.98952 100
    endloop
  endfacet
  facet normal 0 0 1
    outer loop
      vertex -7.585 0.477207 100
      vertex -7.98421 0.502324 100
      vertex -7.6 0 100
    endloop
  endfacet
  facet normal 0 0 1
    outer loop
      vertex -7.54007 -0.952532 100
      vertex -7.93692 -1.00267 100
      vertex -7.8583 -1.49905 100
    endloop
  endfacet
  facet normal 0 0 1
    outer loop
      vertex -8 0 100
      vertex -7.6 0 100
      vertex -7.98421 0.502324 100
    endloop
  endfacet
  facet normal 0 0 1
    outer loop
      vertex -7.585 -0.477207 100
      vertex -7.98421 -0.502324 100
      vertex -7.93692 -1.00267 100
    endloop
  endfacet
  facet normal 0 0 1
    outer loop
      vertex -7.6 0 100
      vertex -8 0 100
      vertex -7.98421 -0.502324 100
    endloop
  endfacet
  facet normal -0.917756 0.397144 0
    outer loop
      vertex -7.43821 2.945 0
      vertex -7.23862 3.40623 100
      vertex -7.23862 3.40623 0
    endloop
  endfacet
  facet normal -0.917756 0.397144 0
    outer loop
      vertex -7.23862 3.40623 100
      vertex -7.43821 2.945 0
      vertex -7.43821 2.945 100
    endloop
  endfacet
  facet normal -0.940881 0.338738 0
    outer loop
      vertex -7.60845 2.47214 0
      vertex -7.43821 2.945 100
      vertex -7.43821 2.945 0
    endloop
  endfacet
  facet normal -0.940881 0.338738 0
    outer loop
      vertex -7.43821 2.945 100
      vertex -7.60845 2.47214 0
      vertex -7.60845 2.47214 100
    endloop
  endfacet
  facet normal -0.975914 0.218156 0
    outer loop
      vertex -7.8583 1.49905 0
      vertex -7.74866 1.98952 100
      vertex -7.74866 1.98952 0
    endloop
  endfacet
  facet normal -0.975914 0.218156 0
    outer loop
      vertex -7.74866 1.98952 100
      vertex -7.8583 1.49905 0
      vertex -7.8583 1.49905 100
    endloop
  endfacet
  facet normal -0.827089 0.562071 0
    outer loop
      vertex -6.75462 4.28661 0
      vertex -6.47214 4.70228 100
      vertex -6.47214 4.70228 0
    endloop
  endfacet
  facet normal -0.827089 0.562071 0
    outer loop
      vertex -6.47214 4.70228 100
      vertex -6.75462 4.28661 0
      vertex -6.75462 4.28661 100
    endloop
  endfacet
  facet normal -0.750112 0.66131 0
    outer loop
      vertex -6.16411 5.09939 0
      vertex -5.83175 5.47638 100
      vertex -5.83175 5.47638 0
    endloop
  endfacet
  facet normal -0.750112 0.66131 0
    outer loop
      vertex -5.83175 5.47638 100
      vertex -6.16411 5.09939 0
      vertex -6.16411 5.09939 100
    endloop
  endfacet
  facet normal -0.790155 0.612907 0
    outer loop
      vertex -6.47214 4.70228 0
      vertex -6.16411 5.09939 100
      vertex -6.16411 5.09939 0
    endloop
  endfacet
  facet normal -0.790155 0.612907 0
    outer loop
      vertex -6.16411 5.09939 100
      vertex -6.47214 4.70228 0
      vertex -6.47214 4.70228 100
    endloop
  endfacet
  facet normal -0.218156 0.975914 0
    outer loop
      vertex -1.49905 7.8583 0
      vertex -1.98952 7.74866 100
      vertex -1.49905 7.8583 100
    endloop
  endfacet
  facet normal -0.218156 0.975914 0
    outer loop
      vertex -1.98952 7.74866 100
      vertex -1.49905 7.8583 0
      vertex -1.98952 7.74866 0
    endloop
  endfacet
  facet normal -0.0314184 0.999506 0
    outer loop
      vertex 0 8 0
      vertex -0.502324 7.98421 100
      vertex 0 8 100
    endloop
  endfacet
  facet normal -0.0314184 0.999506 0
    outer loop
      vertex -0.502324 7.98421 100
      vertex 0 8 0
      vertex -0.502324 7.98421 0
    endloop
  endfacet
  facet normal -0.397144 0.917756 0
    outer loop
      vertex -2.945 7.43821 0
      vertex -3.40623 7.23862 100
      vertex -2.945 7.43821 100
    endloop
  endfacet
  facet normal -0.397144 0.917756 0
    outer loop
      vertex -3.40623 7.23862 100
      vertex -2.945 7.43821 0
      vertex -3.40623 7.23862 0
    endloop
  endfacet
  facet normal -0.66131 0.750112 0
    outer loop
      vertex -5.09939 6.16411 0
      vertex -5.47638 5.83175 100
      vertex -5.09939 6.16411 100
    endloop
  endfacet
  facet normal -0.66131 0.750112 0
    outer loop
      vertex -5.47638 5.83175 100
      vertex -5.09939 6.16411 0
      vertex -5.47638 5.83175 0
    endloop
  endfacet
  facet normal -0.612907 0.790155 0
    outer loop
      vertex -4.70228 6.47214 0
      vertex -5.09939 6.16411 100
      vertex -4.70228 6.47214 100
    endloop
  endfacet
  facet normal -0.612907 0.790155 0
    outer loop
      vertex -5.09939 6.16411 100
      vertex -4.70228 6.47214 0
      vertex -5.09939 6.16411 0
    endloop
  endfacet
  facet normal -0.397144 -0.917756 0
    outer loop
      vertex -3.40623 -7.23862 0
      vertex -2.945 -7.43821 100
      vertex -3.40623 -7.23862 100
    endloop
  endfacet
  facet normal -0.397144 -0.917756 -0
    outer loop
      vertex -2.945 -7.43821 100
      vertex -3.40623 -7.23862 0
      vertex -2.945 -7.43821 0
    endloop
  endfacet
  facet normal -0.218156 -0.975914 0
    outer loop
      vertex -1.98952 -7.74866 0
      vertex -1.49905 -7.8583 100
      vertex -1.98952 -7.74866 100
    endloop
  endfacet
  facet normal -0.218156 -0.975914 -0
    outer loop
      vertex -1.49905 -7.8583 100
      vertex -1.98952 -7.74866 0
      vertex -1.49905 -7.8583 0
    endloop
  endfacet
  facet normal -0.562071 -0.827089 0
    outer loop
      vertex -4.70228 -6.47214 0
      vertex -4.28661 -6.75462 100
      vertex -4.70228 -6.47214 100
    endloop
  endfacet
  facet normal -0.562071 -0.827089 -0
    outer loop
      vertex -4.28661 -6.75462 100
      vertex -4.70228 -6.47214 0
      vertex -4.28661 -6.75462 0
    endloop
  endfacet
  facet normal -0.66131 -0.750112 0
    outer loop
      vertex -5.47638 -5.83175 0
      vertex -5.09939 -6.16411 100
      vertex -5.47638 -5.83175 100
    endloop
  endfacet
  facet normal -0.66131 -0.750112 -0
    outer loop
      vertex -5.09939 -6.16411 100
      vertex -5.47638 -5.83175 0
      vertex -5.09939 -6.16411 0
    endloop
  endfacet
  facet normal -0.987688 -0.156437 0
    outer loop
      vertex -7.8583 -1.49905 0
      vertex -7.93692 -1.00267 100
      vertex -7.93692 -1.00267 0
    endloop
  endfacet
  facet normal -0.987688 -0.156437 0
    outer loop
      vertex -7.93692 -1.00267 100
      vertex -7.8583 -1.49905 0
      vertex -7.8583 -1.49905 100
    endloop
  endfacet
  facet normal -0.999506 -0.0314184 0
    outer loop
      vertex -7.98421 -0.502324 0
      vertex -8 0 100
      vertex -8 0 0
    endloop
  endfacet
  facet normal -0.999506 -0.0314184 0
    outer loop
      vertex -8 0 100
      vertex -7.98421 -0.502324 0
      vertex -7.98421 -0.502324 100
    endloop
  endfacet
  facet normal -0.940881 -0.338738 0
    outer loop
      vertex -7.43821 -2.945 0
      vertex -7.60845 -2.47214 100
      vertex -7.60845 -2.47214 0
    endloop
  endfacet
  facet normal -0.940881 -0.338738 0
    outer loop
      vertex -7.60845 -2.47214 100
      vertex -7.43821 -2.945 0
      vertex -7.43821 -2.945 100
    endloop
  endfacet
  facet normal -0.975914 -0.218156 0
    outer loop
      vertex -7.74866 -1.98952 0
      vertex -7.8583 -1.49905 100
      vertex -7.8583 -1.49905 0
    endloop
  endfacet
  facet normal -0.975914 -0.218156 0
    outer loop
      vertex -7.8583 -1.49905 100
      vertex -7.74866 -1.98952 0
      vertex -7.74866 -1.98952 100
    endloop
  endfacet
  facet normal -0.860739 -0.509046 0
    outer loop
      vertex -6.75462 -4.28661 0
      vertex -7.01045 -3.85403 100
      vertex -7.01045 -3.85403 0
    endloop
  endfacet
  facet normal -0.860739 -0.509046 0
    outer loop
      vertex -7.01045 -3.85403 100
      vertex -6.75462 -4.28661 0
      vertex -6.75462 -4.28661 100
    endloop
  endfacet
  facet normal -0.790155 -0.612907 0
    outer loop
      vertex -6.16411 -5.09939 0
      vertex -6.47214 -4.70228 100
      vertex -6.47214 -4.70228 0
    endloop
  endfacet
  facet normal -0.790155 -0.612907 0
    outer loop
      vertex -6.47214 -4.70228 100
      vertex -6.16411 -5.09939 0
      vertex -6.16411 -5.09939 100
    endloop
  endfacet
  facet normal -0.0314184 -0.999506 0
    outer loop
      vertex -0.502324 -7.98421 0
      vertex 0 -8 100
      vertex -0.502324 -7.98421 100
    endloop
  endfacet
  facet normal -0.0314184 -0.999506 -0
    outer loop
      vertex 0 -8 100
      vertex -0.502324 -7.98421 0
      vertex 0 -8 0
    endloop
  endfacet
  facet normal -0.338738 -0.940881 0
    outer loop
      vertex -2.945 -7.43821 0
      vertex -2.47214 -7.60845 100
      vertex -2.945 -7.43821 100
    endloop
  endfacet
  facet normal -0.338738 -0.940881 -0
    outer loop
      vertex -2.47214 -7.60845 100
      vertex -2.945 -7.43821 0
      vertex -2.47214 -7.60845 0
    endloop
  endfacet
  facet normal -0.156437 -0.987688 0
    outer loop
      vertex -1.49905 -7.8583 0
      vertex -1.00267 -7.93692 100
      vertex -1.49905 -7.8583 100
    endloop
  endfacet
  facet normal -0.156437 -0.987688 -0
    outer loop
      vertex -1.00267 -7.93692 100
      vertex -1.49905 -7.8583 0
      vertex -1.00267 -7.93692 0
    endloop
  endfacet
  facet normal -0.509046 -0.860739 0
    outer loop
      vertex -4.28661 -6.75462 0
      vertex -3.85403 -7.01045 100
      vertex -4.28661 -6.75462 100
    endloop
  endfacet
  facet normal -0.509046 -0.860739 -0
    outer loop
      vertex -3.85403 -7.01045 100
      vertex -4.28661 -6.75462 0
      vertex -3.85403 -7.01045 0
    endloop
  endfacet
  facet normal -0.612907 -0.790155 0
    outer loop
      vertex -5.09939 -6.16411 0
      vertex -4.70228 -6.47214 100
      vertex -5.09939 -6.16411 100
    endloop
  endfacet
  facet normal -0.612907 -0.790155 -0
    outer loop
      vertex -4.70228 -6.47214 100
      vertex -5.09939 -6.16411 0
      vertex -4.70228 -6.47214 0
    endloop
  endfacet
  facet normal -0.995563 -0.0940953 0
    outer loop
      vertex -7.93692 -1.00267 0
      vertex -7.98421 -0.502324 100
      vertex -7.98421 -0.502324 0
    endloop
  endfacet
  facet normal -0.995563 -0.0940953 0
    outer loop
      vertex -7.98421 -0.502324 100
      vertex -7.93692 -1.00267 0
      vertex -7.93692 -1.00267 100
    endloop
  endfacet
  facet normal -0.960296 -0.278984 0
    outer loop
      vertex -7.60845 -2.47214 0
      vertex -7.74866 -1.98952 100
      vertex -7.74866 -1.98952 0
    endloop
  endfacet
  facet normal -0.960296 -0.278984 0
    outer loop
      vertex -7.74866 -1.98952 100
      vertex -7.60845 -2.47214 0
      vertex -7.60845 -2.47214 100
    endloop
  endfacet
  facet normal -0.891003 -0.453998 0
    outer loop
      vertex -7.01045 -3.85403 0
      vertex -7.23862 -3.40623 100
      vertex -7.23862 -3.40623 0
    endloop
  endfacet
  facet normal -0.891003 -0.453998 0
    outer loop
      vertex -7.23862 -3.40623 100
      vertex -7.01045 -3.85403 0
      vertex -7.01045 -3.85403 100
    endloop
  endfacet
  facet normal -0.750112 -0.66131 0
    outer loop
      vertex -5.83175 -5.47638 0
      vertex -6.16411 -5.09939 100
      vertex -6.16411 -5.09939 0
    endloop
  endfacet
  facet normal -0.750112 -0.66131 0
    outer loop
      vertex -6.16411 -5.09939 100
      vertex -5.83175 -5.47638 0
      vertex -5.83175 -5.47638 100
    endloop
  endfacet
  facet normal 0.397142 -0.917757 0
    outer loop
      vertex -3.23592 6.87669 0
      vertex -2.79775 7.0663 100
      vertex -3.23592 6.87669 100
    endloop
  endfacet
  facet normal 0.397142 -0.917757 0
    outer loop
      vertex -2.79775 7.0663 100
      vertex -3.23592 6.87669 0
      vertex -2.79775 7.0663 0
    endloop
  endfacet
  facet normal 0.917757 -0.397142 0
    outer loop
      vertex -7.0663 2.79775 100
      vertex -6.87669 3.23592 0
      vertex -6.87669 3.23592 100
    endloop
  endfacet
  facet normal 0.917757 -0.397142 0
    outer loop
      vertex -6.87669 3.23592 0
      vertex -7.0663 2.79775 100
      vertex -7.0663 2.79775 0
    endloop
  endfacet
  facet normal 0.750114 -0.661308 0
    outer loop
      vertex -5.8559 4.84442 100
      vertex -5.54016 5.20256 0
      vertex -5.54016 5.20256 100
    endloop
  endfacet
  facet normal 0.750114 -0.661308 0
    outer loop
      vertex -5.54016 5.20256 0
      vertex -5.8559 4.84442 100
      vertex -5.8559 4.84442 0
    endloop
  endfacet
  facet normal 0.218143 -0.975917 0
    outer loop
      vertex -1.89004 7.36123 0
      vertex -1.4241 7.46538 100
      vertex -1.89004 7.36123 100
    endloop
  endfacet
  facet normal 0.218143 -0.975917 0
    outer loop
      vertex -1.4241 7.46538 100
      vertex -1.89004 7.36123 0
      vertex -1.4241 7.46538 0
    endloop
  endfacet
  facet normal 0.995562 -0.0941053 0
    outer loop
      vertex -7.585 0.477207 100
      vertex -7.54007 0.952532 0
      vertex -7.54007 0.952532 100
    endloop
  endfacet
  facet normal 0.995562 -0.0941053 0
    outer loop
      vertex -7.54007 0.952532 0
      vertex -7.585 0.477207 100
      vertex -7.585 0.477207 0
    endloop
  endfacet
  facet normal 0.94088 -0.338739 0
    outer loop
      vertex -7.22803 2.34853 100
      vertex -7.0663 2.79775 0
      vertex -7.0663 2.79775 100
    endloop
  endfacet
  facet normal 0.94088 -0.338739 0
    outer loop
      vertex -7.0663 2.79775 0
      vertex -7.22803 2.34853 100
      vertex -7.22803 2.34853 0
    endloop
  endfacet
  facet normal 0.975917 -0.218143 0
    outer loop
      vertex -7.46538 1.4241 100
      vertex -7.36123 1.89004 0
      vertex -7.36123 1.89004 100
    endloop
  endfacet
  facet normal 0.975917 -0.218143 0
    outer loop
      vertex -7.36123 1.89004 0
      vertex -7.46538 1.4241 100
      vertex -7.46538 1.4241 0
    endloop
  endfacet
  facet normal 0.827087 -0.562073 0
    outer loop
      vertex -6.41689 4.07228 100
      vertex -6.14853 4.46717 0
      vertex -6.14853 4.46717 100
    endloop
  endfacet
  facet normal 0.827087 -0.562073 0
    outer loop
      vertex -6.14853 4.46717 0
      vertex -6.41689 4.07228 100
      vertex -6.41689 4.07228 0
    endloop
  endfacet
  facet normal 0.278984 -0.960296 0
    outer loop
      vertex -2.34853 7.22803 0
      vertex -1.89004 7.36123 100
      vertex -2.34853 7.22803 100
    endloop
  endfacet
  facet normal 0.278984 -0.960296 0
    outer loop
      vertex -1.89004 7.36123 100
      vertex -2.34853 7.22803 0
      vertex -1.89004 7.36123 0
    endloop
  endfacet
  facet normal 0.0941053 -0.995562 0
    outer loop
      vertex -0.952532 7.54007 0
      vertex -0.477207 7.585 100
      vertex -0.952532 7.54007 100
    endloop
  endfacet
  facet normal 0.0941053 -0.995562 0
    outer loop
      vertex -0.477207 7.585 100
      vertex -0.952532 7.54007 0
      vertex -0.477207 7.585 0
    endloop
  endfacet
  facet normal 0.562073 -0.827087 0
    outer loop
      vertex -4.46717 6.14853 0
      vertex -4.07228 6.41689 100
      vertex -4.46717 6.14853 100
    endloop
  endfacet
  facet normal 0.562073 -0.827087 0
    outer loop
      vertex -4.07228 6.41689 100
      vertex -4.46717 6.14853 0
      vertex -4.07228 6.41689 0
    endloop
  endfacet
  facet normal 0.453995 -0.891004 0
    outer loop
      vertex -3.66133 6.65993 0
      vertex -3.23592 6.87669 100
      vertex -3.66133 6.65993 100
    endloop
  endfacet
  facet normal 0.453995 -0.891004 0
    outer loop
      vertex -3.23592 6.87669 100
      vertex -3.66133 6.65993 0
      vertex -3.23592 6.87669 0
    endloop
  endfacet
  facet normal 0.707107 -0.707107 0
    outer loop
      vertex -5.54016 5.20256 100
      vertex -5.20256 5.54016 0
      vertex -5.20256 5.54016 100
    endloop
  endfacet
  facet normal 0.707107 -0.707107 0
    outer loop
      vertex -5.20256 5.54016 0
      vertex -5.54016 5.20256 100
      vertex -5.54016 5.20256 0
    endloop
  endfacet
  facet normal 0.0314174 -0.999506 0
    outer loop
      vertex -0.477207 7.585 0
      vertex 0 7.6 100
      vertex -0.477207 7.585 100
    endloop
  endfacet
  facet normal 0.0314174 -0.999506 0
    outer loop
      vertex 0 7.6 100
      vertex -0.477207 7.585 0
      vertex 0 7.6 0
    endloop
  endfacet
  facet normal 0.999506 -0.0314174 0
    outer loop
      vertex -7.6 0 100
      vertex -7.585 0.477207 0
      vertex -7.585 0.477207 100
    endloop
  endfacet
  facet normal 0.999506 -0.0314174 0
    outer loop
      vertex -7.585 0.477207 0
      vertex -7.6 0 100
      vertex -7.6 0 0
    endloop
  endfacet
  facet normal 0.987688 -0.156436 0
    outer loop
      vertex -7.54007 0.952532 100
      vertex -7.46538 1.4241 0
      vertex -7.46538 1.4241 100
    endloop
  endfacet
  facet normal 0.987688 -0.156436 0
    outer loop
      vertex -7.46538 1.4241 0
      vertex -7.54007 0.952532 100
      vertex -7.54007 0.952532 0
    endloop
  endfacet
  facet normal 0.960296 -0.278984 0
    outer loop
      vertex -7.36123 1.89004 100
      vertex -7.22803 2.34853 0
      vertex -7.22803 2.34853 100
    endloop
  endfacet
  facet normal 0.960296 -0.278984 0
    outer loop
      vertex -7.22803 2.34853 0
      vertex -7.36123 1.89004 100
      vertex -7.36123 1.89004 0
    endloop
  endfacet
  facet normal 0.860738 -0.509049 0
    outer loop
      vertex -6.65993 3.66133 100
      vertex -6.41689 4.07228 0
      vertex -6.41689 4.07228 100
    endloop
  endfacet
  facet normal 0.860738 -0.509049 0
    outer loop
      vertex -6.41689 4.07228 0
      vertex -6.65993 3.66133 100
      vertex -6.65993 3.66133 0
    endloop
  endfacet
  facet normal 0.891004 -0.453995 0
    outer loop
      vertex -6.87669 3.23592 100
      vertex -6.65993 3.66133 0
      vertex -6.65993 3.66133 100
    endloop
  endfacet
  facet normal 0.891004 -0.453995 0
    outer loop
      vertex -6.65993 3.66133 0
      vertex -6.87669 3.23592 100
      vertex -6.87669 3.23592 0
    endloop
  endfacet
  facet normal 0.79015 -0.612913 0
    outer loop
      vertex -6.14853 4.46717 100
      vertex -5.8559 4.84442 0
      vertex -5.8559 4.84442 100
    endloop
  endfacet
  facet normal 0.79015 -0.612913 0
    outer loop
      vertex -5.8559 4.84442 0
      vertex -6.14853 4.46717 100
      vertex -6.14853 4.46717 0
    endloop
  endfacet
  facet normal 0.338739 -0.94088 0
    outer loop
      vertex -2.79775 7.0663 0
      vertex -2.34853 7.22803 100
      vertex -2.79775 7.0663 100
    endloop
  endfacet
  facet normal 0.338739 -0.94088 0
    outer loop
      vertex -2.34853 7.22803 100
      vertex -2.79775 7.0663 0
      vertex -2.34853 7.22803 0
    endloop
  endfacet
  facet normal 0.156436 -0.987688 0
    outer loop
      vertex -1.4241 7.46538 0
      vertex -0.952532 7.54007 100
      vertex -1.4241 7.46538 100
    endloop
  endfacet
  facet normal 0.156436 -0.987688 0
    outer loop
      vertex -0.952532 7.54007 100
      vertex -1.4241 7.46538 0
      vertex -0.952532 7.54007 0
    endloop
  endfacet
  facet normal 0.509049 -0.860738 0
    outer loop
      vertex -4.07228 6.41689 0
      vertex -3.66133 6.65993 100
      vertex -4.07228 6.41689 100
    endloop
  endfacet
  facet normal 0.509049 -0.860738 0
    outer loop
      vertex -3.66133 6.65993 100
      vertex -4.07228 6.41689 0
      vertex -3.66133 6.65993 0
    endloop
  endfacet
  facet normal 0.661308 -0.750114 0
    outer loop
      vertex -5.20256 5.54016 0
      vertex -4.84442 5.8559 100
      vertex -5.20256 5.54016 100
    endloop
  endfacet
  facet normal 0.661308 -0.750114 0
    outer loop
      vertex -4.84442 5.8559 100
      vertex -5.20256 5.54016 0
      vertex -4.84442 5.8559 0
    endloop
  endfacet
  facet normal 0.612913 -0.79015 0
    outer loop
      vertex -4.84442 5.8559 0
      vertex -4.46717 6.14853 100
      vertex -4.84442 5.8559 100
    endloop
  endfacet
  facet normal 0.612913 -0.79015 0
    outer loop
      vertex -4.46717 6.14853 100
      vertex -4.84442 5.8559 0
      vertex -4.46717 6.14853 0
    endloop
  endfacet
  facet normal 0.987688 0.156436 0
    outer loop
      vertex -7.46538 -1.4241 100
      vertex -7.54007 -0.952532 0
      vertex -7.54007 -0.952532 100
    endloop
  endfacet
  facet normal 0.987688 0.156436 0
    outer loop
      vertex -7.54007 -0.952532 0
      vertex -7.46538 -1.4241 100
      vertex -7.46538 -1.4241 0
    endloop
  endfacet
  facet normal 0.995562 0.0941053 0
    outer loop
      vertex -7.54007 -0.952532 100
      vertex -7.585 -0.477207 0
      vertex -7.585 -0.477207 100
    endloop
  endfacet
  facet normal 0.995562 0.0941053 0
    outer loop
      vertex -7.585 -0.477207 0
      vertex -7.54007 -0.952532 100
      vertex -7.54007 -0.952532 0
    endloop
  endfacet
  facet normal 0.827087 0.562073 0
    outer loop
      vertex -6.14853 -4.46717 100
      vertex -6.41689 -4.07228 0
      vertex -6.41689 -4.07228 100
    endloop
  endfacet
  facet normal 0.827087 0.562073 0
    outer loop
      vertex -6.41689 -4.07228 0
      vertex -6.14853 -4.46717 100
      vertex -6.14853 -4.46717 0
    endloop
  endfacet
  facet normal 0.397142 0.917757 -0
    outer loop
      vertex -2.79775 -7.0663 0
      vertex -3.23592 -6.87669 100
      vertex -2.79775 -7.0663 100
    endloop
  endfacet
  facet normal 0.397142 0.917757 0
    outer loop
      vertex -3.23592 -6.87669 100
      vertex -2.79775 -7.0663 0
      vertex -3.23592 -6.87669 0
    endloop
  endfacet
  facet normal 0.999506 0.0314174 0
    outer loop
      vertex -7.585 -0.477207 100
      vertex -7.6 0 0
      vertex -7.6 0 100
    endloop
  endfacet
  facet normal 0.999506 0.0314174 0
    outer loop
      vertex -7.6 0 0
      vertex -7.585 -0.477207 100
      vertex -7.585 -0.477207 0
    endloop
  endfacet
  facet normal 0.94088 0.338739 0
    outer loop
      vertex -7.0663 -2.79775 100
      vertex -7.22803 -2.34853 0
      vertex -7.22803 -2.34853 100
    endloop
  endfacet
  facet normal 0.94088 0.338739 0
    outer loop
      vertex -7.22803 -2.34853 0
      vertex -7.0663 -2.79775 100
      vertex -7.0663 -2.79775 0
    endloop
  endfacet
  facet normal 0.917757 0.397142 0
    outer loop
      vertex -6.87669 -3.23592 100
      vertex -7.0663 -2.79775 0
      vertex -7.0663 -2.79775 100
    endloop
  endfacet
  facet normal 0.917757 0.397142 0
    outer loop
      vertex -7.0663 -2.79775 0
      vertex -6.87669 -3.23592 100
      vertex -6.87669 -3.23592 0
    endloop
  endfacet
  facet normal 0.661308 0.750114 -0
    outer loop
      vertex -4.84442 -5.8559 0
      vertex -5.20256 -5.54016 100
      vertex -4.84442 -5.8559 100
    endloop
  endfacet
  facet normal 0.661308 0.750114 0
    outer loop
      vertex -5.20256 -5.54016 100
      vertex -4.84442 -5.8559 0
      vertex -5.20256 -5.54016 0
    endloop
  endfacet
  facet normal 0.562073 0.827087 -0
    outer loop
      vertex -4.07228 -6.41689 0
      vertex -4.46717 -6.14853 100
      vertex -4.07228 -6.41689 100
    endloop
  endfacet
  facet normal 0.562073 0.827087 0
    outer loop
      vertex -4.46717 -6.14853 100
      vertex -4.07228 -6.41689 0
      vertex -4.46717 -6.14853 0
    endloop
  endfacet
  facet normal 0.0941053 0.995562 -0
    outer loop
      vertex -0.477207 -7.585 0
      vertex -0.952532 -7.54007 100
      vertex -0.477207 -7.585 100
    endloop
  endfacet
  facet normal 0.0941053 0.995562 0
    outer loop
      vertex -0.952532 -7.54007 100
      vertex -0.477207 -7.585 0
      vertex -0.952532 -7.54007 0
    endloop
  endfacet
  facet normal 0.278984 0.960296 -0
    outer loop
      vertex -1.89004 -7.36123 0
      vertex -2.34853 -7.22803 100
      vertex -1.89004 -7.36123 100
    endloop
  endfacet
  facet normal 0.278984 0.960296 0
    outer loop
      vertex -2.34853 -7.22803 100
      vertex -1.89004 -7.36123 0
      vertex -2.34853 -7.22803 0
    endloop
  endfacet
  facet normal 0.218143 0.975917 -0
    outer loop
      vertex -1.4241 -7.46538 0
      vertex -1.89004 -7.36123 100
      vertex -1.4241 -7.46538 100
    endloop
  endfacet
  facet normal 0.218143 0.975917 0
    outer loop
      vertex -1.89004 -7.36123 100
      vertex -1.4241 -7.46538 0
      vertex -1.89004 -7.36123 0
    endloop
  endfacet
  facet normal 0.891004 0.453995 0
    outer loop
      vertex -6.65993 -3.66133 100
      vertex -6.87669 -3.23592 0
      vertex -6.87669 -3.23592 100
    endloop
  endfacet
  facet normal 0.891004 0.453995 0
    outer loop
      vertex -6.87669 -3.23592 0
      vertex -6.65993 -3.66133 100
      vertex -6.65993 -3.66133 0
    endloop
  endfacet
  facet normal 0.707107 0.707107 0
    outer loop
      vertex -5.20256 -5.54016 100
      vertex -5.54016 -5.20256 0
      vertex -5.54016 -5.20256 100
    endloop
  endfacet
  facet normal 0.707107 0.707107 0
    outer loop
      vertex -5.54016 -5.20256 0
      vertex -5.20256 -5.54016 100
      vertex -5.20256 -5.54016 0
    endloop
  endfacet
  facet normal 0.338739 0.94088 -0
    outer loop
      vertex -2.34853 -7.22803 0
      vertex -2.79775 -7.0663 100
      vertex -2.34853 -7.22803 100
    endloop
  endfacet
  facet normal 0.338739 0.94088 0
    outer loop
      vertex -2.79775 -7.0663 100
      vertex -2.34853 -7.22803 0
      vertex -2.79775 -7.0663 0
    endloop
  endfacet
  facet normal 0.509049 0.860738 -0
    outer loop
      vertex -3.66133 -6.65993 0
      vertex -4.07228 -6.41689 100
      vertex -3.66133 -6.65993 100
    endloop
  endfacet
  facet normal 0.509049 0.860738 0
    outer loop
      vertex -4.07228 -6.41689 100
      vertex -3.66133 -6.65993 0
      vertex -4.07228 -6.41689 0
    endloop
  endfacet
  facet normal 0.612913 0.79015 -0
    outer loop
      vertex -4.46717 -6.14853 0
      vertex -4.84442 -5.8559 100
      vertex -4.46717 -6.14853 100
    endloop
  endfacet
  facet normal 0.612913 0.79015 0
    outer loop
      vertex -4.84442 -5.8559 100
      vertex -4.46717 -6.14853 0
      vertex -4.84442 -5.8559 0
    endloop
  endfacet
  facet normal 0.156436 0.987688 -0
    outer loop
      vertex -0.952532 -7.54007 0
      vertex -1.4241 -7.46538 100
      vertex -0.952532 -7.54007 100
    endloop
  endfacet
  facet normal 0.156436 0.987688 0
    outer loop
      vertex -1.4241 -7.46538 100
      vertex -0.952532 -7.54007 0
      vertex -1.4241 -7.46538 0
    endloop
  endfacet
  facet normal 0.0314174 0.999506 -0
    outer loop
      vertex 0 -7.6 0
      vertex -0.477207 -7.585 100
      vertex 0 -7.6 100
    endloop
  endfacet
  facet normal 0.0314174 0.999506 0
    outer loop
      vertex -0.477207 -7.585 100
      vertex 0 -7.6 0
      vertex -0.477207 -7.585 0
    endloop
  endfacet
  facet normal 0.860738 0.509049 0
    outer loop
      vertex -6.41689 -4.07228 100
      vertex -6.65993 -3.66133 0
      vertex -6.65993 -3.66133 100
    endloop
  endfacet
  facet normal 0.860738 0.509049 0
    outer loop
      vertex -6.65993 -3.66133 0
      vertex -6.41689 -4.07228 100
      vertex -6.41689 -4.07228 0
    endloop
  endfacet
  facet normal 0.960296 0.278984 0
    outer loop
      vertex -7.22803 -2.34853 100
      vertex -7.36123 -1.89004 0
      vertex -7.36123 -1.89004 100
    endloop
  endfacet
  facet normal 0.960296 0.278984 0
    outer loop
      vertex -7.36123 -1.89004 0
      vertex -7.22803 -2.34853 100
      vertex -7.22803 -2.34853 0
    endloop
  endfacet
  facet normal 0.975917 0.218143 0
    outer loop
      vertex -7.36123 -1.89004 100
      vertex -7.46538 -1.4241 0
      vertex -7.46538 -1.4241 100
    endloop
  endfacet
  facet normal 0.975917 0.218143 0
    outer loop
      vertex -7.46538 -1.4241 0
      vertex -7.36123 -1.89004 100
      vertex -7.36123 -1.89004 0
    endloop
  endfacet
  facet normal 0.453995 0.891004 -0
    outer loop
      vertex -3.23592 -6.87669 0
      vertex -3.66133 -6.65993 100
      vertex -3.23592 -6.87669 100
    endloop
  endfacet
  facet normal 0.453995 0.891004 0
    outer loop
      vertex -3.66133 -6.65993 100
      vertex -3.23592 -6.87669 0
      vertex -3.66133 -6.65993 0
    endloop
  endfacet
  facet normal 0.750114 0.661308 0
    outer loop
      vertex -5.54016 -5.20256 100
      vertex -5.8559 -4.84442 0
      vertex -5.8559 -4.84442 100
    endloop
  endfacet
  facet normal 0.750114 0.661308 0
    outer loop
      vertex -5.8559 -4.84442 0
      vertex -5.54016 -5.20256 100
      vertex -5.54016 -5.20256 0
    endloop
  endfacet
  facet normal 0.79015 0.612913 0
    outer loop
      vertex -5.8559 -4.84442 100
      vertex -6.14853 -4.46717 0
      vertex -6.14853 -4.46717 100
    endloop
  endfacet
  facet normal 0.79015 0.612913 0
    outer loop
      vertex -6.14853 -4.46717 0
      vertex -5.8559 -4.84442 100
      vertex -5.8559 -4.84442 0
    endloop
  endfacet
  facet normal 1 -0 0
    outer loop
      vertex 0 7.6 100
      vertex 0 8 0
      vertex 0 8 100
    endloop
  endfacet
  facet normal 1 0 0
    outer loop
      vertex 0 8 0
      vertex 0 7.6 100
      vertex 0 7.6 0
    endloop
  endfacet
  facet normal 1 -0 0
    outer loop
      vertex 0 -8 100
      vertex 0 -7.6 0
      vertex 0 -7.6 100
    endloop
  endfacet
  facet normal 1 0 0
    outer loop
      vertex 0 -7.6 0
      vertex 0 -8 100
      vertex 0 -8 0
    endloop
  endfacet
endsolid OpenSCAD_Model
