solid OpenSCAD_Model
  facet normal 0.999506 0.0314375 0
    outer loop
      vertex 10.38 0 2
      vertex 10.3595 0.651765 0
      vertex 10.3595 0.651765 2
    endloop
  endfacet
  facet normal 0.999506 0.0314375 0
    outer loop
      vertex 10.3595 0.651765 0
      vertex 10.38 0 2
      vertex 10.38 0 0
    endloop
  endfacet
  facet normal -0.999506 0.0314375 0
    outer loop
      vertex -10.38 0 0
      vertex -10.3595 0.651765 60
      vertex -10.3595 0.651765 0
    endloop
  endfacet
  facet normal -0.999506 0.0314375 0
    outer loop
      vertex -10.3595 0.651765 60
      vertex -10.38 0 0
      vertex -10.38 0 60
    endloop
  endfacet
  facet normal -0.0314375 0.999506 0
    outer loop
      vertex 0 10.38 0
      vertex -0.651765 10.3595 2
      vertex 0 10.38 2
    endloop
  endfacet
  facet normal -0.0314375 0.999506 0
    outer loop
      vertex -0.651765 10.3595 2
      vertex 0 10.38 0
      vertex -0.651765 10.3595 0
    endloop
  endfacet
  facet normal 0.707107 0.707107 0
    outer loop
      vertex 7.56669 7.1056 2
      vertex 7.1056 7.56669 0
      vertex 7.1056 7.56669 2
    endloop
  endfacet
  facet normal 0.707107 0.707107 0
    outer loop
      vertex 7.1056 7.56669 0
      vertex 7.56669 7.1056 2
      vertex 7.56669 7.1056 0
    endloop
  endfacet
  facet normal -0.707107 0.707107 0
    outer loop
      vertex -7.56669 7.1056 0
      vertex -7.1056 7.56669 60
      vertex -7.1056 7.56669 0
    endloop
  endfacet
  facet normal -0.707107 0.707107 0
    outer loop
      vertex -7.1056 7.56669 60
      vertex -7.56669 7.1056 0
      vertex -7.56669 7.1056 60
    endloop
  endfacet
  facet normal -0.397131 0.917762 0
    outer loop
      vertex -3.82113 9.65108 2
      vertex -3.82113 9.65108 0
      vertex -4 9.57368 2
    endloop
  endfacet
  facet normal -0.397161 0.917749 0
    outer loop
      vertex -4 9.57368 2
      vertex -4.41959 9.3921 60
      vertex -4 9.57368 60
    endloop
  endfacet
  facet normal -0.397161 0.917749 0
    outer loop
      vertex -4 9.57368 2
      vertex -4.41959 9.3921 0
      vertex -4.41959 9.3921 60
    endloop
  endfacet
  facet normal -0.397152 0.917753 -2.26087e-06
    outer loop
      vertex -4.41959 9.3921 0
      vertex -4 9.57368 2
      vertex -3.82113 9.65108 0
    endloop
  endfacet
  facet normal 0.917753 0.397152 0
    outer loop
      vertex 9.65108 3.82113 2
      vertex 9.3921 4.41959 0
      vertex 9.3921 4.41959 2
    endloop
  endfacet
  facet normal 0.917753 0.397152 0
    outer loop
      vertex 9.3921 4.41959 0
      vertex 9.65108 3.82113 2
      vertex 9.65108 3.82113 0
    endloop
  endfacet
  facet normal 0.338746 0.940878 -0
    outer loop
      vertex 3.82113 9.65108 0
      vertex 3.2076 9.87197 2
      vertex 3.82113 9.65108 2
    endloop
  endfacet
  facet normal 0.338746 0.940878 0
    outer loop
      vertex 3.2076 9.87197 2
      vertex 3.82113 9.65108 0
      vertex 3.2076 9.87197 0
    endloop
  endfacet
  facet normal 0.509041 0.860742 -0
    outer loop
      vertex 5.56188 8.76412 0
      vertex 5.0006 9.09606 2
      vertex 5.56188 8.76412 2
    endloop
  endfacet
  facet normal 0.509041 0.860742 0
    outer loop
      vertex 5.0006 9.09606 2
      vertex 5.56188 8.76412 0
      vertex 5.0006 9.09606 0
    endloop
  endfacet
  facet normal -0.917753 0.397152 0
    outer loop
      vertex -9.65108 3.82113 0
      vertex -9.3921 4.41959 60
      vertex -9.3921 4.41959 0
    endloop
  endfacet
  facet normal -0.917753 0.397152 0
    outer loop
      vertex -9.3921 4.41959 60
      vertex -9.65108 3.82113 0
      vertex -9.65108 3.82113 60
    endloop
  endfacet
  facet normal -0.218073 0.975932 0
    outer loop
      vertex -1.94502 10.1961 0
      vertex -2.5814 10.0539 2
      vertex -1.94502 10.1961 2
    endloop
  endfacet
  facet normal -0.218073 0.975932 0
    outer loop
      vertex -2.5814 10.0539 2
      vertex -1.94502 10.1961 0
      vertex -2.5814 10.0539 0
    endloop
  endfacet
  facet normal 0.975932 0.218073 0
    outer loop
      vertex 10.1961 1.94502 2
      vertex 10.0539 2.5814 0
      vertex 10.0539 2.5814 2
    endloop
  endfacet
  facet normal 0.975932 0.218073 0
    outer loop
      vertex 10.0539 2.5814 0
      vertex 10.1961 1.94502 2
      vertex 10.1961 1.94502 0
    endloop
  endfacet
  facet normal 0.960293 0.278994 0
    outer loop
      vertex 10.0539 2.5814 2
      vertex 9.87197 3.2076 0
      vertex 9.87197 3.2076 2
    endloop
  endfacet
  facet normal 0.960293 0.278994 0
    outer loop
      vertex 9.87197 3.2076 0
      vertex 10.0539 2.5814 2
      vertex 10.0539 2.5814 0
    endloop
  endfacet
  facet normal 0.827086 0.562075 0
    outer loop
      vertex 8.76412 5.56188 2
      vertex 8.3976 6.10121 0
      vertex 8.3976 6.10121 2
    endloop
  endfacet
  facet normal 0.827086 0.562075 0
    outer loop
      vertex 8.3976 6.10121 0
      vertex 8.76412 5.56188 2
      vertex 8.76412 5.56188 0
    endloop
  endfacet
  facet normal 0.891006 0.453991 0
    outer loop
      vertex 9.3921 4.41959 2
      vertex 9.09606 5.0006 0
      vertex 9.09606 5.0006 2
    endloop
  endfacet
  facet normal 0.891006 0.453991 0
    outer loop
      vertex 9.09606 5.0006 0
      vertex 9.3921 4.41959 2
      vertex 9.3921 4.41959 0
    endloop
  endfacet
  facet normal 0.15657 0.987667 -0
    outer loop
      vertex 1.94502 10.1961 0
      vertex 1.30096 10.2982 2
      vertex 1.94502 10.1961 2
    endloop
  endfacet
  facet normal 0.15657 0.987667 0
    outer loop
      vertex 1.30096 10.2982 2
      vertex 1.94502 10.1961 0
      vertex 1.30096 10.2982 0
    endloop
  endfacet
  facet normal 0.278994 0.960293 -0
    outer loop
      vertex 3.2076 9.87197 0
      vertex 2.5814 10.0539 2
      vertex 3.2076 9.87197 2
    endloop
  endfacet
  facet normal 0.278994 0.960293 0
    outer loop
      vertex 2.5814 10.0539 2
      vertex 3.2076 9.87197 0
      vertex 2.5814 10.0539 0
    endloop
  endfacet
  facet normal 0.0940065 0.995572 -0
    outer loop
      vertex 1.30096 10.2982 0
      vertex 0.651765 10.3595 2
      vertex 1.30096 10.2982 2
    endloop
  endfacet
  facet normal 0.0940065 0.995572 0
    outer loop
      vertex 0.651765 10.3595 2
      vertex 1.30096 10.2982 0
      vertex 0.651765 10.3595 0
    endloop
  endfacet
  facet normal 0.453991 0.891006 -0
    outer loop
      vertex 5.0006 9.09606 0
      vertex 4.41959 9.3921 2
      vertex 5.0006 9.09606 2
    endloop
  endfacet
  facet normal 0.453991 0.891006 0
    outer loop
      vertex 4.41959 9.3921 2
      vertex 5.0006 9.09606 0
      vertex 4.41959 9.3921 0
    endloop
  endfacet
  facet normal 0.612908 0.790154 -0
    outer loop
      vertex 6.61646 7.99793 0
      vertex 6.10121 8.3976 2
      vertex 6.61646 7.99793 2
    endloop
  endfacet
  facet normal 0.612908 0.790154 0
    outer loop
      vertex 6.10121 8.3976 2
      vertex 6.61646 7.99793 0
      vertex 6.10121 8.3976 0
    endloop
  endfacet
  facet normal -0.975932 0.218073 0
    outer loop
      vertex -10.1961 1.94502 0
      vertex -10.0539 2.5814 60
      vertex -10.0539 2.5814 0
    endloop
  endfacet
  facet normal -0.975932 0.218073 0
    outer loop
      vertex -10.0539 2.5814 60
      vertex -10.1961 1.94502 0
      vertex -10.1961 1.94502 60
    endloop
  endfacet
  facet normal -0.827086 0.562075 0
    outer loop
      vertex -8.76412 5.56188 0
      vertex -8.3976 6.10121 60
      vertex -8.3976 6.10121 0
    endloop
  endfacet
  facet normal -0.827086 0.562075 0
    outer loop
      vertex -8.3976 6.10121 60
      vertex -8.76412 5.56188 0
      vertex -8.76412 5.56188 60
    endloop
  endfacet
  facet normal -0.960293 0.278994 0
    outer loop
      vertex -10.0539 2.5814 0
      vertex -9.87197 3.2076 60
      vertex -9.87197 3.2076 0
    endloop
  endfacet
  facet normal -0.960293 0.278994 0
    outer loop
      vertex -9.87197 3.2076 60
      vertex -10.0539 2.5814 0
      vertex -10.0539 2.5814 60
    endloop
  endfacet
  facet normal -0.995572 0.0940065 0
    outer loop
      vertex -10.3595 0.651765 0
      vertex -10.2982 1.30096 60
      vertex -10.2982 1.30096 0
    endloop
  endfacet
  facet normal -0.995572 0.0940065 0
    outer loop
      vertex -10.2982 1.30096 60
      vertex -10.3595 0.651765 0
      vertex -10.3595 0.651765 60
    endloop
  endfacet
  facet normal -0.509041 0.860742 0
    outer loop
      vertex -5.0006 9.09606 0
      vertex -5.56188 8.76412 60
      vertex -5.0006 9.09606 60
    endloop
  endfacet
  facet normal -0.509041 0.860742 0
    outer loop
      vertex -5.56188 8.76412 60
      vertex -5.0006 9.09606 0
      vertex -5.56188 8.76412 0
    endloop
  endfacet
  facet normal -0.453991 0.891006 0
    outer loop
      vertex -4.41959 9.3921 0
      vertex -5.0006 9.09606 60
      vertex -4.41959 9.3921 60
    endloop
  endfacet
  facet normal -0.453991 0.891006 0
    outer loop
      vertex -5.0006 9.09606 60
      vertex -4.41959 9.3921 0
      vertex -5.0006 9.09606 0
    endloop
  endfacet
  facet normal -0.661316 0.750107 0
    outer loop
      vertex -6.61646 7.99793 0
      vertex -7.1056 7.56669 60
      vertex -6.61646 7.99793 60
    endloop
  endfacet
  facet normal -0.661316 0.750107 0
    outer loop
      vertex -7.1056 7.56669 60
      vertex -6.61646 7.99793 0
      vertex -7.1056 7.56669 0
    endloop
  endfacet
  facet normal -0.278994 0.960293 0
    outer loop
      vertex -2.5814 10.0539 0
      vertex -3.2076 9.87197 2
      vertex -2.5814 10.0539 2
    endloop
  endfacet
  facet normal -0.278994 0.960293 0
    outer loop
      vertex -3.2076 9.87197 2
      vertex -2.5814 10.0539 0
      vertex -3.2076 9.87197 0
    endloop
  endfacet
  facet normal -0.0940065 0.995572 0
    outer loop
      vertex -0.651765 10.3595 0
      vertex -1.30096 10.2982 2
      vertex -0.651765 10.3595 2
    endloop
  endfacet
  facet normal -0.0940065 0.995572 0
    outer loop
      vertex -1.30096 10.2982 2
      vertex -0.651765 10.3595 0
      vertex -1.30096 10.2982 0
    endloop
  endfacet
  facet normal 0.827086 -0.562075 0
    outer loop
      vertex 8.3976 -6.10121 60
      vertex 8.76412 -5.56188 0
      vertex 8.76412 -5.56188 60
    endloop
  endfacet
  facet normal 0.827086 -0.562075 0
    outer loop
      vertex 8.76412 -5.56188 0
      vertex 8.3976 -6.10121 60
      vertex 8.3976 -6.10121 0
    endloop
  endfacet
  facet normal -0.975932 -0.218073 0
    outer loop
      vertex -10.0539 -2.5814 0
      vertex -10.1961 -1.94502 60
      vertex -10.1961 -1.94502 0
    endloop
  endfacet
  facet normal -0.975932 -0.218073 0
    outer loop
      vertex -10.1961 -1.94502 60
      vertex -10.0539 -2.5814 0
      vertex -10.0539 -2.5814 60
    endloop
  endfacet
  facet normal 0.0940065 -0.995572 0
    outer loop
      vertex 0.651765 -10.3595 0
      vertex 1.30096 -10.2982 60
      vertex 0.651765 -10.3595 60
    endloop
  endfacet
  facet normal 0.0940065 -0.995572 0
    outer loop
      vertex 1.30096 -10.2982 60
      vertex 0.651765 -10.3595 0
      vertex 1.30096 -10.2982 0
    endloop
  endfacet
  facet normal 0.397152 -0.917753 0
    outer loop
      vertex 3.82113 -9.65108 0
      vertex 4.41959 -9.3921 60
      vertex 3.82113 -9.65108 60
    endloop
  endfacet
  facet normal 0.397152 -0.917753 0
    outer loop
      vertex 4.41959 -9.3921 60
      vertex 3.82113 -9.65108 0
      vertex 4.41959 -9.3921 0
    endloop
  endfacet
  facet normal 0.15657 -0.987667 0
    outer loop
      vertex 1.30096 -10.2982 0
      vertex 1.94502 -10.1961 60
      vertex 1.30096 -10.2982 60
    endloop
  endfacet
  facet normal 0.15657 -0.987667 0
    outer loop
      vertex 1.94502 -10.1961 60
      vertex 1.30096 -10.2982 0
      vertex 1.94502 -10.1961 0
    endloop
  endfacet
  facet normal 0.987667 0.15657 0
    outer loop
      vertex 10.2982 1.30096 2
      vertex 10.1961 1.94502 0
      vertex 10.1961 1.94502 2
    endloop
  endfacet
  facet normal 0.987667 0.15657 0
    outer loop
      vertex 10.1961 1.94502 0
      vertex 10.2982 1.30096 2
      vertex 10.2982 1.30096 0
    endloop
  endfacet
  facet normal 0.995572 0.0940065 0
    outer loop
      vertex 10.3595 0.651765 2
      vertex 10.2982 1.30096 0
      vertex 10.2982 1.30096 2
    endloop
  endfacet
  facet normal 0.995572 0.0940065 0
    outer loop
      vertex 10.2982 1.30096 0
      vertex 10.3595 0.651765 2
      vertex 10.3595 0.651765 0
    endloop
  endfacet
  facet normal 0.940878 0.338746 0
    outer loop
      vertex 9.87197 3.2076 2
      vertex 9.65108 3.82113 0
      vertex 9.65108 3.82113 2
    endloop
  endfacet
  facet normal 0.940878 0.338746 0
    outer loop
      vertex 9.65108 3.82113 0
      vertex 9.87197 3.2076 2
      vertex 9.87197 3.2076 0
    endloop
  endfacet
  facet normal 0.790154 0.612908 0
    outer loop
      vertex 8.3976 6.10121 2
      vertex 7.99793 6.61646 0
      vertex 7.99793 6.61646 2
    endloop
  endfacet
  facet normal 0.790154 0.612908 0
    outer loop
      vertex 7.99793 6.61646 0
      vertex 8.3976 6.10121 2
      vertex 8.3976 6.10121 0
    endloop
  endfacet
  facet normal 0.750107 0.661316 0
    outer loop
      vertex 7.99793 6.61646 2
      vertex 7.56669 7.1056 0
      vertex 7.56669 7.1056 2
    endloop
  endfacet
  facet normal 0.750107 0.661316 0
    outer loop
      vertex 7.56669 7.1056 0
      vertex 7.99793 6.61646 2
      vertex 7.99793 6.61646 0
    endloop
  endfacet
  facet normal 0.860742 0.509041 0
    outer loop
      vertex 9.09606 5.0006 2
      vertex 8.76412 5.56188 0
      vertex 8.76412 5.56188 2
    endloop
  endfacet
  facet normal 0.860742 0.509041 0
    outer loop
      vertex 8.76412 5.56188 0
      vertex 9.09606 5.0006 2
      vertex 9.09606 5.0006 0
    endloop
  endfacet
  facet normal 0.218073 0.975932 -0
    outer loop
      vertex 2.5814 10.0539 0
      vertex 1.94502 10.1961 2
      vertex 2.5814 10.0539 2
    endloop
  endfacet
  facet normal 0.218073 0.975932 0
    outer loop
      vertex 1.94502 10.1961 2
      vertex 2.5814 10.0539 0
      vertex 1.94502 10.1961 0
    endloop
  endfacet
  facet normal 0.0314375 0.999506 -0
    outer loop
      vertex 0.651765 10.3595 0
      vertex 0 10.38 2
      vertex 0.651765 10.3595 2
    endloop
  endfacet
  facet normal 0.0314375 0.999506 0
    outer loop
      vertex 0 10.38 2
      vertex 0.651765 10.3595 0
      vertex 0 10.38 0
    endloop
  endfacet
  facet normal 0.397152 0.917753 -0
    outer loop
      vertex 4.41959 9.3921 0
      vertex 3.82113 9.65108 2
      vertex 4.41959 9.3921 2
    endloop
  endfacet
  facet normal 0.397152 0.917753 0
    outer loop
      vertex 3.82113 9.65108 2
      vertex 4.41959 9.3921 0
      vertex 3.82113 9.65108 0
    endloop
  endfacet
  facet normal 0.562075 0.827086 -0
    outer loop
      vertex 6.10121 8.3976 0
      vertex 5.56188 8.76412 2
      vertex 6.10121 8.3976 2
    endloop
  endfacet
  facet normal 0.562075 0.827086 0
    outer loop
      vertex 5.56188 8.76412 2
      vertex 6.10121 8.3976 0
      vertex 5.56188 8.76412 0
    endloop
  endfacet
  facet normal 0.661316 0.750107 -0
    outer loop
      vertex 7.1056 7.56669 0
      vertex 6.61646 7.99793 2
      vertex 7.1056 7.56669 2
    endloop
  endfacet
  facet normal 0.661316 0.750107 0
    outer loop
      vertex 6.61646 7.99793 2
      vertex 7.1056 7.56669 0
      vertex 6.61646 7.99793 0
    endloop
  endfacet
  facet normal -0.790154 0.612908 0
    outer loop
      vertex -8.3976 6.10121 0
      vertex -7.99793 6.61646 60
      vertex -7.99793 6.61646 0
    endloop
  endfacet
  facet normal -0.790154 0.612908 0
    outer loop
      vertex -7.99793 6.61646 60
      vertex -8.3976 6.10121 0
      vertex -8.3976 6.10121 60
    endloop
  endfacet
  facet normal -0.750107 0.661316 0
    outer loop
      vertex -7.99793 6.61646 0
      vertex -7.56669 7.1056 60
      vertex -7.56669 7.1056 0
    endloop
  endfacet
  facet normal -0.750107 0.661316 0
    outer loop
      vertex -7.56669 7.1056 60
      vertex -7.99793 6.61646 0
      vertex -7.99793 6.61646 60
    endloop
  endfacet
  facet normal -0.860742 0.509041 0
    outer loop
      vertex -9.09606 5.0006 0
      vertex -8.76412 5.56188 60
      vertex -8.76412 5.56188 0
    endloop
  endfacet
  facet normal -0.860742 0.509041 0
    outer loop
      vertex -8.76412 5.56188 60
      vertex -9.09606 5.0006 0
      vertex -9.09606 5.0006 60
    endloop
  endfacet
  facet normal -0.891006 0.453991 0
    outer loop
      vertex -9.3921 4.41959 0
      vertex -9.09606 5.0006 60
      vertex -9.09606 5.0006 0
    endloop
  endfacet
  facet normal -0.891006 0.453991 0
    outer loop
      vertex -9.09606 5.0006 60
      vertex -9.3921 4.41959 0
      vertex -9.3921 4.41959 60
    endloop
  endfacet
  facet normal 0 0 1
    outer loop
      vertex 2.5814 10.0539 2
      vertex 3 4 2
      vertex 3.2076 9.87197 2
    endloop
  endfacet
  facet normal 0 0 1
    outer loop
      vertex 1.94502 10.1961 2
      vertex 3 4 2
      vertex 2.5814 10.0539 2
    endloop
  endfacet
  facet normal 0 0 1
    outer loop
      vertex 1.30096 10.2982 2
      vertex 3 4 2
      vertex 1.94502 10.1961 2
    endloop
  endfacet
  facet normal 0 0 1
    outer loop
      vertex 0.651765 10.3595 2
      vertex 3 4 2
      vertex 1.30096 10.2982 2
    endloop
  endfacet
  facet normal 0 0 1
    outer loop
      vertex 0 10.38 2
      vertex 3 4 2
      vertex 0.651765 10.3595 2
    endloop
  endfacet
  facet normal -0 0 1
    outer loop
      vertex -0.651765 10.3595 2
      vertex 3 4 2
      vertex 0 10.38 2
    endloop
  endfacet
  facet normal 0 0 1
    outer loop
      vertex -4 4 2
      vertex -0.651765 10.3595 2
      vertex -1.30096 10.2982 2
    endloop
  endfacet
  facet normal 0 0 1
    outer loop
      vertex -4 4 2
      vertex -1.30096 10.2982 2
      vertex -1.94502 10.1961 2
    endloop
  endfacet
  facet normal 0 0 1
    outer loop
      vertex -4 4 2
      vertex -1.94502 10.1961 2
      vertex -2.5814 10.0539 2
    endloop
  endfacet
  facet normal 0 0 1
    outer loop
      vertex -4 4 2
      vertex -2.5814 10.0539 2
      vertex -3.2076 9.87197 2
    endloop
  endfacet
  facet normal 0 0 1
    outer loop
      vertex -4 4 2
      vertex -3.2076 9.87197 2
      vertex -3.82113 9.65108 2
    endloop
  endfacet
  facet normal 0 0 1
    outer loop
      vertex -4 4 2
      vertex -3.82113 9.65108 2
      vertex -4 9.57368 2
    endloop
  endfacet
  facet normal 0 0 1
    outer loop
      vertex -0.651765 10.3595 2
      vertex -4 4 2
      vertex 3 4 2
    endloop
  endfacet
  facet normal 0 0 1
    outer loop
      vertex 3 -3 2
      vertex 10.38 0 2
      vertex 10.3595 0.651765 2
    endloop
  endfacet
  facet normal 0 0 1
    outer loop
      vertex 3 4 2
      vertex 10.3595 0.651765 2
      vertex 10.2982 1.30096 2
    endloop
  endfacet
  facet normal 0 0 1
    outer loop
      vertex 10.38 0 2
      vertex 3 -3 2
      vertex 10.3595 -0.651765 2
    endloop
  endfacet
  facet normal 0 0 1
    outer loop
      vertex 3 4 2
      vertex 10.2982 1.30096 2
      vertex 10.1961 1.94502 2
    endloop
  endfacet
  facet normal 0 0 1
    outer loop
      vertex 10.3595 -0.651765 2
      vertex 3 -3 2
      vertex 10.2982 -1.30096 2
    endloop
  endfacet
  facet normal 0 0 1
    outer loop
      vertex 3 4 2
      vertex 10.1961 1.94502 2
      vertex 10.0539 2.5814 2
    endloop
  endfacet
  facet normal 0 0 1
    outer loop
      vertex 10.2982 -1.30096 2
      vertex 3 -3 2
      vertex 10.1961 -1.94502 2
    endloop
  endfacet
  facet normal 0 0 1
    outer loop
      vertex 3 4 2
      vertex 10.0539 2.5814 2
      vertex 9.87197 3.2076 2
    endloop
  endfacet
  facet normal 0 0 1
    outer loop
      vertex 10.1961 -1.94502 2
      vertex 3 -3 2
      vertex 10.0539 -2.5814 2
    endloop
  endfacet
  facet normal 0 0 1
    outer loop
      vertex 3 4 2
      vertex 9.87197 3.2076 2
      vertex 9.65108 3.82113 2
    endloop
  endfacet
  facet normal 0 -0 1
    outer loop
      vertex 7.66393 -5 2
      vertex 10.0539 -2.5814 2
      vertex 3 -3 2
    endloop
  endfacet
  facet normal -0 0 1
    outer loop
      vertex 3 4 2
      vertex 9.65108 3.82113 2
      vertex 9.3921 4.41959 2
    endloop
  endfacet
  facet normal 0 0 1
    outer loop
      vertex 10.0539 -2.5814 2
      vertex 7.66393 -5 2
      vertex 9.87197 -3.2076 2
    endloop
  endfacet
  facet normal 0 0 1
    outer loop
      vertex 9.87197 -3.2076 2
      vertex 7.66393 -5 2
      vertex 9.65108 -3.82113 2
    endloop
  endfacet
  facet normal 0 0 1
    outer loop
      vertex 3 4 2
      vertex 9.3921 4.41959 2
      vertex 9.09606 5.0006 2
    endloop
  endfacet
  facet normal 0 0 1
    outer loop
      vertex 3 4 2
      vertex 9.09606 5.0006 2
      vertex 8.76412 5.56188 2
    endloop
  endfacet
  facet normal 0 0 1
    outer loop
      vertex 3 4 2
      vertex 8.76412 5.56188 2
      vertex 8.3976 6.10121 2
    endloop
  endfacet
  facet normal 0 0 1
    outer loop
      vertex 3 4 2
      vertex 8.3976 6.10121 2
      vertex 7.99793 6.61646 2
    endloop
  endfacet
  facet normal 0 0 1
    outer loop
      vertex 9.3921 -4.41959 2
      vertex 7.66393 -5 2
      vertex 9.09637 -5 2
    endloop
  endfacet
  facet normal 0 0 1
    outer loop
      vertex 10.3595 0.651765 2
      vertex 3 4 2
      vertex 3 -3 2
    endloop
  endfacet
  facet normal 0 0 1
    outer loop
      vertex 3 4 2
      vertex 7.99793 6.61646 2
      vertex 7.56669 7.1056 2
    endloop
  endfacet
  facet normal 0 0 1
    outer loop
      vertex 9.65108 -3.82113 2
      vertex 7.66393 -5 2
      vertex 9.3921 -4.41959 2
    endloop
  endfacet
  facet normal 0 0 1
    outer loop
      vertex 7.66393 -5 2
      vertex 3 -3 2
      vertex 7.61931 -5.10312 2
    endloop
  endfacet
  facet normal 0 0 1
    outer loop
      vertex 7.61931 -5.10312 2
      vertex 3 -3 2
      vertex 7.50523 -5.32701 2
    endloop
  endfacet
  facet normal 0 0 1
    outer loop
      vertex 3 4 2
      vertex 7.56669 7.1056 2
      vertex 7.1056 7.56669 2
    endloop
  endfacet
  facet normal 0 0 1
    outer loop
      vertex 7.50523 -5.32701 2
      vertex 3 -3 2
      vertex 7.37731 -5.54331 2
    endloop
  endfacet
  facet normal 0 0 1
    outer loop
      vertex 7.37731 -5.54331 2
      vertex 3 -3 2
      vertex 7.23607 -5.75114 2
    endloop
  endfacet
  facet normal 0 0 1
    outer loop
      vertex 7.23607 -5.75114 2
      vertex 3 -3 2
      vertex 7.08205 -5.94969 2
    endloop
  endfacet
  facet normal 0 0 1
    outer loop
      vertex 3 4 2
      vertex 7.1056 7.56669 2
      vertex 6.61646 7.99793 2
    endloop
  endfacet
  facet normal 0 0 1
    outer loop
      vertex 7.08205 -5.94969 2
      vertex 3 -3 2
      vertex 6.91587 -6.13819 2
    endloop
  endfacet
  facet normal 0 0 1
    outer loop
      vertex 6.91587 -6.13819 2
      vertex 3 -3 2
      vertex 6.73819 -6.31587 2
    endloop
  endfacet
  facet normal 0 0 1
    outer loop
      vertex 6.73819 -6.31587 2
      vertex 3 -3 2
      vertex 6.5497 -6.48205 2
    endloop
  endfacet
  facet normal 0 0 1
    outer loop
      vertex 3 4 2
      vertex 6.61646 7.99793 2
      vertex 6.10121 8.3976 2
    endloop
  endfacet
  facet normal 0 0 1
    outer loop
      vertex 6.5497 -6.48205 2
      vertex 3 -3 2
      vertex 6.35114 -6.63607 2
    endloop
  endfacet
  facet normal 0 0 1
    outer loop
      vertex 6.35114 -6.63607 2
      vertex 3 -3 2
      vertex 6.14331 -6.77731 2
    endloop
  endfacet
  facet normal 0 0 1
    outer loop
      vertex 3 4 2
      vertex 6.10121 8.3976 2
      vertex 5.56188 8.76412 2
    endloop
  endfacet
  facet normal 0 0 1
    outer loop
      vertex 6.14331 -6.77731 2
      vertex 3 -3 2
      vertex 5.92701 -6.90523 2
    endloop
  endfacet
  facet normal 0 0 1
    outer loop
      vertex 5.92701 -6.90523 2
      vertex 3 -3 2
      vertex 5.70312 -7.01931 2
    endloop
  endfacet
  facet normal 0 0 1
    outer loop
      vertex 3 4 2
      vertex 5.56188 8.76412 2
      vertex 5.0006 9.09606 2
    endloop
  endfacet
  facet normal 0 0 1
    outer loop
      vertex 5.70312 -7.01931 2
      vertex 3 -3 2
      vertex 5.4725 -7.11911 2
    endloop
  endfacet
  facet normal 0 0 1
    outer loop
      vertex 5.4725 -7.11911 2
      vertex 3 -3 2
      vertex 5.23607 -7.20423 2
    endloop
  endfacet
  facet normal 0 0 1
    outer loop
      vertex 5.23607 -7.20423 2
      vertex 3 -3 2
      vertex 4.99476 -7.27433 2
    endloop
  endfacet
  facet normal 0 0 1
    outer loop
      vertex 3 4 2
      vertex 5.0006 9.09606 2
      vertex 4.41959 9.3921 2
    endloop
  endfacet
  facet normal 0 0 1
    outer loop
      vertex 4.99476 -7.27433 2
      vertex 3 -3 2
      vertex 4.74953 -7.32915 2
    endloop
  endfacet
  facet normal 0 0 1
    outer loop
      vertex 4.74953 -7.32915 2
      vertex 3 -3 2
      vertex 4.50133 -7.36846 2
    endloop
  endfacet
  facet normal 0 0 1
    outer loop
      vertex 3 4 2
      vertex 4.41959 9.3921 2
      vertex 3.82113 9.65108 2
    endloop
  endfacet
  facet normal 0 0 1
    outer loop
      vertex 3 4 2
      vertex 3.82113 9.65108 2
      vertex 3.2076 9.87197 2
    endloop
  endfacet
  facet normal 0 0 1
    outer loop
      vertex 4.50133 -7.36846 2
      vertex 3 -3 2
      vertex 4.25116 -7.39211 2
    endloop
  endfacet
  facet normal 0 0 1
    outer loop
      vertex 4.25116 -7.39211 2
      vertex 3 -3 2
      vertex 4 -7.4 2
    endloop
  endfacet
  facet normal 0 0 1
    outer loop
      vertex 3 -3 2
      vertex 0 -7.4 2
      vertex 4 -7.4 2
    endloop
  endfacet
  facet normal 0 0 1
    outer loop
      vertex 3 -3 2
      vertex -0.251162 -7.39211 2
      vertex 0 -7.4 2
    endloop
  endfacet
  facet normal 0 0 1
    outer loop
      vertex 3 -3 2
      vertex -0.501332 -7.36846 2
      vertex -0.251162 -7.39211 2
    endloop
  endfacet
  facet normal 0 0 1
    outer loop
      vertex 3 -3 2
      vertex -0.749525 -7.32915 2
      vertex -0.501332 -7.36846 2
    endloop
  endfacet
  facet normal 0 0 1
    outer loop
      vertex 3 -3 2
      vertex -0.994759 -7.27433 2
      vertex -0.749525 -7.32915 2
    endloop
  endfacet
  facet normal 0 0 1
    outer loop
      vertex 3 -3 2
      vertex -1.23607 -7.20423 2
      vertex -0.994759 -7.27433 2
    endloop
  endfacet
  facet normal 0 0 1
    outer loop
      vertex 3 -3 2
      vertex -1.4725 -7.11911 2
      vertex -1.23607 -7.20423 2
    endloop
  endfacet
  facet normal 0 0 1
    outer loop
      vertex 3 -3 2
      vertex -1.70312 -7.01931 2
      vertex -1.4725 -7.11911 2
    endloop
  endfacet
  facet normal 0 0 1
    outer loop
      vertex 3 -3 2
      vertex -1.92701 -6.90523 2
      vertex -1.70312 -7.01931 2
    endloop
  endfacet
  facet normal 0 0 1
    outer loop
      vertex 3 -3 2
      vertex -2.14331 -6.77731 2
      vertex -1.92701 -6.90523 2
    endloop
  endfacet
  facet normal 0 0 1
    outer loop
      vertex 3 -3 2
      vertex -2.35114 -6.63607 2
      vertex -2.14331 -6.77731 2
    endloop
  endfacet
  facet normal 0 0 1
    outer loop
      vertex 3 -3 2
      vertex -2.5497 -6.48205 2
      vertex -2.35114 -6.63607 2
    endloop
  endfacet
  facet normal 0 0 1
    outer loop
      vertex 3 -3 2
      vertex -2.73819 -6.31587 2
      vertex -2.5497 -6.48205 2
    endloop
  endfacet
  facet normal 0 0 1
    outer loop
      vertex 3 -3 2
      vertex -2.91587 -6.13819 2
      vertex -2.73819 -6.31587 2
    endloop
  endfacet
  facet normal 0 0 1
    outer loop
      vertex 3 -3 2
      vertex -3.08205 -5.94969 2
      vertex -2.91587 -6.13819 2
    endloop
  endfacet
  facet normal 0 0 1
    outer loop
      vertex 3 -3 2
      vertex -3.23607 -5.75114 2
      vertex -3.08205 -5.94969 2
    endloop
  endfacet
  facet normal 0 0 1
    outer loop
      vertex 3 -3 2
      vertex -3.37731 -5.54331 2
      vertex -3.23607 -5.75114 2
    endloop
  endfacet
  facet normal 0 0 1
    outer loop
      vertex 3 -3 2
      vertex -3.50523 -5.32701 2
      vertex -3.37731 -5.54331 2
    endloop
  endfacet
  facet normal 0 0 1
    outer loop
      vertex 3 -3 2
      vertex -3.61931 -5.10312 2
      vertex -3.50523 -5.32701 2
    endloop
  endfacet
  facet normal 0 0 1
    outer loop
      vertex 3 -3 2
      vertex -3.71911 -4.8725 2
      vertex -3.61931 -5.10312 2
    endloop
  endfacet
  facet normal 0 0 1
    outer loop
      vertex 3 -3 2
      vertex -3.80423 -4.63607 2
      vertex -3.71911 -4.8725 2
    endloop
  endfacet
  facet normal 0 0 1
    outer loop
      vertex 3 -3 2
      vertex -3.87433 -4.39476 2
      vertex -3.80423 -4.63607 2
    endloop
  endfacet
  facet normal 0 0 1
    outer loop
      vertex 3 -3 2
      vertex -3.92915 -4.14952 2
      vertex -3.87433 -4.39476 2
    endloop
  endfacet
  facet normal 0 0 1
    outer loop
      vertex 3 -3 2
      vertex -3.96846 -3.90133 2
      vertex -3.92915 -4.14952 2
    endloop
  endfacet
  facet normal 0 0 1
    outer loop
      vertex 3 -3 2
      vertex -3.99211 -3.65116 2
      vertex -3.96846 -3.90133 2
    endloop
  endfacet
  facet normal 0 0 1
    outer loop
      vertex -4 -3.4 2
      vertex 3 -3 2
      vertex -4 -3 2
    endloop
  endfacet
  facet normal 0 0 1
    outer loop
      vertex 3 -3 2
      vertex -4 -3.4 2
      vertex -3.99211 -3.65116 2
    endloop
  endfacet
  facet normal -0.562075 0.827086 0
    outer loop
      vertex -5.56188 8.76412 0
      vertex -6.10121 8.3976 60
      vertex -5.56188 8.76412 60
    endloop
  endfacet
  facet normal -0.562075 0.827086 0
    outer loop
      vertex -6.10121 8.3976 60
      vertex -5.56188 8.76412 0
      vertex -6.10121 8.3976 0
    endloop
  endfacet
  facet normal -0.15657 0.987667 0
    outer loop
      vertex -1.30096 10.2982 0
      vertex -1.94502 10.1961 2
      vertex -1.30096 10.2982 2
    endloop
  endfacet
  facet normal -0.15657 0.987667 0
    outer loop
      vertex -1.94502 10.1961 2
      vertex -1.30096 10.2982 0
      vertex -1.94502 10.1961 0
    endloop
  endfacet
  facet normal 0.999506 -0.0314375 0
    outer loop
      vertex 10.3595 -0.651765 2
      vertex 10.38 0 0
      vertex 10.38 0 2
    endloop
  endfacet
  facet normal 0.999506 -0.0314375 0
    outer loop
      vertex 10.38 0 0
      vertex 10.3595 -0.651765 2
      vertex 10.3595 -0.651765 0
    endloop
  endfacet
  facet normal 0.888426 -0.45902 0
    outer loop
      vertex 9.09637 -5 60
      vertex 9.09606 -5.0006 60
      vertex 9.09637 -5 2
    endloop
  endfacet
  facet normal 0.891009 -0.453986 0
    outer loop
      vertex 9.09637 -5 2
      vertex 9.3921 -4.41959 0
      vertex 9.3921 -4.41959 2
    endloop
  endfacet
  facet normal 0.891006 -0.453991 -1.90858e-06
    outer loop
      vertex 9.09637 -5 2
      vertex 9.09606 -5.0006 0
      vertex 9.3921 -4.41959 0
    endloop
  endfacet
  facet normal 0.888426 -0.45902 0
    outer loop
      vertex 9.09606 -5.0006 0
      vertex 9.09637 -5 2
      vertex 9.09606 -5.0006 60
    endloop
  endfacet
  facet normal 0.975932 -0.218073 0
    outer loop
      vertex 10.0539 -2.5814 2
      vertex 10.1961 -1.94502 0
      vertex 10.1961 -1.94502 2
    endloop
  endfacet
  facet normal 0.975932 -0.218073 0
    outer loop
      vertex 10.1961 -1.94502 0
      vertex 10.0539 -2.5814 2
      vertex 10.0539 -2.5814 0
    endloop
  endfacet
  facet normal -0.960293 -0.278994 0
    outer loop
      vertex -9.87197 -3.2076 0
      vertex -10.0539 -2.5814 60
      vertex -10.0539 -2.5814 0
    endloop
  endfacet
  facet normal -0.960293 -0.278994 0
    outer loop
      vertex -10.0539 -2.5814 60
      vertex -9.87197 -3.2076 0
      vertex -9.87197 -3.2076 60
    endloop
  endfacet
  facet normal -0.999506 -0.0314375 0
    outer loop
      vertex -10.3595 -0.651765 0
      vertex -10.38 0 60
      vertex -10.38 0 0
    endloop
  endfacet
  facet normal -0.999506 -0.0314375 0
    outer loop
      vertex -10.38 0 60
      vertex -10.3595 -0.651765 0
      vertex -10.3595 -0.651765 60
    endloop
  endfacet
  facet normal 0.338746 -0.940878 0
    outer loop
      vertex 3.2076 -9.87197 0
      vertex 3.82113 -9.65108 60
      vertex 3.2076 -9.87197 60
    endloop
  endfacet
  facet normal 0.338746 -0.940878 0
    outer loop
      vertex 3.82113 -9.65108 60
      vertex 3.2076 -9.87197 0
      vertex 3.82113 -9.65108 0
    endloop
  endfacet
  facet normal -0.940878 0.338746 0
    outer loop
      vertex -9.87197 3.2076 0
      vertex -9.65108 3.82113 60
      vertex -9.65108 3.82113 0
    endloop
  endfacet
  facet normal -0.940878 0.338746 0
    outer loop
      vertex -9.65108 3.82113 60
      vertex -9.87197 3.2076 0
      vertex -9.87197 3.2076 60
    endloop
  endfacet
  facet normal -0.987667 0.15657 0
    outer loop
      vertex -10.2982 1.30096 0
      vertex -10.1961 1.94502 60
      vertex -10.1961 1.94502 0
    endloop
  endfacet
  facet normal -0.987667 0.15657 0
    outer loop
      vertex -10.1961 1.94502 60
      vertex -10.2982 1.30096 0
      vertex -10.2982 1.30096 60
    endloop
  endfacet
  facet normal -0.612908 0.790154 0
    outer loop
      vertex -6.10121 8.3976 0
      vertex -6.61646 7.99793 60
      vertex -6.10121 8.3976 60
    endloop
  endfacet
  facet normal -0.612908 0.790154 0
    outer loop
      vertex -6.61646 7.99793 60
      vertex -6.10121 8.3976 0
      vertex -6.61646 7.99793 0
    endloop
  endfacet
  facet normal -0.338746 0.940878 0
    outer loop
      vertex -3.2076 9.87197 0
      vertex -3.82113 9.65108 2
      vertex -3.2076 9.87197 2
    endloop
  endfacet
  facet normal -0.338746 0.940878 0
    outer loop
      vertex -3.82113 9.65108 2
      vertex -3.2076 9.87197 0
      vertex -3.82113 9.65108 0
    endloop
  endfacet
  facet normal 0.960293 -0.278994 0
    outer loop
      vertex 9.87197 -3.2076 2
      vertex 10.0539 -2.5814 0
      vertex 10.0539 -2.5814 2
    endloop
  endfacet
  facet normal 0.960293 -0.278994 0
    outer loop
      vertex 10.0539 -2.5814 0
      vertex 9.87197 -3.2076 2
      vertex 9.87197 -3.2076 0
    endloop
  endfacet
  facet normal 0.917753 -0.397152 0
    outer loop
      vertex 9.3921 -4.41959 2
      vertex 9.65108 -3.82113 0
      vertex 9.65108 -3.82113 2
    endloop
  endfacet
  facet normal 0.917753 -0.397152 0
    outer loop
      vertex 9.65108 -3.82113 0
      vertex 9.3921 -4.41959 2
      vertex 9.3921 -4.41959 0
    endloop
  endfacet
  facet normal 0.750107 -0.661316 0
    outer loop
      vertex 7.56669 -7.1056 60
      vertex 7.99793 -6.61646 0
      vertex 7.99793 -6.61646 60
    endloop
  endfacet
  facet normal 0.750107 -0.661316 0
    outer loop
      vertex 7.99793 -6.61646 0
      vertex 7.56669 -7.1056 60
      vertex 7.56669 -7.1056 0
    endloop
  endfacet
  facet normal 0.453991 -0.891006 0
    outer loop
      vertex 4.41959 -9.3921 0
      vertex 5.0006 -9.09606 60
      vertex 4.41959 -9.3921 60
    endloop
  endfacet
  facet normal 0.453991 -0.891006 0
    outer loop
      vertex 5.0006 -9.09606 60
      vertex 4.41959 -9.3921 0
      vertex 5.0006 -9.09606 0
    endloop
  endfacet
  facet normal -0.827086 -0.562075 0
    outer loop
      vertex -8.3976 -6.10121 0
      vertex -8.76412 -5.56188 60
      vertex -8.76412 -5.56188 0
    endloop
  endfacet
  facet normal -0.827086 -0.562075 0
    outer loop
      vertex -8.76412 -5.56188 60
      vertex -8.3976 -6.10121 0
      vertex -8.3976 -6.10121 60
    endloop
  endfacet
  facet normal -0.707107 -0.707107 0
    outer loop
      vertex -7.1056 -7.56669 0
      vertex -7.56669 -7.1056 60
      vertex -7.56669 -7.1056 0
    endloop
  endfacet
  facet normal -0.707107 -0.707107 0
    outer loop
      vertex -7.56669 -7.1056 60
      vertex -7.1056 -7.56669 0
      vertex -7.1056 -7.56669 60
    endloop
  endfacet
  facet normal -0.940878 -0.338746 0
    outer loop
      vertex -9.65108 -3.82113 0
      vertex -9.87197 -3.2076 60
      vertex -9.87197 -3.2076 0
    endloop
  endfacet
  facet normal -0.940878 -0.338746 0
    outer loop
      vertex -9.87197 -3.2076 60
      vertex -9.65108 -3.82113 0
      vertex -9.65108 -3.82113 60
    endloop
  endfacet
  facet normal 0.987667 -0.15657 0
    outer loop
      vertex 10.1961 -1.94502 2
      vertex 10.2982 -1.30096 0
      vertex 10.2982 -1.30096 2
    endloop
  endfacet
  facet normal 0.987667 -0.15657 0
    outer loop
      vertex 10.2982 -1.30096 0
      vertex 10.1961 -1.94502 2
      vertex 10.1961 -1.94502 0
    endloop
  endfacet
  facet normal 0.995572 -0.0940065 0
    outer loop
      vertex 10.2982 -1.30096 2
      vertex 10.3595 -0.651765 0
      vertex 10.3595 -0.651765 2
    endloop
  endfacet
  facet normal 0.995572 -0.0940065 0
    outer loop
      vertex 10.3595 -0.651765 0
      vertex 10.2982 -1.30096 2
      vertex 10.2982 -1.30096 0
    endloop
  endfacet
  facet normal 0.860742 -0.509041 0
    outer loop
      vertex 8.76412 -5.56188 60
      vertex 9.09606 -5.0006 0
      vertex 9.09606 -5.0006 60
    endloop
  endfacet
  facet normal 0.860742 -0.509041 0
    outer loop
      vertex 9.09606 -5.0006 0
      vertex 8.76412 -5.56188 60
      vertex 8.76412 -5.56188 0
    endloop
  endfacet
  facet normal 0.612908 -0.790154 0
    outer loop
      vertex 6.10121 -8.3976 0
      vertex 6.61646 -7.99793 60
      vertex 6.10121 -8.3976 60
    endloop
  endfacet
  facet normal 0.612908 -0.790154 0
    outer loop
      vertex 6.61646 -7.99793 60
      vertex 6.10121 -8.3976 0
      vertex 6.61646 -7.99793 0
    endloop
  endfacet
  facet normal 0.707107 -0.707107 0
    outer loop
      vertex 7.1056 -7.56669 60
      vertex 7.56669 -7.1056 0
      vertex 7.56669 -7.1056 60
    endloop
  endfacet
  facet normal 0.707107 -0.707107 0
    outer loop
      vertex 7.56669 -7.1056 0
      vertex 7.1056 -7.56669 60
      vertex 7.1056 -7.56669 0
    endloop
  endfacet
  facet normal 0.661316 -0.750107 0
    outer loop
      vertex 6.61646 -7.99793 0
      vertex 7.1056 -7.56669 60
      vertex 6.61646 -7.99793 60
    endloop
  endfacet
  facet normal 0.661316 -0.750107 0
    outer loop
      vertex 7.1056 -7.56669 60
      vertex 6.61646 -7.99793 0
      vertex 7.1056 -7.56669 0
    endloop
  endfacet
  facet normal 0.0314375 -0.999506 0
    outer loop
      vertex 0 -10.38 0
      vertex 0.651765 -10.3595 60
      vertex 0 -10.38 60
    endloop
  endfacet
  facet normal 0.0314375 -0.999506 0
    outer loop
      vertex 0.651765 -10.3595 60
      vertex 0 -10.38 0
      vertex 0.651765 -10.3595 0
    endloop
  endfacet
  facet normal -0.0314375 -0.999506 0
    outer loop
      vertex -0.651765 -10.3595 0
      vertex 0 -10.38 60
      vertex -0.651765 -10.3595 60
    endloop
  endfacet
  facet normal -0.0314375 -0.999506 -0
    outer loop
      vertex 0 -10.38 60
      vertex -0.651765 -10.3595 0
      vertex 0 -10.38 0
    endloop
  endfacet
  facet normal -0.0940065 -0.995572 0
    outer loop
      vertex -1.30096 -10.2982 0
      vertex -0.651765 -10.3595 60
      vertex -1.30096 -10.2982 60
    endloop
  endfacet
  facet normal -0.0940065 -0.995572 -0
    outer loop
      vertex -0.651765 -10.3595 60
      vertex -1.30096 -10.2982 0
      vertex -0.651765 -10.3595 0
    endloop
  endfacet
  facet normal -0.278994 -0.960293 0
    outer loop
      vertex -3.2076 -9.87197 0
      vertex -2.5814 -10.0539 60
      vertex -3.2076 -9.87197 60
    endloop
  endfacet
  facet normal -0.278994 -0.960293 -0
    outer loop
      vertex -2.5814 -10.0539 60
      vertex -3.2076 -9.87197 0
      vertex -2.5814 -10.0539 0
    endloop
  endfacet
  facet normal -0.891006 -0.453991 0
    outer loop
      vertex -9.09606 -5.0006 0
      vertex -9.3921 -4.41959 60
      vertex -9.3921 -4.41959 0
    endloop
  endfacet
  facet normal -0.891006 -0.453991 0
    outer loop
      vertex -9.3921 -4.41959 60
      vertex -9.09606 -5.0006 0
      vertex -9.09606 -5.0006 60
    endloop
  endfacet
  facet normal -0.790154 -0.612908 0
    outer loop
      vertex -7.99793 -6.61646 0
      vertex -8.3976 -6.10121 60
      vertex -8.3976 -6.10121 0
    endloop
  endfacet
  facet normal -0.790154 -0.612908 0
    outer loop
      vertex -8.3976 -6.10121 60
      vertex -7.99793 -6.61646 0
      vertex -7.99793 -6.61646 60
    endloop
  endfacet
  facet normal -0.917753 -0.397152 0
    outer loop
      vertex -9.3921 -4.41959 0
      vertex -9.65108 -3.82113 60
      vertex -9.65108 -3.82113 0
    endloop
  endfacet
  facet normal -0.917753 -0.397152 0
    outer loop
      vertex -9.65108 -3.82113 60
      vertex -9.3921 -4.41959 0
      vertex -9.3921 -4.41959 60
    endloop
  endfacet
  facet normal -0.987667 -0.15657 0
    outer loop
      vertex -10.1961 -1.94502 0
      vertex -10.2982 -1.30096 60
      vertex -10.2982 -1.30096 0
    endloop
  endfacet
  facet normal -0.987667 -0.15657 0
    outer loop
      vertex -10.2982 -1.30096 60
      vertex -10.1961 -1.94502 0
      vertex -10.1961 -1.94502 60
    endloop
  endfacet
  facet normal 0 0 -1
    outer loop
      vertex -6.61646 7.99793 0
      vertex -4 4 0
      vertex -6 4 0
    endloop
  endfacet
  facet normal 0 0 -1
    outer loop
      vertex -4 4 0
      vertex -6.10121 8.3976 0
      vertex -5.56188 8.76412 0
    endloop
  endfacet
  facet normal 0 0 -1
    outer loop
      vertex -4 4 0
      vertex -6.61646 7.99793 0
      vertex -6.10121 8.3976 0
    endloop
  endfacet
  facet normal 0 0 -1
    outer loop
      vertex -6 4 0
      vertex -7.1056 7.56669 0
      vertex -6.61646 7.99793 0
    endloop
  endfacet
  facet normal 0 0 -1
    outer loop
      vertex -6 4 0
      vertex -7.56669 7.1056 0
      vertex -7.1056 7.56669 0
    endloop
  endfacet
  facet normal 0 0 -1
    outer loop
      vertex -6 4 0
      vertex -7.99793 6.61646 0
      vertex -7.56669 7.1056 0
    endloop
  endfacet
  facet normal 0 0 -1
    outer loop
      vertex -6 4 0
      vertex -8.3976 6.10121 0
      vertex -7.99793 6.61646 0
    endloop
  endfacet
  facet normal 0 0 -1
    outer loop
      vertex -6 4 0
      vertex -8.76412 5.56188 0
      vertex -8.3976 6.10121 0
    endloop
  endfacet
  facet normal 0 0 -1
    outer loop
      vertex -9 4 0
      vertex -8.76412 5.56188 0
      vertex -6 4 0
    endloop
  endfacet
  facet normal 0 0 -1
    outer loop
      vertex -9 4 0
      vertex -9.09606 5.0006 0
      vertex -8.76412 5.56188 0
    endloop
  endfacet
  facet normal 0 0 -1
    outer loop
      vertex -9.65108 -3.82113 0
      vertex -9 -4 0
      vertex -9.3921 -4.41959 0
    endloop
  endfacet
  facet normal 0 0 -1
    outer loop
      vertex -9.87197 -3.2076 0
      vertex -9 -4 0
      vertex -9.65108 -3.82113 0
    endloop
  endfacet
  facet normal 0 0 -1
    outer loop
      vertex -9 4 0
      vertex -9.3921 4.41959 0
      vertex -9.09606 5.0006 0
    endloop
  endfacet
  facet normal 0 0 -1
    outer loop
      vertex -10.0539 -2.5814 0
      vertex -9 -4 0
      vertex -9.87197 -3.2076 0
    endloop
  endfacet
  facet normal -0 0 -1
    outer loop
      vertex -9 4 0
      vertex -9.65108 3.82113 0
      vertex -9.3921 4.41959 0
    endloop
  endfacet
  facet normal 0 0 -1
    outer loop
      vertex -10.1961 -1.94502 0
      vertex -9 -4 0
      vertex -10.0539 -2.5814 0
    endloop
  endfacet
  facet normal 0 0 -1
    outer loop
      vertex -9 4 0
      vertex -9.87197 3.2076 0
      vertex -9.65108 3.82113 0
    endloop
  endfacet
  facet normal 0 0 -1
    outer loop
      vertex -10.2982 -1.30096 0
      vertex -9 -4 0
      vertex -10.1961 -1.94502 0
    endloop
  endfacet
  facet normal 0 0 -1
    outer loop
      vertex -9 4 0
      vertex -10.0539 2.5814 0
      vertex -9.87197 3.2076 0
    endloop
  endfacet
  facet normal 0 0 -1
    outer loop
      vertex -10.3595 -0.651765 0
      vertex -9 -4 0
      vertex -10.2982 -1.30096 0
    endloop
  endfacet
  facet normal 0 0 -1
    outer loop
      vertex -9 4 0
      vertex -10.1961 1.94502 0
      vertex -10.0539 2.5814 0
    endloop
  endfacet
  facet normal 0 0 -1
    outer loop
      vertex -10.38 0 0
      vertex -9 -4 0
      vertex -10.3595 -0.651765 0
    endloop
  endfacet
  facet normal 0 0 -1
    outer loop
      vertex -9 4 0
      vertex -10.2982 1.30096 0
      vertex -10.1961 1.94502 0
    endloop
  endfacet
  facet normal 0 0 -1
    outer loop
      vertex -9 -4 0
      vertex -10.38 0 0
      vertex -9 4 0
    endloop
  endfacet
  facet normal 0 0 -1
    outer loop
      vertex -9 4 0
      vertex -10.3595 0.651765 0
      vertex -10.2982 1.30096 0
    endloop
  endfacet
  facet normal 0 0 -1
    outer loop
      vertex -9 4 0
      vertex -10.38 0 0
      vertex -10.3595 0.651765 0
    endloop
  endfacet
  facet normal 0 0 -1
    outer loop
      vertex 3 -3 0
      vertex 10.38 0 0
      vertex 10.3595 -0.651765 0
    endloop
  endfacet
  facet normal 0 0 -1
    outer loop
      vertex 3 -3 0
      vertex 10.3595 -0.651765 0
      vertex 10.2982 -1.30096 0
    endloop
  endfacet
  facet normal -0 0 -1
    outer loop
      vertex 10.38 0 0
      vertex 3 -3 0
      vertex 10.3595 0.651765 0
    endloop
  endfacet
  facet normal 0 0 -1
    outer loop
      vertex 3 -3 0
      vertex 10.2982 -1.30096 0
      vertex 10.1961 -1.94502 0
    endloop
  endfacet
  facet normal 0 0 -1
    outer loop
      vertex 3 4 0
      vertex 10.3595 0.651765 0
      vertex 3 -3 0
    endloop
  endfacet
  facet normal 0 0 -1
    outer loop
      vertex 3 -3 0
      vertex 10.1961 -1.94502 0
      vertex 10.0539 -2.5814 0
    endloop
  endfacet
  facet normal 0 0 -1
    outer loop
      vertex 10.3595 0.651765 0
      vertex 3 4 0
      vertex 10.2982 1.30096 0
    endloop
  endfacet
  facet normal 0 0 -1
    outer loop
      vertex 3 -3 0
      vertex 10.0539 -2.5814 0
      vertex 9.87197 -3.2076 0
    endloop
  endfacet
  facet normal 0 0 -1
    outer loop
      vertex 10.2982 1.30096 0
      vertex 3 4 0
      vertex 10.1961 1.94502 0
    endloop
  endfacet
  facet normal 0 0 -1
    outer loop
      vertex 3 -3 0
      vertex 9.87197 -3.2076 0
      vertex 9.65108 -3.82113 0
    endloop
  endfacet
  facet normal 0 0 -1
    outer loop
      vertex 10.1961 1.94502 0
      vertex 3 4 0
      vertex 10.0539 2.5814 0
    endloop
  endfacet
  facet normal 0 0 -1
    outer loop
      vertex 3 -3 0
      vertex 9.65108 -3.82113 0
      vertex 9.3921 -4.41959 0
    endloop
  endfacet
  facet normal 0 0 -1
    outer loop
      vertex 10.0539 2.5814 0
      vertex 3 4 0
      vertex 9.87197 3.2076 0
    endloop
  endfacet
  facet normal 0 0 -1
    outer loop
      vertex 3 -3 0
      vertex 9.3921 -4.41959 0
      vertex 9.09606 -5.0006 0
    endloop
  endfacet
  facet normal 0 0 -1
    outer loop
      vertex 9.87197 3.2076 0
      vertex 3 4 0
      vertex 9.65108 3.82113 0
    endloop
  endfacet
  facet normal 0 0 -1
    outer loop
      vertex 3 -3 0
      vertex 9.09606 -5.0006 0
      vertex 8.76412 -5.56188 0
    endloop
  endfacet
  facet normal 0 0 -1
    outer loop
      vertex 9.65108 3.82113 0
      vertex 3 4 0
      vertex 9.3921 4.41959 0
    endloop
  endfacet
  facet normal 0 0 -1
    outer loop
      vertex 3 -3 0
      vertex 8.76412 -5.56188 0
      vertex 8.3976 -6.10121 0
    endloop
  endfacet
  facet normal -0 0 -1
    outer loop
      vertex 9.3921 4.41959 0
      vertex 3 4 0
      vertex 9.09606 5.0006 0
    endloop
  endfacet
  facet normal 0 0 -1
    outer loop
      vertex 3 -3 0
      vertex 8.3976 -6.10121 0
      vertex 7.99793 -6.61646 0
    endloop
  endfacet
  facet normal -0 0 -1
    outer loop
      vertex 9.09606 5.0006 0
      vertex 3 4 0
      vertex 8.76412 5.56188 0
    endloop
  endfacet
  facet normal 0 0 -1
    outer loop
      vertex 3 -3 0
      vertex 7.99793 -6.61646 0
      vertex 7.56669 -7.1056 0
    endloop
  endfacet
  facet normal -0 0 -1
    outer loop
      vertex 8.76412 5.56188 0
      vertex 3 4 0
      vertex 8.3976 6.10121 0
    endloop
  endfacet
  facet normal 0 0 -1
    outer loop
      vertex 3 -3 0
      vertex 7.56669 -7.1056 0
      vertex 7.1056 -7.56669 0
    endloop
  endfacet
  facet normal -0 0 -1
    outer loop
      vertex 8.3976 6.10121 0
      vertex 3 4 0
      vertex 7.99793 6.61646 0
    endloop
  endfacet
  facet normal 0 0 -1
    outer loop
      vertex 3 -3 0
      vertex 7.1056 -7.56669 0
      vertex 6.61646 -7.99793 0
    endloop
  endfacet
  facet normal -0 0 -1
    outer loop
      vertex 7.99793 6.61646 0
      vertex 3 4 0
      vertex 7.56669 7.1056 0
    endloop
  endfacet
  facet normal 0 0 -1
    outer loop
      vertex 3 -3 0
      vertex 6.61646 -7.99793 0
      vertex 6.10121 -8.3976 0
    endloop
  endfacet
  facet normal -0 0 -1
    outer loop
      vertex 7.56669 7.1056 0
      vertex 3 4 0
      vertex 7.1056 7.56669 0
    endloop
  endfacet
  facet normal 0 0 -1
    outer loop
      vertex 3 -3 0
      vertex 6.10121 -8.3976 0
      vertex 5.56188 -8.76412 0
    endloop
  endfacet
  facet normal -0 0 -1
    outer loop
      vertex 7.1056 7.56669 0
      vertex 3 4 0
      vertex 6.61646 7.99793 0
    endloop
  endfacet
  facet normal 0 0 -1
    outer loop
      vertex 3 -3 0
      vertex 5.56188 -8.76412 0
      vertex 5.0006 -9.09606 0
    endloop
  endfacet
  facet normal -0 0 -1
    outer loop
      vertex 6.61646 7.99793 0
      vertex 3 4 0
      vertex 6.10121 8.3976 0
    endloop
  endfacet
  facet normal 0 0 -1
    outer loop
      vertex 3 -3 0
      vertex 5.0006 -9.09606 0
      vertex 4.41959 -9.3921 0
    endloop
  endfacet
  facet normal -0 0 -1
    outer loop
      vertex 6.10121 8.3976 0
      vertex 3 4 0
      vertex 5.56188 8.76412 0
    endloop
  endfacet
  facet normal 0 0 -1
    outer loop
      vertex 3 -3 0
      vertex 4.41959 -9.3921 0
      vertex 3.82113 -9.65108 0
    endloop
  endfacet
  facet normal -0 0 -1
    outer loop
      vertex 5.56188 8.76412 0
      vertex 3 4 0
      vertex 5.0006 9.09606 0
    endloop
  endfacet
  facet normal 0 0 -1
    outer loop
      vertex 3 -3 0
      vertex 3.82113 -9.65108 0
      vertex 3.2076 -9.87197 0
    endloop
  endfacet
  facet normal -0 0 -1
    outer loop
      vertex 5.0006 9.09606 0
      vertex 3 4 0
      vertex 4.41959 9.3921 0
    endloop
  endfacet
  facet normal -0 0 -1
    outer loop
      vertex 4.41959 9.3921 0
      vertex 3 4 0
      vertex 3.82113 9.65108 0
    endloop
  endfacet
  facet normal 0 0 -1
    outer loop
      vertex 2.5814 -10.0539 0
      vertex 3 -3 0
      vertex 3.2076 -9.87197 0
    endloop
  endfacet
  facet normal 0 0 -1
    outer loop
      vertex 1.94502 -10.1961 0
      vertex 3 -3 0
      vertex 2.5814 -10.0539 0
    endloop
  endfacet
  facet normal 0 0 -1
    outer loop
      vertex 1.30096 -10.2982 0
      vertex 3 -3 0
      vertex 1.94502 -10.1961 0
    endloop
  endfacet
  facet normal 0 0 -1
    outer loop
      vertex 0.651765 -10.3595 0
      vertex 3 -3 0
      vertex 1.30096 -10.2982 0
    endloop
  endfacet
  facet normal 0 0 -1
    outer loop
      vertex 0 -10.38 0
      vertex 3 -3 0
      vertex 0.651765 -10.3595 0
    endloop
  endfacet
  facet normal 0 0 -1
    outer loop
      vertex -0.651765 -10.3595 0
      vertex 3 -3 0
      vertex 0 -10.38 0
    endloop
  endfacet
  facet normal 0 0 -1
    outer loop
      vertex -4 -3 0
      vertex -0.651765 -10.3595 0
      vertex -1.30096 -10.2982 0
    endloop
  endfacet
  facet normal 0 0 -1
    outer loop
      vertex -4 -3 0
      vertex -1.30096 -10.2982 0
      vertex -1.94502 -10.1961 0
    endloop
  endfacet
  facet normal 0 0 -1
    outer loop
      vertex -4 -3 0
      vertex -1.94502 -10.1961 0
      vertex -2.5814 -10.0539 0
    endloop
  endfacet
  facet normal 0 0 -1
    outer loop
      vertex -4 -3 0
      vertex -2.5814 -10.0539 0
      vertex -3.2076 -9.87197 0
    endloop
  endfacet
  facet normal 0 0 -1
    outer loop
      vertex -4 -3 0
      vertex -3.2076 -9.87197 0
      vertex -3.82113 -9.65108 0
    endloop
  endfacet
  facet normal 0 0 -1
    outer loop
      vertex -0.651765 -10.3595 0
      vertex -4 -3 0
      vertex 3 -3 0
    endloop
  endfacet
  facet normal 0 0 -1
    outer loop
      vertex -5.0006 -9.09606 0
      vertex -4 -3 0
      vertex -4.41959 -9.3921 0
    endloop
  endfacet
  facet normal 0 0 -1
    outer loop
      vertex -4.41959 -9.3921 0
      vertex -4 -3 0
      vertex -3.82113 -9.65108 0
    endloop
  endfacet
  facet normal -0 0 -1
    outer loop
      vertex 3.82113 9.65108 0
      vertex 3 4 0
      vertex 3.2076 9.87197 0
    endloop
  endfacet
  facet normal 0 0 -1
    outer loop
      vertex 3 4 0
      vertex 2.5814 10.0539 0
      vertex 3.2076 9.87197 0
    endloop
  endfacet
  facet normal 0 0 -1
    outer loop
      vertex 3 4 0
      vertex 1.94502 10.1961 0
      vertex 2.5814 10.0539 0
    endloop
  endfacet
  facet normal 0 0 -1
    outer loop
      vertex 3 4 0
      vertex 1.30096 10.2982 0
      vertex 1.94502 10.1961 0
    endloop
  endfacet
  facet normal 0 0 -1
    outer loop
      vertex 3 4 0
      vertex 0.651765 10.3595 0
      vertex 1.30096 10.2982 0
    endloop
  endfacet
  facet normal 0 0 -1
    outer loop
      vertex 3 4 0
      vertex 0 10.38 0
      vertex 0.651765 10.3595 0
    endloop
  endfacet
  facet normal 0 0 -1
    outer loop
      vertex 3 4 0
      vertex -0.651765 10.3595 0
      vertex 0 10.38 0
    endloop
  endfacet
  facet normal 0 0 -1
    outer loop
      vertex -4 4 0
      vertex -0.651765 10.3595 0
      vertex 3 4 0
    endloop
  endfacet
  facet normal 0 0 -1
    outer loop
      vertex -0.651765 10.3595 0
      vertex -4 4 0
      vertex -1.30096 10.2982 0
    endloop
  endfacet
  facet normal 0 0 -1
    outer loop
      vertex -1.30096 10.2982 0
      vertex -4 4 0
      vertex -1.94502 10.1961 0
    endloop
  endfacet
  facet normal 0 0 -1
    outer loop
      vertex -1.94502 10.1961 0
      vertex -4 4 0
      vertex -2.5814 10.0539 0
    endloop
  endfacet
  facet normal 0 0 -1
    outer loop
      vertex -2.5814 10.0539 0
      vertex -4 4 0
      vertex -3.2076 9.87197 0
    endloop
  endfacet
  facet normal 0 0 -1
    outer loop
      vertex -3.2076 9.87197 0
      vertex -4 4 0
      vertex -3.82113 9.65108 0
    endloop
  endfacet
  facet normal 0 0 -1
    outer loop
      vertex -4 4 0
      vertex -4.41959 9.3921 0
      vertex -3.82113 9.65108 0
    endloop
  endfacet
  facet normal 0 0 -1
    outer loop
      vertex -6 4 0
      vertex -4 -3 0
      vertex -6 -4 0
    endloop
  endfacet
  facet normal 0 0 -1
    outer loop
      vertex -4 -3 0
      vertex -5.0006 -9.09606 0
      vertex -6 -4 0
    endloop
  endfacet
  facet normal 0 0 -1
    outer loop
      vertex -4 -3 0
      vertex -6 4 0
      vertex -4 4 0
    endloop
  endfacet
  facet normal 0 0 -1
    outer loop
      vertex -6 -4 0
      vertex -5.0006 -9.09606 0
      vertex -5.56188 -8.76412 0
    endloop
  endfacet
  facet normal 0 0 -1
    outer loop
      vertex -4 4 0
      vertex -5.0006 9.09606 0
      vertex -4.41959 9.3921 0
    endloop
  endfacet
  facet normal 0 0 -1
    outer loop
      vertex -4 4 0
      vertex -5.56188 8.76412 0
      vertex -5.0006 9.09606 0
    endloop
  endfacet
  facet normal 0 0 -1
    outer loop
      vertex -6.10121 -8.3976 0
      vertex -6 -4 0
      vertex -5.56188 -8.76412 0
    endloop
  endfacet
  facet normal 0 0 -1
    outer loop
      vertex -6.61646 -7.99793 0
      vertex -6 -4 0
      vertex -6.10121 -8.3976 0
    endloop
  endfacet
  facet normal 0 0 -1
    outer loop
      vertex -7.1056 -7.56669 0
      vertex -6 -4 0
      vertex -6.61646 -7.99793 0
    endloop
  endfacet
  facet normal 0 0 -1
    outer loop
      vertex -7.56669 -7.1056 0
      vertex -6 -4 0
      vertex -7.1056 -7.56669 0
    endloop
  endfacet
  facet normal 0 0 -1
    outer loop
      vertex -7.99793 -6.61646 0
      vertex -6 -4 0
      vertex -7.56669 -7.1056 0
    endloop
  endfacet
  facet normal 0 0 -1
    outer loop
      vertex -8.3976 -6.10121 0
      vertex -6 -4 0
      vertex -7.99793 -6.61646 0
    endloop
  endfacet
  facet normal 0 0 -1
    outer loop
      vertex -8.76412 -5.56188 0
      vertex -6 -4 0
      vertex -8.3976 -6.10121 0
    endloop
  endfacet
  facet normal 0 0 -1
    outer loop
      vertex -8.76412 -5.56188 0
      vertex -9 -4 0
      vertex -6 -4 0
    endloop
  endfacet
  facet normal 0 0 -1
    outer loop
      vertex -9.3921 -4.41959 0
      vertex -9 -4 0
      vertex -9.09606 -5.0006 0
    endloop
  endfacet
  facet normal 0 0 -1
    outer loop
      vertex -9.09606 -5.0006 0
      vertex -9 -4 0
      vertex -8.76412 -5.56188 0
    endloop
  endfacet
  facet normal -0.995572 -0.0940065 0
    outer loop
      vertex -10.2982 -1.30096 0
      vertex -10.3595 -0.651765 60
      vertex -10.3595 -0.651765 0
    endloop
  endfacet
  facet normal -0.995572 -0.0940065 0
    outer loop
      vertex -10.3595 -0.651765 60
      vertex -10.2982 -1.30096 0
      vertex -10.2982 -1.30096 60
    endloop
  endfacet
  facet normal 0.278994 -0.960293 0
    outer loop
      vertex 2.5814 -10.0539 0
      vertex 3.2076 -9.87197 60
      vertex 2.5814 -10.0539 60
    endloop
  endfacet
  facet normal 0.278994 -0.960293 0
    outer loop
      vertex 3.2076 -9.87197 60
      vertex 2.5814 -10.0539 0
      vertex 3.2076 -9.87197 0
    endloop
  endfacet
  facet normal 0.218073 -0.975932 0
    outer loop
      vertex 1.94502 -10.1961 0
      vertex 2.5814 -10.0539 60
      vertex 1.94502 -10.1961 60
    endloop
  endfacet
  facet normal 0.218073 -0.975932 0
    outer loop
      vertex 2.5814 -10.0539 60
      vertex 1.94502 -10.1961 0
      vertex 2.5814 -10.0539 0
    endloop
  endfacet
  facet normal 0.940878 -0.338746 0
    outer loop
      vertex 9.65108 -3.82113 2
      vertex 9.87197 -3.2076 0
      vertex 9.87197 -3.2076 2
    endloop
  endfacet
  facet normal 0.940878 -0.338746 0
    outer loop
      vertex 9.87197 -3.2076 0
      vertex 9.65108 -3.82113 2
      vertex 9.65108 -3.82113 0
    endloop
  endfacet
  facet normal 0.790154 -0.612908 0
    outer loop
      vertex 7.99793 -6.61646 60
      vertex 8.3976 -6.10121 0
      vertex 8.3976 -6.10121 60
    endloop
  endfacet
  facet normal 0.790154 -0.612908 0
    outer loop
      vertex 8.3976 -6.10121 0
      vertex 7.99793 -6.61646 60
      vertex 7.99793 -6.61646 0
    endloop
  endfacet
  facet normal 0.562075 -0.827086 0
    outer loop
      vertex 5.56188 -8.76412 0
      vertex 6.10121 -8.3976 60
      vertex 5.56188 -8.76412 60
    endloop
  endfacet
  facet normal 0.562075 -0.827086 0
    outer loop
      vertex 6.10121 -8.3976 60
      vertex 5.56188 -8.76412 0
      vertex 6.10121 -8.3976 0
    endloop
  endfacet
  facet normal 0.509041 -0.860742 0
    outer loop
      vertex 5.0006 -9.09606 0
      vertex 5.56188 -8.76412 60
      vertex 5.0006 -9.09606 60
    endloop
  endfacet
  facet normal 0.509041 -0.860742 0
    outer loop
      vertex 5.56188 -8.76412 60
      vertex 5.0006 -9.09606 0
      vertex 5.56188 -8.76412 0
    endloop
  endfacet
  facet normal -0.218073 -0.975932 0
    outer loop
      vertex -2.5814 -10.0539 0
      vertex -1.94502 -10.1961 60
      vertex -2.5814 -10.0539 60
    endloop
  endfacet
  facet normal -0.218073 -0.975932 -0
    outer loop
      vertex -1.94502 -10.1961 60
      vertex -2.5814 -10.0539 0
      vertex -1.94502 -10.1961 0
    endloop
  endfacet
  facet normal -0.15657 -0.987667 0
    outer loop
      vertex -1.94502 -10.1961 0
      vertex -1.30096 -10.2982 60
      vertex -1.94502 -10.1961 60
    endloop
  endfacet
  facet normal -0.15657 -0.987667 -0
    outer loop
      vertex -1.30096 -10.2982 60
      vertex -1.94502 -10.1961 0
      vertex -1.30096 -10.2982 0
    endloop
  endfacet
  facet normal -0.661316 -0.750107 0
    outer loop
      vertex -7.1056 -7.56669 0
      vertex -6.61646 -7.99793 60
      vertex -7.1056 -7.56669 60
    endloop
  endfacet
  facet normal -0.661316 -0.750107 -0
    outer loop
      vertex -6.61646 -7.99793 60
      vertex -7.1056 -7.56669 0
      vertex -6.61646 -7.99793 0
    endloop
  endfacet
  facet normal -0.562075 -0.827086 0
    outer loop
      vertex -6.10121 -8.3976 0
      vertex -5.56188 -8.76412 60
      vertex -6.10121 -8.3976 60
    endloop
  endfacet
  facet normal -0.562075 -0.827086 -0
    outer loop
      vertex -5.56188 -8.76412 60
      vertex -6.10121 -8.3976 0
      vertex -5.56188 -8.76412 0
    endloop
  endfacet
  facet normal -0.453991 -0.891006 0
    outer loop
      vertex -5.0006 -9.09606 0
      vertex -4.41959 -9.3921 60
      vertex -5.0006 -9.09606 60
    endloop
  endfacet
  facet normal -0.453991 -0.891006 -0
    outer loop
      vertex -4.41959 -9.3921 60
      vertex -5.0006 -9.09606 0
      vertex -4.41959 -9.3921 0
    endloop
  endfacet
  facet normal -0.509041 -0.860742 0
    outer loop
      vertex -5.56188 -8.76412 0
      vertex -5.0006 -9.09606 60
      vertex -5.56188 -8.76412 60
    endloop
  endfacet
  facet normal -0.509041 -0.860742 -0
    outer loop
      vertex -5.0006 -9.09606 60
      vertex -5.56188 -8.76412 0
      vertex -5.0006 -9.09606 0
    endloop
  endfacet
  facet normal -0.397152 -0.917753 0
    outer loop
      vertex -4.41959 -9.3921 0
      vertex -3.82113 -9.65108 60
      vertex -4.41959 -9.3921 60
    endloop
  endfacet
  facet normal -0.397152 -0.917753 -0
    outer loop
      vertex -3.82113 -9.65108 60
      vertex -4.41959 -9.3921 0
      vertex -3.82113 -9.65108 0
    endloop
  endfacet
  facet normal -0.860742 -0.509041 0
    outer loop
      vertex -8.76412 -5.56188 0
      vertex -9.09606 -5.0006 60
      vertex -9.09606 -5.0006 0
    endloop
  endfacet
  facet normal -0.860742 -0.509041 0
    outer loop
      vertex -9.09606 -5.0006 60
      vertex -8.76412 -5.56188 0
      vertex -8.76412 -5.56188 60
    endloop
  endfacet
  facet normal -0.750107 -0.661316 0
    outer loop
      vertex -7.56669 -7.1056 0
      vertex -7.99793 -6.61646 60
      vertex -7.99793 -6.61646 0
    endloop
  endfacet
  facet normal -0.750107 -0.661316 0
    outer loop
      vertex -7.99793 -6.61646 60
      vertex -7.56669 -7.1056 0
      vertex -7.56669 -7.1056 60
    endloop
  endfacet
  facet normal -0.612908 -0.790154 0
    outer loop
      vertex -6.61646 -7.99793 0
      vertex -6.10121 -8.3976 60
      vertex -6.61646 -7.99793 60
    endloop
  endfacet
  facet normal -0.612908 -0.790154 -0
    outer loop
      vertex -6.10121 -8.3976 60
      vertex -6.61646 -7.99793 0
      vertex -6.10121 -8.3976 0
    endloop
  endfacet
  facet normal -0.338746 -0.940878 0
    outer loop
      vertex -3.82113 -9.65108 0
      vertex -3.2076 -9.87197 60
      vertex -3.82113 -9.65108 60
    endloop
  endfacet
  facet normal -0.338746 -0.940878 -0
    outer loop
      vertex -3.2076 -9.87197 60
      vertex -3.82113 -9.65108 0
      vertex -3.2076 -9.87197 0
    endloop
  endfacet
  facet normal 1 -0 0
    outer loop
      vertex -9 -4 4
      vertex -9 4 0
      vertex -9 4 4
    endloop
  endfacet
  facet normal 1 0 0
    outer loop
      vertex -9 4 0
      vertex -9 -4 4
      vertex -9 -4 0
    endloop
  endfacet
  facet normal -1 0 0
    outer loop
      vertex -6 -4 0
      vertex -6 4 4
      vertex -6 4 0
    endloop
  endfacet
  facet normal -1 -0 0
    outer loop
      vertex -6 4 4
      vertex -6 -4 0
      vertex -6 -4 4
    endloop
  endfacet
  facet normal 0 -1 0
    outer loop
      vertex -9 4 0
      vertex -6 4 4
      vertex -9 4 4
    endloop
  endfacet
  facet normal 0 -1 -0
    outer loop
      vertex -6 4 4
      vertex -9 4 0
      vertex -6 4 0
    endloop
  endfacet
  facet normal 0 1 -0
    outer loop
      vertex -6 -4 0
      vertex -9 -4 4
      vertex -6 -4 4
    endloop
  endfacet
  facet normal 0 1 0
    outer loop
      vertex -9 -4 4
      vertex -6 -4 0
      vertex -9 -4 0
    endloop
  endfacet
  facet normal 1 0 0
    outer loop
      vertex -4 9.57368 60
      vertex -4 4 2
      vertex -4 9.57368 2
    endloop
  endfacet
  facet normal 1 0 0
    outer loop
      vertex -4 4 2
      vertex -4 -3 2
      vertex -4 4 0
    endloop
  endfacet
  facet normal 1 -0 0
    outer loop
      vertex -4 -3.4 60
      vertex -4 4 2
      vertex -4 9.57368 60
    endloop
  endfacet
  facet normal 1 0 0
    outer loop
      vertex -4 4 2
      vertex -4 -3.4 60
      vertex -4 -3 2
    endloop
  endfacet
  facet normal 1 0 0
    outer loop
      vertex -4 -3 2
      vertex -4 -3.4 60
      vertex -4 -3.4 2
    endloop
  endfacet
  facet normal 1 0 0
    outer loop
      vertex -4 4 0
      vertex -4 -3 2
      vertex -4 -3 0
    endloop
  endfacet
  facet normal -1 0 0
    outer loop
      vertex 3 -3 0
      vertex 3 4 2
      vertex 3 4 0
    endloop
  endfacet
  facet normal -1 -0 0
    outer loop
      vertex 3 4 2
      vertex 3 -3 0
      vertex 3 -3 2
    endloop
  endfacet
  facet normal 0 -1 0
    outer loop
      vertex -4 4 0
      vertex 3 4 2
      vertex -4 4 2
    endloop
  endfacet
  facet normal 0 -1 -0
    outer loop
      vertex 3 4 2
      vertex -4 4 0
      vertex 3 4 0
    endloop
  endfacet
  facet normal 0 1 -0
    outer loop
      vertex 3 -3 0
      vertex -4 -3 2
      vertex 3 -3 2
    endloop
  endfacet
  facet normal 0 1 0
    outer loop
      vertex -4 -3 2
      vertex 3 -3 0
      vertex -4 -3 0
    endloop
  endfacet
  facet normal 0 0 1
    outer loop
      vertex -6.2 3.8 60
      vertex -4 9.57368 60
      vertex -4.41959 9.3921 60
    endloop
  endfacet
  facet normal -0 0 1
    outer loop
      vertex 7.66393 -5 60
      vertex 9.09606 -5.0006 60
      vertex 9.09637 -5 60
    endloop
  endfacet
  facet normal 0 0 1
    outer loop
      vertex 9.09606 -5.0006 60
      vertex 7.66393 -5 60
      vertex 8.76412 -5.56188 60
    endloop
  endfacet
  facet normal -0 0 1
    outer loop
      vertex 7.61931 -5.10312 60
      vertex 8.76412 -5.56188 60
      vertex 7.66393 -5 60
    endloop
  endfacet
  facet normal -0 0 1
    outer loop
      vertex 7.50523 -5.32701 60
      vertex 8.76412 -5.56188 60
      vertex 7.61931 -5.10312 60
    endloop
  endfacet
  facet normal 0 0 1
    outer loop
      vertex 8.76412 -5.56188 60
      vertex 7.50523 -5.32701 60
      vertex 8.3976 -6.10121 60
    endloop
  endfacet
  facet normal -0 0 1
    outer loop
      vertex 7.37731 -5.54331 60
      vertex 8.3976 -6.10121 60
      vertex 7.50523 -5.32701 60
    endloop
  endfacet
  facet normal -0 0 1
    outer loop
      vertex 7.23607 -5.75114 60
      vertex 8.3976 -6.10121 60
      vertex 7.37731 -5.54331 60
    endloop
  endfacet
  facet normal 0 0 1
    outer loop
      vertex 8.3976 -6.10121 60
      vertex 7.23607 -5.75114 60
      vertex 7.99793 -6.61646 60
    endloop
  endfacet
  facet normal -0 0 1
    outer loop
      vertex 7.08205 -5.94969 60
      vertex 7.99793 -6.61646 60
      vertex 7.23607 -5.75114 60
    endloop
  endfacet
  facet normal -0 0 1
    outer loop
      vertex 6.91587 -6.13819 60
      vertex 7.99793 -6.61646 60
      vertex 7.08205 -5.94969 60
    endloop
  endfacet
  facet normal 0 0 1
    outer loop
      vertex 7.99793 -6.61646 60
      vertex 6.91587 -6.13819 60
      vertex 7.56669 -7.1056 60
    endloop
  endfacet
  facet normal -0 0 1
    outer loop
      vertex 6.73819 -6.31587 60
      vertex 7.56669 -7.1056 60
      vertex 6.91587 -6.13819 60
    endloop
  endfacet
  facet normal -0 0 1
    outer loop
      vertex 6.5497 -6.48205 60
      vertex 7.56669 -7.1056 60
      vertex 6.73819 -6.31587 60
    endloop
  endfacet
  facet normal 0 0 1
    outer loop
      vertex 7.56669 -7.1056 60
      vertex 6.5497 -6.48205 60
      vertex 7.1056 -7.56669 60
    endloop
  endfacet
  facet normal -0 0 1
    outer loop
      vertex 6.35114 -6.63607 60
      vertex 7.1056 -7.56669 60
      vertex 6.5497 -6.48205 60
    endloop
  endfacet
  facet normal -0 0 1
    outer loop
      vertex 6.14331 -6.77731 60
      vertex 7.1056 -7.56669 60
      vertex 6.35114 -6.63607 60
    endloop
  endfacet
  facet normal 0 0 1
    outer loop
      vertex 7.1056 -7.56669 60
      vertex 6.14331 -6.77731 60
      vertex 6.61646 -7.99793 60
    endloop
  endfacet
  facet normal -0 0 1
    outer loop
      vertex 5.92701 -6.90523 60
      vertex 6.61646 -7.99793 60
      vertex 6.14331 -6.77731 60
    endloop
  endfacet
  facet normal -0 0 1
    outer loop
      vertex 5.70312 -7.01931 60
      vertex 6.61646 -7.99793 60
      vertex 5.92701 -6.90523 60
    endloop
  endfacet
  facet normal 0 0 1
    outer loop
      vertex 6.61646 -7.99793 60
      vertex 5.70312 -7.01931 60
      vertex 6.10121 -8.3976 60
    endloop
  endfacet
  facet normal -0 0 1
    outer loop
      vertex 5.4725 -7.11911 60
      vertex 6.10121 -8.3976 60
      vertex 5.70312 -7.01931 60
    endloop
  endfacet
  facet normal -0 0 1
    outer loop
      vertex 5.23607 -7.20423 60
      vertex 6.10121 -8.3976 60
      vertex 5.4725 -7.11911 60
    endloop
  endfacet
  facet normal 0 0 1
    outer loop
      vertex 6.10121 -8.3976 60
      vertex 5.23607 -7.20423 60
      vertex 5.56188 -8.76412 60
    endloop
  endfacet
  facet normal -0 0 1
    outer loop
      vertex 4.99476 -7.27433 60
      vertex 5.56188 -8.76412 60
      vertex 5.23607 -7.20423 60
    endloop
  endfacet
  facet normal -0 0 1
    outer loop
      vertex 4.74953 -7.32915 60
      vertex 5.56188 -8.76412 60
      vertex 4.99476 -7.27433 60
    endloop
  endfacet
  facet normal 0 0 1
    outer loop
      vertex 5.56188 -8.76412 60
      vertex 4.74953 -7.32915 60
      vertex 5.0006 -9.09606 60
    endloop
  endfacet
  facet normal -0 0 1
    outer loop
      vertex 4.50133 -7.36846 60
      vertex 5.0006 -9.09606 60
      vertex 4.74953 -7.32915 60
    endloop
  endfacet
  facet normal -0 0 1
    outer loop
      vertex 4.25116 -7.39211 60
      vertex 5.0006 -9.09606 60
      vertex 4.50133 -7.36846 60
    endloop
  endfacet
  facet normal 0 0 1
    outer loop
      vertex 5.0006 -9.09606 60
      vertex 4.25116 -7.39211 60
      vertex 4.41959 -9.3921 60
    endloop
  endfacet
  facet normal -0 0 1
    outer loop
      vertex 4 -7.4 60
      vertex 4.41959 -9.3921 60
      vertex 4.25116 -7.39211 60
    endloop
  endfacet
  facet normal 0 0 1
    outer loop
      vertex 4 -7.4 60
      vertex 3.82113 -9.65108 60
      vertex 4.41959 -9.3921 60
    endloop
  endfacet
  facet normal 0 0 1
    outer loop
      vertex 4 -7.4 60
      vertex 3.2076 -9.87197 60
      vertex 3.82113 -9.65108 60
    endloop
  endfacet
  facet normal 0 0 1
    outer loop
      vertex 4 -7.4 60
      vertex 2.5814 -10.0539 60
      vertex 3.2076 -9.87197 60
    endloop
  endfacet
  facet normal -0 0 1
    outer loop
      vertex 0 -7.4 60
      vertex 2.5814 -10.0539 60
      vertex 4 -7.4 60
    endloop
  endfacet
  facet normal 0 0 1
    outer loop
      vertex 2.5814 -10.0539 60
      vertex 0 -7.4 60
      vertex 1.94502 -10.1961 60
    endloop
  endfacet
  facet normal 0 0 1
    outer loop
      vertex 1.94502 -10.1961 60
      vertex 0 -7.4 60
      vertex 1.30096 -10.2982 60
    endloop
  endfacet
  facet normal 0 0 1
    outer loop
      vertex 1.30096 -10.2982 60
      vertex 0 -7.4 60
      vertex 0.651765 -10.3595 60
    endloop
  endfacet
  facet normal 0 0 1
    outer loop
      vertex 0 -7.4 60
      vertex 0 -10.38 60
      vertex 0.651765 -10.3595 60
    endloop
  endfacet
  facet normal 0 0 1
    outer loop
      vertex -0.251162 -7.39211 60
      vertex 0 -10.38 60
      vertex 0 -7.4 60
    endloop
  endfacet
  facet normal 0 0 1
    outer loop
      vertex -0.651765 -10.3595 60
      vertex -0.251162 -7.39211 60
      vertex -0.501332 -7.36846 60
    endloop
  endfacet
  facet normal 0 0 1
    outer loop
      vertex -0.251162 -7.39211 60
      vertex -0.651765 -10.3595 60
      vertex 0 -10.38 60
    endloop
  endfacet
  facet normal 0 0 1
    outer loop
      vertex -1.30096 -10.2982 60
      vertex -0.501332 -7.36846 60
      vertex -0.749525 -7.32915 60
    endloop
  endfacet
  facet normal 0 0 1
    outer loop
      vertex -1.30096 -10.2982 60
      vertex -0.749525 -7.32915 60
      vertex -0.994759 -7.27433 60
    endloop
  endfacet
  facet normal 0 0 1
    outer loop
      vertex -1.94502 -10.1961 60
      vertex -0.994759 -7.27433 60
      vertex -1.23607 -7.20423 60
    endloop
  endfacet
  facet normal 0 0 1
    outer loop
      vertex -0.501332 -7.36846 60
      vertex -1.30096 -10.2982 60
      vertex -0.651765 -10.3595 60
    endloop
  endfacet
  facet normal 0 0 1
    outer loop
      vertex -1.94502 -10.1961 60
      vertex -1.23607 -7.20423 60
      vertex -1.4725 -7.11911 60
    endloop
  endfacet
  facet normal 0 0 1
    outer loop
      vertex -2.5814 -10.0539 60
      vertex -1.4725 -7.11911 60
      vertex -1.70312 -7.01931 60
    endloop
  endfacet
  facet normal 0 0 1
    outer loop
      vertex -3.2076 -9.87197 60
      vertex -1.70312 -7.01931 60
      vertex -1.92701 -6.90523 60
    endloop
  endfacet
  facet normal 0 0 1
    outer loop
      vertex -0.994759 -7.27433 60
      vertex -1.94502 -10.1961 60
      vertex -1.30096 -10.2982 60
    endloop
  endfacet
  facet normal 0 0 1
    outer loop
      vertex -3.2076 -9.87197 60
      vertex -1.92701 -6.90523 60
      vertex -2.14331 -6.77731 60
    endloop
  endfacet
  facet normal 0 0 1
    outer loop
      vertex -3.82113 -9.65108 60
      vertex -2.14331 -6.77731 60
      vertex -2.35114 -6.63607 60
    endloop
  endfacet
  facet normal 0 0 1
    outer loop
      vertex -4.41959 -9.3921 60
      vertex -2.35114 -6.63607 60
      vertex -2.5497 -6.48205 60
    endloop
  endfacet
  facet normal 0 0 1
    outer loop
      vertex -1.4725 -7.11911 60
      vertex -2.5814 -10.0539 60
      vertex -1.94502 -10.1961 60
    endloop
  endfacet
  facet normal 0 0 1
    outer loop
      vertex -4.41959 -9.3921 60
      vertex -2.5497 -6.48205 60
      vertex -2.73819 -6.31587 60
    endloop
  endfacet
  facet normal 0 0 1
    outer loop
      vertex -5.0006 -9.09606 60
      vertex -2.73819 -6.31587 60
      vertex -2.91587 -6.13819 60
    endloop
  endfacet
  facet normal 0 0 1
    outer loop
      vertex -5.56188 -8.76412 60
      vertex -2.91587 -6.13819 60
      vertex -3.08205 -5.94969 60
    endloop
  endfacet
  facet normal 0 0 1
    outer loop
      vertex -1.70312 -7.01931 60
      vertex -3.2076 -9.87197 60
      vertex -2.5814 -10.0539 60
    endloop
  endfacet
  facet normal 0 0 1
    outer loop
      vertex -5.56188 -8.76412 60
      vertex -3.08205 -5.94969 60
      vertex -3.23607 -5.75114 60
    endloop
  endfacet
  facet normal 0 0 1
    outer loop
      vertex -6.10121 -8.3976 60
      vertex -3.23607 -5.75114 60
      vertex -3.37731 -5.54331 60
    endloop
  endfacet
  facet normal 0 0 1
    outer loop
      vertex -6.61646 -7.99793 60
      vertex -3.37731 -5.54331 60
      vertex -3.50523 -5.32701 60
    endloop
  endfacet
  facet normal 0 0 1
    outer loop
      vertex -6.61646 -7.99793 60
      vertex -3.50523 -5.32701 60
      vertex -3.61931 -5.10312 60
    endloop
  endfacet
  facet normal 0 0 1
    outer loop
      vertex -6.2 -3.8 60
      vertex -3.61931 -5.10312 60
      vertex -3.71911 -4.8725 60
    endloop
  endfacet
  facet normal 0 0 1
    outer loop
      vertex -6.2 -3.8 60
      vertex -3.71911 -4.8725 60
      vertex -3.80423 -4.63607 60
    endloop
  endfacet
  facet normal 0 0 1
    outer loop
      vertex -2.14331 -6.77731 60
      vertex -3.82113 -9.65108 60
      vertex -3.2076 -9.87197 60
    endloop
  endfacet
  facet normal 0 0 1
    outer loop
      vertex -6.2 -3.8 60
      vertex -3.80423 -4.63607 60
      vertex -3.87433 -4.39476 60
    endloop
  endfacet
  facet normal 0 0 1
    outer loop
      vertex -6.2 -3.8 60
      vertex -3.87433 -4.39476 60
      vertex -3.92915 -4.14952 60
    endloop
  endfacet
  facet normal 0 0 1
    outer loop
      vertex -6.2 -3.8 60
      vertex -3.92915 -4.14952 60
      vertex -3.96846 -3.90133 60
    endloop
  endfacet
  facet normal -0 0 1
    outer loop
      vertex -6.2 -3.8 60
      vertex -3.96846 -3.90133 60
      vertex -3.99211 -3.65116 60
    endloop
  endfacet
  facet normal 0 0 1
    outer loop
      vertex -6.2 -3.8 60
      vertex -3.99211 -3.65116 60
      vertex -4 -3.4 60
    endloop
  endfacet
  facet normal 0 0 1
    outer loop
      vertex -4 9.57368 60
      vertex -6.2 3.8 60
      vertex -4 -3.4 60
    endloop
  endfacet
  facet normal 0 0 1
    outer loop
      vertex -6.2 -3.8 60
      vertex -4 -3.4 60
      vertex -6.2 3.8 60
    endloop
  endfacet
  facet normal 0 0 1
    outer loop
      vertex -6.2 3.8 60
      vertex -4.41959 9.3921 60
      vertex -5.0006 9.09606 60
    endloop
  endfacet
  facet normal 0 0 1
    outer loop
      vertex -3.61931 -5.10312 60
      vertex -6.2 -3.8 60
      vertex -7.1056 -7.56669 60
    endloop
  endfacet
  facet normal 0 0 1
    outer loop
      vertex -6.2 3.8 60
      vertex -5.0006 9.09606 60
      vertex -5.56188 8.76412 60
    endloop
  endfacet
  facet normal 0 0 1
    outer loop
      vertex -2.35114 -6.63607 60
      vertex -4.41959 -9.3921 60
      vertex -3.82113 -9.65108 60
    endloop
  endfacet
  facet normal 0 0 1
    outer loop
      vertex -6.2 3.8 60
      vertex -5.56188 8.76412 60
      vertex -6.10121 8.3976 60
    endloop
  endfacet
  facet normal 0 0 1
    outer loop
      vertex -2.73819 -6.31587 60
      vertex -5.0006 -9.09606 60
      vertex -4.41959 -9.3921 60
    endloop
  endfacet
  facet normal 0 0 1
    outer loop
      vertex -2.91587 -6.13819 60
      vertex -5.56188 -8.76412 60
      vertex -5.0006 -9.09606 60
    endloop
  endfacet
  facet normal -0 0 1
    outer loop
      vertex -6.61646 7.99793 60
      vertex -6.2 3.8 60
      vertex -6.10121 8.3976 60
    endloop
  endfacet
  facet normal -0 0 1
    outer loop
      vertex -7.1056 7.56669 60
      vertex -6.2 3.8 60
      vertex -6.61646 7.99793 60
    endloop
  endfacet
  facet normal -0 0 1
    outer loop
      vertex -7.56669 7.1056 60
      vertex -6.2 3.8 60
      vertex -7.1056 7.56669 60
    endloop
  endfacet
  facet normal -0 0 1
    outer loop
      vertex -7.99793 6.61646 60
      vertex -6.2 3.8 60
      vertex -7.56669 7.1056 60
    endloop
  endfacet
  facet normal -0 0 1
    outer loop
      vertex -8.3976 6.10121 60
      vertex -6.2 3.8 60
      vertex -7.99793 6.61646 60
    endloop
  endfacet
  facet normal -0 0 1
    outer loop
      vertex -8.76412 5.56188 60
      vertex -6.2 3.8 60
      vertex -8.3976 6.10121 60
    endloop
  endfacet
  facet normal 0 0 1
    outer loop
      vertex -8.76412 5.56188 60
      vertex -8.8 3.8 60
      vertex -6.2 3.8 60
    endloop
  endfacet
  facet normal -0 0 1
    outer loop
      vertex -9.3921 4.41959 60
      vertex -8.8 3.8 60
      vertex -9.09606 5.0006 60
    endloop
  endfacet
  facet normal -0 0 1
    outer loop
      vertex -9.09606 5.0006 60
      vertex -8.8 3.8 60
      vertex -8.76412 5.56188 60
    endloop
  endfacet
  facet normal 0 0 1
    outer loop
      vertex -3.23607 -5.75114 60
      vertex -6.10121 -8.3976 60
      vertex -5.56188 -8.76412 60
    endloop
  endfacet
  facet normal 0 0 1
    outer loop
      vertex -3.37731 -5.54331 60
      vertex -6.61646 -7.99793 60
      vertex -6.10121 -8.3976 60
    endloop
  endfacet
  facet normal 0 0 1
    outer loop
      vertex -3.61931 -5.10312 60
      vertex -7.1056 -7.56669 60
      vertex -6.61646 -7.99793 60
    endloop
  endfacet
  facet normal 0 0 1
    outer loop
      vertex -6.2 -3.8 60
      vertex -7.56669 -7.1056 60
      vertex -7.1056 -7.56669 60
    endloop
  endfacet
  facet normal 0 0 1
    outer loop
      vertex -6.2 -3.8 60
      vertex -7.99793 -6.61646 60
      vertex -7.56669 -7.1056 60
    endloop
  endfacet
  facet normal 0 0 1
    outer loop
      vertex -6.2 -3.8 60
      vertex -8.3976 -6.10121 60
      vertex -7.99793 -6.61646 60
    endloop
  endfacet
  facet normal 0 0 1
    outer loop
      vertex -6.2 -3.8 60
      vertex -8.76412 -5.56188 60
      vertex -8.3976 -6.10121 60
    endloop
  endfacet
  facet normal -0 0 1
    outer loop
      vertex -8.8 -3.8 60
      vertex -8.76412 -5.56188 60
      vertex -6.2 -3.8 60
    endloop
  endfacet
  facet normal -0 0 1
    outer loop
      vertex -9.65108 3.82113 60
      vertex -8.8 3.8 60
      vertex -9.3921 4.41959 60
    endloop
  endfacet
  facet normal 0 0 1
    outer loop
      vertex -8.8 -3.8 60
      vertex -9.09606 -5.0006 60
      vertex -8.76412 -5.56188 60
    endloop
  endfacet
  facet normal 0 0 1
    outer loop
      vertex -9.87197 3.2076 60
      vertex -8.8 3.8 60
      vertex -9.65108 3.82113 60
    endloop
  endfacet
  facet normal 0 0 1
    outer loop
      vertex -8.8 -3.8 60
      vertex -9.3921 -4.41959 60
      vertex -9.09606 -5.0006 60
    endloop
  endfacet
  facet normal 0 0 1
    outer loop
      vertex -10.0539 2.5814 60
      vertex -8.8 3.8 60
      vertex -9.87197 3.2076 60
    endloop
  endfacet
  facet normal 0 0 1
    outer loop
      vertex -8.8 -3.8 60
      vertex -9.65108 -3.82113 60
      vertex -9.3921 -4.41959 60
    endloop
  endfacet
  facet normal 0 0 1
    outer loop
      vertex -10.1961 1.94502 60
      vertex -8.8 3.8 60
      vertex -10.0539 2.5814 60
    endloop
  endfacet
  facet normal 0 0 1
    outer loop
      vertex -8.8 -3.8 60
      vertex -9.87197 -3.2076 60
      vertex -9.65108 -3.82113 60
    endloop
  endfacet
  facet normal 0 0 1
    outer loop
      vertex -10.2982 1.30096 60
      vertex -8.8 3.8 60
      vertex -10.1961 1.94502 60
    endloop
  endfacet
  facet normal 0 0 1
    outer loop
      vertex -8.8 -3.8 60
      vertex -10.0539 -2.5814 60
      vertex -9.87197 -3.2076 60
    endloop
  endfacet
  facet normal 0 0 1
    outer loop
      vertex -10.3595 0.651765 60
      vertex -8.8 3.8 60
      vertex -10.2982 1.30096 60
    endloop
  endfacet
  facet normal 0 0 1
    outer loop
      vertex -8.8 -3.8 60
      vertex -10.1961 -1.94502 60
      vertex -10.0539 -2.5814 60
    endloop
  endfacet
  facet normal 0 0 1
    outer loop
      vertex -10.38 0 60
      vertex -8.8 3.8 60
      vertex -10.3595 0.651765 60
    endloop
  endfacet
  facet normal 0 0 1
    outer loop
      vertex -8.8 -3.8 60
      vertex -10.2982 -1.30096 60
      vertex -10.1961 -1.94502 60
    endloop
  endfacet
  facet normal 0 0 1
    outer loop
      vertex -8.8 3.8 60
      vertex -10.38 0 60
      vertex -8.8 -3.8 60
    endloop
  endfacet
  facet normal 0 0 1
    outer loop
      vertex -8.8 -3.8 60
      vertex -10.3595 -0.651765 60
      vertex -10.2982 -1.30096 60
    endloop
  endfacet
  facet normal 0 0 1
    outer loop
      vertex -8.8 -3.8 60
      vertex -10.38 0 60
      vertex -10.3595 -0.651765 60
    endloop
  endfacet
  facet normal 0.56208 0.827083 -0
    outer loop
      vertex -2.14331 -6.77731 2
      vertex -2.35114 -6.63607 60
      vertex -2.14331 -6.77731 60
    endloop
  endfacet
  facet normal 0.56208 0.827083 0
    outer loop
      vertex -2.35114 -6.63607 60
      vertex -2.14331 -6.77731 2
      vertex -2.35114 -6.63607 2
    endloop
  endfacet
  facet normal 0 1 -0
    outer loop
      vertex 4 -7.4 2
      vertex 0 -7.4 60
      vertex 4 -7.4 60
    endloop
  endfacet
  facet normal 0 1 0
    outer loop
      vertex 0 -7.4 60
      vertex 4 -7.4 2
      vertex 0 -7.4 2
    endloop
  endfacet
  facet normal 0.707107 0.707107 0
    outer loop
      vertex -2.73819 -6.31587 60
      vertex -2.91587 -6.13819 2
      vertex -2.91587 -6.13819 60
    endloop
  endfacet
  facet normal 0.707107 0.707107 0
    outer loop
      vertex -2.91587 -6.13819 2
      vertex -2.73819 -6.31587 60
      vertex -2.73819 -6.31587 2
    endloop
  endfacet
  facet normal 0.987688 0.156437 0
    outer loop
      vertex -3.92915 -4.14952 60
      vertex -3.96846 -3.90133 2
      vertex -3.96846 -3.90133 60
    endloop
  endfacet
  facet normal 0.987688 0.156437 0
    outer loop
      vertex -3.96846 -3.90133 2
      vertex -3.92915 -4.14952 60
      vertex -3.92915 -4.14952 2
    endloop
  endfacet
  facet normal 0.860741 0.509043 0
    outer loop
      vertex -3.37731 -5.54331 60
      vertex -3.50523 -5.32701 2
      vertex -3.50523 -5.32701 60
    endloop
  endfacet
  facet normal 0.860741 0.509043 0
    outer loop
      vertex -3.50523 -5.32701 2
      vertex -3.37731 -5.54331 60
      vertex -3.37731 -5.54331 2
    endloop
  endfacet
  facet normal -0.0313987 0.999507 0
    outer loop
      vertex 4.25116 -7.39211 2
      vertex 4 -7.4 60
      vertex 4.25116 -7.39211 60
    endloop
  endfacet
  facet normal -0.0313987 0.999507 0
    outer loop
      vertex 4 -7.4 60
      vertex 4.25116 -7.39211 2
      vertex 4 -7.4 2
    endloop
  endfacet
  facet normal 0.218157 0.975914 -0
    outer loop
      vertex -0.749525 -7.32915 2
      vertex -0.994759 -7.27433 60
      vertex -0.749525 -7.32915 60
    endloop
  endfacet
  facet normal 0.218157 0.975914 0
    outer loop
      vertex -0.994759 -7.27433 60
      vertex -0.749525 -7.32915 2
      vertex -0.994759 -7.27433 2
    endloop
  endfacet
  facet normal 0.453998 0.891003 -0
    outer loop
      vertex -1.70312 -7.01931 2
      vertex -1.92701 -6.90523 60
      vertex -1.70312 -7.01931 60
    endloop
  endfacet
  facet normal 0.453998 0.891003 0
    outer loop
      vertex -1.92701 -6.90523 60
      vertex -1.70312 -7.01931 2
      vertex -1.92701 -6.90523 2
    endloop
  endfacet
  facet normal 0.975915 0.218152 0
    outer loop
      vertex -3.87433 -4.39476 60
      vertex -3.92915 -4.14952 2
      vertex -3.92915 -4.14952 60
    endloop
  endfacet
  facet normal 0.975915 0.218152 0
    outer loop
      vertex -3.92915 -4.14952 2
      vertex -3.87433 -4.39476 60
      vertex -3.87433 -4.39476 2
    endloop
  endfacet
  facet normal 0.999507 0.0313987 0
    outer loop
      vertex -3.99211 -3.65116 60
      vertex -4 -3.4 2
      vertex -4 -3.4 60
    endloop
  endfacet
  facet normal 0.999507 0.0313987 0
    outer loop
      vertex -4 -3.4 2
      vertex -3.99211 -3.65116 60
      vertex -3.99211 -3.65116 2
    endloop
  endfacet
  facet normal 0.827083 0.56208 0
    outer loop
      vertex -3.23607 -5.75114 60
      vertex -3.37731 -5.54331 2
      vertex -3.37731 -5.54331 60
    endloop
  endfacet
  facet normal 0.827083 0.56208 0
    outer loop
      vertex -3.37731 -5.54331 2
      vertex -3.23607 -5.75114 60
      vertex -3.23607 -5.75114 2
    endloop
  endfacet
  facet normal 0.891003 0.453998 0
    outer loop
      vertex -3.50523 -5.32701 60
      vertex -3.61931 -5.10312 2
      vertex -3.61931 -5.10312 60
    endloop
  endfacet
  facet normal 0.891003 0.453998 0
    outer loop
      vertex -3.61931 -5.10312 2
      vertex -3.50523 -5.32701 60
      vertex -3.50523 -5.32701 2
    endloop
  endfacet
  facet normal -0.218161 0.975913 0
    outer loop
      vertex 4.99476 -7.27433 2
      vertex 4.74953 -7.32915 60
      vertex 4.99476 -7.27433 60
    endloop
  endfacet
  facet normal -0.218161 0.975913 0
    outer loop
      vertex 4.74953 -7.32915 60
      vertex 4.99476 -7.27433 2
      vertex 4.74953 -7.32915 2
    endloop
  endfacet
  facet normal 0.338738 0.940881 -0
    outer loop
      vertex -1.23607 -7.20423 2
      vertex -1.4725 -7.11911 60
      vertex -1.23607 -7.20423 60
    endloop
  endfacet
  facet normal 0.338738 0.940881 0
    outer loop
      vertex -1.4725 -7.11911 60
      vertex -1.23607 -7.20423 2
      vertex -1.4725 -7.11911 2
    endloop
  endfacet
  facet normal 0.509043 0.860741 -0
    outer loop
      vertex -1.92701 -6.90523 2
      vertex -2.14331 -6.77731 60
      vertex -1.92701 -6.90523 60
    endloop
  endfacet
  facet normal 0.509043 0.860741 0
    outer loop
      vertex -2.14331 -6.77731 60
      vertex -1.92701 -6.90523 2
      vertex -2.14331 -6.77731 2
    endloop
  endfacet
  facet normal 0.750121 0.6613 0
    outer loop
      vertex -2.91587 -6.13819 60
      vertex -3.08205 -5.94969 2
      vertex -3.08205 -5.94969 60
    endloop
  endfacet
  facet normal 0.750121 0.6613 0
    outer loop
      vertex -3.08205 -5.94969 2
      vertex -2.91587 -6.13819 60
      vertex -2.91587 -6.13819 2
    endloop
  endfacet
  facet normal 0.960301 0.278965 0
    outer loop
      vertex -3.80423 -4.63607 60
      vertex -3.87433 -4.39476 2
      vertex -3.87433 -4.39476 60
    endloop
  endfacet
  facet normal 0.960301 0.278965 0
    outer loop
      vertex -3.87433 -4.39476 2
      vertex -3.80423 -4.63607 60
      vertex -3.80423 -4.63607 2
    endloop
  endfacet
  facet normal 0.995561 0.0941161 0
    outer loop
      vertex -3.96846 -3.90133 60
      vertex -3.99211 -3.65116 2
      vertex -3.99211 -3.65116 60
    endloop
  endfacet
  facet normal 0.995561 0.0941161 0
    outer loop
      vertex -3.99211 -3.65116 2
      vertex -3.96846 -3.90133 60
      vertex -3.96846 -3.90133 2
    endloop
  endfacet
  facet normal 0.940881 0.338738 0
    outer loop
      vertex -3.71911 -4.8725 60
      vertex -3.80423 -4.63607 2
      vertex -3.80423 -4.63607 60
    endloop
  endfacet
  facet normal 0.940881 0.338738 0
    outer loop
      vertex -3.80423 -4.63607 2
      vertex -3.71911 -4.8725 60
      vertex -3.71911 -4.8725 2
    endloop
  endfacet
  facet normal -0.278965 0.960301 0
    outer loop
      vertex 5.23607 -7.20423 2
      vertex 4.99476 -7.27433 60
      vertex 5.23607 -7.20423 60
    endloop
  endfacet
  facet normal -0.278965 0.960301 0
    outer loop
      vertex 4.99476 -7.27433 60
      vertex 5.23607 -7.20423 2
      vertex 4.99476 -7.27433 2
    endloop
  endfacet
  facet normal -0.509043 0.860741 0
    outer loop
      vertex 6.14331 -6.77731 2
      vertex 5.92701 -6.90523 60
      vertex 6.14331 -6.77731 60
    endloop
  endfacet
  facet normal -0.509043 0.860741 0
    outer loop
      vertex 5.92701 -6.90523 60
      vertex 6.14331 -6.77731 2
      vertex 5.92701 -6.90523 2
    endloop
  endfacet
  facet normal -0.827083 0.56208 0
    outer loop
      vertex 7.23607 -5.75114 2
      vertex 7.37731 -5.54331 60
      vertex 7.37731 -5.54331 2
    endloop
  endfacet
  facet normal -0.827083 0.56208 0
    outer loop
      vertex 7.37731 -5.54331 60
      vertex 7.23607 -5.75114 2
      vertex 7.23607 -5.75114 60
    endloop
  endfacet
  facet normal -0.860741 0.509043 0
    outer loop
      vertex 7.37731 -5.54331 2
      vertex 7.50523 -5.32701 60
      vertex 7.50523 -5.32701 2
    endloop
  endfacet
  facet normal -0.860741 0.509043 0
    outer loop
      vertex 7.50523 -5.32701 60
      vertex 7.37731 -5.54331 2
      vertex 7.37731 -5.54331 60
    endloop
  endfacet
  facet normal -0.0941161 0.995561 0
    outer loop
      vertex 4.50133 -7.36846 2
      vertex 4.25116 -7.39211 60
      vertex 4.50133 -7.36846 60
    endloop
  endfacet
  facet normal -0.0941161 0.995561 0
    outer loop
      vertex 4.25116 -7.39211 60
      vertex 4.50133 -7.36846 2
      vertex 4.25116 -7.39211 2
    endloop
  endfacet
  facet normal 0.156435 0.987688 -0
    outer loop
      vertex -0.501332 -7.36846 2
      vertex -0.749525 -7.32915 60
      vertex -0.501332 -7.36846 60
    endloop
  endfacet
  facet normal 0.156435 0.987688 0
    outer loop
      vertex -0.749525 -7.32915 60
      vertex -0.501332 -7.36846 2
      vertex -0.749525 -7.32915 2
    endloop
  endfacet
  facet normal 0.0313985 0.999507 -0
    outer loop
      vertex 0 -7.4 2
      vertex -0.251162 -7.39211 60
      vertex 0 -7.4 60
    endloop
  endfacet
  facet normal 0.0313985 0.999507 0
    outer loop
      vertex -0.251162 -7.39211 60
      vertex 0 -7.4 2
      vertex -0.251162 -7.39211 2
    endloop
  endfacet
  facet normal 0.278964 0.960301 -0
    outer loop
      vertex -0.994759 -7.27433 2
      vertex -1.23607 -7.20423 60
      vertex -0.994759 -7.27433 60
    endloop
  endfacet
  facet normal 0.278964 0.960301 0
    outer loop
      vertex -1.23607 -7.20423 60
      vertex -0.994759 -7.27433 2
      vertex -1.23607 -7.20423 2
    endloop
  endfacet
  facet normal 0.397154 0.917752 -0
    outer loop
      vertex -1.4725 -7.11911 2
      vertex -1.70312 -7.01931 60
      vertex -1.4725 -7.11911 60
    endloop
  endfacet
  facet normal 0.397154 0.917752 0
    outer loop
      vertex -1.70312 -7.01931 60
      vertex -1.4725 -7.11911 2
      vertex -1.70312 -7.01931 2
    endloop
  endfacet
  facet normal 0.66132 0.750104 -0
    outer loop
      vertex -2.5497 -6.48205 2
      vertex -2.73819 -6.31587 60
      vertex -2.5497 -6.48205 60
    endloop
  endfacet
  facet normal 0.66132 0.750104 0
    outer loop
      vertex -2.73819 -6.31587 60
      vertex -2.5497 -6.48205 2
      vertex -2.73819 -6.31587 2
    endloop
  endfacet
  facet normal 0.61291 0.790153 -0
    outer loop
      vertex -2.35114 -6.63607 2
      vertex -2.5497 -6.48205 60
      vertex -2.35114 -6.63607 60
    endloop
  endfacet
  facet normal 0.61291 0.790153 0
    outer loop
      vertex -2.5497 -6.48205 60
      vertex -2.35114 -6.63607 2
      vertex -2.5497 -6.48205 2
    endloop
  endfacet
  facet normal 0.790138 0.612929 0
    outer loop
      vertex -3.08205 -5.94969 60
      vertex -3.23607 -5.75114 2
      vertex -3.23607 -5.75114 60
    endloop
  endfacet
  facet normal 0.790138 0.612929 0
    outer loop
      vertex -3.23607 -5.75114 2
      vertex -3.08205 -5.94969 60
      vertex -3.08205 -5.94969 2
    endloop
  endfacet
  facet normal 0.917752 0.397154 0
    outer loop
      vertex -3.61931 -5.10312 60
      vertex -3.71911 -4.8725 2
      vertex -3.71911 -4.8725 60
    endloop
  endfacet
  facet normal 0.917752 0.397154 0
    outer loop
      vertex -3.71911 -4.8725 2
      vertex -3.61931 -5.10312 60
      vertex -3.61931 -5.10312 2
    endloop
  endfacet
  facet normal -0.156431 0.987689 0
    outer loop
      vertex 4.74953 -7.32915 2
      vertex 4.50133 -7.36846 60
      vertex 4.74953 -7.32915 60
    endloop
  endfacet
  facet normal -0.156431 0.987689 0
    outer loop
      vertex 4.50133 -7.36846 60
      vertex 4.74953 -7.32915 2
      vertex 4.50133 -7.36846 2
    endloop
  endfacet
  facet normal -0.61291 0.790153 0
    outer loop
      vertex 6.5497 -6.48205 2
      vertex 6.35114 -6.63607 60
      vertex 6.5497 -6.48205 60
    endloop
  endfacet
  facet normal -0.61291 0.790153 0
    outer loop
      vertex 6.35114 -6.63607 60
      vertex 6.5497 -6.48205 2
      vertex 6.35114 -6.63607 2
    endloop
  endfacet
  facet normal -0.56208 0.827083 0
    outer loop
      vertex 6.35114 -6.63607 2
      vertex 6.14331 -6.77731 60
      vertex 6.35114 -6.63607 60
    endloop
  endfacet
  facet normal -0.56208 0.827083 0
    outer loop
      vertex 6.14331 -6.77731 60
      vertex 6.35114 -6.63607 2
      vertex 6.14331 -6.77731 2
    endloop
  endfacet
  facet normal -0.397154 0.917752 0
    outer loop
      vertex 5.70312 -7.01931 2
      vertex 5.4725 -7.11911 60
      vertex 5.70312 -7.01931 60
    endloop
  endfacet
  facet normal -0.397154 0.917752 0
    outer loop
      vertex 5.4725 -7.11911 60
      vertex 5.70312 -7.01931 2
      vertex 5.4725 -7.11911 2
    endloop
  endfacet
  facet normal -0.338738 0.940881 0
    outer loop
      vertex 5.4725 -7.11911 2
      vertex 5.23607 -7.20423 60
      vertex 5.4725 -7.11911 60
    endloop
  endfacet
  facet normal -0.338738 0.940881 0
    outer loop
      vertex 5.23607 -7.20423 60
      vertex 5.4725 -7.11911 2
      vertex 5.23607 -7.20423 2
    endloop
  endfacet
  facet normal -0.790138 0.612929 0
    outer loop
      vertex 7.08205 -5.94969 2
      vertex 7.23607 -5.75114 60
      vertex 7.23607 -5.75114 2
    endloop
  endfacet
  facet normal -0.790138 0.612929 0
    outer loop
      vertex 7.23607 -5.75114 60
      vertex 7.08205 -5.94969 2
      vertex 7.08205 -5.94969 60
    endloop
  endfacet
  facet normal -0.891003 0.453998 0
    outer loop
      vertex 7.50523 -5.32701 2
      vertex 7.61931 -5.10312 60
      vertex 7.61931 -5.10312 2
    endloop
  endfacet
  facet normal -0.891003 0.453998 0
    outer loop
      vertex 7.61931 -5.10312 60
      vertex 7.50523 -5.32701 2
      vertex 7.50523 -5.32701 60
    endloop
  endfacet
  facet normal -0.917768 0.397118 0
    outer loop
      vertex 7.61931 -5.10312 2
      vertex 7.66393 -5 60
      vertex 7.66393 -5 2
    endloop
  endfacet
  facet normal -0.917768 0.397118 0
    outer loop
      vertex 7.66393 -5 60
      vertex 7.61931 -5.10312 2
      vertex 7.61931 -5.10312 60
    endloop
  endfacet
  facet normal -0.707107 0.707107 0
    outer loop
      vertex 6.73819 -6.31587 2
      vertex 6.91587 -6.13819 60
      vertex 6.91587 -6.13819 2
    endloop
  endfacet
  facet normal -0.707107 0.707107 0
    outer loop
      vertex 6.91587 -6.13819 60
      vertex 6.73819 -6.31587 2
      vertex 6.73819 -6.31587 60
    endloop
  endfacet
  facet normal 0.0941161 0.995561 -0
    outer loop
      vertex -0.251162 -7.39211 2
      vertex -0.501332 -7.36846 60
      vertex -0.251162 -7.39211 60
    endloop
  endfacet
  facet normal 0.0941161 0.995561 0
    outer loop
      vertex -0.501332 -7.36846 60
      vertex -0.251162 -7.39211 2
      vertex -0.501332 -7.36846 2
    endloop
  endfacet
  facet normal -0.66132 0.750104 0
    outer loop
      vertex 6.73819 -6.31587 2
      vertex 6.5497 -6.48205 60
      vertex 6.73819 -6.31587 60
    endloop
  endfacet
  facet normal -0.66132 0.750104 0
    outer loop
      vertex 6.5497 -6.48205 60
      vertex 6.73819 -6.31587 2
      vertex 6.5497 -6.48205 2
    endloop
  endfacet
  facet normal -0.453998 0.891003 0
    outer loop
      vertex 5.92701 -6.90523 2
      vertex 5.70312 -7.01931 60
      vertex 5.92701 -6.90523 60
    endloop
  endfacet
  facet normal -0.453998 0.891003 0
    outer loop
      vertex 5.70312 -7.01931 60
      vertex 5.92701 -6.90523 2
      vertex 5.70312 -7.01931 2
    endloop
  endfacet
  facet normal -0.750121 0.6613 0
    outer loop
      vertex 6.91587 -6.13819 2
      vertex 7.08205 -5.94969 60
      vertex 7.08205 -5.94969 2
    endloop
  endfacet
  facet normal -0.750121 0.6613 0
    outer loop
      vertex 7.08205 -5.94969 60
      vertex 6.91587 -6.13819 2
      vertex 6.91587 -6.13819 60
    endloop
  endfacet
  facet normal 0 0 -1
    outer loop
      vertex -9 -4 4
      vertex -6 4 4
      vertex -6 -4 4
    endloop
  endfacet
  facet normal -0 0 -1
    outer loop
      vertex -6 4 4
      vertex -9 -4 4
      vertex -9 4 4
    endloop
  endfacet
  facet normal 0 1 -0
    outer loop
      vertex 9.09637 -5 2
      vertex 7.66393 -5 60
      vertex 9.09637 -5 60
    endloop
  endfacet
  facet normal 0 1 0
    outer loop
      vertex 7.66393 -5 60
      vertex 9.09637 -5 2
      vertex 7.66393 -5 2
    endloop
  endfacet
  facet normal -1 0 0
    outer loop
      vertex -8.8 -3.8 60
      vertex -8.8 3.8 62
      vertex -8.8 3.8 60
    endloop
  endfacet
  facet normal -1 -0 0
    outer loop
      vertex -8.8 3.8 62
      vertex -8.8 -3.8 60
      vertex -8.8 -3.8 62
    endloop
  endfacet
  facet normal -0 0 1
    outer loop
      vertex -8.8 3.8 62
      vertex -6.2 -3.8 62
      vertex -6.2 3.8 62
    endloop
  endfacet
  facet normal 0 0 1
    outer loop
      vertex -6.2 -3.8 62
      vertex -8.8 3.8 62
      vertex -8.8 -3.8 62
    endloop
  endfacet
  facet normal 1 -0 0
    outer loop
      vertex -6.2 -3.8 62
      vertex -6.2 3.8 60
      vertex -6.2 3.8 62
    endloop
  endfacet
  facet normal 1 0 0
    outer loop
      vertex -6.2 3.8 60
      vertex -6.2 -3.8 62
      vertex -6.2 -3.8 60
    endloop
  endfacet
  facet normal 0 1 -0
    outer loop
      vertex -6.2 3.8 60
      vertex -8.8 3.8 62
      vertex -6.2 3.8 62
    endloop
  endfacet
  facet normal 0 1 0
    outer loop
      vertex -8.8 3.8 62
      vertex -6.2 3.8 60
      vertex -8.8 3.8 60
    endloop
  endfacet
  facet normal 0 -1 0
    outer loop
      vertex -8.8 -3.8 60
      vertex -6.2 -3.8 62
      vertex -8.8 -3.8 62
    endloop
  endfacet
  facet normal 0 -1 -0
    outer loop
      vertex -6.2 -3.8 62
      vertex -8.8 -3.8 60
      vertex -6.2 -3.8 60
    endloop
  endfacet
endsolid OpenSCAD_Model
