solid OpenSCAD_Model
  facet normal 0.999508 0.0313726 0
    outer loop
      vertex 10.3 0 2
      vertex 10.2797 0.646742 0
      vertex 10.2797 0.646742 2
    endloop
  endfacet
  facet normal 0.999508 0.0313726 0
    outer loop
      vertex 10.2797 0.646742 0
      vertex 10.3 0 2
      vertex 10.3 0 0
    endloop
  endfacet
  facet normal -0.999508 0.0313726 0
    outer loop
      vertex -10.3 0 0
      vertex -10.2797 0.646742 25
      vertex -10.2797 0.646742 0
    endloop
  endfacet
  facet normal -0.999508 0.0313726 0
    outer loop
      vertex -10.2797 0.646742 25
      vertex -10.3 0 0
      vertex -10.3 0 25
    endloop
  endfacet
  facet normal 0.0313726 0.999508 -0
    outer loop
      vertex 0.646742 10.2797 0
      vertex 0 10.3 2
      vertex 0.646742 10.2797 2
    endloop
  endfacet
  facet normal 0.0313726 0.999508 0
    outer loop
      vertex 0 10.3 2
      vertex 0.646742 10.2797 0
      vertex 0 10.3 0
    endloop
  endfacet
  facet normal 0.707107 0.707107 0
    outer loop
      vertex 7.50838 7.05083 2
      vertex 7.05083 7.50838 0
      vertex 7.05083 7.50838 2
    endloop
  endfacet
  facet normal 0.707107 0.707107 0
    outer loop
      vertex 7.05083 7.50838 0
      vertex 7.50838 7.05083 2
      vertex 7.50838 7.05083 0
    endloop
  endfacet
  facet normal -0.661318 0.750105 0
    outer loop
      vertex -6.56547 7.93629 0
      vertex -7.05083 7.50838 25
      vertex -6.56547 7.93629 25
    endloop
  endfacet
  facet normal -0.661318 0.750105 0
    outer loop
      vertex -7.05083 7.50838 25
      vertex -6.56547 7.93629 0
      vertex -7.05083 7.50838 0
    endloop
  endfacet
  facet normal -0.975904 -0.218198 0
    outer loop
      vertex -9.97641 -2.56151 0
      vertex -10.1176 -1.93003 25
      vertex -10.1176 -1.93003 0
    endloop
  endfacet
  facet normal -0.975904 -0.218198 0
    outer loop
      vertex -10.1176 -1.93003 25
      vertex -9.97641 -2.56151 0
      vertex -9.97641 -2.56151 25
    endloop
  endfacet
  facet normal 0.917756 0.397145 0
    outer loop
      vertex 9.5767 3.79168 2
      vertex 9.31972 4.38553 0
      vertex 9.31972 4.38553 2
    endloop
  endfacet
  facet normal 0.917756 0.397145 0
    outer loop
      vertex 9.31972 4.38553 0
      vertex 9.5767 3.79168 2
      vertex 9.5767 3.79168 0
    endloop
  endfacet
  facet normal 0.397145 0.917756 -0
    outer loop
      vertex 4.38553 9.31972 0
      vertex 3.79168 9.5767 2
      vertex 4.38553 9.31972 2
    endloop
  endfacet
  facet normal 0.397145 0.917756 0
    outer loop
      vertex 3.79168 9.5767 2
      vertex 4.38553 9.31972 0
      vertex 3.79168 9.5767 0
    endloop
  endfacet
  facet normal -0.790162 0.612898 0
    outer loop
      vertex -8.33287 6.05419 0
      vertex -7.93629 6.56547 25
      vertex -7.93629 6.56547 0
    endloop
  endfacet
  facet normal -0.790162 0.612898 0
    outer loop
      vertex -7.93629 6.56547 25
      vertex -8.33287 6.05419 0
      vertex -8.33287 6.05419 25
    endloop
  endfacet
  facet normal 0.860748 -0.509032 0
    outer loop
      vertex 9.00352 -5 25
      vertex 8.69658 -5.51902 25
      vertex 9.00352 -5 2
    endloop
  endfacet
  facet normal 0.860719 -0.509081 0
    outer loop
      vertex 9.00352 -5 2
      vertex 9.02596 -4.96206 0
      vertex 9.02596 -4.96206 2
    endloop
  endfacet
  facet normal 0.860748 -0.509032 0
    outer loop
      vertex 8.69658 -5.51902 0
      vertex 9.00352 -5 2
      vertex 8.69658 -5.51902 25
    endloop
  endfacet
  facet normal 0.860746 -0.509035 1.16309e-06
    outer loop
      vertex 9.00352 -5 2
      vertex 8.69658 -5.51902 0
      vertex 9.02596 -4.96206 0
    endloop
  endfacet
  facet normal 0.218198 -0.975904 0
    outer loop
      vertex 1.93003 -10.1176 0
      vertex 2.56151 -9.97641 25
      vertex 1.93003 -10.1176 25
    endloop
  endfacet
  facet normal 0.218198 -0.975904 0
    outer loop
      vertex 2.56151 -9.97641 25
      vertex 1.93003 -10.1176 0
      vertex 2.56151 -9.97641 0
    endloop
  endfacet
  facet normal 0.707107 -0.707107 0
    outer loop
      vertex 7.05083 -7.50838 25
      vertex 7.50838 -7.05083 0
      vertex 7.50838 -7.05083 25
    endloop
  endfacet
  facet normal 0.707107 -0.707107 0
    outer loop
      vertex 7.50838 -7.05083 0
      vertex 7.05083 -7.50838 25
      vertex 7.05083 -7.50838 0
    endloop
  endfacet
  facet normal 0.790162 -0.612898 0
    outer loop
      vertex 7.93629 -6.56547 25
      vertex 8.33287 -6.05419 0
      vertex 8.33287 -6.05419 25
    endloop
  endfacet
  facet normal 0.790162 -0.612898 0
    outer loop
      vertex 8.33287 -6.05419 0
      vertex 7.93629 -6.56547 25
      vertex 7.93629 -6.56547 0
    endloop
  endfacet
  facet normal -0.397145 -0.917756 0
    outer loop
      vertex -4.38553 -9.31972 0
      vertex -3.79168 -9.5767 25
      vertex -4.38553 -9.31972 25
    endloop
  endfacet
  facet normal -0.397145 -0.917756 -0
    outer loop
      vertex -3.79168 -9.5767 25
      vertex -4.38553 -9.31972 0
      vertex -3.79168 -9.5767 0
    endloop
  endfacet
  facet normal -0.750105 -0.661318 0
    outer loop
      vertex -7.50838 -7.05083 0
      vertex -7.93629 -6.56547 25
      vertex -7.93629 -6.56547 0
    endloop
  endfacet
  facet normal -0.750105 -0.661318 0
    outer loop
      vertex -7.93629 -6.56547 25
      vertex -7.50838 -7.05083 0
      vertex -7.50838 -7.05083 25
    endloop
  endfacet
  facet normal -0.995561 -0.094118 0
    outer loop
      vertex -10.2188 -1.29093 0
      vertex -10.2797 -0.646742 25
      vertex -10.2797 -0.646742 0
    endloop
  endfacet
  facet normal -0.995561 -0.094118 0
    outer loop
      vertex -10.2797 -0.646742 25
      vertex -10.2188 -1.29093 0
      vertex -10.2188 -1.29093 25
    endloop
  endfacet
  facet normal 0 0 -1
    outer loop
      vertex -6.56547 7.93629 0
      vertex -4 4 0
      vertex -6 4 0
    endloop
  endfacet
  facet normal 0 0 -1
    outer loop
      vertex -4 4 0
      vertex -6.05419 8.33287 0
      vertex -5.51902 8.69658 0
    endloop
  endfacet
  facet normal 0 0 -1
    outer loop
      vertex -4 4 0
      vertex -6.56547 7.93629 0
      vertex -6.05419 8.33287 0
    endloop
  endfacet
  facet normal 0 0 -1
    outer loop
      vertex -6 4 0
      vertex -7.05083 7.50838 0
      vertex -6.56547 7.93629 0
    endloop
  endfacet
  facet normal 0 0 -1
    outer loop
      vertex -6 4 0
      vertex -7.50838 7.05083 0
      vertex -7.05083 7.50838 0
    endloop
  endfacet
  facet normal 0 0 -1
    outer loop
      vertex -6 4 0
      vertex -7.93629 6.56547 0
      vertex -7.50838 7.05083 0
    endloop
  endfacet
  facet normal 0 0 -1
    outer loop
      vertex -6 4 0
      vertex -8.33287 6.05419 0
      vertex -7.93629 6.56547 0
    endloop
  endfacet
  facet normal 0 0 -1
    outer loop
      vertex -6 4 0
      vertex -8.69658 5.51902 0
      vertex -8.33287 6.05419 0
    endloop
  endfacet
  facet normal 0 0 -1
    outer loop
      vertex -9 4 0
      vertex -8.69658 5.51902 0
      vertex -6 4 0
    endloop
  endfacet
  facet normal 0 0 -1
    outer loop
      vertex -9 4 0
      vertex -9.02596 4.96206 0
      vertex -8.69658 5.51902 0
    endloop
  endfacet
  facet normal 0 0 -1
    outer loop
      vertex -9.5767 -3.79168 0
      vertex -9 -4 0
      vertex -9.31972 -4.38553 0
    endloop
  endfacet
  facet normal 0 0 -1
    outer loop
      vertex -9.79588 -3.18287 0
      vertex -9 -4 0
      vertex -9.5767 -3.79168 0
    endloop
  endfacet
  facet normal 0 0 -1
    outer loop
      vertex -9 4 0
      vertex -9.31972 4.38553 0
      vertex -9.02596 4.96206 0
    endloop
  endfacet
  facet normal 0 0 -1
    outer loop
      vertex -9.97641 -2.56151 0
      vertex -9 -4 0
      vertex -9.79588 -3.18287 0
    endloop
  endfacet
  facet normal -0 0 -1
    outer loop
      vertex -9 4 0
      vertex -9.5767 3.79168 0
      vertex -9.31972 4.38553 0
    endloop
  endfacet
  facet normal 0 0 -1
    outer loop
      vertex -10.1176 -1.93003 0
      vertex -9 -4 0
      vertex -9.97641 -2.56151 0
    endloop
  endfacet
  facet normal 0 0 -1
    outer loop
      vertex -9 4 0
      vertex -9.79588 3.18287 0
      vertex -9.5767 3.79168 0
    endloop
  endfacet
  facet normal 0 0 -1
    outer loop
      vertex -10.2188 -1.29093 0
      vertex -9 -4 0
      vertex -10.1176 -1.93003 0
    endloop
  endfacet
  facet normal 0 0 -1
    outer loop
      vertex -9 4 0
      vertex -9.97641 2.56151 0
      vertex -9.79588 3.18287 0
    endloop
  endfacet
  facet normal 0 0 -1
    outer loop
      vertex -10.2797 -0.646742 0
      vertex -9 -4 0
      vertex -10.2188 -1.29093 0
    endloop
  endfacet
  facet normal 0 0 -1
    outer loop
      vertex -9 4 0
      vertex -10.1176 1.93003 0
      vertex -9.97641 2.56151 0
    endloop
  endfacet
  facet normal 0 0 -1
    outer loop
      vertex -10.3 0 0
      vertex -9 -4 0
      vertex -10.2797 -0.646742 0
    endloop
  endfacet
  facet normal 0 0 -1
    outer loop
      vertex -9 4 0
      vertex -10.2188 1.29093 0
      vertex -10.1176 1.93003 0
    endloop
  endfacet
  facet normal 0 0 -1
    outer loop
      vertex -9 -4 0
      vertex -10.3 0 0
      vertex -9 4 0
    endloop
  endfacet
  facet normal 0 0 -1
    outer loop
      vertex -9 4 0
      vertex -10.2797 0.646742 0
      vertex -10.2188 1.29093 0
    endloop
  endfacet
  facet normal 0 0 -1
    outer loop
      vertex -9 4 0
      vertex -10.3 0 0
      vertex -10.2797 0.646742 0
    endloop
  endfacet
  facet normal 0 0 -1
    outer loop
      vertex 3 -3 0
      vertex 10.3 0 0
      vertex 10.2797 -0.646742 0
    endloop
  endfacet
  facet normal 0 0 -1
    outer loop
      vertex 3 -3 0
      vertex 10.2797 -0.646742 0
      vertex 10.2188 -1.29093 0
    endloop
  endfacet
  facet normal -0 0 -1
    outer loop
      vertex 10.3 0 0
      vertex 3 -3 0
      vertex 10.2797 0.646742 0
    endloop
  endfacet
  facet normal 0 0 -1
    outer loop
      vertex 3 -3 0
      vertex 10.2188 -1.29093 0
      vertex 10.1176 -1.93003 0
    endloop
  endfacet
  facet normal 0 0 -1
    outer loop
      vertex 3 4 0
      vertex 10.2797 0.646742 0
      vertex 3 -3 0
    endloop
  endfacet
  facet normal 0 0 -1
    outer loop
      vertex 3 -3 0
      vertex 10.1176 -1.93003 0
      vertex 9.97641 -2.56151 0
    endloop
  endfacet
  facet normal 0 0 -1
    outer loop
      vertex 10.2797 0.646742 0
      vertex 3 4 0
      vertex 10.2188 1.29093 0
    endloop
  endfacet
  facet normal 0 0 -1
    outer loop
      vertex 3 -3 0
      vertex 9.97641 -2.56151 0
      vertex 9.79588 -3.18287 0
    endloop
  endfacet
  facet normal 0 0 -1
    outer loop
      vertex 10.2188 1.29093 0
      vertex 3 4 0
      vertex 10.1176 1.93003 0
    endloop
  endfacet
  facet normal 0 0 -1
    outer loop
      vertex 3 -3 0
      vertex 9.79588 -3.18287 0
      vertex 9.5767 -3.79168 0
    endloop
  endfacet
  facet normal 0 0 -1
    outer loop
      vertex 10.1176 1.93003 0
      vertex 3 4 0
      vertex 9.97641 2.56151 0
    endloop
  endfacet
  facet normal 0 0 -1
    outer loop
      vertex 3 -3 0
      vertex 9.5767 -3.79168 0
      vertex 9.31972 -4.38553 0
    endloop
  endfacet
  facet normal 0 0 -1
    outer loop
      vertex 9.97641 2.56151 0
      vertex 3 4 0
      vertex 9.79588 3.18287 0
    endloop
  endfacet
  facet normal 0 0 -1
    outer loop
      vertex 3 -3 0
      vertex 9.31972 -4.38553 0
      vertex 9.02596 -4.96206 0
    endloop
  endfacet
  facet normal 0 0 -1
    outer loop
      vertex 9.79588 3.18287 0
      vertex 3 4 0
      vertex 9.5767 3.79168 0
    endloop
  endfacet
  facet normal 0 0 -1
    outer loop
      vertex 3 -3 0
      vertex 9.02596 -4.96206 0
      vertex 8.69658 -5.51902 0
    endloop
  endfacet
  facet normal 0 0 -1
    outer loop
      vertex 9.5767 3.79168 0
      vertex 3 4 0
      vertex 9.31972 4.38553 0
    endloop
  endfacet
  facet normal 0 0 -1
    outer loop
      vertex 3 -3 0
      vertex 8.69658 -5.51902 0
      vertex 8.33287 -6.05419 0
    endloop
  endfacet
  facet normal -0 0 -1
    outer loop
      vertex 9.31972 4.38553 0
      vertex 3 4 0
      vertex 9.02596 4.96206 0
    endloop
  endfacet
  facet normal 0 0 -1
    outer loop
      vertex 3 -3 0
      vertex 8.33287 -6.05419 0
      vertex 7.93629 -6.56547 0
    endloop
  endfacet
  facet normal -0 0 -1
    outer loop
      vertex 9.02596 4.96206 0
      vertex 3 4 0
      vertex 8.69658 5.51902 0
    endloop
  endfacet
  facet normal 0 0 -1
    outer loop
      vertex 3 -3 0
      vertex 7.93629 -6.56547 0
      vertex 7.50838 -7.05083 0
    endloop
  endfacet
  facet normal -0 0 -1
    outer loop
      vertex 8.69658 5.51902 0
      vertex 3 4 0
      vertex 8.33287 6.05419 0
    endloop
  endfacet
  facet normal 0 0 -1
    outer loop
      vertex 3 -3 0
      vertex 7.50838 -7.05083 0
      vertex 7.05083 -7.50838 0
    endloop
  endfacet
  facet normal -0 0 -1
    outer loop
      vertex 8.33287 6.05419 0
      vertex 3 4 0
      vertex 7.93629 6.56547 0
    endloop
  endfacet
  facet normal 0 0 -1
    outer loop
      vertex 3 -3 0
      vertex 7.05083 -7.50838 0
      vertex 6.56547 -7.93629 0
    endloop
  endfacet
  facet normal -0 0 -1
    outer loop
      vertex 7.93629 6.56547 0
      vertex 3 4 0
      vertex 7.50838 7.05083 0
    endloop
  endfacet
  facet normal 0 0 -1
    outer loop
      vertex 3 -3 0
      vertex 6.56547 -7.93629 0
      vertex 6.05419 -8.33287 0
    endloop
  endfacet
  facet normal -0 0 -1
    outer loop
      vertex 7.50838 7.05083 0
      vertex 3 4 0
      vertex 7.05083 7.50838 0
    endloop
  endfacet
  facet normal 0 0 -1
    outer loop
      vertex 3 -3 0
      vertex 6.05419 -8.33287 0
      vertex 5.51902 -8.69658 0
    endloop
  endfacet
  facet normal -0 0 -1
    outer loop
      vertex 7.05083 7.50838 0
      vertex 3 4 0
      vertex 6.56547 7.93629 0
    endloop
  endfacet
  facet normal 0 0 -1
    outer loop
      vertex 3 -3 0
      vertex 5.51902 -8.69658 0
      vertex 4.96206 -9.02596 0
    endloop
  endfacet
  facet normal -0 0 -1
    outer loop
      vertex 6.56547 7.93629 0
      vertex 3 4 0
      vertex 6.05419 8.33287 0
    endloop
  endfacet
  facet normal 0 0 -1
    outer loop
      vertex 3 -3 0
      vertex 4.96206 -9.02596 0
      vertex 4.38553 -9.31972 0
    endloop
  endfacet
  facet normal -0 0 -1
    outer loop
      vertex 6.05419 8.33287 0
      vertex 3 4 0
      vertex 5.51902 8.69658 0
    endloop
  endfacet
  facet normal 0 0 -1
    outer loop
      vertex 3 -3 0
      vertex 4.38553 -9.31972 0
      vertex 3.79168 -9.5767 0
    endloop
  endfacet
  facet normal -0 0 -1
    outer loop
      vertex 5.51902 8.69658 0
      vertex 3 4 0
      vertex 4.96206 9.02596 0
    endloop
  endfacet
  facet normal 0 0 -1
    outer loop
      vertex 3 -3 0
      vertex 3.79168 -9.5767 0
      vertex 3.18287 -9.79588 0
    endloop
  endfacet
  facet normal -0 0 -1
    outer loop
      vertex 4.96206 9.02596 0
      vertex 3 4 0
      vertex 4.38553 9.31972 0
    endloop
  endfacet
  facet normal -0 0 -1
    outer loop
      vertex 4.38553 9.31972 0
      vertex 3 4 0
      vertex 3.79168 9.5767 0
    endloop
  endfacet
  facet normal 0 0 -1
    outer loop
      vertex 2.56151 -9.97641 0
      vertex 3 -3 0
      vertex 3.18287 -9.79588 0
    endloop
  endfacet
  facet normal 0 0 -1
    outer loop
      vertex 1.93003 -10.1176 0
      vertex 3 -3 0
      vertex 2.56151 -9.97641 0
    endloop
  endfacet
  facet normal 0 0 -1
    outer loop
      vertex 1.29093 -10.2188 0
      vertex 3 -3 0
      vertex 1.93003 -10.1176 0
    endloop
  endfacet
  facet normal 0 0 -1
    outer loop
      vertex 0.646742 -10.2797 0
      vertex 3 -3 0
      vertex 1.29093 -10.2188 0
    endloop
  endfacet
  facet normal 0 0 -1
    outer loop
      vertex 0 -10.3 0
      vertex 3 -3 0
      vertex 0.646742 -10.2797 0
    endloop
  endfacet
  facet normal 0 0 -1
    outer loop
      vertex -0.646742 -10.2797 0
      vertex 3 -3 0
      vertex 0 -10.3 0
    endloop
  endfacet
  facet normal 0 0 -1
    outer loop
      vertex -4 -3 0
      vertex -0.646742 -10.2797 0
      vertex -1.29093 -10.2188 0
    endloop
  endfacet
  facet normal 0 0 -1
    outer loop
      vertex -4 -3 0
      vertex -1.29093 -10.2188 0
      vertex -1.93003 -10.1176 0
    endloop
  endfacet
  facet normal 0 0 -1
    outer loop
      vertex -4 -3 0
      vertex -1.93003 -10.1176 0
      vertex -2.56151 -9.97641 0
    endloop
  endfacet
  facet normal 0 0 -1
    outer loop
      vertex -4 -3 0
      vertex -2.56151 -9.97641 0
      vertex -3.18287 -9.79588 0
    endloop
  endfacet
  facet normal 0 0 -1
    outer loop
      vertex -4 -3 0
      vertex -3.18287 -9.79588 0
      vertex -3.79168 -9.5767 0
    endloop
  endfacet
  facet normal 0 0 -1
    outer loop
      vertex -0.646742 -10.2797 0
      vertex -4 -3 0
      vertex 3 -3 0
    endloop
  endfacet
  facet normal 0 0 -1
    outer loop
      vertex -4.96206 -9.02596 0
      vertex -4 -3 0
      vertex -4.38553 -9.31972 0
    endloop
  endfacet
  facet normal 0 0 -1
    outer loop
      vertex -4.38553 -9.31972 0
      vertex -4 -3 0
      vertex -3.79168 -9.5767 0
    endloop
  endfacet
  facet normal -0 0 -1
    outer loop
      vertex 3.79168 9.5767 0
      vertex 3 4 0
      vertex 3.18287 9.79588 0
    endloop
  endfacet
  facet normal 0 0 -1
    outer loop
      vertex 3 4 0
      vertex 2.56151 9.97641 0
      vertex 3.18287 9.79588 0
    endloop
  endfacet
  facet normal 0 0 -1
    outer loop
      vertex 3 4 0
      vertex 1.93003 10.1176 0
      vertex 2.56151 9.97641 0
    endloop
  endfacet
  facet normal 0 0 -1
    outer loop
      vertex 3 4 0
      vertex 1.29093 10.2188 0
      vertex 1.93003 10.1176 0
    endloop
  endfacet
  facet normal 0 0 -1
    outer loop
      vertex 3 4 0
      vertex 0.646742 10.2797 0
      vertex 1.29093 10.2188 0
    endloop
  endfacet
  facet normal 0 0 -1
    outer loop
      vertex 3 4 0
      vertex 0 10.3 0
      vertex 0.646742 10.2797 0
    endloop
  endfacet
  facet normal 0 0 -1
    outer loop
      vertex 3 4 0
      vertex -0.646742 10.2797 0
      vertex 0 10.3 0
    endloop
  endfacet
  facet normal 0 0 -1
    outer loop
      vertex -4 4 0
      vertex -0.646742 10.2797 0
      vertex 3 4 0
    endloop
  endfacet
  facet normal 0 0 -1
    outer loop
      vertex -0.646742 10.2797 0
      vertex -4 4 0
      vertex -1.29093 10.2188 0
    endloop
  endfacet
  facet normal 0 0 -1
    outer loop
      vertex -1.29093 10.2188 0
      vertex -4 4 0
      vertex -1.93003 10.1176 0
    endloop
  endfacet
  facet normal 0 0 -1
    outer loop
      vertex -1.93003 10.1176 0
      vertex -4 4 0
      vertex -2.56151 9.97641 0
    endloop
  endfacet
  facet normal 0 0 -1
    outer loop
      vertex -2.56151 9.97641 0
      vertex -4 4 0
      vertex -3.18287 9.79588 0
    endloop
  endfacet
  facet normal 0 0 -1
    outer loop
      vertex -3.18287 9.79588 0
      vertex -4 4 0
      vertex -3.79168 9.5767 0
    endloop
  endfacet
  facet normal 0 0 -1
    outer loop
      vertex -4 4 0
      vertex -4.38553 9.31972 0
      vertex -3.79168 9.5767 0
    endloop
  endfacet
  facet normal 0 0 -1
    outer loop
      vertex -6 4 0
      vertex -4 -3 0
      vertex -6 -4 0
    endloop
  endfacet
  facet normal 0 0 -1
    outer loop
      vertex -5.51902 -8.69658 0
      vertex -4 -3 0
      vertex -4.96206 -9.02596 0
    endloop
  endfacet
  facet normal 0 0 -1
    outer loop
      vertex -4 -3 0
      vertex -6 4 0
      vertex -4 4 0
    endloop
  endfacet
  facet normal 0 0 -1
    outer loop
      vertex -4 -3 0
      vertex -5.51902 -8.69658 0
      vertex -6 -4 0
    endloop
  endfacet
  facet normal 0 0 -1
    outer loop
      vertex -4 4 0
      vertex -4.96206 9.02596 0
      vertex -4.38553 9.31972 0
    endloop
  endfacet
  facet normal 0 0 -1
    outer loop
      vertex -4 4 0
      vertex -5.51902 8.69658 0
      vertex -4.96206 9.02596 0
    endloop
  endfacet
  facet normal 0 0 -1
    outer loop
      vertex -6.05419 -8.33287 0
      vertex -6 -4 0
      vertex -5.51902 -8.69658 0
    endloop
  endfacet
  facet normal 0 0 -1
    outer loop
      vertex -6.56547 -7.93629 0
      vertex -6 -4 0
      vertex -6.05419 -8.33287 0
    endloop
  endfacet
  facet normal 0 0 -1
    outer loop
      vertex -7.05083 -7.50838 0
      vertex -6 -4 0
      vertex -6.56547 -7.93629 0
    endloop
  endfacet
  facet normal 0 0 -1
    outer loop
      vertex -7.50838 -7.05083 0
      vertex -6 -4 0
      vertex -7.05083 -7.50838 0
    endloop
  endfacet
  facet normal 0 0 -1
    outer loop
      vertex -7.93629 -6.56547 0
      vertex -6 -4 0
      vertex -7.50838 -7.05083 0
    endloop
  endfacet
  facet normal 0 0 -1
    outer loop
      vertex -8.33287 -6.05419 0
      vertex -6 -4 0
      vertex -7.93629 -6.56547 0
    endloop
  endfacet
  facet normal 0 0 -1
    outer loop
      vertex -8.69658 -5.51902 0
      vertex -6 -4 0
      vertex -8.33287 -6.05419 0
    endloop
  endfacet
  facet normal 0 0 -1
    outer loop
      vertex -8.69658 -5.51902 0
      vertex -9 -4 0
      vertex -6 -4 0
    endloop
  endfacet
  facet normal 0 0 -1
    outer loop
      vertex -9.31972 -4.38553 0
      vertex -9 -4 0
      vertex -9.02596 -4.96206 0
    endloop
  endfacet
  facet normal 0 0 -1
    outer loop
      vertex -9.02596 -4.96206 0
      vertex -9 -4 0
      vertex -8.69658 -5.51902 0
    endloop
  endfacet
  facet normal 0.975904 0.218198 0
    outer loop
      vertex 10.1176 1.93003 2
      vertex 9.97641 2.56151 0
      vertex 9.97641 2.56151 2
    endloop
  endfacet
  facet normal 0.975904 0.218198 0
    outer loop
      vertex 9.97641 2.56151 0
      vertex 10.1176 1.93003 2
      vertex 10.1176 1.93003 0
    endloop
  endfacet
  facet normal 0.96029 0.279003 0
    outer loop
      vertex 9.97641 2.56151 2
      vertex 9.79588 3.18287 0
      vertex 9.79588 3.18287 2
    endloop
  endfacet
  facet normal 0.96029 0.279003 0
    outer loop
      vertex 9.79588 3.18287 0
      vertex 9.97641 2.56151 2
      vertex 9.97641 2.56151 0
    endloop
  endfacet
  facet normal 0.790162 0.612898 0
    outer loop
      vertex 8.33287 6.05419 2
      vertex 7.93629 6.56547 0
      vertex 7.93629 6.56547 2
    endloop
  endfacet
  facet normal 0.790162 0.612898 0
    outer loop
      vertex 7.93629 6.56547 0
      vertex 8.33287 6.05419 2
      vertex 8.33287 6.05419 0
    endloop
  endfacet
  facet normal 0.891004 0.453995 0
    outer loop
      vertex 9.31972 4.38553 2
      vertex 9.02596 4.96206 0
      vertex 9.02596 4.96206 2
    endloop
  endfacet
  facet normal 0.891004 0.453995 0
    outer loop
      vertex 9.02596 4.96206 0
      vertex 9.31972 4.38553 2
      vertex 9.31972 4.38553 0
    endloop
  endfacet
  facet normal 0.218198 0.975904 -0
    outer loop
      vertex 2.56151 9.97641 0
      vertex 1.93003 10.1176 2
      vertex 2.56151 9.97641 2
    endloop
  endfacet
  facet normal 0.218198 0.975904 0
    outer loop
      vertex 1.93003 10.1176 2
      vertex 2.56151 9.97641 0
      vertex 1.93003 10.1176 0
    endloop
  endfacet
  facet normal 0.279003 0.96029 -0
    outer loop
      vertex 3.18287 9.79588 0
      vertex 2.56151 9.97641 2
      vertex 3.18287 9.79588 2
    endloop
  endfacet
  facet normal 0.279003 0.96029 0
    outer loop
      vertex 2.56151 9.97641 2
      vertex 3.18287 9.79588 0
      vertex 2.56151 9.97641 0
    endloop
  endfacet
  facet normal 0.661318 0.750105 -0
    outer loop
      vertex 7.05083 7.50838 0
      vertex 6.56547 7.93629 2
      vertex 7.05083 7.50838 2
    endloop
  endfacet
  facet normal 0.661318 0.750105 0
    outer loop
      vertex 6.56547 7.93629 2
      vertex 7.05083 7.50838 0
      vertex 6.56547 7.93629 0
    endloop
  endfacet
  facet normal -0.96029 0.279003 0
    outer loop
      vertex -9.97641 2.56151 0
      vertex -9.79588 3.18287 25
      vertex -9.79588 3.18287 0
    endloop
  endfacet
  facet normal -0.96029 0.279003 0
    outer loop
      vertex -9.79588 3.18287 25
      vertex -9.97641 2.56151 0
      vertex -9.97641 2.56151 25
    endloop
  endfacet
  facet normal -0.750105 0.661318 0
    outer loop
      vertex -7.93629 6.56547 0
      vertex -7.50838 7.05083 25
      vertex -7.50838 7.05083 0
    endloop
  endfacet
  facet normal -0.750105 0.661318 0
    outer loop
      vertex -7.50838 7.05083 25
      vertex -7.93629 6.56547 0
      vertex -7.93629 6.56547 25
    endloop
  endfacet
  facet normal -0.891004 0.453995 0
    outer loop
      vertex -9.31972 4.38553 0
      vertex -9.02596 4.96206 25
      vertex -9.02596 4.96206 0
    endloop
  endfacet
  facet normal -0.891004 0.453995 0
    outer loop
      vertex -9.02596 4.96206 25
      vertex -9.31972 4.38553 0
      vertex -9.31972 4.38553 25
    endloop
  endfacet
  facet normal -0.860746 0.509035 0
    outer loop
      vertex -9.02596 4.96206 0
      vertex -8.69658 5.51902 25
      vertex -8.69658 5.51902 0
    endloop
  endfacet
  facet normal -0.860746 0.509035 0
    outer loop
      vertex -8.69658 5.51902 25
      vertex -9.02596 4.96206 0
      vertex -9.02596 4.96206 25
    endloop
  endfacet
  facet normal -0.940883 0.338731 0
    outer loop
      vertex -9.79588 3.18287 0
      vertex -9.5767 3.79168 25
      vertex -9.5767 3.79168 0
    endloop
  endfacet
  facet normal -0.940883 0.338731 0
    outer loop
      vertex -9.5767 3.79168 25
      vertex -9.79588 3.18287 0
      vertex -9.79588 3.18287 25
    endloop
  endfacet
  facet normal 0 0 1
    outer loop
      vertex 2.56151 9.97641 2
      vertex 3 4 2
      vertex 3.18287 9.79588 2
    endloop
  endfacet
  facet normal 0 0 1
    outer loop
      vertex 1.93003 10.1176 2
      vertex 3 4 2
      vertex 2.56151 9.97641 2
    endloop
  endfacet
  facet normal 0 0 1
    outer loop
      vertex 1.29093 10.2188 2
      vertex 3 4 2
      vertex 1.93003 10.1176 2
    endloop
  endfacet
  facet normal 0 0 1
    outer loop
      vertex 0.646742 10.2797 2
      vertex 3 4 2
      vertex 1.29093 10.2188 2
    endloop
  endfacet
  facet normal 0 0 1
    outer loop
      vertex 0 10.3 2
      vertex 3 4 2
      vertex 0.646742 10.2797 2
    endloop
  endfacet
  facet normal -0 0 1
    outer loop
      vertex -0.646742 10.2797 2
      vertex 3 4 2
      vertex 0 10.3 2
    endloop
  endfacet
  facet normal 0 0 1
    outer loop
      vertex -4 4 2
      vertex -0.646742 10.2797 2
      vertex -1.29093 10.2188 2
    endloop
  endfacet
  facet normal 0 0 1
    outer loop
      vertex -4 4 2
      vertex -1.29093 10.2188 2
      vertex -1.93003 10.1176 2
    endloop
  endfacet
  facet normal 0 0 1
    outer loop
      vertex -4 4 2
      vertex -1.93003 10.1176 2
      vertex -2.56151 9.97641 2
    endloop
  endfacet
  facet normal 0 0 1
    outer loop
      vertex -4 4 2
      vertex -2.56151 9.97641 2
      vertex -3.18287 9.79588 2
    endloop
  endfacet
  facet normal 0 0 1
    outer loop
      vertex -4 4 2
      vertex -3.18287 9.79588 2
      vertex -3.79168 9.5767 2
    endloop
  endfacet
  facet normal 0 0 1
    outer loop
      vertex -4 4 2
      vertex -3.79168 9.5767 2
      vertex -4 9.48655 2
    endloop
  endfacet
  facet normal 0 0 1
    outer loop
      vertex -0.646742 10.2797 2
      vertex -4 4 2
      vertex 3 4 2
    endloop
  endfacet
  facet normal 0 0 1
    outer loop
      vertex 3 -3 2
      vertex 10.3 0 2
      vertex 10.2797 0.646742 2
    endloop
  endfacet
  facet normal 0 0 1
    outer loop
      vertex 3 4 2
      vertex 10.2797 0.646742 2
      vertex 10.2188 1.29093 2
    endloop
  endfacet
  facet normal 0 0 1
    outer loop
      vertex 10.3 0 2
      vertex 3 -3 2
      vertex 10.2797 -0.646742 2
    endloop
  endfacet
  facet normal 0 0 1
    outer loop
      vertex 3 4 2
      vertex 10.2188 1.29093 2
      vertex 10.1176 1.93003 2
    endloop
  endfacet
  facet normal 0 0 1
    outer loop
      vertex 10.2797 -0.646742 2
      vertex 3 -3 2
      vertex 10.2188 -1.29093 2
    endloop
  endfacet
  facet normal 0 0 1
    outer loop
      vertex 3 4 2
      vertex 10.1176 1.93003 2
      vertex 9.97641 2.56151 2
    endloop
  endfacet
  facet normal 0 0 1
    outer loop
      vertex 10.2188 -1.29093 2
      vertex 3 -3 2
      vertex 10.1176 -1.93003 2
    endloop
  endfacet
  facet normal 0 0 1
    outer loop
      vertex 3 4 2
      vertex 9.97641 2.56151 2
      vertex 9.79588 3.18287 2
    endloop
  endfacet
  facet normal 0 0 1
    outer loop
      vertex 10.1176 -1.93003 2
      vertex 3 -3 2
      vertex 9.97641 -2.56151 2
    endloop
  endfacet
  facet normal 0 0 1
    outer loop
      vertex 3 4 2
      vertex 9.79588 3.18287 2
      vertex 9.5767 3.79168 2
    endloop
  endfacet
  facet normal 0 -0 1
    outer loop
      vertex 7.66393 -5 2
      vertex 9.97641 -2.56151 2
      vertex 3 -3 2
    endloop
  endfacet
  facet normal -0 0 1
    outer loop
      vertex 3 4 2
      vertex 9.5767 3.79168 2
      vertex 9.31972 4.38553 2
    endloop
  endfacet
  facet normal 0 0 1
    outer loop
      vertex 9.97641 -2.56151 2
      vertex 7.66393 -5 2
      vertex 9.79588 -3.18287 2
    endloop
  endfacet
  facet normal 0 0 1
    outer loop
      vertex 3 4 2
      vertex 9.31972 4.38553 2
      vertex 9.02596 4.96206 2
    endloop
  endfacet
  facet normal 0 0 1
    outer loop
      vertex 9.79588 -3.18287 2
      vertex 7.66393 -5 2
      vertex 9.5767 -3.79168 2
    endloop
  endfacet
  facet normal 0 0 1
    outer loop
      vertex 9.31972 -4.38553 2
      vertex 7.66393 -5 2
      vertex 9.02596 -4.96206 2
    endloop
  endfacet
  facet normal 0 0 1
    outer loop
      vertex 3 4 2
      vertex 9.02596 4.96206 2
      vertex 8.69658 5.51902 2
    endloop
  endfacet
  facet normal 0 0 1
    outer loop
      vertex 3 4 2
      vertex 8.69658 5.51902 2
      vertex 8.33287 6.05419 2
    endloop
  endfacet
  facet normal 0 0 1
    outer loop
      vertex 3 4 2
      vertex 8.33287 6.05419 2
      vertex 7.93629 6.56547 2
    endloop
  endfacet
  facet normal 0 0 1
    outer loop
      vertex 9.02596 -4.96206 2
      vertex 7.66393 -5 2
      vertex 9.00352 -5 2
    endloop
  endfacet
  facet normal 0 0 1
    outer loop
      vertex 10.2797 0.646742 2
      vertex 3 4 2
      vertex 3 -3 2
    endloop
  endfacet
  facet normal 0 0 1
    outer loop
      vertex 3 4 2
      vertex 7.93629 6.56547 2
      vertex 7.50838 7.05083 2
    endloop
  endfacet
  facet normal 0 0 1
    outer loop
      vertex 9.5767 -3.79168 2
      vertex 7.66393 -5 2
      vertex 9.31972 -4.38553 2
    endloop
  endfacet
  facet normal 0 0 1
    outer loop
      vertex 7.66393 -5 2
      vertex 3 -3 2
      vertex 7.61931 -5.10312 2
    endloop
  endfacet
  facet normal 0 0 1
    outer loop
      vertex 7.61931 -5.10312 2
      vertex 3 -3 2
      vertex 7.50523 -5.32701 2
    endloop
  endfacet
  facet normal 0 0 1
    outer loop
      vertex 7.50523 -5.32701 2
      vertex 3 -3 2
      vertex 7.37731 -5.54331 2
    endloop
  endfacet
  facet normal 0 0 1
    outer loop
      vertex 3 4 2
      vertex 7.50838 7.05083 2
      vertex 7.05083 7.50838 2
    endloop
  endfacet
  facet normal 0 0 1
    outer loop
      vertex 7.37731 -5.54331 2
      vertex 3 -3 2
      vertex 7.23607 -5.75114 2
    endloop
  endfacet
  facet normal 0 0 1
    outer loop
      vertex 7.23607 -5.75114 2
      vertex 3 -3 2
      vertex 7.08205 -5.94969 2
    endloop
  endfacet
  facet normal 0 0 1
    outer loop
      vertex 3 4 2
      vertex 7.05083 7.50838 2
      vertex 6.56547 7.93629 2
    endloop
  endfacet
  facet normal 0 0 1
    outer loop
      vertex 7.08205 -5.94969 2
      vertex 3 -3 2
      vertex 6.91587 -6.13819 2
    endloop
  endfacet
  facet normal 0 0 1
    outer loop
      vertex 6.91587 -6.13819 2
      vertex 3 -3 2
      vertex 6.73819 -6.31587 2
    endloop
  endfacet
  facet normal 0 0 1
    outer loop
      vertex 6.73819 -6.31587 2
      vertex 3 -3 2
      vertex 6.5497 -6.48205 2
    endloop
  endfacet
  facet normal 0 0 1
    outer loop
      vertex 3 4 2
      vertex 6.56547 7.93629 2
      vertex 6.05419 8.33287 2
    endloop
  endfacet
  facet normal 0 0 1
    outer loop
      vertex 6.5497 -6.48205 2
      vertex 3 -3 2
      vertex 6.35114 -6.63607 2
    endloop
  endfacet
  facet normal 0 0 1
    outer loop
      vertex 6.35114 -6.63607 2
      vertex 3 -3 2
      vertex 6.14331 -6.77731 2
    endloop
  endfacet
  facet normal 0 0 1
    outer loop
      vertex 3 4 2
      vertex 6.05419 8.33287 2
      vertex 5.51902 8.69658 2
    endloop
  endfacet
  facet normal 0 0 1
    outer loop
      vertex 6.14331 -6.77731 2
      vertex 3 -3 2
      vertex 5.92701 -6.90523 2
    endloop
  endfacet
  facet normal 0 0 1
    outer loop
      vertex 5.92701 -6.90523 2
      vertex 3 -3 2
      vertex 5.70312 -7.01931 2
    endloop
  endfacet
  facet normal 0 0 1
    outer loop
      vertex 5.70312 -7.01931 2
      vertex 3 -3 2
      vertex 5.4725 -7.11911 2
    endloop
  endfacet
  facet normal 0 0 1
    outer loop
      vertex 3 4 2
      vertex 5.51902 8.69658 2
      vertex 4.96206 9.02596 2
    endloop
  endfacet
  facet normal 0 0 1
    outer loop
      vertex 5.4725 -7.11911 2
      vertex 3 -3 2
      vertex 5.23607 -7.20423 2
    endloop
  endfacet
  facet normal 0 0 1
    outer loop
      vertex 5.23607 -7.20423 2
      vertex 3 -3 2
      vertex 4.99476 -7.27433 2
    endloop
  endfacet
  facet normal 0 0 1
    outer loop
      vertex 3 4 2
      vertex 4.96206 9.02596 2
      vertex 4.38553 9.31972 2
    endloop
  endfacet
  facet normal 0 0 1
    outer loop
      vertex 4.99476 -7.27433 2
      vertex 3 -3 2
      vertex 4.74953 -7.32915 2
    endloop
  endfacet
  facet normal 0 0 1
    outer loop
      vertex 4.74953 -7.32915 2
      vertex 3 -3 2
      vertex 4.50133 -7.36846 2
    endloop
  endfacet
  facet normal 0 0 1
    outer loop
      vertex 3 4 2
      vertex 4.38553 9.31972 2
      vertex 3.79168 9.5767 2
    endloop
  endfacet
  facet normal 0 0 1
    outer loop
      vertex 3 4 2
      vertex 3.79168 9.5767 2
      vertex 3.18287 9.79588 2
    endloop
  endfacet
  facet normal 0 0 1
    outer loop
      vertex 4.50133 -7.36846 2
      vertex 3 -3 2
      vertex 4.25116 -7.39211 2
    endloop
  endfacet
  facet normal 0 0 1
    outer loop
      vertex 4.25116 -7.39211 2
      vertex 3 -3 2
      vertex 4 -7.4 2
    endloop
  endfacet
  facet normal 0 0 1
    outer loop
      vertex 3 -3 2
      vertex 0 -7.4 2
      vertex 4 -7.4 2
    endloop
  endfacet
  facet normal 0 0 1
    outer loop
      vertex 3 -3 2
      vertex -0.251162 -7.39211 2
      vertex 0 -7.4 2
    endloop
  endfacet
  facet normal 0 0 1
    outer loop
      vertex 3 -3 2
      vertex -0.501332 -7.36846 2
      vertex -0.251162 -7.39211 2
    endloop
  endfacet
  facet normal 0 0 1
    outer loop
      vertex 3 -3 2
      vertex -0.749525 -7.32915 2
      vertex -0.501332 -7.36846 2
    endloop
  endfacet
  facet normal 0 0 1
    outer loop
      vertex 3 -3 2
      vertex -0.994759 -7.27433 2
      vertex -0.749525 -7.32915 2
    endloop
  endfacet
  facet normal 0 0 1
    outer loop
      vertex 3 -3 2
      vertex -1.23607 -7.20423 2
      vertex -0.994759 -7.27433 2
    endloop
  endfacet
  facet normal 0 0 1
    outer loop
      vertex 3 -3 2
      vertex -1.4725 -7.11911 2
      vertex -1.23607 -7.20423 2
    endloop
  endfacet
  facet normal 0 0 1
    outer loop
      vertex 3 -3 2
      vertex -1.70312 -7.01931 2
      vertex -1.4725 -7.11911 2
    endloop
  endfacet
  facet normal 0 0 1
    outer loop
      vertex 3 -3 2
      vertex -1.92701 -6.90523 2
      vertex -1.70312 -7.01931 2
    endloop
  endfacet
  facet normal 0 0 1
    outer loop
      vertex 3 -3 2
      vertex -2.14331 -6.77731 2
      vertex -1.92701 -6.90523 2
    endloop
  endfacet
  facet normal 0 0 1
    outer loop
      vertex 3 -3 2
      vertex -2.35114 -6.63607 2
      vertex -2.14331 -6.77731 2
    endloop
  endfacet
  facet normal 0 0 1
    outer loop
      vertex 3 -3 2
      vertex -2.5497 -6.48205 2
      vertex -2.35114 -6.63607 2
    endloop
  endfacet
  facet normal 0 0 1
    outer loop
      vertex 3 -3 2
      vertex -2.73819 -6.31587 2
      vertex -2.5497 -6.48205 2
    endloop
  endfacet
  facet normal 0 0 1
    outer loop
      vertex 3 -3 2
      vertex -2.91587 -6.13819 2
      vertex -2.73819 -6.31587 2
    endloop
  endfacet
  facet normal 0 0 1
    outer loop
      vertex 3 -3 2
      vertex -3.08205 -5.94969 2
      vertex -2.91587 -6.13819 2
    endloop
  endfacet
  facet normal 0 0 1
    outer loop
      vertex 3 -3 2
      vertex -3.23607 -5.75114 2
      vertex -3.08205 -5.94969 2
    endloop
  endfacet
  facet normal 0 0 1
    outer loop
      vertex 3 -3 2
      vertex -3.37731 -5.54331 2
      vertex -3.23607 -5.75114 2
    endloop
  endfacet
  facet normal 0 0 1
    outer loop
      vertex 3 -3 2
      vertex -3.50523 -5.32701 2
      vertex -3.37731 -5.54331 2
    endloop
  endfacet
  facet normal 0 0 1
    outer loop
      vertex 3 -3 2
      vertex -3.61931 -5.10312 2
      vertex -3.50523 -5.32701 2
    endloop
  endfacet
  facet normal 0 0 1
    outer loop
      vertex 3 -3 2
      vertex -3.71911 -4.8725 2
      vertex -3.61931 -5.10312 2
    endloop
  endfacet
  facet normal 0 0 1
    outer loop
      vertex 3 -3 2
      vertex -3.80423 -4.63607 2
      vertex -3.71911 -4.8725 2
    endloop
  endfacet
  facet normal 0 0 1
    outer loop
      vertex 3 -3 2
      vertex -3.87433 -4.39476 2
      vertex -3.80423 -4.63607 2
    endloop
  endfacet
  facet normal 0 0 1
    outer loop
      vertex 3 -3 2
      vertex -3.92915 -4.14952 2
      vertex -3.87433 -4.39476 2
    endloop
  endfacet
  facet normal 0 0 1
    outer loop
      vertex 3 -3 2
      vertex -3.96846 -3.90133 2
      vertex -3.92915 -4.14952 2
    endloop
  endfacet
  facet normal 0 0 1
    outer loop
      vertex 3 -3 2
      vertex -3.99211 -3.65116 2
      vertex -3.96846 -3.90133 2
    endloop
  endfacet
  facet normal 0 0 1
    outer loop
      vertex -4 -3.4 2
      vertex 3 -3 2
      vertex -4 -3 2
    endloop
  endfacet
  facet normal 0 0 1
    outer loop
      vertex 3 -3 2
      vertex -4 -3.4 2
      vertex -3.99211 -3.65116 2
    endloop
  endfacet
  facet normal -0.453995 0.891004 0
    outer loop
      vertex -4.38553 9.31972 0
      vertex -4.96206 9.02596 25
      vertex -4.38553 9.31972 25
    endloop
  endfacet
  facet normal -0.453995 0.891004 0
    outer loop
      vertex -4.96206 9.02596 25
      vertex -4.38553 9.31972 0
      vertex -4.96206 9.02596 0
    endloop
  endfacet
  facet normal -0.218198 0.975904 0
    outer loop
      vertex -1.93003 10.1176 0
      vertex -2.56151 9.97641 2
      vertex -1.93003 10.1176 2
    endloop
  endfacet
  facet normal -0.218198 0.975904 0
    outer loop
      vertex -2.56151 9.97641 2
      vertex -1.93003 10.1176 0
      vertex -2.56151 9.97641 0
    endloop
  endfacet
  facet normal -0.0313726 0.999508 0
    outer loop
      vertex 0 10.3 0
      vertex -0.646742 10.2797 2
      vertex 0 10.3 2
    endloop
  endfacet
  facet normal -0.0313726 0.999508 0
    outer loop
      vertex -0.646742 10.2797 2
      vertex 0 10.3 0
      vertex -0.646742 10.2797 0
    endloop
  endfacet
  facet normal 0.094118 -0.995561 0
    outer loop
      vertex 0.646742 -10.2797 0
      vertex 1.29093 -10.2188 25
      vertex 0.646742 -10.2797 25
    endloop
  endfacet
  facet normal 0.094118 -0.995561 0
    outer loop
      vertex 1.29093 -10.2188 25
      vertex 0.646742 -10.2797 0
      vertex 1.29093 -10.2188 0
    endloop
  endfacet
  facet normal 0.0313726 -0.999508 0
    outer loop
      vertex 0 -10.3 0
      vertex 0.646742 -10.2797 25
      vertex 0 -10.3 25
    endloop
  endfacet
  facet normal 0.0313726 -0.999508 0
    outer loop
      vertex 0.646742 -10.2797 25
      vertex 0 -10.3 0
      vertex 0.646742 -10.2797 0
    endloop
  endfacet
  facet normal 0.453995 -0.891004 0
    outer loop
      vertex 4.38553 -9.31972 0
      vertex 4.96206 -9.02596 25
      vertex 4.38553 -9.31972 25
    endloop
  endfacet
  facet normal 0.453995 -0.891004 0
    outer loop
      vertex 4.96206 -9.02596 25
      vertex 4.38553 -9.31972 0
      vertex 4.96206 -9.02596 0
    endloop
  endfacet
  facet normal 0.612898 -0.790162 0
    outer loop
      vertex 6.05419 -8.33287 0
      vertex 6.56547 -7.93629 25
      vertex 6.05419 -8.33287 25
    endloop
  endfacet
  facet normal 0.612898 -0.790162 0
    outer loop
      vertex 6.56547 -7.93629 25
      vertex 6.05419 -8.33287 0
      vertex 6.56547 -7.93629 0
    endloop
  endfacet
  facet normal 0.509035 -0.860746 0
    outer loop
      vertex 4.96206 -9.02596 0
      vertex 5.51902 -8.69658 25
      vertex 4.96206 -9.02596 25
    endloop
  endfacet
  facet normal 0.509035 -0.860746 0
    outer loop
      vertex 5.51902 -8.69658 25
      vertex 4.96206 -9.02596 0
      vertex 5.51902 -8.69658 0
    endloop
  endfacet
  facet normal 0.750105 -0.661318 0
    outer loop
      vertex 7.50838 -7.05083 25
      vertex 7.93629 -6.56547 0
      vertex 7.93629 -6.56547 25
    endloop
  endfacet
  facet normal 0.750105 -0.661318 0
    outer loop
      vertex 7.93629 -6.56547 0
      vertex 7.50838 -7.05083 25
      vertex 7.50838 -7.05083 0
    endloop
  endfacet
  facet normal 0.975904 -0.218198 0
    outer loop
      vertex 9.97641 -2.56151 2
      vertex 10.1176 -1.93003 0
      vertex 10.1176 -1.93003 2
    endloop
  endfacet
  facet normal 0.975904 -0.218198 0
    outer loop
      vertex 10.1176 -1.93003 0
      vertex 9.97641 -2.56151 2
      vertex 9.97641 -2.56151 0
    endloop
  endfacet
  facet normal 0.987694 -0.156399 0
    outer loop
      vertex 10.1176 -1.93003 2
      vertex 10.2188 -1.29093 0
      vertex 10.2188 -1.29093 2
    endloop
  endfacet
  facet normal 0.987694 -0.156399 0
    outer loop
      vertex 10.2188 -1.29093 0
      vertex 10.1176 -1.93003 2
      vertex 10.1176 -1.93003 0
    endloop
  endfacet
  facet normal -0.218198 -0.975904 0
    outer loop
      vertex -2.56151 -9.97641 0
      vertex -1.93003 -10.1176 25
      vertex -2.56151 -9.97641 25
    endloop
  endfacet
  facet normal -0.218198 -0.975904 -0
    outer loop
      vertex -1.93003 -10.1176 25
      vertex -2.56151 -9.97641 0
      vertex -1.93003 -10.1176 0
    endloop
  endfacet
  facet normal -0.156399 -0.987694 0
    outer loop
      vertex -1.93003 -10.1176 0
      vertex -1.29093 -10.2188 25
      vertex -1.93003 -10.1176 25
    endloop
  endfacet
  facet normal -0.156399 -0.987694 -0
    outer loop
      vertex -1.29093 -10.2188 25
      vertex -1.93003 -10.1176 0
      vertex -1.29093 -10.2188 0
    endloop
  endfacet
  facet normal -0.917756 -0.397145 0
    outer loop
      vertex -9.31972 -4.38553 0
      vertex -9.5767 -3.79168 25
      vertex -9.5767 -3.79168 0
    endloop
  endfacet
  facet normal -0.917756 -0.397145 0
    outer loop
      vertex -9.5767 -3.79168 25
      vertex -9.31972 -4.38553 0
      vertex -9.31972 -4.38553 25
    endloop
  endfacet
  facet normal -0.891004 -0.453995 0
    outer loop
      vertex -9.02596 -4.96206 0
      vertex -9.31972 -4.38553 25
      vertex -9.31972 -4.38553 0
    endloop
  endfacet
  facet normal -0.891004 -0.453995 0
    outer loop
      vertex -9.31972 -4.38553 25
      vertex -9.02596 -4.96206 0
      vertex -9.02596 -4.96206 25
    endloop
  endfacet
  facet normal -0.940883 -0.338731 0
    outer loop
      vertex -9.5767 -3.79168 0
      vertex -9.79588 -3.18287 25
      vertex -9.79588 -3.18287 0
    endloop
  endfacet
  facet normal -0.940883 -0.338731 0
    outer loop
      vertex -9.79588 -3.18287 25
      vertex -9.5767 -3.79168 0
      vertex -9.5767 -3.79168 25
    endloop
  endfacet
  facet normal -0.999508 -0.0313726 0
    outer loop
      vertex -10.2797 -0.646742 0
      vertex -10.3 0 25
      vertex -10.3 0 0
    endloop
  endfacet
  facet normal -0.999508 -0.0313726 0
    outer loop
      vertex -10.3 0 25
      vertex -10.2797 -0.646742 0
      vertex -10.2797 -0.646742 25
    endloop
  endfacet
  facet normal 0.987694 0.156399 0
    outer loop
      vertex 10.2188 1.29093 2
      vertex 10.1176 1.93003 0
      vertex 10.1176 1.93003 2
    endloop
  endfacet
  facet normal 0.987694 0.156399 0
    outer loop
      vertex 10.1176 1.93003 0
      vertex 10.2188 1.29093 2
      vertex 10.2188 1.29093 0
    endloop
  endfacet
  facet normal 0.995561 0.094118 0
    outer loop
      vertex 10.2797 0.646742 2
      vertex 10.2188 1.29093 0
      vertex 10.2188 1.29093 2
    endloop
  endfacet
  facet normal 0.995561 0.094118 0
    outer loop
      vertex 10.2188 1.29093 0
      vertex 10.2797 0.646742 2
      vertex 10.2797 0.646742 0
    endloop
  endfacet
  facet normal 0.940883 0.338731 0
    outer loop
      vertex 9.79588 3.18287 2
      vertex 9.5767 3.79168 0
      vertex 9.5767 3.79168 2
    endloop
  endfacet
  facet normal 0.940883 0.338731 0
    outer loop
      vertex 9.5767 3.79168 0
      vertex 9.79588 3.18287 2
      vertex 9.79588 3.18287 0
    endloop
  endfacet
  facet normal 0.827074 0.562093 0
    outer loop
      vertex 8.69658 5.51902 2
      vertex 8.33287 6.05419 0
      vertex 8.33287 6.05419 2
    endloop
  endfacet
  facet normal 0.827074 0.562093 0
    outer loop
      vertex 8.33287 6.05419 0
      vertex 8.69658 5.51902 2
      vertex 8.69658 5.51902 0
    endloop
  endfacet
  facet normal 0.094118 0.995561 -0
    outer loop
      vertex 1.29093 10.2188 0
      vertex 0.646742 10.2797 2
      vertex 1.29093 10.2188 2
    endloop
  endfacet
  facet normal 0.094118 0.995561 0
    outer loop
      vertex 0.646742 10.2797 2
      vertex 1.29093 10.2188 0
      vertex 0.646742 10.2797 0
    endloop
  endfacet
  facet normal 0.509035 0.860746 -0
    outer loop
      vertex 5.51902 8.69658 0
      vertex 4.96206 9.02596 2
      vertex 5.51902 8.69658 2
    endloop
  endfacet
  facet normal 0.509035 0.860746 0
    outer loop
      vertex 4.96206 9.02596 2
      vertex 5.51902 8.69658 0
      vertex 4.96206 9.02596 0
    endloop
  endfacet
  facet normal 0.453995 0.891004 -0
    outer loop
      vertex 4.96206 9.02596 0
      vertex 4.38553 9.31972 2
      vertex 4.96206 9.02596 2
    endloop
  endfacet
  facet normal 0.453995 0.891004 0
    outer loop
      vertex 4.38553 9.31972 2
      vertex 4.96206 9.02596 0
      vertex 4.38553 9.31972 0
    endloop
  endfacet
  facet normal 0.562093 0.827074 -0
    outer loop
      vertex 6.05419 8.33287 0
      vertex 5.51902 8.69658 2
      vertex 6.05419 8.33287 2
    endloop
  endfacet
  facet normal 0.562093 0.827074 0
    outer loop
      vertex 5.51902 8.69658 2
      vertex 6.05419 8.33287 0
      vertex 5.51902 8.69658 0
    endloop
  endfacet
  facet normal -0.975904 0.218198 0
    outer loop
      vertex -10.1176 1.93003 0
      vertex -9.97641 2.56151 25
      vertex -9.97641 2.56151 0
    endloop
  endfacet
  facet normal -0.975904 0.218198 0
    outer loop
      vertex -9.97641 2.56151 25
      vertex -10.1176 1.93003 0
      vertex -10.1176 1.93003 25
    endloop
  endfacet
  facet normal -0.995561 0.094118 0
    outer loop
      vertex -10.2797 0.646742 0
      vertex -10.2188 1.29093 25
      vertex -10.2188 1.29093 0
    endloop
  endfacet
  facet normal -0.995561 0.094118 0
    outer loop
      vertex -10.2188 1.29093 25
      vertex -10.2797 0.646742 0
      vertex -10.2797 0.646742 25
    endloop
  endfacet
  facet normal -0.562093 0.827074 0
    outer loop
      vertex -5.51902 8.69658 0
      vertex -6.05419 8.33287 25
      vertex -5.51902 8.69658 25
    endloop
  endfacet
  facet normal -0.562093 0.827074 0
    outer loop
      vertex -6.05419 8.33287 25
      vertex -5.51902 8.69658 0
      vertex -6.05419 8.33287 0
    endloop
  endfacet
  facet normal -0.397155 0.917752 0
    outer loop
      vertex -3.79168 9.5767 2
      vertex -3.79168 9.5767 0
      vertex -4 9.48655 2
    endloop
  endfacet
  facet normal -0.39714 0.917758 0
    outer loop
      vertex -4 9.48655 2
      vertex -4.38553 9.31972 25
      vertex -4 9.48655 25
    endloop
  endfacet
  facet normal -0.39714 0.917758 0
    outer loop
      vertex -4 9.48655 2
      vertex -4.38553 9.31972 0
      vertex -4.38553 9.31972 25
    endloop
  endfacet
  facet normal -0.397145 0.917756 1.16209e-06
    outer loop
      vertex -4.38553 9.31972 0
      vertex -4 9.48655 2
      vertex -3.79168 9.5767 0
    endloop
  endfacet
  facet normal -0.509035 0.860746 0
    outer loop
      vertex -4.96206 9.02596 0
      vertex -5.51902 8.69658 25
      vertex -4.96206 9.02596 25
    endloop
  endfacet
  facet normal -0.509035 0.860746 0
    outer loop
      vertex -5.51902 8.69658 25
      vertex -4.96206 9.02596 0
      vertex -5.51902 8.69658 0
    endloop
  endfacet
  facet normal -0.612898 0.790162 0
    outer loop
      vertex -6.05419 8.33287 0
      vertex -6.56547 7.93629 25
      vertex -6.05419 8.33287 25
    endloop
  endfacet
  facet normal -0.612898 0.790162 0
    outer loop
      vertex -6.56547 7.93629 25
      vertex -6.05419 8.33287 0
      vertex -6.56547 7.93629 0
    endloop
  endfacet
  facet normal -0.338731 0.940883 0
    outer loop
      vertex -3.18287 9.79588 0
      vertex -3.79168 9.5767 2
      vertex -3.18287 9.79588 2
    endloop
  endfacet
  facet normal -0.338731 0.940883 0
    outer loop
      vertex -3.79168 9.5767 2
      vertex -3.18287 9.79588 0
      vertex -3.79168 9.5767 0
    endloop
  endfacet
  facet normal -0.156399 0.987694 0
    outer loop
      vertex -1.29093 10.2188 0
      vertex -1.93003 10.1176 2
      vertex -1.29093 10.2188 2
    endloop
  endfacet
  facet normal -0.156399 0.987694 0
    outer loop
      vertex -1.93003 10.1176 2
      vertex -1.29093 10.2188 0
      vertex -1.93003 10.1176 0
    endloop
  endfacet
  facet normal 0.999508 -0.0313726 0
    outer loop
      vertex 10.2797 -0.646742 2
      vertex 10.3 0 0
      vertex 10.3 0 2
    endloop
  endfacet
  facet normal 0.999508 -0.0313726 0
    outer loop
      vertex 10.3 0 0
      vertex 10.2797 -0.646742 2
      vertex 10.2797 -0.646742 0
    endloop
  endfacet
  facet normal 0.338731 -0.940883 0
    outer loop
      vertex 3.18287 -9.79588 0
      vertex 3.79168 -9.5767 25
      vertex 3.18287 -9.79588 25
    endloop
  endfacet
  facet normal 0.338731 -0.940883 0
    outer loop
      vertex 3.79168 -9.5767 25
      vertex 3.18287 -9.79588 0
      vertex 3.79168 -9.5767 0
    endloop
  endfacet
  facet normal 0.397145 -0.917756 0
    outer loop
      vertex 3.79168 -9.5767 0
      vertex 4.38553 -9.31972 25
      vertex 3.79168 -9.5767 25
    endloop
  endfacet
  facet normal 0.397145 -0.917756 0
    outer loop
      vertex 4.38553 -9.31972 25
      vertex 3.79168 -9.5767 0
      vertex 4.38553 -9.31972 0
    endloop
  endfacet
  facet normal 0.279003 -0.96029 0
    outer loop
      vertex 2.56151 -9.97641 0
      vertex 3.18287 -9.79588 25
      vertex 2.56151 -9.97641 25
    endloop
  endfacet
  facet normal 0.279003 -0.96029 0
    outer loop
      vertex 3.18287 -9.79588 25
      vertex 2.56151 -9.97641 0
      vertex 3.18287 -9.79588 0
    endloop
  endfacet
  facet normal 0.661318 -0.750105 0
    outer loop
      vertex 6.56547 -7.93629 0
      vertex 7.05083 -7.50838 25
      vertex 6.56547 -7.93629 25
    endloop
  endfacet
  facet normal 0.661318 -0.750105 0
    outer loop
      vertex 7.05083 -7.50838 25
      vertex 6.56547 -7.93629 0
      vertex 7.05083 -7.50838 0
    endloop
  endfacet
  facet normal 0.917756 -0.397145 0
    outer loop
      vertex 9.31972 -4.38553 2
      vertex 9.5767 -3.79168 0
      vertex 9.5767 -3.79168 2
    endloop
  endfacet
  facet normal 0.917756 -0.397145 0
    outer loop
      vertex 9.5767 -3.79168 0
      vertex 9.31972 -4.38553 2
      vertex 9.31972 -4.38553 0
    endloop
  endfacet
  facet normal 0.891004 -0.453995 0
    outer loop
      vertex 9.02596 -4.96206 2
      vertex 9.31972 -4.38553 0
      vertex 9.31972 -4.38553 2
    endloop
  endfacet
  facet normal 0.891004 -0.453995 0
    outer loop
      vertex 9.31972 -4.38553 0
      vertex 9.02596 -4.96206 2
      vertex 9.02596 -4.96206 0
    endloop
  endfacet
  facet normal 0.940883 -0.338731 0
    outer loop
      vertex 9.5767 -3.79168 2
      vertex 9.79588 -3.18287 0
      vertex 9.79588 -3.18287 2
    endloop
  endfacet
  facet normal 0.940883 -0.338731 0
    outer loop
      vertex 9.79588 -3.18287 0
      vertex 9.5767 -3.79168 2
      vertex 9.5767 -3.79168 0
    endloop
  endfacet
  facet normal 0.96029 -0.279003 0
    outer loop
      vertex 9.79588 -3.18287 2
      vertex 9.97641 -2.56151 0
      vertex 9.97641 -2.56151 2
    endloop
  endfacet
  facet normal 0.96029 -0.279003 0
    outer loop
      vertex 9.97641 -2.56151 0
      vertex 9.79588 -3.18287 2
      vertex 9.79588 -3.18287 0
    endloop
  endfacet
  facet normal -0.612898 -0.790162 0
    outer loop
      vertex -6.56547 -7.93629 0
      vertex -6.05419 -8.33287 25
      vertex -6.56547 -7.93629 25
    endloop
  endfacet
  facet normal -0.612898 -0.790162 -0
    outer loop
      vertex -6.05419 -8.33287 25
      vertex -6.56547 -7.93629 0
      vertex -6.05419 -8.33287 0
    endloop
  endfacet
  facet normal -0.707107 -0.707107 0
    outer loop
      vertex -7.05083 -7.50838 0
      vertex -7.50838 -7.05083 25
      vertex -7.50838 -7.05083 0
    endloop
  endfacet
  facet normal -0.707107 -0.707107 0
    outer loop
      vertex -7.50838 -7.05083 25
      vertex -7.05083 -7.50838 0
      vertex -7.05083 -7.50838 25
    endloop
  endfacet
  facet normal -0.661318 -0.750105 0
    outer loop
      vertex -7.05083 -7.50838 0
      vertex -6.56547 -7.93629 25
      vertex -7.05083 -7.50838 25
    endloop
  endfacet
  facet normal -0.661318 -0.750105 -0
    outer loop
      vertex -6.56547 -7.93629 25
      vertex -7.05083 -7.50838 0
      vertex -6.56547 -7.93629 0
    endloop
  endfacet
  facet normal -0.562093 -0.827074 0
    outer loop
      vertex -6.05419 -8.33287 0
      vertex -5.51902 -8.69658 25
      vertex -6.05419 -8.33287 25
    endloop
  endfacet
  facet normal -0.562093 -0.827074 -0
    outer loop
      vertex -5.51902 -8.69658 25
      vertex -6.05419 -8.33287 0
      vertex -5.51902 -8.69658 0
    endloop
  endfacet
  facet normal -0.453995 -0.891004 0
    outer loop
      vertex -4.96206 -9.02596 0
      vertex -4.38553 -9.31972 25
      vertex -4.96206 -9.02596 25
    endloop
  endfacet
  facet normal -0.453995 -0.891004 -0
    outer loop
      vertex -4.38553 -9.31972 25
      vertex -4.96206 -9.02596 0
      vertex -4.38553 -9.31972 0
    endloop
  endfacet
  facet normal -0.509035 -0.860746 0
    outer loop
      vertex -5.51902 -8.69658 0
      vertex -4.96206 -9.02596 25
      vertex -5.51902 -8.69658 25
    endloop
  endfacet
  facet normal -0.509035 -0.860746 -0
    outer loop
      vertex -4.96206 -9.02596 25
      vertex -5.51902 -8.69658 0
      vertex -4.96206 -9.02596 0
    endloop
  endfacet
  facet normal -0.338731 -0.940883 0
    outer loop
      vertex -3.79168 -9.5767 0
      vertex -3.18287 -9.79588 25
      vertex -3.79168 -9.5767 25
    endloop
  endfacet
  facet normal -0.338731 -0.940883 -0
    outer loop
      vertex -3.18287 -9.79588 25
      vertex -3.79168 -9.5767 0
      vertex -3.18287 -9.79588 0
    endloop
  endfacet
  facet normal -0.279003 -0.96029 0
    outer loop
      vertex -3.18287 -9.79588 0
      vertex -2.56151 -9.97641 25
      vertex -3.18287 -9.79588 25
    endloop
  endfacet
  facet normal -0.279003 -0.96029 -0
    outer loop
      vertex -2.56151 -9.97641 25
      vertex -3.18287 -9.79588 0
      vertex -2.56151 -9.97641 0
    endloop
  endfacet
  facet normal -0.094118 -0.995561 0
    outer loop
      vertex -1.29093 -10.2188 0
      vertex -0.646742 -10.2797 25
      vertex -1.29093 -10.2188 25
    endloop
  endfacet
  facet normal -0.094118 -0.995561 -0
    outer loop
      vertex -0.646742 -10.2797 25
      vertex -1.29093 -10.2188 0
      vertex -0.646742 -10.2797 0
    endloop
  endfacet
  facet normal -0.0313726 -0.999508 0
    outer loop
      vertex -0.646742 -10.2797 0
      vertex 0 -10.3 25
      vertex -0.646742 -10.2797 25
    endloop
  endfacet
  facet normal -0.0313726 -0.999508 -0
    outer loop
      vertex 0 -10.3 25
      vertex -0.646742 -10.2797 0
      vertex 0 -10.3 0
    endloop
  endfacet
  facet normal -0.827074 -0.562093 0
    outer loop
      vertex -8.33287 -6.05419 0
      vertex -8.69658 -5.51902 25
      vertex -8.69658 -5.51902 0
    endloop
  endfacet
  facet normal -0.827074 -0.562093 0
    outer loop
      vertex -8.69658 -5.51902 25
      vertex -8.33287 -6.05419 0
      vertex -8.33287 -6.05419 25
    endloop
  endfacet
  facet normal -0.790162 -0.612898 0
    outer loop
      vertex -7.93629 -6.56547 0
      vertex -8.33287 -6.05419 25
      vertex -8.33287 -6.05419 0
    endloop
  endfacet
  facet normal -0.790162 -0.612898 0
    outer loop
      vertex -8.33287 -6.05419 25
      vertex -7.93629 -6.56547 0
      vertex -7.93629 -6.56547 25
    endloop
  endfacet
  facet normal -0.96029 -0.279003 0
    outer loop
      vertex -9.79588 -3.18287 0
      vertex -9.97641 -2.56151 25
      vertex -9.97641 -2.56151 0
    endloop
  endfacet
  facet normal -0.96029 -0.279003 0
    outer loop
      vertex -9.97641 -2.56151 25
      vertex -9.79588 -3.18287 0
      vertex -9.79588 -3.18287 25
    endloop
  endfacet
  facet normal -0.987694 -0.156399 0
    outer loop
      vertex -10.1176 -1.93003 0
      vertex -10.2188 -1.29093 25
      vertex -10.2188 -1.29093 0
    endloop
  endfacet
  facet normal -0.987694 -0.156399 0
    outer loop
      vertex -10.2188 -1.29093 25
      vertex -10.1176 -1.93003 0
      vertex -10.1176 -1.93003 25
    endloop
  endfacet
  facet normal 0.750105 0.661318 0
    outer loop
      vertex 7.93629 6.56547 2
      vertex 7.50838 7.05083 0
      vertex 7.50838 7.05083 2
    endloop
  endfacet
  facet normal 0.750105 0.661318 0
    outer loop
      vertex 7.50838 7.05083 0
      vertex 7.93629 6.56547 2
      vertex 7.93629 6.56547 0
    endloop
  endfacet
  facet normal 0.860746 0.509035 0
    outer loop
      vertex 9.02596 4.96206 2
      vertex 8.69658 5.51902 0
      vertex 8.69658 5.51902 2
    endloop
  endfacet
  facet normal 0.860746 0.509035 0
    outer loop
      vertex 8.69658 5.51902 0
      vertex 9.02596 4.96206 2
      vertex 9.02596 4.96206 0
    endloop
  endfacet
  facet normal 0.338731 0.940883 -0
    outer loop
      vertex 3.79168 9.5767 0
      vertex 3.18287 9.79588 2
      vertex 3.79168 9.5767 2
    endloop
  endfacet
  facet normal 0.338731 0.940883 0
    outer loop
      vertex 3.18287 9.79588 2
      vertex 3.79168 9.5767 0
      vertex 3.18287 9.79588 0
    endloop
  endfacet
  facet normal 0.156399 0.987694 -0
    outer loop
      vertex 1.93003 10.1176 0
      vertex 1.29093 10.2188 2
      vertex 1.93003 10.1176 2
    endloop
  endfacet
  facet normal 0.156399 0.987694 0
    outer loop
      vertex 1.29093 10.2188 2
      vertex 1.93003 10.1176 0
      vertex 1.29093 10.2188 0
    endloop
  endfacet
  facet normal 0.612898 0.790162 -0
    outer loop
      vertex 6.56547 7.93629 0
      vertex 6.05419 8.33287 2
      vertex 6.56547 7.93629 2
    endloop
  endfacet
  facet normal 0.612898 0.790162 0
    outer loop
      vertex 6.05419 8.33287 2
      vertex 6.56547 7.93629 0
      vertex 6.05419 8.33287 0
    endloop
  endfacet
  facet normal -0.707107 0.707107 0
    outer loop
      vertex -7.50838 7.05083 0
      vertex -7.05083 7.50838 25
      vertex -7.05083 7.50838 0
    endloop
  endfacet
  facet normal -0.707107 0.707107 0
    outer loop
      vertex -7.05083 7.50838 25
      vertex -7.50838 7.05083 0
      vertex -7.50838 7.05083 25
    endloop
  endfacet
  facet normal -0.827074 0.562093 0
    outer loop
      vertex -8.69658 5.51902 0
      vertex -8.33287 6.05419 25
      vertex -8.33287 6.05419 0
    endloop
  endfacet
  facet normal -0.827074 0.562093 0
    outer loop
      vertex -8.33287 6.05419 25
      vertex -8.69658 5.51902 0
      vertex -8.69658 5.51902 25
    endloop
  endfacet
  facet normal -0.917756 0.397145 0
    outer loop
      vertex -9.5767 3.79168 0
      vertex -9.31972 4.38553 25
      vertex -9.31972 4.38553 0
    endloop
  endfacet
  facet normal -0.917756 0.397145 0
    outer loop
      vertex -9.31972 4.38553 25
      vertex -9.5767 3.79168 0
      vertex -9.5767 3.79168 25
    endloop
  endfacet
  facet normal -0.987694 0.156399 0
    outer loop
      vertex -10.2188 1.29093 0
      vertex -10.1176 1.93003 25
      vertex -10.1176 1.93003 0
    endloop
  endfacet
  facet normal -0.987694 0.156399 0
    outer loop
      vertex -10.1176 1.93003 25
      vertex -10.2188 1.29093 0
      vertex -10.2188 1.29093 25
    endloop
  endfacet
  facet normal -0.279003 0.96029 0
    outer loop
      vertex -2.56151 9.97641 0
      vertex -3.18287 9.79588 2
      vertex -2.56151 9.97641 2
    endloop
  endfacet
  facet normal -0.279003 0.96029 0
    outer loop
      vertex -3.18287 9.79588 2
      vertex -2.56151 9.97641 0
      vertex -3.18287 9.79588 0
    endloop
  endfacet
  facet normal -0.094118 0.995561 0
    outer loop
      vertex -0.646742 10.2797 0
      vertex -1.29093 10.2188 2
      vertex -0.646742 10.2797 2
    endloop
  endfacet
  facet normal -0.094118 0.995561 0
    outer loop
      vertex -1.29093 10.2188 2
      vertex -0.646742 10.2797 0
      vertex -1.29093 10.2188 0
    endloop
  endfacet
  facet normal 0.156399 -0.987694 0
    outer loop
      vertex 1.29093 -10.2188 0
      vertex 1.93003 -10.1176 25
      vertex 1.29093 -10.2188 25
    endloop
  endfacet
  facet normal 0.156399 -0.987694 0
    outer loop
      vertex 1.93003 -10.1176 25
      vertex 1.29093 -10.2188 0
      vertex 1.93003 -10.1176 0
    endloop
  endfacet
  facet normal 0.562093 -0.827074 0
    outer loop
      vertex 5.51902 -8.69658 0
      vertex 6.05419 -8.33287 25
      vertex 5.51902 -8.69658 25
    endloop
  endfacet
  facet normal 0.562093 -0.827074 0
    outer loop
      vertex 6.05419 -8.33287 25
      vertex 5.51902 -8.69658 0
      vertex 6.05419 -8.33287 0
    endloop
  endfacet
  facet normal 0.827074 -0.562093 0
    outer loop
      vertex 8.33287 -6.05419 25
      vertex 8.69658 -5.51902 0
      vertex 8.69658 -5.51902 25
    endloop
  endfacet
  facet normal 0.827074 -0.562093 0
    outer loop
      vertex 8.69658 -5.51902 0
      vertex 8.33287 -6.05419 25
      vertex 8.33287 -6.05419 0
    endloop
  endfacet
  facet normal 0.995561 -0.094118 0
    outer loop
      vertex 10.2188 -1.29093 2
      vertex 10.2797 -0.646742 0
      vertex 10.2797 -0.646742 2
    endloop
  endfacet
  facet normal 0.995561 -0.094118 0
    outer loop
      vertex 10.2797 -0.646742 0
      vertex 10.2188 -1.29093 2
      vertex 10.2188 -1.29093 0
    endloop
  endfacet
  facet normal -0.860746 -0.509035 0
    outer loop
      vertex -8.69658 -5.51902 0
      vertex -9.02596 -4.96206 25
      vertex -9.02596 -4.96206 0
    endloop
  endfacet
  facet normal -0.860746 -0.509035 0
    outer loop
      vertex -9.02596 -4.96206 25
      vertex -8.69658 -5.51902 0
      vertex -8.69658 -5.51902 25
    endloop
  endfacet
  facet normal 1 -0 0
    outer loop
      vertex -9 -4 4
      vertex -9 4 0
      vertex -9 4 4
    endloop
  endfacet
  facet normal 1 0 0
    outer loop
      vertex -9 4 0
      vertex -9 -4 4
      vertex -9 -4 0
    endloop
  endfacet
  facet normal -1 0 0
    outer loop
      vertex -6 -4 0
      vertex -6 4 4
      vertex -6 4 0
    endloop
  endfacet
  facet normal -1 -0 0
    outer loop
      vertex -6 4 4
      vertex -6 -4 0
      vertex -6 -4 4
    endloop
  endfacet
  facet normal 0 1 -0
    outer loop
      vertex -6 -4 0
      vertex -9 -4 4
      vertex -6 -4 4
    endloop
  endfacet
  facet normal 0 1 0
    outer loop
      vertex -9 -4 4
      vertex -6 -4 0
      vertex -9 -4 0
    endloop
  endfacet
  facet normal 0 -1 0
    outer loop
      vertex -9 4 0
      vertex -6 4 4
      vertex -9 4 4
    endloop
  endfacet
  facet normal 0 -1 -0
    outer loop
      vertex -6 4 4
      vertex -9 4 0
      vertex -6 4 0
    endloop
  endfacet
  facet normal 1 0 0
    outer loop
      vertex -4 9.48655 25
      vertex -4 4 2
      vertex -4 9.48655 2
    endloop
  endfacet
  facet normal 1 0 0
    outer loop
      vertex -4 4 2
      vertex -4 -3 2
      vertex -4 4 0
    endloop
  endfacet
  facet normal 1 -0 0
    outer loop
      vertex -4 -3.4 25
      vertex -4 4 2
      vertex -4 9.48655 25
    endloop
  endfacet
  facet normal 1 0 0
    outer loop
      vertex -4 4 2
      vertex -4 -3.4 25
      vertex -4 -3 2
    endloop
  endfacet
  facet normal 1 0 0
    outer loop
      vertex -4 -3 2
      vertex -4 -3.4 25
      vertex -4 -3.4 2
    endloop
  endfacet
  facet normal 1 0 0
    outer loop
      vertex -4 4 0
      vertex -4 -3 2
      vertex -4 -3 0
    endloop
  endfacet
  facet normal -1 0 0
    outer loop
      vertex 3 -3 0
      vertex 3 4 2
      vertex 3 4 0
    endloop
  endfacet
  facet normal -1 -0 0
    outer loop
      vertex 3 4 2
      vertex 3 -3 0
      vertex 3 -3 2
    endloop
  endfacet
  facet normal 0 1 -0
    outer loop
      vertex 3 -3 0
      vertex -4 -3 2
      vertex 3 -3 2
    endloop
  endfacet
  facet normal 0 1 0
    outer loop
      vertex -4 -3 2
      vertex 3 -3 0
      vertex -4 -3 0
    endloop
  endfacet
  facet normal 0 -1 0
    outer loop
      vertex -4 4 0
      vertex 3 4 2
      vertex -4 4 2
    endloop
  endfacet
  facet normal 0 -1 -0
    outer loop
      vertex 3 4 2
      vertex -4 4 0
      vertex 3 4 0
    endloop
  endfacet
  facet normal 0 0 1
    outer loop
      vertex -6.2 3.8 25
      vertex -4 9.48655 25
      vertex -4.38553 9.31972 25
    endloop
  endfacet
  facet normal -0 0 1
    outer loop
      vertex 7.66393 -5 25
      vertex 8.69658 -5.51902 25
      vertex 9.00352 -5 25
    endloop
  endfacet
  facet normal -0 0 1
    outer loop
      vertex 7.61931 -5.10312 25
      vertex 8.69658 -5.51902 25
      vertex 7.66393 -5 25
    endloop
  endfacet
  facet normal -0 0 1
    outer loop
      vertex 7.50523 -5.32701 25
      vertex 8.69658 -5.51902 25
      vertex 7.61931 -5.10312 25
    endloop
  endfacet
  facet normal 0 0 1
    outer loop
      vertex 8.69658 -5.51902 25
      vertex 7.50523 -5.32701 25
      vertex 8.33287 -6.05419 25
    endloop
  endfacet
  facet normal -0 0 1
    outer loop
      vertex 7.37731 -5.54331 25
      vertex 8.33287 -6.05419 25
      vertex 7.50523 -5.32701 25
    endloop
  endfacet
  facet normal -0 0 1
    outer loop
      vertex 7.23607 -5.75114 25
      vertex 8.33287 -6.05419 25
      vertex 7.37731 -5.54331 25
    endloop
  endfacet
  facet normal 0 0 1
    outer loop
      vertex 8.33287 -6.05419 25
      vertex 7.23607 -5.75114 25
      vertex 7.93629 -6.56547 25
    endloop
  endfacet
  facet normal -0 0 1
    outer loop
      vertex 7.08205 -5.94969 25
      vertex 7.93629 -6.56547 25
      vertex 7.23607 -5.75114 25
    endloop
  endfacet
  facet normal -0 0 1
    outer loop
      vertex 6.91587 -6.13819 25
      vertex 7.93629 -6.56547 25
      vertex 7.08205 -5.94969 25
    endloop
  endfacet
  facet normal 0 0 1
    outer loop
      vertex 7.93629 -6.56547 25
      vertex 6.91587 -6.13819 25
      vertex 7.50838 -7.05083 25
    endloop
  endfacet
  facet normal -0 0 1
    outer loop
      vertex 6.73819 -6.31587 25
      vertex 7.50838 -7.05083 25
      vertex 6.91587 -6.13819 25
    endloop
  endfacet
  facet normal -0 0 1
    outer loop
      vertex 6.5497 -6.48205 25
      vertex 7.50838 -7.05083 25
      vertex 6.73819 -6.31587 25
    endloop
  endfacet
  facet normal 0 0 1
    outer loop
      vertex 7.50838 -7.05083 25
      vertex 6.5497 -6.48205 25
      vertex 7.05083 -7.50838 25
    endloop
  endfacet
  facet normal -0 0 1
    outer loop
      vertex 6.35114 -6.63607 25
      vertex 7.05083 -7.50838 25
      vertex 6.5497 -6.48205 25
    endloop
  endfacet
  facet normal -0 0 1
    outer loop
      vertex 6.14331 -6.77731 25
      vertex 7.05083 -7.50838 25
      vertex 6.35114 -6.63607 25
    endloop
  endfacet
  facet normal 0 0 1
    outer loop
      vertex 7.05083 -7.50838 25
      vertex 6.14331 -6.77731 25
      vertex 6.56547 -7.93629 25
    endloop
  endfacet
  facet normal -0 0 1
    outer loop
      vertex 5.92701 -6.90523 25
      vertex 6.56547 -7.93629 25
      vertex 6.14331 -6.77731 25
    endloop
  endfacet
  facet normal -0 0 1
    outer loop
      vertex 5.70312 -7.01931 25
      vertex 6.56547 -7.93629 25
      vertex 5.92701 -6.90523 25
    endloop
  endfacet
  facet normal 0 0 1
    outer loop
      vertex 6.56547 -7.93629 25
      vertex 5.70312 -7.01931 25
      vertex 6.05419 -8.33287 25
    endloop
  endfacet
  facet normal -0 0 1
    outer loop
      vertex 5.4725 -7.11911 25
      vertex 6.05419 -8.33287 25
      vertex 5.70312 -7.01931 25
    endloop
  endfacet
  facet normal -0 0 1
    outer loop
      vertex 5.23607 -7.20423 25
      vertex 6.05419 -8.33287 25
      vertex 5.4725 -7.11911 25
    endloop
  endfacet
  facet normal 0 0 1
    outer loop
      vertex 6.05419 -8.33287 25
      vertex 5.23607 -7.20423 25
      vertex 5.51902 -8.69658 25
    endloop
  endfacet
  facet normal -0 0 1
    outer loop
      vertex 4.99476 -7.27433 25
      vertex 5.51902 -8.69658 25
      vertex 5.23607 -7.20423 25
    endloop
  endfacet
  facet normal -0 0 1
    outer loop
      vertex 4.74953 -7.32915 25
      vertex 5.51902 -8.69658 25
      vertex 4.99476 -7.27433 25
    endloop
  endfacet
  facet normal 0 0 1
    outer loop
      vertex 5.51902 -8.69658 25
      vertex 4.74953 -7.32915 25
      vertex 4.96206 -9.02596 25
    endloop
  endfacet
  facet normal -0 0 1
    outer loop
      vertex 4.50133 -7.36846 25
      vertex 4.96206 -9.02596 25
      vertex 4.74953 -7.32915 25
    endloop
  endfacet
  facet normal -0 0 1
    outer loop
      vertex 4.25116 -7.39211 25
      vertex 4.96206 -9.02596 25
      vertex 4.50133 -7.36846 25
    endloop
  endfacet
  facet normal 0 0 1
    outer loop
      vertex 4.96206 -9.02596 25
      vertex 4.25116 -7.39211 25
      vertex 4.38553 -9.31972 25
    endloop
  endfacet
  facet normal -0 0 1
    outer loop
      vertex 4 -7.4 25
      vertex 4.38553 -9.31972 25
      vertex 4.25116 -7.39211 25
    endloop
  endfacet
  facet normal 0 0 1
    outer loop
      vertex 4 -7.4 25
      vertex 3.79168 -9.5767 25
      vertex 4.38553 -9.31972 25
    endloop
  endfacet
  facet normal 0 0 1
    outer loop
      vertex 4 -7.4 25
      vertex 3.18287 -9.79588 25
      vertex 3.79168 -9.5767 25
    endloop
  endfacet
  facet normal 0 0 1
    outer loop
      vertex 4 -7.4 25
      vertex 2.56151 -9.97641 25
      vertex 3.18287 -9.79588 25
    endloop
  endfacet
  facet normal -0 0 1
    outer loop
      vertex 0 -7.4 25
      vertex 2.56151 -9.97641 25
      vertex 4 -7.4 25
    endloop
  endfacet
  facet normal 0 0 1
    outer loop
      vertex 2.56151 -9.97641 25
      vertex 0 -7.4 25
      vertex 1.93003 -10.1176 25
    endloop
  endfacet
  facet normal 0 0 1
    outer loop
      vertex 1.93003 -10.1176 25
      vertex 0 -7.4 25
      vertex 1.29093 -10.2188 25
    endloop
  endfacet
  facet normal 0 0 1
    outer loop
      vertex 1.29093 -10.2188 25
      vertex 0 -7.4 25
      vertex 0.646742 -10.2797 25
    endloop
  endfacet
  facet normal 0 0 1
    outer loop
      vertex 0 -7.4 25
      vertex 0 -10.3 25
      vertex 0.646742 -10.2797 25
    endloop
  endfacet
  facet normal 0 0 1
    outer loop
      vertex -0.251162 -7.39211 25
      vertex 0 -10.3 25
      vertex 0 -7.4 25
    endloop
  endfacet
  facet normal 0 0 1
    outer loop
      vertex -0.646742 -10.2797 25
      vertex -0.251162 -7.39211 25
      vertex -0.501332 -7.36846 25
    endloop
  endfacet
  facet normal 0 0 1
    outer loop
      vertex -0.251162 -7.39211 25
      vertex -0.646742 -10.2797 25
      vertex 0 -10.3 25
    endloop
  endfacet
  facet normal 0 0 1
    outer loop
      vertex -1.29093 -10.2188 25
      vertex -0.501332 -7.36846 25
      vertex -0.749525 -7.32915 25
    endloop
  endfacet
  facet normal 0 0 1
    outer loop
      vertex -1.29093 -10.2188 25
      vertex -0.749525 -7.32915 25
      vertex -0.994759 -7.27433 25
    endloop
  endfacet
  facet normal 0 0 1
    outer loop
      vertex -1.93003 -10.1176 25
      vertex -0.994759 -7.27433 25
      vertex -1.23607 -7.20423 25
    endloop
  endfacet
  facet normal 0 0 1
    outer loop
      vertex -0.501332 -7.36846 25
      vertex -1.29093 -10.2188 25
      vertex -0.646742 -10.2797 25
    endloop
  endfacet
  facet normal 0 0 1
    outer loop
      vertex -1.93003 -10.1176 25
      vertex -1.23607 -7.20423 25
      vertex -1.4725 -7.11911 25
    endloop
  endfacet
  facet normal 0 0 1
    outer loop
      vertex -2.56151 -9.97641 25
      vertex -1.4725 -7.11911 25
      vertex -1.70312 -7.01931 25
    endloop
  endfacet
  facet normal 0 0 1
    outer loop
      vertex -3.18287 -9.79588 25
      vertex -1.70312 -7.01931 25
      vertex -1.92701 -6.90523 25
    endloop
  endfacet
  facet normal 0 0 1
    outer loop
      vertex -0.994759 -7.27433 25
      vertex -1.93003 -10.1176 25
      vertex -1.29093 -10.2188 25
    endloop
  endfacet
  facet normal 0 0 1
    outer loop
      vertex -3.18287 -9.79588 25
      vertex -1.92701 -6.90523 25
      vertex -2.14331 -6.77731 25
    endloop
  endfacet
  facet normal 0 0 1
    outer loop
      vertex -3.79168 -9.5767 25
      vertex -2.14331 -6.77731 25
      vertex -2.35114 -6.63607 25
    endloop
  endfacet
  facet normal 0 0 1
    outer loop
      vertex -4.38553 -9.31972 25
      vertex -2.35114 -6.63607 25
      vertex -2.5497 -6.48205 25
    endloop
  endfacet
  facet normal 0 0 1
    outer loop
      vertex -1.4725 -7.11911 25
      vertex -2.56151 -9.97641 25
      vertex -1.93003 -10.1176 25
    endloop
  endfacet
  facet normal 0 0 1
    outer loop
      vertex -4.38553 -9.31972 25
      vertex -2.5497 -6.48205 25
      vertex -2.73819 -6.31587 25
    endloop
  endfacet
  facet normal 0 0 1
    outer loop
      vertex -4.96206 -9.02596 25
      vertex -2.73819 -6.31587 25
      vertex -2.91587 -6.13819 25
    endloop
  endfacet
  facet normal 0 0 1
    outer loop
      vertex -5.51902 -8.69658 25
      vertex -2.91587 -6.13819 25
      vertex -3.08205 -5.94969 25
    endloop
  endfacet
  facet normal 0 0 1
    outer loop
      vertex -1.70312 -7.01931 25
      vertex -3.18287 -9.79588 25
      vertex -2.56151 -9.97641 25
    endloop
  endfacet
  facet normal 0 0 1
    outer loop
      vertex -5.51902 -8.69658 25
      vertex -3.08205 -5.94969 25
      vertex -3.23607 -5.75114 25
    endloop
  endfacet
  facet normal 0 0 1
    outer loop
      vertex -6.05419 -8.33287 25
      vertex -3.23607 -5.75114 25
      vertex -3.37731 -5.54331 25
    endloop
  endfacet
  facet normal 0 0 1
    outer loop
      vertex -6.56547 -7.93629 25
      vertex -3.37731 -5.54331 25
      vertex -3.50523 -5.32701 25
    endloop
  endfacet
  facet normal 0 0 1
    outer loop
      vertex -6.56547 -7.93629 25
      vertex -3.50523 -5.32701 25
      vertex -3.61931 -5.10312 25
    endloop
  endfacet
  facet normal 0 0 1
    outer loop
      vertex -6.2 -3.8 25
      vertex -3.61931 -5.10312 25
      vertex -3.71911 -4.8725 25
    endloop
  endfacet
  facet normal 0 0 1
    outer loop
      vertex -2.14331 -6.77731 25
      vertex -3.79168 -9.5767 25
      vertex -3.18287 -9.79588 25
    endloop
  endfacet
  facet normal 0 0 1
    outer loop
      vertex -6.2 -3.8 25
      vertex -3.71911 -4.8725 25
      vertex -3.80423 -4.63607 25
    endloop
  endfacet
  facet normal 0 0 1
    outer loop
      vertex -6.2 -3.8 25
      vertex -3.80423 -4.63607 25
      vertex -3.87433 -4.39476 25
    endloop
  endfacet
  facet normal 0 0 1
    outer loop
      vertex -6.2 -3.8 25
      vertex -3.87433 -4.39476 25
      vertex -3.92915 -4.14952 25
    endloop
  endfacet
  facet normal 0 0 1
    outer loop
      vertex -6.2 -3.8 25
      vertex -3.92915 -4.14952 25
      vertex -3.96846 -3.90133 25
    endloop
  endfacet
  facet normal -0 0 1
    outer loop
      vertex -6.2 -3.8 25
      vertex -3.96846 -3.90133 25
      vertex -3.99211 -3.65116 25
    endloop
  endfacet
  facet normal 0 0 1
    outer loop
      vertex -2.35114 -6.63607 25
      vertex -4.38553 -9.31972 25
      vertex -3.79168 -9.5767 25
    endloop
  endfacet
  facet normal 0 0 1
    outer loop
      vertex -6.2 -3.8 25
      vertex -3.99211 -3.65116 25
      vertex -4 -3.4 25
    endloop
  endfacet
  facet normal 0 0 1
    outer loop
      vertex -4 9.48655 25
      vertex -6.2 3.8 25
      vertex -4 -3.4 25
    endloop
  endfacet
  facet normal 0 0 1
    outer loop
      vertex -6.2 3.8 25
      vertex -4.38553 9.31972 25
      vertex -4.96206 9.02596 25
    endloop
  endfacet
  facet normal 0 0 1
    outer loop
      vertex -6.2 -3.8 25
      vertex -4 -3.4 25
      vertex -6.2 3.8 25
    endloop
  endfacet
  facet normal 0 0 1
    outer loop
      vertex -6.2 3.8 25
      vertex -4.96206 9.02596 25
      vertex -5.51902 8.69658 25
    endloop
  endfacet
  facet normal 0 0 1
    outer loop
      vertex -3.61931 -5.10312 25
      vertex -6.2 -3.8 25
      vertex -7.05083 -7.50838 25
    endloop
  endfacet
  facet normal 0 0 1
    outer loop
      vertex -6.2 3.8 25
      vertex -5.51902 8.69658 25
      vertex -6.05419 8.33287 25
    endloop
  endfacet
  facet normal 0 0 1
    outer loop
      vertex -2.73819 -6.31587 25
      vertex -4.96206 -9.02596 25
      vertex -4.38553 -9.31972 25
    endloop
  endfacet
  facet normal 0 0 1
    outer loop
      vertex -2.91587 -6.13819 25
      vertex -5.51902 -8.69658 25
      vertex -4.96206 -9.02596 25
    endloop
  endfacet
  facet normal -0 0 1
    outer loop
      vertex -6.56547 7.93629 25
      vertex -6.2 3.8 25
      vertex -6.05419 8.33287 25
    endloop
  endfacet
  facet normal -0 0 1
    outer loop
      vertex -7.05083 7.50838 25
      vertex -6.2 3.8 25
      vertex -6.56547 7.93629 25
    endloop
  endfacet
  facet normal -0 0 1
    outer loop
      vertex -7.50838 7.05083 25
      vertex -6.2 3.8 25
      vertex -7.05083 7.50838 25
    endloop
  endfacet
  facet normal -0 0 1
    outer loop
      vertex -7.93629 6.56547 25
      vertex -6.2 3.8 25
      vertex -7.50838 7.05083 25
    endloop
  endfacet
  facet normal -0 0 1
    outer loop
      vertex -8.33287 6.05419 25
      vertex -6.2 3.8 25
      vertex -7.93629 6.56547 25
    endloop
  endfacet
  facet normal -0 0 1
    outer loop
      vertex -8.69658 5.51902 25
      vertex -6.2 3.8 25
      vertex -8.33287 6.05419 25
    endloop
  endfacet
  facet normal 0 0 1
    outer loop
      vertex -8.69658 5.51902 25
      vertex -8.8 3.8 25
      vertex -6.2 3.8 25
    endloop
  endfacet
  facet normal -0 0 1
    outer loop
      vertex -9.31972 4.38553 25
      vertex -8.8 3.8 25
      vertex -9.02596 4.96206 25
    endloop
  endfacet
  facet normal -0 0 1
    outer loop
      vertex -9.02596 4.96206 25
      vertex -8.8 3.8 25
      vertex -8.69658 5.51902 25
    endloop
  endfacet
  facet normal 0 0 1
    outer loop
      vertex -3.23607 -5.75114 25
      vertex -6.05419 -8.33287 25
      vertex -5.51902 -8.69658 25
    endloop
  endfacet
  facet normal 0 0 1
    outer loop
      vertex -3.37731 -5.54331 25
      vertex -6.56547 -7.93629 25
      vertex -6.05419 -8.33287 25
    endloop
  endfacet
  facet normal 0 0 1
    outer loop
      vertex -3.61931 -5.10312 25
      vertex -7.05083 -7.50838 25
      vertex -6.56547 -7.93629 25
    endloop
  endfacet
  facet normal 0 0 1
    outer loop
      vertex -6.2 -3.8 25
      vertex -7.50838 -7.05083 25
      vertex -7.05083 -7.50838 25
    endloop
  endfacet
  facet normal 0 0 1
    outer loop
      vertex -6.2 -3.8 25
      vertex -7.93629 -6.56547 25
      vertex -7.50838 -7.05083 25
    endloop
  endfacet
  facet normal 0 0 1
    outer loop
      vertex -6.2 -3.8 25
      vertex -8.33287 -6.05419 25
      vertex -7.93629 -6.56547 25
    endloop
  endfacet
  facet normal 0 0 1
    outer loop
      vertex -6.2 -3.8 25
      vertex -8.69658 -5.51902 25
      vertex -8.33287 -6.05419 25
    endloop
  endfacet
  facet normal -0 0 1
    outer loop
      vertex -8.8 -3.8 25
      vertex -8.69658 -5.51902 25
      vertex -6.2 -3.8 25
    endloop
  endfacet
  facet normal 0 0 1
    outer loop
      vertex -8.8 -3.8 25
      vertex -9.02596 -4.96206 25
      vertex -8.69658 -5.51902 25
    endloop
  endfacet
  facet normal 0 0 1
    outer loop
      vertex -9.5767 3.79168 25
      vertex -8.8 3.8 25
      vertex -9.31972 4.38553 25
    endloop
  endfacet
  facet normal 0 0 1
    outer loop
      vertex -9.79588 3.18287 25
      vertex -8.8 3.8 25
      vertex -9.5767 3.79168 25
    endloop
  endfacet
  facet normal 0 0 1
    outer loop
      vertex -8.8 -3.8 25
      vertex -9.31972 -4.38553 25
      vertex -9.02596 -4.96206 25
    endloop
  endfacet
  facet normal 0 0 1
    outer loop
      vertex -9.97641 2.56151 25
      vertex -8.8 3.8 25
      vertex -9.79588 3.18287 25
    endloop
  endfacet
  facet normal 0 0 1
    outer loop
      vertex -8.8 -3.8 25
      vertex -9.5767 -3.79168 25
      vertex -9.31972 -4.38553 25
    endloop
  endfacet
  facet normal 0 0 1
    outer loop
      vertex -10.1176 1.93003 25
      vertex -8.8 3.8 25
      vertex -9.97641 2.56151 25
    endloop
  endfacet
  facet normal 0 0 1
    outer loop
      vertex -8.8 -3.8 25
      vertex -9.79588 -3.18287 25
      vertex -9.5767 -3.79168 25
    endloop
  endfacet
  facet normal 0 0 1
    outer loop
      vertex -10.2188 1.29093 25
      vertex -8.8 3.8 25
      vertex -10.1176 1.93003 25
    endloop
  endfacet
  facet normal 0 0 1
    outer loop
      vertex -8.8 -3.8 25
      vertex -9.97641 -2.56151 25
      vertex -9.79588 -3.18287 25
    endloop
  endfacet
  facet normal 0 0 1
    outer loop
      vertex -10.2797 0.646742 25
      vertex -8.8 3.8 25
      vertex -10.2188 1.29093 25
    endloop
  endfacet
  facet normal 0 0 1
    outer loop
      vertex -8.8 -3.8 25
      vertex -10.1176 -1.93003 25
      vertex -9.97641 -2.56151 25
    endloop
  endfacet
  facet normal 0 0 1
    outer loop
      vertex -10.3 0 25
      vertex -8.8 3.8 25
      vertex -10.2797 0.646742 25
    endloop
  endfacet
  facet normal 0 0 1
    outer loop
      vertex -8.8 -3.8 25
      vertex -10.2188 -1.29093 25
      vertex -10.1176 -1.93003 25
    endloop
  endfacet
  facet normal 0 0 1
    outer loop
      vertex -8.8 3.8 25
      vertex -10.3 0 25
      vertex -8.8 -3.8 25
    endloop
  endfacet
  facet normal 0 0 1
    outer loop
      vertex -8.8 -3.8 25
      vertex -10.2797 -0.646742 25
      vertex -10.2188 -1.29093 25
    endloop
  endfacet
  facet normal 0 0 1
    outer loop
      vertex -8.8 -3.8 25
      vertex -10.3 0 25
      vertex -10.2797 -0.646742 25
    endloop
  endfacet
  facet normal 0.995561 0.0941161 0
    outer loop
      vertex -3.96846 -3.90133 25
      vertex -3.99211 -3.65116 2
      vertex -3.99211 -3.65116 25
    endloop
  endfacet
  facet normal 0.995561 0.0941161 0
    outer loop
      vertex -3.99211 -3.65116 2
      vertex -3.96846 -3.90133 25
      vertex -3.96846 -3.90133 2
    endloop
  endfacet
  facet normal 0.860741 0.509043 0
    outer loop
      vertex -3.37731 -5.54331 25
      vertex -3.50523 -5.32701 2
      vertex -3.50523 -5.32701 25
    endloop
  endfacet
  facet normal 0.860741 0.509043 0
    outer loop
      vertex -3.50523 -5.32701 2
      vertex -3.37731 -5.54331 25
      vertex -3.37731 -5.54331 2
    endloop
  endfacet
  facet normal 0 1 -0
    outer loop
      vertex 4 -7.4 2
      vertex 0 -7.4 25
      vertex 4 -7.4 25
    endloop
  endfacet
  facet normal 0 1 0
    outer loop
      vertex 0 -7.4 25
      vertex 4 -7.4 2
      vertex 0 -7.4 2
    endloop
  endfacet
  facet normal 0.975915 0.218152 0
    outer loop
      vertex -3.87433 -4.39476 25
      vertex -3.92915 -4.14952 2
      vertex -3.92915 -4.14952 25
    endloop
  endfacet
  facet normal 0.975915 0.218152 0
    outer loop
      vertex -3.92915 -4.14952 2
      vertex -3.87433 -4.39476 25
      vertex -3.87433 -4.39476 2
    endloop
  endfacet
  facet normal 0.960301 0.278965 0
    outer loop
      vertex -3.80423 -4.63607 25
      vertex -3.87433 -4.39476 2
      vertex -3.87433 -4.39476 25
    endloop
  endfacet
  facet normal 0.960301 0.278965 0
    outer loop
      vertex -3.87433 -4.39476 2
      vertex -3.80423 -4.63607 25
      vertex -3.80423 -4.63607 2
    endloop
  endfacet
  facet normal 0.999507 0.0313987 0
    outer loop
      vertex -3.99211 -3.65116 25
      vertex -4 -3.4 2
      vertex -4 -3.4 25
    endloop
  endfacet
  facet normal 0.999507 0.0313987 0
    outer loop
      vertex -4 -3.4 2
      vertex -3.99211 -3.65116 25
      vertex -3.99211 -3.65116 2
    endloop
  endfacet
  facet normal 0.940881 0.338738 0
    outer loop
      vertex -3.71911 -4.8725 25
      vertex -3.80423 -4.63607 2
      vertex -3.80423 -4.63607 25
    endloop
  endfacet
  facet normal 0.940881 0.338738 0
    outer loop
      vertex -3.80423 -4.63607 2
      vertex -3.71911 -4.8725 25
      vertex -3.71911 -4.8725 2
    endloop
  endfacet
  facet normal 0.827083 0.56208 0
    outer loop
      vertex -3.23607 -5.75114 25
      vertex -3.37731 -5.54331 2
      vertex -3.37731 -5.54331 25
    endloop
  endfacet
  facet normal 0.827083 0.56208 0
    outer loop
      vertex -3.37731 -5.54331 2
      vertex -3.23607 -5.75114 25
      vertex -3.23607 -5.75114 2
    endloop
  endfacet
  facet normal -0.707107 0.707107 0
    outer loop
      vertex 6.73819 -6.31587 2
      vertex 6.91587 -6.13819 25
      vertex 6.91587 -6.13819 2
    endloop
  endfacet
  facet normal -0.707107 0.707107 0
    outer loop
      vertex 6.91587 -6.13819 25
      vertex 6.73819 -6.31587 2
      vertex 6.73819 -6.31587 25
    endloop
  endfacet
  facet normal -0.218161 0.975913 0
    outer loop
      vertex 4.99476 -7.27433 2
      vertex 4.74953 -7.32915 25
      vertex 4.99476 -7.27433 25
    endloop
  endfacet
  facet normal -0.218161 0.975913 0
    outer loop
      vertex 4.74953 -7.32915 25
      vertex 4.99476 -7.27433 2
      vertex 4.74953 -7.32915 2
    endloop
  endfacet
  facet normal -0.0313987 0.999507 0
    outer loop
      vertex 4.25116 -7.39211 2
      vertex 4 -7.4 25
      vertex 4.25116 -7.39211 25
    endloop
  endfacet
  facet normal -0.0313987 0.999507 0
    outer loop
      vertex 4 -7.4 25
      vertex 4.25116 -7.39211 2
      vertex 4 -7.4 2
    endloop
  endfacet
  facet normal 0.0313985 0.999507 -0
    outer loop
      vertex 0 -7.4 2
      vertex -0.251162 -7.39211 25
      vertex 0 -7.4 25
    endloop
  endfacet
  facet normal 0.0313985 0.999507 0
    outer loop
      vertex -0.251162 -7.39211 25
      vertex 0 -7.4 2
      vertex -0.251162 -7.39211 2
    endloop
  endfacet
  facet normal 0.338738 0.940881 -0
    outer loop
      vertex -1.23607 -7.20423 2
      vertex -1.4725 -7.11911 25
      vertex -1.23607 -7.20423 25
    endloop
  endfacet
  facet normal 0.338738 0.940881 0
    outer loop
      vertex -1.4725 -7.11911 25
      vertex -1.23607 -7.20423 2
      vertex -1.4725 -7.11911 2
    endloop
  endfacet
  facet normal 0.453998 0.891003 -0
    outer loop
      vertex -1.70312 -7.01931 2
      vertex -1.92701 -6.90523 25
      vertex -1.70312 -7.01931 25
    endloop
  endfacet
  facet normal 0.453998 0.891003 0
    outer loop
      vertex -1.92701 -6.90523 25
      vertex -1.70312 -7.01931 2
      vertex -1.92701 -6.90523 2
    endloop
  endfacet
  facet normal 0.397154 0.917752 -0
    outer loop
      vertex -1.4725 -7.11911 2
      vertex -1.70312 -7.01931 25
      vertex -1.4725 -7.11911 25
    endloop
  endfacet
  facet normal 0.397154 0.917752 0
    outer loop
      vertex -1.70312 -7.01931 25
      vertex -1.4725 -7.11911 2
      vertex -1.70312 -7.01931 2
    endloop
  endfacet
  facet normal 0.707107 0.707107 0
    outer loop
      vertex -2.73819 -6.31587 25
      vertex -2.91587 -6.13819 2
      vertex -2.91587 -6.13819 25
    endloop
  endfacet
  facet normal 0.707107 0.707107 0
    outer loop
      vertex -2.91587 -6.13819 2
      vertex -2.73819 -6.31587 25
      vertex -2.73819 -6.31587 2
    endloop
  endfacet
  facet normal 0.987688 0.156437 0
    outer loop
      vertex -3.92915 -4.14952 25
      vertex -3.96846 -3.90133 2
      vertex -3.96846 -3.90133 25
    endloop
  endfacet
  facet normal 0.987688 0.156437 0
    outer loop
      vertex -3.96846 -3.90133 2
      vertex -3.92915 -4.14952 25
      vertex -3.92915 -4.14952 2
    endloop
  endfacet
  facet normal -0.0941161 0.995561 0
    outer loop
      vertex 4.50133 -7.36846 2
      vertex 4.25116 -7.39211 25
      vertex 4.50133 -7.36846 25
    endloop
  endfacet
  facet normal -0.0941161 0.995561 0
    outer loop
      vertex 4.25116 -7.39211 25
      vertex 4.50133 -7.36846 2
      vertex 4.25116 -7.39211 2
    endloop
  endfacet
  facet normal 0.156435 0.987688 -0
    outer loop
      vertex -0.501332 -7.36846 2
      vertex -0.749525 -7.32915 25
      vertex -0.501332 -7.36846 25
    endloop
  endfacet
  facet normal 0.156435 0.987688 0
    outer loop
      vertex -0.749525 -7.32915 25
      vertex -0.501332 -7.36846 2
      vertex -0.749525 -7.32915 2
    endloop
  endfacet
  facet normal 0.0941161 0.995561 -0
    outer loop
      vertex -0.251162 -7.39211 2
      vertex -0.501332 -7.36846 25
      vertex -0.251162 -7.39211 25
    endloop
  endfacet
  facet normal 0.0941161 0.995561 0
    outer loop
      vertex -0.501332 -7.36846 25
      vertex -0.251162 -7.39211 2
      vertex -0.501332 -7.36846 2
    endloop
  endfacet
  facet normal 0.218157 0.975914 -0
    outer loop
      vertex -0.749525 -7.32915 2
      vertex -0.994759 -7.27433 25
      vertex -0.749525 -7.32915 25
    endloop
  endfacet
  facet normal 0.218157 0.975914 0
    outer loop
      vertex -0.994759 -7.27433 25
      vertex -0.749525 -7.32915 2
      vertex -0.994759 -7.27433 2
    endloop
  endfacet
  facet normal 0.278964 0.960301 -0
    outer loop
      vertex -0.994759 -7.27433 2
      vertex -1.23607 -7.20423 25
      vertex -0.994759 -7.27433 25
    endloop
  endfacet
  facet normal 0.278964 0.960301 0
    outer loop
      vertex -1.23607 -7.20423 25
      vertex -0.994759 -7.27433 2
      vertex -1.23607 -7.20423 2
    endloop
  endfacet
  facet normal 0.66132 0.750104 -0
    outer loop
      vertex -2.5497 -6.48205 2
      vertex -2.73819 -6.31587 25
      vertex -2.5497 -6.48205 25
    endloop
  endfacet
  facet normal 0.66132 0.750104 0
    outer loop
      vertex -2.73819 -6.31587 25
      vertex -2.5497 -6.48205 2
      vertex -2.73819 -6.31587 2
    endloop
  endfacet
  facet normal 0.61291 0.790153 -0
    outer loop
      vertex -2.35114 -6.63607 2
      vertex -2.5497 -6.48205 25
      vertex -2.35114 -6.63607 25
    endloop
  endfacet
  facet normal 0.61291 0.790153 0
    outer loop
      vertex -2.5497 -6.48205 25
      vertex -2.35114 -6.63607 2
      vertex -2.5497 -6.48205 2
    endloop
  endfacet
  facet normal 0.56208 0.827083 -0
    outer loop
      vertex -2.14331 -6.77731 2
      vertex -2.35114 -6.63607 25
      vertex -2.14331 -6.77731 25
    endloop
  endfacet
  facet normal 0.56208 0.827083 0
    outer loop
      vertex -2.35114 -6.63607 25
      vertex -2.14331 -6.77731 2
      vertex -2.35114 -6.63607 2
    endloop
  endfacet
  facet normal -0.156431 0.987689 0
    outer loop
      vertex 4.74953 -7.32915 2
      vertex 4.50133 -7.36846 25
      vertex 4.74953 -7.32915 25
    endloop
  endfacet
  facet normal -0.156431 0.987689 0
    outer loop
      vertex 4.50133 -7.36846 25
      vertex 4.74953 -7.32915 2
      vertex 4.50133 -7.36846 2
    endloop
  endfacet
  facet normal -0.61291 0.790153 0
    outer loop
      vertex 6.5497 -6.48205 2
      vertex 6.35114 -6.63607 25
      vertex 6.5497 -6.48205 25
    endloop
  endfacet
  facet normal -0.61291 0.790153 0
    outer loop
      vertex 6.35114 -6.63607 25
      vertex 6.5497 -6.48205 2
      vertex 6.35114 -6.63607 2
    endloop
  endfacet
  facet normal -0.509043 0.860741 0
    outer loop
      vertex 6.14331 -6.77731 2
      vertex 5.92701 -6.90523 25
      vertex 6.14331 -6.77731 25
    endloop
  endfacet
  facet normal -0.509043 0.860741 0
    outer loop
      vertex 5.92701 -6.90523 25
      vertex 6.14331 -6.77731 2
      vertex 5.92701 -6.90523 2
    endloop
  endfacet
  facet normal -0.397154 0.917752 0
    outer loop
      vertex 5.70312 -7.01931 2
      vertex 5.4725 -7.11911 25
      vertex 5.70312 -7.01931 25
    endloop
  endfacet
  facet normal -0.397154 0.917752 0
    outer loop
      vertex 5.4725 -7.11911 25
      vertex 5.70312 -7.01931 2
      vertex 5.4725 -7.11911 2
    endloop
  endfacet
  facet normal -0.338738 0.940881 0
    outer loop
      vertex 5.4725 -7.11911 2
      vertex 5.23607 -7.20423 25
      vertex 5.4725 -7.11911 25
    endloop
  endfacet
  facet normal -0.338738 0.940881 0
    outer loop
      vertex 5.23607 -7.20423 25
      vertex 5.4725 -7.11911 2
      vertex 5.23607 -7.20423 2
    endloop
  endfacet
  facet normal -0.278965 0.960301 0
    outer loop
      vertex 5.23607 -7.20423 2
      vertex 4.99476 -7.27433 25
      vertex 5.23607 -7.20423 25
    endloop
  endfacet
  facet normal -0.278965 0.960301 0
    outer loop
      vertex 4.99476 -7.27433 25
      vertex 5.23607 -7.20423 2
      vertex 4.99476 -7.27433 2
    endloop
  endfacet
  facet normal -0.750121 0.6613 0
    outer loop
      vertex 6.91587 -6.13819 2
      vertex 7.08205 -5.94969 25
      vertex 7.08205 -5.94969 2
    endloop
  endfacet
  facet normal -0.750121 0.6613 0
    outer loop
      vertex 7.08205 -5.94969 25
      vertex 6.91587 -6.13819 2
      vertex 6.91587 -6.13819 25
    endloop
  endfacet
  facet normal -0.827083 0.56208 0
    outer loop
      vertex 7.23607 -5.75114 2
      vertex 7.37731 -5.54331 25
      vertex 7.37731 -5.54331 2
    endloop
  endfacet
  facet normal -0.827083 0.56208 0
    outer loop
      vertex 7.37731 -5.54331 25
      vertex 7.23607 -5.75114 2
      vertex 7.23607 -5.75114 25
    endloop
  endfacet
  facet normal -0.860741 0.509043 0
    outer loop
      vertex 7.37731 -5.54331 2
      vertex 7.50523 -5.32701 25
      vertex 7.50523 -5.32701 2
    endloop
  endfacet
  facet normal -0.860741 0.509043 0
    outer loop
      vertex 7.50523 -5.32701 25
      vertex 7.37731 -5.54331 2
      vertex 7.37731 -5.54331 25
    endloop
  endfacet
  facet normal -0.891003 0.453998 0
    outer loop
      vertex 7.50523 -5.32701 2
      vertex 7.61931 -5.10312 25
      vertex 7.61931 -5.10312 2
    endloop
  endfacet
  facet normal -0.891003 0.453998 0
    outer loop
      vertex 7.61931 -5.10312 25
      vertex 7.50523 -5.32701 2
      vertex 7.50523 -5.32701 25
    endloop
  endfacet
  facet normal 0.750121 0.6613 0
    outer loop
      vertex -2.91587 -6.13819 25
      vertex -3.08205 -5.94969 2
      vertex -3.08205 -5.94969 25
    endloop
  endfacet
  facet normal 0.750121 0.6613 0
    outer loop
      vertex -3.08205 -5.94969 2
      vertex -2.91587 -6.13819 25
      vertex -2.91587 -6.13819 2
    endloop
  endfacet
  facet normal 0.790138 0.612929 0
    outer loop
      vertex -3.08205 -5.94969 25
      vertex -3.23607 -5.75114 2
      vertex -3.23607 -5.75114 25
    endloop
  endfacet
  facet normal 0.790138 0.612929 0
    outer loop
      vertex -3.23607 -5.75114 2
      vertex -3.08205 -5.94969 25
      vertex -3.08205 -5.94969 2
    endloop
  endfacet
  facet normal 0.509043 0.860741 -0
    outer loop
      vertex -1.92701 -6.90523 2
      vertex -2.14331 -6.77731 25
      vertex -1.92701 -6.90523 25
    endloop
  endfacet
  facet normal 0.509043 0.860741 0
    outer loop
      vertex -2.14331 -6.77731 25
      vertex -1.92701 -6.90523 2
      vertex -2.14331 -6.77731 2
    endloop
  endfacet
  facet normal 0.891003 0.453998 0
    outer loop
      vertex -3.50523 -5.32701 25
      vertex -3.61931 -5.10312 2
      vertex -3.61931 -5.10312 25
    endloop
  endfacet
  facet normal 0.891003 0.453998 0
    outer loop
      vertex -3.61931 -5.10312 2
      vertex -3.50523 -5.32701 25
      vertex -3.50523 -5.32701 2
    endloop
  endfacet
  facet normal 0.917752 0.397154 0
    outer loop
      vertex -3.61931 -5.10312 25
      vertex -3.71911 -4.8725 2
      vertex -3.71911 -4.8725 25
    endloop
  endfacet
  facet normal 0.917752 0.397154 0
    outer loop
      vertex -3.71911 -4.8725 2
      vertex -3.61931 -5.10312 25
      vertex -3.61931 -5.10312 2
    endloop
  endfacet
  facet normal -0.66132 0.750104 0
    outer loop
      vertex 6.73819 -6.31587 2
      vertex 6.5497 -6.48205 25
      vertex 6.73819 -6.31587 25
    endloop
  endfacet
  facet normal -0.66132 0.750104 0
    outer loop
      vertex 6.5497 -6.48205 25
      vertex 6.73819 -6.31587 2
      vertex 6.5497 -6.48205 2
    endloop
  endfacet
  facet normal -0.56208 0.827083 0
    outer loop
      vertex 6.35114 -6.63607 2
      vertex 6.14331 -6.77731 25
      vertex 6.35114 -6.63607 25
    endloop
  endfacet
  facet normal -0.56208 0.827083 0
    outer loop
      vertex 6.14331 -6.77731 25
      vertex 6.35114 -6.63607 2
      vertex 6.14331 -6.77731 2
    endloop
  endfacet
  facet normal -0.453998 0.891003 0
    outer loop
      vertex 5.92701 -6.90523 2
      vertex 5.70312 -7.01931 25
      vertex 5.92701 -6.90523 25
    endloop
  endfacet
  facet normal -0.453998 0.891003 0
    outer loop
      vertex 5.70312 -7.01931 25
      vertex 5.92701 -6.90523 2
      vertex 5.70312 -7.01931 2
    endloop
  endfacet
  facet normal -0.790138 0.612929 0
    outer loop
      vertex 7.08205 -5.94969 2
      vertex 7.23607 -5.75114 25
      vertex 7.23607 -5.75114 2
    endloop
  endfacet
  facet normal -0.790138 0.612929 0
    outer loop
      vertex 7.23607 -5.75114 25
      vertex 7.08205 -5.94969 2
      vertex 7.08205 -5.94969 25
    endloop
  endfacet
  facet normal -0.917768 0.397118 0
    outer loop
      vertex 7.61931 -5.10312 2
      vertex 7.66393 -5 25
      vertex 7.66393 -5 2
    endloop
  endfacet
  facet normal -0.917768 0.397118 0
    outer loop
      vertex 7.66393 -5 25
      vertex 7.61931 -5.10312 2
      vertex 7.61931 -5.10312 25
    endloop
  endfacet
  facet normal 0 0 -1
    outer loop
      vertex -9 -4 4
      vertex -6 4 4
      vertex -6 -4 4
    endloop
  endfacet
  facet normal -0 0 -1
    outer loop
      vertex -6 4 4
      vertex -9 -4 4
      vertex -9 4 4
    endloop
  endfacet
  facet normal 0 1 -0
    outer loop
      vertex 9.00352 -5 2
      vertex 7.66393 -5 25
      vertex 9.00352 -5 25
    endloop
  endfacet
  facet normal 0 1 0
    outer loop
      vertex 7.66393 -5 25
      vertex 9.00352 -5 2
      vertex 7.66393 -5 2
    endloop
  endfacet
  facet normal -1 0 0
    outer loop
      vertex -8.8 -3.8 25
      vertex -8.8 3.8 27
      vertex -8.8 3.8 25
    endloop
  endfacet
  facet normal -1 -0 0
    outer loop
      vertex -8.8 3.8 27
      vertex -8.8 -3.8 25
      vertex -8.8 -3.8 27
    endloop
  endfacet
  facet normal -0 0 1
    outer loop
      vertex -8.8 3.8 27
      vertex -6.2 -3.8 27
      vertex -6.2 3.8 27
    endloop
  endfacet
  facet normal 0 0 1
    outer loop
      vertex -6.2 -3.8 27
      vertex -8.8 3.8 27
      vertex -8.8 -3.8 27
    endloop
  endfacet
  facet normal 1 -0 0
    outer loop
      vertex -6.2 -3.8 27
      vertex -6.2 3.8 25
      vertex -6.2 3.8 27
    endloop
  endfacet
  facet normal 1 0 0
    outer loop
      vertex -6.2 3.8 25
      vertex -6.2 -3.8 27
      vertex -6.2 -3.8 25
    endloop
  endfacet
  facet normal 0 1 -0
    outer loop
      vertex -6.2 3.8 25
      vertex -8.8 3.8 27
      vertex -6.2 3.8 27
    endloop
  endfacet
  facet normal 0 1 0
    outer loop
      vertex -8.8 3.8 27
      vertex -6.2 3.8 25
      vertex -8.8 3.8 25
    endloop
  endfacet
  facet normal 0 -1 0
    outer loop
      vertex -8.8 -3.8 25
      vertex -6.2 -3.8 27
      vertex -8.8 -3.8 27
    endloop
  endfacet
  facet normal 0 -1 -0
    outer loop
      vertex -6.2 -3.8 27
      vertex -8.8 -3.8 25
      vertex -6.2 -3.8 25
    endloop
  endfacet
endsolid OpenSCAD_Model
