solid OpenSCAD_Model
  facet normal -0.999507 0.0314127 0
    outer loop
      vertex -8 0 0
      vertex -7.98421 0.502324 100
      vertex -7.98421 0.502324 0
    endloop
  endfacet
  facet normal -0.999507 0.0314127 0
    outer loop
      vertex -7.98421 0.502324 100
      vertex -8 0 0
      vertex -8 0 100
    endloop
  endfacet
  facet normal -0.750112 -0.661311 0
    outer loop
      vertex -5.83175 -5.47638 0
      vertex -6.16411 -5.09939 100
      vertex -6.16411 -5.09939 0
    endloop
  endfacet
  facet normal -0.750112 -0.661311 0
    outer loop
      vertex -6.16411 -5.09939 100
      vertex -5.83175 -5.47638 0
      vertex -5.83175 -5.47638 100
    endloop
  endfacet
  facet normal -0.661311 0.750112 0
    outer loop
      vertex -5.09939 6.16411 0
      vertex -5.47638 5.83175 100
      vertex -5.09939 6.16411 100
    endloop
  endfacet
  facet normal -0.661311 0.750112 0
    outer loop
      vertex -5.47638 5.83175 100
      vertex -5.09939 6.16411 0
      vertex -5.47638 5.83175 0
    endloop
  endfacet
  facet normal -0.338738 0.940881 0
    outer loop
      vertex -2.47214 7.60845 0
      vertex -2.945 7.43821 100
      vertex -2.47214 7.60845 100
    endloop
  endfacet
  facet normal -0.338738 0.940881 0
    outer loop
      vertex -2.945 7.43821 100
      vertex -2.47214 7.60845 0
      vertex -2.945 7.43821 0
    endloop
  endfacet
  facet normal -0.827082 0.562082 0
    outer loop
      vertex -6.75462 4.28661 0
      vertex -6.47214 4.70228 100
      vertex -6.47214 4.70228 0
    endloop
  endfacet
  facet normal -0.827082 0.562082 0
    outer loop
      vertex -6.47214 4.70228 100
      vertex -6.75462 4.28661 0
      vertex -6.75462 4.28661 100
    endloop
  endfacet
  facet normal -0.612908 0.790154 0
    outer loop
      vertex -4.70228 6.47214 0
      vertex -5.09939 6.16411 100
      vertex -4.70228 6.47214 100
    endloop
  endfacet
  facet normal -0.612908 0.790154 0
    outer loop
      vertex -5.09939 6.16411 100
      vertex -4.70228 6.47214 0
      vertex -5.09939 6.16411 0
    endloop
  endfacet
  facet normal -0.156435 0.987688 0
    outer loop
      vertex -1.00267 7.93692 0
      vertex -1.49905 7.8583 100
      vertex -1.00267 7.93692 100
    endloop
  endfacet
  facet normal -0.156435 0.987688 0
    outer loop
      vertex -1.49905 7.8583 100
      vertex -1.00267 7.93692 0
      vertex -1.49905 7.8583 0
    endloop
  endfacet
  facet normal -0.397148 -0.917755 0
    outer loop
      vertex -3.40623 -7.23862 0
      vertex -2.945 -7.43821 100
      vertex -3.40623 -7.23862 100
    endloop
  endfacet
  facet normal -0.397148 -0.917755 -0
    outer loop
      vertex -2.945 -7.43821 100
      vertex -3.40623 -7.23862 0
      vertex -2.945 -7.43821 0
    endloop
  endfacet
  facet normal -0.827082 -0.562082 0
    outer loop
      vertex -6.47214 -4.70228 0
      vertex -6.75462 -4.28661 100
      vertex -6.75462 -4.28661 0
    endloop
  endfacet
  facet normal -0.827082 -0.562082 0
    outer loop
      vertex -6.75462 -4.28661 100
      vertex -6.47214 -4.70228 0
      vertex -6.47214 -4.70228 100
    endloop
  endfacet
  facet normal -0.960294 0.278991 0
    outer loop
      vertex -7.74866 1.98952 0
      vertex -7.60845 2.47214 100
      vertex -7.60845 2.47214 0
    endloop
  endfacet
  facet normal -0.960294 0.278991 0
    outer loop
      vertex -7.60845 2.47214 100
      vertex -7.74866 1.98952 0
      vertex -7.74866 1.98952 100
    endloop
  endfacet
  facet normal -0.707107 0.707107 0
    outer loop
      vertex -5.83175 5.47638 0
      vertex -5.47638 5.83175 100
      vertex -5.47638 5.83175 0
    endloop
  endfacet
  facet normal -0.707107 0.707107 0
    outer loop
      vertex -5.47638 5.83175 100
      vertex -5.83175 5.47638 0
      vertex -5.83175 5.47638 100
    endloop
  endfacet
  facet normal -0.891007 0.45399 0
    outer loop
      vertex -7.23862 3.40623 0
      vertex -7.01045 3.85403 100
      vertex -7.01045 3.85403 0
    endloop
  endfacet
  facet normal -0.891007 0.45399 0
    outer loop
      vertex -7.01045 3.85403 100
      vertex -7.23862 3.40623 0
      vertex -7.23862 3.40623 100
    endloop
  endfacet
  facet normal -0.509043 0.860741 0
    outer loop
      vertex -3.85403 7.01045 0
      vertex -4.28661 6.75462 100
      vertex -3.85403 7.01045 100
    endloop
  endfacet
  facet normal -0.509043 0.860741 0
    outer loop
      vertex -4.28661 6.75462 100
      vertex -3.85403 7.01045 0
      vertex -4.28661 6.75462 0
    endloop
  endfacet
  facet normal -0.0941071 0.995562 0
    outer loop
      vertex -0.502324 7.98421 0
      vertex -1.00267 7.93692 100
      vertex -0.502324 7.98421 100
    endloop
  endfacet
  facet normal -0.0941071 0.995562 0
    outer loop
      vertex -1.00267 7.93692 100
      vertex -0.502324 7.98421 0
      vertex -1.00267 7.93692 0
    endloop
  endfacet
  facet normal -0.707107 -0.707107 0
    outer loop
      vertex -5.47638 -5.83175 0
      vertex -5.83175 -5.47638 100
      vertex -5.83175 -5.47638 0
    endloop
  endfacet
  facet normal -0.707107 -0.707107 0
    outer loop
      vertex -5.83175 -5.47638 100
      vertex -5.47638 -5.83175 0
      vertex -5.47638 -5.83175 100
    endloop
  endfacet
  facet normal -0.917755 -0.397148 0
    outer loop
      vertex -7.23862 -3.40623 0
      vertex -7.43821 -2.945 100
      vertex -7.43821 -2.945 0
    endloop
  endfacet
  facet normal -0.917755 -0.397148 0
    outer loop
      vertex -7.43821 -2.945 100
      vertex -7.23862 -3.40623 0
      vertex -7.23862 -3.40623 100
    endloop
  endfacet
  facet normal 0 0 -1
    outer loop
      vertex 0 -8 0
      vertex -0.489765 -7.78461 0
      vertex 0 -7.8 0
    endloop
  endfacet
  facet normal 0 0 -1
    outer loop
      vertex -0.502324 -7.98421 0
      vertex -0.489765 -7.78461 0
      vertex 0 -8 0
    endloop
  endfacet
  facet normal 0 0 -1
    outer loop
      vertex -0.502324 -7.98421 0
      vertex -0.977599 -7.73849 0
      vertex -0.489765 -7.78461 0
    endloop
  endfacet
  facet normal 0 0 -1
    outer loop
      vertex -1.00267 -7.93692 0
      vertex -0.977599 -7.73849 0
      vertex -0.502324 -7.98421 0
    endloop
  endfacet
  facet normal 0 0 -1
    outer loop
      vertex -1.00267 -7.93692 0
      vertex -1.46157 -7.66184 0
      vertex -0.977599 -7.73849 0
    endloop
  endfacet
  facet normal 0 0 -1
    outer loop
      vertex -1.49905 -7.8583 0
      vertex -1.46157 -7.66184 0
      vertex -1.00267 -7.93692 0
    endloop
  endfacet
  facet normal 0 0 -1
    outer loop
      vertex -1.49905 -7.8583 0
      vertex -1.93978 -7.55495 0
      vertex -1.46157 -7.66184 0
    endloop
  endfacet
  facet normal 0 0 -1
    outer loop
      vertex -1.98952 -7.74866 0
      vertex -1.93978 -7.55495 0
      vertex -1.49905 -7.8583 0
    endloop
  endfacet
  facet normal 0 0 -1
    outer loop
      vertex -1.98952 -7.74866 0
      vertex -2.41033 -7.41824 0
      vertex -1.93978 -7.55495 0
    endloop
  endfacet
  facet normal 0 0 -1
    outer loop
      vertex -2.47214 -7.60845 0
      vertex -2.41033 -7.41824 0
      vertex -1.98952 -7.74866 0
    endloop
  endfacet
  facet normal 0 0 -1
    outer loop
      vertex -2.47214 -7.60845 0
      vertex -2.87137 -7.25226 0
      vertex -2.41033 -7.41824 0
    endloop
  endfacet
  facet normal 0 0 -1
    outer loop
      vertex -2.945 -7.43821 0
      vertex -2.87137 -7.25226 0
      vertex -2.47214 -7.60845 0
    endloop
  endfacet
  facet normal 0 0 -1
    outer loop
      vertex -2.945 -7.43821 0
      vertex -3.32108 -7.05765 0
      vertex -2.87137 -7.25226 0
    endloop
  endfacet
  facet normal 0 0 -1
    outer loop
      vertex -3.40623 -7.23862 0
      vertex -3.32108 -7.05765 0
      vertex -2.945 -7.43821 0
    endloop
  endfacet
  facet normal 0 0 -1
    outer loop
      vertex -3.40623 -7.23862 0
      vertex -3.75768 -6.83519 0
      vertex -3.32108 -7.05765 0
    endloop
  endfacet
  facet normal 0 0 -1
    outer loop
      vertex -3.85403 -7.01045 0
      vertex -3.75768 -6.83519 0
      vertex -3.40623 -7.23862 0
    endloop
  endfacet
  facet normal 0 0 -1
    outer loop
      vertex -3.85403 -7.01045 0
      vertex -4.17945 -6.58576 0
      vertex -3.75768 -6.83519 0
    endloop
  endfacet
  facet normal 0 0 -1
    outer loop
      vertex -4.28661 -6.75462 0
      vertex -4.17945 -6.58576 0
      vertex -3.85403 -7.01045 0
    endloop
  endfacet
  facet normal 0 0 -1
    outer loop
      vertex -4.28661 -6.75462 0
      vertex -4.58472 -6.31033 0
      vertex -4.17945 -6.58576 0
    endloop
  endfacet
  facet normal 0 0 -1
    outer loop
      vertex -4.70228 -6.47214 0
      vertex -4.58472 -6.31033 0
      vertex -4.28661 -6.75462 0
    endloop
  endfacet
  facet normal 0 0 -1
    outer loop
      vertex -4.70228 -6.47214 0
      vertex -4.97191 -6.01 0
      vertex -4.58472 -6.31033 0
    endloop
  endfacet
  facet normal 0 0 -1
    outer loop
      vertex -5.09939 -6.16411 0
      vertex -4.97191 -6.01 0
      vertex -4.70228 -6.47214 0
    endloop
  endfacet
  facet normal 0 0 -1
    outer loop
      vertex -5.09939 -6.16411 0
      vertex -5.33947 -5.68596 0
      vertex -4.97191 -6.01 0
    endloop
  endfacet
  facet normal 0 0 -1
    outer loop
      vertex -5.47638 -5.83175 0
      vertex -5.33947 -5.68596 0
      vertex -5.09939 -6.16411 0
    endloop
  endfacet
  facet normal 0 0 -1
    outer loop
      vertex -5.47638 -5.83175 0
      vertex -5.68596 -5.33947 0
      vertex -5.33947 -5.68596 0
    endloop
  endfacet
  facet normal 0 0 -1
    outer loop
      vertex -5.83175 -5.47638 0
      vertex -5.68596 -5.33947 0
      vertex -5.47638 -5.83175 0
    endloop
  endfacet
  facet normal 0 0 -1
    outer loop
      vertex -5.83175 -5.47638 0
      vertex -6.01 -4.97191 0
      vertex -5.68596 -5.33947 0
    endloop
  endfacet
  facet normal 0 0 -1
    outer loop
      vertex -6.16411 -5.09939 0
      vertex -6.01 -4.97191 0
      vertex -5.83175 -5.47638 0
    endloop
  endfacet
  facet normal 0 0 -1
    outer loop
      vertex -6.16411 -5.09939 0
      vertex -6.31033 -4.58472 0
      vertex -6.01 -4.97191 0
    endloop
  endfacet
  facet normal 0 0 -1
    outer loop
      vertex -6.47214 -4.70228 0
      vertex -6.31033 -4.58472 0
      vertex -6.16411 -5.09939 0
    endloop
  endfacet
  facet normal 0 0 -1
    outer loop
      vertex -6.47214 -4.70228 0
      vertex -6.58576 -4.17945 0
      vertex -6.31033 -4.58472 0
    endloop
  endfacet
  facet normal 0 0 -1
    outer loop
      vertex -6.75462 -4.28661 0
      vertex -6.58576 -4.17945 0
      vertex -6.47214 -4.70228 0
    endloop
  endfacet
  facet normal 0 0 -1
    outer loop
      vertex -6.75462 -4.28661 0
      vertex -6.83519 -3.75768 0
      vertex -6.58576 -4.17945 0
    endloop
  endfacet
  facet normal 0 0 -1
    outer loop
      vertex -7.01045 -3.85403 0
      vertex -6.83519 -3.75768 0
      vertex -6.75462 -4.28661 0
    endloop
  endfacet
  facet normal 0 0 -1
    outer loop
      vertex -7.01045 -3.85403 0
      vertex -7.05765 -3.32108 0
      vertex -6.83519 -3.75768 0
    endloop
  endfacet
  facet normal 0 0 -1
    outer loop
      vertex -7.23862 -3.40623 0
      vertex -7.05765 -3.32108 0
      vertex -7.01045 -3.85403 0
    endloop
  endfacet
  facet normal 0 0 -1
    outer loop
      vertex -7.23862 -3.40623 0
      vertex -7.25226 -2.87137 0
      vertex -7.05765 -3.32108 0
    endloop
  endfacet
  facet normal 0 0 -1
    outer loop
      vertex -7.43821 -2.945 0
      vertex -7.25226 -2.87137 0
      vertex -7.23862 -3.40623 0
    endloop
  endfacet
  facet normal -0 0 -1
    outer loop
      vertex -7.25226 -2.87137 0
      vertex -7.43821 -2.945 0
      vertex -7.41824 -2.41033 0
    endloop
  endfacet
  facet normal 0 0 -1
    outer loop
      vertex -7.60845 -2.47214 0
      vertex -7.41824 -2.41033 0
      vertex -7.43821 -2.945 0
    endloop
  endfacet
  facet normal -0 0 -1
    outer loop
      vertex -7.41824 -2.41033 0
      vertex -7.60845 -2.47214 0
      vertex -7.55495 -1.93978 0
    endloop
  endfacet
  facet normal 0 0 -1
    outer loop
      vertex -7.74866 -1.98952 0
      vertex -7.55495 -1.93978 0
      vertex -7.60845 -2.47214 0
    endloop
  endfacet
  facet normal -0 0 -1
    outer loop
      vertex -7.55495 -1.93978 0
      vertex -7.74866 -1.98952 0
      vertex -7.66184 -1.46157 0
    endloop
  endfacet
  facet normal 0 0 -1
    outer loop
      vertex -7.8583 -1.49905 0
      vertex -7.66184 -1.46157 0
      vertex -7.74866 -1.98952 0
    endloop
  endfacet
  facet normal -0 0 -1
    outer loop
      vertex -7.66184 -1.46157 0
      vertex -7.8583 -1.49905 0
      vertex -7.73849 -0.977599 0
    endloop
  endfacet
  facet normal 0 0 -1
    outer loop
      vertex -7.93692 -1.00267 0
      vertex -7.73849 -0.977599 0
      vertex -7.8583 -1.49905 0
    endloop
  endfacet
  facet normal -0 0 -1
    outer loop
      vertex -7.73849 -0.977599 0
      vertex -7.93692 -1.00267 0
      vertex -7.78461 -0.489765 0
    endloop
  endfacet
  facet normal 0 0 -1
    outer loop
      vertex -0.489765 7.78461 0
      vertex 0 8 0
      vertex 0 7.8 0
    endloop
  endfacet
  facet normal 0 0 -1
    outer loop
      vertex -0.489765 7.78461 0
      vertex -0.502324 7.98421 0
      vertex 0 8 0
    endloop
  endfacet
  facet normal 0 0 -1
    outer loop
      vertex -0.977599 7.73849 0
      vertex -0.502324 7.98421 0
      vertex -0.489765 7.78461 0
    endloop
  endfacet
  facet normal 0 0 -1
    outer loop
      vertex -0.977599 7.73849 0
      vertex -1.00267 7.93692 0
      vertex -0.502324 7.98421 0
    endloop
  endfacet
  facet normal 0 0 -1
    outer loop
      vertex -1.46157 7.66184 0
      vertex -1.00267 7.93692 0
      vertex -0.977599 7.73849 0
    endloop
  endfacet
  facet normal 0 0 -1
    outer loop
      vertex -1.46157 7.66184 0
      vertex -1.49905 7.8583 0
      vertex -1.00267 7.93692 0
    endloop
  endfacet
  facet normal 0 0 -1
    outer loop
      vertex -1.93978 7.55495 0
      vertex -1.49905 7.8583 0
      vertex -1.46157 7.66184 0
    endloop
  endfacet
  facet normal 0 0 -1
    outer loop
      vertex -1.93978 7.55495 0
      vertex -1.98952 7.74866 0
      vertex -1.49905 7.8583 0
    endloop
  endfacet
  facet normal 0 0 -1
    outer loop
      vertex -2.41033 7.41824 0
      vertex -1.98952 7.74866 0
      vertex -1.93978 7.55495 0
    endloop
  endfacet
  facet normal 0 0 -1
    outer loop
      vertex -2.41033 7.41824 0
      vertex -2.47214 7.60845 0
      vertex -1.98952 7.74866 0
    endloop
  endfacet
  facet normal 0 0 -1
    outer loop
      vertex -2.87137 7.25226 0
      vertex -2.47214 7.60845 0
      vertex -2.41033 7.41824 0
    endloop
  endfacet
  facet normal 0 0 -1
    outer loop
      vertex -2.87137 7.25226 0
      vertex -2.945 7.43821 0
      vertex -2.47214 7.60845 0
    endloop
  endfacet
  facet normal 0 0 -1
    outer loop
      vertex -3.32108 7.05765 0
      vertex -2.945 7.43821 0
      vertex -2.87137 7.25226 0
    endloop
  endfacet
  facet normal 0 0 -1
    outer loop
      vertex -3.32108 7.05765 0
      vertex -3.40623 7.23862 0
      vertex -2.945 7.43821 0
    endloop
  endfacet
  facet normal 0 0 -1
    outer loop
      vertex -3.75768 6.83519 0
      vertex -3.40623 7.23862 0
      vertex -3.32108 7.05765 0
    endloop
  endfacet
  facet normal 0 0 -1
    outer loop
      vertex -3.75768 6.83519 0
      vertex -3.85403 7.01045 0
      vertex -3.40623 7.23862 0
    endloop
  endfacet
  facet normal 0 0 -1
    outer loop
      vertex -4.17945 6.58576 0
      vertex -3.85403 7.01045 0
      vertex -3.75768 6.83519 0
    endloop
  endfacet
  facet normal 0 0 -1
    outer loop
      vertex -4.17945 6.58576 0
      vertex -4.28661 6.75462 0
      vertex -3.85403 7.01045 0
    endloop
  endfacet
  facet normal 0 0 -1
    outer loop
      vertex -4.58472 6.31033 0
      vertex -4.28661 6.75462 0
      vertex -4.17945 6.58576 0
    endloop
  endfacet
  facet normal 0 0 -1
    outer loop
      vertex -4.58472 6.31033 0
      vertex -4.70228 6.47214 0
      vertex -4.28661 6.75462 0
    endloop
  endfacet
  facet normal 0 0 -1
    outer loop
      vertex -4.97191 6.01 0
      vertex -4.70228 6.47214 0
      vertex -4.58472 6.31033 0
    endloop
  endfacet
  facet normal 0 0 -1
    outer loop
      vertex -4.97191 6.01 0
      vertex -5.09939 6.16411 0
      vertex -4.70228 6.47214 0
    endloop
  endfacet
  facet normal 0 0 -1
    outer loop
      vertex -5.33947 5.68596 0
      vertex -5.09939 6.16411 0
      vertex -4.97191 6.01 0
    endloop
  endfacet
  facet normal 0 0 -1
    outer loop
      vertex -5.33947 5.68596 0
      vertex -5.47638 5.83175 0
      vertex -5.09939 6.16411 0
    endloop
  endfacet
  facet normal 0 0 -1
    outer loop
      vertex -5.68596 5.33947 0
      vertex -5.47638 5.83175 0
      vertex -5.33947 5.68596 0
    endloop
  endfacet
  facet normal 0 0 -1
    outer loop
      vertex -5.68596 5.33947 0
      vertex -5.83175 5.47638 0
      vertex -5.47638 5.83175 0
    endloop
  endfacet
  facet normal 0 0 -1
    outer loop
      vertex -6.01 4.97191 0
      vertex -5.83175 5.47638 0
      vertex -5.68596 5.33947 0
    endloop
  endfacet
  facet normal 0 0 -1
    outer loop
      vertex -6.01 4.97191 0
      vertex -6.16411 5.09939 0
      vertex -5.83175 5.47638 0
    endloop
  endfacet
  facet normal 0 0 -1
    outer loop
      vertex -6.31033 4.58472 0
      vertex -6.16411 5.09939 0
      vertex -6.01 4.97191 0
    endloop
  endfacet
  facet normal 0 0 -1
    outer loop
      vertex -6.31033 4.58472 0
      vertex -6.47214 4.70228 0
      vertex -6.16411 5.09939 0
    endloop
  endfacet
  facet normal 0 0 -1
    outer loop
      vertex -6.58576 4.17945 0
      vertex -6.47214 4.70228 0
      vertex -6.31033 4.58472 0
    endloop
  endfacet
  facet normal 0 0 -1
    outer loop
      vertex -6.58576 4.17945 0
      vertex -6.75462 4.28661 0
      vertex -6.47214 4.70228 0
    endloop
  endfacet
  facet normal 0 0 -1
    outer loop
      vertex -6.83519 3.75768 0
      vertex -6.75462 4.28661 0
      vertex -6.58576 4.17945 0
    endloop
  endfacet
  facet normal 0 0 -1
    outer loop
      vertex -6.83519 3.75768 0
      vertex -7.01045 3.85403 0
      vertex -6.75462 4.28661 0
    endloop
  endfacet
  facet normal 0 0 -1
    outer loop
      vertex -7.05765 3.32108 0
      vertex -7.01045 3.85403 0
      vertex -6.83519 3.75768 0
    endloop
  endfacet
  facet normal 0 0 -1
    outer loop
      vertex -7.05765 3.32108 0
      vertex -7.23862 3.40623 0
      vertex -7.01045 3.85403 0
    endloop
  endfacet
  facet normal 0 0 -1
    outer loop
      vertex -7.25226 2.87137 0
      vertex -7.23862 3.40623 0
      vertex -7.05765 3.32108 0
    endloop
  endfacet
  facet normal 0 0 -1
    outer loop
      vertex -7.43821 2.945 0
      vertex -7.25226 2.87137 0
      vertex -7.41824 2.41033 0
    endloop
  endfacet
  facet normal 0 0 -1
    outer loop
      vertex -7.25226 2.87137 0
      vertex -7.43821 2.945 0
      vertex -7.23862 3.40623 0
    endloop
  endfacet
  facet normal 0 0 -1
    outer loop
      vertex -7.60845 2.47214 0
      vertex -7.41824 2.41033 0
      vertex -7.55495 1.93978 0
    endloop
  endfacet
  facet normal 0 0 -1
    outer loop
      vertex -7.41824 2.41033 0
      vertex -7.60845 2.47214 0
      vertex -7.43821 2.945 0
    endloop
  endfacet
  facet normal 0 0 -1
    outer loop
      vertex -7.74866 1.98952 0
      vertex -7.55495 1.93978 0
      vertex -7.66184 1.46157 0
    endloop
  endfacet
  facet normal 0 0 -1
    outer loop
      vertex -7.8583 1.49905 0
      vertex -7.66184 1.46157 0
      vertex -7.73849 0.977599 0
    endloop
  endfacet
  facet normal 0 0 -1
    outer loop
      vertex -7.55495 1.93978 0
      vertex -7.74866 1.98952 0
      vertex -7.60845 2.47214 0
    endloop
  endfacet
  facet normal 0 0 -1
    outer loop
      vertex -7.93692 1.00267 0
      vertex -7.73849 0.977599 0
      vertex -7.78461 0.489765 0
    endloop
  endfacet
  facet normal 0 0 -1
    outer loop
      vertex -7.98421 0.502324 0
      vertex -7.78461 0.489765 0
      vertex -7.8 0 0
    endloop
  endfacet
  facet normal 0 0 -1
    outer loop
      vertex -7.98421 -0.502324 0
      vertex -7.78461 -0.489765 0
      vertex -7.93692 -1.00267 0
    endloop
  endfacet
  facet normal 0 0 -1
    outer loop
      vertex -7.66184 1.46157 0
      vertex -7.8583 1.49905 0
      vertex -7.74866 1.98952 0
    endloop
  endfacet
  facet normal -0 0 -1
    outer loop
      vertex -7.78461 -0.489765 0
      vertex -7.98421 -0.502324 0
      vertex -7.8 0 0
    endloop
  endfacet
  facet normal 0 0 -1
    outer loop
      vertex -7.73849 0.977599 0
      vertex -7.93692 1.00267 0
      vertex -7.8583 1.49905 0
    endloop
  endfacet
  facet normal 0 0 -1
    outer loop
      vertex -8 0 0
      vertex -7.8 0 0
      vertex -7.98421 -0.502324 0
    endloop
  endfacet
  facet normal 0 0 -1
    outer loop
      vertex -7.78461 0.489765 0
      vertex -7.98421 0.502324 0
      vertex -7.93692 1.00267 0
    endloop
  endfacet
  facet normal 0 0 -1
    outer loop
      vertex -7.8 0 0
      vertex -8 0 0
      vertex -7.98421 0.502324 0
    endloop
  endfacet
  facet normal -0.987688 0.156435 0
    outer loop
      vertex -7.93692 1.00267 0
      vertex -7.8583 1.49905 100
      vertex -7.8583 1.49905 0
    endloop
  endfacet
  facet normal -0.987688 0.156435 0
    outer loop
      vertex -7.8583 1.49905 100
      vertex -7.93692 1.00267 0
      vertex -7.93692 1.00267 100
    endloop
  endfacet
  facet normal -0.860741 0.509043 0
    outer loop
      vertex -7.01045 3.85403 0
      vertex -6.75462 4.28661 100
      vertex -6.75462 4.28661 0
    endloop
  endfacet
  facet normal -0.860741 0.509043 0
    outer loop
      vertex -6.75462 4.28661 100
      vertex -7.01045 3.85403 0
      vertex -7.01045 3.85403 100
    endloop
  endfacet
  facet normal -0.917755 0.397148 0
    outer loop
      vertex -7.43821 2.945 0
      vertex -7.23862 3.40623 100
      vertex -7.23862 3.40623 0
    endloop
  endfacet
  facet normal -0.917755 0.397148 0
    outer loop
      vertex -7.23862 3.40623 100
      vertex -7.43821 2.945 0
      vertex -7.43821 2.945 100
    endloop
  endfacet
  facet normal -0.940881 0.338738 0
    outer loop
      vertex -7.60845 2.47214 0
      vertex -7.43821 2.945 100
      vertex -7.43821 2.945 0
    endloop
  endfacet
  facet normal -0.940881 0.338738 0
    outer loop
      vertex -7.43821 2.945 100
      vertex -7.60845 2.47214 0
      vertex -7.60845 2.47214 100
    endloop
  endfacet
  facet normal -0.975917 0.218143 0
    outer loop
      vertex -7.8583 1.49905 0
      vertex -7.74866 1.98952 100
      vertex -7.74866 1.98952 0
    endloop
  endfacet
  facet normal -0.975917 0.218143 0
    outer loop
      vertex -7.74866 1.98952 100
      vertex -7.8583 1.49905 0
      vertex -7.8583 1.49905 100
    endloop
  endfacet
  facet normal -0.995562 0.0941071 0
    outer loop
      vertex -7.98421 0.502324 0
      vertex -7.93692 1.00267 100
      vertex -7.93692 1.00267 0
    endloop
  endfacet
  facet normal -0.995562 0.0941071 0
    outer loop
      vertex -7.93692 1.00267 100
      vertex -7.98421 0.502324 0
      vertex -7.98421 0.502324 100
    endloop
  endfacet
  facet normal 0 0 1
    outer loop
      vertex 0 8 100
      vertex -0.489765 7.78461 100
      vertex 0 7.8 100
    endloop
  endfacet
  facet normal -0 0 1
    outer loop
      vertex -0.502324 7.98421 100
      vertex -0.489765 7.78461 100
      vertex 0 8 100
    endloop
  endfacet
  facet normal 0 0 1
    outer loop
      vertex -0.502324 7.98421 100
      vertex -0.977599 7.73849 100
      vertex -0.489765 7.78461 100
    endloop
  endfacet
  facet normal -0 0 1
    outer loop
      vertex -1.00267 7.93692 100
      vertex -0.977599 7.73849 100
      vertex -0.502324 7.98421 100
    endloop
  endfacet
  facet normal 0 0 1
    outer loop
      vertex -1.00267 7.93692 100
      vertex -1.46157 7.66184 100
      vertex -0.977599 7.73849 100
    endloop
  endfacet
  facet normal -0 0 1
    outer loop
      vertex -1.49905 7.8583 100
      vertex -1.46157 7.66184 100
      vertex -1.00267 7.93692 100
    endloop
  endfacet
  facet normal 0 0 1
    outer loop
      vertex -1.49905 7.8583 100
      vertex -1.93978 7.55495 100
      vertex -1.46157 7.66184 100
    endloop
  endfacet
  facet normal -0 0 1
    outer loop
      vertex -1.98952 7.74866 100
      vertex -1.93978 7.55495 100
      vertex -1.49905 7.8583 100
    endloop
  endfacet
  facet normal 0 0 1
    outer loop
      vertex -1.98952 7.74866 100
      vertex -2.41033 7.41824 100
      vertex -1.93978 7.55495 100
    endloop
  endfacet
  facet normal -0 0 1
    outer loop
      vertex -2.47214 7.60845 100
      vertex -2.41033 7.41824 100
      vertex -1.98952 7.74866 100
    endloop
  endfacet
  facet normal 0 0 1
    outer loop
      vertex -2.47214 7.60845 100
      vertex -2.87137 7.25226 100
      vertex -2.41033 7.41824 100
    endloop
  endfacet
  facet normal -0 0 1
    outer loop
      vertex -2.945 7.43821 100
      vertex -2.87137 7.25226 100
      vertex -2.47214 7.60845 100
    endloop
  endfacet
  facet normal 0 0 1
    outer loop
      vertex -2.945 7.43821 100
      vertex -3.32108 7.05765 100
      vertex -2.87137 7.25226 100
    endloop
  endfacet
  facet normal -0 0 1
    outer loop
      vertex -3.40623 7.23862 100
      vertex -3.32108 7.05765 100
      vertex -2.945 7.43821 100
    endloop
  endfacet
  facet normal 0 0 1
    outer loop
      vertex -3.40623 7.23862 100
      vertex -3.75768 6.83519 100
      vertex -3.32108 7.05765 100
    endloop
  endfacet
  facet normal -0 0 1
    outer loop
      vertex -3.85403 7.01045 100
      vertex -3.75768 6.83519 100
      vertex -3.40623 7.23862 100
    endloop
  endfacet
  facet normal 0 0 1
    outer loop
      vertex -3.85403 7.01045 100
      vertex -4.17945 6.58576 100
      vertex -3.75768 6.83519 100
    endloop
  endfacet
  facet normal -0 0 1
    outer loop
      vertex -4.28661 6.75462 100
      vertex -4.17945 6.58576 100
      vertex -3.85403 7.01045 100
    endloop
  endfacet
  facet normal 0 0 1
    outer loop
      vertex -4.28661 6.75462 100
      vertex -4.58472 6.31033 100
      vertex -4.17945 6.58576 100
    endloop
  endfacet
  facet normal -0 0 1
    outer loop
      vertex -4.70228 6.47214 100
      vertex -4.58472 6.31033 100
      vertex -4.28661 6.75462 100
    endloop
  endfacet
  facet normal 0 0 1
    outer loop
      vertex -4.70228 6.47214 100
      vertex -4.97191 6.01 100
      vertex -4.58472 6.31033 100
    endloop
  endfacet
  facet normal -0 0 1
    outer loop
      vertex -5.09939 6.16411 100
      vertex -4.97191 6.01 100
      vertex -4.70228 6.47214 100
    endloop
  endfacet
  facet normal 0 0 1
    outer loop
      vertex -5.09939 6.16411 100
      vertex -5.33947 5.68596 100
      vertex -4.97191 6.01 100
    endloop
  endfacet
  facet normal -0 0 1
    outer loop
      vertex -5.47638 5.83175 100
      vertex -5.33947 5.68596 100
      vertex -5.09939 6.16411 100
    endloop
  endfacet
  facet normal 0 0 1
    outer loop
      vertex -5.47638 5.83175 100
      vertex -5.68596 5.33947 100
      vertex -5.33947 5.68596 100
    endloop
  endfacet
  facet normal -0 0 1
    outer loop
      vertex -5.83175 5.47638 100
      vertex -5.68596 5.33947 100
      vertex -5.47638 5.83175 100
    endloop
  endfacet
  facet normal 0 0 1
    outer loop
      vertex -5.83175 5.47638 100
      vertex -6.01 4.97191 100
      vertex -5.68596 5.33947 100
    endloop
  endfacet
  facet normal -0 0 1
    outer loop
      vertex -6.16411 5.09939 100
      vertex -6.01 4.97191 100
      vertex -5.83175 5.47638 100
    endloop
  endfacet
  facet normal 0 0 1
    outer loop
      vertex -6.16411 5.09939 100
      vertex -6.31033 4.58472 100
      vertex -6.01 4.97191 100
    endloop
  endfacet
  facet normal -0 0 1
    outer loop
      vertex -6.47214 4.70228 100
      vertex -6.31033 4.58472 100
      vertex -6.16411 5.09939 100
    endloop
  endfacet
  facet normal 0 0 1
    outer loop
      vertex -6.47214 4.70228 100
      vertex -6.58576 4.17945 100
      vertex -6.31033 4.58472 100
    endloop
  endfacet
  facet normal -0 0 1
    outer loop
      vertex -6.75462 4.28661 100
      vertex -6.58576 4.17945 100
      vertex -6.47214 4.70228 100
    endloop
  endfacet
  facet normal 0 0 1
    outer loop
      vertex -6.75462 4.28661 100
      vertex -6.83519 3.75768 100
      vertex -6.58576 4.17945 100
    endloop
  endfacet
  facet normal -0 0 1
    outer loop
      vertex -7.01045 3.85403 100
      vertex -6.83519 3.75768 100
      vertex -6.75462 4.28661 100
    endloop
  endfacet
  facet normal 0 0 1
    outer loop
      vertex -7.01045 3.85403 100
      vertex -7.05765 3.32108 100
      vertex -6.83519 3.75768 100
    endloop
  endfacet
  facet normal -0 0 1
    outer loop
      vertex -7.23862 3.40623 100
      vertex -7.05765 3.32108 100
      vertex -7.01045 3.85403 100
    endloop
  endfacet
  facet normal 0 0 1
    outer loop
      vertex -7.23862 3.40623 100
      vertex -7.25226 2.87137 100
      vertex -7.05765 3.32108 100
    endloop
  endfacet
  facet normal -0 0 1
    outer loop
      vertex -7.43821 2.945 100
      vertex -7.25226 2.87137 100
      vertex -7.23862 3.40623 100
    endloop
  endfacet
  facet normal 0 0 1
    outer loop
      vertex -7.25226 2.87137 100
      vertex -7.43821 2.945 100
      vertex -7.41824 2.41033 100
    endloop
  endfacet
  facet normal -0 0 1
    outer loop
      vertex -7.60845 2.47214 100
      vertex -7.41824 2.41033 100
      vertex -7.43821 2.945 100
    endloop
  endfacet
  facet normal 0 0 1
    outer loop
      vertex -7.41824 2.41033 100
      vertex -7.60845 2.47214 100
      vertex -7.55495 1.93978 100
    endloop
  endfacet
  facet normal -0 0 1
    outer loop
      vertex -7.74866 1.98952 100
      vertex -7.55495 1.93978 100
      vertex -7.60845 2.47214 100
    endloop
  endfacet
  facet normal 0 0 1
    outer loop
      vertex -7.55495 1.93978 100
      vertex -7.74866 1.98952 100
      vertex -7.66184 1.46157 100
    endloop
  endfacet
  facet normal -0 0 1
    outer loop
      vertex -7.8583 1.49905 100
      vertex -7.66184 1.46157 100
      vertex -7.74866 1.98952 100
    endloop
  endfacet
  facet normal 0 0 1
    outer loop
      vertex -7.66184 1.46157 100
      vertex -7.8583 1.49905 100
      vertex -7.73849 0.977599 100
    endloop
  endfacet
  facet normal -0 0 1
    outer loop
      vertex -7.93692 1.00267 100
      vertex -7.73849 0.977599 100
      vertex -7.8583 1.49905 100
    endloop
  endfacet
  facet normal 0 0 1
    outer loop
      vertex -7.73849 0.977599 100
      vertex -7.93692 1.00267 100
      vertex -7.78461 0.489765 100
    endloop
  endfacet
  facet normal 0 0 1
    outer loop
      vertex -0.489765 -7.78461 100
      vertex 0 -8 100
      vertex 0 -7.8 100
    endloop
  endfacet
  facet normal 0 0 1
    outer loop
      vertex -0.489765 -7.78461 100
      vertex -0.502324 -7.98421 100
      vertex 0 -8 100
    endloop
  endfacet
  facet normal 0 0 1
    outer loop
      vertex -0.977599 -7.73849 100
      vertex -0.502324 -7.98421 100
      vertex -0.489765 -7.78461 100
    endloop
  endfacet
  facet normal 0 0 1
    outer loop
      vertex -0.977599 -7.73849 100
      vertex -1.00267 -7.93692 100
      vertex -0.502324 -7.98421 100
    endloop
  endfacet
  facet normal 0 0 1
    outer loop
      vertex -1.46157 -7.66184 100
      vertex -1.00267 -7.93692 100
      vertex -0.977599 -7.73849 100
    endloop
  endfacet
  facet normal 0 0 1
    outer loop
      vertex -1.46157 -7.66184 100
      vertex -1.49905 -7.8583 100
      vertex -1.00267 -7.93692 100
    endloop
  endfacet
  facet normal 0 0 1
    outer loop
      vertex -1.93978 -7.55495 100
      vertex -1.49905 -7.8583 100
      vertex -1.46157 -7.66184 100
    endloop
  endfacet
  facet normal 0 0 1
    outer loop
      vertex -1.93978 -7.55495 100
      vertex -1.98952 -7.74866 100
      vertex -1.49905 -7.8583 100
    endloop
  endfacet
  facet normal 0 0 1
    outer loop
      vertex -2.41033 -7.41824 100
      vertex -1.98952 -7.74866 100
      vertex -1.93978 -7.55495 100
    endloop
  endfacet
  facet normal 0 0 1
    outer loop
      vertex -2.41033 -7.41824 100
      vertex -2.47214 -7.60845 100
      vertex -1.98952 -7.74866 100
    endloop
  endfacet
  facet normal 0 0 1
    outer loop
      vertex -2.87137 -7.25226 100
      vertex -2.47214 -7.60845 100
      vertex -2.41033 -7.41824 100
    endloop
  endfacet
  facet normal 0 0 1
    outer loop
      vertex -2.87137 -7.25226 100
      vertex -2.945 -7.43821 100
      vertex -2.47214 -7.60845 100
    endloop
  endfacet
  facet normal 0 0 1
    outer loop
      vertex -3.32108 -7.05765 100
      vertex -2.945 -7.43821 100
      vertex -2.87137 -7.25226 100
    endloop
  endfacet
  facet normal 0 0 1
    outer loop
      vertex -3.32108 -7.05765 100
      vertex -3.40623 -7.23862 100
      vertex -2.945 -7.43821 100
    endloop
  endfacet
  facet normal 0 0 1
    outer loop
      vertex -3.75768 -6.83519 100
      vertex -3.40623 -7.23862 100
      vertex -3.32108 -7.05765 100
    endloop
  endfacet
  facet normal 0 0 1
    outer loop
      vertex -3.75768 -6.83519 100
      vertex -3.85403 -7.01045 100
      vertex -3.40623 -7.23862 100
    endloop
  endfacet
  facet normal 0 0 1
    outer loop
      vertex -4.17945 -6.58576 100
      vertex -3.85403 -7.01045 100
      vertex -3.75768 -6.83519 100
    endloop
  endfacet
  facet normal 0 0 1
    outer loop
      vertex -4.17945 -6.58576 100
      vertex -4.28661 -6.75462 100
      vertex -3.85403 -7.01045 100
    endloop
  endfacet
  facet normal 0 0 1
    outer loop
      vertex -4.58472 -6.31033 100
      vertex -4.28661 -6.75462 100
      vertex -4.17945 -6.58576 100
    endloop
  endfacet
  facet normal 0 0 1
    outer loop
      vertex -4.58472 -6.31033 100
      vertex -4.70228 -6.47214 100
      vertex -4.28661 -6.75462 100
    endloop
  endfacet
  facet normal 0 0 1
    outer loop
      vertex -4.97191 -6.01 100
      vertex -4.70228 -6.47214 100
      vertex -4.58472 -6.31033 100
    endloop
  endfacet
  facet normal 0 0 1
    outer loop
      vertex -4.97191 -6.01 100
      vertex -5.09939 -6.16411 100
      vertex -4.70228 -6.47214 100
    endloop
  endfacet
  facet normal 0 0 1
    outer loop
      vertex -5.33947 -5.68596 100
      vertex -5.09939 -6.16411 100
      vertex -4.97191 -6.01 100
    endloop
  endfacet
  facet normal 0 0 1
    outer loop
      vertex -5.33947 -5.68596 100
      vertex -5.47638 -5.83175 100
      vertex -5.09939 -6.16411 100
    endloop
  endfacet
  facet normal 0 0 1
    outer loop
      vertex -5.68596 -5.33947 100
      vertex -5.47638 -5.83175 100
      vertex -5.33947 -5.68596 100
    endloop
  endfacet
  facet normal 0 0 1
    outer loop
      vertex -5.68596 -5.33947 100
      vertex -5.83175 -5.47638 100
      vertex -5.47638 -5.83175 100
    endloop
  endfacet
  facet normal 0 0 1
    outer loop
      vertex -6.01 -4.97191 100
      vertex -5.83175 -5.47638 100
      vertex -5.68596 -5.33947 100
    endloop
  endfacet
  facet normal 0 0 1
    outer loop
      vertex -6.01 -4.97191 100
      vertex -6.16411 -5.09939 100
      vertex -5.83175 -5.47638 100
    endloop
  endfacet
  facet normal 0 0 1
    outer loop
      vertex -6.31033 -4.58472 100
      vertex -6.16411 -5.09939 100
      vertex -6.01 -4.97191 100
    endloop
  endfacet
  facet normal 0 0 1
    outer loop
      vertex -6.31033 -4.58472 100
      vertex -6.47214 -4.70228 100
      vertex -6.16411 -5.09939 100
    endloop
  endfacet
  facet normal 0 0 1
    outer loop
      vertex -6.58576 -4.17945 100
      vertex -6.47214 -4.70228 100
      vertex -6.31033 -4.58472 100
    endloop
  endfacet
  facet normal 0 0 1
    outer loop
      vertex -6.58576 -4.17945 100
      vertex -6.75462 -4.28661 100
      vertex -6.47214 -4.70228 100
    endloop
  endfacet
  facet normal 0 0 1
    outer loop
      vertex -6.83519 -3.75768 100
      vertex -6.75462 -4.28661 100
      vertex -6.58576 -4.17945 100
    endloop
  endfacet
  facet normal 0 0 1
    outer loop
      vertex -6.83519 -3.75768 100
      vertex -7.01045 -3.85403 100
      vertex -6.75462 -4.28661 100
    endloop
  endfacet
  facet normal 0 0 1
    outer loop
      vertex -7.05765 -3.32108 100
      vertex -7.01045 -3.85403 100
      vertex -6.83519 -3.75768 100
    endloop
  endfacet
  facet normal 0 0 1
    outer loop
      vertex -7.05765 -3.32108 100
      vertex -7.23862 -3.40623 100
      vertex -7.01045 -3.85403 100
    endloop
  endfacet
  facet normal 0 0 1
    outer loop
      vertex -7.25226 -2.87137 100
      vertex -7.23862 -3.40623 100
      vertex -7.05765 -3.32108 100
    endloop
  endfacet
  facet normal 0 0 1
    outer loop
      vertex -7.43821 -2.945 100
      vertex -7.25226 -2.87137 100
      vertex -7.41824 -2.41033 100
    endloop
  endfacet
  facet normal 0 0 1
    outer loop
      vertex -7.25226 -2.87137 100
      vertex -7.43821 -2.945 100
      vertex -7.23862 -3.40623 100
    endloop
  endfacet
  facet normal 0 0 1
    outer loop
      vertex -7.60845 -2.47214 100
      vertex -7.41824 -2.41033 100
      vertex -7.55495 -1.93978 100
    endloop
  endfacet
  facet normal 0 0 1
    outer loop
      vertex -7.41824 -2.41033 100
      vertex -7.60845 -2.47214 100
      vertex -7.43821 -2.945 100
    endloop
  endfacet
  facet normal 0 0 1
    outer loop
      vertex -7.74866 -1.98952 100
      vertex -7.55495 -1.93978 100
      vertex -7.66184 -1.46157 100
    endloop
  endfacet
  facet normal 0 0 1
    outer loop
      vertex -7.8583 -1.49905 100
      vertex -7.66184 -1.46157 100
      vertex -7.73849 -0.977599 100
    endloop
  endfacet
  facet normal 0 0 1
    outer loop
      vertex -7.55495 -1.93978 100
      vertex -7.74866 -1.98952 100
      vertex -7.60845 -2.47214 100
    endloop
  endfacet
  facet normal 0 0 1
    outer loop
      vertex -7.93692 -1.00267 100
      vertex -7.73849 -0.977599 100
      vertex -7.78461 -0.489765 100
    endloop
  endfacet
  facet normal 0 0 1
    outer loop
      vertex -7.98421 -0.502324 100
      vertex -7.78461 -0.489765 100
      vertex -7.8 0 100
    endloop
  endfacet
  facet normal -0 0 1
    outer loop
      vertex -7.98421 0.502324 100
      vertex -7.78461 0.489765 100
      vertex -7.93692 1.00267 100
    endloop
  endfacet
  facet normal 0 0 1
    outer loop
      vertex -7.66184 -1.46157 100
      vertex -7.8583 -1.49905 100
      vertex -7.74866 -1.98952 100
    endloop
  endfacet
  facet normal 0 0 1
    outer loop
      vertex -7.78461 0.489765 100
      vertex -7.98421 0.502324 100
      vertex -7.8 0 100
    endloop
  endfacet
  facet normal 0 0 1
    outer loop
      vertex -7.73849 -0.977599 100
      vertex -7.93692 -1.00267 100
      vertex -7.8583 -1.49905 100
    endloop
  endfacet
  facet normal 0 0 1
    outer loop
      vertex -8 0 100
      vertex -7.8 0 100
      vertex -7.98421 0.502324 100
    endloop
  endfacet
  facet normal 0 0 1
    outer loop
      vertex -7.78461 -0.489765 100
      vertex -7.98421 -0.502324 100
      vertex -7.93692 -1.00267 100
    endloop
  endfacet
  facet normal 0 0 1
    outer loop
      vertex -7.8 0 100
      vertex -8 0 100
      vertex -7.98421 -0.502324 100
    endloop
  endfacet
  facet normal -0.397148 0.917755 0
    outer loop
      vertex -2.945 7.43821 0
      vertex -3.40623 7.23862 100
      vertex -2.945 7.43821 100
    endloop
  endfacet
  facet normal -0.397148 0.917755 0
    outer loop
      vertex -3.40623 7.23862 100
      vertex -2.945 7.43821 0
      vertex -3.40623 7.23862 0
    endloop
  endfacet
  facet normal -0.562082 0.827082 0
    outer loop
      vertex -4.28661 6.75462 0
      vertex -4.70228 6.47214 100
      vertex -4.28661 6.75462 100
    endloop
  endfacet
  facet normal -0.562082 0.827082 0
    outer loop
      vertex -4.70228 6.47214 100
      vertex -4.28661 6.75462 0
      vertex -4.70228 6.47214 0
    endloop
  endfacet
  facet normal -0.45399 0.891007 0
    outer loop
      vertex -3.40623 7.23862 0
      vertex -3.85403 7.01045 100
      vertex -3.40623 7.23862 100
    endloop
  endfacet
  facet normal -0.45399 0.891007 0
    outer loop
      vertex -3.85403 7.01045 100
      vertex -3.40623 7.23862 0
      vertex -3.85403 7.01045 0
    endloop
  endfacet
  facet normal -0.218143 0.975917 0
    outer loop
      vertex -1.49905 7.8583 0
      vertex -1.98952 7.74866 100
      vertex -1.49905 7.8583 100
    endloop
  endfacet
  facet normal -0.218143 0.975917 0
    outer loop
      vertex -1.98952 7.74866 100
      vertex -1.49905 7.8583 0
      vertex -1.98952 7.74866 0
    endloop
  endfacet
  facet normal -0.278991 0.960294 0
    outer loop
      vertex -1.98952 7.74866 0
      vertex -2.47214 7.60845 100
      vertex -1.98952 7.74866 100
    endloop
  endfacet
  facet normal -0.278991 0.960294 0
    outer loop
      vertex -2.47214 7.60845 100
      vertex -1.98952 7.74866 0
      vertex -2.47214 7.60845 0
    endloop
  endfacet
  facet normal -0.0314127 0.999507 0
    outer loop
      vertex 0 8 0
      vertex -0.502324 7.98421 100
      vertex 0 8 100
    endloop
  endfacet
  facet normal -0.0314127 0.999507 0
    outer loop
      vertex -0.502324 7.98421 100
      vertex 0 8 0
      vertex -0.502324 7.98421 0
    endloop
  endfacet
  facet normal -0.661311 -0.750112 0
    outer loop
      vertex -5.47638 -5.83175 0
      vertex -5.09939 -6.16411 100
      vertex -5.47638 -5.83175 100
    endloop
  endfacet
  facet normal -0.661311 -0.750112 -0
    outer loop
      vertex -5.09939 -6.16411 100
      vertex -5.47638 -5.83175 0
      vertex -5.09939 -6.16411 0
    endloop
  endfacet
  facet normal -0.45399 -0.891007 0
    outer loop
      vertex -3.85403 -7.01045 0
      vertex -3.40623 -7.23862 100
      vertex -3.85403 -7.01045 100
    endloop
  endfacet
  facet normal -0.45399 -0.891007 -0
    outer loop
      vertex -3.40623 -7.23862 100
      vertex -3.85403 -7.01045 0
      vertex -3.40623 -7.23862 0
    endloop
  endfacet
  facet normal -0.562082 -0.827082 0
    outer loop
      vertex -4.70228 -6.47214 0
      vertex -4.28661 -6.75462 100
      vertex -4.70228 -6.47214 100
    endloop
  endfacet
  facet normal -0.562082 -0.827082 -0
    outer loop
      vertex -4.28661 -6.75462 100
      vertex -4.70228 -6.47214 0
      vertex -4.28661 -6.75462 0
    endloop
  endfacet
  facet normal -0.278991 -0.960294 0
    outer loop
      vertex -2.47214 -7.60845 0
      vertex -1.98952 -7.74866 100
      vertex -2.47214 -7.60845 100
    endloop
  endfacet
  facet normal -0.278991 -0.960294 -0
    outer loop
      vertex -1.98952 -7.74866 100
      vertex -2.47214 -7.60845 0
      vertex -1.98952 -7.74866 0
    endloop
  endfacet
  facet normal -0.218143 -0.975917 0
    outer loop
      vertex -1.98952 -7.74866 0
      vertex -1.49905 -7.8583 100
      vertex -1.98952 -7.74866 100
    endloop
  endfacet
  facet normal -0.218143 -0.975917 -0
    outer loop
      vertex -1.49905 -7.8583 100
      vertex -1.98952 -7.74866 0
      vertex -1.49905 -7.8583 0
    endloop
  endfacet
  facet normal -0.0941071 -0.995562 0
    outer loop
      vertex -1.00267 -7.93692 0
      vertex -0.502324 -7.98421 100
      vertex -1.00267 -7.93692 100
    endloop
  endfacet
  facet normal -0.0941071 -0.995562 -0
    outer loop
      vertex -0.502324 -7.98421 100
      vertex -1.00267 -7.93692 0
      vertex -0.502324 -7.98421 0
    endloop
  endfacet
  facet normal -0.790154 -0.612908 0
    outer loop
      vertex -6.16411 -5.09939 0
      vertex -6.47214 -4.70228 100
      vertex -6.47214 -4.70228 0
    endloop
  endfacet
  facet normal -0.790154 -0.612908 0
    outer loop
      vertex -6.47214 -4.70228 100
      vertex -6.16411 -5.09939 0
      vertex -6.16411 -5.09939 100
    endloop
  endfacet
  facet normal -0.860741 -0.509043 0
    outer loop
      vertex -6.75462 -4.28661 0
      vertex -7.01045 -3.85403 100
      vertex -7.01045 -3.85403 0
    endloop
  endfacet
  facet normal -0.860741 -0.509043 0
    outer loop
      vertex -7.01045 -3.85403 100
      vertex -6.75462 -4.28661 0
      vertex -6.75462 -4.28661 100
    endloop
  endfacet
  facet normal -0.975917 -0.218143 0
    outer loop
      vertex -7.74866 -1.98952 0
      vertex -7.8583 -1.49905 100
      vertex -7.8583 -1.49905 0
    endloop
  endfacet
  facet normal -0.975917 -0.218143 0
    outer loop
      vertex -7.8583 -1.49905 100
      vertex -7.74866 -1.98952 0
      vertex -7.74866 -1.98952 100
    endloop
  endfacet
  facet normal -0.940881 -0.338738 0
    outer loop
      vertex -7.43821 -2.945 0
      vertex -7.60845 -2.47214 100
      vertex -7.60845 -2.47214 0
    endloop
  endfacet
  facet normal -0.940881 -0.338738 0
    outer loop
      vertex -7.60845 -2.47214 100
      vertex -7.43821 -2.945 0
      vertex -7.43821 -2.945 100
    endloop
  endfacet
  facet normal -0.987688 -0.156435 0
    outer loop
      vertex -7.8583 -1.49905 0
      vertex -7.93692 -1.00267 100
      vertex -7.93692 -1.00267 0
    endloop
  endfacet
  facet normal -0.987688 -0.156435 0
    outer loop
      vertex -7.93692 -1.00267 100
      vertex -7.8583 -1.49905 0
      vertex -7.8583 -1.49905 100
    endloop
  endfacet
  facet normal -0.999507 -0.0314127 0
    outer loop
      vertex -7.98421 -0.502324 0
      vertex -8 0 100
      vertex -8 0 0
    endloop
  endfacet
  facet normal -0.999507 -0.0314127 0
    outer loop
      vertex -8 0 100
      vertex -7.98421 -0.502324 0
      vertex -7.98421 -0.502324 100
    endloop
  endfacet
  facet normal -0.790154 0.612908 0
    outer loop
      vertex -6.47214 4.70228 0
      vertex -6.16411 5.09939 100
      vertex -6.16411 5.09939 0
    endloop
  endfacet
  facet normal -0.790154 0.612908 0
    outer loop
      vertex -6.16411 5.09939 100
      vertex -6.47214 4.70228 0
      vertex -6.47214 4.70228 100
    endloop
  endfacet
  facet normal -0.750112 0.661311 0
    outer loop
      vertex -6.16411 5.09939 0
      vertex -5.83175 5.47638 100
      vertex -5.83175 5.47638 0
    endloop
  endfacet
  facet normal -0.750112 0.661311 0
    outer loop
      vertex -5.83175 5.47638 100
      vertex -6.16411 5.09939 0
      vertex -6.16411 5.09939 100
    endloop
  endfacet
  facet normal -0.612908 -0.790154 0
    outer loop
      vertex -5.09939 -6.16411 0
      vertex -4.70228 -6.47214 100
      vertex -5.09939 -6.16411 100
    endloop
  endfacet
  facet normal -0.612908 -0.790154 -0
    outer loop
      vertex -4.70228 -6.47214 100
      vertex -5.09939 -6.16411 0
      vertex -4.70228 -6.47214 0
    endloop
  endfacet
  facet normal -0.509043 -0.860741 0
    outer loop
      vertex -4.28661 -6.75462 0
      vertex -3.85403 -7.01045 100
      vertex -4.28661 -6.75462 100
    endloop
  endfacet
  facet normal -0.509043 -0.860741 -0
    outer loop
      vertex -3.85403 -7.01045 100
      vertex -4.28661 -6.75462 0
      vertex -3.85403 -7.01045 0
    endloop
  endfacet
  facet normal -0.338738 -0.940881 0
    outer loop
      vertex -2.945 -7.43821 0
      vertex -2.47214 -7.60845 100
      vertex -2.945 -7.43821 100
    endloop
  endfacet
  facet normal -0.338738 -0.940881 -0
    outer loop
      vertex -2.47214 -7.60845 100
      vertex -2.945 -7.43821 0
      vertex -2.47214 -7.60845 0
    endloop
  endfacet
  facet normal -0.156435 -0.987688 0
    outer loop
      vertex -1.49905 -7.8583 0
      vertex -1.00267 -7.93692 100
      vertex -1.49905 -7.8583 100
    endloop
  endfacet
  facet normal -0.156435 -0.987688 -0
    outer loop
      vertex -1.00267 -7.93692 100
      vertex -1.49905 -7.8583 0
      vertex -1.00267 -7.93692 0
    endloop
  endfacet
  facet normal -0.0314127 -0.999507 0
    outer loop
      vertex -0.502324 -7.98421 0
      vertex 0 -8 100
      vertex -0.502324 -7.98421 100
    endloop
  endfacet
  facet normal -0.0314127 -0.999507 -0
    outer loop
      vertex 0 -8 100
      vertex -0.502324 -7.98421 0
      vertex 0 -8 0
    endloop
  endfacet
  facet normal -0.891007 -0.45399 0
    outer loop
      vertex -7.01045 -3.85403 0
      vertex -7.23862 -3.40623 100
      vertex -7.23862 -3.40623 0
    endloop
  endfacet
  facet normal -0.891007 -0.45399 0
    outer loop
      vertex -7.23862 -3.40623 100
      vertex -7.01045 -3.85403 0
      vertex -7.01045 -3.85403 100
    endloop
  endfacet
  facet normal -0.960294 -0.278991 0
    outer loop
      vertex -7.60845 -2.47214 0
      vertex -7.74866 -1.98952 100
      vertex -7.74866 -1.98952 0
    endloop
  endfacet
  facet normal -0.960294 -0.278991 0
    outer loop
      vertex -7.74866 -1.98952 100
      vertex -7.60845 -2.47214 0
      vertex -7.60845 -2.47214 100
    endloop
  endfacet
  facet normal -0.995562 -0.0941071 0
    outer loop
      vertex -7.93692 -1.00267 0
      vertex -7.98421 -0.502324 100
      vertex -7.98421 -0.502324 0
    endloop
  endfacet
  facet normal -0.995562 -0.0941071 0
    outer loop
      vertex -7.98421 -0.502324 100
      vertex -7.93692 -1.00267 0
      vertex -7.93692 -1.00267 100
    endloop
  endfacet
  facet normal 0.999507 -0.0314105 0
    outer loop
      vertex -7.8 0 100
      vertex -7.78461 0.489765 0
      vertex -7.78461 0.489765 100
    endloop
  endfacet
  facet normal 0.999507 -0.0314105 0
    outer loop
      vertex -7.78461 0.489765 0
      vertex -7.8 0 100
      vertex -7.8 0 0
    endloop
  endfacet
  facet normal 0.0314105 -0.999507 0
    outer loop
      vertex -0.489765 7.78461 0
      vertex 0 7.8 100
      vertex -0.489765 7.78461 100
    endloop
  endfacet
  facet normal 0.0314105 -0.999507 0
    outer loop
      vertex 0 7.8 100
      vertex -0.489765 7.78461 0
      vertex 0 7.8 0
    endloop
  endfacet
  facet normal 0.707107 -0.707107 0
    outer loop
      vertex -5.68596 5.33947 100
      vertex -5.33947 5.68596 0
      vertex -5.33947 5.68596 100
    endloop
  endfacet
  facet normal 0.707107 -0.707107 0
    outer loop
      vertex -5.33947 5.68596 0
      vertex -5.68596 5.33947 100
      vertex -5.68596 5.33947 0
    endloop
  endfacet
  facet normal 0.397148 -0.917754 0
    outer loop
      vertex -3.32108 7.05765 0
      vertex -2.87137 7.25226 100
      vertex -3.32108 7.05765 100
    endloop
  endfacet
  facet normal 0.397148 -0.917754 0
    outer loop
      vertex -2.87137 7.25226 100
      vertex -3.32108 7.05765 0
      vertex -2.87137 7.25226 0
    endloop
  endfacet
  facet normal 0.917754 -0.397148 0
    outer loop
      vertex -7.25226 2.87137 100
      vertex -7.05765 3.32108 0
      vertex -7.05765 3.32108 100
    endloop
  endfacet
  facet normal 0.917754 -0.397148 0
    outer loop
      vertex -7.05765 3.32108 0
      vertex -7.25226 2.87137 100
      vertex -7.25226 2.87137 0
    endloop
  endfacet
  facet normal 0.218145 -0.975916 0
    outer loop
      vertex -1.93978 7.55495 0
      vertex -1.46157 7.66184 100
      vertex -1.93978 7.55495 100
    endloop
  endfacet
  facet normal 0.218145 -0.975916 0
    outer loop
      vertex -1.46157 7.66184 100
      vertex -1.93978 7.55495 0
      vertex -1.46157 7.66184 0
    endloop
  endfacet
  facet normal 0.975916 -0.218145 0
    outer loop
      vertex -7.66184 1.46157 100
      vertex -7.55495 1.93978 0
      vertex -7.55495 1.93978 100
    endloop
  endfacet
  facet normal 0.975916 -0.218145 0
    outer loop
      vertex -7.55495 1.93978 0
      vertex -7.66184 1.46157 100
      vertex -7.66184 1.46157 0
    endloop
  endfacet
  facet normal 0.827081 -0.562083 0
    outer loop
      vertex -6.58576 4.17945 100
      vertex -6.31033 4.58472 0
      vertex -6.31033 4.58472 100
    endloop
  endfacet
  facet normal 0.827081 -0.562083 0
    outer loop
      vertex -6.31033 4.58472 0
      vertex -6.58576 4.17945 100
      vertex -6.58576 4.17945 0
    endloop
  endfacet
  facet normal 0.860742 -0.509042 0
    outer loop
      vertex -6.83519 3.75768 100
      vertex -6.58576 4.17945 0
      vertex -6.58576 4.17945 100
    endloop
  endfacet
  facet normal 0.860742 -0.509042 0
    outer loop
      vertex -6.58576 4.17945 0
      vertex -6.83519 3.75768 100
      vertex -6.83519 3.75768 0
    endloop
  endfacet
  facet normal 0.940881 -0.338737 0
    outer loop
      vertex -7.41824 2.41033 100
      vertex -7.25226 2.87137 0
      vertex -7.25226 2.87137 100
    endloop
  endfacet
  facet normal 0.940881 -0.338737 0
    outer loop
      vertex -7.25226 2.87137 0
      vertex -7.41824 2.41033 100
      vertex -7.41824 2.41033 0
    endloop
  endfacet
  facet normal 0.562083 -0.827081 0
    outer loop
      vertex -4.58472 6.31033 0
      vertex -4.17945 6.58576 100
      vertex -4.58472 6.31033 100
    endloop
  endfacet
  facet normal 0.562083 -0.827081 0
    outer loop
      vertex -4.17945 6.58576 100
      vertex -4.58472 6.31033 0
      vertex -4.17945 6.58576 0
    endloop
  endfacet
  facet normal 0.453991 -0.891006 0
    outer loop
      vertex -3.75768 6.83519 0
      vertex -3.32108 7.05765 100
      vertex -3.75768 6.83519 100
    endloop
  endfacet
  facet normal 0.453991 -0.891006 0
    outer loop
      vertex -3.32108 7.05765 100
      vertex -3.75768 6.83519 0
      vertex -3.32108 7.05765 0
    endloop
  endfacet
  facet normal 0.612907 -0.790155 0
    outer loop
      vertex -4.97191 6.01 0
      vertex -4.58472 6.31033 100
      vertex -4.97191 6.01 100
    endloop
  endfacet
  facet normal 0.612907 -0.790155 0
    outer loop
      vertex -4.58472 6.31033 100
      vertex -4.97191 6.01 0
      vertex -4.58472 6.31033 0
    endloop
  endfacet
  facet normal 0.156433 -0.987689 0
    outer loop
      vertex -1.46157 7.66184 0
      vertex -0.977599 7.73849 100
      vertex -1.46157 7.66184 100
    endloop
  endfacet
  facet normal 0.156433 -0.987689 0
    outer loop
      vertex -0.977599 7.73849 100
      vertex -1.46157 7.66184 0
      vertex -0.977599 7.73849 0
    endloop
  endfacet
  facet normal 0.917754 0.397148 0
    outer loop
      vertex -7.05765 -3.32108 100
      vertex -7.25226 -2.87137 0
      vertex -7.25226 -2.87137 100
    endloop
  endfacet
  facet normal 0.917754 0.397148 0
    outer loop
      vertex -7.25226 -2.87137 0
      vertex -7.05765 -3.32108 100
      vertex -7.05765 -3.32108 0
    endloop
  endfacet
  facet normal 0.790155 -0.612907 0
    outer loop
      vertex -6.31033 4.58472 100
      vertex -6.01 4.97191 0
      vertex -6.01 4.97191 100
    endloop
  endfacet
  facet normal 0.790155 -0.612907 0
    outer loop
      vertex -6.01 4.97191 0
      vertex -6.31033 4.58472 100
      vertex -6.31033 4.58472 0
    endloop
  endfacet
  facet normal 0.750111 -0.661312 0
    outer loop
      vertex -6.01 4.97191 100
      vertex -5.68596 5.33947 0
      vertex -5.68596 5.33947 100
    endloop
  endfacet
  facet normal 0.750111 -0.661312 0
    outer loop
      vertex -5.68596 5.33947 0
      vertex -6.01 4.97191 100
      vertex -6.01 4.97191 0
    endloop
  endfacet
  facet normal 0.891006 -0.453991 0
    outer loop
      vertex -7.05765 3.32108 100
      vertex -6.83519 3.75768 0
      vertex -6.83519 3.75768 100
    endloop
  endfacet
  facet normal 0.891006 -0.453991 0
    outer loop
      vertex -6.83519 3.75768 0
      vertex -7.05765 3.32108 100
      vertex -7.05765 3.32108 0
    endloop
  endfacet
  facet normal 0.960294 -0.27899 0
    outer loop
      vertex -7.55495 1.93978 100
      vertex -7.41824 2.41033 0
      vertex -7.41824 2.41033 100
    endloop
  endfacet
  facet normal 0.960294 -0.27899 0
    outer loop
      vertex -7.41824 2.41033 0
      vertex -7.55495 1.93978 100
      vertex -7.55495 1.93978 0
    endloop
  endfacet
  facet normal 0.987689 -0.156433 0
    outer loop
      vertex -7.73849 0.977599 100
      vertex -7.66184 1.46157 0
      vertex -7.66184 1.46157 100
    endloop
  endfacet
  facet normal 0.987689 -0.156433 0
    outer loop
      vertex -7.66184 1.46157 0
      vertex -7.73849 0.977599 100
      vertex -7.73849 0.977599 0
    endloop
  endfacet
  facet normal 0.995562 -0.0941085 0
    outer loop
      vertex -7.78461 0.489765 100
      vertex -7.73849 0.977599 0
      vertex -7.73849 0.977599 100
    endloop
  endfacet
  facet normal 0.995562 -0.0941085 0
    outer loop
      vertex -7.73849 0.977599 0
      vertex -7.78461 0.489765 100
      vertex -7.78461 0.489765 0
    endloop
  endfacet
  facet normal 0.509042 -0.860742 0
    outer loop
      vertex -4.17945 6.58576 0
      vertex -3.75768 6.83519 100
      vertex -4.17945 6.58576 100
    endloop
  endfacet
  facet normal 0.509042 -0.860742 0
    outer loop
      vertex -3.75768 6.83519 100
      vertex -4.17945 6.58576 0
      vertex -3.75768 6.83519 0
    endloop
  endfacet
  facet normal 0.661312 -0.750111 0
    outer loop
      vertex -5.33947 5.68596 0
      vertex -4.97191 6.01 100
      vertex -5.33947 5.68596 100
    endloop
  endfacet
  facet normal 0.661312 -0.750111 0
    outer loop
      vertex -4.97191 6.01 100
      vertex -5.33947 5.68596 0
      vertex -4.97191 6.01 0
    endloop
  endfacet
  facet normal 0.27899 -0.960294 0
    outer loop
      vertex -2.41033 7.41824 0
      vertex -1.93978 7.55495 100
      vertex -2.41033 7.41824 100
    endloop
  endfacet
  facet normal 0.27899 -0.960294 0
    outer loop
      vertex -1.93978 7.55495 100
      vertex -2.41033 7.41824 0
      vertex -1.93978 7.55495 0
    endloop
  endfacet
  facet normal 0.338737 -0.940881 0
    outer loop
      vertex -2.87137 7.25226 0
      vertex -2.41033 7.41824 100
      vertex -2.87137 7.25226 100
    endloop
  endfacet
  facet normal 0.338737 -0.940881 0
    outer loop
      vertex -2.41033 7.41824 100
      vertex -2.87137 7.25226 0
      vertex -2.41033 7.41824 0
    endloop
  endfacet
  facet normal 0.0941085 -0.995562 0
    outer loop
      vertex -0.977599 7.73849 0
      vertex -0.489765 7.78461 100
      vertex -0.977599 7.73849 100
    endloop
  endfacet
  facet normal 0.0941085 -0.995562 0
    outer loop
      vertex -0.489765 7.78461 100
      vertex -0.977599 7.73849 0
      vertex -0.489765 7.78461 0
    endloop
  endfacet
  facet normal 0.975916 0.218145 0
    outer loop
      vertex -7.55495 -1.93978 100
      vertex -7.66184 -1.46157 0
      vertex -7.66184 -1.46157 100
    endloop
  endfacet
  facet normal 0.975916 0.218145 0
    outer loop
      vertex -7.66184 -1.46157 0
      vertex -7.55495 -1.93978 100
      vertex -7.55495 -1.93978 0
    endloop
  endfacet
  facet normal 0.999507 0.0314105 0
    outer loop
      vertex -7.78461 -0.489765 100
      vertex -7.8 0 0
      vertex -7.8 0 100
    endloop
  endfacet
  facet normal 0.999507 0.0314105 0
    outer loop
      vertex -7.8 0 0
      vertex -7.78461 -0.489765 100
      vertex -7.78461 -0.489765 0
    endloop
  endfacet
  facet normal 0.27899 0.960294 -0
    outer loop
      vertex -1.93978 -7.55495 0
      vertex -2.41033 -7.41824 100
      vertex -1.93978 -7.55495 100
    endloop
  endfacet
  facet normal 0.27899 0.960294 0
    outer loop
      vertex -2.41033 -7.41824 100
      vertex -1.93978 -7.55495 0
      vertex -2.41033 -7.41824 0
    endloop
  endfacet
  facet normal 0.338737 0.940881 -0
    outer loop
      vertex -2.41033 -7.41824 0
      vertex -2.87137 -7.25226 100
      vertex -2.41033 -7.41824 100
    endloop
  endfacet
  facet normal 0.338737 0.940881 0
    outer loop
      vertex -2.87137 -7.25226 100
      vertex -2.41033 -7.41824 0
      vertex -2.87137 -7.25226 0
    endloop
  endfacet
  facet normal 0.156433 0.987689 -0
    outer loop
      vertex -0.977599 -7.73849 0
      vertex -1.46157 -7.66184 100
      vertex -0.977599 -7.73849 100
    endloop
  endfacet
  facet normal 0.156433 0.987689 0
    outer loop
      vertex -1.46157 -7.66184 100
      vertex -0.977599 -7.73849 0
      vertex -1.46157 -7.66184 0
    endloop
  endfacet
  facet normal 0.940881 0.338737 0
    outer loop
      vertex -7.25226 -2.87137 100
      vertex -7.41824 -2.41033 0
      vertex -7.41824 -2.41033 100
    endloop
  endfacet
  facet normal 0.940881 0.338737 0
    outer loop
      vertex -7.41824 -2.41033 0
      vertex -7.25226 -2.87137 100
      vertex -7.25226 -2.87137 0
    endloop
  endfacet
  facet normal 0.995562 0.0941085 0
    outer loop
      vertex -7.73849 -0.977599 100
      vertex -7.78461 -0.489765 0
      vertex -7.78461 -0.489765 100
    endloop
  endfacet
  facet normal 0.995562 0.0941085 0
    outer loop
      vertex -7.78461 -0.489765 0
      vertex -7.73849 -0.977599 100
      vertex -7.73849 -0.977599 0
    endloop
  endfacet
  facet normal 0.562083 0.827081 -0
    outer loop
      vertex -4.17945 -6.58576 0
      vertex -4.58472 -6.31033 100
      vertex -4.17945 -6.58576 100
    endloop
  endfacet
  facet normal 0.562083 0.827081 0
    outer loop
      vertex -4.58472 -6.31033 100
      vertex -4.17945 -6.58576 0
      vertex -4.58472 -6.31033 0
    endloop
  endfacet
  facet normal 0.790155 0.612907 0
    outer loop
      vertex -6.01 -4.97191 100
      vertex -6.31033 -4.58472 0
      vertex -6.31033 -4.58472 100
    endloop
  endfacet
  facet normal 0.790155 0.612907 0
    outer loop
      vertex -6.31033 -4.58472 0
      vertex -6.01 -4.97191 100
      vertex -6.01 -4.97191 0
    endloop
  endfacet
  facet normal 0.707107 0.707107 0
    outer loop
      vertex -5.33947 -5.68596 100
      vertex -5.68596 -5.33947 0
      vertex -5.68596 -5.33947 100
    endloop
  endfacet
  facet normal 0.707107 0.707107 0
    outer loop
      vertex -5.68596 -5.33947 0
      vertex -5.33947 -5.68596 100
      vertex -5.33947 -5.68596 0
    endloop
  endfacet
  facet normal 0.960294 0.27899 0
    outer loop
      vertex -7.41824 -2.41033 100
      vertex -7.55495 -1.93978 0
      vertex -7.55495 -1.93978 100
    endloop
  endfacet
  facet normal 0.960294 0.27899 0
    outer loop
      vertex -7.55495 -1.93978 0
      vertex -7.41824 -2.41033 100
      vertex -7.41824 -2.41033 0
    endloop
  endfacet
  facet normal 0.987689 0.156433 0
    outer loop
      vertex -7.66184 -1.46157 100
      vertex -7.73849 -0.977599 0
      vertex -7.73849 -0.977599 100
    endloop
  endfacet
  facet normal 0.987689 0.156433 0
    outer loop
      vertex -7.73849 -0.977599 0
      vertex -7.66184 -1.46157 100
      vertex -7.66184 -1.46157 0
    endloop
  endfacet
  facet normal 0.661312 0.750111 -0
    outer loop
      vertex -4.97191 -6.01 0
      vertex -5.33947 -5.68596 100
      vertex -4.97191 -6.01 100
    endloop
  endfacet
  facet normal 0.661312 0.750111 0
    outer loop
      vertex -5.33947 -5.68596 100
      vertex -4.97191 -6.01 0
      vertex -5.33947 -5.68596 0
    endloop
  endfacet
  facet normal 0.612907 0.790155 -0
    outer loop
      vertex -4.58472 -6.31033 0
      vertex -4.97191 -6.01 100
      vertex -4.58472 -6.31033 100
    endloop
  endfacet
  facet normal 0.612907 0.790155 0
    outer loop
      vertex -4.97191 -6.01 100
      vertex -4.58472 -6.31033 0
      vertex -4.97191 -6.01 0
    endloop
  endfacet
  facet normal 0.453991 0.891006 -0
    outer loop
      vertex -3.32108 -7.05765 0
      vertex -3.75768 -6.83519 100
      vertex -3.32108 -7.05765 100
    endloop
  endfacet
  facet normal 0.453991 0.891006 0
    outer loop
      vertex -3.75768 -6.83519 100
      vertex -3.32108 -7.05765 0
      vertex -3.75768 -6.83519 0
    endloop
  endfacet
  facet normal 0.218145 0.975916 -0
    outer loop
      vertex -1.46157 -7.66184 0
      vertex -1.93978 -7.55495 100
      vertex -1.46157 -7.66184 100
    endloop
  endfacet
  facet normal 0.218145 0.975916 0
    outer loop
      vertex -1.93978 -7.55495 100
      vertex -1.46157 -7.66184 0
      vertex -1.93978 -7.55495 0
    endloop
  endfacet
  facet normal 0.0941085 0.995562 -0
    outer loop
      vertex -0.489765 -7.78461 0
      vertex -0.977599 -7.73849 100
      vertex -0.489765 -7.78461 100
    endloop
  endfacet
  facet normal 0.0941085 0.995562 0
    outer loop
      vertex -0.977599 -7.73849 100
      vertex -0.489765 -7.78461 0
      vertex -0.977599 -7.73849 0
    endloop
  endfacet
  facet normal 0.0314105 0.999507 -0
    outer loop
      vertex 0 -7.8 0
      vertex -0.489765 -7.78461 100
      vertex 0 -7.8 100
    endloop
  endfacet
  facet normal 0.0314105 0.999507 0
    outer loop
      vertex -0.489765 -7.78461 100
      vertex 0 -7.8 0
      vertex -0.489765 -7.78461 0
    endloop
  endfacet
  facet normal 0.750111 0.661312 0
    outer loop
      vertex -5.68596 -5.33947 100
      vertex -6.01 -4.97191 0
      vertex -6.01 -4.97191 100
    endloop
  endfacet
  facet normal 0.750111 0.661312 0
    outer loop
      vertex -6.01 -4.97191 0
      vertex -5.68596 -5.33947 100
      vertex -5.68596 -5.33947 0
    endloop
  endfacet
  facet normal 0.397148 0.917754 -0
    outer loop
      vertex -2.87137 -7.25226 0
      vertex -3.32108 -7.05765 100
      vertex -2.87137 -7.25226 100
    endloop
  endfacet
  facet normal 0.397148 0.917754 0
    outer loop
      vertex -3.32108 -7.05765 100
      vertex -2.87137 -7.25226 0
      vertex -3.32108 -7.05765 0
    endloop
  endfacet
  facet normal 0.509042 0.860742 -0
    outer loop
      vertex -3.75768 -6.83519 0
      vertex -4.17945 -6.58576 100
      vertex -3.75768 -6.83519 100
    endloop
  endfacet
  facet normal 0.509042 0.860742 0
    outer loop
      vertex -4.17945 -6.58576 100
      vertex -3.75768 -6.83519 0
      vertex -4.17945 -6.58576 0
    endloop
  endfacet
  facet normal 0.891006 0.453991 0
    outer loop
      vertex -6.83519 -3.75768 100
      vertex -7.05765 -3.32108 0
      vertex -7.05765 -3.32108 100
    endloop
  endfacet
  facet normal 0.891006 0.453991 0
    outer loop
      vertex -7.05765 -3.32108 0
      vertex -6.83519 -3.75768 100
      vertex -6.83519 -3.75768 0
    endloop
  endfacet
  facet normal 0.827081 0.562083 0
    outer loop
      vertex -6.31033 -4.58472 100
      vertex -6.58576 -4.17945 0
      vertex -6.58576 -4.17945 100
    endloop
  endfacet
  facet normal 0.827081 0.562083 0
    outer loop
      vertex -6.58576 -4.17945 0
      vertex -6.31033 -4.58472 100
      vertex -6.31033 -4.58472 0
    endloop
  endfacet
  facet normal 0.860742 0.509042 0
    outer loop
      vertex -6.58576 -4.17945 100
      vertex -6.83519 -3.75768 0
      vertex -6.83519 -3.75768 100
    endloop
  endfacet
  facet normal 0.860742 0.509042 0
    outer loop
      vertex -6.83519 -3.75768 0
      vertex -6.58576 -4.17945 100
      vertex -6.58576 -4.17945 0
    endloop
  endfacet
  facet normal 1 -0 0
    outer loop
      vertex 0 7.8 100
      vertex 0 8 0
      vertex 0 8 100
    endloop
  endfacet
  facet normal 1 0 0
    outer loop
      vertex 0 8 0
      vertex 0 7.8 100
      vertex 0 7.8 0
    endloop
  endfacet
  facet normal 1 -0 0
    outer loop
      vertex 0 -8 100
      vertex 0 -7.8 0
      vertex 0 -7.8 100
    endloop
  endfacet
  facet normal 1 0 0
    outer loop
      vertex 0 -7.8 0
      vertex 0 -8 100
      vertex 0 -8 0
    endloop
  endfacet
endsolid OpenSCAD_Model
