solid OpenSCAD_Model
  facet normal 0.661311 0.750112 -0
    outer loop
      vertex 5.47638 5.83175 0
      vertex 5.09939 6.16411 10
      vertex 5.47638 5.83175 10
    endloop
  endfacet
  facet normal 0.661311 0.750112 0
    outer loop
      vertex 5.09939 6.16411 10
      vertex 5.47638 5.83175 0
      vertex 5.09939 6.16411 0
    endloop
  endfacet
  facet normal -0.338738 0.940881 0
    outer loop
      vertex -2.47214 7.60845 0
      vertex -2.945 7.43821 10
      vertex -2.47214 7.60845 10
    endloop
  endfacet
  facet normal -0.338738 0.940881 0
    outer loop
      vertex -2.945 7.43821 10
      vertex -2.47214 7.60845 0
      vertex -2.945 7.43821 0
    endloop
  endfacet
  facet normal -0.891007 0.45399 0
    outer loop
      vertex -7.23862 3.40623 0
      vertex -7.01045 3.85403 10
      vertex -7.01045 3.85403 0
    endloop
  endfacet
  facet normal -0.891007 0.45399 0
    outer loop
      vertex -7.01045 3.85403 10
      vertex -7.23862 3.40623 0
      vertex -7.23862 3.40623 10
    endloop
  endfacet
  facet normal 0.995562 -0.0941071 0
    outer loop
      vertex 7.93692 -1.00267 10
      vertex 7.98421 -0.502324 0
      vertex 7.98421 -0.502324 10
    endloop
  endfacet
  facet normal 0.995562 -0.0941071 0
    outer loop
      vertex 7.98421 -0.502324 0
      vertex 7.93692 -1.00267 10
      vertex 7.93692 -1.00267 0
    endloop
  endfacet
  facet normal 0.891007 0.45399 0
    outer loop
      vertex 7.23862 3.40623 10
      vertex 7.01045 3.85403 0
      vertex 7.01045 3.85403 10
    endloop
  endfacet
  facet normal 0.891007 0.45399 0
    outer loop
      vertex 7.01045 3.85403 0
      vertex 7.23862 3.40623 10
      vertex 7.23862 3.40623 0
    endloop
  endfacet
  facet normal 0.397148 0.917755 -0
    outer loop
      vertex 3.40623 7.23862 0
      vertex 2.945 7.43821 10
      vertex 3.40623 7.23862 10
    endloop
  endfacet
  facet normal 0.397148 0.917755 0
    outer loop
      vertex 2.945 7.43821 10
      vertex 3.40623 7.23862 0
      vertex 2.945 7.43821 0
    endloop
  endfacet
  facet normal 0.156435 0.987688 -0
    outer loop
      vertex 1.49905 7.8583 0
      vertex 1.00267 7.93692 10
      vertex 1.49905 7.8583 10
    endloop
  endfacet
  facet normal 0.156435 0.987688 0
    outer loop
      vertex 1.00267 7.93692 10
      vertex 1.49905 7.8583 0
      vertex 1.00267 7.93692 0
    endloop
  endfacet
  facet normal -0.707107 0.707107 0
    outer loop
      vertex -5.83175 5.47638 0
      vertex -5.47638 5.83175 10
      vertex -5.47638 5.83175 0
    endloop
  endfacet
  facet normal -0.707107 0.707107 0
    outer loop
      vertex -5.47638 5.83175 10
      vertex -5.83175 5.47638 0
      vertex -5.83175 5.47638 10
    endloop
  endfacet
  facet normal -0.156435 0.987688 0
    outer loop
      vertex -1.00267 7.93692 0
      vertex -1.49905 7.8583 10
      vertex -1.00267 7.93692 10
    endloop
  endfacet
  facet normal -0.156435 0.987688 0
    outer loop
      vertex -1.49905 7.8583 10
      vertex -1.00267 7.93692 0
      vertex -1.49905 7.8583 0
    endloop
  endfacet
  facet normal 0.940881 -0.338738 0
    outer loop
      vertex 7.43821 -2.945 10
      vertex 7.60845 -2.47214 0
      vertex 7.60845 -2.47214 10
    endloop
  endfacet
  facet normal 0.940881 -0.338738 0
    outer loop
      vertex 7.60845 -2.47214 0
      vertex 7.43821 -2.945 10
      vertex 7.43821 -2.945 0
    endloop
  endfacet
  facet normal 0.397148 -0.917755 0
    outer loop
      vertex 2.945 -7.43821 0
      vertex 3.40623 -7.23862 10
      vertex 2.945 -7.43821 10
    endloop
  endfacet
  facet normal 0.397148 -0.917755 0
    outer loop
      vertex 3.40623 -7.23862 10
      vertex 2.945 -7.43821 0
      vertex 3.40623 -7.23862 0
    endloop
  endfacet
  facet normal -0.707107 -0.707107 0
    outer loop
      vertex -5.47638 -5.83175 0
      vertex -5.83175 -5.47638 10
      vertex -5.83175 -5.47638 0
    endloop
  endfacet
  facet normal -0.707107 -0.707107 0
    outer loop
      vertex -5.83175 -5.47638 10
      vertex -5.47638 -5.83175 0
      vertex -5.47638 -5.83175 10
    endloop
  endfacet
  facet normal 0.995562 0.0941071 0
    outer loop
      vertex 7.98421 0.502324 10
      vertex 7.93692 1.00267 0
      vertex 7.93692 1.00267 10
    endloop
  endfacet
  facet normal 0.995562 0.0941071 0
    outer loop
      vertex 7.93692 1.00267 0
      vertex 7.98421 0.502324 10
      vertex 7.98421 0.502324 0
    endloop
  endfacet
  facet normal 0.975917 0.218143 0
    outer loop
      vertex 7.8583 1.49905 10
      vertex 7.74866 1.98952 0
      vertex 7.74866 1.98952 10
    endloop
  endfacet
  facet normal 0.975917 0.218143 0
    outer loop
      vertex 7.74866 1.98952 0
      vertex 7.8583 1.49905 10
      vertex 7.8583 1.49905 0
    endloop
  endfacet
  facet normal 0.960294 0.278991 0
    outer loop
      vertex 7.74866 1.98952 10
      vertex 7.60845 2.47214 0
      vertex 7.60845 2.47214 10
    endloop
  endfacet
  facet normal 0.960294 0.278991 0
    outer loop
      vertex 7.60845 2.47214 0
      vertex 7.74866 1.98952 10
      vertex 7.74866 1.98952 0
    endloop
  endfacet
  facet normal 0.827082 0.562082 0
    outer loop
      vertex 6.75462 4.28661 10
      vertex 6.47214 4.70228 0
      vertex 6.47214 4.70228 10
    endloop
  endfacet
  facet normal 0.827082 0.562082 0
    outer loop
      vertex 6.47214 4.70228 0
      vertex 6.75462 4.28661 10
      vertex 6.75462 4.28661 0
    endloop
  endfacet
  facet normal 0.707107 0.707107 0
    outer loop
      vertex 5.83175 5.47638 10
      vertex 5.47638 5.83175 0
      vertex 5.47638 5.83175 10
    endloop
  endfacet
  facet normal 0.707107 0.707107 0
    outer loop
      vertex 5.47638 5.83175 0
      vertex 5.83175 5.47638 10
      vertex 5.83175 5.47638 0
    endloop
  endfacet
  facet normal 0.562082 0.827082 -0
    outer loop
      vertex 4.70228 6.47214 0
      vertex 4.28661 6.75462 10
      vertex 4.70228 6.47214 10
    endloop
  endfacet
  facet normal 0.562082 0.827082 0
    outer loop
      vertex 4.28661 6.75462 10
      vertex 4.70228 6.47214 0
      vertex 4.28661 6.75462 0
    endloop
  endfacet
  facet normal 0.509043 0.860741 -0
    outer loop
      vertex 4.28661 6.75462 0
      vertex 3.85403 7.01045 10
      vertex 4.28661 6.75462 10
    endloop
  endfacet
  facet normal 0.509043 0.860741 0
    outer loop
      vertex 3.85403 7.01045 10
      vertex 4.28661 6.75462 0
      vertex 3.85403 7.01045 0
    endloop
  endfacet
  facet normal 0.338738 0.940881 -0
    outer loop
      vertex 2.945 7.43821 0
      vertex 2.47214 7.60845 10
      vertex 2.945 7.43821 10
    endloop
  endfacet
  facet normal 0.338738 0.940881 0
    outer loop
      vertex 2.47214 7.60845 10
      vertex 2.945 7.43821 0
      vertex 2.47214 7.60845 0
    endloop
  endfacet
  facet normal 0.218143 0.975917 -0
    outer loop
      vertex 1.98952 7.74866 0
      vertex 1.49905 7.8583 10
      vertex 1.98952 7.74866 10
    endloop
  endfacet
  facet normal 0.218143 0.975917 0
    outer loop
      vertex 1.49905 7.8583 10
      vertex 1.98952 7.74866 0
      vertex 1.49905 7.8583 0
    endloop
  endfacet
  facet normal -0.960294 0.278991 0
    outer loop
      vertex -7.74866 1.98952 0
      vertex -7.60845 2.47214 10
      vertex -7.60845 2.47214 0
    endloop
  endfacet
  facet normal -0.960294 0.278991 0
    outer loop
      vertex -7.60845 2.47214 10
      vertex -7.74866 1.98952 0
      vertex -7.74866 1.98952 10
    endloop
  endfacet
  facet normal -0.790154 0.612908 0
    outer loop
      vertex -6.47214 4.70228 0
      vertex -6.16411 5.09939 10
      vertex -6.16411 5.09939 0
    endloop
  endfacet
  facet normal -0.790154 0.612908 0
    outer loop
      vertex -6.16411 5.09939 10
      vertex -6.47214 4.70228 0
      vertex -6.47214 4.70228 10
    endloop
  endfacet
  facet normal -0.509043 0.860741 0
    outer loop
      vertex -3.85403 7.01045 0
      vertex -4.28661 6.75462 10
      vertex -3.85403 7.01045 10
    endloop
  endfacet
  facet normal -0.509043 0.860741 0
    outer loop
      vertex -4.28661 6.75462 10
      vertex -3.85403 7.01045 0
      vertex -4.28661 6.75462 0
    endloop
  endfacet
  facet normal -0.562082 0.827082 0
    outer loop
      vertex -4.28661 6.75462 0
      vertex -4.70228 6.47214 10
      vertex -4.28661 6.75462 10
    endloop
  endfacet
  facet normal -0.562082 0.827082 0
    outer loop
      vertex -4.70228 6.47214 10
      vertex -4.28661 6.75462 0
      vertex -4.70228 6.47214 0
    endloop
  endfacet
  facet normal -0.45399 0.891007 0
    outer loop
      vertex -3.40623 7.23862 0
      vertex -3.85403 7.01045 10
      vertex -3.40623 7.23862 10
    endloop
  endfacet
  facet normal -0.45399 0.891007 0
    outer loop
      vertex -3.85403 7.01045 10
      vertex -3.40623 7.23862 0
      vertex -3.85403 7.01045 0
    endloop
  endfacet
  facet normal 0.999507 0.0314127 0
    outer loop
      vertex 8 0 10
      vertex 7.98421 0.502324 0
      vertex 7.98421 0.502324 10
    endloop
  endfacet
  facet normal 0.999507 0.0314127 0
    outer loop
      vertex 7.98421 0.502324 0
      vertex 8 0 10
      vertex 8 0 0
    endloop
  endfacet
  facet normal 0.960294 -0.278991 0
    outer loop
      vertex 7.60845 -2.47214 10
      vertex 7.74866 -1.98952 0
      vertex 7.74866 -1.98952 10
    endloop
  endfacet
  facet normal 0.960294 -0.278991 0
    outer loop
      vertex 7.74866 -1.98952 0
      vertex 7.60845 -2.47214 10
      vertex 7.60845 -2.47214 0
    endloop
  endfacet
  facet normal 0.750112 -0.661311 0
    outer loop
      vertex 5.83175 -5.47638 10
      vertex 6.16411 -5.09939 0
      vertex 6.16411 -5.09939 10
    endloop
  endfacet
  facet normal 0.750112 -0.661311 0
    outer loop
      vertex 6.16411 -5.09939 0
      vertex 5.83175 -5.47638 10
      vertex 5.83175 -5.47638 0
    endloop
  endfacet
  facet normal 0.278991 -0.960294 0
    outer loop
      vertex 1.98952 -7.74866 0
      vertex 2.47214 -7.60845 10
      vertex 1.98952 -7.74866 10
    endloop
  endfacet
  facet normal 0.278991 -0.960294 0
    outer loop
      vertex 2.47214 -7.60845 10
      vertex 1.98952 -7.74866 0
      vertex 2.47214 -7.60845 0
    endloop
  endfacet
  facet normal 0.45399 -0.891007 0
    outer loop
      vertex 3.40623 -7.23862 0
      vertex 3.85403 -7.01045 10
      vertex 3.40623 -7.23862 10
    endloop
  endfacet
  facet normal 0.45399 -0.891007 0
    outer loop
      vertex 3.85403 -7.01045 10
      vertex 3.40623 -7.23862 0
      vertex 3.85403 -7.01045 0
    endloop
  endfacet
  facet normal -0.0314127 -0.999507 0
    outer loop
      vertex -0.502324 -7.98421 0
      vertex 0 -8 10
      vertex -0.502324 -7.98421 10
    endloop
  endfacet
  facet normal -0.0314127 -0.999507 -0
    outer loop
      vertex 0 -8 10
      vertex -0.502324 -7.98421 0
      vertex 0 -8 0
    endloop
  endfacet
  facet normal -0.827082 -0.562082 0
    outer loop
      vertex -6.47214 -4.70228 0
      vertex -6.75462 -4.28661 10
      vertex -6.75462 -4.28661 0
    endloop
  endfacet
  facet normal -0.827082 -0.562082 0
    outer loop
      vertex -6.75462 -4.28661 10
      vertex -6.47214 -4.70228 0
      vertex -6.47214 -4.70228 10
    endloop
  endfacet
  facet normal 0.987688 0.156435 0
    outer loop
      vertex 7.93692 1.00267 10
      vertex 7.8583 1.49905 0
      vertex 7.8583 1.49905 10
    endloop
  endfacet
  facet normal 0.987688 0.156435 0
    outer loop
      vertex 7.8583 1.49905 0
      vertex 7.93692 1.00267 10
      vertex 7.93692 1.00267 0
    endloop
  endfacet
  facet normal 0.917755 0.397148 0
    outer loop
      vertex 7.43821 2.945 10
      vertex 7.23862 3.40623 0
      vertex 7.23862 3.40623 10
    endloop
  endfacet
  facet normal 0.917755 0.397148 0
    outer loop
      vertex 7.23862 3.40623 0
      vertex 7.43821 2.945 10
      vertex 7.43821 2.945 0
    endloop
  endfacet
  facet normal 0.940881 0.338738 0
    outer loop
      vertex 7.60845 2.47214 10
      vertex 7.43821 2.945 0
      vertex 7.43821 2.945 10
    endloop
  endfacet
  facet normal 0.940881 0.338738 0
    outer loop
      vertex 7.43821 2.945 0
      vertex 7.60845 2.47214 10
      vertex 7.60845 2.47214 0
    endloop
  endfacet
  facet normal 0.750112 0.661311 0
    outer loop
      vertex 6.16411 5.09939 10
      vertex 5.83175 5.47638 0
      vertex 5.83175 5.47638 10
    endloop
  endfacet
  facet normal 0.750112 0.661311 0
    outer loop
      vertex 5.83175 5.47638 0
      vertex 6.16411 5.09939 10
      vertex 6.16411 5.09939 0
    endloop
  endfacet
  facet normal 0.790154 0.612908 0
    outer loop
      vertex 6.47214 4.70228 10
      vertex 6.16411 5.09939 0
      vertex 6.16411 5.09939 10
    endloop
  endfacet
  facet normal 0.790154 0.612908 0
    outer loop
      vertex 6.16411 5.09939 0
      vertex 6.47214 4.70228 10
      vertex 6.47214 4.70228 0
    endloop
  endfacet
  facet normal 0.612908 0.790154 -0
    outer loop
      vertex 5.09939 6.16411 0
      vertex 4.70228 6.47214 10
      vertex 5.09939 6.16411 10
    endloop
  endfacet
  facet normal 0.612908 0.790154 0
    outer loop
      vertex 4.70228 6.47214 10
      vertex 5.09939 6.16411 0
      vertex 4.70228 6.47214 0
    endloop
  endfacet
  facet normal 0.0314127 0.999507 -0
    outer loop
      vertex 0.502324 7.98421 0
      vertex 0 8 10
      vertex 0.502324 7.98421 10
    endloop
  endfacet
  facet normal 0.0314127 0.999507 0
    outer loop
      vertex 0 8 10
      vertex 0.502324 7.98421 0
      vertex 0 8 0
    endloop
  endfacet
  facet normal 0.45399 0.891007 -0
    outer loop
      vertex 3.85403 7.01045 0
      vertex 3.40623 7.23862 10
      vertex 3.85403 7.01045 10
    endloop
  endfacet
  facet normal 0.45399 0.891007 0
    outer loop
      vertex 3.40623 7.23862 10
      vertex 3.85403 7.01045 0
      vertex 3.40623 7.23862 0
    endloop
  endfacet
  facet normal 0.278991 0.960294 -0
    outer loop
      vertex 2.47214 7.60845 0
      vertex 1.98952 7.74866 10
      vertex 2.47214 7.60845 10
    endloop
  endfacet
  facet normal 0.278991 0.960294 0
    outer loop
      vertex 1.98952 7.74866 10
      vertex 2.47214 7.60845 0
      vertex 1.98952 7.74866 0
    endloop
  endfacet
  facet normal -0.999507 0.0314127 0
    outer loop
      vertex -8 0 0
      vertex -7.98421 0.502324 10
      vertex -7.98421 0.502324 0
    endloop
  endfacet
  facet normal -0.999507 0.0314127 0
    outer loop
      vertex -7.98421 0.502324 10
      vertex -8 0 0
      vertex -8 0 10
    endloop
  endfacet
  facet normal -0.940881 0.338738 0
    outer loop
      vertex -7.60845 2.47214 0
      vertex -7.43821 2.945 10
      vertex -7.43821 2.945 0
    endloop
  endfacet
  facet normal -0.940881 0.338738 0
    outer loop
      vertex -7.43821 2.945 10
      vertex -7.60845 2.47214 0
      vertex -7.60845 2.47214 10
    endloop
  endfacet
  facet normal -0.917755 0.397148 0
    outer loop
      vertex -7.43821 2.945 0
      vertex -7.23862 3.40623 10
      vertex -7.23862 3.40623 0
    endloop
  endfacet
  facet normal -0.917755 0.397148 0
    outer loop
      vertex -7.23862 3.40623 10
      vertex -7.43821 2.945 0
      vertex -7.43821 2.945 10
    endloop
  endfacet
  facet normal -0.987688 0.156435 0
    outer loop
      vertex -7.93692 1.00267 0
      vertex -7.8583 1.49905 10
      vertex -7.8583 1.49905 0
    endloop
  endfacet
  facet normal -0.987688 0.156435 0
    outer loop
      vertex -7.8583 1.49905 10
      vertex -7.93692 1.00267 0
      vertex -7.93692 1.00267 10
    endloop
  endfacet
  facet normal -0.860741 0.509043 0
    outer loop
      vertex -7.01045 3.85403 0
      vertex -6.75462 4.28661 10
      vertex -6.75462 4.28661 0
    endloop
  endfacet
  facet normal -0.860741 0.509043 0
    outer loop
      vertex -6.75462 4.28661 10
      vertex -7.01045 3.85403 0
      vertex -7.01045 3.85403 10
    endloop
  endfacet
  facet normal -0.218143 0.975917 0
    outer loop
      vertex -1.49905 7.8583 0
      vertex -1.98952 7.74866 10
      vertex -1.49905 7.8583 10
    endloop
  endfacet
  facet normal -0.218143 0.975917 0
    outer loop
      vertex -1.98952 7.74866 10
      vertex -1.49905 7.8583 0
      vertex -1.98952 7.74866 0
    endloop
  endfacet
  facet normal -0.278991 0.960294 0
    outer loop
      vertex -1.98952 7.74866 0
      vertex -2.47214 7.60845 10
      vertex -1.98952 7.74866 10
    endloop
  endfacet
  facet normal -0.278991 0.960294 0
    outer loop
      vertex -2.47214 7.60845 10
      vertex -1.98952 7.74866 0
      vertex -2.47214 7.60845 0
    endloop
  endfacet
  facet normal -0.0314127 0.999507 0
    outer loop
      vertex 0 8 0
      vertex -0.502324 7.98421 10
      vertex 0 8 10
    endloop
  endfacet
  facet normal -0.0314127 0.999507 0
    outer loop
      vertex -0.502324 7.98421 10
      vertex 0 8 0
      vertex -0.502324 7.98421 0
    endloop
  endfacet
  facet normal -0.0941071 0.995562 0
    outer loop
      vertex -0.502324 7.98421 0
      vertex -1.00267 7.93692 10
      vertex -0.502324 7.98421 10
    endloop
  endfacet
  facet normal -0.0941071 0.995562 0
    outer loop
      vertex -1.00267 7.93692 10
      vertex -0.502324 7.98421 0
      vertex -1.00267 7.93692 0
    endloop
  endfacet
  facet normal -0.397148 0.917755 0
    outer loop
      vertex -2.945 7.43821 0
      vertex -3.40623 7.23862 10
      vertex -2.945 7.43821 10
    endloop
  endfacet
  facet normal -0.397148 0.917755 0
    outer loop
      vertex -3.40623 7.23862 10
      vertex -2.945 7.43821 0
      vertex -3.40623 7.23862 0
    endloop
  endfacet
  facet normal -0.612908 0.790154 0
    outer loop
      vertex -4.70228 6.47214 0
      vertex -5.09939 6.16411 10
      vertex -4.70228 6.47214 10
    endloop
  endfacet
  facet normal -0.612908 0.790154 0
    outer loop
      vertex -5.09939 6.16411 10
      vertex -4.70228 6.47214 0
      vertex -5.09939 6.16411 0
    endloop
  endfacet
  facet normal -0.661311 0.750112 0
    outer loop
      vertex -5.09939 6.16411 0
      vertex -5.47638 5.83175 10
      vertex -5.09939 6.16411 10
    endloop
  endfacet
  facet normal -0.661311 0.750112 0
    outer loop
      vertex -5.47638 5.83175 10
      vertex -5.09939 6.16411 0
      vertex -5.47638 5.83175 0
    endloop
  endfacet
  facet normal 0.999507 -0.0314127 0
    outer loop
      vertex 7.98421 -0.502324 10
      vertex 8 0 0
      vertex 8 0 10
    endloop
  endfacet
  facet normal 0.999507 -0.0314127 0
    outer loop
      vertex 8 0 0
      vertex 7.98421 -0.502324 10
      vertex 7.98421 -0.502324 0
    endloop
  endfacet
  facet normal 0.0314127 -0.999507 0
    outer loop
      vertex 0 -8 0
      vertex 0.502324 -7.98421 10
      vertex 0 -8 10
    endloop
  endfacet
  facet normal 0.0314127 -0.999507 0
    outer loop
      vertex 0.502324 -7.98421 10
      vertex 0 -8 0
      vertex 0.502324 -7.98421 0
    endloop
  endfacet
  facet normal 0.987688 -0.156435 0
    outer loop
      vertex 7.8583 -1.49905 10
      vertex 7.93692 -1.00267 0
      vertex 7.93692 -1.00267 10
    endloop
  endfacet
  facet normal 0.987688 -0.156435 0
    outer loop
      vertex 7.93692 -1.00267 0
      vertex 7.8583 -1.49905 10
      vertex 7.8583 -1.49905 0
    endloop
  endfacet
  facet normal 0.860741 -0.509043 0
    outer loop
      vertex 6.75462 -4.28661 10
      vertex 7.01045 -3.85403 0
      vertex 7.01045 -3.85403 10
    endloop
  endfacet
  facet normal 0.860741 -0.509043 0
    outer loop
      vertex 7.01045 -3.85403 0
      vertex 6.75462 -4.28661 10
      vertex 6.75462 -4.28661 0
    endloop
  endfacet
  facet normal 0.827082 -0.562082 0
    outer loop
      vertex 6.47214 -4.70228 10
      vertex 6.75462 -4.28661 0
      vertex 6.75462 -4.28661 10
    endloop
  endfacet
  facet normal 0.827082 -0.562082 0
    outer loop
      vertex 6.75462 -4.28661 0
      vertex 6.47214 -4.70228 10
      vertex 6.47214 -4.70228 0
    endloop
  endfacet
  facet normal 0.0941071 -0.995562 0
    outer loop
      vertex 0.502324 -7.98421 0
      vertex 1.00267 -7.93692 10
      vertex 0.502324 -7.98421 10
    endloop
  endfacet
  facet normal 0.0941071 -0.995562 0
    outer loop
      vertex 1.00267 -7.93692 10
      vertex 0.502324 -7.98421 0
      vertex 1.00267 -7.93692 0
    endloop
  endfacet
  facet normal 0.156435 -0.987688 0
    outer loop
      vertex 1.00267 -7.93692 0
      vertex 1.49905 -7.8583 10
      vertex 1.00267 -7.93692 10
    endloop
  endfacet
  facet normal 0.156435 -0.987688 0
    outer loop
      vertex 1.49905 -7.8583 10
      vertex 1.00267 -7.93692 0
      vertex 1.49905 -7.8583 0
    endloop
  endfacet
  facet normal 0.338738 -0.940881 0
    outer loop
      vertex 2.47214 -7.60845 0
      vertex 2.945 -7.43821 10
      vertex 2.47214 -7.60845 10
    endloop
  endfacet
  facet normal 0.338738 -0.940881 0
    outer loop
      vertex 2.945 -7.43821 10
      vertex 2.47214 -7.60845 0
      vertex 2.945 -7.43821 0
    endloop
  endfacet
  facet normal 0.661311 -0.750112 0
    outer loop
      vertex 5.09939 -6.16411 0
      vertex 5.47638 -5.83175 10
      vertex 5.09939 -6.16411 10
    endloop
  endfacet
  facet normal 0.661311 -0.750112 0
    outer loop
      vertex 5.47638 -5.83175 10
      vertex 5.09939 -6.16411 0
      vertex 5.47638 -5.83175 0
    endloop
  endfacet
  facet normal 0.612908 -0.790154 0
    outer loop
      vertex 4.70228 -6.47214 0
      vertex 5.09939 -6.16411 10
      vertex 4.70228 -6.47214 10
    endloop
  endfacet
  facet normal 0.612908 -0.790154 0
    outer loop
      vertex 5.09939 -6.16411 10
      vertex 4.70228 -6.47214 0
      vertex 5.09939 -6.16411 0
    endloop
  endfacet
  facet normal 0.707107 -0.707107 0
    outer loop
      vertex 5.47638 -5.83175 10
      vertex 5.83175 -5.47638 0
      vertex 5.83175 -5.47638 10
    endloop
  endfacet
  facet normal 0.707107 -0.707107 0
    outer loop
      vertex 5.83175 -5.47638 0
      vertex 5.47638 -5.83175 10
      vertex 5.47638 -5.83175 0
    endloop
  endfacet
  facet normal 0.509043 -0.860741 0
    outer loop
      vertex 3.85403 -7.01045 0
      vertex 4.28661 -6.75462 10
      vertex 3.85403 -7.01045 10
    endloop
  endfacet
  facet normal 0.509043 -0.860741 0
    outer loop
      vertex 4.28661 -6.75462 10
      vertex 3.85403 -7.01045 0
      vertex 4.28661 -6.75462 0
    endloop
  endfacet
  facet normal 0.562082 -0.827082 0
    outer loop
      vertex 4.28661 -6.75462 0
      vertex 4.70228 -6.47214 10
      vertex 4.28661 -6.75462 10
    endloop
  endfacet
  facet normal 0.562082 -0.827082 0
    outer loop
      vertex 4.70228 -6.47214 10
      vertex 4.28661 -6.75462 0
      vertex 4.70228 -6.47214 0
    endloop
  endfacet
  facet normal -0.156435 -0.987688 0
    outer loop
      vertex -1.49905 -7.8583 0
      vertex -1.00267 -7.93692 10
      vertex -1.49905 -7.8583 10
    endloop
  endfacet
  facet normal -0.156435 -0.987688 -0
    outer loop
      vertex -1.00267 -7.93692 10
      vertex -1.49905 -7.8583 0
      vertex -1.00267 -7.93692 0
    endloop
  endfacet
  facet normal -0.397148 -0.917755 0
    outer loop
      vertex -3.40623 -7.23862 0
      vertex -2.945 -7.43821 10
      vertex -3.40623 -7.23862 10
    endloop
  endfacet
  facet normal -0.397148 -0.917755 -0
    outer loop
      vertex -2.945 -7.43821 10
      vertex -3.40623 -7.23862 0
      vertex -2.945 -7.43821 0
    endloop
  endfacet
  facet normal -0.218143 -0.975917 0
    outer loop
      vertex -1.98952 -7.74866 0
      vertex -1.49905 -7.8583 10
      vertex -1.98952 -7.74866 10
    endloop
  endfacet
  facet normal -0.218143 -0.975917 -0
    outer loop
      vertex -1.49905 -7.8583 10
      vertex -1.98952 -7.74866 0
      vertex -1.49905 -7.8583 0
    endloop
  endfacet
  facet normal -0.0941071 -0.995562 0
    outer loop
      vertex -1.00267 -7.93692 0
      vertex -0.502324 -7.98421 10
      vertex -1.00267 -7.93692 10
    endloop
  endfacet
  facet normal -0.0941071 -0.995562 -0
    outer loop
      vertex -0.502324 -7.98421 10
      vertex -1.00267 -7.93692 0
      vertex -0.502324 -7.98421 0
    endloop
  endfacet
  facet normal -0.278991 -0.960294 0
    outer loop
      vertex -2.47214 -7.60845 0
      vertex -1.98952 -7.74866 10
      vertex -2.47214 -7.60845 10
    endloop
  endfacet
  facet normal -0.278991 -0.960294 -0
    outer loop
      vertex -1.98952 -7.74866 10
      vertex -2.47214 -7.60845 0
      vertex -1.98952 -7.74866 0
    endloop
  endfacet
  facet normal -0.509043 -0.860741 0
    outer loop
      vertex -4.28661 -6.75462 0
      vertex -3.85403 -7.01045 10
      vertex -4.28661 -6.75462 10
    endloop
  endfacet
  facet normal -0.509043 -0.860741 -0
    outer loop
      vertex -3.85403 -7.01045 10
      vertex -4.28661 -6.75462 0
      vertex -3.85403 -7.01045 0
    endloop
  endfacet
  facet normal -0.562082 -0.827082 0
    outer loop
      vertex -4.70228 -6.47214 0
      vertex -4.28661 -6.75462 10
      vertex -4.70228 -6.47214 10
    endloop
  endfacet
  facet normal -0.562082 -0.827082 -0
    outer loop
      vertex -4.28661 -6.75462 10
      vertex -4.70228 -6.47214 0
      vertex -4.28661 -6.75462 0
    endloop
  endfacet
  facet normal -0.45399 -0.891007 0
    outer loop
      vertex -3.85403 -7.01045 0
      vertex -3.40623 -7.23862 10
      vertex -3.85403 -7.01045 10
    endloop
  endfacet
  facet normal -0.45399 -0.891007 -0
    outer loop
      vertex -3.40623 -7.23862 10
      vertex -3.85403 -7.01045 0
      vertex -3.40623 -7.23862 0
    endloop
  endfacet
  facet normal -0.661311 -0.750112 0
    outer loop
      vertex -5.47638 -5.83175 0
      vertex -5.09939 -6.16411 10
      vertex -5.47638 -5.83175 10
    endloop
  endfacet
  facet normal -0.661311 -0.750112 -0
    outer loop
      vertex -5.09939 -6.16411 10
      vertex -5.47638 -5.83175 0
      vertex -5.09939 -6.16411 0
    endloop
  endfacet
  facet normal -0.612908 -0.790154 0
    outer loop
      vertex -5.09939 -6.16411 0
      vertex -4.70228 -6.47214 10
      vertex -5.09939 -6.16411 10
    endloop
  endfacet
  facet normal -0.612908 -0.790154 -0
    outer loop
      vertex -4.70228 -6.47214 10
      vertex -5.09939 -6.16411 0
      vertex -4.70228 -6.47214 0
    endloop
  endfacet
  facet normal -0.940881 -0.338738 0
    outer loop
      vertex -7.43821 -2.945 0
      vertex -7.60845 -2.47214 10
      vertex -7.60845 -2.47214 0
    endloop
  endfacet
  facet normal -0.940881 -0.338738 0
    outer loop
      vertex -7.60845 -2.47214 10
      vertex -7.43821 -2.945 0
      vertex -7.43821 -2.945 10
    endloop
  endfacet
  facet normal -0.975917 -0.218143 0
    outer loop
      vertex -7.74866 -1.98952 0
      vertex -7.8583 -1.49905 10
      vertex -7.8583 -1.49905 0
    endloop
  endfacet
  facet normal -0.975917 -0.218143 0
    outer loop
      vertex -7.8583 -1.49905 10
      vertex -7.74866 -1.98952 0
      vertex -7.74866 -1.98952 10
    endloop
  endfacet
  facet normal -0.960294 -0.278991 0
    outer loop
      vertex -7.60845 -2.47214 0
      vertex -7.74866 -1.98952 10
      vertex -7.74866 -1.98952 0
    endloop
  endfacet
  facet normal -0.960294 -0.278991 0
    outer loop
      vertex -7.74866 -1.98952 10
      vertex -7.60845 -2.47214 0
      vertex -7.60845 -2.47214 10
    endloop
  endfacet
  facet normal -0.999507 -0.0314127 0
    outer loop
      vertex -7.98421 -0.502324 0
      vertex -8 0 10
      vertex -8 0 0
    endloop
  endfacet
  facet normal -0.999507 -0.0314127 0
    outer loop
      vertex -8 0 10
      vertex -7.98421 -0.502324 0
      vertex -7.98421 -0.502324 10
    endloop
  endfacet
  facet normal -0.987688 -0.156435 0
    outer loop
      vertex -7.8583 -1.49905 0
      vertex -7.93692 -1.00267 10
      vertex -7.93692 -1.00267 0
    endloop
  endfacet
  facet normal -0.987688 -0.156435 0
    outer loop
      vertex -7.93692 -1.00267 10
      vertex -7.8583 -1.49905 0
      vertex -7.8583 -1.49905 10
    endloop
  endfacet
  facet normal 0 0 -1
    outer loop
      vertex -1.49905 7.8583 0
      vertex -2 4 0
      vertex -1.98952 7.74866 0
    endloop
  endfacet
  facet normal 0 0 -1
    outer loop
      vertex -2 4 0
      vertex -2.47214 7.60845 0
      vertex -1.98952 7.74866 0
    endloop
  endfacet
  facet normal 0 0 -1
    outer loop
      vertex -2 4 0
      vertex -2.945 7.43821 0
      vertex -2.47214 7.60845 0
    endloop
  endfacet
  facet normal 0 0 -1
    outer loop
      vertex -3.40623 7.23862 0
      vertex -2 4 0
      vertex -3 4 0
    endloop
  endfacet
  facet normal 0 0 -1
    outer loop
      vertex -5.09939 -6.16411 0
      vertex -1 -4 0
      vertex -4.70228 -6.47214 0
    endloop
  endfacet
  facet normal 0 0 -1
    outer loop
      vertex -2 4 0
      vertex -3.40623 7.23862 0
      vertex -2.945 7.43821 0
    endloop
  endfacet
  facet normal 0 0 -1
    outer loop
      vertex -5.47638 -5.83175 0
      vertex -1 -4 0
      vertex -5.09939 -6.16411 0
    endloop
  endfacet
  facet normal 0 0 -1
    outer loop
      vertex -3 4 0
      vertex -3.85403 7.01045 0
      vertex -3.40623 7.23862 0
    endloop
  endfacet
  facet normal 0 0 -1
    outer loop
      vertex -5.83175 -5.47638 0
      vertex -1 -4 0
      vertex -5.47638 -5.83175 0
    endloop
  endfacet
  facet normal 0 0 -1
    outer loop
      vertex -3 4 0
      vertex -4.28661 6.75462 0
      vertex -3.85403 7.01045 0
    endloop
  endfacet
  facet normal -0 0 -1
    outer loop
      vertex -1 -4 0
      vertex -5.83175 -5.47638 0
      vertex -1 -3 0
    endloop
  endfacet
  facet normal 0 0 -1
    outer loop
      vertex -3 4 0
      vertex -4.70228 6.47214 0
      vertex -4.28661 6.75462 0
    endloop
  endfacet
  facet normal 0 0 -1
    outer loop
      vertex -6.16411 -5.09939 0
      vertex -1 -3 0
      vertex -5.83175 -5.47638 0
    endloop
  endfacet
  facet normal 0 0 -1
    outer loop
      vertex -3 4 0
      vertex -5.09939 6.16411 0
      vertex -4.70228 6.47214 0
    endloop
  endfacet
  facet normal 0 0 -1
    outer loop
      vertex -6.47214 -4.70228 0
      vertex -1 -3 0
      vertex -6.16411 -5.09939 0
    endloop
  endfacet
  facet normal 0 0 -1
    outer loop
      vertex -3 4 0
      vertex -5.47638 5.83175 0
      vertex -5.09939 6.16411 0
    endloop
  endfacet
  facet normal 0 0 -1
    outer loop
      vertex -6.75462 -4.28661 0
      vertex -1 -3 0
      vertex -6.47214 -4.70228 0
    endloop
  endfacet
  facet normal 0 0 -1
    outer loop
      vertex -3 4 0
      vertex -5.83175 5.47638 0
      vertex -5.47638 5.83175 0
    endloop
  endfacet
  facet normal 0 0 -1
    outer loop
      vertex -7.01045 -3.85403 0
      vertex -1 -3 0
      vertex -6.75462 -4.28661 0
    endloop
  endfacet
  facet normal 0 0 -1
    outer loop
      vertex -3 4 0
      vertex -6.16411 5.09939 0
      vertex -5.83175 5.47638 0
    endloop
  endfacet
  facet normal 0 0 -1
    outer loop
      vertex -7.23862 -3.40623 0
      vertex -1 -3 0
      vertex -7.01045 -3.85403 0
    endloop
  endfacet
  facet normal 0 0 -1
    outer loop
      vertex -3 4 0
      vertex -6.47214 4.70228 0
      vertex -6.16411 5.09939 0
    endloop
  endfacet
  facet normal 0 0 -1
    outer loop
      vertex -7.43821 -2.945 0
      vertex -1 -3 0
      vertex -7.23862 -3.40623 0
    endloop
  endfacet
  facet normal 0 0 -1
    outer loop
      vertex -3 3 0
      vertex -6.47214 4.70228 0
      vertex -3 4 0
    endloop
  endfacet
  facet normal 0 0 -1
    outer loop
      vertex -7.60845 -2.47214 0
      vertex -1 -3 0
      vertex -7.43821 -2.945 0
    endloop
  endfacet
  facet normal 0 -0 -1
    outer loop
      vertex -6.47214 4.70228 0
      vertex -3 3 0
      vertex -6.75462 4.28661 0
    endloop
  endfacet
  facet normal 0 0 -1
    outer loop
      vertex -7.74866 -1.98952 0
      vertex -1 -3 0
      vertex -7.60845 -2.47214 0
    endloop
  endfacet
  facet normal 0 -0 -1
    outer loop
      vertex -6.75462 4.28661 0
      vertex -3 3 0
      vertex -7.01045 3.85403 0
    endloop
  endfacet
  facet normal 0 0 -1
    outer loop
      vertex -7.8583 -1.49905 0
      vertex -1 -3 0
      vertex -7.74866 -1.98952 0
    endloop
  endfacet
  facet normal 0 -0 -1
    outer loop
      vertex -7.01045 3.85403 0
      vertex -3 3 0
      vertex -7.23862 3.40623 0
    endloop
  endfacet
  facet normal 0 0 -1
    outer loop
      vertex -1 -3 0
      vertex -7.8583 -1.49905 0
      vertex -3 3 0
    endloop
  endfacet
  facet normal 0 -0 -1
    outer loop
      vertex -7.23862 3.40623 0
      vertex -3 3 0
      vertex -7.43821 2.945 0
    endloop
  endfacet
  facet normal 0 0 -1
    outer loop
      vertex -7.93692 -1.00267 0
      vertex -3 3 0
      vertex -7.8583 -1.49905 0
    endloop
  endfacet
  facet normal 0 -0 -1
    outer loop
      vertex -7.43821 2.945 0
      vertex -3 3 0
      vertex -7.60845 2.47214 0
    endloop
  endfacet
  facet normal 0 0 -1
    outer loop
      vertex -7.98421 -0.502324 0
      vertex -3 3 0
      vertex -7.93692 -1.00267 0
    endloop
  endfacet
  facet normal 0 -0 -1
    outer loop
      vertex -7.60845 2.47214 0
      vertex -3 3 0
      vertex -7.74866 1.98952 0
    endloop
  endfacet
  facet normal 0 0 -1
    outer loop
      vertex -8 0 0
      vertex -3 3 0
      vertex -7.98421 -0.502324 0
    endloop
  endfacet
  facet normal 0 -0 -1
    outer loop
      vertex -7.74866 1.98952 0
      vertex -3 3 0
      vertex -7.8583 1.49905 0
    endloop
  endfacet
  facet normal 0 -0 -1
    outer loop
      vertex -7.98421 0.502324 0
      vertex -3 3 0
      vertex -8 0 0
    endloop
  endfacet
  facet normal 0 -0 -1
    outer loop
      vertex -7.8583 1.49905 0
      vertex -3 3 0
      vertex -7.93692 1.00267 0
    endloop
  endfacet
  facet normal 0 -0 -1
    outer loop
      vertex -7.93692 1.00267 0
      vertex -3 3 0
      vertex -7.98421 0.502324 0
    endloop
  endfacet
  facet normal 0 0 -1
    outer loop
      vertex -0.502324 -7.98421 0
      vertex 0 -4 0
      vertex 0 -8 0
    endloop
  endfacet
  facet normal 0 0 -1
    outer loop
      vertex -0.502324 -7.98421 0
      vertex -1 -4 0
      vertex 0 -4 0
    endloop
  endfacet
  facet normal 0 0 -1
    outer loop
      vertex -1.49905 -7.8583 0
      vertex -1 -4 0
      vertex -1.00267 -7.93692 0
    endloop
  endfacet
  facet normal 0 0 -1
    outer loop
      vertex -1.00267 -7.93692 0
      vertex -1 -4 0
      vertex -0.502324 -7.98421 0
    endloop
  endfacet
  facet normal 0 0 -1
    outer loop
      vertex 1 -3 0
      vertex 3 3 0
      vertex 2 -3 0
    endloop
  endfacet
  facet normal 0 0 -1
    outer loop
      vertex -2 4 0
      vertex 3 3 0
      vertex -2 3 0
    endloop
  endfacet
  facet normal 0 0 -1
    outer loop
      vertex 3 3 0
      vertex 1.98952 7.74866 0
      vertex 2.47214 7.60845 0
    endloop
  endfacet
  facet normal 0 0 -1
    outer loop
      vertex 3 3 0
      vertex 1.49905 7.8583 0
      vertex 1.98952 7.74866 0
    endloop
  endfacet
  facet normal -0 0 -1
    outer loop
      vertex 3 3 0
      vertex 1 -3 0
      vertex -2 3 0
    endloop
  endfacet
  facet normal 0 0 -1
    outer loop
      vertex 1 -4 0
      vertex 0 -4 0
      vertex 1 -3 0
    endloop
  endfacet
  facet normal 0 0 -1
    outer loop
      vertex -2 3 0
      vertex 1 -3 0
      vertex 0 -3 0
    endloop
  endfacet
  facet normal 0 0 -1
    outer loop
      vertex 0 -4 0
      vertex 0.502324 -7.98421 0
      vertex 0 -8 0
    endloop
  endfacet
  facet normal -0 0 -1
    outer loop
      vertex 1 -3 0
      vertex 0 -4 0
      vertex 0 -3 0
    endloop
  endfacet
  facet normal 0 0 -1
    outer loop
      vertex 3 3 0
      vertex 1.00267 7.93692 0
      vertex 1.49905 7.8583 0
    endloop
  endfacet
  facet normal 0 0 -1
    outer loop
      vertex 3 3 0
      vertex -2 4 0
      vertex 1.00267 7.93692 0
    endloop
  endfacet
  facet normal -0 0 -1
    outer loop
      vertex 1.00267 7.93692 0
      vertex -2 4 0
      vertex 0.502324 7.98421 0
    endloop
  endfacet
  facet normal 0 0 -1
    outer loop
      vertex -2 3 0
      vertex 0 -3 0
      vertex -1 -3 0
    endloop
  endfacet
  facet normal -0 0 -1
    outer loop
      vertex 0.502324 7.98421 0
      vertex -2 4 0
      vertex 0 8 0
    endloop
  endfacet
  facet normal 0 0 -1
    outer loop
      vertex -1.98952 -7.74866 0
      vertex -1 -4 0
      vertex -1.49905 -7.8583 0
    endloop
  endfacet
  facet normal 0 0 -1
    outer loop
      vertex -2.47214 -7.60845 0
      vertex -1 -4 0
      vertex -1.98952 -7.74866 0
    endloop
  endfacet
  facet normal 0 0 -1
    outer loop
      vertex 0 8 0
      vertex -2 4 0
      vertex -0.502324 7.98421 0
    endloop
  endfacet
  facet normal 0 0 -1
    outer loop
      vertex -2.945 -7.43821 0
      vertex -1 -4 0
      vertex -2.47214 -7.60845 0
    endloop
  endfacet
  facet normal 0 0 -1
    outer loop
      vertex -0.502324 7.98421 0
      vertex -2 4 0
      vertex -1.00267 7.93692 0
    endloop
  endfacet
  facet normal 0 0 -1
    outer loop
      vertex -1.00267 7.93692 0
      vertex -2 4 0
      vertex -1.49905 7.8583 0
    endloop
  endfacet
  facet normal 0 0 -1
    outer loop
      vertex -3.40623 -7.23862 0
      vertex -1 -4 0
      vertex -2.945 -7.43821 0
    endloop
  endfacet
  facet normal 0 0 -1
    outer loop
      vertex -3.85403 -7.01045 0
      vertex -1 -4 0
      vertex -3.40623 -7.23862 0
    endloop
  endfacet
  facet normal 0 0 -1
    outer loop
      vertex -4.28661 -6.75462 0
      vertex -1 -4 0
      vertex -3.85403 -7.01045 0
    endloop
  endfacet
  facet normal 0 0 -1
    outer loop
      vertex -4.70228 -6.47214 0
      vertex -1 -4 0
      vertex -4.28661 -6.75462 0
    endloop
  endfacet
  facet normal 0 0 -1
    outer loop
      vertex -1 -3 0
      vertex -3 3 0
      vertex -2 3 0
    endloop
  endfacet
  facet normal 0 0 -1
    outer loop
      vertex 4 3 0
      vertex 8 0 0
      vertex 7.98421 -0.502324 0
    endloop
  endfacet
  facet normal 0 0 -1
    outer loop
      vertex 4 3 0
      vertex 7.98421 -0.502324 0
      vertex 7.93692 -1.00267 0
    endloop
  endfacet
  facet normal 0 0 -1
    outer loop
      vertex 8 0 0
      vertex 4 3 0
      vertex 7.98421 0.502324 0
    endloop
  endfacet
  facet normal 0 0 -1
    outer loop
      vertex 2 -3 0
      vertex 7.93692 -1.00267 0
      vertex 7.8583 -1.49905 0
    endloop
  endfacet
  facet normal 0 0 -1
    outer loop
      vertex 7.98421 0.502324 0
      vertex 4 3 0
      vertex 7.93692 1.00267 0
    endloop
  endfacet
  facet normal -0 0 -1
    outer loop
      vertex 7.60845 -2.47214 0
      vertex 2 -3 0
      vertex 7.74866 -1.98952 0
    endloop
  endfacet
  facet normal 0 0 -1
    outer loop
      vertex 7.93692 1.00267 0
      vertex 4 3 0
      vertex 7.8583 1.49905 0
    endloop
  endfacet
  facet normal -0 0 -1
    outer loop
      vertex 7.43821 -2.945 0
      vertex 2 -3 0
      vertex 7.60845 -2.47214 0
    endloop
  endfacet
  facet normal 0 0 -1
    outer loop
      vertex 7.8583 1.49905 0
      vertex 4 3 0
      vertex 7.74866 1.98952 0
    endloop
  endfacet
  facet normal 0 0 -1
    outer loop
      vertex 7.23862 -3.40623 0
      vertex 2 -3 0
      vertex 7.43821 -2.945 0
    endloop
  endfacet
  facet normal 0 0 -1
    outer loop
      vertex 7.74866 1.98952 0
      vertex 4 3 0
      vertex 7.60845 2.47214 0
    endloop
  endfacet
  facet normal 0 0 -1
    outer loop
      vertex 7.01045 -3.85403 0
      vertex 2 -3 0
      vertex 7.23862 -3.40623 0
    endloop
  endfacet
  facet normal 0 0 -1
    outer loop
      vertex 7.60845 2.47214 0
      vertex 4 3 0
      vertex 7.43821 2.945 0
    endloop
  endfacet
  facet normal 0 0 -1
    outer loop
      vertex 6.75462 -4.28661 0
      vertex 2 -3 0
      vertex 7.01045 -3.85403 0
    endloop
  endfacet
  facet normal 0 0 -1
    outer loop
      vertex 7.43821 2.945 0
      vertex 4 3 0
      vertex 7.23862 3.40623 0
    endloop
  endfacet
  facet normal 0 0 -1
    outer loop
      vertex 6.47214 -4.70228 0
      vertex 2 -3 0
      vertex 6.75462 -4.28661 0
    endloop
  endfacet
  facet normal -0 0 -1
    outer loop
      vertex 7.23862 3.40623 0
      vertex 4 3 0
      vertex 7.01045 3.85403 0
    endloop
  endfacet
  facet normal 0 0 -1
    outer loop
      vertex 6.16411 -5.09939 0
      vertex 2 -3 0
      vertex 6.47214 -4.70228 0
    endloop
  endfacet
  facet normal -0 0 -1
    outer loop
      vertex 7.01045 3.85403 0
      vertex 4 3 0
      vertex 6.75462 4.28661 0
    endloop
  endfacet
  facet normal 0 0 -1
    outer loop
      vertex 2 -3 0
      vertex 6.16411 -5.09939 0
      vertex 2 -4 0
    endloop
  endfacet
  facet normal 0 0 -1
    outer loop
      vertex 4 4 0
      vertex 6.75462 4.28661 0
      vertex 4 3 0
    endloop
  endfacet
  facet normal 0 0 -1
    outer loop
      vertex 2 -4 0
      vertex 6.16411 -5.09939 0
      vertex 5.83175 -5.47638 0
    endloop
  endfacet
  facet normal -0 0 -1
    outer loop
      vertex 6.75462 4.28661 0
      vertex 4 4 0
      vertex 6.47214 4.70228 0
    endloop
  endfacet
  facet normal 0 0 -1
    outer loop
      vertex 2 -4 0
      vertex 5.83175 -5.47638 0
      vertex 5.47638 -5.83175 0
    endloop
  endfacet
  facet normal -0 0 -1
    outer loop
      vertex 6.47214 4.70228 0
      vertex 4 4 0
      vertex 6.16411 5.09939 0
    endloop
  endfacet
  facet normal 0 0 -1
    outer loop
      vertex 2 -4 0
      vertex 5.47638 -5.83175 0
      vertex 5.09939 -6.16411 0
    endloop
  endfacet
  facet normal -0 0 -1
    outer loop
      vertex 6.16411 5.09939 0
      vertex 4 4 0
      vertex 5.83175 5.47638 0
    endloop
  endfacet
  facet normal 0 0 -1
    outer loop
      vertex 2 -4 0
      vertex 5.09939 -6.16411 0
      vertex 4.70228 -6.47214 0
    endloop
  endfacet
  facet normal -0 0 -1
    outer loop
      vertex 5.83175 5.47638 0
      vertex 4 4 0
      vertex 5.47638 5.83175 0
    endloop
  endfacet
  facet normal 0 0 -1
    outer loop
      vertex 2 -4 0
      vertex 4.70228 -6.47214 0
      vertex 4.28661 -6.75462 0
    endloop
  endfacet
  facet normal -0 0 -1
    outer loop
      vertex 5.47638 5.83175 0
      vertex 4 4 0
      vertex 5.09939 6.16411 0
    endloop
  endfacet
  facet normal -0 0 -1
    outer loop
      vertex 5.09939 6.16411 0
      vertex 4 4 0
      vertex 4.70228 6.47214 0
    endloop
  endfacet
  facet normal 0 0 -1
    outer loop
      vertex 2 -4 0
      vertex 4.28661 -6.75462 0
      vertex 3.85403 -7.01045 0
    endloop
  endfacet
  facet normal 0 0 -1
    outer loop
      vertex 2 -4 0
      vertex 3.85403 -7.01045 0
      vertex 3.40623 -7.23862 0
    endloop
  endfacet
  facet normal -0 0 -1
    outer loop
      vertex 7.74866 -1.98952 0
      vertex 2 -3 0
      vertex 7.8583 -1.49905 0
    endloop
  endfacet
  facet normal -0 0 -1
    outer loop
      vertex 7.93692 -1.00267 0
      vertex 2 -3 0
      vertex 4 3 0
    endloop
  endfacet
  facet normal 0 0 -1
    outer loop
      vertex 2 -4 0
      vertex 3.40623 -7.23862 0
      vertex 2.945 -7.43821 0
    endloop
  endfacet
  facet normal -0 0 -1
    outer loop
      vertex 4.70228 6.47214 0
      vertex 4 4 0
      vertex 4.28661 6.75462 0
    endloop
  endfacet
  facet normal 0 0 -1
    outer loop
      vertex 3 4 0
      vertex 4.28661 6.75462 0
      vertex 4 4 0
    endloop
  endfacet
  facet normal -0 0 -1
    outer loop
      vertex 4.28661 6.75462 0
      vertex 3 4 0
      vertex 3.85403 7.01045 0
    endloop
  endfacet
  facet normal -0 0 -1
    outer loop
      vertex 3.85403 7.01045 0
      vertex 3 4 0
      vertex 3.40623 7.23862 0
    endloop
  endfacet
  facet normal 0 0 -1
    outer loop
      vertex 3 4 0
      vertex 2.945 7.43821 0
      vertex 3.40623 7.23862 0
    endloop
  endfacet
  facet normal -0 0 -1
    outer loop
      vertex 4 3 0
      vertex 2 -3 0
      vertex 3 3 0
    endloop
  endfacet
  facet normal 0 0 -1
    outer loop
      vertex 2 -4 0
      vertex 2.945 -7.43821 0
      vertex 2.47214 -7.60845 0
    endloop
  endfacet
  facet normal 0 0 -1
    outer loop
      vertex 3 3 0
      vertex 2.47214 7.60845 0
      vertex 3 4 0
    endloop
  endfacet
  facet normal 0 0 -1
    outer loop
      vertex 3 4 0
      vertex 2.47214 7.60845 0
      vertex 2.945 7.43821 0
    endloop
  endfacet
  facet normal 0 0 -1
    outer loop
      vertex 1.98952 -7.74866 0
      vertex 2 -4 0
      vertex 2.47214 -7.60845 0
    endloop
  endfacet
  facet normal 0 0 -1
    outer loop
      vertex 1 -4 0
      vertex 1.98952 -7.74866 0
      vertex 1.49905 -7.8583 0
    endloop
  endfacet
  facet normal 0 0 -1
    outer loop
      vertex 1 -4 0
      vertex 1.49905 -7.8583 0
      vertex 1.00267 -7.93692 0
    endloop
  endfacet
  facet normal 0 0 -1
    outer loop
      vertex 1.98952 -7.74866 0
      vertex 1 -4 0
      vertex 2 -4 0
    endloop
  endfacet
  facet normal 0 0 -1
    outer loop
      vertex 0 -4 0
      vertex 1 -4 0
      vertex 0.502324 -7.98421 0
    endloop
  endfacet
  facet normal 0 0 -1
    outer loop
      vertex 0.502324 -7.98421 0
      vertex 1 -4 0
      vertex 1.00267 -7.93692 0
    endloop
  endfacet
  facet normal -0.995562 -0.0941071 0
    outer loop
      vertex -7.93692 -1.00267 0
      vertex -7.98421 -0.502324 10
      vertex -7.98421 -0.502324 0
    endloop
  endfacet
  facet normal -0.995562 -0.0941071 0
    outer loop
      vertex -7.98421 -0.502324 10
      vertex -7.93692 -1.00267 0
      vertex -7.93692 -1.00267 10
    endloop
  endfacet
  facet normal -0.891007 -0.45399 0
    outer loop
      vertex -7.01045 -3.85403 0
      vertex -7.23862 -3.40623 10
      vertex -7.23862 -3.40623 0
    endloop
  endfacet
  facet normal -0.891007 -0.45399 0
    outer loop
      vertex -7.23862 -3.40623 10
      vertex -7.01045 -3.85403 0
      vertex -7.01045 -3.85403 10
    endloop
  endfacet
  facet normal -0.860741 -0.509043 0
    outer loop
      vertex -6.75462 -4.28661 0
      vertex -7.01045 -3.85403 10
      vertex -7.01045 -3.85403 0
    endloop
  endfacet
  facet normal -0.860741 -0.509043 0
    outer loop
      vertex -7.01045 -3.85403 10
      vertex -6.75462 -4.28661 0
      vertex -6.75462 -4.28661 10
    endloop
  endfacet
  facet normal -0.917755 -0.397148 0
    outer loop
      vertex -7.23862 -3.40623 0
      vertex -7.43821 -2.945 10
      vertex -7.43821 -2.945 0
    endloop
  endfacet
  facet normal -0.917755 -0.397148 0
    outer loop
      vertex -7.43821 -2.945 10
      vertex -7.23862 -3.40623 0
      vertex -7.23862 -3.40623 10
    endloop
  endfacet
  facet normal -0.790154 -0.612908 0
    outer loop
      vertex -6.16411 -5.09939 0
      vertex -6.47214 -4.70228 10
      vertex -6.47214 -4.70228 0
    endloop
  endfacet
  facet normal -0.790154 -0.612908 0
    outer loop
      vertex -6.47214 -4.70228 10
      vertex -6.16411 -5.09939 0
      vertex -6.16411 -5.09939 10
    endloop
  endfacet
  facet normal 0.860741 0.509043 0
    outer loop
      vertex 7.01045 3.85403 10
      vertex 6.75462 4.28661 0
      vertex 6.75462 4.28661 10
    endloop
  endfacet
  facet normal 0.860741 0.509043 0
    outer loop
      vertex 6.75462 4.28661 0
      vertex 7.01045 3.85403 10
      vertex 7.01045 3.85403 0
    endloop
  endfacet
  facet normal 0.0941071 0.995562 -0
    outer loop
      vertex 1.00267 7.93692 0
      vertex 0.502324 7.98421 10
      vertex 1.00267 7.93692 10
    endloop
  endfacet
  facet normal 0.0941071 0.995562 0
    outer loop
      vertex 0.502324 7.98421 10
      vertex 1.00267 7.93692 0
      vertex 0.502324 7.98421 0
    endloop
  endfacet
  facet normal 0 0 1
    outer loop
      vertex 4.70228 6.47214 10
      vertex 5 5 10
      vertex 5.09939 6.16411 10
    endloop
  endfacet
  facet normal 0 0 1
    outer loop
      vertex 4.28661 6.75462 10
      vertex 5 5 10
      vertex 4.70228 6.47214 10
    endloop
  endfacet
  facet normal 0 0 1
    outer loop
      vertex 3.85403 7.01045 10
      vertex 5 5 10
      vertex 4.28661 6.75462 10
    endloop
  endfacet
  facet normal 0 0 1
    outer loop
      vertex 3.40623 7.23862 10
      vertex 5 5 10
      vertex 3.85403 7.01045 10
    endloop
  endfacet
  facet normal 0 0 1
    outer loop
      vertex 2.945 7.43821 10
      vertex 5 5 10
      vertex 3.40623 7.23862 10
    endloop
  endfacet
  facet normal 0 0 1
    outer loop
      vertex 2.47214 7.60845 10
      vertex 5 5 10
      vertex 2.945 7.43821 10
    endloop
  endfacet
  facet normal 0 0 1
    outer loop
      vertex 1.98952 7.74866 10
      vertex 5 5 10
      vertex 2.47214 7.60845 10
    endloop
  endfacet
  facet normal 0 0 1
    outer loop
      vertex 1.49905 7.8583 10
      vertex 5 5 10
      vertex 1.98952 7.74866 10
    endloop
  endfacet
  facet normal 0 0 1
    outer loop
      vertex 1.00267 7.93692 10
      vertex 5 5 10
      vertex 1.49905 7.8583 10
    endloop
  endfacet
  facet normal 0 0 1
    outer loop
      vertex 0.502324 7.98421 10
      vertex 5 5 10
      vertex 1.00267 7.93692 10
    endloop
  endfacet
  facet normal 0 0 1
    outer loop
      vertex 0 8 10
      vertex 5 5 10
      vertex 0.502324 7.98421 10
    endloop
  endfacet
  facet normal 0 0 1
    outer loop
      vertex -5 5 10
      vertex 0 8 10
      vertex -0.502324 7.98421 10
    endloop
  endfacet
  facet normal 0 0 1
    outer loop
      vertex -5 5 10
      vertex -0.502324 7.98421 10
      vertex -1.00267 7.93692 10
    endloop
  endfacet
  facet normal 0 0 1
    outer loop
      vertex -5 5 10
      vertex -1.00267 7.93692 10
      vertex -1.49905 7.8583 10
    endloop
  endfacet
  facet normal 0 0 1
    outer loop
      vertex -5 5 10
      vertex -1.49905 7.8583 10
      vertex -1.98952 7.74866 10
    endloop
  endfacet
  facet normal 0 0 1
    outer loop
      vertex -5 5 10
      vertex -1.98952 7.74866 10
      vertex -2.47214 7.60845 10
    endloop
  endfacet
  facet normal 0 0 1
    outer loop
      vertex -5 5 10
      vertex -2.47214 7.60845 10
      vertex -2.945 7.43821 10
    endloop
  endfacet
  facet normal 0 0 1
    outer loop
      vertex -5 5 10
      vertex -2.945 7.43821 10
      vertex -3.40623 7.23862 10
    endloop
  endfacet
  facet normal 0 0 1
    outer loop
      vertex -5 5 10
      vertex -3.40623 7.23862 10
      vertex -3.85403 7.01045 10
    endloop
  endfacet
  facet normal 0 0 1
    outer loop
      vertex -5 5 10
      vertex -3.85403 7.01045 10
      vertex -4.28661 6.75462 10
    endloop
  endfacet
  facet normal 0 0 1
    outer loop
      vertex -5 5 10
      vertex -4.28661 6.75462 10
      vertex -4.70228 6.47214 10
    endloop
  endfacet
  facet normal 0 0 1
    outer loop
      vertex 0 8 10
      vertex -5 5 10
      vertex 5 5 10
    endloop
  endfacet
  facet normal -0 0 1
    outer loop
      vertex -5.47638 5.83175 10
      vertex -5 5 10
      vertex -5.09939 6.16411 10
    endloop
  endfacet
  facet normal -0 0 1
    outer loop
      vertex -5.09939 6.16411 10
      vertex -5 5 10
      vertex -4.70228 6.47214 10
    endloop
  endfacet
  facet normal -0 0 1
    outer loop
      vertex 5 -5 10
      vertex 6.16411 -5.09939 10
      vertex 6.2412 -5 10
    endloop
  endfacet
  facet normal 0 0 1
    outer loop
      vertex 6.16411 -5.09939 10
      vertex 5 -5 10
      vertex 5.83175 -5.47638 10
    endloop
  endfacet
  facet normal 0 0 1
    outer loop
      vertex 5.83175 -5.47638 10
      vertex 5 -5 10
      vertex 5.47638 -5.83175 10
    endloop
  endfacet
  facet normal 0 0 1
    outer loop
      vertex 5.47638 -5.83175 10
      vertex 5 -5 10
      vertex 5.09939 -6.16411 10
    endloop
  endfacet
  facet normal 0 0 1
    outer loop
      vertex 5 -5 10
      vertex 4.70228 -6.47214 10
      vertex 5.09939 -6.16411 10
    endloop
  endfacet
  facet normal 0 0 1
    outer loop
      vertex 5 -5 10
      vertex 4.28661 -6.75462 10
      vertex 4.70228 -6.47214 10
    endloop
  endfacet
  facet normal 0 0 1
    outer loop
      vertex 5 -5 10
      vertex 3.85403 -7.01045 10
      vertex 4.28661 -6.75462 10
    endloop
  endfacet
  facet normal 0 0 1
    outer loop
      vertex 5 -5 10
      vertex 3.40623 -7.23862 10
      vertex 3.85403 -7.01045 10
    endloop
  endfacet
  facet normal 0 0 1
    outer loop
      vertex 5 -5 10
      vertex 2.945 -7.43821 10
      vertex 3.40623 -7.23862 10
    endloop
  endfacet
  facet normal 0 0 1
    outer loop
      vertex 5 -5 10
      vertex 2.47214 -7.60845 10
      vertex 2.945 -7.43821 10
    endloop
  endfacet
  facet normal 0 0 1
    outer loop
      vertex 5 -5 10
      vertex 1.98952 -7.74866 10
      vertex 2.47214 -7.60845 10
    endloop
  endfacet
  facet normal 0 0 1
    outer loop
      vertex 5 -5 10
      vertex 1.49905 -7.8583 10
      vertex 1.98952 -7.74866 10
    endloop
  endfacet
  facet normal 0 0 1
    outer loop
      vertex 5 -5 10
      vertex 1.00267 -7.93692 10
      vertex 1.49905 -7.8583 10
    endloop
  endfacet
  facet normal 0 0 1
    outer loop
      vertex 5 -5 10
      vertex 0.502324 -7.98421 10
      vertex 1.00267 -7.93692 10
    endloop
  endfacet
  facet normal 0 0 1
    outer loop
      vertex 5 -5 10
      vertex 0 -8 10
      vertex 0.502324 -7.98421 10
    endloop
  endfacet
  facet normal -0 0 1
    outer loop
      vertex -5 -5 10
      vertex 0 -8 10
      vertex 5 -5 10
    endloop
  endfacet
  facet normal 0 0 1
    outer loop
      vertex 0 -8 10
      vertex -5 -5 10
      vertex -0.502324 -7.98421 10
    endloop
  endfacet
  facet normal 0 0 1
    outer loop
      vertex -0.502324 -7.98421 10
      vertex -5 -5 10
      vertex -1.00267 -7.93692 10
    endloop
  endfacet
  facet normal 0 0 1
    outer loop
      vertex -1.00267 -7.93692 10
      vertex -5 -5 10
      vertex -1.49905 -7.8583 10
    endloop
  endfacet
  facet normal 0 0 1
    outer loop
      vertex -1.49905 -7.8583 10
      vertex -5 -5 10
      vertex -1.98952 -7.74866 10
    endloop
  endfacet
  facet normal 0 0 1
    outer loop
      vertex -1.98952 -7.74866 10
      vertex -5 -5 10
      vertex -2.47214 -7.60845 10
    endloop
  endfacet
  facet normal 0 0 1
    outer loop
      vertex -2.47214 -7.60845 10
      vertex -5 -5 10
      vertex -2.945 -7.43821 10
    endloop
  endfacet
  facet normal 0 0 1
    outer loop
      vertex -2.945 -7.43821 10
      vertex -5 -5 10
      vertex -3.40623 -7.23862 10
    endloop
  endfacet
  facet normal 0 0 1
    outer loop
      vertex -3.40623 -7.23862 10
      vertex -5 -5 10
      vertex -3.85403 -7.01045 10
    endloop
  endfacet
  facet normal 0 0 1
    outer loop
      vertex -3.85403 -7.01045 10
      vertex -5 -5 10
      vertex -4.28661 -6.75462 10
    endloop
  endfacet
  facet normal 0 0 1
    outer loop
      vertex -4.28661 -6.75462 10
      vertex -5 -5 10
      vertex -4.70228 -6.47214 10
    endloop
  endfacet
  facet normal 0 0 1
    outer loop
      vertex -5 -5 10
      vertex -5.09939 -6.16411 10
      vertex -4.70228 -6.47214 10
    endloop
  endfacet
  facet normal -0 0 1
    outer loop
      vertex -5.83175 5.47638 10
      vertex -5 5 10
      vertex -5.47638 5.83175 10
    endloop
  endfacet
  facet normal -0 0 1
    outer loop
      vertex -6.16411 5.09939 10
      vertex -5 5 10
      vertex -5.83175 5.47638 10
    endloop
  endfacet
  facet normal 0 0 1
    outer loop
      vertex -5 -5 10
      vertex -5.47638 -5.83175 10
      vertex -5.09939 -6.16411 10
    endloop
  endfacet
  facet normal 0 0 1
    outer loop
      vertex -6.47214 4.70228 10
      vertex -5 5 10
      vertex -6.16411 5.09939 10
    endloop
  endfacet
  facet normal 0 0 1
    outer loop
      vertex -5 -5 10
      vertex -5.83175 -5.47638 10
      vertex -5.47638 -5.83175 10
    endloop
  endfacet
  facet normal 0 0 1
    outer loop
      vertex -6.75462 4.28661 10
      vertex -5 5 10
      vertex -6.47214 4.70228 10
    endloop
  endfacet
  facet normal 0 0 1
    outer loop
      vertex -5 -5 10
      vertex -6.16411 -5.09939 10
      vertex -5.83175 -5.47638 10
    endloop
  endfacet
  facet normal 0 0 1
    outer loop
      vertex -7.01045 3.85403 10
      vertex -5 5 10
      vertex -6.75462 4.28661 10
    endloop
  endfacet
  facet normal 0 0 1
    outer loop
      vertex -5 -5 10
      vertex -6.47214 -4.70228 10
      vertex -6.16411 -5.09939 10
    endloop
  endfacet
  facet normal 0 0 1
    outer loop
      vertex -7.23862 3.40623 10
      vertex -5 5 10
      vertex -7.01045 3.85403 10
    endloop
  endfacet
  facet normal 0 0 1
    outer loop
      vertex -5 -5 10
      vertex -6.75462 -4.28661 10
      vertex -6.47214 -4.70228 10
    endloop
  endfacet
  facet normal 0 0 1
    outer loop
      vertex -7.43821 2.945 10
      vertex -5 5 10
      vertex -7.23862 3.40623 10
    endloop
  endfacet
  facet normal 0 0 1
    outer loop
      vertex -5 -5 10
      vertex -7.01045 -3.85403 10
      vertex -6.75462 -4.28661 10
    endloop
  endfacet
  facet normal 0 0 1
    outer loop
      vertex -7.60845 2.47214 10
      vertex -5 5 10
      vertex -7.43821 2.945 10
    endloop
  endfacet
  facet normal 0 0 1
    outer loop
      vertex -5 -5 10
      vertex -7.23862 -3.40623 10
      vertex -7.01045 -3.85403 10
    endloop
  endfacet
  facet normal 0 0 1
    outer loop
      vertex -7.74866 1.98952 10
      vertex -5 5 10
      vertex -7.60845 2.47214 10
    endloop
  endfacet
  facet normal 0 0 1
    outer loop
      vertex -5 -5 10
      vertex -7.43821 -2.945 10
      vertex -7.23862 -3.40623 10
    endloop
  endfacet
  facet normal 0 0 1
    outer loop
      vertex -7.8583 1.49905 10
      vertex -5 5 10
      vertex -7.74866 1.98952 10
    endloop
  endfacet
  facet normal 0 0 1
    outer loop
      vertex -5 -5 10
      vertex -7.60845 -2.47214 10
      vertex -7.43821 -2.945 10
    endloop
  endfacet
  facet normal 0 0 1
    outer loop
      vertex -7.93692 1.00267 10
      vertex -5 5 10
      vertex -7.8583 1.49905 10
    endloop
  endfacet
  facet normal 0 0 1
    outer loop
      vertex -5 -5 10
      vertex -7.74866 -1.98952 10
      vertex -7.60845 -2.47214 10
    endloop
  endfacet
  facet normal 0 0 1
    outer loop
      vertex -7.98421 0.502324 10
      vertex -5 5 10
      vertex -7.93692 1.00267 10
    endloop
  endfacet
  facet normal 0 0 1
    outer loop
      vertex -5 -5 10
      vertex -7.8583 -1.49905 10
      vertex -7.74866 -1.98952 10
    endloop
  endfacet
  facet normal 0 0 1
    outer loop
      vertex -8 0 10
      vertex -5 5 10
      vertex -7.98421 0.502324 10
    endloop
  endfacet
  facet normal 0 0 1
    outer loop
      vertex -5 -5 10
      vertex -7.93692 -1.00267 10
      vertex -7.8583 -1.49905 10
    endloop
  endfacet
  facet normal 0 0 1
    outer loop
      vertex -5 5 10
      vertex -8 0 10
      vertex -5 -5 10
    endloop
  endfacet
  facet normal 0 0 1
    outer loop
      vertex -5 -5 10
      vertex -7.98421 -0.502324 10
      vertex -7.93692 -1.00267 10
    endloop
  endfacet
  facet normal 0 0 1
    outer loop
      vertex -5 -5 10
      vertex -8 0 10
      vertex -7.98421 -0.502324 10
    endloop
  endfacet
  facet normal 0 0 1
    outer loop
      vertex 5 5 10
      vertex 8 0 10
      vertex 7.98421 0.502324 10
    endloop
  endfacet
  facet normal 0 0 1
    outer loop
      vertex 5 5 10
      vertex 7.98421 0.502324 10
      vertex 7.93692 1.00267 10
    endloop
  endfacet
  facet normal 0 0 1
    outer loop
      vertex 5 -5 10
      vertex 8 0 10
      vertex 5 5 10
    endloop
  endfacet
  facet normal 0 0 1
    outer loop
      vertex 5 5 10
      vertex 7.93692 1.00267 10
      vertex 7.8583 1.49905 10
    endloop
  endfacet
  facet normal 0 0 1
    outer loop
      vertex 8 0 10
      vertex 5 -5 10
      vertex 7.98421 -0.502324 10
    endloop
  endfacet
  facet normal 0 0 1
    outer loop
      vertex 5 5 10
      vertex 7.8583 1.49905 10
      vertex 7.74866 1.98952 10
    endloop
  endfacet
  facet normal 0 0 1
    outer loop
      vertex 7.98421 -0.502324 10
      vertex 5 -5 10
      vertex 7.93692 -1.00267 10
    endloop
  endfacet
  facet normal 0 0 1
    outer loop
      vertex 5 5 10
      vertex 7.74866 1.98952 10
      vertex 7.60845 2.47214 10
    endloop
  endfacet
  facet normal 0 0 1
    outer loop
      vertex 7.93692 -1.00267 10
      vertex 5 -5 10
      vertex 7.8583 -1.49905 10
    endloop
  endfacet
  facet normal 0 0 1
    outer loop
      vertex 5 5 10
      vertex 7.60845 2.47214 10
      vertex 7.43821 2.945 10
    endloop
  endfacet
  facet normal 0 0 1
    outer loop
      vertex 7.8583 -1.49905 10
      vertex 5 -5 10
      vertex 7.74866 -1.98952 10
    endloop
  endfacet
  facet normal 0 0 1
    outer loop
      vertex 5 5 10
      vertex 7.43821 2.945 10
      vertex 7.23862 3.40623 10
    endloop
  endfacet
  facet normal 0 0 1
    outer loop
      vertex 7.74866 -1.98952 10
      vertex 5 -5 10
      vertex 7.60845 -2.47214 10
    endloop
  endfacet
  facet normal 0 0 1
    outer loop
      vertex 5 5 10
      vertex 7.23862 3.40623 10
      vertex 7.01045 3.85403 10
    endloop
  endfacet
  facet normal 0 0 1
    outer loop
      vertex 7.60845 -2.47214 10
      vertex 5 -5 10
      vertex 7.43821 -2.945 10
    endloop
  endfacet
  facet normal 0 0 1
    outer loop
      vertex 5 5 10
      vertex 7.01045 3.85403 10
      vertex 6.75462 4.28661 10
    endloop
  endfacet
  facet normal 0 0 1
    outer loop
      vertex 7.43821 -2.945 10
      vertex 5 -5 10
      vertex 7.23862 -3.40623 10
    endloop
  endfacet
  facet normal 0 0 1
    outer loop
      vertex 5 5 10
      vertex 6.75462 4.28661 10
      vertex 6.47214 4.70228 10
    endloop
  endfacet
  facet normal 0 0 1
    outer loop
      vertex 7.23862 -3.40623 10
      vertex 5 -5 10
      vertex 7.01045 -3.85403 10
    endloop
  endfacet
  facet normal 0 0 1
    outer loop
      vertex 6.75462 -4.28661 10
      vertex 5 -5 10
      vertex 6.47214 -4.70228 10
    endloop
  endfacet
  facet normal -0 0 1
    outer loop
      vertex 5 5 10
      vertex 6.47214 4.70228 10
      vertex 6.16411 5.09939 10
    endloop
  endfacet
  facet normal 0 0 1
    outer loop
      vertex 5 5 10
      vertex 6.16411 5.09939 10
      vertex 5.83175 5.47638 10
    endloop
  endfacet
  facet normal 0 0 1
    outer loop
      vertex 5 5 10
      vertex 5.83175 5.47638 10
      vertex 5.47638 5.83175 10
    endloop
  endfacet
  facet normal 0 0 1
    outer loop
      vertex 5 5 10
      vertex 5.47638 5.83175 10
      vertex 5.09939 6.16411 10
    endloop
  endfacet
  facet normal 0 0 1
    outer loop
      vertex 7.01045 -3.85403 10
      vertex 5 -5 10
      vertex 6.75462 -4.28661 10
    endloop
  endfacet
  facet normal 0 0 1
    outer loop
      vertex 6.47214 -4.70228 10
      vertex 5 -5 10
      vertex 6.2412 -5 10
    endloop
  endfacet
  facet normal -0.995562 0.0941071 0
    outer loop
      vertex -7.98421 0.502324 0
      vertex -7.93692 1.00267 10
      vertex -7.93692 1.00267 0
    endloop
  endfacet
  facet normal -0.995562 0.0941071 0
    outer loop
      vertex -7.93692 1.00267 10
      vertex -7.98421 0.502324 0
      vertex -7.98421 0.502324 10
    endloop
  endfacet
  facet normal -0.975917 0.218143 0
    outer loop
      vertex -7.8583 1.49905 0
      vertex -7.74866 1.98952 10
      vertex -7.74866 1.98952 0
    endloop
  endfacet
  facet normal -0.975917 0.218143 0
    outer loop
      vertex -7.74866 1.98952 10
      vertex -7.8583 1.49905 0
      vertex -7.8583 1.49905 10
    endloop
  endfacet
  facet normal -0.827082 0.562082 0
    outer loop
      vertex -6.75462 4.28661 0
      vertex -6.47214 4.70228 10
      vertex -6.47214 4.70228 0
    endloop
  endfacet
  facet normal -0.827082 0.562082 0
    outer loop
      vertex -6.47214 4.70228 10
      vertex -6.75462 4.28661 0
      vertex -6.75462 4.28661 10
    endloop
  endfacet
  facet normal -0.750112 0.661311 0
    outer loop
      vertex -6.16411 5.09939 0
      vertex -5.83175 5.47638 10
      vertex -5.83175 5.47638 0
    endloop
  endfacet
  facet normal -0.750112 0.661311 0
    outer loop
      vertex -5.83175 5.47638 10
      vertex -6.16411 5.09939 0
      vertex -6.16411 5.09939 10
    endloop
  endfacet
  facet normal 0.975917 -0.218143 0
    outer loop
      vertex 7.74866 -1.98952 10
      vertex 7.8583 -1.49905 0
      vertex 7.8583 -1.49905 10
    endloop
  endfacet
  facet normal 0.975917 -0.218143 0
    outer loop
      vertex 7.8583 -1.49905 0
      vertex 7.74866 -1.98952 10
      vertex 7.74866 -1.98952 0
    endloop
  endfacet
  facet normal 0.891007 -0.45399 0
    outer loop
      vertex 7.01045 -3.85403 10
      vertex 7.23862 -3.40623 0
      vertex 7.23862 -3.40623 10
    endloop
  endfacet
  facet normal 0.891007 -0.45399 0
    outer loop
      vertex 7.23862 -3.40623 0
      vertex 7.01045 -3.85403 10
      vertex 7.01045 -3.85403 0
    endloop
  endfacet
  facet normal 0.218143 -0.975917 0
    outer loop
      vertex 1.49905 -7.8583 0
      vertex 1.98952 -7.74866 10
      vertex 1.49905 -7.8583 10
    endloop
  endfacet
  facet normal 0.218143 -0.975917 0
    outer loop
      vertex 1.98952 -7.74866 10
      vertex 1.49905 -7.8583 0
      vertex 1.98952 -7.74866 0
    endloop
  endfacet
  facet normal -0.338738 -0.940881 0
    outer loop
      vertex -2.945 -7.43821 0
      vertex -2.47214 -7.60845 10
      vertex -2.945 -7.43821 10
    endloop
  endfacet
  facet normal -0.338738 -0.940881 -0
    outer loop
      vertex -2.47214 -7.60845 10
      vertex -2.945 -7.43821 0
      vertex -2.47214 -7.60845 0
    endloop
  endfacet
  facet normal -0.750112 -0.661311 0
    outer loop
      vertex -5.83175 -5.47638 0
      vertex -6.16411 -5.09939 10
      vertex -6.16411 -5.09939 0
    endloop
  endfacet
  facet normal -0.750112 -0.661311 0
    outer loop
      vertex -6.16411 -5.09939 10
      vertex -5.83175 -5.47638 0
      vertex -5.83175 -5.47638 10
    endloop
  endfacet
  facet normal 0.917755 -0.397148 0
    outer loop
      vertex 7.23862 -3.40623 10
      vertex 7.43821 -2.945 0
      vertex 7.43821 -2.945 10
    endloop
  endfacet
  facet normal 0.917755 -0.397148 0
    outer loop
      vertex 7.43821 -2.945 0
      vertex 7.23862 -3.40623 10
      vertex 7.23862 -3.40623 0
    endloop
  endfacet
  facet normal 0.790155 -0.612908 0
    outer loop
      vertex 6.2412 -5 10
      vertex 6.47214 -4.70228 0
      vertex 6.47214 -4.70228 10
    endloop
  endfacet
  facet normal 0.790153 -0.612909 0
    outer loop
      vertex 6.16411 -5.09939 0
      vertex 6.2412 -5 10
      vertex 6.16411 -5.09939 10
    endloop
  endfacet
  facet normal 0.790154 -0.612908 -1.88373e-08
    outer loop
      vertex 6.2412 -5 10
      vertex 6.16411 -5.09939 0
      vertex 6.47214 -4.70228 0
    endloop
  endfacet
  facet normal -1 0 0
    outer loop
      vertex -5 5 10
      vertex -5 -5 10
      vertex -5 5 15.7735
    endloop
  endfacet
  facet normal 1 0 0
    outer loop
      vertex 5 5 15.7735
      vertex 5 -5 10
      vertex 5 5 10
    endloop
  endfacet
  facet normal 0 1 -0
    outer loop
      vertex 5 5 10
      vertex -5 5 15.7735
      vertex 5 5 15.7735
    endloop
  endfacet
  facet normal 0 1 0
    outer loop
      vertex -5 5 15.7735
      vertex 5 5 10
      vertex -5 5 10
    endloop
  endfacet
  facet normal 1 -0 0
    outer loop
      vertex -1 -4 10.5774
      vertex -1 -3 0
      vertex -1 -3 11.1547
    endloop
  endfacet
  facet normal 1 0 0
    outer loop
      vertex -1 -3 0
      vertex -1 -4 10.5774
      vertex -1 -4 0
    endloop
  endfacet
  facet normal -1 0 0
    outer loop
      vertex 0 -4 10.5774
      vertex 0 -3 0
      vertex 0 -4 0
    endloop
  endfacet
  facet normal -1 0 0
    outer loop
      vertex 0 -3 0
      vertex 0 -4 10.5774
      vertex 0 -3 11.1547
    endloop
  endfacet
  facet normal 0 -1 0
    outer loop
      vertex -1 -3 0
      vertex 0 -3 11.1547
      vertex -1 -3 11.1547
    endloop
  endfacet
  facet normal 0 -1 -0
    outer loop
      vertex 0 -3 11.1547
      vertex -1 -3 0
      vertex 0 -3 0
    endloop
  endfacet
  facet normal 0 1 -0
    outer loop
      vertex 0 -4 0
      vertex -1 -4 10.5774
      vertex 0 -4 10.5774
    endloop
  endfacet
  facet normal 0 1 0
    outer loop
      vertex -1 -4 10.5774
      vertex 0 -4 0
      vertex -1 -4 0
    endloop
  endfacet
  facet normal 1 -0 0
    outer loop
      vertex 1 -4 10.5774
      vertex 1 -3 0
      vertex 1 -3 11.1547
    endloop
  endfacet
  facet normal 1 0 0
    outer loop
      vertex 1 -3 0
      vertex 1 -4 10.5774
      vertex 1 -4 0
    endloop
  endfacet
  facet normal -1 0 0
    outer loop
      vertex 2 -4 10.5774
      vertex 2 -3 0
      vertex 2 -4 0
    endloop
  endfacet
  facet normal -1 0 0
    outer loop
      vertex 2 -3 0
      vertex 2 -4 10.5774
      vertex 2 -3 11.1547
    endloop
  endfacet
  facet normal 0 -1 0
    outer loop
      vertex 1 -3 0
      vertex 2 -3 11.1547
      vertex 1 -3 11.1547
    endloop
  endfacet
  facet normal 0 -1 -0
    outer loop
      vertex 2 -3 11.1547
      vertex 1 -3 0
      vertex 2 -3 0
    endloop
  endfacet
  facet normal 0 1 -0
    outer loop
      vertex 2 -4 0
      vertex 1 -4 10.5774
      vertex 2 -4 10.5774
    endloop
  endfacet
  facet normal 0 1 0
    outer loop
      vertex 1 -4 10.5774
      vertex 2 -4 0
      vertex 1 -4 0
    endloop
  endfacet
  facet normal 1 -0 0
    outer loop
      vertex -3 3 14.6188
      vertex -3 4 0
      vertex -3 4 15.1962
    endloop
  endfacet
  facet normal 1 0 0
    outer loop
      vertex -3 4 0
      vertex -3 3 14.6188
      vertex -3 3 0
    endloop
  endfacet
  facet normal -1 0 0
    outer loop
      vertex -2 3 14.6188
      vertex -2 4 0
      vertex -2 3 0
    endloop
  endfacet
  facet normal -1 0 0
    outer loop
      vertex -2 4 0
      vertex -2 3 14.6188
      vertex -2 4 15.1962
    endloop
  endfacet
  facet normal 0 1 -0
    outer loop
      vertex -2 3 0
      vertex -3 3 14.6188
      vertex -2 3 14.6188
    endloop
  endfacet
  facet normal 0 1 0
    outer loop
      vertex -3 3 14.6188
      vertex -2 3 0
      vertex -3 3 0
    endloop
  endfacet
  facet normal 0 -1 0
    outer loop
      vertex -3 4 0
      vertex -2 4 15.1962
      vertex -3 4 15.1962
    endloop
  endfacet
  facet normal 0 -1 -0
    outer loop
      vertex -2 4 15.1962
      vertex -3 4 0
      vertex -2 4 0
    endloop
  endfacet
  facet normal 1 -0 0
    outer loop
      vertex 3 3 14.6188
      vertex 3 4 0
      vertex 3 4 15.1962
    endloop
  endfacet
  facet normal 1 0 0
    outer loop
      vertex 3 4 0
      vertex 3 3 14.6188
      vertex 3 3 0
    endloop
  endfacet
  facet normal -1 0 0
    outer loop
      vertex 4 3 14.6188
      vertex 4 4 0
      vertex 4 3 0
    endloop
  endfacet
  facet normal -1 0 0
    outer loop
      vertex 4 4 0
      vertex 4 3 14.6188
      vertex 4 4 15.1962
    endloop
  endfacet
  facet normal 0 1 -0
    outer loop
      vertex 4 3 0
      vertex 3 3 14.6188
      vertex 4 3 14.6188
    endloop
  endfacet
  facet normal 0 1 0
    outer loop
      vertex 3 3 14.6188
      vertex 4 3 0
      vertex 3 3 0
    endloop
  endfacet
  facet normal 0 -1 0
    outer loop
      vertex 3 4 0
      vertex 4 4 15.1962
      vertex 3 4 15.1962
    endloop
  endfacet
  facet normal 0 -1 -0
    outer loop
      vertex 4 4 15.1962
      vertex 3 4 0
      vertex 4 4 0
    endloop
  endfacet
  facet normal 8.25906e-07 -0.5 0.866025
    outer loop
      vertex 4 3 14.6188
      vertex 5 5 15.7735
      vertex 4 4 15.1962
    endloop
  endfacet
  facet normal 0 -0.5 0.866026
    outer loop
      vertex 5 5 15.7735
      vertex 3 4 15.1962
      vertex 4 4 15.1962
    endloop
  endfacet
  facet normal 0 -0.5 0.866025
    outer loop
      vertex -2 3 14.6188
      vertex 3 3 14.6188
      vertex 3 4 15.1962
    endloop
  endfacet
  facet normal 0 -0.5 0.866025
    outer loop
      vertex 3 3 14.6188
      vertex 1 -3 11.1547
      vertex 2 -3 11.1547
    endloop
  endfacet
  facet normal 0 -0.5 0.866026
    outer loop
      vertex 1 -3 11.1547
      vertex 0 -3 11.1547
      vertex 1 -4 10.5774
    endloop
  endfacet
  facet normal 0 -0.5 0.866025
    outer loop
      vertex 3 3 14.6188
      vertex -2 3 14.6188
      vertex 1 -3 11.1547
    endloop
  endfacet
  facet normal 0 -0.5 0.866025
    outer loop
      vertex 1 -3 11.1547
      vertex -2 3 14.6188
      vertex 0 -3 11.1547
    endloop
  endfacet
  facet normal 0 -0.5 0.866025
    outer loop
      vertex 0 -3 11.1547
      vertex -2 3 14.6188
      vertex -1 -3 11.1547
    endloop
  endfacet
  facet normal 0 -0.5 0.866025
    outer loop
      vertex -2 3 14.6188
      vertex 3 4 15.1962
      vertex -2 4 15.1962
    endloop
  endfacet
  facet normal 0 -0.5 0.866026
    outer loop
      vertex 5 5 15.7735
      vertex -2 4 15.1962
      vertex 3 4 15.1962
    endloop
  endfacet
  facet normal 0 -0.5 0.866026
    outer loop
      vertex -5 5 15.7735
      vertex -2 4 15.1962
      vertex 5 5 15.7735
    endloop
  endfacet
  facet normal -4.12953e-07 -0.5 0.866025
    outer loop
      vertex -3 4 15.1962
      vertex -5 5 15.7735
      vertex -3 3 14.6188
    endloop
  endfacet
  facet normal 0 -0.5 0.866026
    outer loop
      vertex -2 4 15.1962
      vertex -5 5 15.7735
      vertex -3 4 15.1962
    endloop
  endfacet
  facet normal 1.65181e-07 -0.5 0.866025
    outer loop
      vertex 5 5 15.7735
      vertex 4 3 14.6188
      vertex 5 -5 10
    endloop
  endfacet
  facet normal 0 -0.5 0.866025
    outer loop
      vertex 2 -3 11.1547
      vertex 4 3 14.6188
      vertex 3 3 14.6188
    endloop
  endfacet
  facet normal -7.50824e-08 -0.5 0.866025
    outer loop
      vertex 4 3 14.6188
      vertex 2 -3 11.1547
      vertex 5 -5 10
    endloop
  endfacet
  facet normal 2.75302e-07 -0.5 0.866026
    outer loop
      vertex 2 -4 10.5774
      vertex 5 -5 10
      vertex 2 -3 11.1547
    endloop
  endfacet
  facet normal 0 -0.5 0.866025
    outer loop
      vertex 1 -4 10.5774
      vertex 5 -5 10
      vertex 2 -4 10.5774
    endloop
  endfacet
  facet normal 0 -0.5 0.866026
    outer loop
      vertex 0 -4 10.5774
      vertex 1 -4 10.5774
      vertex 0 -3 11.1547
    endloop
  endfacet
  facet normal 0 -0.5 0.866025
    outer loop
      vertex 0 -4 10.5774
      vertex 5 -5 10
      vertex 1 -4 10.5774
    endloop
  endfacet
  facet normal 0 -0.5 0.866025
    outer loop
      vertex -5 -5 10
      vertex 0 -4 10.5774
      vertex -1 -4 10.5774
    endloop
  endfacet
  facet normal 0 -0.5 0.866025
    outer loop
      vertex -3 3 14.6188
      vertex -1 -3 11.1547
      vertex -2 3 14.6188
    endloop
  endfacet
  facet normal 5.89933e-08 -0.5 0.866025
    outer loop
      vertex -5 -5 10
      vertex -1 -3 11.1547
      vertex -3 3 14.6188
    endloop
  endfacet
  facet normal -8.25906e-08 -0.5 0.866025
    outer loop
      vertex -5 -5 10
      vertex -3 3 14.6188
      vertex -5 5 15.7735
    endloop
  endfacet
  facet normal 0 -0.5 0.866025
    outer loop
      vertex 0 -4 10.5774
      vertex -5 -5 10
      vertex 5 -5 10
    endloop
  endfacet
  facet normal -2.06477e-07 -0.5 0.866026
    outer loop
      vertex -1 -3 11.1547
      vertex -5 -5 10
      vertex -1 -4 10.5774
    endloop
  endfacet
endsolid OpenSCAD_Model
